M48
;DRILL file {KiCad (5.0.0)} date 11/30/20 17:00:05
;FORMAT={-:-/ absolute / inch / decimal}
FMAT,2
INCH,TZ
T1C0.0320
T2C0.0350
T3C0.0394
T4C0.1616
%
G90
G05
M72
T1
X5.4031Y-2.4421
X5.4031Y-2.9343
X5.6Y-2.4421
X5.6Y-2.9343
X6.1031Y-2.4421
X6.1031Y-2.9343
X6.3Y-2.4421
X6.3Y-2.9343
X7.6531Y-3.9
X7.6531Y-4.3921
X7.85Y-3.9
X7.85Y-4.3921
X6.1Y-3.9
X6.1Y-4.3921
X6.2969Y-3.9
X6.2969Y-4.3921
X5.4Y-3.9
X5.4Y-4.3921
X5.5969Y-3.9
X5.5969Y-4.3921
X6.8781Y-2.45
X6.8781Y-2.9421
X7.075Y-2.45
X7.075Y-2.9421
X8.425Y-3.9079
X8.425Y-4.4
X8.6219Y-3.9079
X8.6219Y-4.4
X7.6531Y-2.45
X7.6531Y-2.9421
X7.85Y-2.45
X7.85Y-2.9421
X6.8781Y-3.9
X6.8781Y-4.3921
X7.075Y-3.9
X7.075Y-4.3921
X8.4281Y-2.45
X8.4281Y-2.9421
X8.625Y-2.45
X8.625Y-2.9421
T2
X4.175Y-3.925
X4.275Y-3.925
X4.375Y-3.925
T3
X5.35Y-3.55
X5.35Y-3.65
X5.35Y-5.25
X5.35Y-5.35
X5.45Y-3.55
X5.45Y-3.65
X5.45Y-5.25
X5.45Y-5.35
X5.55Y-3.55
X5.55Y-3.65
X5.55Y-5.25
X5.55Y-5.35
X5.65Y-3.55
X5.65Y-3.65
X5.65Y-5.25
X5.65Y-5.35
X5.75Y-3.55
X5.75Y-3.65
X5.75Y-5.25
X5.75Y-5.35
X5.85Y-3.55
X5.85Y-3.65
X5.85Y-5.25
X5.85Y-5.35
X5.95Y-3.55
X5.95Y-3.65
X5.95Y-5.25
X5.95Y-5.35
X6.05Y-3.55
X6.05Y-3.65
X6.05Y-5.25
X6.05Y-5.35
X6.15Y-3.55
X6.15Y-3.65
X6.15Y-5.25
X6.15Y-5.35
X6.25Y-3.55
X6.25Y-3.65
X6.25Y-5.25
X6.25Y-5.35
X7.85Y-3.55
X7.85Y-3.65
X7.85Y-5.25
X7.85Y-5.35
X7.95Y-3.55
X7.95Y-3.65
X7.95Y-5.25
X7.95Y-5.35
X8.05Y-3.55
X8.05Y-3.65
X8.05Y-5.25
X8.05Y-5.35
X8.15Y-3.55
X8.15Y-3.65
X8.15Y-5.25
X8.15Y-5.35
X8.25Y-3.55
X8.25Y-3.65
X8.25Y-5.25
X8.25Y-5.35
X8.35Y-3.55
X8.35Y-3.65
X8.35Y-5.25
X8.35Y-5.35
X8.45Y-3.55
X8.45Y-3.65
X8.45Y-5.25
X8.45Y-5.35
X8.55Y-3.55
X8.55Y-3.65
X8.55Y-5.25
X8.55Y-5.35
X8.65Y-3.55
X8.65Y-3.65
X8.65Y-5.25
X8.65Y-5.35
X8.75Y-3.55
X8.75Y-3.65
X8.75Y-5.25
X8.75Y-5.35
T4
X4.1385Y-4.399
X4.4495Y-4.399
T0
M30
