G04 #@! TF.GenerationSoftware,KiCad,Pcbnew,(5.0.0)*
G04 #@! TF.CreationDate,2020-11-30T18:27:01-06:00*
G04 #@! TF.ProjectId,GiecoBoard_2021_Rev1,476965636F426F6172645F323032315F,rev?*
G04 #@! TF.SameCoordinates,Original*
G04 #@! TF.FileFunction,Copper,L2,Bot,Signal*
G04 #@! TF.FilePolarity,Positive*
%FSLAX46Y46*%
G04 Gerber Fmt 4.6, Leading zero omitted, Abs format (unit mm)*
G04 Created by KiCad (PCBNEW (5.0.0)) date 11/30/20 18:27:01*
%MOMM*%
%LPD*%
G01*
G04 APERTURE LIST*
G04 #@! TA.AperFunction,ComponentPad*
%ADD10O,1.727200X3.048000*%
G04 #@! TD*
G04 #@! TA.AperFunction,ComponentPad*
%ADD11C,1.520000*%
G04 #@! TD*
G04 #@! TA.AperFunction,ComponentPad*
%ADD12C,1.524000*%
G04 #@! TD*
G04 #@! TA.AperFunction,ComponentPad*
%ADD13C,5.080000*%
G04 #@! TD*
G04 #@! TA.AperFunction,Conductor*
%ADD14C,0.254000*%
G04 #@! TD*
G04 APERTURE END LIST*
D10*
G04 #@! TO.P,J2,1*
G04 #@! TO.N,+3V3*
X111205000Y-73994704D03*
G04 #@! TO.P,J2,2*
G04 #@! TO.N,Send_ScienceSensor*
X116205000Y-73994704D03*
G04 #@! TO.P,J2,1*
G04 #@! TO.N,+3V3*
X111205000Y-86494704D03*
G04 #@! TO.P,J2,2*
G04 #@! TO.N,Send_ScienceSensor*
X116205000Y-86494704D03*
G04 #@! TD*
G04 #@! TO.P,J3,1*
G04 #@! TO.N,+3V3*
X130890000Y-73994704D03*
G04 #@! TO.P,J3,2*
G04 #@! TO.N,Send_ScienceActuation*
X135890000Y-73994704D03*
G04 #@! TO.P,J3,1*
G04 #@! TO.N,+3V3*
X130890000Y-86494704D03*
G04 #@! TO.P,J3,2*
G04 #@! TO.N,Send_ScienceActuation*
X135890000Y-86494704D03*
G04 #@! TD*
G04 #@! TO.P,J4,2*
G04 #@! TO.N,Send_Gimbal*
X116205000Y-49029704D03*
G04 #@! TO.P,J4,1*
G04 #@! TO.N,+3V3*
X111205000Y-49029704D03*
G04 #@! TO.P,J4,2*
G04 #@! TO.N,Send_Gimbal*
X116205000Y-36529704D03*
G04 #@! TO.P,J4,1*
G04 #@! TO.N,+3V3*
X111205000Y-36529704D03*
G04 #@! TD*
G04 #@! TO.P,J5,2*
G04 #@! TO.N,Send_DriveCommand*
X98425000Y-49029704D03*
G04 #@! TO.P,J5,1*
G04 #@! TO.N,+3V3*
X93425000Y-49029704D03*
G04 #@! TO.P,J5,2*
G04 #@! TO.N,Send_DriveCommand*
X98425000Y-36529704D03*
G04 #@! TO.P,J5,1*
G04 #@! TO.N,+3V3*
X93425000Y-36529704D03*
G04 #@! TD*
G04 #@! TO.P,J6,2*
G04 #@! TO.N,Send_NavigationalControl*
X155495000Y-86494704D03*
G04 #@! TO.P,J6,1*
G04 #@! TO.N,+3V3*
X150495000Y-86494704D03*
G04 #@! TO.P,J6,2*
G04 #@! TO.N,Send_NavigationalControl*
X155495000Y-73994704D03*
G04 #@! TO.P,J6,1*
G04 #@! TO.N,+3V3*
X150495000Y-73994704D03*
G04 #@! TD*
G04 #@! TO.P,J7,1*
G04 #@! TO.N,+3V3*
X168910000Y-73994704D03*
G04 #@! TO.P,J7,2*
G04 #@! TO.N,Send_12VDistribution*
X173910000Y-73994704D03*
G04 #@! TO.P,J7,1*
G04 #@! TO.N,+3V3*
X168910000Y-86494704D03*
G04 #@! TO.P,J7,2*
G04 #@! TO.N,Send_12VDistribution*
X173910000Y-86494704D03*
G04 #@! TD*
G04 #@! TO.P,J8,2*
G04 #@! TO.N,Send_BatteryManagement*
X173990000Y-48829704D03*
G04 #@! TO.P,J8,1*
G04 #@! TO.N,+3V3*
X168990000Y-48829704D03*
G04 #@! TO.P,J8,2*
G04 #@! TO.N,Send_BatteryManagement*
X173990000Y-36329704D03*
G04 #@! TO.P,J8,1*
G04 #@! TO.N,+3V3*
X168990000Y-36329704D03*
G04 #@! TD*
G04 #@! TO.P,J9,2*
G04 #@! TO.N,Send_PackVoltageDistribution*
X155655000Y-48964408D03*
G04 #@! TO.P,J9,1*
G04 #@! TO.N,+3V3*
X150655000Y-48964408D03*
G04 #@! TO.P,J9,2*
G04 #@! TO.N,Send_PackVoltageDistribution*
X155655000Y-36464408D03*
G04 #@! TO.P,J9,1*
G04 #@! TO.N,+3V3*
X150655000Y-36464408D03*
G04 #@! TD*
G04 #@! TO.P,J10,2*
G04 #@! TO.N,Send_Multimedia*
X135890000Y-48933520D03*
G04 #@! TO.P,J10,1*
G04 #@! TO.N,+3V3*
X130890000Y-48933520D03*
G04 #@! TO.P,J10,2*
G04 #@! TO.N,Send_Multimedia*
X135890000Y-36433520D03*
G04 #@! TO.P,J10,1*
G04 #@! TO.N,+3V3*
X130890000Y-36433520D03*
G04 #@! TD*
G04 #@! TO.P,J1,1*
G04 #@! TO.N,+3V3*
X93980000Y-74194704D03*
G04 #@! TO.P,J1,2*
G04 #@! TO.N,Send_ArmArticulation*
X98980000Y-74194704D03*
G04 #@! TO.P,J1,1*
G04 #@! TO.N,+3V3*
X93980000Y-86694704D03*
G04 #@! TO.P,J1,2*
G04 #@! TO.N,Send_ArmArticulation*
X98980000Y-86694704D03*
G04 #@! TD*
D11*
G04 #@! TO.P,U1,+3V3`*
G04 #@! TO.N,N/C*
X151130000Y-111125000D03*
G04 #@! TO.P,U1,PM6*
G04 #@! TO.N,Net-(U1-PadPM6)*
X173990000Y-65405000D03*
G04 #@! TO.P,U1,PQ1*
G04 #@! TO.N,REC_LED_BatteryManagement*
X171450000Y-65405000D03*
G04 #@! TO.P,U1,PQ2*
G04 #@! TO.N,Net-(U1-PadPQ2)*
X163830000Y-65405000D03*
G04 #@! TO.P,U1,PK0*
G04 #@! TO.N,REC_LED_NavigationalControl*
X161290000Y-108585000D03*
G04 #@! TO.P,U1,PQ3*
G04 #@! TO.N,Net-(U1-PadPQ3)*
X166370000Y-65405000D03*
G04 #@! TO.P,U1,PP3*
G04 #@! TO.N,Send_BatteryManagement*
X168910000Y-65405000D03*
G04 #@! TO.P,U1,PQ0*
G04 #@! TO.N,Net-(U1-PadPQ0)*
X166370000Y-111125000D03*
G04 #@! TO.P,U1,PA4*
G04 #@! TO.N,REC_LED_12VDistribution*
X171450000Y-108585000D03*
G04 #@! TO.P,U1,Rese`*
G04 #@! TO.N,N/C*
X161290000Y-65405000D03*
G04 #@! TO.P,U1,PA7*
G04 #@! TO.N,REC_LED_PackVoltageDistribution*
X158750000Y-65405000D03*
G04 #@! TO.P,U1,PN5*
G04 #@! TO.N,Net-(U1-PadPN5)*
X171450000Y-111125000D03*
G04 #@! TO.P,U1,PK2*
G04 #@! TO.N,Net-(U1-PadPK2)*
X166370000Y-108585000D03*
G04 #@! TO.P,U1,PK1*
G04 #@! TO.N,Net-(U1-PadPK1)*
X163830000Y-108585000D03*
G04 #@! TO.P,U1,+5V`*
G04 #@! TO.N,N/C*
X151130000Y-108585000D03*
G04 #@! TO.P,U1,GND*
G04 #@! TO.N,GND*
X153670000Y-108585000D03*
G04 #@! TO.P,U1,PB4*
G04 #@! TO.N,Net-(U1-PadPB4)*
X156210000Y-108585000D03*
G04 #@! TO.P,U1,PB5*
G04 #@! TO.N,Send_NavigationalControl*
X158750000Y-108585000D03*
G04 #@! TO.P,U1,PK3*
G04 #@! TO.N,Send_12VDistribution*
X168910000Y-108585000D03*
G04 #@! TO.P,U1,PA5*
G04 #@! TO.N,Net-(U1-PadPA5)*
X173990000Y-108585000D03*
G04 #@! TO.P,U1,PD2*
G04 #@! TO.N,Net-(U1-PadPD2)*
X153670000Y-111125000D03*
G04 #@! TO.P,U1,PP0*
G04 #@! TO.N,Net-(U1-PadPP0)*
X156210000Y-111125000D03*
G04 #@! TO.P,U1,PP1*
G04 #@! TO.N,Net-(U1-PadPP1)*
X158750000Y-111125000D03*
G04 #@! TO.P,U1,PD4*
G04 #@! TO.N,Net-(U1-PadPD4)*
X161290000Y-111125000D03*
G04 #@! TO.P,U1,PD5*
G04 #@! TO.N,Net-(U1-PadPD5)*
X163830000Y-111125000D03*
G04 #@! TO.P,U1,PP4*
G04 #@! TO.N,Net-(U1-PadPP4)*
X168910000Y-111125000D03*
G04 #@! TO.P,U1,PN4*
G04 #@! TO.N,Net-(U1-PadPN4)*
X173990000Y-111125000D03*
G04 #@! TO.P,U1,PG1*
G04 #@! TO.N,Net-(U1-PadPG1)*
X151130000Y-67945000D03*
G04 #@! TO.P,U1,PK4*
G04 #@! TO.N,Net-(U1-PadPK4)*
X153670000Y-67945000D03*
G04 #@! TO.P,U1,PK5*
G04 #@! TO.N,Net-(U1-PadPK5)*
X156210000Y-67945000D03*
G04 #@! TO.P,U1,PM0*
G04 #@! TO.N,Net-(U1-PadPM0)*
X158750000Y-67945000D03*
G04 #@! TO.P,U1,PM1*
G04 #@! TO.N,Net-(U1-PadPM1)*
X161290000Y-67945000D03*
G04 #@! TO.P,U1,PM2*
G04 #@! TO.N,Net-(U1-PadPM2)*
X163830000Y-67945000D03*
G04 #@! TO.P,U1,PH0*
G04 #@! TO.N,Net-(U1-PadPH0)*
X166370000Y-67945000D03*
G04 #@! TO.P,U1,PH1*
G04 #@! TO.N,Net-(U1-PadPH1)*
X168910000Y-67945000D03*
G04 #@! TO.P,U1,PK6*
G04 #@! TO.N,Net-(U1-PadPK6)*
X171450000Y-67945000D03*
G04 #@! TO.P,U1,PK7*
G04 #@! TO.N,Net-(U1-PadPK7)*
X173990000Y-67945000D03*
G04 #@! TO.P,U1,GND*
G04 #@! TO.N,GND*
X151130000Y-65405000D03*
G04 #@! TO.P,U1,PM7*
G04 #@! TO.N,Net-(U1-PadPM7)*
X153670000Y-65405000D03*
G04 #@! TO.P,U1,PP5*
G04 #@! TO.N,Send_PackVoltageDistribution*
X156210000Y-65405000D03*
G04 #@! TO.P,U1,+5V*
G04 #@! TO.N,Net-(U1-Pad+5V)*
X87630000Y-108585000D03*
G04 #@! TO.P,U1,GND*
G04 #@! TO.N,GND*
X90170000Y-108585000D03*
G04 #@! TO.P,U1,PE0*
G04 #@! TO.N,Send_ArmArticulation*
X92710000Y-108585000D03*
G04 #@! TO.P,U1,PE1*
G04 #@! TO.N,REC_LED_ArmArticulation*
X95250000Y-108585000D03*
G04 #@! TO.P,U1,PE2*
G04 #@! TO.N,Net-(U1-PadPE2)*
X97790000Y-108585000D03*
G04 #@! TO.P,U1,PE3*
G04 #@! TO.N,Send_ScienceSensor*
X100330000Y-108585000D03*
G04 #@! TO.P,U1,PD7*
G04 #@! TO.N,REC_LED_ScienceSensor*
X102870000Y-108585000D03*
G04 #@! TO.P,U1,PA6*
G04 #@! TO.N,Net-(U1-PadPA6)*
X105410000Y-108585000D03*
G04 #@! TO.P,U1,PM4*
G04 #@! TO.N,Send_ScienceActuation*
X107950000Y-108585000D03*
G04 #@! TO.P,U1,PM5*
G04 #@! TO.N,REC_LED_ScienceActuation*
X110490000Y-108585000D03*
G04 #@! TO.P,U1,+3V3*
G04 #@! TO.N,+3V3*
X87630000Y-111125000D03*
G04 #@! TO.P,U1,PE4*
G04 #@! TO.N,Net-(U1-PadPE4)*
X90170000Y-111125000D03*
G04 #@! TO.P,U1,PC4*
G04 #@! TO.N,Net-(U1-PadPC4)*
X92710000Y-111125000D03*
G04 #@! TO.P,U1,PC5*
G04 #@! TO.N,Net-(U1-PadPC5)*
X95250000Y-111125000D03*
G04 #@! TO.P,U1,PC6*
G04 #@! TO.N,Net-(U1-PadPC6)*
X97790000Y-111125000D03*
G04 #@! TO.P,U1,PE5*
G04 #@! TO.N,Net-(U1-PadPE5)*
X100330000Y-111125000D03*
G04 #@! TO.P,U1,PD3*
G04 #@! TO.N,Net-(U1-PadPD3)*
X102870000Y-111125000D03*
G04 #@! TO.P,U1,PC7*
G04 #@! TO.N,Net-(U1-PadPC7)*
X105410000Y-111125000D03*
G04 #@! TO.P,U1,PB2*
G04 #@! TO.N,Net-(U1-PadPB2)*
X107950000Y-111125000D03*
G04 #@! TO.P,U1,PB3*
G04 #@! TO.N,Net-(U1-PadPB3)*
X110490000Y-111125000D03*
G04 #@! TO.P,U1,PF1*
G04 #@! TO.N,Net-(U1-PadPF1)*
X87630000Y-67945000D03*
G04 #@! TO.P,U1,PF2*
G04 #@! TO.N,Net-(U1-PadPF2)*
X90170000Y-67945000D03*
G04 #@! TO.P,U1,PF3*
G04 #@! TO.N,Net-(U1-PadPF3)*
X92710000Y-67945000D03*
G04 #@! TO.P,U1,PG0*
G04 #@! TO.N,Net-(U1-PadPG0)*
X95250000Y-67945000D03*
G04 #@! TO.P,U1,PL4*
G04 #@! TO.N,Net-(U1-PadPL4)*
X97790000Y-67945000D03*
G04 #@! TO.P,U1,PL5*
G04 #@! TO.N,Net-(U1-PadPL5)*
X100330000Y-67945000D03*
G04 #@! TO.P,U1,PL0*
G04 #@! TO.N,Net-(U1-PadPL0)*
X102870000Y-67945000D03*
G04 #@! TO.P,U1,PL1*
G04 #@! TO.N,Net-(U1-PadPL1)*
X105410000Y-67945000D03*
G04 #@! TO.P,U1,PL2*
G04 #@! TO.N,Net-(U1-PadPL2)*
X107950000Y-67945000D03*
G04 #@! TO.P,U1,PL3*
G04 #@! TO.N,Net-(U1-PadPL3)*
X110490000Y-67945000D03*
G04 #@! TO.P,U1,GND*
G04 #@! TO.N,GND*
X87630000Y-65405000D03*
G04 #@! TO.P,U1,PM3*
G04 #@! TO.N,Send_DriveCommand*
X90170000Y-65405000D03*
G04 #@! TO.P,U1,PH2*
G04 #@! TO.N,REC_LED_DriveCommand*
X92710000Y-65405000D03*
G04 #@! TO.P,U1,PH3*
G04 #@! TO.N,Net-(U1-PadPH3)*
X95250000Y-65405000D03*
G04 #@! TO.P,U1,Rese*
G04 #@! TO.N,Net-(U1-PadRese)*
X97790000Y-65405000D03*
G04 #@! TO.P,U1,PD1*
G04 #@! TO.N,Send_Gimbal*
X100330000Y-65405000D03*
G04 #@! TO.P,U1,PD0*
G04 #@! TO.N,REC_LED_Gimbal*
X102870000Y-65405000D03*
G04 #@! TO.P,U1,PN2*
G04 #@! TO.N,Net-(U1-PadPN2)*
X105410000Y-65405000D03*
G04 #@! TO.P,U1,PN3*
G04 #@! TO.N,Send_Multimedia*
X107950000Y-65405000D03*
G04 #@! TO.P,U1,PP2*
G04 #@! TO.N,REC_LED_Multimedia*
X110490000Y-65405000D03*
G04 #@! TD*
D12*
G04 #@! TO.P,U2,1*
G04 #@! TO.N,Net-(C1-Pad1)*
X191135000Y-73994704D03*
G04 #@! TO.P,U2,2*
G04 #@! TO.N,GND*
X193675000Y-73994704D03*
G04 #@! TO.P,U2,3*
G04 #@! TO.N,+3V3*
X196215000Y-73994704D03*
G04 #@! TD*
D13*
G04 #@! TO.P,Conn1,2*
G04 #@! TO.N,Net-(C1-Pad1)*
X193294000Y-80010000D03*
G04 #@! TO.P,Conn1,1*
G04 #@! TO.N,GND*
X193294000Y-87884000D03*
G04 #@! TD*
D14*
G04 #@! TO.N,+3V3*
G36*
X178133364Y-31879985D02*
X178439928Y-32019372D01*
X178695050Y-32239199D01*
X178878218Y-32521792D01*
X178981743Y-32867959D01*
X178995000Y-33046350D01*
X178995001Y-54770780D01*
X179000169Y-54796761D01*
X179017877Y-55035048D01*
X179033431Y-55105791D01*
X179043259Y-55177538D01*
X179045693Y-55185863D01*
X179200452Y-55703343D01*
X179240898Y-55790875D01*
X179280217Y-55878776D01*
X179284887Y-55886078D01*
X179284890Y-55886084D01*
X179284894Y-55886088D01*
X179578669Y-56339328D01*
X179642015Y-56411943D01*
X179704466Y-56485323D01*
X179710999Y-56491021D01*
X179711002Y-56491025D01*
X179711004Y-56491026D01*
X180120182Y-56843597D01*
X180201377Y-56895523D01*
X180281900Y-56948417D01*
X180289770Y-56952053D01*
X180289773Y-56952055D01*
X180289776Y-56952056D01*
X180781462Y-57175612D01*
X180873956Y-57202659D01*
X180966098Y-57230830D01*
X180974677Y-57232112D01*
X181490334Y-57305960D01*
X181540074Y-57315854D01*
X184023000Y-57315854D01*
X184023000Y-70485000D01*
X184032667Y-70533601D01*
X184060197Y-70574803D01*
X184101399Y-70602333D01*
X184150000Y-70612000D01*
X200533000Y-70612000D01*
X200533000Y-77597000D01*
X195371128Y-77597000D01*
X195092493Y-77318365D01*
X193925547Y-76835000D01*
X192662453Y-76835000D01*
X191495507Y-77318365D01*
X191216872Y-77597000D01*
X187960000Y-77597000D01*
X187911399Y-77606667D01*
X187870197Y-77634197D01*
X187842667Y-77675399D01*
X187833000Y-77724000D01*
X187833000Y-113157475D01*
X87070000Y-113535337D01*
X87070000Y-109862978D01*
X87352517Y-109980000D01*
X87907483Y-109980000D01*
X88420204Y-109767624D01*
X88812624Y-109375204D01*
X88900000Y-109164260D01*
X88987376Y-109375204D01*
X89379796Y-109767624D01*
X89590740Y-109855000D01*
X89379796Y-109942376D01*
X88987376Y-110334796D01*
X88775000Y-110847517D01*
X88775000Y-111402483D01*
X88987376Y-111915204D01*
X89379796Y-112307624D01*
X89892517Y-112520000D01*
X90447483Y-112520000D01*
X90960204Y-112307624D01*
X91352624Y-111915204D01*
X91440000Y-111704260D01*
X91527376Y-111915204D01*
X91919796Y-112307624D01*
X92432517Y-112520000D01*
X92987483Y-112520000D01*
X93500204Y-112307624D01*
X93892624Y-111915204D01*
X93980000Y-111704260D01*
X94067376Y-111915204D01*
X94459796Y-112307624D01*
X94972517Y-112520000D01*
X95527483Y-112520000D01*
X96040204Y-112307624D01*
X96432624Y-111915204D01*
X96520000Y-111704260D01*
X96607376Y-111915204D01*
X96999796Y-112307624D01*
X97512517Y-112520000D01*
X98067483Y-112520000D01*
X98580204Y-112307624D01*
X98972624Y-111915204D01*
X99060000Y-111704260D01*
X99147376Y-111915204D01*
X99539796Y-112307624D01*
X100052517Y-112520000D01*
X100607483Y-112520000D01*
X101120204Y-112307624D01*
X101512624Y-111915204D01*
X101600000Y-111704260D01*
X101687376Y-111915204D01*
X102079796Y-112307624D01*
X102592517Y-112520000D01*
X103147483Y-112520000D01*
X103660204Y-112307624D01*
X104052624Y-111915204D01*
X104140000Y-111704260D01*
X104227376Y-111915204D01*
X104619796Y-112307624D01*
X105132517Y-112520000D01*
X105687483Y-112520000D01*
X106200204Y-112307624D01*
X106592624Y-111915204D01*
X106680000Y-111704260D01*
X106767376Y-111915204D01*
X107159796Y-112307624D01*
X107672517Y-112520000D01*
X108227483Y-112520000D01*
X108740204Y-112307624D01*
X109132624Y-111915204D01*
X109220000Y-111704260D01*
X109307376Y-111915204D01*
X109699796Y-112307624D01*
X110212517Y-112520000D01*
X110767483Y-112520000D01*
X111280204Y-112307624D01*
X111672624Y-111915204D01*
X111885000Y-111402483D01*
X111885000Y-110847517D01*
X111672624Y-110334796D01*
X111280204Y-109942376D01*
X111069260Y-109855000D01*
X111280204Y-109767624D01*
X111672624Y-109375204D01*
X111885000Y-108862483D01*
X111885000Y-108307517D01*
X149735000Y-108307517D01*
X149735000Y-108862483D01*
X149947376Y-109375204D01*
X150339796Y-109767624D01*
X150550740Y-109855000D01*
X150339796Y-109942376D01*
X149947376Y-110334796D01*
X149735000Y-110847517D01*
X149735000Y-111402483D01*
X149947376Y-111915204D01*
X150339796Y-112307624D01*
X150852517Y-112520000D01*
X151407483Y-112520000D01*
X151920204Y-112307624D01*
X152312624Y-111915204D01*
X152400000Y-111704260D01*
X152487376Y-111915204D01*
X152879796Y-112307624D01*
X153392517Y-112520000D01*
X153947483Y-112520000D01*
X154460204Y-112307624D01*
X154852624Y-111915204D01*
X154940000Y-111704260D01*
X155027376Y-111915204D01*
X155419796Y-112307624D01*
X155932517Y-112520000D01*
X156487483Y-112520000D01*
X157000204Y-112307624D01*
X157392624Y-111915204D01*
X157480000Y-111704260D01*
X157567376Y-111915204D01*
X157959796Y-112307624D01*
X158472517Y-112520000D01*
X159027483Y-112520000D01*
X159540204Y-112307624D01*
X159932624Y-111915204D01*
X160020000Y-111704260D01*
X160107376Y-111915204D01*
X160499796Y-112307624D01*
X161012517Y-112520000D01*
X161567483Y-112520000D01*
X162080204Y-112307624D01*
X162472624Y-111915204D01*
X162560000Y-111704260D01*
X162647376Y-111915204D01*
X163039796Y-112307624D01*
X163552517Y-112520000D01*
X164107483Y-112520000D01*
X164620204Y-112307624D01*
X165012624Y-111915204D01*
X165100000Y-111704260D01*
X165187376Y-111915204D01*
X165579796Y-112307624D01*
X166092517Y-112520000D01*
X166647483Y-112520000D01*
X167160204Y-112307624D01*
X167552624Y-111915204D01*
X167640000Y-111704260D01*
X167727376Y-111915204D01*
X168119796Y-112307624D01*
X168632517Y-112520000D01*
X169187483Y-112520000D01*
X169700204Y-112307624D01*
X170092624Y-111915204D01*
X170180000Y-111704260D01*
X170267376Y-111915204D01*
X170659796Y-112307624D01*
X171172517Y-112520000D01*
X171727483Y-112520000D01*
X172240204Y-112307624D01*
X172632624Y-111915204D01*
X172720000Y-111704260D01*
X172807376Y-111915204D01*
X173199796Y-112307624D01*
X173712517Y-112520000D01*
X174267483Y-112520000D01*
X174780204Y-112307624D01*
X175172624Y-111915204D01*
X175385000Y-111402483D01*
X175385000Y-110847517D01*
X175172624Y-110334796D01*
X174780204Y-109942376D01*
X174569260Y-109855000D01*
X174780204Y-109767624D01*
X175172624Y-109375204D01*
X175385000Y-108862483D01*
X175385000Y-108307517D01*
X175172624Y-107794796D01*
X174780204Y-107402376D01*
X174267483Y-107190000D01*
X173712517Y-107190000D01*
X173199796Y-107402376D01*
X172807376Y-107794796D01*
X172720000Y-108005740D01*
X172632624Y-107794796D01*
X172240204Y-107402376D01*
X171727483Y-107190000D01*
X171172517Y-107190000D01*
X170659796Y-107402376D01*
X170267376Y-107794796D01*
X170180000Y-108005740D01*
X170092624Y-107794796D01*
X169700204Y-107402376D01*
X169187483Y-107190000D01*
X168632517Y-107190000D01*
X168119796Y-107402376D01*
X167727376Y-107794796D01*
X167640000Y-108005740D01*
X167552624Y-107794796D01*
X167160204Y-107402376D01*
X166647483Y-107190000D01*
X166092517Y-107190000D01*
X165579796Y-107402376D01*
X165187376Y-107794796D01*
X165100000Y-108005740D01*
X165012624Y-107794796D01*
X164620204Y-107402376D01*
X164107483Y-107190000D01*
X163552517Y-107190000D01*
X163039796Y-107402376D01*
X162647376Y-107794796D01*
X162560000Y-108005740D01*
X162472624Y-107794796D01*
X162080204Y-107402376D01*
X161567483Y-107190000D01*
X161012517Y-107190000D01*
X160499796Y-107402376D01*
X160107376Y-107794796D01*
X160020000Y-108005740D01*
X159932624Y-107794796D01*
X159540204Y-107402376D01*
X159027483Y-107190000D01*
X158472517Y-107190000D01*
X157959796Y-107402376D01*
X157567376Y-107794796D01*
X157480000Y-108005740D01*
X157392624Y-107794796D01*
X157000204Y-107402376D01*
X156487483Y-107190000D01*
X155932517Y-107190000D01*
X155419796Y-107402376D01*
X155027376Y-107794796D01*
X154940000Y-108005740D01*
X154852624Y-107794796D01*
X154460204Y-107402376D01*
X153947483Y-107190000D01*
X153392517Y-107190000D01*
X152879796Y-107402376D01*
X152487376Y-107794796D01*
X152400000Y-108005740D01*
X152312624Y-107794796D01*
X151920204Y-107402376D01*
X151407483Y-107190000D01*
X150852517Y-107190000D01*
X150339796Y-107402376D01*
X149947376Y-107794796D01*
X149735000Y-108307517D01*
X111885000Y-108307517D01*
X111672624Y-107794796D01*
X111280204Y-107402376D01*
X110767483Y-107190000D01*
X110212517Y-107190000D01*
X109699796Y-107402376D01*
X109307376Y-107794796D01*
X109220000Y-108005740D01*
X109132624Y-107794796D01*
X108740204Y-107402376D01*
X108227483Y-107190000D01*
X107672517Y-107190000D01*
X107159796Y-107402376D01*
X106767376Y-107794796D01*
X106680000Y-108005740D01*
X106592624Y-107794796D01*
X106200204Y-107402376D01*
X105687483Y-107190000D01*
X105132517Y-107190000D01*
X104619796Y-107402376D01*
X104227376Y-107794796D01*
X104140000Y-108005740D01*
X104052624Y-107794796D01*
X103660204Y-107402376D01*
X103147483Y-107190000D01*
X102592517Y-107190000D01*
X102079796Y-107402376D01*
X101687376Y-107794796D01*
X101600000Y-108005740D01*
X101512624Y-107794796D01*
X101120204Y-107402376D01*
X100607483Y-107190000D01*
X100052517Y-107190000D01*
X99539796Y-107402376D01*
X99147376Y-107794796D01*
X99060000Y-108005740D01*
X98972624Y-107794796D01*
X98580204Y-107402376D01*
X98067483Y-107190000D01*
X97512517Y-107190000D01*
X96999796Y-107402376D01*
X96607376Y-107794796D01*
X96520000Y-108005740D01*
X96432624Y-107794796D01*
X96040204Y-107402376D01*
X95527483Y-107190000D01*
X94972517Y-107190000D01*
X94459796Y-107402376D01*
X94067376Y-107794796D01*
X93980000Y-108005740D01*
X93892624Y-107794796D01*
X93500204Y-107402376D01*
X92987483Y-107190000D01*
X92432517Y-107190000D01*
X91919796Y-107402376D01*
X91527376Y-107794796D01*
X91440000Y-108005740D01*
X91352624Y-107794796D01*
X90960204Y-107402376D01*
X90447483Y-107190000D01*
X89892517Y-107190000D01*
X89379796Y-107402376D01*
X88987376Y-107794796D01*
X88900000Y-108005740D01*
X88812624Y-107794796D01*
X88420204Y-107402376D01*
X87907483Y-107190000D01*
X87352517Y-107190000D01*
X87070000Y-107307022D01*
X87070000Y-85886707D01*
X97481400Y-85886707D01*
X97481400Y-87502702D01*
X97568351Y-87939829D01*
X97899571Y-88435534D01*
X98395276Y-88766754D01*
X98980000Y-88883063D01*
X99564725Y-88766754D01*
X100060430Y-88435534D01*
X100391650Y-87939829D01*
X100478600Y-87502702D01*
X100478600Y-85886706D01*
X100438818Y-85686707D01*
X114706400Y-85686707D01*
X114706400Y-87302702D01*
X114793351Y-87739829D01*
X115124571Y-88235534D01*
X115620276Y-88566754D01*
X116205000Y-88683063D01*
X116789725Y-88566754D01*
X117285430Y-88235534D01*
X117616650Y-87739829D01*
X117703600Y-87302702D01*
X117703600Y-85686707D01*
X134391400Y-85686707D01*
X134391400Y-87302702D01*
X134478351Y-87739829D01*
X134809571Y-88235534D01*
X135305276Y-88566754D01*
X135890000Y-88683063D01*
X136474725Y-88566754D01*
X136970430Y-88235534D01*
X137301650Y-87739829D01*
X137388600Y-87302702D01*
X137388600Y-85686707D01*
X153996400Y-85686707D01*
X153996400Y-87302702D01*
X154083351Y-87739829D01*
X154414571Y-88235534D01*
X154910276Y-88566754D01*
X155495000Y-88683063D01*
X156079725Y-88566754D01*
X156575430Y-88235534D01*
X156906650Y-87739829D01*
X156993600Y-87302702D01*
X156993600Y-85686707D01*
X172411400Y-85686707D01*
X172411400Y-87302702D01*
X172498351Y-87739829D01*
X172829571Y-88235534D01*
X173325276Y-88566754D01*
X173910000Y-88683063D01*
X174494725Y-88566754D01*
X174990430Y-88235534D01*
X175321650Y-87739829D01*
X175408600Y-87302702D01*
X175408600Y-85686706D01*
X175321650Y-85249579D01*
X174990430Y-84753874D01*
X174494724Y-84422654D01*
X173910000Y-84306345D01*
X173325275Y-84422654D01*
X172829570Y-84753874D01*
X172498350Y-85249580D01*
X172411400Y-85686707D01*
X156993600Y-85686707D01*
X156993600Y-85686706D01*
X156906650Y-85249579D01*
X156575430Y-84753874D01*
X156079724Y-84422654D01*
X155495000Y-84306345D01*
X154910275Y-84422654D01*
X154414570Y-84753874D01*
X154083350Y-85249580D01*
X153996400Y-85686707D01*
X137388600Y-85686707D01*
X137388600Y-85686706D01*
X137301650Y-85249579D01*
X136970430Y-84753874D01*
X136474724Y-84422654D01*
X135890000Y-84306345D01*
X135305275Y-84422654D01*
X134809570Y-84753874D01*
X134478350Y-85249580D01*
X134391400Y-85686707D01*
X117703600Y-85686707D01*
X117703600Y-85686706D01*
X117616650Y-85249579D01*
X117285430Y-84753874D01*
X116789724Y-84422654D01*
X116205000Y-84306345D01*
X115620275Y-84422654D01*
X115124570Y-84753874D01*
X114793350Y-85249580D01*
X114706400Y-85686707D01*
X100438818Y-85686707D01*
X100391650Y-85449579D01*
X100060430Y-84953874D01*
X99564724Y-84622654D01*
X98980000Y-84506345D01*
X98395275Y-84622654D01*
X97899570Y-84953874D01*
X97568350Y-85449580D01*
X97481400Y-85886707D01*
X87070000Y-85886707D01*
X87070000Y-73386707D01*
X97481400Y-73386707D01*
X97481400Y-75002702D01*
X97568351Y-75439829D01*
X97899571Y-75935534D01*
X98395276Y-76266754D01*
X98980000Y-76383063D01*
X99564725Y-76266754D01*
X100060430Y-75935534D01*
X100391650Y-75439829D01*
X100478600Y-75002702D01*
X100478600Y-73386706D01*
X100438818Y-73186707D01*
X114706400Y-73186707D01*
X114706400Y-74802702D01*
X114793351Y-75239829D01*
X115124571Y-75735534D01*
X115620276Y-76066754D01*
X116205000Y-76183063D01*
X116789725Y-76066754D01*
X117285430Y-75735534D01*
X117616650Y-75239829D01*
X117703600Y-74802702D01*
X117703600Y-73186707D01*
X134391400Y-73186707D01*
X134391400Y-74802702D01*
X134478351Y-75239829D01*
X134809571Y-75735534D01*
X135305276Y-76066754D01*
X135890000Y-76183063D01*
X136474725Y-76066754D01*
X136970430Y-75735534D01*
X137301650Y-75239829D01*
X137388600Y-74802702D01*
X137388600Y-73186707D01*
X153996400Y-73186707D01*
X153996400Y-74802702D01*
X154083351Y-75239829D01*
X154414571Y-75735534D01*
X154910276Y-76066754D01*
X155495000Y-76183063D01*
X156079725Y-76066754D01*
X156575430Y-75735534D01*
X156906650Y-75239829D01*
X156993600Y-74802702D01*
X156993600Y-73186707D01*
X172411400Y-73186707D01*
X172411400Y-74802702D01*
X172498351Y-75239829D01*
X172829571Y-75735534D01*
X173325276Y-76066754D01*
X173910000Y-76183063D01*
X174494725Y-76066754D01*
X174990430Y-75735534D01*
X175321650Y-75239829D01*
X175408600Y-74802702D01*
X175408600Y-73716823D01*
X189738000Y-73716823D01*
X189738000Y-74272585D01*
X189950680Y-74786041D01*
X190343663Y-75179024D01*
X190857119Y-75391704D01*
X191412881Y-75391704D01*
X191926337Y-75179024D01*
X192319320Y-74786041D01*
X192405000Y-74579191D01*
X192490680Y-74786041D01*
X192883663Y-75179024D01*
X193397119Y-75391704D01*
X193952881Y-75391704D01*
X194466337Y-75179024D01*
X194859320Y-74786041D01*
X195072000Y-74272585D01*
X195072000Y-73716823D01*
X194859320Y-73203367D01*
X194466337Y-72810384D01*
X193952881Y-72597704D01*
X193397119Y-72597704D01*
X192883663Y-72810384D01*
X192490680Y-73203367D01*
X192405000Y-73410217D01*
X192319320Y-73203367D01*
X191926337Y-72810384D01*
X191412881Y-72597704D01*
X190857119Y-72597704D01*
X190343663Y-72810384D01*
X189950680Y-73203367D01*
X189738000Y-73716823D01*
X175408600Y-73716823D01*
X175408600Y-73186706D01*
X175321650Y-72749579D01*
X174990430Y-72253874D01*
X174494724Y-71922654D01*
X173910000Y-71806345D01*
X173325275Y-71922654D01*
X172829570Y-72253874D01*
X172498350Y-72749580D01*
X172411400Y-73186707D01*
X156993600Y-73186707D01*
X156993600Y-73186706D01*
X156906650Y-72749579D01*
X156575430Y-72253874D01*
X156079724Y-71922654D01*
X155495000Y-71806345D01*
X154910275Y-71922654D01*
X154414570Y-72253874D01*
X154083350Y-72749580D01*
X153996400Y-73186707D01*
X137388600Y-73186707D01*
X137388600Y-73186706D01*
X137301650Y-72749579D01*
X136970430Y-72253874D01*
X136474724Y-71922654D01*
X135890000Y-71806345D01*
X135305275Y-71922654D01*
X134809570Y-72253874D01*
X134478350Y-72749580D01*
X134391400Y-73186707D01*
X117703600Y-73186707D01*
X117703600Y-73186706D01*
X117616650Y-72749579D01*
X117285430Y-72253874D01*
X116789724Y-71922654D01*
X116205000Y-71806345D01*
X115620275Y-71922654D01*
X115124570Y-72253874D01*
X114793350Y-72749580D01*
X114706400Y-73186707D01*
X100438818Y-73186707D01*
X100391650Y-72949579D01*
X100060430Y-72453874D01*
X99564724Y-72122654D01*
X98980000Y-72006345D01*
X98395275Y-72122654D01*
X97899570Y-72453874D01*
X97568350Y-72949580D01*
X97481400Y-73386707D01*
X87070000Y-73386707D01*
X87070000Y-69222978D01*
X87352517Y-69340000D01*
X87907483Y-69340000D01*
X88420204Y-69127624D01*
X88812624Y-68735204D01*
X88900000Y-68524260D01*
X88987376Y-68735204D01*
X89379796Y-69127624D01*
X89892517Y-69340000D01*
X90447483Y-69340000D01*
X90960204Y-69127624D01*
X91352624Y-68735204D01*
X91440000Y-68524260D01*
X91527376Y-68735204D01*
X91919796Y-69127624D01*
X92432517Y-69340000D01*
X92987483Y-69340000D01*
X93500204Y-69127624D01*
X93892624Y-68735204D01*
X93980000Y-68524260D01*
X94067376Y-68735204D01*
X94459796Y-69127624D01*
X94972517Y-69340000D01*
X95527483Y-69340000D01*
X96040204Y-69127624D01*
X96432624Y-68735204D01*
X96520000Y-68524260D01*
X96607376Y-68735204D01*
X96999796Y-69127624D01*
X97512517Y-69340000D01*
X98067483Y-69340000D01*
X98580204Y-69127624D01*
X98972624Y-68735204D01*
X99060000Y-68524260D01*
X99147376Y-68735204D01*
X99539796Y-69127624D01*
X100052517Y-69340000D01*
X100607483Y-69340000D01*
X101120204Y-69127624D01*
X101512624Y-68735204D01*
X101600000Y-68524260D01*
X101687376Y-68735204D01*
X102079796Y-69127624D01*
X102592517Y-69340000D01*
X103147483Y-69340000D01*
X103660204Y-69127624D01*
X104052624Y-68735204D01*
X104140000Y-68524260D01*
X104227376Y-68735204D01*
X104619796Y-69127624D01*
X105132517Y-69340000D01*
X105687483Y-69340000D01*
X106200204Y-69127624D01*
X106592624Y-68735204D01*
X106680000Y-68524260D01*
X106767376Y-68735204D01*
X107159796Y-69127624D01*
X107672517Y-69340000D01*
X108227483Y-69340000D01*
X108740204Y-69127624D01*
X109132624Y-68735204D01*
X109220000Y-68524260D01*
X109307376Y-68735204D01*
X109699796Y-69127624D01*
X110212517Y-69340000D01*
X110767483Y-69340000D01*
X111280204Y-69127624D01*
X111672624Y-68735204D01*
X111885000Y-68222483D01*
X111885000Y-67667517D01*
X111672624Y-67154796D01*
X111280204Y-66762376D01*
X111069260Y-66675000D01*
X111280204Y-66587624D01*
X111672624Y-66195204D01*
X111885000Y-65682483D01*
X111885000Y-65127517D01*
X149735000Y-65127517D01*
X149735000Y-65682483D01*
X149947376Y-66195204D01*
X150339796Y-66587624D01*
X150550740Y-66675000D01*
X150339796Y-66762376D01*
X149947376Y-67154796D01*
X149735000Y-67667517D01*
X149735000Y-68222483D01*
X149947376Y-68735204D01*
X150339796Y-69127624D01*
X150852517Y-69340000D01*
X151407483Y-69340000D01*
X151920204Y-69127624D01*
X152312624Y-68735204D01*
X152400000Y-68524260D01*
X152487376Y-68735204D01*
X152879796Y-69127624D01*
X153392517Y-69340000D01*
X153947483Y-69340000D01*
X154460204Y-69127624D01*
X154852624Y-68735204D01*
X154940000Y-68524260D01*
X155027376Y-68735204D01*
X155419796Y-69127624D01*
X155932517Y-69340000D01*
X156487483Y-69340000D01*
X157000204Y-69127624D01*
X157392624Y-68735204D01*
X157480000Y-68524260D01*
X157567376Y-68735204D01*
X157959796Y-69127624D01*
X158472517Y-69340000D01*
X159027483Y-69340000D01*
X159540204Y-69127624D01*
X159932624Y-68735204D01*
X160020000Y-68524260D01*
X160107376Y-68735204D01*
X160499796Y-69127624D01*
X161012517Y-69340000D01*
X161567483Y-69340000D01*
X162080204Y-69127624D01*
X162472624Y-68735204D01*
X162560000Y-68524260D01*
X162647376Y-68735204D01*
X163039796Y-69127624D01*
X163552517Y-69340000D01*
X164107483Y-69340000D01*
X164620204Y-69127624D01*
X165012624Y-68735204D01*
X165100000Y-68524260D01*
X165187376Y-68735204D01*
X165579796Y-69127624D01*
X166092517Y-69340000D01*
X166647483Y-69340000D01*
X167160204Y-69127624D01*
X167552624Y-68735204D01*
X167640000Y-68524260D01*
X167727376Y-68735204D01*
X168119796Y-69127624D01*
X168632517Y-69340000D01*
X169187483Y-69340000D01*
X169700204Y-69127624D01*
X170092624Y-68735204D01*
X170180000Y-68524260D01*
X170267376Y-68735204D01*
X170659796Y-69127624D01*
X171172517Y-69340000D01*
X171727483Y-69340000D01*
X172240204Y-69127624D01*
X172632624Y-68735204D01*
X172720000Y-68524260D01*
X172807376Y-68735204D01*
X173199796Y-69127624D01*
X173712517Y-69340000D01*
X174267483Y-69340000D01*
X174780204Y-69127624D01*
X175172624Y-68735204D01*
X175385000Y-68222483D01*
X175385000Y-67667517D01*
X175172624Y-67154796D01*
X174780204Y-66762376D01*
X174569260Y-66675000D01*
X174780204Y-66587624D01*
X175172624Y-66195204D01*
X175385000Y-65682483D01*
X175385000Y-65127517D01*
X175172624Y-64614796D01*
X174780204Y-64222376D01*
X174267483Y-64010000D01*
X173712517Y-64010000D01*
X173199796Y-64222376D01*
X172807376Y-64614796D01*
X172720000Y-64825740D01*
X172632624Y-64614796D01*
X172240204Y-64222376D01*
X171727483Y-64010000D01*
X171172517Y-64010000D01*
X170659796Y-64222376D01*
X170267376Y-64614796D01*
X170180000Y-64825740D01*
X170092624Y-64614796D01*
X169700204Y-64222376D01*
X169187483Y-64010000D01*
X168632517Y-64010000D01*
X168119796Y-64222376D01*
X167727376Y-64614796D01*
X167640000Y-64825740D01*
X167552624Y-64614796D01*
X167160204Y-64222376D01*
X166647483Y-64010000D01*
X166092517Y-64010000D01*
X165579796Y-64222376D01*
X165187376Y-64614796D01*
X165100000Y-64825740D01*
X165012624Y-64614796D01*
X164620204Y-64222376D01*
X164107483Y-64010000D01*
X163552517Y-64010000D01*
X163039796Y-64222376D01*
X162647376Y-64614796D01*
X162560000Y-64825740D01*
X162472624Y-64614796D01*
X162080204Y-64222376D01*
X161567483Y-64010000D01*
X161012517Y-64010000D01*
X160499796Y-64222376D01*
X160107376Y-64614796D01*
X160020000Y-64825740D01*
X159932624Y-64614796D01*
X159540204Y-64222376D01*
X159027483Y-64010000D01*
X158472517Y-64010000D01*
X157959796Y-64222376D01*
X157567376Y-64614796D01*
X157480000Y-64825740D01*
X157392624Y-64614796D01*
X157000204Y-64222376D01*
X156487483Y-64010000D01*
X155932517Y-64010000D01*
X155419796Y-64222376D01*
X155027376Y-64614796D01*
X154940000Y-64825740D01*
X154852624Y-64614796D01*
X154460204Y-64222376D01*
X153947483Y-64010000D01*
X153392517Y-64010000D01*
X152879796Y-64222376D01*
X152487376Y-64614796D01*
X152400000Y-64825740D01*
X152312624Y-64614796D01*
X151920204Y-64222376D01*
X151407483Y-64010000D01*
X150852517Y-64010000D01*
X150339796Y-64222376D01*
X149947376Y-64614796D01*
X149735000Y-65127517D01*
X111885000Y-65127517D01*
X111672624Y-64614796D01*
X111280204Y-64222376D01*
X110767483Y-64010000D01*
X110212517Y-64010000D01*
X109699796Y-64222376D01*
X109307376Y-64614796D01*
X109220000Y-64825740D01*
X109132624Y-64614796D01*
X108740204Y-64222376D01*
X108227483Y-64010000D01*
X107672517Y-64010000D01*
X107159796Y-64222376D01*
X106767376Y-64614796D01*
X106680000Y-64825740D01*
X106592624Y-64614796D01*
X106200204Y-64222376D01*
X105687483Y-64010000D01*
X105132517Y-64010000D01*
X104619796Y-64222376D01*
X104227376Y-64614796D01*
X104140000Y-64825740D01*
X104052624Y-64614796D01*
X103660204Y-64222376D01*
X103147483Y-64010000D01*
X102592517Y-64010000D01*
X102079796Y-64222376D01*
X101687376Y-64614796D01*
X101600000Y-64825740D01*
X101512624Y-64614796D01*
X101120204Y-64222376D01*
X100607483Y-64010000D01*
X100052517Y-64010000D01*
X99539796Y-64222376D01*
X99147376Y-64614796D01*
X99060000Y-64825740D01*
X98972624Y-64614796D01*
X98580204Y-64222376D01*
X98067483Y-64010000D01*
X97512517Y-64010000D01*
X96999796Y-64222376D01*
X96607376Y-64614796D01*
X96520000Y-64825740D01*
X96432624Y-64614796D01*
X96040204Y-64222376D01*
X95527483Y-64010000D01*
X94972517Y-64010000D01*
X94459796Y-64222376D01*
X94067376Y-64614796D01*
X93980000Y-64825740D01*
X93892624Y-64614796D01*
X93500204Y-64222376D01*
X92987483Y-64010000D01*
X92432517Y-64010000D01*
X91919796Y-64222376D01*
X91527376Y-64614796D01*
X91440000Y-64825740D01*
X91352624Y-64614796D01*
X90960204Y-64222376D01*
X90447483Y-64010000D01*
X89892517Y-64010000D01*
X89379796Y-64222376D01*
X88987376Y-64614796D01*
X88900000Y-64825740D01*
X88812624Y-64614796D01*
X88420204Y-64222376D01*
X87907483Y-64010000D01*
X87352517Y-64010000D01*
X87070000Y-64127022D01*
X87070000Y-48221707D01*
X96926400Y-48221707D01*
X96926400Y-49837702D01*
X97013351Y-50274829D01*
X97344571Y-50770534D01*
X97840276Y-51101754D01*
X98425000Y-51218063D01*
X99009725Y-51101754D01*
X99505430Y-50770534D01*
X99836650Y-50274829D01*
X99923600Y-49837702D01*
X99923600Y-48221707D01*
X114706400Y-48221707D01*
X114706400Y-49837702D01*
X114793351Y-50274829D01*
X115124571Y-50770534D01*
X115620276Y-51101754D01*
X116205000Y-51218063D01*
X116789725Y-51101754D01*
X117285430Y-50770534D01*
X117616650Y-50274829D01*
X117703600Y-49837702D01*
X117703600Y-48221706D01*
X117684469Y-48125523D01*
X134391400Y-48125523D01*
X134391400Y-49741518D01*
X134478351Y-50178645D01*
X134809571Y-50674350D01*
X135305276Y-51005570D01*
X135890000Y-51121879D01*
X136474725Y-51005570D01*
X136970430Y-50674350D01*
X137301650Y-50178645D01*
X137388600Y-49741518D01*
X137388600Y-48156411D01*
X154156400Y-48156411D01*
X154156400Y-49772406D01*
X154243351Y-50209533D01*
X154574571Y-50705238D01*
X155070276Y-51036458D01*
X155655000Y-51152767D01*
X156239725Y-51036458D01*
X156735430Y-50705238D01*
X157066650Y-50209533D01*
X157153600Y-49772406D01*
X157153600Y-48156410D01*
X157126806Y-48021707D01*
X172491400Y-48021707D01*
X172491400Y-49637702D01*
X172578351Y-50074829D01*
X172909571Y-50570534D01*
X173405276Y-50901754D01*
X173990000Y-51018063D01*
X174574725Y-50901754D01*
X175070430Y-50570534D01*
X175401650Y-50074829D01*
X175488600Y-49637702D01*
X175488600Y-48021706D01*
X175401650Y-47584579D01*
X175070430Y-47088874D01*
X174574724Y-46757654D01*
X173990000Y-46641345D01*
X173405275Y-46757654D01*
X172909570Y-47088874D01*
X172578350Y-47584580D01*
X172491400Y-48021707D01*
X157126806Y-48021707D01*
X157066650Y-47719283D01*
X156735430Y-47223578D01*
X156239724Y-46892358D01*
X155655000Y-46776049D01*
X155070275Y-46892358D01*
X154574570Y-47223578D01*
X154243350Y-47719284D01*
X154156400Y-48156411D01*
X137388600Y-48156411D01*
X137388600Y-48125522D01*
X137301650Y-47688395D01*
X136970430Y-47192690D01*
X136474724Y-46861470D01*
X135890000Y-46745161D01*
X135305275Y-46861470D01*
X134809570Y-47192690D01*
X134478350Y-47688396D01*
X134391400Y-48125523D01*
X117684469Y-48125523D01*
X117616650Y-47784579D01*
X117285430Y-47288874D01*
X116789724Y-46957654D01*
X116205000Y-46841345D01*
X115620275Y-46957654D01*
X115124570Y-47288874D01*
X114793350Y-47784580D01*
X114706400Y-48221707D01*
X99923600Y-48221707D01*
X99923600Y-48221706D01*
X99836650Y-47784579D01*
X99505430Y-47288874D01*
X99009724Y-46957654D01*
X98425000Y-46841345D01*
X97840275Y-46957654D01*
X97344570Y-47288874D01*
X97013350Y-47784580D01*
X96926400Y-48221707D01*
X87070000Y-48221707D01*
X87070000Y-35721707D01*
X96926400Y-35721707D01*
X96926400Y-37337702D01*
X97013351Y-37774829D01*
X97344571Y-38270534D01*
X97840276Y-38601754D01*
X98425000Y-38718063D01*
X99009725Y-38601754D01*
X99505430Y-38270534D01*
X99836650Y-37774829D01*
X99923600Y-37337702D01*
X99923600Y-35721707D01*
X114706400Y-35721707D01*
X114706400Y-37337702D01*
X114793351Y-37774829D01*
X115124571Y-38270534D01*
X115620276Y-38601754D01*
X116205000Y-38718063D01*
X116789725Y-38601754D01*
X117285430Y-38270534D01*
X117616650Y-37774829D01*
X117703600Y-37337702D01*
X117703600Y-35721706D01*
X117684469Y-35625523D01*
X134391400Y-35625523D01*
X134391400Y-37241518D01*
X134478351Y-37678645D01*
X134809571Y-38174350D01*
X135305276Y-38505570D01*
X135890000Y-38621879D01*
X136474725Y-38505570D01*
X136970430Y-38174350D01*
X137301650Y-37678645D01*
X137388600Y-37241518D01*
X137388600Y-35656411D01*
X154156400Y-35656411D01*
X154156400Y-37272406D01*
X154243351Y-37709533D01*
X154574571Y-38205238D01*
X155070276Y-38536458D01*
X155655000Y-38652767D01*
X156239725Y-38536458D01*
X156735430Y-38205238D01*
X157066650Y-37709533D01*
X157153600Y-37272406D01*
X157153600Y-35656410D01*
X157126806Y-35521707D01*
X172491400Y-35521707D01*
X172491400Y-37137702D01*
X172578351Y-37574829D01*
X172909571Y-38070534D01*
X173405276Y-38401754D01*
X173990000Y-38518063D01*
X174574725Y-38401754D01*
X175070430Y-38070534D01*
X175401650Y-37574829D01*
X175488600Y-37137702D01*
X175488600Y-35521706D01*
X175401650Y-35084579D01*
X175070430Y-34588874D01*
X174574724Y-34257654D01*
X173990000Y-34141345D01*
X173405275Y-34257654D01*
X172909570Y-34588874D01*
X172578350Y-35084580D01*
X172491400Y-35521707D01*
X157126806Y-35521707D01*
X157066650Y-35219283D01*
X156735430Y-34723578D01*
X156239724Y-34392358D01*
X155655000Y-34276049D01*
X155070275Y-34392358D01*
X154574570Y-34723578D01*
X154243350Y-35219284D01*
X154156400Y-35656411D01*
X137388600Y-35656411D01*
X137388600Y-35625522D01*
X137301650Y-35188395D01*
X136970430Y-34692690D01*
X136474724Y-34361470D01*
X135890000Y-34245161D01*
X135305275Y-34361470D01*
X134809570Y-34692690D01*
X134478350Y-35188396D01*
X134391400Y-35625523D01*
X117684469Y-35625523D01*
X117616650Y-35284579D01*
X117285430Y-34788874D01*
X116789724Y-34457654D01*
X116205000Y-34341345D01*
X115620275Y-34457654D01*
X115124570Y-34788874D01*
X114793350Y-35284580D01*
X114706400Y-35721707D01*
X99923600Y-35721707D01*
X99923600Y-35721706D01*
X99836650Y-35284579D01*
X99505430Y-34788874D01*
X99009724Y-34457654D01*
X98425000Y-34341345D01*
X97840275Y-34457654D01*
X97344570Y-34788874D01*
X97013350Y-35284580D01*
X96926400Y-35721707D01*
X87070000Y-35721707D01*
X87070000Y-33070580D01*
X87124985Y-32686636D01*
X87264372Y-32380072D01*
X87484199Y-32124950D01*
X87766792Y-31941782D01*
X88112959Y-31838257D01*
X88291350Y-31825000D01*
X177749420Y-31825000D01*
X178133364Y-31879985D01*
X178133364Y-31879985D01*
G37*
X178133364Y-31879985D02*
X178439928Y-32019372D01*
X178695050Y-32239199D01*
X178878218Y-32521792D01*
X178981743Y-32867959D01*
X178995000Y-33046350D01*
X178995001Y-54770780D01*
X179000169Y-54796761D01*
X179017877Y-55035048D01*
X179033431Y-55105791D01*
X179043259Y-55177538D01*
X179045693Y-55185863D01*
X179200452Y-55703343D01*
X179240898Y-55790875D01*
X179280217Y-55878776D01*
X179284887Y-55886078D01*
X179284890Y-55886084D01*
X179284894Y-55886088D01*
X179578669Y-56339328D01*
X179642015Y-56411943D01*
X179704466Y-56485323D01*
X179710999Y-56491021D01*
X179711002Y-56491025D01*
X179711004Y-56491026D01*
X180120182Y-56843597D01*
X180201377Y-56895523D01*
X180281900Y-56948417D01*
X180289770Y-56952053D01*
X180289773Y-56952055D01*
X180289776Y-56952056D01*
X180781462Y-57175612D01*
X180873956Y-57202659D01*
X180966098Y-57230830D01*
X180974677Y-57232112D01*
X181490334Y-57305960D01*
X181540074Y-57315854D01*
X184023000Y-57315854D01*
X184023000Y-70485000D01*
X184032667Y-70533601D01*
X184060197Y-70574803D01*
X184101399Y-70602333D01*
X184150000Y-70612000D01*
X200533000Y-70612000D01*
X200533000Y-77597000D01*
X195371128Y-77597000D01*
X195092493Y-77318365D01*
X193925547Y-76835000D01*
X192662453Y-76835000D01*
X191495507Y-77318365D01*
X191216872Y-77597000D01*
X187960000Y-77597000D01*
X187911399Y-77606667D01*
X187870197Y-77634197D01*
X187842667Y-77675399D01*
X187833000Y-77724000D01*
X187833000Y-113157475D01*
X87070000Y-113535337D01*
X87070000Y-109862978D01*
X87352517Y-109980000D01*
X87907483Y-109980000D01*
X88420204Y-109767624D01*
X88812624Y-109375204D01*
X88900000Y-109164260D01*
X88987376Y-109375204D01*
X89379796Y-109767624D01*
X89590740Y-109855000D01*
X89379796Y-109942376D01*
X88987376Y-110334796D01*
X88775000Y-110847517D01*
X88775000Y-111402483D01*
X88987376Y-111915204D01*
X89379796Y-112307624D01*
X89892517Y-112520000D01*
X90447483Y-112520000D01*
X90960204Y-112307624D01*
X91352624Y-111915204D01*
X91440000Y-111704260D01*
X91527376Y-111915204D01*
X91919796Y-112307624D01*
X92432517Y-112520000D01*
X92987483Y-112520000D01*
X93500204Y-112307624D01*
X93892624Y-111915204D01*
X93980000Y-111704260D01*
X94067376Y-111915204D01*
X94459796Y-112307624D01*
X94972517Y-112520000D01*
X95527483Y-112520000D01*
X96040204Y-112307624D01*
X96432624Y-111915204D01*
X96520000Y-111704260D01*
X96607376Y-111915204D01*
X96999796Y-112307624D01*
X97512517Y-112520000D01*
X98067483Y-112520000D01*
X98580204Y-112307624D01*
X98972624Y-111915204D01*
X99060000Y-111704260D01*
X99147376Y-111915204D01*
X99539796Y-112307624D01*
X100052517Y-112520000D01*
X100607483Y-112520000D01*
X101120204Y-112307624D01*
X101512624Y-111915204D01*
X101600000Y-111704260D01*
X101687376Y-111915204D01*
X102079796Y-112307624D01*
X102592517Y-112520000D01*
X103147483Y-112520000D01*
X103660204Y-112307624D01*
X104052624Y-111915204D01*
X104140000Y-111704260D01*
X104227376Y-111915204D01*
X104619796Y-112307624D01*
X105132517Y-112520000D01*
X105687483Y-112520000D01*
X106200204Y-112307624D01*
X106592624Y-111915204D01*
X106680000Y-111704260D01*
X106767376Y-111915204D01*
X107159796Y-112307624D01*
X107672517Y-112520000D01*
X108227483Y-112520000D01*
X108740204Y-112307624D01*
X109132624Y-111915204D01*
X109220000Y-111704260D01*
X109307376Y-111915204D01*
X109699796Y-112307624D01*
X110212517Y-112520000D01*
X110767483Y-112520000D01*
X111280204Y-112307624D01*
X111672624Y-111915204D01*
X111885000Y-111402483D01*
X111885000Y-110847517D01*
X111672624Y-110334796D01*
X111280204Y-109942376D01*
X111069260Y-109855000D01*
X111280204Y-109767624D01*
X111672624Y-109375204D01*
X111885000Y-108862483D01*
X111885000Y-108307517D01*
X149735000Y-108307517D01*
X149735000Y-108862483D01*
X149947376Y-109375204D01*
X150339796Y-109767624D01*
X150550740Y-109855000D01*
X150339796Y-109942376D01*
X149947376Y-110334796D01*
X149735000Y-110847517D01*
X149735000Y-111402483D01*
X149947376Y-111915204D01*
X150339796Y-112307624D01*
X150852517Y-112520000D01*
X151407483Y-112520000D01*
X151920204Y-112307624D01*
X152312624Y-111915204D01*
X152400000Y-111704260D01*
X152487376Y-111915204D01*
X152879796Y-112307624D01*
X153392517Y-112520000D01*
X153947483Y-112520000D01*
X154460204Y-112307624D01*
X154852624Y-111915204D01*
X154940000Y-111704260D01*
X155027376Y-111915204D01*
X155419796Y-112307624D01*
X155932517Y-112520000D01*
X156487483Y-112520000D01*
X157000204Y-112307624D01*
X157392624Y-111915204D01*
X157480000Y-111704260D01*
X157567376Y-111915204D01*
X157959796Y-112307624D01*
X158472517Y-112520000D01*
X159027483Y-112520000D01*
X159540204Y-112307624D01*
X159932624Y-111915204D01*
X160020000Y-111704260D01*
X160107376Y-111915204D01*
X160499796Y-112307624D01*
X161012517Y-112520000D01*
X161567483Y-112520000D01*
X162080204Y-112307624D01*
X162472624Y-111915204D01*
X162560000Y-111704260D01*
X162647376Y-111915204D01*
X163039796Y-112307624D01*
X163552517Y-112520000D01*
X164107483Y-112520000D01*
X164620204Y-112307624D01*
X165012624Y-111915204D01*
X165100000Y-111704260D01*
X165187376Y-111915204D01*
X165579796Y-112307624D01*
X166092517Y-112520000D01*
X166647483Y-112520000D01*
X167160204Y-112307624D01*
X167552624Y-111915204D01*
X167640000Y-111704260D01*
X167727376Y-111915204D01*
X168119796Y-112307624D01*
X168632517Y-112520000D01*
X169187483Y-112520000D01*
X169700204Y-112307624D01*
X170092624Y-111915204D01*
X170180000Y-111704260D01*
X170267376Y-111915204D01*
X170659796Y-112307624D01*
X171172517Y-112520000D01*
X171727483Y-112520000D01*
X172240204Y-112307624D01*
X172632624Y-111915204D01*
X172720000Y-111704260D01*
X172807376Y-111915204D01*
X173199796Y-112307624D01*
X173712517Y-112520000D01*
X174267483Y-112520000D01*
X174780204Y-112307624D01*
X175172624Y-111915204D01*
X175385000Y-111402483D01*
X175385000Y-110847517D01*
X175172624Y-110334796D01*
X174780204Y-109942376D01*
X174569260Y-109855000D01*
X174780204Y-109767624D01*
X175172624Y-109375204D01*
X175385000Y-108862483D01*
X175385000Y-108307517D01*
X175172624Y-107794796D01*
X174780204Y-107402376D01*
X174267483Y-107190000D01*
X173712517Y-107190000D01*
X173199796Y-107402376D01*
X172807376Y-107794796D01*
X172720000Y-108005740D01*
X172632624Y-107794796D01*
X172240204Y-107402376D01*
X171727483Y-107190000D01*
X171172517Y-107190000D01*
X170659796Y-107402376D01*
X170267376Y-107794796D01*
X170180000Y-108005740D01*
X170092624Y-107794796D01*
X169700204Y-107402376D01*
X169187483Y-107190000D01*
X168632517Y-107190000D01*
X168119796Y-107402376D01*
X167727376Y-107794796D01*
X167640000Y-108005740D01*
X167552624Y-107794796D01*
X167160204Y-107402376D01*
X166647483Y-107190000D01*
X166092517Y-107190000D01*
X165579796Y-107402376D01*
X165187376Y-107794796D01*
X165100000Y-108005740D01*
X165012624Y-107794796D01*
X164620204Y-107402376D01*
X164107483Y-107190000D01*
X163552517Y-107190000D01*
X163039796Y-107402376D01*
X162647376Y-107794796D01*
X162560000Y-108005740D01*
X162472624Y-107794796D01*
X162080204Y-107402376D01*
X161567483Y-107190000D01*
X161012517Y-107190000D01*
X160499796Y-107402376D01*
X160107376Y-107794796D01*
X160020000Y-108005740D01*
X159932624Y-107794796D01*
X159540204Y-107402376D01*
X159027483Y-107190000D01*
X158472517Y-107190000D01*
X157959796Y-107402376D01*
X157567376Y-107794796D01*
X157480000Y-108005740D01*
X157392624Y-107794796D01*
X157000204Y-107402376D01*
X156487483Y-107190000D01*
X155932517Y-107190000D01*
X155419796Y-107402376D01*
X155027376Y-107794796D01*
X154940000Y-108005740D01*
X154852624Y-107794796D01*
X154460204Y-107402376D01*
X153947483Y-107190000D01*
X153392517Y-107190000D01*
X152879796Y-107402376D01*
X152487376Y-107794796D01*
X152400000Y-108005740D01*
X152312624Y-107794796D01*
X151920204Y-107402376D01*
X151407483Y-107190000D01*
X150852517Y-107190000D01*
X150339796Y-107402376D01*
X149947376Y-107794796D01*
X149735000Y-108307517D01*
X111885000Y-108307517D01*
X111672624Y-107794796D01*
X111280204Y-107402376D01*
X110767483Y-107190000D01*
X110212517Y-107190000D01*
X109699796Y-107402376D01*
X109307376Y-107794796D01*
X109220000Y-108005740D01*
X109132624Y-107794796D01*
X108740204Y-107402376D01*
X108227483Y-107190000D01*
X107672517Y-107190000D01*
X107159796Y-107402376D01*
X106767376Y-107794796D01*
X106680000Y-108005740D01*
X106592624Y-107794796D01*
X106200204Y-107402376D01*
X105687483Y-107190000D01*
X105132517Y-107190000D01*
X104619796Y-107402376D01*
X104227376Y-107794796D01*
X104140000Y-108005740D01*
X104052624Y-107794796D01*
X103660204Y-107402376D01*
X103147483Y-107190000D01*
X102592517Y-107190000D01*
X102079796Y-107402376D01*
X101687376Y-107794796D01*
X101600000Y-108005740D01*
X101512624Y-107794796D01*
X101120204Y-107402376D01*
X100607483Y-107190000D01*
X100052517Y-107190000D01*
X99539796Y-107402376D01*
X99147376Y-107794796D01*
X99060000Y-108005740D01*
X98972624Y-107794796D01*
X98580204Y-107402376D01*
X98067483Y-107190000D01*
X97512517Y-107190000D01*
X96999796Y-107402376D01*
X96607376Y-107794796D01*
X96520000Y-108005740D01*
X96432624Y-107794796D01*
X96040204Y-107402376D01*
X95527483Y-107190000D01*
X94972517Y-107190000D01*
X94459796Y-107402376D01*
X94067376Y-107794796D01*
X93980000Y-108005740D01*
X93892624Y-107794796D01*
X93500204Y-107402376D01*
X92987483Y-107190000D01*
X92432517Y-107190000D01*
X91919796Y-107402376D01*
X91527376Y-107794796D01*
X91440000Y-108005740D01*
X91352624Y-107794796D01*
X90960204Y-107402376D01*
X90447483Y-107190000D01*
X89892517Y-107190000D01*
X89379796Y-107402376D01*
X88987376Y-107794796D01*
X88900000Y-108005740D01*
X88812624Y-107794796D01*
X88420204Y-107402376D01*
X87907483Y-107190000D01*
X87352517Y-107190000D01*
X87070000Y-107307022D01*
X87070000Y-85886707D01*
X97481400Y-85886707D01*
X97481400Y-87502702D01*
X97568351Y-87939829D01*
X97899571Y-88435534D01*
X98395276Y-88766754D01*
X98980000Y-88883063D01*
X99564725Y-88766754D01*
X100060430Y-88435534D01*
X100391650Y-87939829D01*
X100478600Y-87502702D01*
X100478600Y-85886706D01*
X100438818Y-85686707D01*
X114706400Y-85686707D01*
X114706400Y-87302702D01*
X114793351Y-87739829D01*
X115124571Y-88235534D01*
X115620276Y-88566754D01*
X116205000Y-88683063D01*
X116789725Y-88566754D01*
X117285430Y-88235534D01*
X117616650Y-87739829D01*
X117703600Y-87302702D01*
X117703600Y-85686707D01*
X134391400Y-85686707D01*
X134391400Y-87302702D01*
X134478351Y-87739829D01*
X134809571Y-88235534D01*
X135305276Y-88566754D01*
X135890000Y-88683063D01*
X136474725Y-88566754D01*
X136970430Y-88235534D01*
X137301650Y-87739829D01*
X137388600Y-87302702D01*
X137388600Y-85686707D01*
X153996400Y-85686707D01*
X153996400Y-87302702D01*
X154083351Y-87739829D01*
X154414571Y-88235534D01*
X154910276Y-88566754D01*
X155495000Y-88683063D01*
X156079725Y-88566754D01*
X156575430Y-88235534D01*
X156906650Y-87739829D01*
X156993600Y-87302702D01*
X156993600Y-85686707D01*
X172411400Y-85686707D01*
X172411400Y-87302702D01*
X172498351Y-87739829D01*
X172829571Y-88235534D01*
X173325276Y-88566754D01*
X173910000Y-88683063D01*
X174494725Y-88566754D01*
X174990430Y-88235534D01*
X175321650Y-87739829D01*
X175408600Y-87302702D01*
X175408600Y-85686706D01*
X175321650Y-85249579D01*
X174990430Y-84753874D01*
X174494724Y-84422654D01*
X173910000Y-84306345D01*
X173325275Y-84422654D01*
X172829570Y-84753874D01*
X172498350Y-85249580D01*
X172411400Y-85686707D01*
X156993600Y-85686707D01*
X156993600Y-85686706D01*
X156906650Y-85249579D01*
X156575430Y-84753874D01*
X156079724Y-84422654D01*
X155495000Y-84306345D01*
X154910275Y-84422654D01*
X154414570Y-84753874D01*
X154083350Y-85249580D01*
X153996400Y-85686707D01*
X137388600Y-85686707D01*
X137388600Y-85686706D01*
X137301650Y-85249579D01*
X136970430Y-84753874D01*
X136474724Y-84422654D01*
X135890000Y-84306345D01*
X135305275Y-84422654D01*
X134809570Y-84753874D01*
X134478350Y-85249580D01*
X134391400Y-85686707D01*
X117703600Y-85686707D01*
X117703600Y-85686706D01*
X117616650Y-85249579D01*
X117285430Y-84753874D01*
X116789724Y-84422654D01*
X116205000Y-84306345D01*
X115620275Y-84422654D01*
X115124570Y-84753874D01*
X114793350Y-85249580D01*
X114706400Y-85686707D01*
X100438818Y-85686707D01*
X100391650Y-85449579D01*
X100060430Y-84953874D01*
X99564724Y-84622654D01*
X98980000Y-84506345D01*
X98395275Y-84622654D01*
X97899570Y-84953874D01*
X97568350Y-85449580D01*
X97481400Y-85886707D01*
X87070000Y-85886707D01*
X87070000Y-73386707D01*
X97481400Y-73386707D01*
X97481400Y-75002702D01*
X97568351Y-75439829D01*
X97899571Y-75935534D01*
X98395276Y-76266754D01*
X98980000Y-76383063D01*
X99564725Y-76266754D01*
X100060430Y-75935534D01*
X100391650Y-75439829D01*
X100478600Y-75002702D01*
X100478600Y-73386706D01*
X100438818Y-73186707D01*
X114706400Y-73186707D01*
X114706400Y-74802702D01*
X114793351Y-75239829D01*
X115124571Y-75735534D01*
X115620276Y-76066754D01*
X116205000Y-76183063D01*
X116789725Y-76066754D01*
X117285430Y-75735534D01*
X117616650Y-75239829D01*
X117703600Y-74802702D01*
X117703600Y-73186707D01*
X134391400Y-73186707D01*
X134391400Y-74802702D01*
X134478351Y-75239829D01*
X134809571Y-75735534D01*
X135305276Y-76066754D01*
X135890000Y-76183063D01*
X136474725Y-76066754D01*
X136970430Y-75735534D01*
X137301650Y-75239829D01*
X137388600Y-74802702D01*
X137388600Y-73186707D01*
X153996400Y-73186707D01*
X153996400Y-74802702D01*
X154083351Y-75239829D01*
X154414571Y-75735534D01*
X154910276Y-76066754D01*
X155495000Y-76183063D01*
X156079725Y-76066754D01*
X156575430Y-75735534D01*
X156906650Y-75239829D01*
X156993600Y-74802702D01*
X156993600Y-73186707D01*
X172411400Y-73186707D01*
X172411400Y-74802702D01*
X172498351Y-75239829D01*
X172829571Y-75735534D01*
X173325276Y-76066754D01*
X173910000Y-76183063D01*
X174494725Y-76066754D01*
X174990430Y-75735534D01*
X175321650Y-75239829D01*
X175408600Y-74802702D01*
X175408600Y-73716823D01*
X189738000Y-73716823D01*
X189738000Y-74272585D01*
X189950680Y-74786041D01*
X190343663Y-75179024D01*
X190857119Y-75391704D01*
X191412881Y-75391704D01*
X191926337Y-75179024D01*
X192319320Y-74786041D01*
X192405000Y-74579191D01*
X192490680Y-74786041D01*
X192883663Y-75179024D01*
X193397119Y-75391704D01*
X193952881Y-75391704D01*
X194466337Y-75179024D01*
X194859320Y-74786041D01*
X195072000Y-74272585D01*
X195072000Y-73716823D01*
X194859320Y-73203367D01*
X194466337Y-72810384D01*
X193952881Y-72597704D01*
X193397119Y-72597704D01*
X192883663Y-72810384D01*
X192490680Y-73203367D01*
X192405000Y-73410217D01*
X192319320Y-73203367D01*
X191926337Y-72810384D01*
X191412881Y-72597704D01*
X190857119Y-72597704D01*
X190343663Y-72810384D01*
X189950680Y-73203367D01*
X189738000Y-73716823D01*
X175408600Y-73716823D01*
X175408600Y-73186706D01*
X175321650Y-72749579D01*
X174990430Y-72253874D01*
X174494724Y-71922654D01*
X173910000Y-71806345D01*
X173325275Y-71922654D01*
X172829570Y-72253874D01*
X172498350Y-72749580D01*
X172411400Y-73186707D01*
X156993600Y-73186707D01*
X156993600Y-73186706D01*
X156906650Y-72749579D01*
X156575430Y-72253874D01*
X156079724Y-71922654D01*
X155495000Y-71806345D01*
X154910275Y-71922654D01*
X154414570Y-72253874D01*
X154083350Y-72749580D01*
X153996400Y-73186707D01*
X137388600Y-73186707D01*
X137388600Y-73186706D01*
X137301650Y-72749579D01*
X136970430Y-72253874D01*
X136474724Y-71922654D01*
X135890000Y-71806345D01*
X135305275Y-71922654D01*
X134809570Y-72253874D01*
X134478350Y-72749580D01*
X134391400Y-73186707D01*
X117703600Y-73186707D01*
X117703600Y-73186706D01*
X117616650Y-72749579D01*
X117285430Y-72253874D01*
X116789724Y-71922654D01*
X116205000Y-71806345D01*
X115620275Y-71922654D01*
X115124570Y-72253874D01*
X114793350Y-72749580D01*
X114706400Y-73186707D01*
X100438818Y-73186707D01*
X100391650Y-72949579D01*
X100060430Y-72453874D01*
X99564724Y-72122654D01*
X98980000Y-72006345D01*
X98395275Y-72122654D01*
X97899570Y-72453874D01*
X97568350Y-72949580D01*
X97481400Y-73386707D01*
X87070000Y-73386707D01*
X87070000Y-69222978D01*
X87352517Y-69340000D01*
X87907483Y-69340000D01*
X88420204Y-69127624D01*
X88812624Y-68735204D01*
X88900000Y-68524260D01*
X88987376Y-68735204D01*
X89379796Y-69127624D01*
X89892517Y-69340000D01*
X90447483Y-69340000D01*
X90960204Y-69127624D01*
X91352624Y-68735204D01*
X91440000Y-68524260D01*
X91527376Y-68735204D01*
X91919796Y-69127624D01*
X92432517Y-69340000D01*
X92987483Y-69340000D01*
X93500204Y-69127624D01*
X93892624Y-68735204D01*
X93980000Y-68524260D01*
X94067376Y-68735204D01*
X94459796Y-69127624D01*
X94972517Y-69340000D01*
X95527483Y-69340000D01*
X96040204Y-69127624D01*
X96432624Y-68735204D01*
X96520000Y-68524260D01*
X96607376Y-68735204D01*
X96999796Y-69127624D01*
X97512517Y-69340000D01*
X98067483Y-69340000D01*
X98580204Y-69127624D01*
X98972624Y-68735204D01*
X99060000Y-68524260D01*
X99147376Y-68735204D01*
X99539796Y-69127624D01*
X100052517Y-69340000D01*
X100607483Y-69340000D01*
X101120204Y-69127624D01*
X101512624Y-68735204D01*
X101600000Y-68524260D01*
X101687376Y-68735204D01*
X102079796Y-69127624D01*
X102592517Y-69340000D01*
X103147483Y-69340000D01*
X103660204Y-69127624D01*
X104052624Y-68735204D01*
X104140000Y-68524260D01*
X104227376Y-68735204D01*
X104619796Y-69127624D01*
X105132517Y-69340000D01*
X105687483Y-69340000D01*
X106200204Y-69127624D01*
X106592624Y-68735204D01*
X106680000Y-68524260D01*
X106767376Y-68735204D01*
X107159796Y-69127624D01*
X107672517Y-69340000D01*
X108227483Y-69340000D01*
X108740204Y-69127624D01*
X109132624Y-68735204D01*
X109220000Y-68524260D01*
X109307376Y-68735204D01*
X109699796Y-69127624D01*
X110212517Y-69340000D01*
X110767483Y-69340000D01*
X111280204Y-69127624D01*
X111672624Y-68735204D01*
X111885000Y-68222483D01*
X111885000Y-67667517D01*
X111672624Y-67154796D01*
X111280204Y-66762376D01*
X111069260Y-66675000D01*
X111280204Y-66587624D01*
X111672624Y-66195204D01*
X111885000Y-65682483D01*
X111885000Y-65127517D01*
X149735000Y-65127517D01*
X149735000Y-65682483D01*
X149947376Y-66195204D01*
X150339796Y-66587624D01*
X150550740Y-66675000D01*
X150339796Y-66762376D01*
X149947376Y-67154796D01*
X149735000Y-67667517D01*
X149735000Y-68222483D01*
X149947376Y-68735204D01*
X150339796Y-69127624D01*
X150852517Y-69340000D01*
X151407483Y-69340000D01*
X151920204Y-69127624D01*
X152312624Y-68735204D01*
X152400000Y-68524260D01*
X152487376Y-68735204D01*
X152879796Y-69127624D01*
X153392517Y-69340000D01*
X153947483Y-69340000D01*
X154460204Y-69127624D01*
X154852624Y-68735204D01*
X154940000Y-68524260D01*
X155027376Y-68735204D01*
X155419796Y-69127624D01*
X155932517Y-69340000D01*
X156487483Y-69340000D01*
X157000204Y-69127624D01*
X157392624Y-68735204D01*
X157480000Y-68524260D01*
X157567376Y-68735204D01*
X157959796Y-69127624D01*
X158472517Y-69340000D01*
X159027483Y-69340000D01*
X159540204Y-69127624D01*
X159932624Y-68735204D01*
X160020000Y-68524260D01*
X160107376Y-68735204D01*
X160499796Y-69127624D01*
X161012517Y-69340000D01*
X161567483Y-69340000D01*
X162080204Y-69127624D01*
X162472624Y-68735204D01*
X162560000Y-68524260D01*
X162647376Y-68735204D01*
X163039796Y-69127624D01*
X163552517Y-69340000D01*
X164107483Y-69340000D01*
X164620204Y-69127624D01*
X165012624Y-68735204D01*
X165100000Y-68524260D01*
X165187376Y-68735204D01*
X165579796Y-69127624D01*
X166092517Y-69340000D01*
X166647483Y-69340000D01*
X167160204Y-69127624D01*
X167552624Y-68735204D01*
X167640000Y-68524260D01*
X167727376Y-68735204D01*
X168119796Y-69127624D01*
X168632517Y-69340000D01*
X169187483Y-69340000D01*
X169700204Y-69127624D01*
X170092624Y-68735204D01*
X170180000Y-68524260D01*
X170267376Y-68735204D01*
X170659796Y-69127624D01*
X171172517Y-69340000D01*
X171727483Y-69340000D01*
X172240204Y-69127624D01*
X172632624Y-68735204D01*
X172720000Y-68524260D01*
X172807376Y-68735204D01*
X173199796Y-69127624D01*
X173712517Y-69340000D01*
X174267483Y-69340000D01*
X174780204Y-69127624D01*
X175172624Y-68735204D01*
X175385000Y-68222483D01*
X175385000Y-67667517D01*
X175172624Y-67154796D01*
X174780204Y-66762376D01*
X174569260Y-66675000D01*
X174780204Y-66587624D01*
X175172624Y-66195204D01*
X175385000Y-65682483D01*
X175385000Y-65127517D01*
X175172624Y-64614796D01*
X174780204Y-64222376D01*
X174267483Y-64010000D01*
X173712517Y-64010000D01*
X173199796Y-64222376D01*
X172807376Y-64614796D01*
X172720000Y-64825740D01*
X172632624Y-64614796D01*
X172240204Y-64222376D01*
X171727483Y-64010000D01*
X171172517Y-64010000D01*
X170659796Y-64222376D01*
X170267376Y-64614796D01*
X170180000Y-64825740D01*
X170092624Y-64614796D01*
X169700204Y-64222376D01*
X169187483Y-64010000D01*
X168632517Y-64010000D01*
X168119796Y-64222376D01*
X167727376Y-64614796D01*
X167640000Y-64825740D01*
X167552624Y-64614796D01*
X167160204Y-64222376D01*
X166647483Y-64010000D01*
X166092517Y-64010000D01*
X165579796Y-64222376D01*
X165187376Y-64614796D01*
X165100000Y-64825740D01*
X165012624Y-64614796D01*
X164620204Y-64222376D01*
X164107483Y-64010000D01*
X163552517Y-64010000D01*
X163039796Y-64222376D01*
X162647376Y-64614796D01*
X162560000Y-64825740D01*
X162472624Y-64614796D01*
X162080204Y-64222376D01*
X161567483Y-64010000D01*
X161012517Y-64010000D01*
X160499796Y-64222376D01*
X160107376Y-64614796D01*
X160020000Y-64825740D01*
X159932624Y-64614796D01*
X159540204Y-64222376D01*
X159027483Y-64010000D01*
X158472517Y-64010000D01*
X157959796Y-64222376D01*
X157567376Y-64614796D01*
X157480000Y-64825740D01*
X157392624Y-64614796D01*
X157000204Y-64222376D01*
X156487483Y-64010000D01*
X155932517Y-64010000D01*
X155419796Y-64222376D01*
X155027376Y-64614796D01*
X154940000Y-64825740D01*
X154852624Y-64614796D01*
X154460204Y-64222376D01*
X153947483Y-64010000D01*
X153392517Y-64010000D01*
X152879796Y-64222376D01*
X152487376Y-64614796D01*
X152400000Y-64825740D01*
X152312624Y-64614796D01*
X151920204Y-64222376D01*
X151407483Y-64010000D01*
X150852517Y-64010000D01*
X150339796Y-64222376D01*
X149947376Y-64614796D01*
X149735000Y-65127517D01*
X111885000Y-65127517D01*
X111672624Y-64614796D01*
X111280204Y-64222376D01*
X110767483Y-64010000D01*
X110212517Y-64010000D01*
X109699796Y-64222376D01*
X109307376Y-64614796D01*
X109220000Y-64825740D01*
X109132624Y-64614796D01*
X108740204Y-64222376D01*
X108227483Y-64010000D01*
X107672517Y-64010000D01*
X107159796Y-64222376D01*
X106767376Y-64614796D01*
X106680000Y-64825740D01*
X106592624Y-64614796D01*
X106200204Y-64222376D01*
X105687483Y-64010000D01*
X105132517Y-64010000D01*
X104619796Y-64222376D01*
X104227376Y-64614796D01*
X104140000Y-64825740D01*
X104052624Y-64614796D01*
X103660204Y-64222376D01*
X103147483Y-64010000D01*
X102592517Y-64010000D01*
X102079796Y-64222376D01*
X101687376Y-64614796D01*
X101600000Y-64825740D01*
X101512624Y-64614796D01*
X101120204Y-64222376D01*
X100607483Y-64010000D01*
X100052517Y-64010000D01*
X99539796Y-64222376D01*
X99147376Y-64614796D01*
X99060000Y-64825740D01*
X98972624Y-64614796D01*
X98580204Y-64222376D01*
X98067483Y-64010000D01*
X97512517Y-64010000D01*
X96999796Y-64222376D01*
X96607376Y-64614796D01*
X96520000Y-64825740D01*
X96432624Y-64614796D01*
X96040204Y-64222376D01*
X95527483Y-64010000D01*
X94972517Y-64010000D01*
X94459796Y-64222376D01*
X94067376Y-64614796D01*
X93980000Y-64825740D01*
X93892624Y-64614796D01*
X93500204Y-64222376D01*
X92987483Y-64010000D01*
X92432517Y-64010000D01*
X91919796Y-64222376D01*
X91527376Y-64614796D01*
X91440000Y-64825740D01*
X91352624Y-64614796D01*
X90960204Y-64222376D01*
X90447483Y-64010000D01*
X89892517Y-64010000D01*
X89379796Y-64222376D01*
X88987376Y-64614796D01*
X88900000Y-64825740D01*
X88812624Y-64614796D01*
X88420204Y-64222376D01*
X87907483Y-64010000D01*
X87352517Y-64010000D01*
X87070000Y-64127022D01*
X87070000Y-48221707D01*
X96926400Y-48221707D01*
X96926400Y-49837702D01*
X97013351Y-50274829D01*
X97344571Y-50770534D01*
X97840276Y-51101754D01*
X98425000Y-51218063D01*
X99009725Y-51101754D01*
X99505430Y-50770534D01*
X99836650Y-50274829D01*
X99923600Y-49837702D01*
X99923600Y-48221707D01*
X114706400Y-48221707D01*
X114706400Y-49837702D01*
X114793351Y-50274829D01*
X115124571Y-50770534D01*
X115620276Y-51101754D01*
X116205000Y-51218063D01*
X116789725Y-51101754D01*
X117285430Y-50770534D01*
X117616650Y-50274829D01*
X117703600Y-49837702D01*
X117703600Y-48221706D01*
X117684469Y-48125523D01*
X134391400Y-48125523D01*
X134391400Y-49741518D01*
X134478351Y-50178645D01*
X134809571Y-50674350D01*
X135305276Y-51005570D01*
X135890000Y-51121879D01*
X136474725Y-51005570D01*
X136970430Y-50674350D01*
X137301650Y-50178645D01*
X137388600Y-49741518D01*
X137388600Y-48156411D01*
X154156400Y-48156411D01*
X154156400Y-49772406D01*
X154243351Y-50209533D01*
X154574571Y-50705238D01*
X155070276Y-51036458D01*
X155655000Y-51152767D01*
X156239725Y-51036458D01*
X156735430Y-50705238D01*
X157066650Y-50209533D01*
X157153600Y-49772406D01*
X157153600Y-48156410D01*
X157126806Y-48021707D01*
X172491400Y-48021707D01*
X172491400Y-49637702D01*
X172578351Y-50074829D01*
X172909571Y-50570534D01*
X173405276Y-50901754D01*
X173990000Y-51018063D01*
X174574725Y-50901754D01*
X175070430Y-50570534D01*
X175401650Y-50074829D01*
X175488600Y-49637702D01*
X175488600Y-48021706D01*
X175401650Y-47584579D01*
X175070430Y-47088874D01*
X174574724Y-46757654D01*
X173990000Y-46641345D01*
X173405275Y-46757654D01*
X172909570Y-47088874D01*
X172578350Y-47584580D01*
X172491400Y-48021707D01*
X157126806Y-48021707D01*
X157066650Y-47719283D01*
X156735430Y-47223578D01*
X156239724Y-46892358D01*
X155655000Y-46776049D01*
X155070275Y-46892358D01*
X154574570Y-47223578D01*
X154243350Y-47719284D01*
X154156400Y-48156411D01*
X137388600Y-48156411D01*
X137388600Y-48125522D01*
X137301650Y-47688395D01*
X136970430Y-47192690D01*
X136474724Y-46861470D01*
X135890000Y-46745161D01*
X135305275Y-46861470D01*
X134809570Y-47192690D01*
X134478350Y-47688396D01*
X134391400Y-48125523D01*
X117684469Y-48125523D01*
X117616650Y-47784579D01*
X117285430Y-47288874D01*
X116789724Y-46957654D01*
X116205000Y-46841345D01*
X115620275Y-46957654D01*
X115124570Y-47288874D01*
X114793350Y-47784580D01*
X114706400Y-48221707D01*
X99923600Y-48221707D01*
X99923600Y-48221706D01*
X99836650Y-47784579D01*
X99505430Y-47288874D01*
X99009724Y-46957654D01*
X98425000Y-46841345D01*
X97840275Y-46957654D01*
X97344570Y-47288874D01*
X97013350Y-47784580D01*
X96926400Y-48221707D01*
X87070000Y-48221707D01*
X87070000Y-35721707D01*
X96926400Y-35721707D01*
X96926400Y-37337702D01*
X97013351Y-37774829D01*
X97344571Y-38270534D01*
X97840276Y-38601754D01*
X98425000Y-38718063D01*
X99009725Y-38601754D01*
X99505430Y-38270534D01*
X99836650Y-37774829D01*
X99923600Y-37337702D01*
X99923600Y-35721707D01*
X114706400Y-35721707D01*
X114706400Y-37337702D01*
X114793351Y-37774829D01*
X115124571Y-38270534D01*
X115620276Y-38601754D01*
X116205000Y-38718063D01*
X116789725Y-38601754D01*
X117285430Y-38270534D01*
X117616650Y-37774829D01*
X117703600Y-37337702D01*
X117703600Y-35721706D01*
X117684469Y-35625523D01*
X134391400Y-35625523D01*
X134391400Y-37241518D01*
X134478351Y-37678645D01*
X134809571Y-38174350D01*
X135305276Y-38505570D01*
X135890000Y-38621879D01*
X136474725Y-38505570D01*
X136970430Y-38174350D01*
X137301650Y-37678645D01*
X137388600Y-37241518D01*
X137388600Y-35656411D01*
X154156400Y-35656411D01*
X154156400Y-37272406D01*
X154243351Y-37709533D01*
X154574571Y-38205238D01*
X155070276Y-38536458D01*
X155655000Y-38652767D01*
X156239725Y-38536458D01*
X156735430Y-38205238D01*
X157066650Y-37709533D01*
X157153600Y-37272406D01*
X157153600Y-35656410D01*
X157126806Y-35521707D01*
X172491400Y-35521707D01*
X172491400Y-37137702D01*
X172578351Y-37574829D01*
X172909571Y-38070534D01*
X173405276Y-38401754D01*
X173990000Y-38518063D01*
X174574725Y-38401754D01*
X175070430Y-38070534D01*
X175401650Y-37574829D01*
X175488600Y-37137702D01*
X175488600Y-35521706D01*
X175401650Y-35084579D01*
X175070430Y-34588874D01*
X174574724Y-34257654D01*
X173990000Y-34141345D01*
X173405275Y-34257654D01*
X172909570Y-34588874D01*
X172578350Y-35084580D01*
X172491400Y-35521707D01*
X157126806Y-35521707D01*
X157066650Y-35219283D01*
X156735430Y-34723578D01*
X156239724Y-34392358D01*
X155655000Y-34276049D01*
X155070275Y-34392358D01*
X154574570Y-34723578D01*
X154243350Y-35219284D01*
X154156400Y-35656411D01*
X137388600Y-35656411D01*
X137388600Y-35625522D01*
X137301650Y-35188395D01*
X136970430Y-34692690D01*
X136474724Y-34361470D01*
X135890000Y-34245161D01*
X135305275Y-34361470D01*
X134809570Y-34692690D01*
X134478350Y-35188396D01*
X134391400Y-35625523D01*
X117684469Y-35625523D01*
X117616650Y-35284579D01*
X117285430Y-34788874D01*
X116789724Y-34457654D01*
X116205000Y-34341345D01*
X115620275Y-34457654D01*
X115124570Y-34788874D01*
X114793350Y-35284580D01*
X114706400Y-35721707D01*
X99923600Y-35721707D01*
X99923600Y-35721706D01*
X99836650Y-35284579D01*
X99505430Y-34788874D01*
X99009724Y-34457654D01*
X98425000Y-34341345D01*
X97840275Y-34457654D01*
X97344570Y-34788874D01*
X97013350Y-35284580D01*
X96926400Y-35721707D01*
X87070000Y-35721707D01*
X87070000Y-33070580D01*
X87124985Y-32686636D01*
X87264372Y-32380072D01*
X87484199Y-32124950D01*
X87766792Y-31941782D01*
X88112959Y-31838257D01*
X88291350Y-31825000D01*
X177749420Y-31825000D01*
X178133364Y-31879985D01*
G04 #@! TD*
M02*
