M48
;DRILL file {KiCad (5.0.0)} date 11/30/20 18:27:05
;FORMAT={-:-/ absolute / inch / decimal}
FMAT,2
INCH,TZ
T1C0.0320
T2C0.0350
T3C0.0394
T4C0.1598
%
G90
G05
M72
T1
X5.9313Y-1.4356
X5.9313Y-1.9277
X6.1281Y-1.4356
X6.1281Y-1.9277
X3.7Y-2.9211
X3.7Y-3.4132
X3.8969Y-2.9211
X3.8969Y-3.4132
X6.65Y-2.9132
X6.65Y-3.4053
X6.8469Y-2.9132
X6.8469Y-3.4053
X4.3781Y-1.4382
X4.3781Y-1.9303
X4.575Y-1.4382
X4.575Y-1.9303
X4.3781Y-2.9132
X4.3781Y-3.4053
X4.575Y-2.9132
X4.575Y-3.4053
X5.1531Y-1.4344
X5.1531Y-1.9265
X5.35Y-1.4344
X5.35Y-1.9265
X5.925Y-2.9132
X5.925Y-3.4053
X6.1219Y-2.9132
X6.1219Y-3.4053
X3.6781Y-1.4382
X3.6781Y-1.9303
X3.875Y-1.4382
X3.875Y-1.9303
X6.6531Y-1.4303
X6.6531Y-1.9224
X6.85Y-1.4303
X6.85Y-1.9224
X5.1531Y-2.9132
X5.1531Y-3.4053
X5.35Y-2.9132
X5.35Y-3.4053
T2
X7.525Y-2.9132
X7.625Y-2.9132
X7.725Y-2.9132
T3
X3.45Y-2.575
X3.45Y-2.675
X3.45Y-4.275
X3.45Y-4.375
X3.55Y-2.575
X3.55Y-2.675
X3.55Y-4.275
X3.55Y-4.375
X3.65Y-2.575
X3.65Y-2.675
X3.65Y-4.275
X3.65Y-4.375
X3.75Y-2.575
X3.75Y-2.675
X3.75Y-4.275
X3.75Y-4.375
X3.85Y-2.575
X3.85Y-2.675
X3.85Y-4.275
X3.85Y-4.375
X3.95Y-2.575
X3.95Y-2.675
X3.95Y-4.275
X3.95Y-4.375
X4.05Y-2.575
X4.05Y-2.675
X4.05Y-4.275
X4.05Y-4.375
X4.15Y-2.575
X4.15Y-2.675
X4.15Y-4.275
X4.15Y-4.375
X4.25Y-2.575
X4.25Y-2.675
X4.25Y-4.275
X4.25Y-4.375
X4.35Y-2.575
X4.35Y-2.675
X4.35Y-4.275
X4.35Y-4.375
X5.95Y-2.575
X5.95Y-2.675
X5.95Y-4.275
X5.95Y-4.375
X6.05Y-2.575
X6.05Y-2.675
X6.05Y-4.275
X6.05Y-4.375
X6.15Y-2.575
X6.15Y-2.675
X6.15Y-4.275
X6.15Y-4.375
X6.25Y-2.575
X6.25Y-2.675
X6.25Y-4.275
X6.25Y-4.375
X6.35Y-2.575
X6.35Y-2.675
X6.35Y-4.275
X6.35Y-4.375
X6.45Y-2.575
X6.45Y-2.675
X6.45Y-4.275
X6.45Y-4.375
X6.55Y-2.575
X6.55Y-2.675
X6.55Y-4.275
X6.55Y-4.375
X6.65Y-2.575
X6.65Y-2.675
X6.65Y-4.275
X6.65Y-4.375
X6.75Y-2.575
X6.75Y-2.675
X6.75Y-4.275
X6.75Y-4.375
X6.85Y-2.575
X6.85Y-2.675
X6.85Y-4.275
X6.85Y-4.375
T4
X7.61Y-3.15
X7.61Y-3.46
T0
M30
