G04 #@! TF.GenerationSoftware,KiCad,Pcbnew,(5.0.0)*
G04 #@! TF.CreationDate,2020-11-30T18:27:02-06:00*
G04 #@! TF.ProjectId,GiecoBoard_2021_Rev1,476965636F426F6172645F323032315F,rev?*
G04 #@! TF.SameCoordinates,Original*
G04 #@! TF.FileFunction,Legend,Bot*
G04 #@! TF.FilePolarity,Positive*
%FSLAX46Y46*%
G04 Gerber Fmt 4.6, Leading zero omitted, Abs format (unit mm)*
G04 Created by KiCad (PCBNEW (5.0.0)) date 11/30/20 18:27:02*
%MOMM*%
%LPD*%
G01*
G04 APERTURE LIST*
%ADD10C,0.150000*%
G04 APERTURE END LIST*
D10*
G04 #@! TO.C,U1*
X149860000Y-64135000D02*
X149860000Y-69215000D01*
X175260000Y-64135000D02*
X149860000Y-64135000D01*
X175260000Y-69215000D02*
X175260000Y-64135000D01*
X149860000Y-112395000D02*
X175260000Y-112395000D01*
X149860000Y-107315000D02*
X149860000Y-112395000D01*
X175260000Y-112395000D02*
X175260000Y-107315000D01*
X149860000Y-69215000D02*
X175260000Y-69215000D01*
X175260000Y-107315000D02*
X149860000Y-107315000D01*
X86360000Y-69215000D02*
X111760000Y-69215000D01*
X86360000Y-64135000D02*
X86360000Y-69215000D01*
X111760000Y-64135000D02*
X86360000Y-64135000D01*
X111760000Y-69215000D02*
X111760000Y-64135000D01*
X86360000Y-112395000D02*
X111760000Y-112395000D01*
X86360000Y-107315000D02*
X86360000Y-112395000D01*
X111760000Y-107315000D02*
X86360000Y-107315000D01*
X111760000Y-112395000D02*
X111760000Y-107315000D01*
G04 #@! TO.C,U2*
X188595000Y-58754704D02*
X188595000Y-75264704D01*
X198755000Y-75264704D02*
X198755000Y-58754704D01*
X188595000Y-75264704D02*
X198755000Y-75264704D01*
X188595000Y-58754704D02*
X198755000Y-58754704D01*
X191135000Y-71454704D02*
X196215000Y-71454704D01*
X188595000Y-68914704D02*
X191135000Y-71454704D01*
X188595000Y-63834704D02*
X188595000Y-68914704D01*
X191135000Y-61294704D02*
X188595000Y-63834704D01*
X196215000Y-61294704D02*
X191135000Y-61294704D01*
X198755000Y-63834704D02*
X196215000Y-61294704D01*
X198755000Y-68914704D02*
X198755000Y-63834704D01*
X196215000Y-71454704D02*
X198755000Y-68914704D01*
G04 #@! TO.C,U1*
X110934476Y-70429380D02*
X111505904Y-70429380D01*
X111220190Y-70429380D02*
X111220190Y-69429380D01*
X111315428Y-69572238D01*
X111410666Y-69667476D01*
X111505904Y-69715095D01*
X110315428Y-69429380D02*
X110220190Y-69429380D01*
X110124952Y-69477000D01*
X110077333Y-69524619D01*
X110029714Y-69619857D01*
X109982095Y-69810333D01*
X109982095Y-70048428D01*
X110029714Y-70238904D01*
X110077333Y-70334142D01*
X110124952Y-70381761D01*
X110220190Y-70429380D01*
X110315428Y-70429380D01*
X110410666Y-70381761D01*
X110458285Y-70334142D01*
X110505904Y-70238904D01*
X110553523Y-70048428D01*
X110553523Y-69810333D01*
X110505904Y-69619857D01*
X110458285Y-69524619D01*
X110410666Y-69477000D01*
X110315428Y-69429380D01*
X87344285Y-107005380D02*
X87915714Y-107005380D01*
X87630000Y-107005380D02*
X87630000Y-106005380D01*
X87725238Y-106148238D01*
X87820476Y-106243476D01*
X87915714Y-106291095D01*
X110934476Y-107005380D02*
X111505904Y-107005380D01*
X111220190Y-107005380D02*
X111220190Y-106005380D01*
X111315428Y-106148238D01*
X111410666Y-106243476D01*
X111505904Y-106291095D01*
X110315428Y-106005380D02*
X110220190Y-106005380D01*
X110124952Y-106053000D01*
X110077333Y-106100619D01*
X110029714Y-106195857D01*
X109982095Y-106386333D01*
X109982095Y-106624428D01*
X110029714Y-106814904D01*
X110077333Y-106910142D01*
X110124952Y-106957761D01*
X110220190Y-107005380D01*
X110315428Y-107005380D01*
X110410666Y-106957761D01*
X110458285Y-106910142D01*
X110505904Y-106814904D01*
X110553523Y-106624428D01*
X110553523Y-106386333D01*
X110505904Y-106195857D01*
X110458285Y-106100619D01*
X110410666Y-106053000D01*
X110315428Y-106005380D01*
X150844285Y-70429380D02*
X151415714Y-70429380D01*
X151130000Y-70429380D02*
X151130000Y-69429380D01*
X151225238Y-69572238D01*
X151320476Y-69667476D01*
X151415714Y-69715095D01*
X174180476Y-70429380D02*
X174751904Y-70429380D01*
X174466190Y-70429380D02*
X174466190Y-69429380D01*
X174561428Y-69572238D01*
X174656666Y-69667476D01*
X174751904Y-69715095D01*
X173561428Y-69429380D02*
X173466190Y-69429380D01*
X173370952Y-69477000D01*
X173323333Y-69524619D01*
X173275714Y-69619857D01*
X173228095Y-69810333D01*
X173228095Y-70048428D01*
X173275714Y-70238904D01*
X173323333Y-70334142D01*
X173370952Y-70381761D01*
X173466190Y-70429380D01*
X173561428Y-70429380D01*
X173656666Y-70381761D01*
X173704285Y-70334142D01*
X173751904Y-70238904D01*
X173799523Y-70048428D01*
X173799523Y-69810333D01*
X173751904Y-69619857D01*
X173704285Y-69524619D01*
X173656666Y-69477000D01*
X173561428Y-69429380D01*
X174180476Y-107005380D02*
X174751904Y-107005380D01*
X174466190Y-107005380D02*
X174466190Y-106005380D01*
X174561428Y-106148238D01*
X174656666Y-106243476D01*
X174751904Y-106291095D01*
X173561428Y-106005380D02*
X173466190Y-106005380D01*
X173370952Y-106053000D01*
X173323333Y-106100619D01*
X173275714Y-106195857D01*
X173228095Y-106386333D01*
X173228095Y-106624428D01*
X173275714Y-106814904D01*
X173323333Y-106910142D01*
X173370952Y-106957761D01*
X173466190Y-107005380D01*
X173561428Y-107005380D01*
X173656666Y-106957761D01*
X173704285Y-106910142D01*
X173751904Y-106814904D01*
X173799523Y-106624428D01*
X173799523Y-106386333D01*
X173751904Y-106195857D01*
X173704285Y-106100619D01*
X173656666Y-106053000D01*
X173561428Y-106005380D01*
X150844285Y-107005380D02*
X151415714Y-107005380D01*
X151130000Y-107005380D02*
X151130000Y-106005380D01*
X151225238Y-106148238D01*
X151320476Y-106243476D01*
X151415714Y-106291095D01*
X111553523Y-70699380D02*
X110886857Y-71699380D01*
X110886857Y-70699380D02*
X111553523Y-71699380D01*
X110458285Y-71699380D02*
X110267809Y-71699380D01*
X110172571Y-71651761D01*
X110124952Y-71604142D01*
X110029714Y-71461285D01*
X109982095Y-71270809D01*
X109982095Y-70889857D01*
X110029714Y-70794619D01*
X110077333Y-70747000D01*
X110172571Y-70699380D01*
X110363047Y-70699380D01*
X110458285Y-70747000D01*
X110505904Y-70794619D01*
X110553523Y-70889857D01*
X110553523Y-71127952D01*
X110505904Y-71223190D01*
X110458285Y-71270809D01*
X110363047Y-71318428D01*
X110172571Y-71318428D01*
X110077333Y-71270809D01*
X110029714Y-71223190D01*
X109982095Y-71127952D01*
X111553523Y-104735380D02*
X110886857Y-105735380D01*
X110886857Y-104735380D02*
X111553523Y-105735380D01*
X110363047Y-105163952D02*
X110458285Y-105116333D01*
X110505904Y-105068714D01*
X110553523Y-104973476D01*
X110553523Y-104925857D01*
X110505904Y-104830619D01*
X110458285Y-104783000D01*
X110363047Y-104735380D01*
X110172571Y-104735380D01*
X110077333Y-104783000D01*
X110029714Y-104830619D01*
X109982095Y-104925857D01*
X109982095Y-104973476D01*
X110029714Y-105068714D01*
X110077333Y-105116333D01*
X110172571Y-105163952D01*
X110363047Y-105163952D01*
X110458285Y-105211571D01*
X110505904Y-105259190D01*
X110553523Y-105354428D01*
X110553523Y-105544904D01*
X110505904Y-105640142D01*
X110458285Y-105687761D01*
X110363047Y-105735380D01*
X110172571Y-105735380D01*
X110077333Y-105687761D01*
X110029714Y-105640142D01*
X109982095Y-105544904D01*
X109982095Y-105354428D01*
X110029714Y-105259190D01*
X110077333Y-105211571D01*
X110172571Y-105163952D01*
X174799523Y-70699380D02*
X174132857Y-71699380D01*
X174132857Y-70699380D02*
X174799523Y-71699380D01*
X173847142Y-70699380D02*
X173180476Y-70699380D01*
X173609047Y-71699380D01*
X112942666Y-68302142D02*
X112990285Y-68349761D01*
X113133142Y-68397380D01*
X113228380Y-68397380D01*
X113371238Y-68349761D01*
X113466476Y-68254523D01*
X113514095Y-68159285D01*
X113561714Y-67968809D01*
X113561714Y-67825952D01*
X113514095Y-67635476D01*
X113466476Y-67540238D01*
X113371238Y-67445000D01*
X113228380Y-67397380D01*
X113133142Y-67397380D01*
X112990285Y-67445000D01*
X112942666Y-67492619D01*
X111990285Y-68397380D02*
X112561714Y-68397380D01*
X112276000Y-68397380D02*
X112276000Y-67397380D01*
X112371238Y-67540238D01*
X112466476Y-67635476D01*
X112561714Y-67683095D01*
X113514095Y-66111380D02*
X113514095Y-65111380D01*
X113276000Y-65111380D01*
X113133142Y-65159000D01*
X113037904Y-65254238D01*
X112990285Y-65349476D01*
X112942666Y-65539952D01*
X112942666Y-65682809D01*
X112990285Y-65873285D01*
X113037904Y-65968523D01*
X113133142Y-66063761D01*
X113276000Y-66111380D01*
X113514095Y-66111380D01*
X111990285Y-66111380D02*
X112561714Y-66111380D01*
X112276000Y-66111380D02*
X112276000Y-65111380D01*
X112371238Y-65254238D01*
X112466476Y-65349476D01*
X112561714Y-65397095D01*
X176442666Y-68302142D02*
X176490285Y-68349761D01*
X176633142Y-68397380D01*
X176728380Y-68397380D01*
X176871238Y-68349761D01*
X176966476Y-68254523D01*
X177014095Y-68159285D01*
X177061714Y-67968809D01*
X177061714Y-67825952D01*
X177014095Y-67635476D01*
X176966476Y-67540238D01*
X176871238Y-67445000D01*
X176728380Y-67397380D01*
X176633142Y-67397380D01*
X176490285Y-67445000D01*
X176442666Y-67492619D01*
X176061714Y-67492619D02*
X176014095Y-67445000D01*
X175918857Y-67397380D01*
X175680761Y-67397380D01*
X175585523Y-67445000D01*
X175537904Y-67492619D01*
X175490285Y-67587857D01*
X175490285Y-67683095D01*
X175537904Y-67825952D01*
X176109333Y-68397380D01*
X175490285Y-68397380D01*
X177014095Y-65603380D02*
X177014095Y-64603380D01*
X176776000Y-64603380D01*
X176633142Y-64651000D01*
X176537904Y-64746238D01*
X176490285Y-64841476D01*
X176442666Y-65031952D01*
X176442666Y-65174809D01*
X176490285Y-65365285D01*
X176537904Y-65460523D01*
X176633142Y-65555761D01*
X176776000Y-65603380D01*
X177014095Y-65603380D01*
X176061714Y-64698619D02*
X176014095Y-64651000D01*
X175918857Y-64603380D01*
X175680761Y-64603380D01*
X175585523Y-64651000D01*
X175537904Y-64698619D01*
X175490285Y-64793857D01*
X175490285Y-64889095D01*
X175537904Y-65031952D01*
X176109333Y-65603380D01*
X175490285Y-65603380D01*
X113180761Y-108513571D02*
X113037904Y-108561190D01*
X112990285Y-108608809D01*
X112942666Y-108704047D01*
X112942666Y-108846904D01*
X112990285Y-108942142D01*
X113037904Y-108989761D01*
X113133142Y-109037380D01*
X113514095Y-109037380D01*
X113514095Y-108037380D01*
X113180761Y-108037380D01*
X113085523Y-108085000D01*
X113037904Y-108132619D01*
X112990285Y-108227857D01*
X112990285Y-108323095D01*
X113037904Y-108418333D01*
X113085523Y-108465952D01*
X113180761Y-108513571D01*
X113514095Y-108513571D01*
X111990285Y-109037380D02*
X112561714Y-109037380D01*
X112276000Y-109037380D02*
X112276000Y-108037380D01*
X112371238Y-108180238D01*
X112466476Y-108275476D01*
X112561714Y-108323095D01*
X113490285Y-111291666D02*
X113014095Y-111291666D01*
X113585523Y-111577380D02*
X113252190Y-110577380D01*
X112918857Y-111577380D01*
X112061714Y-111577380D02*
X112633142Y-111577380D01*
X112347428Y-111577380D02*
X112347428Y-110577380D01*
X112442666Y-110720238D01*
X112537904Y-110815476D01*
X112633142Y-110863095D01*
X176680761Y-108513571D02*
X176537904Y-108561190D01*
X176490285Y-108608809D01*
X176442666Y-108704047D01*
X176442666Y-108846904D01*
X176490285Y-108942142D01*
X176537904Y-108989761D01*
X176633142Y-109037380D01*
X177014095Y-109037380D01*
X177014095Y-108037380D01*
X176680761Y-108037380D01*
X176585523Y-108085000D01*
X176537904Y-108132619D01*
X176490285Y-108227857D01*
X176490285Y-108323095D01*
X176537904Y-108418333D01*
X176585523Y-108465952D01*
X176680761Y-108513571D01*
X177014095Y-108513571D01*
X176061714Y-108132619D02*
X176014095Y-108085000D01*
X175918857Y-108037380D01*
X175680761Y-108037380D01*
X175585523Y-108085000D01*
X175537904Y-108132619D01*
X175490285Y-108227857D01*
X175490285Y-108323095D01*
X175537904Y-108465952D01*
X176109333Y-109037380D01*
X175490285Y-109037380D01*
X176990285Y-111291666D02*
X176514095Y-111291666D01*
X177085523Y-111577380D02*
X176752190Y-110577380D01*
X176418857Y-111577380D01*
X176133142Y-110672619D02*
X176085523Y-110625000D01*
X175990285Y-110577380D01*
X175752190Y-110577380D01*
X175656952Y-110625000D01*
X175609333Y-110672619D01*
X175561714Y-110767857D01*
X175561714Y-110863095D01*
X175609333Y-111005952D01*
X176180761Y-111577380D01*
X175561714Y-111577380D01*
G04 #@! TO.C,U2*
X195778333Y-75987084D02*
X195587857Y-75987084D01*
X195492619Y-76034704D01*
X195397380Y-76129942D01*
X195349761Y-76320418D01*
X195349761Y-76653751D01*
X195397380Y-76844227D01*
X195492619Y-76939465D01*
X195587857Y-76987084D01*
X195778333Y-76987084D01*
X195873571Y-76939465D01*
X195968809Y-76844227D01*
X196016428Y-76653751D01*
X196016428Y-76320418D01*
X195968809Y-76129942D01*
X195873571Y-76034704D01*
X195778333Y-75987084D01*
X194921190Y-76987084D02*
X194921190Y-75987084D01*
X194349761Y-76987084D02*
X194778333Y-76415656D01*
X194349761Y-75987084D02*
X194921190Y-76558513D01*
X193921190Y-76987084D02*
X193921190Y-75987084D01*
G04 #@! TD*
M02*
