G04 #@! TF.GenerationSoftware,KiCad,Pcbnew,(5.0.0)*
G04 #@! TF.CreationDate,2020-11-30T16:59:43-06:00*
G04 #@! TF.ProjectId,GiecoBoard_2021_Rev1,476965636F426F6172645F323032315F,rev?*
G04 #@! TF.SameCoordinates,Original*
G04 #@! TF.FileFunction,Copper,L2,Bot,Signal*
G04 #@! TF.FilePolarity,Positive*
%FSLAX46Y46*%
G04 Gerber Fmt 4.6, Leading zero omitted, Abs format (unit mm)*
G04 Created by KiCad (PCBNEW (5.0.0)) date 11/30/20 16:59:43*
%MOMM*%
%LPD*%
G01*
G04 APERTURE LIST*
G04 #@! TA.AperFunction,ComponentPad*
%ADD10O,1.727200X3.048000*%
G04 #@! TD*
G04 #@! TA.AperFunction,ComponentPad*
%ADD11C,5.080000*%
G04 #@! TD*
G04 #@! TA.AperFunction,ComponentPad*
%ADD12C,1.520000*%
G04 #@! TD*
G04 #@! TA.AperFunction,ComponentPad*
%ADD13C,1.524000*%
G04 #@! TD*
G04 #@! TA.AperFunction,Conductor*
%ADD14C,0.762000*%
G04 #@! TD*
G04 #@! TA.AperFunction,Conductor*
%ADD15C,0.254000*%
G04 #@! TD*
G04 APERTURE END LIST*
D10*
G04 #@! TO.P,J2,1*
G04 #@! TO.N,+3V3*
X194390000Y-99060000D03*
G04 #@! TO.P,J2,2*
G04 #@! TO.N,Send_ScienceSensor*
X199390000Y-99060000D03*
G04 #@! TO.P,J2,1*
G04 #@! TO.N,+3V3*
X194390000Y-111560000D03*
G04 #@! TO.P,J2,2*
G04 #@! TO.N,Send_ScienceSensor*
X199390000Y-111560000D03*
G04 #@! TD*
G04 #@! TO.P,J3,1*
G04 #@! TO.N,+3V3*
X174705000Y-99060000D03*
G04 #@! TO.P,J3,2*
G04 #@! TO.N,Send_ScienceActuation*
X179705000Y-99060000D03*
G04 #@! TO.P,J3,1*
G04 #@! TO.N,+3V3*
X174705000Y-111560000D03*
G04 #@! TO.P,J3,2*
G04 #@! TO.N,Send_ScienceActuation*
X179705000Y-111560000D03*
G04 #@! TD*
G04 #@! TO.P,J4,2*
G04 #@! TO.N,Send_Gimbal*
X199390000Y-74730000D03*
G04 #@! TO.P,J4,1*
G04 #@! TO.N,+3V3*
X194390000Y-74730000D03*
G04 #@! TO.P,J4,2*
G04 #@! TO.N,Send_Gimbal*
X199390000Y-62230000D03*
G04 #@! TO.P,J4,1*
G04 #@! TO.N,+3V3*
X194390000Y-62230000D03*
G04 #@! TD*
G04 #@! TO.P,J5,2*
G04 #@! TO.N,Send_DriveCommand*
X219075000Y-74730000D03*
G04 #@! TO.P,J5,1*
G04 #@! TO.N,+3V3*
X214075000Y-74730000D03*
G04 #@! TO.P,J5,2*
G04 #@! TO.N,Send_DriveCommand*
X219075000Y-62230000D03*
G04 #@! TO.P,J5,1*
G04 #@! TO.N,+3V3*
X214075000Y-62230000D03*
G04 #@! TD*
G04 #@! TO.P,J6,2*
G04 #@! TO.N,Send_NavigationalControl*
X159940000Y-111560000D03*
G04 #@! TO.P,J6,1*
G04 #@! TO.N,+3V3*
X154940000Y-111560000D03*
G04 #@! TO.P,J6,2*
G04 #@! TO.N,Send_NavigationalControl*
X159940000Y-99060000D03*
G04 #@! TO.P,J6,1*
G04 #@! TO.N,+3V3*
X154940000Y-99060000D03*
G04 #@! TD*
G04 #@! TO.P,J7,1*
G04 #@! TO.N,+3V3*
X137160000Y-99060000D03*
G04 #@! TO.P,J7,2*
G04 #@! TO.N,Send_12VDistribution*
X142160000Y-99060000D03*
G04 #@! TO.P,J7,1*
G04 #@! TO.N,+3V3*
X137160000Y-111560000D03*
G04 #@! TO.P,J7,2*
G04 #@! TO.N,Send_12VDistribution*
X142160000Y-111560000D03*
G04 #@! TD*
G04 #@! TO.P,J8,2*
G04 #@! TO.N,Send_BatteryManagement*
X142240000Y-74530000D03*
G04 #@! TO.P,J8,1*
G04 #@! TO.N,+3V3*
X137240000Y-74530000D03*
G04 #@! TO.P,J8,2*
G04 #@! TO.N,Send_BatteryManagement*
X142240000Y-62030000D03*
G04 #@! TO.P,J8,1*
G04 #@! TO.N,+3V3*
X137240000Y-62030000D03*
G04 #@! TD*
G04 #@! TO.P,J9,1*
G04 #@! TO.N,+3V3*
X155020000Y-62030000D03*
G04 #@! TO.P,J9,2*
G04 #@! TO.N,Send_PackVoltageDistribution*
X160020000Y-62030000D03*
G04 #@! TO.P,J9,1*
G04 #@! TO.N,+3V3*
X155020000Y-74530000D03*
G04 #@! TO.P,J9,2*
G04 #@! TO.N,Send_PackVoltageDistribution*
X160020000Y-74530000D03*
G04 #@! TD*
G04 #@! TO.P,J10,2*
G04 #@! TO.N,Send_Multimedia*
X179705000Y-74730000D03*
G04 #@! TO.P,J10,1*
G04 #@! TO.N,+3V3*
X174705000Y-74730000D03*
G04 #@! TO.P,J10,2*
G04 #@! TO.N,Send_Multimedia*
X179705000Y-62230000D03*
G04 #@! TO.P,J10,1*
G04 #@! TO.N,+3V3*
X174705000Y-62230000D03*
G04 #@! TD*
G04 #@! TO.P,J1,1*
G04 #@! TO.N,+3V3*
X213995000Y-99260000D03*
G04 #@! TO.P,J1,2*
G04 #@! TO.N,Send_ArmArticulation*
X218995000Y-99260000D03*
G04 #@! TO.P,J1,1*
G04 #@! TO.N,+3V3*
X213995000Y-111760000D03*
G04 #@! TO.P,J1,2*
G04 #@! TO.N,Send_ArmArticulation*
X218995000Y-111760000D03*
G04 #@! TD*
D11*
G04 #@! TO.P,Conn1,1*
G04 #@! TO.N,GND*
X113017000Y-111734000D03*
G04 #@! TO.P,Conn1,2*
G04 #@! TO.N,Net-(C1-Pad1)*
X105117000Y-111734000D03*
G04 #@! TD*
D12*
G04 #@! TO.P,U1,+3V3`*
G04 #@! TO.N,N/C*
X158750000Y-135890000D03*
G04 #@! TO.P,U1,PM6*
X135890000Y-90170000D03*
G04 #@! TO.P,U1,PQ1*
G04 #@! TO.N,REC_LED_BatteryManagement*
X138430000Y-90170000D03*
G04 #@! TO.P,U1,PQ2*
G04 #@! TO.N,N/C*
X146050000Y-90170000D03*
G04 #@! TO.P,U1,PK0*
G04 #@! TO.N,REC_LED_NavigationalControl*
X148590000Y-133350000D03*
G04 #@! TO.P,U1,PQ3*
G04 #@! TO.N,N/C*
X143510000Y-90170000D03*
G04 #@! TO.P,U1,PP3*
G04 #@! TO.N,Send_BatteryManagement*
X140970000Y-90170000D03*
G04 #@! TO.P,U1,PQ0*
G04 #@! TO.N,N/C*
X143510000Y-135890000D03*
G04 #@! TO.P,U1,PA4*
G04 #@! TO.N,REC_LED_12VDistribution*
X138430000Y-133350000D03*
G04 #@! TO.P,U1,Rese`*
G04 #@! TO.N,N/C*
X148590000Y-90170000D03*
G04 #@! TO.P,U1,PA7*
G04 #@! TO.N,REC_LED_PackVoltageDistribution*
X151130000Y-90170000D03*
G04 #@! TO.P,U1,PN5*
G04 #@! TO.N,N/C*
X138430000Y-135890000D03*
G04 #@! TO.P,U1,PK2*
X143510000Y-133350000D03*
G04 #@! TO.P,U1,PK1*
X146050000Y-133350000D03*
G04 #@! TO.P,U1,+5V`*
X158750000Y-133350000D03*
G04 #@! TO.P,U1,GND*
G04 #@! TO.N,GND*
X156210000Y-133350000D03*
G04 #@! TO.P,U1,PB4*
G04 #@! TO.N,N/C*
X153670000Y-133350000D03*
G04 #@! TO.P,U1,PB5*
G04 #@! TO.N,Send_NavigationalControl*
X151130000Y-133350000D03*
G04 #@! TO.P,U1,PK3*
G04 #@! TO.N,Send_12VDistribution*
X140970000Y-133350000D03*
G04 #@! TO.P,U1,PA5*
G04 #@! TO.N,N/C*
X135890000Y-133350000D03*
G04 #@! TO.P,U1,PD2*
X156210000Y-135890000D03*
G04 #@! TO.P,U1,PP0*
X153670000Y-135890000D03*
G04 #@! TO.P,U1,PP1*
X151130000Y-135890000D03*
G04 #@! TO.P,U1,PD4*
X148590000Y-135890000D03*
G04 #@! TO.P,U1,PD5*
X146050000Y-135890000D03*
G04 #@! TO.P,U1,PP4*
X140970000Y-135890000D03*
G04 #@! TO.P,U1,PN4*
X135890000Y-135890000D03*
G04 #@! TO.P,U1,PG1*
X158750000Y-92710000D03*
G04 #@! TO.P,U1,PK4*
X156210000Y-92710000D03*
G04 #@! TO.P,U1,PK5*
X153670000Y-92710000D03*
G04 #@! TO.P,U1,PM0*
X151130000Y-92710000D03*
G04 #@! TO.P,U1,PM1*
X148590000Y-92710000D03*
G04 #@! TO.P,U1,PM2*
X146050000Y-92710000D03*
G04 #@! TO.P,U1,PH0*
X143510000Y-92710000D03*
G04 #@! TO.P,U1,PH1*
X140970000Y-92710000D03*
G04 #@! TO.P,U1,PK6*
X138430000Y-92710000D03*
G04 #@! TO.P,U1,PK7*
X135890000Y-92710000D03*
G04 #@! TO.P,U1,GND*
G04 #@! TO.N,GND*
X158750000Y-90170000D03*
G04 #@! TO.P,U1,PM7*
G04 #@! TO.N,N/C*
X156210000Y-90170000D03*
G04 #@! TO.P,U1,PP5*
G04 #@! TO.N,Send_PackVoltageDistribution*
X153670000Y-90170000D03*
G04 #@! TO.P,U1,+5V*
G04 #@! TO.N,N/C*
X222250000Y-133350000D03*
G04 #@! TO.P,U1,GND*
G04 #@! TO.N,GND*
X219710000Y-133350000D03*
G04 #@! TO.P,U1,PE0*
G04 #@! TO.N,Send_ArmArticulation*
X217170000Y-133350000D03*
G04 #@! TO.P,U1,PE1*
G04 #@! TO.N,REC_LED_ArmArticulation*
X214630000Y-133350000D03*
G04 #@! TO.P,U1,PE2*
G04 #@! TO.N,N/C*
X212090000Y-133350000D03*
G04 #@! TO.P,U1,PE3*
G04 #@! TO.N,Send_ScienceSensor*
X209550000Y-133350000D03*
G04 #@! TO.P,U1,PD7*
G04 #@! TO.N,REC_LED_ScienceSensor*
X207010000Y-133350000D03*
G04 #@! TO.P,U1,PA6*
G04 #@! TO.N,N/C*
X204470000Y-133350000D03*
G04 #@! TO.P,U1,PM4*
G04 #@! TO.N,Send_ScienceActuation*
X201930000Y-133350000D03*
G04 #@! TO.P,U1,PM5*
G04 #@! TO.N,REC_LED_ScienceActuation*
X199390000Y-133350000D03*
G04 #@! TO.P,U1,+3V3*
G04 #@! TO.N,+3V3*
X222250000Y-135890000D03*
G04 #@! TO.P,U1,PE4*
G04 #@! TO.N,N/C*
X219710000Y-135890000D03*
G04 #@! TO.P,U1,PC4*
X217170000Y-135890000D03*
G04 #@! TO.P,U1,PC5*
X214630000Y-135890000D03*
G04 #@! TO.P,U1,PC6*
X212090000Y-135890000D03*
G04 #@! TO.P,U1,PE5*
X209550000Y-135890000D03*
G04 #@! TO.P,U1,PD3*
X207010000Y-135890000D03*
G04 #@! TO.P,U1,PC7*
X204470000Y-135890000D03*
G04 #@! TO.P,U1,PB2*
X201930000Y-135890000D03*
G04 #@! TO.P,U1,PB3*
X199390000Y-135890000D03*
G04 #@! TO.P,U1,PF1*
X222250000Y-92710000D03*
G04 #@! TO.P,U1,PF2*
X219710000Y-92710000D03*
G04 #@! TO.P,U1,PF3*
X217170000Y-92710000D03*
G04 #@! TO.P,U1,PG0*
X214630000Y-92710000D03*
G04 #@! TO.P,U1,PL4*
X212090000Y-92710000D03*
G04 #@! TO.P,U1,PL5*
X209550000Y-92710000D03*
G04 #@! TO.P,U1,PL0*
X207010000Y-92710000D03*
G04 #@! TO.P,U1,PL1*
X204470000Y-92710000D03*
G04 #@! TO.P,U1,PL2*
X201930000Y-92710000D03*
G04 #@! TO.P,U1,PL3*
X199390000Y-92710000D03*
G04 #@! TO.P,U1,GND*
G04 #@! TO.N,GND*
X222250000Y-90170000D03*
G04 #@! TO.P,U1,PM3*
G04 #@! TO.N,Send_DriveCommand*
X219710000Y-90170000D03*
G04 #@! TO.P,U1,PH2*
G04 #@! TO.N,REC_LED_DriveCommand*
X217170000Y-90170000D03*
G04 #@! TO.P,U1,PH3*
G04 #@! TO.N,N/C*
X214630000Y-90170000D03*
G04 #@! TO.P,U1,Rese*
X212090000Y-90170000D03*
G04 #@! TO.P,U1,PD1*
G04 #@! TO.N,Send_Gimbal*
X209550000Y-90170000D03*
G04 #@! TO.P,U1,PD0*
G04 #@! TO.N,REC_LED_Gimbal*
X207010000Y-90170000D03*
G04 #@! TO.P,U1,PN2*
G04 #@! TO.N,N/C*
X204470000Y-90170000D03*
G04 #@! TO.P,U1,PN3*
G04 #@! TO.N,Send_Multimedia*
X201930000Y-90170000D03*
G04 #@! TO.P,U1,PP2*
G04 #@! TO.N,REC_LED_Multimedia*
X199390000Y-90170000D03*
G04 #@! TD*
D13*
G04 #@! TO.P,U2,1*
G04 #@! TO.N,Net-(C1-Pad1)*
X106045000Y-99695000D03*
G04 #@! TO.P,U2,2*
G04 #@! TO.N,GND*
X108585000Y-99695000D03*
G04 #@! TO.P,U2,3*
G04 #@! TO.N,+3V3*
X111125000Y-99695000D03*
G04 #@! TD*
D14*
G04 #@! TO.N,GND*
X108585000Y-102248000D02*
X113017000Y-106680000D01*
X108585000Y-99695000D02*
X108585000Y-102248000D01*
X113017000Y-111734000D02*
X113017000Y-106680000D01*
G04 #@! TD*
D15*
G04 #@! TO.N,+3V3*
G36*
X222583364Y-59184985D02*
X222889928Y-59324372D01*
X223145050Y-59544199D01*
X223328218Y-59826792D01*
X223431743Y-60172959D01*
X223445191Y-60353920D01*
X224028445Y-140843000D01*
X126492000Y-140843000D01*
X126492000Y-133072517D01*
X134495000Y-133072517D01*
X134495000Y-133627483D01*
X134707376Y-134140204D01*
X135099796Y-134532624D01*
X135310740Y-134620000D01*
X135099796Y-134707376D01*
X134707376Y-135099796D01*
X134495000Y-135612517D01*
X134495000Y-136167483D01*
X134707376Y-136680204D01*
X135099796Y-137072624D01*
X135612517Y-137285000D01*
X136167483Y-137285000D01*
X136680204Y-137072624D01*
X137072624Y-136680204D01*
X137160000Y-136469260D01*
X137247376Y-136680204D01*
X137639796Y-137072624D01*
X138152517Y-137285000D01*
X138707483Y-137285000D01*
X139220204Y-137072624D01*
X139612624Y-136680204D01*
X139700000Y-136469260D01*
X139787376Y-136680204D01*
X140179796Y-137072624D01*
X140692517Y-137285000D01*
X141247483Y-137285000D01*
X141760204Y-137072624D01*
X142152624Y-136680204D01*
X142240000Y-136469260D01*
X142327376Y-136680204D01*
X142719796Y-137072624D01*
X143232517Y-137285000D01*
X143787483Y-137285000D01*
X144300204Y-137072624D01*
X144692624Y-136680204D01*
X144780000Y-136469260D01*
X144867376Y-136680204D01*
X145259796Y-137072624D01*
X145772517Y-137285000D01*
X146327483Y-137285000D01*
X146840204Y-137072624D01*
X147232624Y-136680204D01*
X147320000Y-136469260D01*
X147407376Y-136680204D01*
X147799796Y-137072624D01*
X148312517Y-137285000D01*
X148867483Y-137285000D01*
X149380204Y-137072624D01*
X149772624Y-136680204D01*
X149860000Y-136469260D01*
X149947376Y-136680204D01*
X150339796Y-137072624D01*
X150852517Y-137285000D01*
X151407483Y-137285000D01*
X151920204Y-137072624D01*
X152312624Y-136680204D01*
X152400000Y-136469260D01*
X152487376Y-136680204D01*
X152879796Y-137072624D01*
X153392517Y-137285000D01*
X153947483Y-137285000D01*
X154460204Y-137072624D01*
X154852624Y-136680204D01*
X154940000Y-136469260D01*
X155027376Y-136680204D01*
X155419796Y-137072624D01*
X155932517Y-137285000D01*
X156487483Y-137285000D01*
X157000204Y-137072624D01*
X157392624Y-136680204D01*
X157480000Y-136469260D01*
X157567376Y-136680204D01*
X157959796Y-137072624D01*
X158472517Y-137285000D01*
X159027483Y-137285000D01*
X159540204Y-137072624D01*
X159932624Y-136680204D01*
X160145000Y-136167483D01*
X160145000Y-135612517D01*
X159932624Y-135099796D01*
X159540204Y-134707376D01*
X159329260Y-134620000D01*
X159540204Y-134532624D01*
X159932624Y-134140204D01*
X160145000Y-133627483D01*
X160145000Y-133072517D01*
X197995000Y-133072517D01*
X197995000Y-133627483D01*
X198207376Y-134140204D01*
X198599796Y-134532624D01*
X198810740Y-134620000D01*
X198599796Y-134707376D01*
X198207376Y-135099796D01*
X197995000Y-135612517D01*
X197995000Y-136167483D01*
X198207376Y-136680204D01*
X198599796Y-137072624D01*
X199112517Y-137285000D01*
X199667483Y-137285000D01*
X200180204Y-137072624D01*
X200572624Y-136680204D01*
X200660000Y-136469260D01*
X200747376Y-136680204D01*
X201139796Y-137072624D01*
X201652517Y-137285000D01*
X202207483Y-137285000D01*
X202720204Y-137072624D01*
X203112624Y-136680204D01*
X203200000Y-136469260D01*
X203287376Y-136680204D01*
X203679796Y-137072624D01*
X204192517Y-137285000D01*
X204747483Y-137285000D01*
X205260204Y-137072624D01*
X205652624Y-136680204D01*
X205740000Y-136469260D01*
X205827376Y-136680204D01*
X206219796Y-137072624D01*
X206732517Y-137285000D01*
X207287483Y-137285000D01*
X207800204Y-137072624D01*
X208192624Y-136680204D01*
X208280000Y-136469260D01*
X208367376Y-136680204D01*
X208759796Y-137072624D01*
X209272517Y-137285000D01*
X209827483Y-137285000D01*
X210340204Y-137072624D01*
X210732624Y-136680204D01*
X210820000Y-136469260D01*
X210907376Y-136680204D01*
X211299796Y-137072624D01*
X211812517Y-137285000D01*
X212367483Y-137285000D01*
X212880204Y-137072624D01*
X213272624Y-136680204D01*
X213360000Y-136469260D01*
X213447376Y-136680204D01*
X213839796Y-137072624D01*
X214352517Y-137285000D01*
X214907483Y-137285000D01*
X215420204Y-137072624D01*
X215812624Y-136680204D01*
X215900000Y-136469260D01*
X215987376Y-136680204D01*
X216379796Y-137072624D01*
X216892517Y-137285000D01*
X217447483Y-137285000D01*
X217960204Y-137072624D01*
X218352624Y-136680204D01*
X218440000Y-136469260D01*
X218527376Y-136680204D01*
X218919796Y-137072624D01*
X219432517Y-137285000D01*
X219987483Y-137285000D01*
X220500204Y-137072624D01*
X220892624Y-136680204D01*
X221105000Y-136167483D01*
X221105000Y-135612517D01*
X220892624Y-135099796D01*
X220500204Y-134707376D01*
X220289260Y-134620000D01*
X220500204Y-134532624D01*
X220892624Y-134140204D01*
X220980000Y-133929260D01*
X221067376Y-134140204D01*
X221459796Y-134532624D01*
X221972517Y-134745000D01*
X222527483Y-134745000D01*
X223040204Y-134532624D01*
X223432624Y-134140204D01*
X223645000Y-133627483D01*
X223645000Y-133072517D01*
X223432624Y-132559796D01*
X223040204Y-132167376D01*
X222527483Y-131955000D01*
X221972517Y-131955000D01*
X221459796Y-132167376D01*
X221067376Y-132559796D01*
X220980000Y-132770740D01*
X220892624Y-132559796D01*
X220500204Y-132167376D01*
X219987483Y-131955000D01*
X219432517Y-131955000D01*
X218919796Y-132167376D01*
X218527376Y-132559796D01*
X218440000Y-132770740D01*
X218352624Y-132559796D01*
X217960204Y-132167376D01*
X217447483Y-131955000D01*
X216892517Y-131955000D01*
X216379796Y-132167376D01*
X215987376Y-132559796D01*
X215900000Y-132770740D01*
X215812624Y-132559796D01*
X215420204Y-132167376D01*
X214907483Y-131955000D01*
X214352517Y-131955000D01*
X213839796Y-132167376D01*
X213447376Y-132559796D01*
X213360000Y-132770740D01*
X213272624Y-132559796D01*
X212880204Y-132167376D01*
X212367483Y-131955000D01*
X211812517Y-131955000D01*
X211299796Y-132167376D01*
X210907376Y-132559796D01*
X210820000Y-132770740D01*
X210732624Y-132559796D01*
X210340204Y-132167376D01*
X209827483Y-131955000D01*
X209272517Y-131955000D01*
X208759796Y-132167376D01*
X208367376Y-132559796D01*
X208280000Y-132770740D01*
X208192624Y-132559796D01*
X207800204Y-132167376D01*
X207287483Y-131955000D01*
X206732517Y-131955000D01*
X206219796Y-132167376D01*
X205827376Y-132559796D01*
X205740000Y-132770740D01*
X205652624Y-132559796D01*
X205260204Y-132167376D01*
X204747483Y-131955000D01*
X204192517Y-131955000D01*
X203679796Y-132167376D01*
X203287376Y-132559796D01*
X203200000Y-132770740D01*
X203112624Y-132559796D01*
X202720204Y-132167376D01*
X202207483Y-131955000D01*
X201652517Y-131955000D01*
X201139796Y-132167376D01*
X200747376Y-132559796D01*
X200660000Y-132770740D01*
X200572624Y-132559796D01*
X200180204Y-132167376D01*
X199667483Y-131955000D01*
X199112517Y-131955000D01*
X198599796Y-132167376D01*
X198207376Y-132559796D01*
X197995000Y-133072517D01*
X160145000Y-133072517D01*
X159932624Y-132559796D01*
X159540204Y-132167376D01*
X159027483Y-131955000D01*
X158472517Y-131955000D01*
X157959796Y-132167376D01*
X157567376Y-132559796D01*
X157480000Y-132770740D01*
X157392624Y-132559796D01*
X157000204Y-132167376D01*
X156487483Y-131955000D01*
X155932517Y-131955000D01*
X155419796Y-132167376D01*
X155027376Y-132559796D01*
X154940000Y-132770740D01*
X154852624Y-132559796D01*
X154460204Y-132167376D01*
X153947483Y-131955000D01*
X153392517Y-131955000D01*
X152879796Y-132167376D01*
X152487376Y-132559796D01*
X152400000Y-132770740D01*
X152312624Y-132559796D01*
X151920204Y-132167376D01*
X151407483Y-131955000D01*
X150852517Y-131955000D01*
X150339796Y-132167376D01*
X149947376Y-132559796D01*
X149860000Y-132770740D01*
X149772624Y-132559796D01*
X149380204Y-132167376D01*
X148867483Y-131955000D01*
X148312517Y-131955000D01*
X147799796Y-132167376D01*
X147407376Y-132559796D01*
X147320000Y-132770740D01*
X147232624Y-132559796D01*
X146840204Y-132167376D01*
X146327483Y-131955000D01*
X145772517Y-131955000D01*
X145259796Y-132167376D01*
X144867376Y-132559796D01*
X144780000Y-132770740D01*
X144692624Y-132559796D01*
X144300204Y-132167376D01*
X143787483Y-131955000D01*
X143232517Y-131955000D01*
X142719796Y-132167376D01*
X142327376Y-132559796D01*
X142240000Y-132770740D01*
X142152624Y-132559796D01*
X141760204Y-132167376D01*
X141247483Y-131955000D01*
X140692517Y-131955000D01*
X140179796Y-132167376D01*
X139787376Y-132559796D01*
X139700000Y-132770740D01*
X139612624Y-132559796D01*
X139220204Y-132167376D01*
X138707483Y-131955000D01*
X138152517Y-131955000D01*
X137639796Y-132167376D01*
X137247376Y-132559796D01*
X137160000Y-132770740D01*
X137072624Y-132559796D01*
X136680204Y-132167376D01*
X136167483Y-131955000D01*
X135612517Y-131955000D01*
X135099796Y-132167376D01*
X134707376Y-132559796D01*
X134495000Y-133072517D01*
X126492000Y-133072517D01*
X126492000Y-110752003D01*
X140661400Y-110752003D01*
X140661400Y-112367998D01*
X140748351Y-112805125D01*
X141079571Y-113300830D01*
X141575276Y-113632050D01*
X142160000Y-113748359D01*
X142744725Y-113632050D01*
X143240430Y-113300830D01*
X143571650Y-112805125D01*
X143658600Y-112367998D01*
X143658600Y-110752003D01*
X158441400Y-110752003D01*
X158441400Y-112367998D01*
X158528351Y-112805125D01*
X158859571Y-113300830D01*
X159355276Y-113632050D01*
X159940000Y-113748359D01*
X160524725Y-113632050D01*
X161020430Y-113300830D01*
X161351650Y-112805125D01*
X161438600Y-112367998D01*
X161438600Y-110752003D01*
X178206400Y-110752003D01*
X178206400Y-112367998D01*
X178293351Y-112805125D01*
X178624571Y-113300830D01*
X179120276Y-113632050D01*
X179705000Y-113748359D01*
X180289725Y-113632050D01*
X180785430Y-113300830D01*
X181116650Y-112805125D01*
X181203600Y-112367998D01*
X181203600Y-110752003D01*
X197891400Y-110752003D01*
X197891400Y-112367998D01*
X197978351Y-112805125D01*
X198309571Y-113300830D01*
X198805276Y-113632050D01*
X199390000Y-113748359D01*
X199974725Y-113632050D01*
X200470430Y-113300830D01*
X200801650Y-112805125D01*
X200888600Y-112367998D01*
X200888600Y-110952003D01*
X217496400Y-110952003D01*
X217496400Y-112567998D01*
X217583351Y-113005125D01*
X217914571Y-113500830D01*
X218410276Y-113832050D01*
X218995000Y-113948359D01*
X219579725Y-113832050D01*
X220075430Y-113500830D01*
X220406650Y-113005125D01*
X220493600Y-112567998D01*
X220493600Y-110952002D01*
X220406650Y-110514875D01*
X220075430Y-110019170D01*
X219579724Y-109687950D01*
X218995000Y-109571641D01*
X218410275Y-109687950D01*
X217914570Y-110019170D01*
X217583350Y-110514876D01*
X217496400Y-110952003D01*
X200888600Y-110952003D01*
X200888600Y-110752002D01*
X200801650Y-110314875D01*
X200470430Y-109819170D01*
X199974724Y-109487950D01*
X199390000Y-109371641D01*
X198805275Y-109487950D01*
X198309570Y-109819170D01*
X197978350Y-110314876D01*
X197891400Y-110752003D01*
X181203600Y-110752003D01*
X181203600Y-110752002D01*
X181116650Y-110314875D01*
X180785430Y-109819170D01*
X180289724Y-109487950D01*
X179705000Y-109371641D01*
X179120275Y-109487950D01*
X178624570Y-109819170D01*
X178293350Y-110314876D01*
X178206400Y-110752003D01*
X161438600Y-110752003D01*
X161438600Y-110752002D01*
X161351650Y-110314875D01*
X161020430Y-109819170D01*
X160524724Y-109487950D01*
X159940000Y-109371641D01*
X159355275Y-109487950D01*
X158859570Y-109819170D01*
X158528350Y-110314876D01*
X158441400Y-110752003D01*
X143658600Y-110752003D01*
X143658600Y-110752002D01*
X143571650Y-110314875D01*
X143240430Y-109819170D01*
X142744724Y-109487950D01*
X142160000Y-109371641D01*
X141575275Y-109487950D01*
X141079570Y-109819170D01*
X140748350Y-110314876D01*
X140661400Y-110752003D01*
X126492000Y-110752003D01*
X126492000Y-101600000D01*
X126482333Y-101551399D01*
X126454803Y-101510197D01*
X126413601Y-101482667D01*
X126365000Y-101473000D01*
X109982000Y-101473000D01*
X109982000Y-98252003D01*
X140661400Y-98252003D01*
X140661400Y-99867998D01*
X140748351Y-100305125D01*
X141079571Y-100800830D01*
X141575276Y-101132050D01*
X142160000Y-101248359D01*
X142744725Y-101132050D01*
X143240430Y-100800830D01*
X143571650Y-100305125D01*
X143658600Y-99867998D01*
X143658600Y-98252003D01*
X158441400Y-98252003D01*
X158441400Y-99867998D01*
X158528351Y-100305125D01*
X158859571Y-100800830D01*
X159355276Y-101132050D01*
X159940000Y-101248359D01*
X160524725Y-101132050D01*
X161020430Y-100800830D01*
X161351650Y-100305125D01*
X161438600Y-99867998D01*
X161438600Y-98252003D01*
X178206400Y-98252003D01*
X178206400Y-99867998D01*
X178293351Y-100305125D01*
X178624571Y-100800830D01*
X179120276Y-101132050D01*
X179705000Y-101248359D01*
X180289725Y-101132050D01*
X180785430Y-100800830D01*
X181116650Y-100305125D01*
X181203600Y-99867998D01*
X181203600Y-98252003D01*
X197891400Y-98252003D01*
X197891400Y-99867998D01*
X197978351Y-100305125D01*
X198309571Y-100800830D01*
X198805276Y-101132050D01*
X199390000Y-101248359D01*
X199974725Y-101132050D01*
X200470430Y-100800830D01*
X200801650Y-100305125D01*
X200888600Y-99867998D01*
X200888600Y-98452003D01*
X217496400Y-98452003D01*
X217496400Y-100067998D01*
X217583351Y-100505125D01*
X217914571Y-101000830D01*
X218410276Y-101332050D01*
X218995000Y-101448359D01*
X219579725Y-101332050D01*
X220075430Y-101000830D01*
X220406650Y-100505125D01*
X220493600Y-100067998D01*
X220493600Y-98452002D01*
X220406650Y-98014875D01*
X220075430Y-97519170D01*
X219579724Y-97187950D01*
X218995000Y-97071641D01*
X218410275Y-97187950D01*
X217914570Y-97519170D01*
X217583350Y-98014876D01*
X217496400Y-98452003D01*
X200888600Y-98452003D01*
X200888600Y-98252002D01*
X200801650Y-97814875D01*
X200470430Y-97319170D01*
X199974724Y-96987950D01*
X199390000Y-96871641D01*
X198805275Y-96987950D01*
X198309570Y-97319170D01*
X197978350Y-97814876D01*
X197891400Y-98252003D01*
X181203600Y-98252003D01*
X181203600Y-98252002D01*
X181116650Y-97814875D01*
X180785430Y-97319170D01*
X180289724Y-96987950D01*
X179705000Y-96871641D01*
X179120275Y-96987950D01*
X178624570Y-97319170D01*
X178293350Y-97814876D01*
X178206400Y-98252003D01*
X161438600Y-98252003D01*
X161438600Y-98252002D01*
X161351650Y-97814875D01*
X161020430Y-97319170D01*
X160524724Y-96987950D01*
X159940000Y-96871641D01*
X159355275Y-96987950D01*
X158859570Y-97319170D01*
X158528350Y-97814876D01*
X158441400Y-98252003D01*
X143658600Y-98252003D01*
X143658600Y-98252002D01*
X143571650Y-97814875D01*
X143240430Y-97319170D01*
X142744724Y-96987950D01*
X142160000Y-96871641D01*
X141575275Y-96987950D01*
X141079570Y-97319170D01*
X140748350Y-97814876D01*
X140661400Y-98252003D01*
X109982000Y-98252003D01*
X109982000Y-89892517D01*
X134495000Y-89892517D01*
X134495000Y-90447483D01*
X134707376Y-90960204D01*
X135099796Y-91352624D01*
X135310740Y-91440000D01*
X135099796Y-91527376D01*
X134707376Y-91919796D01*
X134495000Y-92432517D01*
X134495000Y-92987483D01*
X134707376Y-93500204D01*
X135099796Y-93892624D01*
X135612517Y-94105000D01*
X136167483Y-94105000D01*
X136680204Y-93892624D01*
X137072624Y-93500204D01*
X137160000Y-93289260D01*
X137247376Y-93500204D01*
X137639796Y-93892624D01*
X138152517Y-94105000D01*
X138707483Y-94105000D01*
X139220204Y-93892624D01*
X139612624Y-93500204D01*
X139700000Y-93289260D01*
X139787376Y-93500204D01*
X140179796Y-93892624D01*
X140692517Y-94105000D01*
X141247483Y-94105000D01*
X141760204Y-93892624D01*
X142152624Y-93500204D01*
X142240000Y-93289260D01*
X142327376Y-93500204D01*
X142719796Y-93892624D01*
X143232517Y-94105000D01*
X143787483Y-94105000D01*
X144300204Y-93892624D01*
X144692624Y-93500204D01*
X144780000Y-93289260D01*
X144867376Y-93500204D01*
X145259796Y-93892624D01*
X145772517Y-94105000D01*
X146327483Y-94105000D01*
X146840204Y-93892624D01*
X147232624Y-93500204D01*
X147320000Y-93289260D01*
X147407376Y-93500204D01*
X147799796Y-93892624D01*
X148312517Y-94105000D01*
X148867483Y-94105000D01*
X149380204Y-93892624D01*
X149772624Y-93500204D01*
X149860000Y-93289260D01*
X149947376Y-93500204D01*
X150339796Y-93892624D01*
X150852517Y-94105000D01*
X151407483Y-94105000D01*
X151920204Y-93892624D01*
X152312624Y-93500204D01*
X152400000Y-93289260D01*
X152487376Y-93500204D01*
X152879796Y-93892624D01*
X153392517Y-94105000D01*
X153947483Y-94105000D01*
X154460204Y-93892624D01*
X154852624Y-93500204D01*
X154940000Y-93289260D01*
X155027376Y-93500204D01*
X155419796Y-93892624D01*
X155932517Y-94105000D01*
X156487483Y-94105000D01*
X157000204Y-93892624D01*
X157392624Y-93500204D01*
X157480000Y-93289260D01*
X157567376Y-93500204D01*
X157959796Y-93892624D01*
X158472517Y-94105000D01*
X159027483Y-94105000D01*
X159540204Y-93892624D01*
X159932624Y-93500204D01*
X160145000Y-92987483D01*
X160145000Y-92432517D01*
X159932624Y-91919796D01*
X159540204Y-91527376D01*
X159329260Y-91440000D01*
X159540204Y-91352624D01*
X159932624Y-90960204D01*
X160145000Y-90447483D01*
X160145000Y-89892517D01*
X197995000Y-89892517D01*
X197995000Y-90447483D01*
X198207376Y-90960204D01*
X198599796Y-91352624D01*
X198810740Y-91440000D01*
X198599796Y-91527376D01*
X198207376Y-91919796D01*
X197995000Y-92432517D01*
X197995000Y-92987483D01*
X198207376Y-93500204D01*
X198599796Y-93892624D01*
X199112517Y-94105000D01*
X199667483Y-94105000D01*
X200180204Y-93892624D01*
X200572624Y-93500204D01*
X200660000Y-93289260D01*
X200747376Y-93500204D01*
X201139796Y-93892624D01*
X201652517Y-94105000D01*
X202207483Y-94105000D01*
X202720204Y-93892624D01*
X203112624Y-93500204D01*
X203200000Y-93289260D01*
X203287376Y-93500204D01*
X203679796Y-93892624D01*
X204192517Y-94105000D01*
X204747483Y-94105000D01*
X205260204Y-93892624D01*
X205652624Y-93500204D01*
X205740000Y-93289260D01*
X205827376Y-93500204D01*
X206219796Y-93892624D01*
X206732517Y-94105000D01*
X207287483Y-94105000D01*
X207800204Y-93892624D01*
X208192624Y-93500204D01*
X208280000Y-93289260D01*
X208367376Y-93500204D01*
X208759796Y-93892624D01*
X209272517Y-94105000D01*
X209827483Y-94105000D01*
X210340204Y-93892624D01*
X210732624Y-93500204D01*
X210820000Y-93289260D01*
X210907376Y-93500204D01*
X211299796Y-93892624D01*
X211812517Y-94105000D01*
X212367483Y-94105000D01*
X212880204Y-93892624D01*
X213272624Y-93500204D01*
X213360000Y-93289260D01*
X213447376Y-93500204D01*
X213839796Y-93892624D01*
X214352517Y-94105000D01*
X214907483Y-94105000D01*
X215420204Y-93892624D01*
X215812624Y-93500204D01*
X215900000Y-93289260D01*
X215987376Y-93500204D01*
X216379796Y-93892624D01*
X216892517Y-94105000D01*
X217447483Y-94105000D01*
X217960204Y-93892624D01*
X218352624Y-93500204D01*
X218440000Y-93289260D01*
X218527376Y-93500204D01*
X218919796Y-93892624D01*
X219432517Y-94105000D01*
X219987483Y-94105000D01*
X220500204Y-93892624D01*
X220892624Y-93500204D01*
X220980000Y-93289260D01*
X221067376Y-93500204D01*
X221459796Y-93892624D01*
X221972517Y-94105000D01*
X222527483Y-94105000D01*
X223040204Y-93892624D01*
X223432624Y-93500204D01*
X223645000Y-92987483D01*
X223645000Y-92432517D01*
X223432624Y-91919796D01*
X223040204Y-91527376D01*
X222829260Y-91440000D01*
X223040204Y-91352624D01*
X223432624Y-90960204D01*
X223645000Y-90447483D01*
X223645000Y-89892517D01*
X223432624Y-89379796D01*
X223040204Y-88987376D01*
X222527483Y-88775000D01*
X221972517Y-88775000D01*
X221459796Y-88987376D01*
X221067376Y-89379796D01*
X220980000Y-89590740D01*
X220892624Y-89379796D01*
X220500204Y-88987376D01*
X219987483Y-88775000D01*
X219432517Y-88775000D01*
X218919796Y-88987376D01*
X218527376Y-89379796D01*
X218440000Y-89590740D01*
X218352624Y-89379796D01*
X217960204Y-88987376D01*
X217447483Y-88775000D01*
X216892517Y-88775000D01*
X216379796Y-88987376D01*
X215987376Y-89379796D01*
X215900000Y-89590740D01*
X215812624Y-89379796D01*
X215420204Y-88987376D01*
X214907483Y-88775000D01*
X214352517Y-88775000D01*
X213839796Y-88987376D01*
X213447376Y-89379796D01*
X213360000Y-89590740D01*
X213272624Y-89379796D01*
X212880204Y-88987376D01*
X212367483Y-88775000D01*
X211812517Y-88775000D01*
X211299796Y-88987376D01*
X210907376Y-89379796D01*
X210820000Y-89590740D01*
X210732624Y-89379796D01*
X210340204Y-88987376D01*
X209827483Y-88775000D01*
X209272517Y-88775000D01*
X208759796Y-88987376D01*
X208367376Y-89379796D01*
X208280000Y-89590740D01*
X208192624Y-89379796D01*
X207800204Y-88987376D01*
X207287483Y-88775000D01*
X206732517Y-88775000D01*
X206219796Y-88987376D01*
X205827376Y-89379796D01*
X205740000Y-89590740D01*
X205652624Y-89379796D01*
X205260204Y-88987376D01*
X204747483Y-88775000D01*
X204192517Y-88775000D01*
X203679796Y-88987376D01*
X203287376Y-89379796D01*
X203200000Y-89590740D01*
X203112624Y-89379796D01*
X202720204Y-88987376D01*
X202207483Y-88775000D01*
X201652517Y-88775000D01*
X201139796Y-88987376D01*
X200747376Y-89379796D01*
X200660000Y-89590740D01*
X200572624Y-89379796D01*
X200180204Y-88987376D01*
X199667483Y-88775000D01*
X199112517Y-88775000D01*
X198599796Y-88987376D01*
X198207376Y-89379796D01*
X197995000Y-89892517D01*
X160145000Y-89892517D01*
X159932624Y-89379796D01*
X159540204Y-88987376D01*
X159027483Y-88775000D01*
X158472517Y-88775000D01*
X157959796Y-88987376D01*
X157567376Y-89379796D01*
X157480000Y-89590740D01*
X157392624Y-89379796D01*
X157000204Y-88987376D01*
X156487483Y-88775000D01*
X155932517Y-88775000D01*
X155419796Y-88987376D01*
X155027376Y-89379796D01*
X154940000Y-89590740D01*
X154852624Y-89379796D01*
X154460204Y-88987376D01*
X153947483Y-88775000D01*
X153392517Y-88775000D01*
X152879796Y-88987376D01*
X152487376Y-89379796D01*
X152400000Y-89590740D01*
X152312624Y-89379796D01*
X151920204Y-88987376D01*
X151407483Y-88775000D01*
X150852517Y-88775000D01*
X150339796Y-88987376D01*
X149947376Y-89379796D01*
X149860000Y-89590740D01*
X149772624Y-89379796D01*
X149380204Y-88987376D01*
X148867483Y-88775000D01*
X148312517Y-88775000D01*
X147799796Y-88987376D01*
X147407376Y-89379796D01*
X147320000Y-89590740D01*
X147232624Y-89379796D01*
X146840204Y-88987376D01*
X146327483Y-88775000D01*
X145772517Y-88775000D01*
X145259796Y-88987376D01*
X144867376Y-89379796D01*
X144780000Y-89590740D01*
X144692624Y-89379796D01*
X144300204Y-88987376D01*
X143787483Y-88775000D01*
X143232517Y-88775000D01*
X142719796Y-88987376D01*
X142327376Y-89379796D01*
X142240000Y-89590740D01*
X142152624Y-89379796D01*
X141760204Y-88987376D01*
X141247483Y-88775000D01*
X140692517Y-88775000D01*
X140179796Y-88987376D01*
X139787376Y-89379796D01*
X139700000Y-89590740D01*
X139612624Y-89379796D01*
X139220204Y-88987376D01*
X138707483Y-88775000D01*
X138152517Y-88775000D01*
X137639796Y-88987376D01*
X137247376Y-89379796D01*
X137160000Y-89590740D01*
X137072624Y-89379796D01*
X136680204Y-88987376D01*
X136167483Y-88775000D01*
X135612517Y-88775000D01*
X135099796Y-88987376D01*
X134707376Y-89379796D01*
X134495000Y-89892517D01*
X109982000Y-89892517D01*
X109982000Y-81990000D01*
X128974926Y-81990000D01*
X129000915Y-81984830D01*
X129239194Y-81967123D01*
X129309937Y-81951569D01*
X129381684Y-81941741D01*
X129390009Y-81939307D01*
X129907489Y-81784548D01*
X129995021Y-81744102D01*
X130082922Y-81704783D01*
X130090224Y-81700113D01*
X130090230Y-81700110D01*
X130090234Y-81700106D01*
X130543474Y-81406331D01*
X130616089Y-81342985D01*
X130689469Y-81280534D01*
X130695167Y-81274001D01*
X130695171Y-81273998D01*
X130695173Y-81273994D01*
X131047743Y-80864818D01*
X131099669Y-80783623D01*
X131152563Y-80703100D01*
X131156201Y-80695226D01*
X131379758Y-80203538D01*
X131406805Y-80111044D01*
X131434976Y-80018902D01*
X131436258Y-80010323D01*
X131510106Y-79494666D01*
X131520000Y-79444926D01*
X131520000Y-73722003D01*
X140741400Y-73722003D01*
X140741400Y-75337998D01*
X140828351Y-75775125D01*
X141159571Y-76270830D01*
X141655276Y-76602050D01*
X142240000Y-76718359D01*
X142824725Y-76602050D01*
X143320430Y-76270830D01*
X143651650Y-75775125D01*
X143738600Y-75337998D01*
X143738600Y-73722003D01*
X158521400Y-73722003D01*
X158521400Y-75337998D01*
X158608351Y-75775125D01*
X158939571Y-76270830D01*
X159435276Y-76602050D01*
X160020000Y-76718359D01*
X160604725Y-76602050D01*
X161100430Y-76270830D01*
X161431650Y-75775125D01*
X161518600Y-75337998D01*
X161518600Y-73922003D01*
X178206400Y-73922003D01*
X178206400Y-75537998D01*
X178293351Y-75975125D01*
X178624571Y-76470830D01*
X179120276Y-76802050D01*
X179705000Y-76918359D01*
X180289725Y-76802050D01*
X180785430Y-76470830D01*
X181116650Y-75975125D01*
X181203600Y-75537998D01*
X181203600Y-73922003D01*
X197891400Y-73922003D01*
X197891400Y-75537998D01*
X197978351Y-75975125D01*
X198309571Y-76470830D01*
X198805276Y-76802050D01*
X199390000Y-76918359D01*
X199974725Y-76802050D01*
X200470430Y-76470830D01*
X200801650Y-75975125D01*
X200888600Y-75537998D01*
X200888600Y-73922003D01*
X217576400Y-73922003D01*
X217576400Y-75537998D01*
X217663351Y-75975125D01*
X217994571Y-76470830D01*
X218490276Y-76802050D01*
X219075000Y-76918359D01*
X219659725Y-76802050D01*
X220155430Y-76470830D01*
X220486650Y-75975125D01*
X220573600Y-75537998D01*
X220573600Y-73922002D01*
X220486650Y-73484875D01*
X220155430Y-72989170D01*
X219659724Y-72657950D01*
X219075000Y-72541641D01*
X218490275Y-72657950D01*
X217994570Y-72989170D01*
X217663350Y-73484876D01*
X217576400Y-73922003D01*
X200888600Y-73922003D01*
X200888600Y-73922002D01*
X200801650Y-73484875D01*
X200470430Y-72989170D01*
X199974724Y-72657950D01*
X199390000Y-72541641D01*
X198805275Y-72657950D01*
X198309570Y-72989170D01*
X197978350Y-73484876D01*
X197891400Y-73922003D01*
X181203600Y-73922003D01*
X181203600Y-73922002D01*
X181116650Y-73484875D01*
X180785430Y-72989170D01*
X180289724Y-72657950D01*
X179705000Y-72541641D01*
X179120275Y-72657950D01*
X178624570Y-72989170D01*
X178293350Y-73484876D01*
X178206400Y-73922003D01*
X161518600Y-73922003D01*
X161518600Y-73722002D01*
X161431650Y-73284875D01*
X161100430Y-72789170D01*
X160604724Y-72457950D01*
X160020000Y-72341641D01*
X159435275Y-72457950D01*
X158939570Y-72789170D01*
X158608350Y-73284876D01*
X158521400Y-73722003D01*
X143738600Y-73722003D01*
X143738600Y-73722002D01*
X143651650Y-73284875D01*
X143320430Y-72789170D01*
X142824724Y-72457950D01*
X142240000Y-72341641D01*
X141655275Y-72457950D01*
X141159570Y-72789170D01*
X140828350Y-73284876D01*
X140741400Y-73722003D01*
X131520000Y-73722003D01*
X131520000Y-61222003D01*
X140741400Y-61222003D01*
X140741400Y-62837998D01*
X140828351Y-63275125D01*
X141159571Y-63770830D01*
X141655276Y-64102050D01*
X142240000Y-64218359D01*
X142824725Y-64102050D01*
X143320430Y-63770830D01*
X143651650Y-63275125D01*
X143738600Y-62837998D01*
X143738600Y-61222003D01*
X158521400Y-61222003D01*
X158521400Y-62837998D01*
X158608351Y-63275125D01*
X158939571Y-63770830D01*
X159435276Y-64102050D01*
X160020000Y-64218359D01*
X160604725Y-64102050D01*
X161100430Y-63770830D01*
X161431650Y-63275125D01*
X161518600Y-62837998D01*
X161518600Y-61422003D01*
X178206400Y-61422003D01*
X178206400Y-63037998D01*
X178293351Y-63475125D01*
X178624571Y-63970830D01*
X179120276Y-64302050D01*
X179705000Y-64418359D01*
X180289725Y-64302050D01*
X180785430Y-63970830D01*
X181116650Y-63475125D01*
X181203600Y-63037998D01*
X181203600Y-61422003D01*
X197891400Y-61422003D01*
X197891400Y-63037998D01*
X197978351Y-63475125D01*
X198309571Y-63970830D01*
X198805276Y-64302050D01*
X199390000Y-64418359D01*
X199974725Y-64302050D01*
X200470430Y-63970830D01*
X200801650Y-63475125D01*
X200888600Y-63037998D01*
X200888600Y-61422003D01*
X217576400Y-61422003D01*
X217576400Y-63037998D01*
X217663351Y-63475125D01*
X217994571Y-63970830D01*
X218490276Y-64302050D01*
X219075000Y-64418359D01*
X219659725Y-64302050D01*
X220155430Y-63970830D01*
X220486650Y-63475125D01*
X220573600Y-63037998D01*
X220573600Y-61422002D01*
X220486650Y-60984875D01*
X220155430Y-60489170D01*
X219659724Y-60157950D01*
X219075000Y-60041641D01*
X218490275Y-60157950D01*
X217994570Y-60489170D01*
X217663350Y-60984876D01*
X217576400Y-61422003D01*
X200888600Y-61422003D01*
X200888600Y-61422002D01*
X200801650Y-60984875D01*
X200470430Y-60489170D01*
X199974724Y-60157950D01*
X199390000Y-60041641D01*
X198805275Y-60157950D01*
X198309570Y-60489170D01*
X197978350Y-60984876D01*
X197891400Y-61422003D01*
X181203600Y-61422003D01*
X181203600Y-61422002D01*
X181116650Y-60984875D01*
X180785430Y-60489170D01*
X180289724Y-60157950D01*
X179705000Y-60041641D01*
X179120275Y-60157950D01*
X178624570Y-60489170D01*
X178293350Y-60984876D01*
X178206400Y-61422003D01*
X161518600Y-61422003D01*
X161518600Y-61222002D01*
X161431650Y-60784875D01*
X161100430Y-60289170D01*
X160604724Y-59957950D01*
X160020000Y-59841641D01*
X159435275Y-59957950D01*
X158939570Y-60289170D01*
X158608350Y-60784876D01*
X158521400Y-61222003D01*
X143738600Y-61222003D01*
X143738600Y-61222002D01*
X143651650Y-60784875D01*
X143320430Y-60289170D01*
X142824724Y-59957950D01*
X142240000Y-59841641D01*
X141655275Y-59957950D01*
X141159570Y-60289170D01*
X140828350Y-60784876D01*
X140741400Y-61222003D01*
X131520000Y-61222003D01*
X131520000Y-60375580D01*
X131574985Y-59991636D01*
X131714372Y-59685072D01*
X131934199Y-59429950D01*
X132216792Y-59246782D01*
X132562959Y-59143257D01*
X132741350Y-59130000D01*
X222199420Y-59130000D01*
X222583364Y-59184985D01*
X222583364Y-59184985D01*
G37*
X222583364Y-59184985D02*
X222889928Y-59324372D01*
X223145050Y-59544199D01*
X223328218Y-59826792D01*
X223431743Y-60172959D01*
X223445191Y-60353920D01*
X224028445Y-140843000D01*
X126492000Y-140843000D01*
X126492000Y-133072517D01*
X134495000Y-133072517D01*
X134495000Y-133627483D01*
X134707376Y-134140204D01*
X135099796Y-134532624D01*
X135310740Y-134620000D01*
X135099796Y-134707376D01*
X134707376Y-135099796D01*
X134495000Y-135612517D01*
X134495000Y-136167483D01*
X134707376Y-136680204D01*
X135099796Y-137072624D01*
X135612517Y-137285000D01*
X136167483Y-137285000D01*
X136680204Y-137072624D01*
X137072624Y-136680204D01*
X137160000Y-136469260D01*
X137247376Y-136680204D01*
X137639796Y-137072624D01*
X138152517Y-137285000D01*
X138707483Y-137285000D01*
X139220204Y-137072624D01*
X139612624Y-136680204D01*
X139700000Y-136469260D01*
X139787376Y-136680204D01*
X140179796Y-137072624D01*
X140692517Y-137285000D01*
X141247483Y-137285000D01*
X141760204Y-137072624D01*
X142152624Y-136680204D01*
X142240000Y-136469260D01*
X142327376Y-136680204D01*
X142719796Y-137072624D01*
X143232517Y-137285000D01*
X143787483Y-137285000D01*
X144300204Y-137072624D01*
X144692624Y-136680204D01*
X144780000Y-136469260D01*
X144867376Y-136680204D01*
X145259796Y-137072624D01*
X145772517Y-137285000D01*
X146327483Y-137285000D01*
X146840204Y-137072624D01*
X147232624Y-136680204D01*
X147320000Y-136469260D01*
X147407376Y-136680204D01*
X147799796Y-137072624D01*
X148312517Y-137285000D01*
X148867483Y-137285000D01*
X149380204Y-137072624D01*
X149772624Y-136680204D01*
X149860000Y-136469260D01*
X149947376Y-136680204D01*
X150339796Y-137072624D01*
X150852517Y-137285000D01*
X151407483Y-137285000D01*
X151920204Y-137072624D01*
X152312624Y-136680204D01*
X152400000Y-136469260D01*
X152487376Y-136680204D01*
X152879796Y-137072624D01*
X153392517Y-137285000D01*
X153947483Y-137285000D01*
X154460204Y-137072624D01*
X154852624Y-136680204D01*
X154940000Y-136469260D01*
X155027376Y-136680204D01*
X155419796Y-137072624D01*
X155932517Y-137285000D01*
X156487483Y-137285000D01*
X157000204Y-137072624D01*
X157392624Y-136680204D01*
X157480000Y-136469260D01*
X157567376Y-136680204D01*
X157959796Y-137072624D01*
X158472517Y-137285000D01*
X159027483Y-137285000D01*
X159540204Y-137072624D01*
X159932624Y-136680204D01*
X160145000Y-136167483D01*
X160145000Y-135612517D01*
X159932624Y-135099796D01*
X159540204Y-134707376D01*
X159329260Y-134620000D01*
X159540204Y-134532624D01*
X159932624Y-134140204D01*
X160145000Y-133627483D01*
X160145000Y-133072517D01*
X197995000Y-133072517D01*
X197995000Y-133627483D01*
X198207376Y-134140204D01*
X198599796Y-134532624D01*
X198810740Y-134620000D01*
X198599796Y-134707376D01*
X198207376Y-135099796D01*
X197995000Y-135612517D01*
X197995000Y-136167483D01*
X198207376Y-136680204D01*
X198599796Y-137072624D01*
X199112517Y-137285000D01*
X199667483Y-137285000D01*
X200180204Y-137072624D01*
X200572624Y-136680204D01*
X200660000Y-136469260D01*
X200747376Y-136680204D01*
X201139796Y-137072624D01*
X201652517Y-137285000D01*
X202207483Y-137285000D01*
X202720204Y-137072624D01*
X203112624Y-136680204D01*
X203200000Y-136469260D01*
X203287376Y-136680204D01*
X203679796Y-137072624D01*
X204192517Y-137285000D01*
X204747483Y-137285000D01*
X205260204Y-137072624D01*
X205652624Y-136680204D01*
X205740000Y-136469260D01*
X205827376Y-136680204D01*
X206219796Y-137072624D01*
X206732517Y-137285000D01*
X207287483Y-137285000D01*
X207800204Y-137072624D01*
X208192624Y-136680204D01*
X208280000Y-136469260D01*
X208367376Y-136680204D01*
X208759796Y-137072624D01*
X209272517Y-137285000D01*
X209827483Y-137285000D01*
X210340204Y-137072624D01*
X210732624Y-136680204D01*
X210820000Y-136469260D01*
X210907376Y-136680204D01*
X211299796Y-137072624D01*
X211812517Y-137285000D01*
X212367483Y-137285000D01*
X212880204Y-137072624D01*
X213272624Y-136680204D01*
X213360000Y-136469260D01*
X213447376Y-136680204D01*
X213839796Y-137072624D01*
X214352517Y-137285000D01*
X214907483Y-137285000D01*
X215420204Y-137072624D01*
X215812624Y-136680204D01*
X215900000Y-136469260D01*
X215987376Y-136680204D01*
X216379796Y-137072624D01*
X216892517Y-137285000D01*
X217447483Y-137285000D01*
X217960204Y-137072624D01*
X218352624Y-136680204D01*
X218440000Y-136469260D01*
X218527376Y-136680204D01*
X218919796Y-137072624D01*
X219432517Y-137285000D01*
X219987483Y-137285000D01*
X220500204Y-137072624D01*
X220892624Y-136680204D01*
X221105000Y-136167483D01*
X221105000Y-135612517D01*
X220892624Y-135099796D01*
X220500204Y-134707376D01*
X220289260Y-134620000D01*
X220500204Y-134532624D01*
X220892624Y-134140204D01*
X220980000Y-133929260D01*
X221067376Y-134140204D01*
X221459796Y-134532624D01*
X221972517Y-134745000D01*
X222527483Y-134745000D01*
X223040204Y-134532624D01*
X223432624Y-134140204D01*
X223645000Y-133627483D01*
X223645000Y-133072517D01*
X223432624Y-132559796D01*
X223040204Y-132167376D01*
X222527483Y-131955000D01*
X221972517Y-131955000D01*
X221459796Y-132167376D01*
X221067376Y-132559796D01*
X220980000Y-132770740D01*
X220892624Y-132559796D01*
X220500204Y-132167376D01*
X219987483Y-131955000D01*
X219432517Y-131955000D01*
X218919796Y-132167376D01*
X218527376Y-132559796D01*
X218440000Y-132770740D01*
X218352624Y-132559796D01*
X217960204Y-132167376D01*
X217447483Y-131955000D01*
X216892517Y-131955000D01*
X216379796Y-132167376D01*
X215987376Y-132559796D01*
X215900000Y-132770740D01*
X215812624Y-132559796D01*
X215420204Y-132167376D01*
X214907483Y-131955000D01*
X214352517Y-131955000D01*
X213839796Y-132167376D01*
X213447376Y-132559796D01*
X213360000Y-132770740D01*
X213272624Y-132559796D01*
X212880204Y-132167376D01*
X212367483Y-131955000D01*
X211812517Y-131955000D01*
X211299796Y-132167376D01*
X210907376Y-132559796D01*
X210820000Y-132770740D01*
X210732624Y-132559796D01*
X210340204Y-132167376D01*
X209827483Y-131955000D01*
X209272517Y-131955000D01*
X208759796Y-132167376D01*
X208367376Y-132559796D01*
X208280000Y-132770740D01*
X208192624Y-132559796D01*
X207800204Y-132167376D01*
X207287483Y-131955000D01*
X206732517Y-131955000D01*
X206219796Y-132167376D01*
X205827376Y-132559796D01*
X205740000Y-132770740D01*
X205652624Y-132559796D01*
X205260204Y-132167376D01*
X204747483Y-131955000D01*
X204192517Y-131955000D01*
X203679796Y-132167376D01*
X203287376Y-132559796D01*
X203200000Y-132770740D01*
X203112624Y-132559796D01*
X202720204Y-132167376D01*
X202207483Y-131955000D01*
X201652517Y-131955000D01*
X201139796Y-132167376D01*
X200747376Y-132559796D01*
X200660000Y-132770740D01*
X200572624Y-132559796D01*
X200180204Y-132167376D01*
X199667483Y-131955000D01*
X199112517Y-131955000D01*
X198599796Y-132167376D01*
X198207376Y-132559796D01*
X197995000Y-133072517D01*
X160145000Y-133072517D01*
X159932624Y-132559796D01*
X159540204Y-132167376D01*
X159027483Y-131955000D01*
X158472517Y-131955000D01*
X157959796Y-132167376D01*
X157567376Y-132559796D01*
X157480000Y-132770740D01*
X157392624Y-132559796D01*
X157000204Y-132167376D01*
X156487483Y-131955000D01*
X155932517Y-131955000D01*
X155419796Y-132167376D01*
X155027376Y-132559796D01*
X154940000Y-132770740D01*
X154852624Y-132559796D01*
X154460204Y-132167376D01*
X153947483Y-131955000D01*
X153392517Y-131955000D01*
X152879796Y-132167376D01*
X152487376Y-132559796D01*
X152400000Y-132770740D01*
X152312624Y-132559796D01*
X151920204Y-132167376D01*
X151407483Y-131955000D01*
X150852517Y-131955000D01*
X150339796Y-132167376D01*
X149947376Y-132559796D01*
X149860000Y-132770740D01*
X149772624Y-132559796D01*
X149380204Y-132167376D01*
X148867483Y-131955000D01*
X148312517Y-131955000D01*
X147799796Y-132167376D01*
X147407376Y-132559796D01*
X147320000Y-132770740D01*
X147232624Y-132559796D01*
X146840204Y-132167376D01*
X146327483Y-131955000D01*
X145772517Y-131955000D01*
X145259796Y-132167376D01*
X144867376Y-132559796D01*
X144780000Y-132770740D01*
X144692624Y-132559796D01*
X144300204Y-132167376D01*
X143787483Y-131955000D01*
X143232517Y-131955000D01*
X142719796Y-132167376D01*
X142327376Y-132559796D01*
X142240000Y-132770740D01*
X142152624Y-132559796D01*
X141760204Y-132167376D01*
X141247483Y-131955000D01*
X140692517Y-131955000D01*
X140179796Y-132167376D01*
X139787376Y-132559796D01*
X139700000Y-132770740D01*
X139612624Y-132559796D01*
X139220204Y-132167376D01*
X138707483Y-131955000D01*
X138152517Y-131955000D01*
X137639796Y-132167376D01*
X137247376Y-132559796D01*
X137160000Y-132770740D01*
X137072624Y-132559796D01*
X136680204Y-132167376D01*
X136167483Y-131955000D01*
X135612517Y-131955000D01*
X135099796Y-132167376D01*
X134707376Y-132559796D01*
X134495000Y-133072517D01*
X126492000Y-133072517D01*
X126492000Y-110752003D01*
X140661400Y-110752003D01*
X140661400Y-112367998D01*
X140748351Y-112805125D01*
X141079571Y-113300830D01*
X141575276Y-113632050D01*
X142160000Y-113748359D01*
X142744725Y-113632050D01*
X143240430Y-113300830D01*
X143571650Y-112805125D01*
X143658600Y-112367998D01*
X143658600Y-110752003D01*
X158441400Y-110752003D01*
X158441400Y-112367998D01*
X158528351Y-112805125D01*
X158859571Y-113300830D01*
X159355276Y-113632050D01*
X159940000Y-113748359D01*
X160524725Y-113632050D01*
X161020430Y-113300830D01*
X161351650Y-112805125D01*
X161438600Y-112367998D01*
X161438600Y-110752003D01*
X178206400Y-110752003D01*
X178206400Y-112367998D01*
X178293351Y-112805125D01*
X178624571Y-113300830D01*
X179120276Y-113632050D01*
X179705000Y-113748359D01*
X180289725Y-113632050D01*
X180785430Y-113300830D01*
X181116650Y-112805125D01*
X181203600Y-112367998D01*
X181203600Y-110752003D01*
X197891400Y-110752003D01*
X197891400Y-112367998D01*
X197978351Y-112805125D01*
X198309571Y-113300830D01*
X198805276Y-113632050D01*
X199390000Y-113748359D01*
X199974725Y-113632050D01*
X200470430Y-113300830D01*
X200801650Y-112805125D01*
X200888600Y-112367998D01*
X200888600Y-110952003D01*
X217496400Y-110952003D01*
X217496400Y-112567998D01*
X217583351Y-113005125D01*
X217914571Y-113500830D01*
X218410276Y-113832050D01*
X218995000Y-113948359D01*
X219579725Y-113832050D01*
X220075430Y-113500830D01*
X220406650Y-113005125D01*
X220493600Y-112567998D01*
X220493600Y-110952002D01*
X220406650Y-110514875D01*
X220075430Y-110019170D01*
X219579724Y-109687950D01*
X218995000Y-109571641D01*
X218410275Y-109687950D01*
X217914570Y-110019170D01*
X217583350Y-110514876D01*
X217496400Y-110952003D01*
X200888600Y-110952003D01*
X200888600Y-110752002D01*
X200801650Y-110314875D01*
X200470430Y-109819170D01*
X199974724Y-109487950D01*
X199390000Y-109371641D01*
X198805275Y-109487950D01*
X198309570Y-109819170D01*
X197978350Y-110314876D01*
X197891400Y-110752003D01*
X181203600Y-110752003D01*
X181203600Y-110752002D01*
X181116650Y-110314875D01*
X180785430Y-109819170D01*
X180289724Y-109487950D01*
X179705000Y-109371641D01*
X179120275Y-109487950D01*
X178624570Y-109819170D01*
X178293350Y-110314876D01*
X178206400Y-110752003D01*
X161438600Y-110752003D01*
X161438600Y-110752002D01*
X161351650Y-110314875D01*
X161020430Y-109819170D01*
X160524724Y-109487950D01*
X159940000Y-109371641D01*
X159355275Y-109487950D01*
X158859570Y-109819170D01*
X158528350Y-110314876D01*
X158441400Y-110752003D01*
X143658600Y-110752003D01*
X143658600Y-110752002D01*
X143571650Y-110314875D01*
X143240430Y-109819170D01*
X142744724Y-109487950D01*
X142160000Y-109371641D01*
X141575275Y-109487950D01*
X141079570Y-109819170D01*
X140748350Y-110314876D01*
X140661400Y-110752003D01*
X126492000Y-110752003D01*
X126492000Y-101600000D01*
X126482333Y-101551399D01*
X126454803Y-101510197D01*
X126413601Y-101482667D01*
X126365000Y-101473000D01*
X109982000Y-101473000D01*
X109982000Y-98252003D01*
X140661400Y-98252003D01*
X140661400Y-99867998D01*
X140748351Y-100305125D01*
X141079571Y-100800830D01*
X141575276Y-101132050D01*
X142160000Y-101248359D01*
X142744725Y-101132050D01*
X143240430Y-100800830D01*
X143571650Y-100305125D01*
X143658600Y-99867998D01*
X143658600Y-98252003D01*
X158441400Y-98252003D01*
X158441400Y-99867998D01*
X158528351Y-100305125D01*
X158859571Y-100800830D01*
X159355276Y-101132050D01*
X159940000Y-101248359D01*
X160524725Y-101132050D01*
X161020430Y-100800830D01*
X161351650Y-100305125D01*
X161438600Y-99867998D01*
X161438600Y-98252003D01*
X178206400Y-98252003D01*
X178206400Y-99867998D01*
X178293351Y-100305125D01*
X178624571Y-100800830D01*
X179120276Y-101132050D01*
X179705000Y-101248359D01*
X180289725Y-101132050D01*
X180785430Y-100800830D01*
X181116650Y-100305125D01*
X181203600Y-99867998D01*
X181203600Y-98252003D01*
X197891400Y-98252003D01*
X197891400Y-99867998D01*
X197978351Y-100305125D01*
X198309571Y-100800830D01*
X198805276Y-101132050D01*
X199390000Y-101248359D01*
X199974725Y-101132050D01*
X200470430Y-100800830D01*
X200801650Y-100305125D01*
X200888600Y-99867998D01*
X200888600Y-98452003D01*
X217496400Y-98452003D01*
X217496400Y-100067998D01*
X217583351Y-100505125D01*
X217914571Y-101000830D01*
X218410276Y-101332050D01*
X218995000Y-101448359D01*
X219579725Y-101332050D01*
X220075430Y-101000830D01*
X220406650Y-100505125D01*
X220493600Y-100067998D01*
X220493600Y-98452002D01*
X220406650Y-98014875D01*
X220075430Y-97519170D01*
X219579724Y-97187950D01*
X218995000Y-97071641D01*
X218410275Y-97187950D01*
X217914570Y-97519170D01*
X217583350Y-98014876D01*
X217496400Y-98452003D01*
X200888600Y-98452003D01*
X200888600Y-98252002D01*
X200801650Y-97814875D01*
X200470430Y-97319170D01*
X199974724Y-96987950D01*
X199390000Y-96871641D01*
X198805275Y-96987950D01*
X198309570Y-97319170D01*
X197978350Y-97814876D01*
X197891400Y-98252003D01*
X181203600Y-98252003D01*
X181203600Y-98252002D01*
X181116650Y-97814875D01*
X180785430Y-97319170D01*
X180289724Y-96987950D01*
X179705000Y-96871641D01*
X179120275Y-96987950D01*
X178624570Y-97319170D01*
X178293350Y-97814876D01*
X178206400Y-98252003D01*
X161438600Y-98252003D01*
X161438600Y-98252002D01*
X161351650Y-97814875D01*
X161020430Y-97319170D01*
X160524724Y-96987950D01*
X159940000Y-96871641D01*
X159355275Y-96987950D01*
X158859570Y-97319170D01*
X158528350Y-97814876D01*
X158441400Y-98252003D01*
X143658600Y-98252003D01*
X143658600Y-98252002D01*
X143571650Y-97814875D01*
X143240430Y-97319170D01*
X142744724Y-96987950D01*
X142160000Y-96871641D01*
X141575275Y-96987950D01*
X141079570Y-97319170D01*
X140748350Y-97814876D01*
X140661400Y-98252003D01*
X109982000Y-98252003D01*
X109982000Y-89892517D01*
X134495000Y-89892517D01*
X134495000Y-90447483D01*
X134707376Y-90960204D01*
X135099796Y-91352624D01*
X135310740Y-91440000D01*
X135099796Y-91527376D01*
X134707376Y-91919796D01*
X134495000Y-92432517D01*
X134495000Y-92987483D01*
X134707376Y-93500204D01*
X135099796Y-93892624D01*
X135612517Y-94105000D01*
X136167483Y-94105000D01*
X136680204Y-93892624D01*
X137072624Y-93500204D01*
X137160000Y-93289260D01*
X137247376Y-93500204D01*
X137639796Y-93892624D01*
X138152517Y-94105000D01*
X138707483Y-94105000D01*
X139220204Y-93892624D01*
X139612624Y-93500204D01*
X139700000Y-93289260D01*
X139787376Y-93500204D01*
X140179796Y-93892624D01*
X140692517Y-94105000D01*
X141247483Y-94105000D01*
X141760204Y-93892624D01*
X142152624Y-93500204D01*
X142240000Y-93289260D01*
X142327376Y-93500204D01*
X142719796Y-93892624D01*
X143232517Y-94105000D01*
X143787483Y-94105000D01*
X144300204Y-93892624D01*
X144692624Y-93500204D01*
X144780000Y-93289260D01*
X144867376Y-93500204D01*
X145259796Y-93892624D01*
X145772517Y-94105000D01*
X146327483Y-94105000D01*
X146840204Y-93892624D01*
X147232624Y-93500204D01*
X147320000Y-93289260D01*
X147407376Y-93500204D01*
X147799796Y-93892624D01*
X148312517Y-94105000D01*
X148867483Y-94105000D01*
X149380204Y-93892624D01*
X149772624Y-93500204D01*
X149860000Y-93289260D01*
X149947376Y-93500204D01*
X150339796Y-93892624D01*
X150852517Y-94105000D01*
X151407483Y-94105000D01*
X151920204Y-93892624D01*
X152312624Y-93500204D01*
X152400000Y-93289260D01*
X152487376Y-93500204D01*
X152879796Y-93892624D01*
X153392517Y-94105000D01*
X153947483Y-94105000D01*
X154460204Y-93892624D01*
X154852624Y-93500204D01*
X154940000Y-93289260D01*
X155027376Y-93500204D01*
X155419796Y-93892624D01*
X155932517Y-94105000D01*
X156487483Y-94105000D01*
X157000204Y-93892624D01*
X157392624Y-93500204D01*
X157480000Y-93289260D01*
X157567376Y-93500204D01*
X157959796Y-93892624D01*
X158472517Y-94105000D01*
X159027483Y-94105000D01*
X159540204Y-93892624D01*
X159932624Y-93500204D01*
X160145000Y-92987483D01*
X160145000Y-92432517D01*
X159932624Y-91919796D01*
X159540204Y-91527376D01*
X159329260Y-91440000D01*
X159540204Y-91352624D01*
X159932624Y-90960204D01*
X160145000Y-90447483D01*
X160145000Y-89892517D01*
X197995000Y-89892517D01*
X197995000Y-90447483D01*
X198207376Y-90960204D01*
X198599796Y-91352624D01*
X198810740Y-91440000D01*
X198599796Y-91527376D01*
X198207376Y-91919796D01*
X197995000Y-92432517D01*
X197995000Y-92987483D01*
X198207376Y-93500204D01*
X198599796Y-93892624D01*
X199112517Y-94105000D01*
X199667483Y-94105000D01*
X200180204Y-93892624D01*
X200572624Y-93500204D01*
X200660000Y-93289260D01*
X200747376Y-93500204D01*
X201139796Y-93892624D01*
X201652517Y-94105000D01*
X202207483Y-94105000D01*
X202720204Y-93892624D01*
X203112624Y-93500204D01*
X203200000Y-93289260D01*
X203287376Y-93500204D01*
X203679796Y-93892624D01*
X204192517Y-94105000D01*
X204747483Y-94105000D01*
X205260204Y-93892624D01*
X205652624Y-93500204D01*
X205740000Y-93289260D01*
X205827376Y-93500204D01*
X206219796Y-93892624D01*
X206732517Y-94105000D01*
X207287483Y-94105000D01*
X207800204Y-93892624D01*
X208192624Y-93500204D01*
X208280000Y-93289260D01*
X208367376Y-93500204D01*
X208759796Y-93892624D01*
X209272517Y-94105000D01*
X209827483Y-94105000D01*
X210340204Y-93892624D01*
X210732624Y-93500204D01*
X210820000Y-93289260D01*
X210907376Y-93500204D01*
X211299796Y-93892624D01*
X211812517Y-94105000D01*
X212367483Y-94105000D01*
X212880204Y-93892624D01*
X213272624Y-93500204D01*
X213360000Y-93289260D01*
X213447376Y-93500204D01*
X213839796Y-93892624D01*
X214352517Y-94105000D01*
X214907483Y-94105000D01*
X215420204Y-93892624D01*
X215812624Y-93500204D01*
X215900000Y-93289260D01*
X215987376Y-93500204D01*
X216379796Y-93892624D01*
X216892517Y-94105000D01*
X217447483Y-94105000D01*
X217960204Y-93892624D01*
X218352624Y-93500204D01*
X218440000Y-93289260D01*
X218527376Y-93500204D01*
X218919796Y-93892624D01*
X219432517Y-94105000D01*
X219987483Y-94105000D01*
X220500204Y-93892624D01*
X220892624Y-93500204D01*
X220980000Y-93289260D01*
X221067376Y-93500204D01*
X221459796Y-93892624D01*
X221972517Y-94105000D01*
X222527483Y-94105000D01*
X223040204Y-93892624D01*
X223432624Y-93500204D01*
X223645000Y-92987483D01*
X223645000Y-92432517D01*
X223432624Y-91919796D01*
X223040204Y-91527376D01*
X222829260Y-91440000D01*
X223040204Y-91352624D01*
X223432624Y-90960204D01*
X223645000Y-90447483D01*
X223645000Y-89892517D01*
X223432624Y-89379796D01*
X223040204Y-88987376D01*
X222527483Y-88775000D01*
X221972517Y-88775000D01*
X221459796Y-88987376D01*
X221067376Y-89379796D01*
X220980000Y-89590740D01*
X220892624Y-89379796D01*
X220500204Y-88987376D01*
X219987483Y-88775000D01*
X219432517Y-88775000D01*
X218919796Y-88987376D01*
X218527376Y-89379796D01*
X218440000Y-89590740D01*
X218352624Y-89379796D01*
X217960204Y-88987376D01*
X217447483Y-88775000D01*
X216892517Y-88775000D01*
X216379796Y-88987376D01*
X215987376Y-89379796D01*
X215900000Y-89590740D01*
X215812624Y-89379796D01*
X215420204Y-88987376D01*
X214907483Y-88775000D01*
X214352517Y-88775000D01*
X213839796Y-88987376D01*
X213447376Y-89379796D01*
X213360000Y-89590740D01*
X213272624Y-89379796D01*
X212880204Y-88987376D01*
X212367483Y-88775000D01*
X211812517Y-88775000D01*
X211299796Y-88987376D01*
X210907376Y-89379796D01*
X210820000Y-89590740D01*
X210732624Y-89379796D01*
X210340204Y-88987376D01*
X209827483Y-88775000D01*
X209272517Y-88775000D01*
X208759796Y-88987376D01*
X208367376Y-89379796D01*
X208280000Y-89590740D01*
X208192624Y-89379796D01*
X207800204Y-88987376D01*
X207287483Y-88775000D01*
X206732517Y-88775000D01*
X206219796Y-88987376D01*
X205827376Y-89379796D01*
X205740000Y-89590740D01*
X205652624Y-89379796D01*
X205260204Y-88987376D01*
X204747483Y-88775000D01*
X204192517Y-88775000D01*
X203679796Y-88987376D01*
X203287376Y-89379796D01*
X203200000Y-89590740D01*
X203112624Y-89379796D01*
X202720204Y-88987376D01*
X202207483Y-88775000D01*
X201652517Y-88775000D01*
X201139796Y-88987376D01*
X200747376Y-89379796D01*
X200660000Y-89590740D01*
X200572624Y-89379796D01*
X200180204Y-88987376D01*
X199667483Y-88775000D01*
X199112517Y-88775000D01*
X198599796Y-88987376D01*
X198207376Y-89379796D01*
X197995000Y-89892517D01*
X160145000Y-89892517D01*
X159932624Y-89379796D01*
X159540204Y-88987376D01*
X159027483Y-88775000D01*
X158472517Y-88775000D01*
X157959796Y-88987376D01*
X157567376Y-89379796D01*
X157480000Y-89590740D01*
X157392624Y-89379796D01*
X157000204Y-88987376D01*
X156487483Y-88775000D01*
X155932517Y-88775000D01*
X155419796Y-88987376D01*
X155027376Y-89379796D01*
X154940000Y-89590740D01*
X154852624Y-89379796D01*
X154460204Y-88987376D01*
X153947483Y-88775000D01*
X153392517Y-88775000D01*
X152879796Y-88987376D01*
X152487376Y-89379796D01*
X152400000Y-89590740D01*
X152312624Y-89379796D01*
X151920204Y-88987376D01*
X151407483Y-88775000D01*
X150852517Y-88775000D01*
X150339796Y-88987376D01*
X149947376Y-89379796D01*
X149860000Y-89590740D01*
X149772624Y-89379796D01*
X149380204Y-88987376D01*
X148867483Y-88775000D01*
X148312517Y-88775000D01*
X147799796Y-88987376D01*
X147407376Y-89379796D01*
X147320000Y-89590740D01*
X147232624Y-89379796D01*
X146840204Y-88987376D01*
X146327483Y-88775000D01*
X145772517Y-88775000D01*
X145259796Y-88987376D01*
X144867376Y-89379796D01*
X144780000Y-89590740D01*
X144692624Y-89379796D01*
X144300204Y-88987376D01*
X143787483Y-88775000D01*
X143232517Y-88775000D01*
X142719796Y-88987376D01*
X142327376Y-89379796D01*
X142240000Y-89590740D01*
X142152624Y-89379796D01*
X141760204Y-88987376D01*
X141247483Y-88775000D01*
X140692517Y-88775000D01*
X140179796Y-88987376D01*
X139787376Y-89379796D01*
X139700000Y-89590740D01*
X139612624Y-89379796D01*
X139220204Y-88987376D01*
X138707483Y-88775000D01*
X138152517Y-88775000D01*
X137639796Y-88987376D01*
X137247376Y-89379796D01*
X137160000Y-89590740D01*
X137072624Y-89379796D01*
X136680204Y-88987376D01*
X136167483Y-88775000D01*
X135612517Y-88775000D01*
X135099796Y-88987376D01*
X134707376Y-89379796D01*
X134495000Y-89892517D01*
X109982000Y-89892517D01*
X109982000Y-81990000D01*
X128974926Y-81990000D01*
X129000915Y-81984830D01*
X129239194Y-81967123D01*
X129309937Y-81951569D01*
X129381684Y-81941741D01*
X129390009Y-81939307D01*
X129907489Y-81784548D01*
X129995021Y-81744102D01*
X130082922Y-81704783D01*
X130090224Y-81700113D01*
X130090230Y-81700110D01*
X130090234Y-81700106D01*
X130543474Y-81406331D01*
X130616089Y-81342985D01*
X130689469Y-81280534D01*
X130695167Y-81274001D01*
X130695171Y-81273998D01*
X130695173Y-81273994D01*
X131047743Y-80864818D01*
X131099669Y-80783623D01*
X131152563Y-80703100D01*
X131156201Y-80695226D01*
X131379758Y-80203538D01*
X131406805Y-80111044D01*
X131434976Y-80018902D01*
X131436258Y-80010323D01*
X131510106Y-79494666D01*
X131520000Y-79444926D01*
X131520000Y-73722003D01*
X140741400Y-73722003D01*
X140741400Y-75337998D01*
X140828351Y-75775125D01*
X141159571Y-76270830D01*
X141655276Y-76602050D01*
X142240000Y-76718359D01*
X142824725Y-76602050D01*
X143320430Y-76270830D01*
X143651650Y-75775125D01*
X143738600Y-75337998D01*
X143738600Y-73722003D01*
X158521400Y-73722003D01*
X158521400Y-75337998D01*
X158608351Y-75775125D01*
X158939571Y-76270830D01*
X159435276Y-76602050D01*
X160020000Y-76718359D01*
X160604725Y-76602050D01*
X161100430Y-76270830D01*
X161431650Y-75775125D01*
X161518600Y-75337998D01*
X161518600Y-73922003D01*
X178206400Y-73922003D01*
X178206400Y-75537998D01*
X178293351Y-75975125D01*
X178624571Y-76470830D01*
X179120276Y-76802050D01*
X179705000Y-76918359D01*
X180289725Y-76802050D01*
X180785430Y-76470830D01*
X181116650Y-75975125D01*
X181203600Y-75537998D01*
X181203600Y-73922003D01*
X197891400Y-73922003D01*
X197891400Y-75537998D01*
X197978351Y-75975125D01*
X198309571Y-76470830D01*
X198805276Y-76802050D01*
X199390000Y-76918359D01*
X199974725Y-76802050D01*
X200470430Y-76470830D01*
X200801650Y-75975125D01*
X200888600Y-75537998D01*
X200888600Y-73922003D01*
X217576400Y-73922003D01*
X217576400Y-75537998D01*
X217663351Y-75975125D01*
X217994571Y-76470830D01*
X218490276Y-76802050D01*
X219075000Y-76918359D01*
X219659725Y-76802050D01*
X220155430Y-76470830D01*
X220486650Y-75975125D01*
X220573600Y-75537998D01*
X220573600Y-73922002D01*
X220486650Y-73484875D01*
X220155430Y-72989170D01*
X219659724Y-72657950D01*
X219075000Y-72541641D01*
X218490275Y-72657950D01*
X217994570Y-72989170D01*
X217663350Y-73484876D01*
X217576400Y-73922003D01*
X200888600Y-73922003D01*
X200888600Y-73922002D01*
X200801650Y-73484875D01*
X200470430Y-72989170D01*
X199974724Y-72657950D01*
X199390000Y-72541641D01*
X198805275Y-72657950D01*
X198309570Y-72989170D01*
X197978350Y-73484876D01*
X197891400Y-73922003D01*
X181203600Y-73922003D01*
X181203600Y-73922002D01*
X181116650Y-73484875D01*
X180785430Y-72989170D01*
X180289724Y-72657950D01*
X179705000Y-72541641D01*
X179120275Y-72657950D01*
X178624570Y-72989170D01*
X178293350Y-73484876D01*
X178206400Y-73922003D01*
X161518600Y-73922003D01*
X161518600Y-73722002D01*
X161431650Y-73284875D01*
X161100430Y-72789170D01*
X160604724Y-72457950D01*
X160020000Y-72341641D01*
X159435275Y-72457950D01*
X158939570Y-72789170D01*
X158608350Y-73284876D01*
X158521400Y-73722003D01*
X143738600Y-73722003D01*
X143738600Y-73722002D01*
X143651650Y-73284875D01*
X143320430Y-72789170D01*
X142824724Y-72457950D01*
X142240000Y-72341641D01*
X141655275Y-72457950D01*
X141159570Y-72789170D01*
X140828350Y-73284876D01*
X140741400Y-73722003D01*
X131520000Y-73722003D01*
X131520000Y-61222003D01*
X140741400Y-61222003D01*
X140741400Y-62837998D01*
X140828351Y-63275125D01*
X141159571Y-63770830D01*
X141655276Y-64102050D01*
X142240000Y-64218359D01*
X142824725Y-64102050D01*
X143320430Y-63770830D01*
X143651650Y-63275125D01*
X143738600Y-62837998D01*
X143738600Y-61222003D01*
X158521400Y-61222003D01*
X158521400Y-62837998D01*
X158608351Y-63275125D01*
X158939571Y-63770830D01*
X159435276Y-64102050D01*
X160020000Y-64218359D01*
X160604725Y-64102050D01*
X161100430Y-63770830D01*
X161431650Y-63275125D01*
X161518600Y-62837998D01*
X161518600Y-61422003D01*
X178206400Y-61422003D01*
X178206400Y-63037998D01*
X178293351Y-63475125D01*
X178624571Y-63970830D01*
X179120276Y-64302050D01*
X179705000Y-64418359D01*
X180289725Y-64302050D01*
X180785430Y-63970830D01*
X181116650Y-63475125D01*
X181203600Y-63037998D01*
X181203600Y-61422003D01*
X197891400Y-61422003D01*
X197891400Y-63037998D01*
X197978351Y-63475125D01*
X198309571Y-63970830D01*
X198805276Y-64302050D01*
X199390000Y-64418359D01*
X199974725Y-64302050D01*
X200470430Y-63970830D01*
X200801650Y-63475125D01*
X200888600Y-63037998D01*
X200888600Y-61422003D01*
X217576400Y-61422003D01*
X217576400Y-63037998D01*
X217663351Y-63475125D01*
X217994571Y-63970830D01*
X218490276Y-64302050D01*
X219075000Y-64418359D01*
X219659725Y-64302050D01*
X220155430Y-63970830D01*
X220486650Y-63475125D01*
X220573600Y-63037998D01*
X220573600Y-61422002D01*
X220486650Y-60984875D01*
X220155430Y-60489170D01*
X219659724Y-60157950D01*
X219075000Y-60041641D01*
X218490275Y-60157950D01*
X217994570Y-60489170D01*
X217663350Y-60984876D01*
X217576400Y-61422003D01*
X200888600Y-61422003D01*
X200888600Y-61422002D01*
X200801650Y-60984875D01*
X200470430Y-60489170D01*
X199974724Y-60157950D01*
X199390000Y-60041641D01*
X198805275Y-60157950D01*
X198309570Y-60489170D01*
X197978350Y-60984876D01*
X197891400Y-61422003D01*
X181203600Y-61422003D01*
X181203600Y-61422002D01*
X181116650Y-60984875D01*
X180785430Y-60489170D01*
X180289724Y-60157950D01*
X179705000Y-60041641D01*
X179120275Y-60157950D01*
X178624570Y-60489170D01*
X178293350Y-60984876D01*
X178206400Y-61422003D01*
X161518600Y-61422003D01*
X161518600Y-61222002D01*
X161431650Y-60784875D01*
X161100430Y-60289170D01*
X160604724Y-59957950D01*
X160020000Y-59841641D01*
X159435275Y-59957950D01*
X158939570Y-60289170D01*
X158608350Y-60784876D01*
X158521400Y-61222003D01*
X143738600Y-61222003D01*
X143738600Y-61222002D01*
X143651650Y-60784875D01*
X143320430Y-60289170D01*
X142824724Y-59957950D01*
X142240000Y-59841641D01*
X141655275Y-59957950D01*
X141159570Y-60289170D01*
X140828350Y-60784876D01*
X140741400Y-61222003D01*
X131520000Y-61222003D01*
X131520000Y-60375580D01*
X131574985Y-59991636D01*
X131714372Y-59685072D01*
X131934199Y-59429950D01*
X132216792Y-59246782D01*
X132562959Y-59143257D01*
X132741350Y-59130000D01*
X222199420Y-59130000D01*
X222583364Y-59184985D01*
G04 #@! TD*
M02*
