G04 #@! TF.GenerationSoftware,KiCad,Pcbnew,(5.0.0)*
G04 #@! TF.CreationDate,2020-11-30T16:59:43-06:00*
G04 #@! TF.ProjectId,GiecoBoard_2021_Rev1,476965636F426F6172645F323032315F,rev?*
G04 #@! TF.SameCoordinates,Original*
G04 #@! TF.FileFunction,Soldermask,Top*
G04 #@! TF.FilePolarity,Negative*
%FSLAX46Y46*%
G04 Gerber Fmt 4.6, Leading zero omitted, Abs format (unit mm)*
G04 Created by KiCad (PCBNEW (5.0.0)) date 11/30/20 16:59:43*
%MOMM*%
%LPD*%
G01*
G04 APERTURE LIST*
%ADD10C,0.100000*%
%ADD11C,1.350000*%
%ADD12O,2.127200X3.448000*%
%ADD13C,5.480000*%
%ADD14C,1.920000*%
%ADD15C,1.924000*%
G04 APERTURE END LIST*
D10*
G04 #@! TO.C,C1*
G36*
X116145581Y-88861625D02*
X116178343Y-88866485D01*
X116210471Y-88874533D01*
X116241656Y-88885691D01*
X116271596Y-88899852D01*
X116300005Y-88916879D01*
X116326608Y-88936609D01*
X116351149Y-88958851D01*
X116373391Y-88983392D01*
X116393121Y-89009995D01*
X116410148Y-89038404D01*
X116424309Y-89068344D01*
X116435467Y-89099529D01*
X116443515Y-89131657D01*
X116448375Y-89164419D01*
X116450000Y-89197500D01*
X116450000Y-89872500D01*
X116448375Y-89905581D01*
X116443515Y-89938343D01*
X116435467Y-89970471D01*
X116424309Y-90001656D01*
X116410148Y-90031596D01*
X116393121Y-90060005D01*
X116373391Y-90086608D01*
X116351149Y-90111149D01*
X116326608Y-90133391D01*
X116300005Y-90153121D01*
X116271596Y-90170148D01*
X116241656Y-90184309D01*
X116210471Y-90195467D01*
X116178343Y-90203515D01*
X116145581Y-90208375D01*
X116112500Y-90210000D01*
X115337500Y-90210000D01*
X115304419Y-90208375D01*
X115271657Y-90203515D01*
X115239529Y-90195467D01*
X115208344Y-90184309D01*
X115178404Y-90170148D01*
X115149995Y-90153121D01*
X115123392Y-90133391D01*
X115098851Y-90111149D01*
X115076609Y-90086608D01*
X115056879Y-90060005D01*
X115039852Y-90031596D01*
X115025691Y-90001656D01*
X115014533Y-89970471D01*
X115006485Y-89938343D01*
X115001625Y-89905581D01*
X115000000Y-89872500D01*
X115000000Y-89197500D01*
X115001625Y-89164419D01*
X115006485Y-89131657D01*
X115014533Y-89099529D01*
X115025691Y-89068344D01*
X115039852Y-89038404D01*
X115056879Y-89009995D01*
X115076609Y-88983392D01*
X115098851Y-88958851D01*
X115123392Y-88936609D01*
X115149995Y-88916879D01*
X115178404Y-88899852D01*
X115208344Y-88885691D01*
X115239529Y-88874533D01*
X115271657Y-88866485D01*
X115304419Y-88861625D01*
X115337500Y-88860000D01*
X116112500Y-88860000D01*
X116145581Y-88861625D01*
X116145581Y-88861625D01*
G37*
D11*
X115725000Y-89535000D03*
D10*
G36*
X117895581Y-88861625D02*
X117928343Y-88866485D01*
X117960471Y-88874533D01*
X117991656Y-88885691D01*
X118021596Y-88899852D01*
X118050005Y-88916879D01*
X118076608Y-88936609D01*
X118101149Y-88958851D01*
X118123391Y-88983392D01*
X118143121Y-89009995D01*
X118160148Y-89038404D01*
X118174309Y-89068344D01*
X118185467Y-89099529D01*
X118193515Y-89131657D01*
X118198375Y-89164419D01*
X118200000Y-89197500D01*
X118200000Y-89872500D01*
X118198375Y-89905581D01*
X118193515Y-89938343D01*
X118185467Y-89970471D01*
X118174309Y-90001656D01*
X118160148Y-90031596D01*
X118143121Y-90060005D01*
X118123391Y-90086608D01*
X118101149Y-90111149D01*
X118076608Y-90133391D01*
X118050005Y-90153121D01*
X118021596Y-90170148D01*
X117991656Y-90184309D01*
X117960471Y-90195467D01*
X117928343Y-90203515D01*
X117895581Y-90208375D01*
X117862500Y-90210000D01*
X117087500Y-90210000D01*
X117054419Y-90208375D01*
X117021657Y-90203515D01*
X116989529Y-90195467D01*
X116958344Y-90184309D01*
X116928404Y-90170148D01*
X116899995Y-90153121D01*
X116873392Y-90133391D01*
X116848851Y-90111149D01*
X116826609Y-90086608D01*
X116806879Y-90060005D01*
X116789852Y-90031596D01*
X116775691Y-90001656D01*
X116764533Y-89970471D01*
X116756485Y-89938343D01*
X116751625Y-89905581D01*
X116750000Y-89872500D01*
X116750000Y-89197500D01*
X116751625Y-89164419D01*
X116756485Y-89131657D01*
X116764533Y-89099529D01*
X116775691Y-89068344D01*
X116789852Y-89038404D01*
X116806879Y-89009995D01*
X116826609Y-88983392D01*
X116848851Y-88958851D01*
X116873392Y-88936609D01*
X116899995Y-88916879D01*
X116928404Y-88899852D01*
X116958344Y-88885691D01*
X116989529Y-88874533D01*
X117021657Y-88866485D01*
X117054419Y-88861625D01*
X117087500Y-88860000D01*
X117862500Y-88860000D01*
X117895581Y-88861625D01*
X117895581Y-88861625D01*
G37*
D11*
X117475000Y-89535000D03*
G04 #@! TD*
D12*
G04 #@! TO.C,J2*
X194390000Y-99060000D03*
X199390000Y-99060000D03*
X194390000Y-111560000D03*
X199390000Y-111560000D03*
G04 #@! TD*
G04 #@! TO.C,J3*
X174705000Y-99060000D03*
X179705000Y-99060000D03*
X174705000Y-111560000D03*
X179705000Y-111560000D03*
G04 #@! TD*
G04 #@! TO.C,J4*
X199390000Y-74730000D03*
X194390000Y-74730000D03*
X199390000Y-62230000D03*
X194390000Y-62230000D03*
G04 #@! TD*
G04 #@! TO.C,J5*
X219075000Y-74730000D03*
X214075000Y-74730000D03*
X219075000Y-62230000D03*
X214075000Y-62230000D03*
G04 #@! TD*
G04 #@! TO.C,J6*
X159940000Y-111560000D03*
X154940000Y-111560000D03*
X159940000Y-99060000D03*
X154940000Y-99060000D03*
G04 #@! TD*
G04 #@! TO.C,J7*
X137160000Y-99060000D03*
X142160000Y-99060000D03*
X137160000Y-111560000D03*
X142160000Y-111560000D03*
G04 #@! TD*
G04 #@! TO.C,J8*
X142240000Y-74530000D03*
X137240000Y-74530000D03*
X142240000Y-62030000D03*
X137240000Y-62030000D03*
G04 #@! TD*
G04 #@! TO.C,J9*
X155020000Y-62030000D03*
X160020000Y-62030000D03*
X155020000Y-74530000D03*
X160020000Y-74530000D03*
G04 #@! TD*
G04 #@! TO.C,J10*
X179705000Y-74730000D03*
X174705000Y-74730000D03*
X179705000Y-62230000D03*
X174705000Y-62230000D03*
G04 #@! TD*
D10*
G04 #@! TO.C,R2*
G36*
X219445581Y-117866625D02*
X219478343Y-117871485D01*
X219510471Y-117879533D01*
X219541656Y-117890691D01*
X219571596Y-117904852D01*
X219600005Y-117921879D01*
X219626608Y-117941609D01*
X219651149Y-117963851D01*
X219673391Y-117988392D01*
X219693121Y-118014995D01*
X219710148Y-118043404D01*
X219724309Y-118073344D01*
X219735467Y-118104529D01*
X219743515Y-118136657D01*
X219748375Y-118169419D01*
X219750000Y-118202500D01*
X219750000Y-118977500D01*
X219748375Y-119010581D01*
X219743515Y-119043343D01*
X219735467Y-119075471D01*
X219724309Y-119106656D01*
X219710148Y-119136596D01*
X219693121Y-119165005D01*
X219673391Y-119191608D01*
X219651149Y-119216149D01*
X219626608Y-119238391D01*
X219600005Y-119258121D01*
X219571596Y-119275148D01*
X219541656Y-119289309D01*
X219510471Y-119300467D01*
X219478343Y-119308515D01*
X219445581Y-119313375D01*
X219412500Y-119315000D01*
X218737500Y-119315000D01*
X218704419Y-119313375D01*
X218671657Y-119308515D01*
X218639529Y-119300467D01*
X218608344Y-119289309D01*
X218578404Y-119275148D01*
X218549995Y-119258121D01*
X218523392Y-119238391D01*
X218498851Y-119216149D01*
X218476609Y-119191608D01*
X218456879Y-119165005D01*
X218439852Y-119136596D01*
X218425691Y-119106656D01*
X218414533Y-119075471D01*
X218406485Y-119043343D01*
X218401625Y-119010581D01*
X218400000Y-118977500D01*
X218400000Y-118202500D01*
X218401625Y-118169419D01*
X218406485Y-118136657D01*
X218414533Y-118104529D01*
X218425691Y-118073344D01*
X218439852Y-118043404D01*
X218456879Y-118014995D01*
X218476609Y-117988392D01*
X218498851Y-117963851D01*
X218523392Y-117941609D01*
X218549995Y-117921879D01*
X218578404Y-117904852D01*
X218608344Y-117890691D01*
X218639529Y-117879533D01*
X218671657Y-117871485D01*
X218704419Y-117866625D01*
X218737500Y-117865000D01*
X219412500Y-117865000D01*
X219445581Y-117866625D01*
X219445581Y-117866625D01*
G37*
D11*
X219075000Y-118590000D03*
D10*
G36*
X219445581Y-116116625D02*
X219478343Y-116121485D01*
X219510471Y-116129533D01*
X219541656Y-116140691D01*
X219571596Y-116154852D01*
X219600005Y-116171879D01*
X219626608Y-116191609D01*
X219651149Y-116213851D01*
X219673391Y-116238392D01*
X219693121Y-116264995D01*
X219710148Y-116293404D01*
X219724309Y-116323344D01*
X219735467Y-116354529D01*
X219743515Y-116386657D01*
X219748375Y-116419419D01*
X219750000Y-116452500D01*
X219750000Y-117227500D01*
X219748375Y-117260581D01*
X219743515Y-117293343D01*
X219735467Y-117325471D01*
X219724309Y-117356656D01*
X219710148Y-117386596D01*
X219693121Y-117415005D01*
X219673391Y-117441608D01*
X219651149Y-117466149D01*
X219626608Y-117488391D01*
X219600005Y-117508121D01*
X219571596Y-117525148D01*
X219541656Y-117539309D01*
X219510471Y-117550467D01*
X219478343Y-117558515D01*
X219445581Y-117563375D01*
X219412500Y-117565000D01*
X218737500Y-117565000D01*
X218704419Y-117563375D01*
X218671657Y-117558515D01*
X218639529Y-117550467D01*
X218608344Y-117539309D01*
X218578404Y-117525148D01*
X218549995Y-117508121D01*
X218523392Y-117488391D01*
X218498851Y-117466149D01*
X218476609Y-117441608D01*
X218456879Y-117415005D01*
X218439852Y-117386596D01*
X218425691Y-117356656D01*
X218414533Y-117325471D01*
X218406485Y-117293343D01*
X218401625Y-117260581D01*
X218400000Y-117227500D01*
X218400000Y-116452500D01*
X218401625Y-116419419D01*
X218406485Y-116386657D01*
X218414533Y-116354529D01*
X218425691Y-116323344D01*
X218439852Y-116293404D01*
X218456879Y-116264995D01*
X218476609Y-116238392D01*
X218498851Y-116213851D01*
X218523392Y-116191609D01*
X218549995Y-116171879D01*
X218578404Y-116154852D01*
X218608344Y-116140691D01*
X218639529Y-116129533D01*
X218671657Y-116121485D01*
X218704419Y-116116625D01*
X218737500Y-116115000D01*
X219412500Y-116115000D01*
X219445581Y-116116625D01*
X219445581Y-116116625D01*
G37*
D11*
X219075000Y-116840000D03*
G04 #@! TD*
D10*
G04 #@! TO.C,R1*
G36*
X214365581Y-117866625D02*
X214398343Y-117871485D01*
X214430471Y-117879533D01*
X214461656Y-117890691D01*
X214491596Y-117904852D01*
X214520005Y-117921879D01*
X214546608Y-117941609D01*
X214571149Y-117963851D01*
X214593391Y-117988392D01*
X214613121Y-118014995D01*
X214630148Y-118043404D01*
X214644309Y-118073344D01*
X214655467Y-118104529D01*
X214663515Y-118136657D01*
X214668375Y-118169419D01*
X214670000Y-118202500D01*
X214670000Y-118977500D01*
X214668375Y-119010581D01*
X214663515Y-119043343D01*
X214655467Y-119075471D01*
X214644309Y-119106656D01*
X214630148Y-119136596D01*
X214613121Y-119165005D01*
X214593391Y-119191608D01*
X214571149Y-119216149D01*
X214546608Y-119238391D01*
X214520005Y-119258121D01*
X214491596Y-119275148D01*
X214461656Y-119289309D01*
X214430471Y-119300467D01*
X214398343Y-119308515D01*
X214365581Y-119313375D01*
X214332500Y-119315000D01*
X213657500Y-119315000D01*
X213624419Y-119313375D01*
X213591657Y-119308515D01*
X213559529Y-119300467D01*
X213528344Y-119289309D01*
X213498404Y-119275148D01*
X213469995Y-119258121D01*
X213443392Y-119238391D01*
X213418851Y-119216149D01*
X213396609Y-119191608D01*
X213376879Y-119165005D01*
X213359852Y-119136596D01*
X213345691Y-119106656D01*
X213334533Y-119075471D01*
X213326485Y-119043343D01*
X213321625Y-119010581D01*
X213320000Y-118977500D01*
X213320000Y-118202500D01*
X213321625Y-118169419D01*
X213326485Y-118136657D01*
X213334533Y-118104529D01*
X213345691Y-118073344D01*
X213359852Y-118043404D01*
X213376879Y-118014995D01*
X213396609Y-117988392D01*
X213418851Y-117963851D01*
X213443392Y-117941609D01*
X213469995Y-117921879D01*
X213498404Y-117904852D01*
X213528344Y-117890691D01*
X213559529Y-117879533D01*
X213591657Y-117871485D01*
X213624419Y-117866625D01*
X213657500Y-117865000D01*
X214332500Y-117865000D01*
X214365581Y-117866625D01*
X214365581Y-117866625D01*
G37*
D11*
X213995000Y-118590000D03*
D10*
G36*
X214365581Y-116116625D02*
X214398343Y-116121485D01*
X214430471Y-116129533D01*
X214461656Y-116140691D01*
X214491596Y-116154852D01*
X214520005Y-116171879D01*
X214546608Y-116191609D01*
X214571149Y-116213851D01*
X214593391Y-116238392D01*
X214613121Y-116264995D01*
X214630148Y-116293404D01*
X214644309Y-116323344D01*
X214655467Y-116354529D01*
X214663515Y-116386657D01*
X214668375Y-116419419D01*
X214670000Y-116452500D01*
X214670000Y-117227500D01*
X214668375Y-117260581D01*
X214663515Y-117293343D01*
X214655467Y-117325471D01*
X214644309Y-117356656D01*
X214630148Y-117386596D01*
X214613121Y-117415005D01*
X214593391Y-117441608D01*
X214571149Y-117466149D01*
X214546608Y-117488391D01*
X214520005Y-117508121D01*
X214491596Y-117525148D01*
X214461656Y-117539309D01*
X214430471Y-117550467D01*
X214398343Y-117558515D01*
X214365581Y-117563375D01*
X214332500Y-117565000D01*
X213657500Y-117565000D01*
X213624419Y-117563375D01*
X213591657Y-117558515D01*
X213559529Y-117550467D01*
X213528344Y-117539309D01*
X213498404Y-117525148D01*
X213469995Y-117508121D01*
X213443392Y-117488391D01*
X213418851Y-117466149D01*
X213396609Y-117441608D01*
X213376879Y-117415005D01*
X213359852Y-117386596D01*
X213345691Y-117356656D01*
X213334533Y-117325471D01*
X213326485Y-117293343D01*
X213321625Y-117260581D01*
X213320000Y-117227500D01*
X213320000Y-116452500D01*
X213321625Y-116419419D01*
X213326485Y-116386657D01*
X213334533Y-116354529D01*
X213345691Y-116323344D01*
X213359852Y-116293404D01*
X213376879Y-116264995D01*
X213396609Y-116238392D01*
X213418851Y-116213851D01*
X213443392Y-116191609D01*
X213469995Y-116171879D01*
X213498404Y-116154852D01*
X213528344Y-116140691D01*
X213559529Y-116129533D01*
X213591657Y-116121485D01*
X213624419Y-116116625D01*
X213657500Y-116115000D01*
X214332500Y-116115000D01*
X214365581Y-116116625D01*
X214365581Y-116116625D01*
G37*
D11*
X213995000Y-116840000D03*
G04 #@! TD*
D10*
G04 #@! TO.C,R5*
G36*
X199760581Y-117866625D02*
X199793343Y-117871485D01*
X199825471Y-117879533D01*
X199856656Y-117890691D01*
X199886596Y-117904852D01*
X199915005Y-117921879D01*
X199941608Y-117941609D01*
X199966149Y-117963851D01*
X199988391Y-117988392D01*
X200008121Y-118014995D01*
X200025148Y-118043404D01*
X200039309Y-118073344D01*
X200050467Y-118104529D01*
X200058515Y-118136657D01*
X200063375Y-118169419D01*
X200065000Y-118202500D01*
X200065000Y-118977500D01*
X200063375Y-119010581D01*
X200058515Y-119043343D01*
X200050467Y-119075471D01*
X200039309Y-119106656D01*
X200025148Y-119136596D01*
X200008121Y-119165005D01*
X199988391Y-119191608D01*
X199966149Y-119216149D01*
X199941608Y-119238391D01*
X199915005Y-119258121D01*
X199886596Y-119275148D01*
X199856656Y-119289309D01*
X199825471Y-119300467D01*
X199793343Y-119308515D01*
X199760581Y-119313375D01*
X199727500Y-119315000D01*
X199052500Y-119315000D01*
X199019419Y-119313375D01*
X198986657Y-119308515D01*
X198954529Y-119300467D01*
X198923344Y-119289309D01*
X198893404Y-119275148D01*
X198864995Y-119258121D01*
X198838392Y-119238391D01*
X198813851Y-119216149D01*
X198791609Y-119191608D01*
X198771879Y-119165005D01*
X198754852Y-119136596D01*
X198740691Y-119106656D01*
X198729533Y-119075471D01*
X198721485Y-119043343D01*
X198716625Y-119010581D01*
X198715000Y-118977500D01*
X198715000Y-118202500D01*
X198716625Y-118169419D01*
X198721485Y-118136657D01*
X198729533Y-118104529D01*
X198740691Y-118073344D01*
X198754852Y-118043404D01*
X198771879Y-118014995D01*
X198791609Y-117988392D01*
X198813851Y-117963851D01*
X198838392Y-117941609D01*
X198864995Y-117921879D01*
X198893404Y-117904852D01*
X198923344Y-117890691D01*
X198954529Y-117879533D01*
X198986657Y-117871485D01*
X199019419Y-117866625D01*
X199052500Y-117865000D01*
X199727500Y-117865000D01*
X199760581Y-117866625D01*
X199760581Y-117866625D01*
G37*
D11*
X199390000Y-118590000D03*
D10*
G36*
X199760581Y-116116625D02*
X199793343Y-116121485D01*
X199825471Y-116129533D01*
X199856656Y-116140691D01*
X199886596Y-116154852D01*
X199915005Y-116171879D01*
X199941608Y-116191609D01*
X199966149Y-116213851D01*
X199988391Y-116238392D01*
X200008121Y-116264995D01*
X200025148Y-116293404D01*
X200039309Y-116323344D01*
X200050467Y-116354529D01*
X200058515Y-116386657D01*
X200063375Y-116419419D01*
X200065000Y-116452500D01*
X200065000Y-117227500D01*
X200063375Y-117260581D01*
X200058515Y-117293343D01*
X200050467Y-117325471D01*
X200039309Y-117356656D01*
X200025148Y-117386596D01*
X200008121Y-117415005D01*
X199988391Y-117441608D01*
X199966149Y-117466149D01*
X199941608Y-117488391D01*
X199915005Y-117508121D01*
X199886596Y-117525148D01*
X199856656Y-117539309D01*
X199825471Y-117550467D01*
X199793343Y-117558515D01*
X199760581Y-117563375D01*
X199727500Y-117565000D01*
X199052500Y-117565000D01*
X199019419Y-117563375D01*
X198986657Y-117558515D01*
X198954529Y-117550467D01*
X198923344Y-117539309D01*
X198893404Y-117525148D01*
X198864995Y-117508121D01*
X198838392Y-117488391D01*
X198813851Y-117466149D01*
X198791609Y-117441608D01*
X198771879Y-117415005D01*
X198754852Y-117386596D01*
X198740691Y-117356656D01*
X198729533Y-117325471D01*
X198721485Y-117293343D01*
X198716625Y-117260581D01*
X198715000Y-117227500D01*
X198715000Y-116452500D01*
X198716625Y-116419419D01*
X198721485Y-116386657D01*
X198729533Y-116354529D01*
X198740691Y-116323344D01*
X198754852Y-116293404D01*
X198771879Y-116264995D01*
X198791609Y-116238392D01*
X198813851Y-116213851D01*
X198838392Y-116191609D01*
X198864995Y-116171879D01*
X198893404Y-116154852D01*
X198923344Y-116140691D01*
X198954529Y-116129533D01*
X198986657Y-116121485D01*
X199019419Y-116116625D01*
X199052500Y-116115000D01*
X199727500Y-116115000D01*
X199760581Y-116116625D01*
X199760581Y-116116625D01*
G37*
D11*
X199390000Y-116840000D03*
G04 #@! TD*
D10*
G04 #@! TO.C,R3*
G36*
X194680581Y-117866625D02*
X194713343Y-117871485D01*
X194745471Y-117879533D01*
X194776656Y-117890691D01*
X194806596Y-117904852D01*
X194835005Y-117921879D01*
X194861608Y-117941609D01*
X194886149Y-117963851D01*
X194908391Y-117988392D01*
X194928121Y-118014995D01*
X194945148Y-118043404D01*
X194959309Y-118073344D01*
X194970467Y-118104529D01*
X194978515Y-118136657D01*
X194983375Y-118169419D01*
X194985000Y-118202500D01*
X194985000Y-118977500D01*
X194983375Y-119010581D01*
X194978515Y-119043343D01*
X194970467Y-119075471D01*
X194959309Y-119106656D01*
X194945148Y-119136596D01*
X194928121Y-119165005D01*
X194908391Y-119191608D01*
X194886149Y-119216149D01*
X194861608Y-119238391D01*
X194835005Y-119258121D01*
X194806596Y-119275148D01*
X194776656Y-119289309D01*
X194745471Y-119300467D01*
X194713343Y-119308515D01*
X194680581Y-119313375D01*
X194647500Y-119315000D01*
X193972500Y-119315000D01*
X193939419Y-119313375D01*
X193906657Y-119308515D01*
X193874529Y-119300467D01*
X193843344Y-119289309D01*
X193813404Y-119275148D01*
X193784995Y-119258121D01*
X193758392Y-119238391D01*
X193733851Y-119216149D01*
X193711609Y-119191608D01*
X193691879Y-119165005D01*
X193674852Y-119136596D01*
X193660691Y-119106656D01*
X193649533Y-119075471D01*
X193641485Y-119043343D01*
X193636625Y-119010581D01*
X193635000Y-118977500D01*
X193635000Y-118202500D01*
X193636625Y-118169419D01*
X193641485Y-118136657D01*
X193649533Y-118104529D01*
X193660691Y-118073344D01*
X193674852Y-118043404D01*
X193691879Y-118014995D01*
X193711609Y-117988392D01*
X193733851Y-117963851D01*
X193758392Y-117941609D01*
X193784995Y-117921879D01*
X193813404Y-117904852D01*
X193843344Y-117890691D01*
X193874529Y-117879533D01*
X193906657Y-117871485D01*
X193939419Y-117866625D01*
X193972500Y-117865000D01*
X194647500Y-117865000D01*
X194680581Y-117866625D01*
X194680581Y-117866625D01*
G37*
D11*
X194310000Y-118590000D03*
D10*
G36*
X194680581Y-116116625D02*
X194713343Y-116121485D01*
X194745471Y-116129533D01*
X194776656Y-116140691D01*
X194806596Y-116154852D01*
X194835005Y-116171879D01*
X194861608Y-116191609D01*
X194886149Y-116213851D01*
X194908391Y-116238392D01*
X194928121Y-116264995D01*
X194945148Y-116293404D01*
X194959309Y-116323344D01*
X194970467Y-116354529D01*
X194978515Y-116386657D01*
X194983375Y-116419419D01*
X194985000Y-116452500D01*
X194985000Y-117227500D01*
X194983375Y-117260581D01*
X194978515Y-117293343D01*
X194970467Y-117325471D01*
X194959309Y-117356656D01*
X194945148Y-117386596D01*
X194928121Y-117415005D01*
X194908391Y-117441608D01*
X194886149Y-117466149D01*
X194861608Y-117488391D01*
X194835005Y-117508121D01*
X194806596Y-117525148D01*
X194776656Y-117539309D01*
X194745471Y-117550467D01*
X194713343Y-117558515D01*
X194680581Y-117563375D01*
X194647500Y-117565000D01*
X193972500Y-117565000D01*
X193939419Y-117563375D01*
X193906657Y-117558515D01*
X193874529Y-117550467D01*
X193843344Y-117539309D01*
X193813404Y-117525148D01*
X193784995Y-117508121D01*
X193758392Y-117488391D01*
X193733851Y-117466149D01*
X193711609Y-117441608D01*
X193691879Y-117415005D01*
X193674852Y-117386596D01*
X193660691Y-117356656D01*
X193649533Y-117325471D01*
X193641485Y-117293343D01*
X193636625Y-117260581D01*
X193635000Y-117227500D01*
X193635000Y-116452500D01*
X193636625Y-116419419D01*
X193641485Y-116386657D01*
X193649533Y-116354529D01*
X193660691Y-116323344D01*
X193674852Y-116293404D01*
X193691879Y-116264995D01*
X193711609Y-116238392D01*
X193733851Y-116213851D01*
X193758392Y-116191609D01*
X193784995Y-116171879D01*
X193813404Y-116154852D01*
X193843344Y-116140691D01*
X193874529Y-116129533D01*
X193906657Y-116121485D01*
X193939419Y-116116625D01*
X193972500Y-116115000D01*
X194647500Y-116115000D01*
X194680581Y-116116625D01*
X194680581Y-116116625D01*
G37*
D11*
X194310000Y-116840000D03*
G04 #@! TD*
D10*
G04 #@! TO.C,R7*
G36*
X180075581Y-117866625D02*
X180108343Y-117871485D01*
X180140471Y-117879533D01*
X180171656Y-117890691D01*
X180201596Y-117904852D01*
X180230005Y-117921879D01*
X180256608Y-117941609D01*
X180281149Y-117963851D01*
X180303391Y-117988392D01*
X180323121Y-118014995D01*
X180340148Y-118043404D01*
X180354309Y-118073344D01*
X180365467Y-118104529D01*
X180373515Y-118136657D01*
X180378375Y-118169419D01*
X180380000Y-118202500D01*
X180380000Y-118977500D01*
X180378375Y-119010581D01*
X180373515Y-119043343D01*
X180365467Y-119075471D01*
X180354309Y-119106656D01*
X180340148Y-119136596D01*
X180323121Y-119165005D01*
X180303391Y-119191608D01*
X180281149Y-119216149D01*
X180256608Y-119238391D01*
X180230005Y-119258121D01*
X180201596Y-119275148D01*
X180171656Y-119289309D01*
X180140471Y-119300467D01*
X180108343Y-119308515D01*
X180075581Y-119313375D01*
X180042500Y-119315000D01*
X179367500Y-119315000D01*
X179334419Y-119313375D01*
X179301657Y-119308515D01*
X179269529Y-119300467D01*
X179238344Y-119289309D01*
X179208404Y-119275148D01*
X179179995Y-119258121D01*
X179153392Y-119238391D01*
X179128851Y-119216149D01*
X179106609Y-119191608D01*
X179086879Y-119165005D01*
X179069852Y-119136596D01*
X179055691Y-119106656D01*
X179044533Y-119075471D01*
X179036485Y-119043343D01*
X179031625Y-119010581D01*
X179030000Y-118977500D01*
X179030000Y-118202500D01*
X179031625Y-118169419D01*
X179036485Y-118136657D01*
X179044533Y-118104529D01*
X179055691Y-118073344D01*
X179069852Y-118043404D01*
X179086879Y-118014995D01*
X179106609Y-117988392D01*
X179128851Y-117963851D01*
X179153392Y-117941609D01*
X179179995Y-117921879D01*
X179208404Y-117904852D01*
X179238344Y-117890691D01*
X179269529Y-117879533D01*
X179301657Y-117871485D01*
X179334419Y-117866625D01*
X179367500Y-117865000D01*
X180042500Y-117865000D01*
X180075581Y-117866625D01*
X180075581Y-117866625D01*
G37*
D11*
X179705000Y-118590000D03*
D10*
G36*
X180075581Y-116116625D02*
X180108343Y-116121485D01*
X180140471Y-116129533D01*
X180171656Y-116140691D01*
X180201596Y-116154852D01*
X180230005Y-116171879D01*
X180256608Y-116191609D01*
X180281149Y-116213851D01*
X180303391Y-116238392D01*
X180323121Y-116264995D01*
X180340148Y-116293404D01*
X180354309Y-116323344D01*
X180365467Y-116354529D01*
X180373515Y-116386657D01*
X180378375Y-116419419D01*
X180380000Y-116452500D01*
X180380000Y-117227500D01*
X180378375Y-117260581D01*
X180373515Y-117293343D01*
X180365467Y-117325471D01*
X180354309Y-117356656D01*
X180340148Y-117386596D01*
X180323121Y-117415005D01*
X180303391Y-117441608D01*
X180281149Y-117466149D01*
X180256608Y-117488391D01*
X180230005Y-117508121D01*
X180201596Y-117525148D01*
X180171656Y-117539309D01*
X180140471Y-117550467D01*
X180108343Y-117558515D01*
X180075581Y-117563375D01*
X180042500Y-117565000D01*
X179367500Y-117565000D01*
X179334419Y-117563375D01*
X179301657Y-117558515D01*
X179269529Y-117550467D01*
X179238344Y-117539309D01*
X179208404Y-117525148D01*
X179179995Y-117508121D01*
X179153392Y-117488391D01*
X179128851Y-117466149D01*
X179106609Y-117441608D01*
X179086879Y-117415005D01*
X179069852Y-117386596D01*
X179055691Y-117356656D01*
X179044533Y-117325471D01*
X179036485Y-117293343D01*
X179031625Y-117260581D01*
X179030000Y-117227500D01*
X179030000Y-116452500D01*
X179031625Y-116419419D01*
X179036485Y-116386657D01*
X179044533Y-116354529D01*
X179055691Y-116323344D01*
X179069852Y-116293404D01*
X179086879Y-116264995D01*
X179106609Y-116238392D01*
X179128851Y-116213851D01*
X179153392Y-116191609D01*
X179179995Y-116171879D01*
X179208404Y-116154852D01*
X179238344Y-116140691D01*
X179269529Y-116129533D01*
X179301657Y-116121485D01*
X179334419Y-116116625D01*
X179367500Y-116115000D01*
X180042500Y-116115000D01*
X180075581Y-116116625D01*
X180075581Y-116116625D01*
G37*
D11*
X179705000Y-116840000D03*
G04 #@! TD*
D10*
G04 #@! TO.C,R4*
G36*
X174995581Y-116116625D02*
X175028343Y-116121485D01*
X175060471Y-116129533D01*
X175091656Y-116140691D01*
X175121596Y-116154852D01*
X175150005Y-116171879D01*
X175176608Y-116191609D01*
X175201149Y-116213851D01*
X175223391Y-116238392D01*
X175243121Y-116264995D01*
X175260148Y-116293404D01*
X175274309Y-116323344D01*
X175285467Y-116354529D01*
X175293515Y-116386657D01*
X175298375Y-116419419D01*
X175300000Y-116452500D01*
X175300000Y-117227500D01*
X175298375Y-117260581D01*
X175293515Y-117293343D01*
X175285467Y-117325471D01*
X175274309Y-117356656D01*
X175260148Y-117386596D01*
X175243121Y-117415005D01*
X175223391Y-117441608D01*
X175201149Y-117466149D01*
X175176608Y-117488391D01*
X175150005Y-117508121D01*
X175121596Y-117525148D01*
X175091656Y-117539309D01*
X175060471Y-117550467D01*
X175028343Y-117558515D01*
X174995581Y-117563375D01*
X174962500Y-117565000D01*
X174287500Y-117565000D01*
X174254419Y-117563375D01*
X174221657Y-117558515D01*
X174189529Y-117550467D01*
X174158344Y-117539309D01*
X174128404Y-117525148D01*
X174099995Y-117508121D01*
X174073392Y-117488391D01*
X174048851Y-117466149D01*
X174026609Y-117441608D01*
X174006879Y-117415005D01*
X173989852Y-117386596D01*
X173975691Y-117356656D01*
X173964533Y-117325471D01*
X173956485Y-117293343D01*
X173951625Y-117260581D01*
X173950000Y-117227500D01*
X173950000Y-116452500D01*
X173951625Y-116419419D01*
X173956485Y-116386657D01*
X173964533Y-116354529D01*
X173975691Y-116323344D01*
X173989852Y-116293404D01*
X174006879Y-116264995D01*
X174026609Y-116238392D01*
X174048851Y-116213851D01*
X174073392Y-116191609D01*
X174099995Y-116171879D01*
X174128404Y-116154852D01*
X174158344Y-116140691D01*
X174189529Y-116129533D01*
X174221657Y-116121485D01*
X174254419Y-116116625D01*
X174287500Y-116115000D01*
X174962500Y-116115000D01*
X174995581Y-116116625D01*
X174995581Y-116116625D01*
G37*
D11*
X174625000Y-116840000D03*
D10*
G36*
X174995581Y-117866625D02*
X175028343Y-117871485D01*
X175060471Y-117879533D01*
X175091656Y-117890691D01*
X175121596Y-117904852D01*
X175150005Y-117921879D01*
X175176608Y-117941609D01*
X175201149Y-117963851D01*
X175223391Y-117988392D01*
X175243121Y-118014995D01*
X175260148Y-118043404D01*
X175274309Y-118073344D01*
X175285467Y-118104529D01*
X175293515Y-118136657D01*
X175298375Y-118169419D01*
X175300000Y-118202500D01*
X175300000Y-118977500D01*
X175298375Y-119010581D01*
X175293515Y-119043343D01*
X175285467Y-119075471D01*
X175274309Y-119106656D01*
X175260148Y-119136596D01*
X175243121Y-119165005D01*
X175223391Y-119191608D01*
X175201149Y-119216149D01*
X175176608Y-119238391D01*
X175150005Y-119258121D01*
X175121596Y-119275148D01*
X175091656Y-119289309D01*
X175060471Y-119300467D01*
X175028343Y-119308515D01*
X174995581Y-119313375D01*
X174962500Y-119315000D01*
X174287500Y-119315000D01*
X174254419Y-119313375D01*
X174221657Y-119308515D01*
X174189529Y-119300467D01*
X174158344Y-119289309D01*
X174128404Y-119275148D01*
X174099995Y-119258121D01*
X174073392Y-119238391D01*
X174048851Y-119216149D01*
X174026609Y-119191608D01*
X174006879Y-119165005D01*
X173989852Y-119136596D01*
X173975691Y-119106656D01*
X173964533Y-119075471D01*
X173956485Y-119043343D01*
X173951625Y-119010581D01*
X173950000Y-118977500D01*
X173950000Y-118202500D01*
X173951625Y-118169419D01*
X173956485Y-118136657D01*
X173964533Y-118104529D01*
X173975691Y-118073344D01*
X173989852Y-118043404D01*
X174006879Y-118014995D01*
X174026609Y-117988392D01*
X174048851Y-117963851D01*
X174073392Y-117941609D01*
X174099995Y-117921879D01*
X174128404Y-117904852D01*
X174158344Y-117890691D01*
X174189529Y-117879533D01*
X174221657Y-117871485D01*
X174254419Y-117866625D01*
X174287500Y-117865000D01*
X174962500Y-117865000D01*
X174995581Y-117866625D01*
X174995581Y-117866625D01*
G37*
D11*
X174625000Y-118590000D03*
G04 #@! TD*
D10*
G04 #@! TO.C,R10*
G36*
X199760581Y-79766625D02*
X199793343Y-79771485D01*
X199825471Y-79779533D01*
X199856656Y-79790691D01*
X199886596Y-79804852D01*
X199915005Y-79821879D01*
X199941608Y-79841609D01*
X199966149Y-79863851D01*
X199988391Y-79888392D01*
X200008121Y-79914995D01*
X200025148Y-79943404D01*
X200039309Y-79973344D01*
X200050467Y-80004529D01*
X200058515Y-80036657D01*
X200063375Y-80069419D01*
X200065000Y-80102500D01*
X200065000Y-80877500D01*
X200063375Y-80910581D01*
X200058515Y-80943343D01*
X200050467Y-80975471D01*
X200039309Y-81006656D01*
X200025148Y-81036596D01*
X200008121Y-81065005D01*
X199988391Y-81091608D01*
X199966149Y-81116149D01*
X199941608Y-81138391D01*
X199915005Y-81158121D01*
X199886596Y-81175148D01*
X199856656Y-81189309D01*
X199825471Y-81200467D01*
X199793343Y-81208515D01*
X199760581Y-81213375D01*
X199727500Y-81215000D01*
X199052500Y-81215000D01*
X199019419Y-81213375D01*
X198986657Y-81208515D01*
X198954529Y-81200467D01*
X198923344Y-81189309D01*
X198893404Y-81175148D01*
X198864995Y-81158121D01*
X198838392Y-81138391D01*
X198813851Y-81116149D01*
X198791609Y-81091608D01*
X198771879Y-81065005D01*
X198754852Y-81036596D01*
X198740691Y-81006656D01*
X198729533Y-80975471D01*
X198721485Y-80943343D01*
X198716625Y-80910581D01*
X198715000Y-80877500D01*
X198715000Y-80102500D01*
X198716625Y-80069419D01*
X198721485Y-80036657D01*
X198729533Y-80004529D01*
X198740691Y-79973344D01*
X198754852Y-79943404D01*
X198771879Y-79914995D01*
X198791609Y-79888392D01*
X198813851Y-79863851D01*
X198838392Y-79841609D01*
X198864995Y-79821879D01*
X198893404Y-79804852D01*
X198923344Y-79790691D01*
X198954529Y-79779533D01*
X198986657Y-79771485D01*
X199019419Y-79766625D01*
X199052500Y-79765000D01*
X199727500Y-79765000D01*
X199760581Y-79766625D01*
X199760581Y-79766625D01*
G37*
D11*
X199390000Y-80490000D03*
D10*
G36*
X199760581Y-78016625D02*
X199793343Y-78021485D01*
X199825471Y-78029533D01*
X199856656Y-78040691D01*
X199886596Y-78054852D01*
X199915005Y-78071879D01*
X199941608Y-78091609D01*
X199966149Y-78113851D01*
X199988391Y-78138392D01*
X200008121Y-78164995D01*
X200025148Y-78193404D01*
X200039309Y-78223344D01*
X200050467Y-78254529D01*
X200058515Y-78286657D01*
X200063375Y-78319419D01*
X200065000Y-78352500D01*
X200065000Y-79127500D01*
X200063375Y-79160581D01*
X200058515Y-79193343D01*
X200050467Y-79225471D01*
X200039309Y-79256656D01*
X200025148Y-79286596D01*
X200008121Y-79315005D01*
X199988391Y-79341608D01*
X199966149Y-79366149D01*
X199941608Y-79388391D01*
X199915005Y-79408121D01*
X199886596Y-79425148D01*
X199856656Y-79439309D01*
X199825471Y-79450467D01*
X199793343Y-79458515D01*
X199760581Y-79463375D01*
X199727500Y-79465000D01*
X199052500Y-79465000D01*
X199019419Y-79463375D01*
X198986657Y-79458515D01*
X198954529Y-79450467D01*
X198923344Y-79439309D01*
X198893404Y-79425148D01*
X198864995Y-79408121D01*
X198838392Y-79388391D01*
X198813851Y-79366149D01*
X198791609Y-79341608D01*
X198771879Y-79315005D01*
X198754852Y-79286596D01*
X198740691Y-79256656D01*
X198729533Y-79225471D01*
X198721485Y-79193343D01*
X198716625Y-79160581D01*
X198715000Y-79127500D01*
X198715000Y-78352500D01*
X198716625Y-78319419D01*
X198721485Y-78286657D01*
X198729533Y-78254529D01*
X198740691Y-78223344D01*
X198754852Y-78193404D01*
X198771879Y-78164995D01*
X198791609Y-78138392D01*
X198813851Y-78113851D01*
X198838392Y-78091609D01*
X198864995Y-78071879D01*
X198893404Y-78054852D01*
X198923344Y-78040691D01*
X198954529Y-78029533D01*
X198986657Y-78021485D01*
X199019419Y-78016625D01*
X199052500Y-78015000D01*
X199727500Y-78015000D01*
X199760581Y-78016625D01*
X199760581Y-78016625D01*
G37*
D11*
X199390000Y-78740000D03*
G04 #@! TD*
D10*
G04 #@! TO.C,R6*
G36*
X194680581Y-78016625D02*
X194713343Y-78021485D01*
X194745471Y-78029533D01*
X194776656Y-78040691D01*
X194806596Y-78054852D01*
X194835005Y-78071879D01*
X194861608Y-78091609D01*
X194886149Y-78113851D01*
X194908391Y-78138392D01*
X194928121Y-78164995D01*
X194945148Y-78193404D01*
X194959309Y-78223344D01*
X194970467Y-78254529D01*
X194978515Y-78286657D01*
X194983375Y-78319419D01*
X194985000Y-78352500D01*
X194985000Y-79127500D01*
X194983375Y-79160581D01*
X194978515Y-79193343D01*
X194970467Y-79225471D01*
X194959309Y-79256656D01*
X194945148Y-79286596D01*
X194928121Y-79315005D01*
X194908391Y-79341608D01*
X194886149Y-79366149D01*
X194861608Y-79388391D01*
X194835005Y-79408121D01*
X194806596Y-79425148D01*
X194776656Y-79439309D01*
X194745471Y-79450467D01*
X194713343Y-79458515D01*
X194680581Y-79463375D01*
X194647500Y-79465000D01*
X193972500Y-79465000D01*
X193939419Y-79463375D01*
X193906657Y-79458515D01*
X193874529Y-79450467D01*
X193843344Y-79439309D01*
X193813404Y-79425148D01*
X193784995Y-79408121D01*
X193758392Y-79388391D01*
X193733851Y-79366149D01*
X193711609Y-79341608D01*
X193691879Y-79315005D01*
X193674852Y-79286596D01*
X193660691Y-79256656D01*
X193649533Y-79225471D01*
X193641485Y-79193343D01*
X193636625Y-79160581D01*
X193635000Y-79127500D01*
X193635000Y-78352500D01*
X193636625Y-78319419D01*
X193641485Y-78286657D01*
X193649533Y-78254529D01*
X193660691Y-78223344D01*
X193674852Y-78193404D01*
X193691879Y-78164995D01*
X193711609Y-78138392D01*
X193733851Y-78113851D01*
X193758392Y-78091609D01*
X193784995Y-78071879D01*
X193813404Y-78054852D01*
X193843344Y-78040691D01*
X193874529Y-78029533D01*
X193906657Y-78021485D01*
X193939419Y-78016625D01*
X193972500Y-78015000D01*
X194647500Y-78015000D01*
X194680581Y-78016625D01*
X194680581Y-78016625D01*
G37*
D11*
X194310000Y-78740000D03*
D10*
G36*
X194680581Y-79766625D02*
X194713343Y-79771485D01*
X194745471Y-79779533D01*
X194776656Y-79790691D01*
X194806596Y-79804852D01*
X194835005Y-79821879D01*
X194861608Y-79841609D01*
X194886149Y-79863851D01*
X194908391Y-79888392D01*
X194928121Y-79914995D01*
X194945148Y-79943404D01*
X194959309Y-79973344D01*
X194970467Y-80004529D01*
X194978515Y-80036657D01*
X194983375Y-80069419D01*
X194985000Y-80102500D01*
X194985000Y-80877500D01*
X194983375Y-80910581D01*
X194978515Y-80943343D01*
X194970467Y-80975471D01*
X194959309Y-81006656D01*
X194945148Y-81036596D01*
X194928121Y-81065005D01*
X194908391Y-81091608D01*
X194886149Y-81116149D01*
X194861608Y-81138391D01*
X194835005Y-81158121D01*
X194806596Y-81175148D01*
X194776656Y-81189309D01*
X194745471Y-81200467D01*
X194713343Y-81208515D01*
X194680581Y-81213375D01*
X194647500Y-81215000D01*
X193972500Y-81215000D01*
X193939419Y-81213375D01*
X193906657Y-81208515D01*
X193874529Y-81200467D01*
X193843344Y-81189309D01*
X193813404Y-81175148D01*
X193784995Y-81158121D01*
X193758392Y-81138391D01*
X193733851Y-81116149D01*
X193711609Y-81091608D01*
X193691879Y-81065005D01*
X193674852Y-81036596D01*
X193660691Y-81006656D01*
X193649533Y-80975471D01*
X193641485Y-80943343D01*
X193636625Y-80910581D01*
X193635000Y-80877500D01*
X193635000Y-80102500D01*
X193636625Y-80069419D01*
X193641485Y-80036657D01*
X193649533Y-80004529D01*
X193660691Y-79973344D01*
X193674852Y-79943404D01*
X193691879Y-79914995D01*
X193711609Y-79888392D01*
X193733851Y-79863851D01*
X193758392Y-79841609D01*
X193784995Y-79821879D01*
X193813404Y-79804852D01*
X193843344Y-79790691D01*
X193874529Y-79779533D01*
X193906657Y-79771485D01*
X193939419Y-79766625D01*
X193972500Y-79765000D01*
X194647500Y-79765000D01*
X194680581Y-79766625D01*
X194680581Y-79766625D01*
G37*
D11*
X194310000Y-80490000D03*
G04 #@! TD*
D10*
G04 #@! TO.C,R12*
G36*
X219445581Y-78016625D02*
X219478343Y-78021485D01*
X219510471Y-78029533D01*
X219541656Y-78040691D01*
X219571596Y-78054852D01*
X219600005Y-78071879D01*
X219626608Y-78091609D01*
X219651149Y-78113851D01*
X219673391Y-78138392D01*
X219693121Y-78164995D01*
X219710148Y-78193404D01*
X219724309Y-78223344D01*
X219735467Y-78254529D01*
X219743515Y-78286657D01*
X219748375Y-78319419D01*
X219750000Y-78352500D01*
X219750000Y-79127500D01*
X219748375Y-79160581D01*
X219743515Y-79193343D01*
X219735467Y-79225471D01*
X219724309Y-79256656D01*
X219710148Y-79286596D01*
X219693121Y-79315005D01*
X219673391Y-79341608D01*
X219651149Y-79366149D01*
X219626608Y-79388391D01*
X219600005Y-79408121D01*
X219571596Y-79425148D01*
X219541656Y-79439309D01*
X219510471Y-79450467D01*
X219478343Y-79458515D01*
X219445581Y-79463375D01*
X219412500Y-79465000D01*
X218737500Y-79465000D01*
X218704419Y-79463375D01*
X218671657Y-79458515D01*
X218639529Y-79450467D01*
X218608344Y-79439309D01*
X218578404Y-79425148D01*
X218549995Y-79408121D01*
X218523392Y-79388391D01*
X218498851Y-79366149D01*
X218476609Y-79341608D01*
X218456879Y-79315005D01*
X218439852Y-79286596D01*
X218425691Y-79256656D01*
X218414533Y-79225471D01*
X218406485Y-79193343D01*
X218401625Y-79160581D01*
X218400000Y-79127500D01*
X218400000Y-78352500D01*
X218401625Y-78319419D01*
X218406485Y-78286657D01*
X218414533Y-78254529D01*
X218425691Y-78223344D01*
X218439852Y-78193404D01*
X218456879Y-78164995D01*
X218476609Y-78138392D01*
X218498851Y-78113851D01*
X218523392Y-78091609D01*
X218549995Y-78071879D01*
X218578404Y-78054852D01*
X218608344Y-78040691D01*
X218639529Y-78029533D01*
X218671657Y-78021485D01*
X218704419Y-78016625D01*
X218737500Y-78015000D01*
X219412500Y-78015000D01*
X219445581Y-78016625D01*
X219445581Y-78016625D01*
G37*
D11*
X219075000Y-78740000D03*
D10*
G36*
X219445581Y-79766625D02*
X219478343Y-79771485D01*
X219510471Y-79779533D01*
X219541656Y-79790691D01*
X219571596Y-79804852D01*
X219600005Y-79821879D01*
X219626608Y-79841609D01*
X219651149Y-79863851D01*
X219673391Y-79888392D01*
X219693121Y-79914995D01*
X219710148Y-79943404D01*
X219724309Y-79973344D01*
X219735467Y-80004529D01*
X219743515Y-80036657D01*
X219748375Y-80069419D01*
X219750000Y-80102500D01*
X219750000Y-80877500D01*
X219748375Y-80910581D01*
X219743515Y-80943343D01*
X219735467Y-80975471D01*
X219724309Y-81006656D01*
X219710148Y-81036596D01*
X219693121Y-81065005D01*
X219673391Y-81091608D01*
X219651149Y-81116149D01*
X219626608Y-81138391D01*
X219600005Y-81158121D01*
X219571596Y-81175148D01*
X219541656Y-81189309D01*
X219510471Y-81200467D01*
X219478343Y-81208515D01*
X219445581Y-81213375D01*
X219412500Y-81215000D01*
X218737500Y-81215000D01*
X218704419Y-81213375D01*
X218671657Y-81208515D01*
X218639529Y-81200467D01*
X218608344Y-81189309D01*
X218578404Y-81175148D01*
X218549995Y-81158121D01*
X218523392Y-81138391D01*
X218498851Y-81116149D01*
X218476609Y-81091608D01*
X218456879Y-81065005D01*
X218439852Y-81036596D01*
X218425691Y-81006656D01*
X218414533Y-80975471D01*
X218406485Y-80943343D01*
X218401625Y-80910581D01*
X218400000Y-80877500D01*
X218400000Y-80102500D01*
X218401625Y-80069419D01*
X218406485Y-80036657D01*
X218414533Y-80004529D01*
X218425691Y-79973344D01*
X218439852Y-79943404D01*
X218456879Y-79914995D01*
X218476609Y-79888392D01*
X218498851Y-79863851D01*
X218523392Y-79841609D01*
X218549995Y-79821879D01*
X218578404Y-79804852D01*
X218608344Y-79790691D01*
X218639529Y-79779533D01*
X218671657Y-79771485D01*
X218704419Y-79766625D01*
X218737500Y-79765000D01*
X219412500Y-79765000D01*
X219445581Y-79766625D01*
X219445581Y-79766625D01*
G37*
D11*
X219075000Y-80490000D03*
G04 #@! TD*
D10*
G04 #@! TO.C,R8*
G36*
X214365581Y-78016625D02*
X214398343Y-78021485D01*
X214430471Y-78029533D01*
X214461656Y-78040691D01*
X214491596Y-78054852D01*
X214520005Y-78071879D01*
X214546608Y-78091609D01*
X214571149Y-78113851D01*
X214593391Y-78138392D01*
X214613121Y-78164995D01*
X214630148Y-78193404D01*
X214644309Y-78223344D01*
X214655467Y-78254529D01*
X214663515Y-78286657D01*
X214668375Y-78319419D01*
X214670000Y-78352500D01*
X214670000Y-79127500D01*
X214668375Y-79160581D01*
X214663515Y-79193343D01*
X214655467Y-79225471D01*
X214644309Y-79256656D01*
X214630148Y-79286596D01*
X214613121Y-79315005D01*
X214593391Y-79341608D01*
X214571149Y-79366149D01*
X214546608Y-79388391D01*
X214520005Y-79408121D01*
X214491596Y-79425148D01*
X214461656Y-79439309D01*
X214430471Y-79450467D01*
X214398343Y-79458515D01*
X214365581Y-79463375D01*
X214332500Y-79465000D01*
X213657500Y-79465000D01*
X213624419Y-79463375D01*
X213591657Y-79458515D01*
X213559529Y-79450467D01*
X213528344Y-79439309D01*
X213498404Y-79425148D01*
X213469995Y-79408121D01*
X213443392Y-79388391D01*
X213418851Y-79366149D01*
X213396609Y-79341608D01*
X213376879Y-79315005D01*
X213359852Y-79286596D01*
X213345691Y-79256656D01*
X213334533Y-79225471D01*
X213326485Y-79193343D01*
X213321625Y-79160581D01*
X213320000Y-79127500D01*
X213320000Y-78352500D01*
X213321625Y-78319419D01*
X213326485Y-78286657D01*
X213334533Y-78254529D01*
X213345691Y-78223344D01*
X213359852Y-78193404D01*
X213376879Y-78164995D01*
X213396609Y-78138392D01*
X213418851Y-78113851D01*
X213443392Y-78091609D01*
X213469995Y-78071879D01*
X213498404Y-78054852D01*
X213528344Y-78040691D01*
X213559529Y-78029533D01*
X213591657Y-78021485D01*
X213624419Y-78016625D01*
X213657500Y-78015000D01*
X214332500Y-78015000D01*
X214365581Y-78016625D01*
X214365581Y-78016625D01*
G37*
D11*
X213995000Y-78740000D03*
D10*
G36*
X214365581Y-79766625D02*
X214398343Y-79771485D01*
X214430471Y-79779533D01*
X214461656Y-79790691D01*
X214491596Y-79804852D01*
X214520005Y-79821879D01*
X214546608Y-79841609D01*
X214571149Y-79863851D01*
X214593391Y-79888392D01*
X214613121Y-79914995D01*
X214630148Y-79943404D01*
X214644309Y-79973344D01*
X214655467Y-80004529D01*
X214663515Y-80036657D01*
X214668375Y-80069419D01*
X214670000Y-80102500D01*
X214670000Y-80877500D01*
X214668375Y-80910581D01*
X214663515Y-80943343D01*
X214655467Y-80975471D01*
X214644309Y-81006656D01*
X214630148Y-81036596D01*
X214613121Y-81065005D01*
X214593391Y-81091608D01*
X214571149Y-81116149D01*
X214546608Y-81138391D01*
X214520005Y-81158121D01*
X214491596Y-81175148D01*
X214461656Y-81189309D01*
X214430471Y-81200467D01*
X214398343Y-81208515D01*
X214365581Y-81213375D01*
X214332500Y-81215000D01*
X213657500Y-81215000D01*
X213624419Y-81213375D01*
X213591657Y-81208515D01*
X213559529Y-81200467D01*
X213528344Y-81189309D01*
X213498404Y-81175148D01*
X213469995Y-81158121D01*
X213443392Y-81138391D01*
X213418851Y-81116149D01*
X213396609Y-81091608D01*
X213376879Y-81065005D01*
X213359852Y-81036596D01*
X213345691Y-81006656D01*
X213334533Y-80975471D01*
X213326485Y-80943343D01*
X213321625Y-80910581D01*
X213320000Y-80877500D01*
X213320000Y-80102500D01*
X213321625Y-80069419D01*
X213326485Y-80036657D01*
X213334533Y-80004529D01*
X213345691Y-79973344D01*
X213359852Y-79943404D01*
X213376879Y-79914995D01*
X213396609Y-79888392D01*
X213418851Y-79863851D01*
X213443392Y-79841609D01*
X213469995Y-79821879D01*
X213498404Y-79804852D01*
X213528344Y-79790691D01*
X213559529Y-79779533D01*
X213591657Y-79771485D01*
X213624419Y-79766625D01*
X213657500Y-79765000D01*
X214332500Y-79765000D01*
X214365581Y-79766625D01*
X214365581Y-79766625D01*
G37*
D11*
X213995000Y-80490000D03*
G04 #@! TD*
D10*
G04 #@! TO.C,R15*
G36*
X160390581Y-117866625D02*
X160423343Y-117871485D01*
X160455471Y-117879533D01*
X160486656Y-117890691D01*
X160516596Y-117904852D01*
X160545005Y-117921879D01*
X160571608Y-117941609D01*
X160596149Y-117963851D01*
X160618391Y-117988392D01*
X160638121Y-118014995D01*
X160655148Y-118043404D01*
X160669309Y-118073344D01*
X160680467Y-118104529D01*
X160688515Y-118136657D01*
X160693375Y-118169419D01*
X160695000Y-118202500D01*
X160695000Y-118977500D01*
X160693375Y-119010581D01*
X160688515Y-119043343D01*
X160680467Y-119075471D01*
X160669309Y-119106656D01*
X160655148Y-119136596D01*
X160638121Y-119165005D01*
X160618391Y-119191608D01*
X160596149Y-119216149D01*
X160571608Y-119238391D01*
X160545005Y-119258121D01*
X160516596Y-119275148D01*
X160486656Y-119289309D01*
X160455471Y-119300467D01*
X160423343Y-119308515D01*
X160390581Y-119313375D01*
X160357500Y-119315000D01*
X159682500Y-119315000D01*
X159649419Y-119313375D01*
X159616657Y-119308515D01*
X159584529Y-119300467D01*
X159553344Y-119289309D01*
X159523404Y-119275148D01*
X159494995Y-119258121D01*
X159468392Y-119238391D01*
X159443851Y-119216149D01*
X159421609Y-119191608D01*
X159401879Y-119165005D01*
X159384852Y-119136596D01*
X159370691Y-119106656D01*
X159359533Y-119075471D01*
X159351485Y-119043343D01*
X159346625Y-119010581D01*
X159345000Y-118977500D01*
X159345000Y-118202500D01*
X159346625Y-118169419D01*
X159351485Y-118136657D01*
X159359533Y-118104529D01*
X159370691Y-118073344D01*
X159384852Y-118043404D01*
X159401879Y-118014995D01*
X159421609Y-117988392D01*
X159443851Y-117963851D01*
X159468392Y-117941609D01*
X159494995Y-117921879D01*
X159523404Y-117904852D01*
X159553344Y-117890691D01*
X159584529Y-117879533D01*
X159616657Y-117871485D01*
X159649419Y-117866625D01*
X159682500Y-117865000D01*
X160357500Y-117865000D01*
X160390581Y-117866625D01*
X160390581Y-117866625D01*
G37*
D11*
X160020000Y-118590000D03*
D10*
G36*
X160390581Y-116116625D02*
X160423343Y-116121485D01*
X160455471Y-116129533D01*
X160486656Y-116140691D01*
X160516596Y-116154852D01*
X160545005Y-116171879D01*
X160571608Y-116191609D01*
X160596149Y-116213851D01*
X160618391Y-116238392D01*
X160638121Y-116264995D01*
X160655148Y-116293404D01*
X160669309Y-116323344D01*
X160680467Y-116354529D01*
X160688515Y-116386657D01*
X160693375Y-116419419D01*
X160695000Y-116452500D01*
X160695000Y-117227500D01*
X160693375Y-117260581D01*
X160688515Y-117293343D01*
X160680467Y-117325471D01*
X160669309Y-117356656D01*
X160655148Y-117386596D01*
X160638121Y-117415005D01*
X160618391Y-117441608D01*
X160596149Y-117466149D01*
X160571608Y-117488391D01*
X160545005Y-117508121D01*
X160516596Y-117525148D01*
X160486656Y-117539309D01*
X160455471Y-117550467D01*
X160423343Y-117558515D01*
X160390581Y-117563375D01*
X160357500Y-117565000D01*
X159682500Y-117565000D01*
X159649419Y-117563375D01*
X159616657Y-117558515D01*
X159584529Y-117550467D01*
X159553344Y-117539309D01*
X159523404Y-117525148D01*
X159494995Y-117508121D01*
X159468392Y-117488391D01*
X159443851Y-117466149D01*
X159421609Y-117441608D01*
X159401879Y-117415005D01*
X159384852Y-117386596D01*
X159370691Y-117356656D01*
X159359533Y-117325471D01*
X159351485Y-117293343D01*
X159346625Y-117260581D01*
X159345000Y-117227500D01*
X159345000Y-116452500D01*
X159346625Y-116419419D01*
X159351485Y-116386657D01*
X159359533Y-116354529D01*
X159370691Y-116323344D01*
X159384852Y-116293404D01*
X159401879Y-116264995D01*
X159421609Y-116238392D01*
X159443851Y-116213851D01*
X159468392Y-116191609D01*
X159494995Y-116171879D01*
X159523404Y-116154852D01*
X159553344Y-116140691D01*
X159584529Y-116129533D01*
X159616657Y-116121485D01*
X159649419Y-116116625D01*
X159682500Y-116115000D01*
X160357500Y-116115000D01*
X160390581Y-116116625D01*
X160390581Y-116116625D01*
G37*
D11*
X160020000Y-116840000D03*
G04 #@! TD*
D10*
G04 #@! TO.C,R9*
G36*
X155310581Y-116116625D02*
X155343343Y-116121485D01*
X155375471Y-116129533D01*
X155406656Y-116140691D01*
X155436596Y-116154852D01*
X155465005Y-116171879D01*
X155491608Y-116191609D01*
X155516149Y-116213851D01*
X155538391Y-116238392D01*
X155558121Y-116264995D01*
X155575148Y-116293404D01*
X155589309Y-116323344D01*
X155600467Y-116354529D01*
X155608515Y-116386657D01*
X155613375Y-116419419D01*
X155615000Y-116452500D01*
X155615000Y-117227500D01*
X155613375Y-117260581D01*
X155608515Y-117293343D01*
X155600467Y-117325471D01*
X155589309Y-117356656D01*
X155575148Y-117386596D01*
X155558121Y-117415005D01*
X155538391Y-117441608D01*
X155516149Y-117466149D01*
X155491608Y-117488391D01*
X155465005Y-117508121D01*
X155436596Y-117525148D01*
X155406656Y-117539309D01*
X155375471Y-117550467D01*
X155343343Y-117558515D01*
X155310581Y-117563375D01*
X155277500Y-117565000D01*
X154602500Y-117565000D01*
X154569419Y-117563375D01*
X154536657Y-117558515D01*
X154504529Y-117550467D01*
X154473344Y-117539309D01*
X154443404Y-117525148D01*
X154414995Y-117508121D01*
X154388392Y-117488391D01*
X154363851Y-117466149D01*
X154341609Y-117441608D01*
X154321879Y-117415005D01*
X154304852Y-117386596D01*
X154290691Y-117356656D01*
X154279533Y-117325471D01*
X154271485Y-117293343D01*
X154266625Y-117260581D01*
X154265000Y-117227500D01*
X154265000Y-116452500D01*
X154266625Y-116419419D01*
X154271485Y-116386657D01*
X154279533Y-116354529D01*
X154290691Y-116323344D01*
X154304852Y-116293404D01*
X154321879Y-116264995D01*
X154341609Y-116238392D01*
X154363851Y-116213851D01*
X154388392Y-116191609D01*
X154414995Y-116171879D01*
X154443404Y-116154852D01*
X154473344Y-116140691D01*
X154504529Y-116129533D01*
X154536657Y-116121485D01*
X154569419Y-116116625D01*
X154602500Y-116115000D01*
X155277500Y-116115000D01*
X155310581Y-116116625D01*
X155310581Y-116116625D01*
G37*
D11*
X154940000Y-116840000D03*
D10*
G36*
X155310581Y-117866625D02*
X155343343Y-117871485D01*
X155375471Y-117879533D01*
X155406656Y-117890691D01*
X155436596Y-117904852D01*
X155465005Y-117921879D01*
X155491608Y-117941609D01*
X155516149Y-117963851D01*
X155538391Y-117988392D01*
X155558121Y-118014995D01*
X155575148Y-118043404D01*
X155589309Y-118073344D01*
X155600467Y-118104529D01*
X155608515Y-118136657D01*
X155613375Y-118169419D01*
X155615000Y-118202500D01*
X155615000Y-118977500D01*
X155613375Y-119010581D01*
X155608515Y-119043343D01*
X155600467Y-119075471D01*
X155589309Y-119106656D01*
X155575148Y-119136596D01*
X155558121Y-119165005D01*
X155538391Y-119191608D01*
X155516149Y-119216149D01*
X155491608Y-119238391D01*
X155465005Y-119258121D01*
X155436596Y-119275148D01*
X155406656Y-119289309D01*
X155375471Y-119300467D01*
X155343343Y-119308515D01*
X155310581Y-119313375D01*
X155277500Y-119315000D01*
X154602500Y-119315000D01*
X154569419Y-119313375D01*
X154536657Y-119308515D01*
X154504529Y-119300467D01*
X154473344Y-119289309D01*
X154443404Y-119275148D01*
X154414995Y-119258121D01*
X154388392Y-119238391D01*
X154363851Y-119216149D01*
X154341609Y-119191608D01*
X154321879Y-119165005D01*
X154304852Y-119136596D01*
X154290691Y-119106656D01*
X154279533Y-119075471D01*
X154271485Y-119043343D01*
X154266625Y-119010581D01*
X154265000Y-118977500D01*
X154265000Y-118202500D01*
X154266625Y-118169419D01*
X154271485Y-118136657D01*
X154279533Y-118104529D01*
X154290691Y-118073344D01*
X154304852Y-118043404D01*
X154321879Y-118014995D01*
X154341609Y-117988392D01*
X154363851Y-117963851D01*
X154388392Y-117941609D01*
X154414995Y-117921879D01*
X154443404Y-117904852D01*
X154473344Y-117890691D01*
X154504529Y-117879533D01*
X154536657Y-117871485D01*
X154569419Y-117866625D01*
X154602500Y-117865000D01*
X155277500Y-117865000D01*
X155310581Y-117866625D01*
X155310581Y-117866625D01*
G37*
D11*
X154940000Y-118590000D03*
G04 #@! TD*
D10*
G04 #@! TO.C,R17*
G36*
X142610581Y-116116625D02*
X142643343Y-116121485D01*
X142675471Y-116129533D01*
X142706656Y-116140691D01*
X142736596Y-116154852D01*
X142765005Y-116171879D01*
X142791608Y-116191609D01*
X142816149Y-116213851D01*
X142838391Y-116238392D01*
X142858121Y-116264995D01*
X142875148Y-116293404D01*
X142889309Y-116323344D01*
X142900467Y-116354529D01*
X142908515Y-116386657D01*
X142913375Y-116419419D01*
X142915000Y-116452500D01*
X142915000Y-117227500D01*
X142913375Y-117260581D01*
X142908515Y-117293343D01*
X142900467Y-117325471D01*
X142889309Y-117356656D01*
X142875148Y-117386596D01*
X142858121Y-117415005D01*
X142838391Y-117441608D01*
X142816149Y-117466149D01*
X142791608Y-117488391D01*
X142765005Y-117508121D01*
X142736596Y-117525148D01*
X142706656Y-117539309D01*
X142675471Y-117550467D01*
X142643343Y-117558515D01*
X142610581Y-117563375D01*
X142577500Y-117565000D01*
X141902500Y-117565000D01*
X141869419Y-117563375D01*
X141836657Y-117558515D01*
X141804529Y-117550467D01*
X141773344Y-117539309D01*
X141743404Y-117525148D01*
X141714995Y-117508121D01*
X141688392Y-117488391D01*
X141663851Y-117466149D01*
X141641609Y-117441608D01*
X141621879Y-117415005D01*
X141604852Y-117386596D01*
X141590691Y-117356656D01*
X141579533Y-117325471D01*
X141571485Y-117293343D01*
X141566625Y-117260581D01*
X141565000Y-117227500D01*
X141565000Y-116452500D01*
X141566625Y-116419419D01*
X141571485Y-116386657D01*
X141579533Y-116354529D01*
X141590691Y-116323344D01*
X141604852Y-116293404D01*
X141621879Y-116264995D01*
X141641609Y-116238392D01*
X141663851Y-116213851D01*
X141688392Y-116191609D01*
X141714995Y-116171879D01*
X141743404Y-116154852D01*
X141773344Y-116140691D01*
X141804529Y-116129533D01*
X141836657Y-116121485D01*
X141869419Y-116116625D01*
X141902500Y-116115000D01*
X142577500Y-116115000D01*
X142610581Y-116116625D01*
X142610581Y-116116625D01*
G37*
D11*
X142240000Y-116840000D03*
D10*
G36*
X142610581Y-117866625D02*
X142643343Y-117871485D01*
X142675471Y-117879533D01*
X142706656Y-117890691D01*
X142736596Y-117904852D01*
X142765005Y-117921879D01*
X142791608Y-117941609D01*
X142816149Y-117963851D01*
X142838391Y-117988392D01*
X142858121Y-118014995D01*
X142875148Y-118043404D01*
X142889309Y-118073344D01*
X142900467Y-118104529D01*
X142908515Y-118136657D01*
X142913375Y-118169419D01*
X142915000Y-118202500D01*
X142915000Y-118977500D01*
X142913375Y-119010581D01*
X142908515Y-119043343D01*
X142900467Y-119075471D01*
X142889309Y-119106656D01*
X142875148Y-119136596D01*
X142858121Y-119165005D01*
X142838391Y-119191608D01*
X142816149Y-119216149D01*
X142791608Y-119238391D01*
X142765005Y-119258121D01*
X142736596Y-119275148D01*
X142706656Y-119289309D01*
X142675471Y-119300467D01*
X142643343Y-119308515D01*
X142610581Y-119313375D01*
X142577500Y-119315000D01*
X141902500Y-119315000D01*
X141869419Y-119313375D01*
X141836657Y-119308515D01*
X141804529Y-119300467D01*
X141773344Y-119289309D01*
X141743404Y-119275148D01*
X141714995Y-119258121D01*
X141688392Y-119238391D01*
X141663851Y-119216149D01*
X141641609Y-119191608D01*
X141621879Y-119165005D01*
X141604852Y-119136596D01*
X141590691Y-119106656D01*
X141579533Y-119075471D01*
X141571485Y-119043343D01*
X141566625Y-119010581D01*
X141565000Y-118977500D01*
X141565000Y-118202500D01*
X141566625Y-118169419D01*
X141571485Y-118136657D01*
X141579533Y-118104529D01*
X141590691Y-118073344D01*
X141604852Y-118043404D01*
X141621879Y-118014995D01*
X141641609Y-117988392D01*
X141663851Y-117963851D01*
X141688392Y-117941609D01*
X141714995Y-117921879D01*
X141743404Y-117904852D01*
X141773344Y-117890691D01*
X141804529Y-117879533D01*
X141836657Y-117871485D01*
X141869419Y-117866625D01*
X141902500Y-117865000D01*
X142577500Y-117865000D01*
X142610581Y-117866625D01*
X142610581Y-117866625D01*
G37*
D11*
X142240000Y-118590000D03*
G04 #@! TD*
D10*
G04 #@! TO.C,R11*
G36*
X137530581Y-116116625D02*
X137563343Y-116121485D01*
X137595471Y-116129533D01*
X137626656Y-116140691D01*
X137656596Y-116154852D01*
X137685005Y-116171879D01*
X137711608Y-116191609D01*
X137736149Y-116213851D01*
X137758391Y-116238392D01*
X137778121Y-116264995D01*
X137795148Y-116293404D01*
X137809309Y-116323344D01*
X137820467Y-116354529D01*
X137828515Y-116386657D01*
X137833375Y-116419419D01*
X137835000Y-116452500D01*
X137835000Y-117227500D01*
X137833375Y-117260581D01*
X137828515Y-117293343D01*
X137820467Y-117325471D01*
X137809309Y-117356656D01*
X137795148Y-117386596D01*
X137778121Y-117415005D01*
X137758391Y-117441608D01*
X137736149Y-117466149D01*
X137711608Y-117488391D01*
X137685005Y-117508121D01*
X137656596Y-117525148D01*
X137626656Y-117539309D01*
X137595471Y-117550467D01*
X137563343Y-117558515D01*
X137530581Y-117563375D01*
X137497500Y-117565000D01*
X136822500Y-117565000D01*
X136789419Y-117563375D01*
X136756657Y-117558515D01*
X136724529Y-117550467D01*
X136693344Y-117539309D01*
X136663404Y-117525148D01*
X136634995Y-117508121D01*
X136608392Y-117488391D01*
X136583851Y-117466149D01*
X136561609Y-117441608D01*
X136541879Y-117415005D01*
X136524852Y-117386596D01*
X136510691Y-117356656D01*
X136499533Y-117325471D01*
X136491485Y-117293343D01*
X136486625Y-117260581D01*
X136485000Y-117227500D01*
X136485000Y-116452500D01*
X136486625Y-116419419D01*
X136491485Y-116386657D01*
X136499533Y-116354529D01*
X136510691Y-116323344D01*
X136524852Y-116293404D01*
X136541879Y-116264995D01*
X136561609Y-116238392D01*
X136583851Y-116213851D01*
X136608392Y-116191609D01*
X136634995Y-116171879D01*
X136663404Y-116154852D01*
X136693344Y-116140691D01*
X136724529Y-116129533D01*
X136756657Y-116121485D01*
X136789419Y-116116625D01*
X136822500Y-116115000D01*
X137497500Y-116115000D01*
X137530581Y-116116625D01*
X137530581Y-116116625D01*
G37*
D11*
X137160000Y-116840000D03*
D10*
G36*
X137530581Y-117866625D02*
X137563343Y-117871485D01*
X137595471Y-117879533D01*
X137626656Y-117890691D01*
X137656596Y-117904852D01*
X137685005Y-117921879D01*
X137711608Y-117941609D01*
X137736149Y-117963851D01*
X137758391Y-117988392D01*
X137778121Y-118014995D01*
X137795148Y-118043404D01*
X137809309Y-118073344D01*
X137820467Y-118104529D01*
X137828515Y-118136657D01*
X137833375Y-118169419D01*
X137835000Y-118202500D01*
X137835000Y-118977500D01*
X137833375Y-119010581D01*
X137828515Y-119043343D01*
X137820467Y-119075471D01*
X137809309Y-119106656D01*
X137795148Y-119136596D01*
X137778121Y-119165005D01*
X137758391Y-119191608D01*
X137736149Y-119216149D01*
X137711608Y-119238391D01*
X137685005Y-119258121D01*
X137656596Y-119275148D01*
X137626656Y-119289309D01*
X137595471Y-119300467D01*
X137563343Y-119308515D01*
X137530581Y-119313375D01*
X137497500Y-119315000D01*
X136822500Y-119315000D01*
X136789419Y-119313375D01*
X136756657Y-119308515D01*
X136724529Y-119300467D01*
X136693344Y-119289309D01*
X136663404Y-119275148D01*
X136634995Y-119258121D01*
X136608392Y-119238391D01*
X136583851Y-119216149D01*
X136561609Y-119191608D01*
X136541879Y-119165005D01*
X136524852Y-119136596D01*
X136510691Y-119106656D01*
X136499533Y-119075471D01*
X136491485Y-119043343D01*
X136486625Y-119010581D01*
X136485000Y-118977500D01*
X136485000Y-118202500D01*
X136486625Y-118169419D01*
X136491485Y-118136657D01*
X136499533Y-118104529D01*
X136510691Y-118073344D01*
X136524852Y-118043404D01*
X136541879Y-118014995D01*
X136561609Y-117988392D01*
X136583851Y-117963851D01*
X136608392Y-117941609D01*
X136634995Y-117921879D01*
X136663404Y-117904852D01*
X136693344Y-117890691D01*
X136724529Y-117879533D01*
X136756657Y-117871485D01*
X136789419Y-117866625D01*
X136822500Y-117865000D01*
X137497500Y-117865000D01*
X137530581Y-117866625D01*
X137530581Y-117866625D01*
G37*
D11*
X137160000Y-118590000D03*
G04 #@! TD*
D10*
G04 #@! TO.C,R18*
G36*
X142610581Y-79766625D02*
X142643343Y-79771485D01*
X142675471Y-79779533D01*
X142706656Y-79790691D01*
X142736596Y-79804852D01*
X142765005Y-79821879D01*
X142791608Y-79841609D01*
X142816149Y-79863851D01*
X142838391Y-79888392D01*
X142858121Y-79914995D01*
X142875148Y-79943404D01*
X142889309Y-79973344D01*
X142900467Y-80004529D01*
X142908515Y-80036657D01*
X142913375Y-80069419D01*
X142915000Y-80102500D01*
X142915000Y-80877500D01*
X142913375Y-80910581D01*
X142908515Y-80943343D01*
X142900467Y-80975471D01*
X142889309Y-81006656D01*
X142875148Y-81036596D01*
X142858121Y-81065005D01*
X142838391Y-81091608D01*
X142816149Y-81116149D01*
X142791608Y-81138391D01*
X142765005Y-81158121D01*
X142736596Y-81175148D01*
X142706656Y-81189309D01*
X142675471Y-81200467D01*
X142643343Y-81208515D01*
X142610581Y-81213375D01*
X142577500Y-81215000D01*
X141902500Y-81215000D01*
X141869419Y-81213375D01*
X141836657Y-81208515D01*
X141804529Y-81200467D01*
X141773344Y-81189309D01*
X141743404Y-81175148D01*
X141714995Y-81158121D01*
X141688392Y-81138391D01*
X141663851Y-81116149D01*
X141641609Y-81091608D01*
X141621879Y-81065005D01*
X141604852Y-81036596D01*
X141590691Y-81006656D01*
X141579533Y-80975471D01*
X141571485Y-80943343D01*
X141566625Y-80910581D01*
X141565000Y-80877500D01*
X141565000Y-80102500D01*
X141566625Y-80069419D01*
X141571485Y-80036657D01*
X141579533Y-80004529D01*
X141590691Y-79973344D01*
X141604852Y-79943404D01*
X141621879Y-79914995D01*
X141641609Y-79888392D01*
X141663851Y-79863851D01*
X141688392Y-79841609D01*
X141714995Y-79821879D01*
X141743404Y-79804852D01*
X141773344Y-79790691D01*
X141804529Y-79779533D01*
X141836657Y-79771485D01*
X141869419Y-79766625D01*
X141902500Y-79765000D01*
X142577500Y-79765000D01*
X142610581Y-79766625D01*
X142610581Y-79766625D01*
G37*
D11*
X142240000Y-80490000D03*
D10*
G36*
X142610581Y-78016625D02*
X142643343Y-78021485D01*
X142675471Y-78029533D01*
X142706656Y-78040691D01*
X142736596Y-78054852D01*
X142765005Y-78071879D01*
X142791608Y-78091609D01*
X142816149Y-78113851D01*
X142838391Y-78138392D01*
X142858121Y-78164995D01*
X142875148Y-78193404D01*
X142889309Y-78223344D01*
X142900467Y-78254529D01*
X142908515Y-78286657D01*
X142913375Y-78319419D01*
X142915000Y-78352500D01*
X142915000Y-79127500D01*
X142913375Y-79160581D01*
X142908515Y-79193343D01*
X142900467Y-79225471D01*
X142889309Y-79256656D01*
X142875148Y-79286596D01*
X142858121Y-79315005D01*
X142838391Y-79341608D01*
X142816149Y-79366149D01*
X142791608Y-79388391D01*
X142765005Y-79408121D01*
X142736596Y-79425148D01*
X142706656Y-79439309D01*
X142675471Y-79450467D01*
X142643343Y-79458515D01*
X142610581Y-79463375D01*
X142577500Y-79465000D01*
X141902500Y-79465000D01*
X141869419Y-79463375D01*
X141836657Y-79458515D01*
X141804529Y-79450467D01*
X141773344Y-79439309D01*
X141743404Y-79425148D01*
X141714995Y-79408121D01*
X141688392Y-79388391D01*
X141663851Y-79366149D01*
X141641609Y-79341608D01*
X141621879Y-79315005D01*
X141604852Y-79286596D01*
X141590691Y-79256656D01*
X141579533Y-79225471D01*
X141571485Y-79193343D01*
X141566625Y-79160581D01*
X141565000Y-79127500D01*
X141565000Y-78352500D01*
X141566625Y-78319419D01*
X141571485Y-78286657D01*
X141579533Y-78254529D01*
X141590691Y-78223344D01*
X141604852Y-78193404D01*
X141621879Y-78164995D01*
X141641609Y-78138392D01*
X141663851Y-78113851D01*
X141688392Y-78091609D01*
X141714995Y-78071879D01*
X141743404Y-78054852D01*
X141773344Y-78040691D01*
X141804529Y-78029533D01*
X141836657Y-78021485D01*
X141869419Y-78016625D01*
X141902500Y-78015000D01*
X142577500Y-78015000D01*
X142610581Y-78016625D01*
X142610581Y-78016625D01*
G37*
D11*
X142240000Y-78740000D03*
G04 #@! TD*
D10*
G04 #@! TO.C,R13*
G36*
X137530581Y-78016625D02*
X137563343Y-78021485D01*
X137595471Y-78029533D01*
X137626656Y-78040691D01*
X137656596Y-78054852D01*
X137685005Y-78071879D01*
X137711608Y-78091609D01*
X137736149Y-78113851D01*
X137758391Y-78138392D01*
X137778121Y-78164995D01*
X137795148Y-78193404D01*
X137809309Y-78223344D01*
X137820467Y-78254529D01*
X137828515Y-78286657D01*
X137833375Y-78319419D01*
X137835000Y-78352500D01*
X137835000Y-79127500D01*
X137833375Y-79160581D01*
X137828515Y-79193343D01*
X137820467Y-79225471D01*
X137809309Y-79256656D01*
X137795148Y-79286596D01*
X137778121Y-79315005D01*
X137758391Y-79341608D01*
X137736149Y-79366149D01*
X137711608Y-79388391D01*
X137685005Y-79408121D01*
X137656596Y-79425148D01*
X137626656Y-79439309D01*
X137595471Y-79450467D01*
X137563343Y-79458515D01*
X137530581Y-79463375D01*
X137497500Y-79465000D01*
X136822500Y-79465000D01*
X136789419Y-79463375D01*
X136756657Y-79458515D01*
X136724529Y-79450467D01*
X136693344Y-79439309D01*
X136663404Y-79425148D01*
X136634995Y-79408121D01*
X136608392Y-79388391D01*
X136583851Y-79366149D01*
X136561609Y-79341608D01*
X136541879Y-79315005D01*
X136524852Y-79286596D01*
X136510691Y-79256656D01*
X136499533Y-79225471D01*
X136491485Y-79193343D01*
X136486625Y-79160581D01*
X136485000Y-79127500D01*
X136485000Y-78352500D01*
X136486625Y-78319419D01*
X136491485Y-78286657D01*
X136499533Y-78254529D01*
X136510691Y-78223344D01*
X136524852Y-78193404D01*
X136541879Y-78164995D01*
X136561609Y-78138392D01*
X136583851Y-78113851D01*
X136608392Y-78091609D01*
X136634995Y-78071879D01*
X136663404Y-78054852D01*
X136693344Y-78040691D01*
X136724529Y-78029533D01*
X136756657Y-78021485D01*
X136789419Y-78016625D01*
X136822500Y-78015000D01*
X137497500Y-78015000D01*
X137530581Y-78016625D01*
X137530581Y-78016625D01*
G37*
D11*
X137160000Y-78740000D03*
D10*
G36*
X137530581Y-79766625D02*
X137563343Y-79771485D01*
X137595471Y-79779533D01*
X137626656Y-79790691D01*
X137656596Y-79804852D01*
X137685005Y-79821879D01*
X137711608Y-79841609D01*
X137736149Y-79863851D01*
X137758391Y-79888392D01*
X137778121Y-79914995D01*
X137795148Y-79943404D01*
X137809309Y-79973344D01*
X137820467Y-80004529D01*
X137828515Y-80036657D01*
X137833375Y-80069419D01*
X137835000Y-80102500D01*
X137835000Y-80877500D01*
X137833375Y-80910581D01*
X137828515Y-80943343D01*
X137820467Y-80975471D01*
X137809309Y-81006656D01*
X137795148Y-81036596D01*
X137778121Y-81065005D01*
X137758391Y-81091608D01*
X137736149Y-81116149D01*
X137711608Y-81138391D01*
X137685005Y-81158121D01*
X137656596Y-81175148D01*
X137626656Y-81189309D01*
X137595471Y-81200467D01*
X137563343Y-81208515D01*
X137530581Y-81213375D01*
X137497500Y-81215000D01*
X136822500Y-81215000D01*
X136789419Y-81213375D01*
X136756657Y-81208515D01*
X136724529Y-81200467D01*
X136693344Y-81189309D01*
X136663404Y-81175148D01*
X136634995Y-81158121D01*
X136608392Y-81138391D01*
X136583851Y-81116149D01*
X136561609Y-81091608D01*
X136541879Y-81065005D01*
X136524852Y-81036596D01*
X136510691Y-81006656D01*
X136499533Y-80975471D01*
X136491485Y-80943343D01*
X136486625Y-80910581D01*
X136485000Y-80877500D01*
X136485000Y-80102500D01*
X136486625Y-80069419D01*
X136491485Y-80036657D01*
X136499533Y-80004529D01*
X136510691Y-79973344D01*
X136524852Y-79943404D01*
X136541879Y-79914995D01*
X136561609Y-79888392D01*
X136583851Y-79863851D01*
X136608392Y-79841609D01*
X136634995Y-79821879D01*
X136663404Y-79804852D01*
X136693344Y-79790691D01*
X136724529Y-79779533D01*
X136756657Y-79771485D01*
X136789419Y-79766625D01*
X136822500Y-79765000D01*
X137497500Y-79765000D01*
X137530581Y-79766625D01*
X137530581Y-79766625D01*
G37*
D11*
X137160000Y-80490000D03*
G04 #@! TD*
D10*
G04 #@! TO.C,R19*
G36*
X160390581Y-78016625D02*
X160423343Y-78021485D01*
X160455471Y-78029533D01*
X160486656Y-78040691D01*
X160516596Y-78054852D01*
X160545005Y-78071879D01*
X160571608Y-78091609D01*
X160596149Y-78113851D01*
X160618391Y-78138392D01*
X160638121Y-78164995D01*
X160655148Y-78193404D01*
X160669309Y-78223344D01*
X160680467Y-78254529D01*
X160688515Y-78286657D01*
X160693375Y-78319419D01*
X160695000Y-78352500D01*
X160695000Y-79127500D01*
X160693375Y-79160581D01*
X160688515Y-79193343D01*
X160680467Y-79225471D01*
X160669309Y-79256656D01*
X160655148Y-79286596D01*
X160638121Y-79315005D01*
X160618391Y-79341608D01*
X160596149Y-79366149D01*
X160571608Y-79388391D01*
X160545005Y-79408121D01*
X160516596Y-79425148D01*
X160486656Y-79439309D01*
X160455471Y-79450467D01*
X160423343Y-79458515D01*
X160390581Y-79463375D01*
X160357500Y-79465000D01*
X159682500Y-79465000D01*
X159649419Y-79463375D01*
X159616657Y-79458515D01*
X159584529Y-79450467D01*
X159553344Y-79439309D01*
X159523404Y-79425148D01*
X159494995Y-79408121D01*
X159468392Y-79388391D01*
X159443851Y-79366149D01*
X159421609Y-79341608D01*
X159401879Y-79315005D01*
X159384852Y-79286596D01*
X159370691Y-79256656D01*
X159359533Y-79225471D01*
X159351485Y-79193343D01*
X159346625Y-79160581D01*
X159345000Y-79127500D01*
X159345000Y-78352500D01*
X159346625Y-78319419D01*
X159351485Y-78286657D01*
X159359533Y-78254529D01*
X159370691Y-78223344D01*
X159384852Y-78193404D01*
X159401879Y-78164995D01*
X159421609Y-78138392D01*
X159443851Y-78113851D01*
X159468392Y-78091609D01*
X159494995Y-78071879D01*
X159523404Y-78054852D01*
X159553344Y-78040691D01*
X159584529Y-78029533D01*
X159616657Y-78021485D01*
X159649419Y-78016625D01*
X159682500Y-78015000D01*
X160357500Y-78015000D01*
X160390581Y-78016625D01*
X160390581Y-78016625D01*
G37*
D11*
X160020000Y-78740000D03*
D10*
G36*
X160390581Y-79766625D02*
X160423343Y-79771485D01*
X160455471Y-79779533D01*
X160486656Y-79790691D01*
X160516596Y-79804852D01*
X160545005Y-79821879D01*
X160571608Y-79841609D01*
X160596149Y-79863851D01*
X160618391Y-79888392D01*
X160638121Y-79914995D01*
X160655148Y-79943404D01*
X160669309Y-79973344D01*
X160680467Y-80004529D01*
X160688515Y-80036657D01*
X160693375Y-80069419D01*
X160695000Y-80102500D01*
X160695000Y-80877500D01*
X160693375Y-80910581D01*
X160688515Y-80943343D01*
X160680467Y-80975471D01*
X160669309Y-81006656D01*
X160655148Y-81036596D01*
X160638121Y-81065005D01*
X160618391Y-81091608D01*
X160596149Y-81116149D01*
X160571608Y-81138391D01*
X160545005Y-81158121D01*
X160516596Y-81175148D01*
X160486656Y-81189309D01*
X160455471Y-81200467D01*
X160423343Y-81208515D01*
X160390581Y-81213375D01*
X160357500Y-81215000D01*
X159682500Y-81215000D01*
X159649419Y-81213375D01*
X159616657Y-81208515D01*
X159584529Y-81200467D01*
X159553344Y-81189309D01*
X159523404Y-81175148D01*
X159494995Y-81158121D01*
X159468392Y-81138391D01*
X159443851Y-81116149D01*
X159421609Y-81091608D01*
X159401879Y-81065005D01*
X159384852Y-81036596D01*
X159370691Y-81006656D01*
X159359533Y-80975471D01*
X159351485Y-80943343D01*
X159346625Y-80910581D01*
X159345000Y-80877500D01*
X159345000Y-80102500D01*
X159346625Y-80069419D01*
X159351485Y-80036657D01*
X159359533Y-80004529D01*
X159370691Y-79973344D01*
X159384852Y-79943404D01*
X159401879Y-79914995D01*
X159421609Y-79888392D01*
X159443851Y-79863851D01*
X159468392Y-79841609D01*
X159494995Y-79821879D01*
X159523404Y-79804852D01*
X159553344Y-79790691D01*
X159584529Y-79779533D01*
X159616657Y-79771485D01*
X159649419Y-79766625D01*
X159682500Y-79765000D01*
X160357500Y-79765000D01*
X160390581Y-79766625D01*
X160390581Y-79766625D01*
G37*
D11*
X160020000Y-80490000D03*
G04 #@! TD*
D10*
G04 #@! TO.C,R14*
G36*
X155310581Y-79766625D02*
X155343343Y-79771485D01*
X155375471Y-79779533D01*
X155406656Y-79790691D01*
X155436596Y-79804852D01*
X155465005Y-79821879D01*
X155491608Y-79841609D01*
X155516149Y-79863851D01*
X155538391Y-79888392D01*
X155558121Y-79914995D01*
X155575148Y-79943404D01*
X155589309Y-79973344D01*
X155600467Y-80004529D01*
X155608515Y-80036657D01*
X155613375Y-80069419D01*
X155615000Y-80102500D01*
X155615000Y-80877500D01*
X155613375Y-80910581D01*
X155608515Y-80943343D01*
X155600467Y-80975471D01*
X155589309Y-81006656D01*
X155575148Y-81036596D01*
X155558121Y-81065005D01*
X155538391Y-81091608D01*
X155516149Y-81116149D01*
X155491608Y-81138391D01*
X155465005Y-81158121D01*
X155436596Y-81175148D01*
X155406656Y-81189309D01*
X155375471Y-81200467D01*
X155343343Y-81208515D01*
X155310581Y-81213375D01*
X155277500Y-81215000D01*
X154602500Y-81215000D01*
X154569419Y-81213375D01*
X154536657Y-81208515D01*
X154504529Y-81200467D01*
X154473344Y-81189309D01*
X154443404Y-81175148D01*
X154414995Y-81158121D01*
X154388392Y-81138391D01*
X154363851Y-81116149D01*
X154341609Y-81091608D01*
X154321879Y-81065005D01*
X154304852Y-81036596D01*
X154290691Y-81006656D01*
X154279533Y-80975471D01*
X154271485Y-80943343D01*
X154266625Y-80910581D01*
X154265000Y-80877500D01*
X154265000Y-80102500D01*
X154266625Y-80069419D01*
X154271485Y-80036657D01*
X154279533Y-80004529D01*
X154290691Y-79973344D01*
X154304852Y-79943404D01*
X154321879Y-79914995D01*
X154341609Y-79888392D01*
X154363851Y-79863851D01*
X154388392Y-79841609D01*
X154414995Y-79821879D01*
X154443404Y-79804852D01*
X154473344Y-79790691D01*
X154504529Y-79779533D01*
X154536657Y-79771485D01*
X154569419Y-79766625D01*
X154602500Y-79765000D01*
X155277500Y-79765000D01*
X155310581Y-79766625D01*
X155310581Y-79766625D01*
G37*
D11*
X154940000Y-80490000D03*
D10*
G36*
X155310581Y-78016625D02*
X155343343Y-78021485D01*
X155375471Y-78029533D01*
X155406656Y-78040691D01*
X155436596Y-78054852D01*
X155465005Y-78071879D01*
X155491608Y-78091609D01*
X155516149Y-78113851D01*
X155538391Y-78138392D01*
X155558121Y-78164995D01*
X155575148Y-78193404D01*
X155589309Y-78223344D01*
X155600467Y-78254529D01*
X155608515Y-78286657D01*
X155613375Y-78319419D01*
X155615000Y-78352500D01*
X155615000Y-79127500D01*
X155613375Y-79160581D01*
X155608515Y-79193343D01*
X155600467Y-79225471D01*
X155589309Y-79256656D01*
X155575148Y-79286596D01*
X155558121Y-79315005D01*
X155538391Y-79341608D01*
X155516149Y-79366149D01*
X155491608Y-79388391D01*
X155465005Y-79408121D01*
X155436596Y-79425148D01*
X155406656Y-79439309D01*
X155375471Y-79450467D01*
X155343343Y-79458515D01*
X155310581Y-79463375D01*
X155277500Y-79465000D01*
X154602500Y-79465000D01*
X154569419Y-79463375D01*
X154536657Y-79458515D01*
X154504529Y-79450467D01*
X154473344Y-79439309D01*
X154443404Y-79425148D01*
X154414995Y-79408121D01*
X154388392Y-79388391D01*
X154363851Y-79366149D01*
X154341609Y-79341608D01*
X154321879Y-79315005D01*
X154304852Y-79286596D01*
X154290691Y-79256656D01*
X154279533Y-79225471D01*
X154271485Y-79193343D01*
X154266625Y-79160581D01*
X154265000Y-79127500D01*
X154265000Y-78352500D01*
X154266625Y-78319419D01*
X154271485Y-78286657D01*
X154279533Y-78254529D01*
X154290691Y-78223344D01*
X154304852Y-78193404D01*
X154321879Y-78164995D01*
X154341609Y-78138392D01*
X154363851Y-78113851D01*
X154388392Y-78091609D01*
X154414995Y-78071879D01*
X154443404Y-78054852D01*
X154473344Y-78040691D01*
X154504529Y-78029533D01*
X154536657Y-78021485D01*
X154569419Y-78016625D01*
X154602500Y-78015000D01*
X155277500Y-78015000D01*
X155310581Y-78016625D01*
X155310581Y-78016625D01*
G37*
D11*
X154940000Y-78740000D03*
G04 #@! TD*
D10*
G04 #@! TO.C,R20*
G36*
X180075581Y-79766625D02*
X180108343Y-79771485D01*
X180140471Y-79779533D01*
X180171656Y-79790691D01*
X180201596Y-79804852D01*
X180230005Y-79821879D01*
X180256608Y-79841609D01*
X180281149Y-79863851D01*
X180303391Y-79888392D01*
X180323121Y-79914995D01*
X180340148Y-79943404D01*
X180354309Y-79973344D01*
X180365467Y-80004529D01*
X180373515Y-80036657D01*
X180378375Y-80069419D01*
X180380000Y-80102500D01*
X180380000Y-80877500D01*
X180378375Y-80910581D01*
X180373515Y-80943343D01*
X180365467Y-80975471D01*
X180354309Y-81006656D01*
X180340148Y-81036596D01*
X180323121Y-81065005D01*
X180303391Y-81091608D01*
X180281149Y-81116149D01*
X180256608Y-81138391D01*
X180230005Y-81158121D01*
X180201596Y-81175148D01*
X180171656Y-81189309D01*
X180140471Y-81200467D01*
X180108343Y-81208515D01*
X180075581Y-81213375D01*
X180042500Y-81215000D01*
X179367500Y-81215000D01*
X179334419Y-81213375D01*
X179301657Y-81208515D01*
X179269529Y-81200467D01*
X179238344Y-81189309D01*
X179208404Y-81175148D01*
X179179995Y-81158121D01*
X179153392Y-81138391D01*
X179128851Y-81116149D01*
X179106609Y-81091608D01*
X179086879Y-81065005D01*
X179069852Y-81036596D01*
X179055691Y-81006656D01*
X179044533Y-80975471D01*
X179036485Y-80943343D01*
X179031625Y-80910581D01*
X179030000Y-80877500D01*
X179030000Y-80102500D01*
X179031625Y-80069419D01*
X179036485Y-80036657D01*
X179044533Y-80004529D01*
X179055691Y-79973344D01*
X179069852Y-79943404D01*
X179086879Y-79914995D01*
X179106609Y-79888392D01*
X179128851Y-79863851D01*
X179153392Y-79841609D01*
X179179995Y-79821879D01*
X179208404Y-79804852D01*
X179238344Y-79790691D01*
X179269529Y-79779533D01*
X179301657Y-79771485D01*
X179334419Y-79766625D01*
X179367500Y-79765000D01*
X180042500Y-79765000D01*
X180075581Y-79766625D01*
X180075581Y-79766625D01*
G37*
D11*
X179705000Y-80490000D03*
D10*
G36*
X180075581Y-78016625D02*
X180108343Y-78021485D01*
X180140471Y-78029533D01*
X180171656Y-78040691D01*
X180201596Y-78054852D01*
X180230005Y-78071879D01*
X180256608Y-78091609D01*
X180281149Y-78113851D01*
X180303391Y-78138392D01*
X180323121Y-78164995D01*
X180340148Y-78193404D01*
X180354309Y-78223344D01*
X180365467Y-78254529D01*
X180373515Y-78286657D01*
X180378375Y-78319419D01*
X180380000Y-78352500D01*
X180380000Y-79127500D01*
X180378375Y-79160581D01*
X180373515Y-79193343D01*
X180365467Y-79225471D01*
X180354309Y-79256656D01*
X180340148Y-79286596D01*
X180323121Y-79315005D01*
X180303391Y-79341608D01*
X180281149Y-79366149D01*
X180256608Y-79388391D01*
X180230005Y-79408121D01*
X180201596Y-79425148D01*
X180171656Y-79439309D01*
X180140471Y-79450467D01*
X180108343Y-79458515D01*
X180075581Y-79463375D01*
X180042500Y-79465000D01*
X179367500Y-79465000D01*
X179334419Y-79463375D01*
X179301657Y-79458515D01*
X179269529Y-79450467D01*
X179238344Y-79439309D01*
X179208404Y-79425148D01*
X179179995Y-79408121D01*
X179153392Y-79388391D01*
X179128851Y-79366149D01*
X179106609Y-79341608D01*
X179086879Y-79315005D01*
X179069852Y-79286596D01*
X179055691Y-79256656D01*
X179044533Y-79225471D01*
X179036485Y-79193343D01*
X179031625Y-79160581D01*
X179030000Y-79127500D01*
X179030000Y-78352500D01*
X179031625Y-78319419D01*
X179036485Y-78286657D01*
X179044533Y-78254529D01*
X179055691Y-78223344D01*
X179069852Y-78193404D01*
X179086879Y-78164995D01*
X179106609Y-78138392D01*
X179128851Y-78113851D01*
X179153392Y-78091609D01*
X179179995Y-78071879D01*
X179208404Y-78054852D01*
X179238344Y-78040691D01*
X179269529Y-78029533D01*
X179301657Y-78021485D01*
X179334419Y-78016625D01*
X179367500Y-78015000D01*
X180042500Y-78015000D01*
X180075581Y-78016625D01*
X180075581Y-78016625D01*
G37*
D11*
X179705000Y-78740000D03*
G04 #@! TD*
D10*
G04 #@! TO.C,R16*
G36*
X175630581Y-79766625D02*
X175663343Y-79771485D01*
X175695471Y-79779533D01*
X175726656Y-79790691D01*
X175756596Y-79804852D01*
X175785005Y-79821879D01*
X175811608Y-79841609D01*
X175836149Y-79863851D01*
X175858391Y-79888392D01*
X175878121Y-79914995D01*
X175895148Y-79943404D01*
X175909309Y-79973344D01*
X175920467Y-80004529D01*
X175928515Y-80036657D01*
X175933375Y-80069419D01*
X175935000Y-80102500D01*
X175935000Y-80877500D01*
X175933375Y-80910581D01*
X175928515Y-80943343D01*
X175920467Y-80975471D01*
X175909309Y-81006656D01*
X175895148Y-81036596D01*
X175878121Y-81065005D01*
X175858391Y-81091608D01*
X175836149Y-81116149D01*
X175811608Y-81138391D01*
X175785005Y-81158121D01*
X175756596Y-81175148D01*
X175726656Y-81189309D01*
X175695471Y-81200467D01*
X175663343Y-81208515D01*
X175630581Y-81213375D01*
X175597500Y-81215000D01*
X174922500Y-81215000D01*
X174889419Y-81213375D01*
X174856657Y-81208515D01*
X174824529Y-81200467D01*
X174793344Y-81189309D01*
X174763404Y-81175148D01*
X174734995Y-81158121D01*
X174708392Y-81138391D01*
X174683851Y-81116149D01*
X174661609Y-81091608D01*
X174641879Y-81065005D01*
X174624852Y-81036596D01*
X174610691Y-81006656D01*
X174599533Y-80975471D01*
X174591485Y-80943343D01*
X174586625Y-80910581D01*
X174585000Y-80877500D01*
X174585000Y-80102500D01*
X174586625Y-80069419D01*
X174591485Y-80036657D01*
X174599533Y-80004529D01*
X174610691Y-79973344D01*
X174624852Y-79943404D01*
X174641879Y-79914995D01*
X174661609Y-79888392D01*
X174683851Y-79863851D01*
X174708392Y-79841609D01*
X174734995Y-79821879D01*
X174763404Y-79804852D01*
X174793344Y-79790691D01*
X174824529Y-79779533D01*
X174856657Y-79771485D01*
X174889419Y-79766625D01*
X174922500Y-79765000D01*
X175597500Y-79765000D01*
X175630581Y-79766625D01*
X175630581Y-79766625D01*
G37*
D11*
X175260000Y-80490000D03*
D10*
G36*
X175630581Y-78016625D02*
X175663343Y-78021485D01*
X175695471Y-78029533D01*
X175726656Y-78040691D01*
X175756596Y-78054852D01*
X175785005Y-78071879D01*
X175811608Y-78091609D01*
X175836149Y-78113851D01*
X175858391Y-78138392D01*
X175878121Y-78164995D01*
X175895148Y-78193404D01*
X175909309Y-78223344D01*
X175920467Y-78254529D01*
X175928515Y-78286657D01*
X175933375Y-78319419D01*
X175935000Y-78352500D01*
X175935000Y-79127500D01*
X175933375Y-79160581D01*
X175928515Y-79193343D01*
X175920467Y-79225471D01*
X175909309Y-79256656D01*
X175895148Y-79286596D01*
X175878121Y-79315005D01*
X175858391Y-79341608D01*
X175836149Y-79366149D01*
X175811608Y-79388391D01*
X175785005Y-79408121D01*
X175756596Y-79425148D01*
X175726656Y-79439309D01*
X175695471Y-79450467D01*
X175663343Y-79458515D01*
X175630581Y-79463375D01*
X175597500Y-79465000D01*
X174922500Y-79465000D01*
X174889419Y-79463375D01*
X174856657Y-79458515D01*
X174824529Y-79450467D01*
X174793344Y-79439309D01*
X174763404Y-79425148D01*
X174734995Y-79408121D01*
X174708392Y-79388391D01*
X174683851Y-79366149D01*
X174661609Y-79341608D01*
X174641879Y-79315005D01*
X174624852Y-79286596D01*
X174610691Y-79256656D01*
X174599533Y-79225471D01*
X174591485Y-79193343D01*
X174586625Y-79160581D01*
X174585000Y-79127500D01*
X174585000Y-78352500D01*
X174586625Y-78319419D01*
X174591485Y-78286657D01*
X174599533Y-78254529D01*
X174610691Y-78223344D01*
X174624852Y-78193404D01*
X174641879Y-78164995D01*
X174661609Y-78138392D01*
X174683851Y-78113851D01*
X174708392Y-78091609D01*
X174734995Y-78071879D01*
X174763404Y-78054852D01*
X174793344Y-78040691D01*
X174824529Y-78029533D01*
X174856657Y-78021485D01*
X174889419Y-78016625D01*
X174922500Y-78015000D01*
X175597500Y-78015000D01*
X175630581Y-78016625D01*
X175630581Y-78016625D01*
G37*
D11*
X175260000Y-78740000D03*
G04 #@! TD*
D12*
G04 #@! TO.C,J1*
X213995000Y-99260000D03*
X218995000Y-99260000D03*
X213995000Y-111760000D03*
X218995000Y-111760000D03*
G04 #@! TD*
D13*
G04 #@! TO.C,Conn1*
X113017000Y-111734000D03*
X105117000Y-111734000D03*
G04 #@! TD*
D14*
G04 #@! TO.C,U1*
X158750000Y-135890000D03*
X135890000Y-90170000D03*
X138430000Y-90170000D03*
X146050000Y-90170000D03*
X148590000Y-133350000D03*
X143510000Y-90170000D03*
X140970000Y-90170000D03*
X143510000Y-135890000D03*
X138430000Y-133350000D03*
X148590000Y-90170000D03*
X151130000Y-90170000D03*
X138430000Y-135890000D03*
X143510000Y-133350000D03*
X146050000Y-133350000D03*
X158750000Y-133350000D03*
X156210000Y-133350000D03*
X153670000Y-133350000D03*
X151130000Y-133350000D03*
X140970000Y-133350000D03*
X135890000Y-133350000D03*
X156210000Y-135890000D03*
X153670000Y-135890000D03*
X151130000Y-135890000D03*
X148590000Y-135890000D03*
X146050000Y-135890000D03*
X140970000Y-135890000D03*
X135890000Y-135890000D03*
X158750000Y-92710000D03*
X156210000Y-92710000D03*
X153670000Y-92710000D03*
X151130000Y-92710000D03*
X148590000Y-92710000D03*
X146050000Y-92710000D03*
X143510000Y-92710000D03*
X140970000Y-92710000D03*
X138430000Y-92710000D03*
X135890000Y-92710000D03*
X158750000Y-90170000D03*
X156210000Y-90170000D03*
X153670000Y-90170000D03*
X222250000Y-133350000D03*
X219710000Y-133350000D03*
X217170000Y-133350000D03*
X214630000Y-133350000D03*
X212090000Y-133350000D03*
X209550000Y-133350000D03*
X207010000Y-133350000D03*
X204470000Y-133350000D03*
X201930000Y-133350000D03*
X199390000Y-133350000D03*
X222250000Y-135890000D03*
X219710000Y-135890000D03*
X217170000Y-135890000D03*
X214630000Y-135890000D03*
X212090000Y-135890000D03*
X209550000Y-135890000D03*
X207010000Y-135890000D03*
X204470000Y-135890000D03*
X201930000Y-135890000D03*
X199390000Y-135890000D03*
X222250000Y-92710000D03*
X219710000Y-92710000D03*
X217170000Y-92710000D03*
X214630000Y-92710000D03*
X212090000Y-92710000D03*
X209550000Y-92710000D03*
X207010000Y-92710000D03*
X204470000Y-92710000D03*
X201930000Y-92710000D03*
X199390000Y-92710000D03*
X222250000Y-90170000D03*
X219710000Y-90170000D03*
X217170000Y-90170000D03*
X214630000Y-90170000D03*
X212090000Y-90170000D03*
X209550000Y-90170000D03*
X207010000Y-90170000D03*
X204470000Y-90170000D03*
X201930000Y-90170000D03*
X199390000Y-90170000D03*
G04 #@! TD*
D15*
G04 #@! TO.C,U2*
X106045000Y-99695000D03*
X108585000Y-99695000D03*
X111125000Y-99695000D03*
G04 #@! TD*
D10*
G04 #@! TO.C,C2*
G36*
X115990581Y-95211625D02*
X116023343Y-95216485D01*
X116055471Y-95224533D01*
X116086656Y-95235691D01*
X116116596Y-95249852D01*
X116145005Y-95266879D01*
X116171608Y-95286609D01*
X116196149Y-95308851D01*
X116218391Y-95333392D01*
X116238121Y-95359995D01*
X116255148Y-95388404D01*
X116269309Y-95418344D01*
X116280467Y-95449529D01*
X116288515Y-95481657D01*
X116293375Y-95514419D01*
X116295000Y-95547500D01*
X116295000Y-96222500D01*
X116293375Y-96255581D01*
X116288515Y-96288343D01*
X116280467Y-96320471D01*
X116269309Y-96351656D01*
X116255148Y-96381596D01*
X116238121Y-96410005D01*
X116218391Y-96436608D01*
X116196149Y-96461149D01*
X116171608Y-96483391D01*
X116145005Y-96503121D01*
X116116596Y-96520148D01*
X116086656Y-96534309D01*
X116055471Y-96545467D01*
X116023343Y-96553515D01*
X115990581Y-96558375D01*
X115957500Y-96560000D01*
X115182500Y-96560000D01*
X115149419Y-96558375D01*
X115116657Y-96553515D01*
X115084529Y-96545467D01*
X115053344Y-96534309D01*
X115023404Y-96520148D01*
X114994995Y-96503121D01*
X114968392Y-96483391D01*
X114943851Y-96461149D01*
X114921609Y-96436608D01*
X114901879Y-96410005D01*
X114884852Y-96381596D01*
X114870691Y-96351656D01*
X114859533Y-96320471D01*
X114851485Y-96288343D01*
X114846625Y-96255581D01*
X114845000Y-96222500D01*
X114845000Y-95547500D01*
X114846625Y-95514419D01*
X114851485Y-95481657D01*
X114859533Y-95449529D01*
X114870691Y-95418344D01*
X114884852Y-95388404D01*
X114901879Y-95359995D01*
X114921609Y-95333392D01*
X114943851Y-95308851D01*
X114968392Y-95286609D01*
X114994995Y-95266879D01*
X115023404Y-95249852D01*
X115053344Y-95235691D01*
X115084529Y-95224533D01*
X115116657Y-95216485D01*
X115149419Y-95211625D01*
X115182500Y-95210000D01*
X115957500Y-95210000D01*
X115990581Y-95211625D01*
X115990581Y-95211625D01*
G37*
D11*
X115570000Y-95885000D03*
D10*
G36*
X117740581Y-95211625D02*
X117773343Y-95216485D01*
X117805471Y-95224533D01*
X117836656Y-95235691D01*
X117866596Y-95249852D01*
X117895005Y-95266879D01*
X117921608Y-95286609D01*
X117946149Y-95308851D01*
X117968391Y-95333392D01*
X117988121Y-95359995D01*
X118005148Y-95388404D01*
X118019309Y-95418344D01*
X118030467Y-95449529D01*
X118038515Y-95481657D01*
X118043375Y-95514419D01*
X118045000Y-95547500D01*
X118045000Y-96222500D01*
X118043375Y-96255581D01*
X118038515Y-96288343D01*
X118030467Y-96320471D01*
X118019309Y-96351656D01*
X118005148Y-96381596D01*
X117988121Y-96410005D01*
X117968391Y-96436608D01*
X117946149Y-96461149D01*
X117921608Y-96483391D01*
X117895005Y-96503121D01*
X117866596Y-96520148D01*
X117836656Y-96534309D01*
X117805471Y-96545467D01*
X117773343Y-96553515D01*
X117740581Y-96558375D01*
X117707500Y-96560000D01*
X116932500Y-96560000D01*
X116899419Y-96558375D01*
X116866657Y-96553515D01*
X116834529Y-96545467D01*
X116803344Y-96534309D01*
X116773404Y-96520148D01*
X116744995Y-96503121D01*
X116718392Y-96483391D01*
X116693851Y-96461149D01*
X116671609Y-96436608D01*
X116651879Y-96410005D01*
X116634852Y-96381596D01*
X116620691Y-96351656D01*
X116609533Y-96320471D01*
X116601485Y-96288343D01*
X116596625Y-96255581D01*
X116595000Y-96222500D01*
X116595000Y-95547500D01*
X116596625Y-95514419D01*
X116601485Y-95481657D01*
X116609533Y-95449529D01*
X116620691Y-95418344D01*
X116634852Y-95388404D01*
X116651879Y-95359995D01*
X116671609Y-95333392D01*
X116693851Y-95308851D01*
X116718392Y-95286609D01*
X116744995Y-95266879D01*
X116773404Y-95249852D01*
X116803344Y-95235691D01*
X116834529Y-95224533D01*
X116866657Y-95216485D01*
X116899419Y-95211625D01*
X116932500Y-95210000D01*
X117707500Y-95210000D01*
X117740581Y-95211625D01*
X117740581Y-95211625D01*
G37*
D11*
X117320000Y-95885000D03*
G04 #@! TD*
D10*
G04 #@! TO.C,D1*
G36*
X214365581Y-122946625D02*
X214398343Y-122951485D01*
X214430471Y-122959533D01*
X214461656Y-122970691D01*
X214491596Y-122984852D01*
X214520005Y-123001879D01*
X214546608Y-123021609D01*
X214571149Y-123043851D01*
X214593391Y-123068392D01*
X214613121Y-123094995D01*
X214630148Y-123123404D01*
X214644309Y-123153344D01*
X214655467Y-123184529D01*
X214663515Y-123216657D01*
X214668375Y-123249419D01*
X214670000Y-123282500D01*
X214670000Y-124057500D01*
X214668375Y-124090581D01*
X214663515Y-124123343D01*
X214655467Y-124155471D01*
X214644309Y-124186656D01*
X214630148Y-124216596D01*
X214613121Y-124245005D01*
X214593391Y-124271608D01*
X214571149Y-124296149D01*
X214546608Y-124318391D01*
X214520005Y-124338121D01*
X214491596Y-124355148D01*
X214461656Y-124369309D01*
X214430471Y-124380467D01*
X214398343Y-124388515D01*
X214365581Y-124393375D01*
X214332500Y-124395000D01*
X213657500Y-124395000D01*
X213624419Y-124393375D01*
X213591657Y-124388515D01*
X213559529Y-124380467D01*
X213528344Y-124369309D01*
X213498404Y-124355148D01*
X213469995Y-124338121D01*
X213443392Y-124318391D01*
X213418851Y-124296149D01*
X213396609Y-124271608D01*
X213376879Y-124245005D01*
X213359852Y-124216596D01*
X213345691Y-124186656D01*
X213334533Y-124155471D01*
X213326485Y-124123343D01*
X213321625Y-124090581D01*
X213320000Y-124057500D01*
X213320000Y-123282500D01*
X213321625Y-123249419D01*
X213326485Y-123216657D01*
X213334533Y-123184529D01*
X213345691Y-123153344D01*
X213359852Y-123123404D01*
X213376879Y-123094995D01*
X213396609Y-123068392D01*
X213418851Y-123043851D01*
X213443392Y-123021609D01*
X213469995Y-123001879D01*
X213498404Y-122984852D01*
X213528344Y-122970691D01*
X213559529Y-122959533D01*
X213591657Y-122951485D01*
X213624419Y-122946625D01*
X213657500Y-122945000D01*
X214332500Y-122945000D01*
X214365581Y-122946625D01*
X214365581Y-122946625D01*
G37*
D11*
X213995000Y-123670000D03*
D10*
G36*
X214365581Y-121196625D02*
X214398343Y-121201485D01*
X214430471Y-121209533D01*
X214461656Y-121220691D01*
X214491596Y-121234852D01*
X214520005Y-121251879D01*
X214546608Y-121271609D01*
X214571149Y-121293851D01*
X214593391Y-121318392D01*
X214613121Y-121344995D01*
X214630148Y-121373404D01*
X214644309Y-121403344D01*
X214655467Y-121434529D01*
X214663515Y-121466657D01*
X214668375Y-121499419D01*
X214670000Y-121532500D01*
X214670000Y-122307500D01*
X214668375Y-122340581D01*
X214663515Y-122373343D01*
X214655467Y-122405471D01*
X214644309Y-122436656D01*
X214630148Y-122466596D01*
X214613121Y-122495005D01*
X214593391Y-122521608D01*
X214571149Y-122546149D01*
X214546608Y-122568391D01*
X214520005Y-122588121D01*
X214491596Y-122605148D01*
X214461656Y-122619309D01*
X214430471Y-122630467D01*
X214398343Y-122638515D01*
X214365581Y-122643375D01*
X214332500Y-122645000D01*
X213657500Y-122645000D01*
X213624419Y-122643375D01*
X213591657Y-122638515D01*
X213559529Y-122630467D01*
X213528344Y-122619309D01*
X213498404Y-122605148D01*
X213469995Y-122588121D01*
X213443392Y-122568391D01*
X213418851Y-122546149D01*
X213396609Y-122521608D01*
X213376879Y-122495005D01*
X213359852Y-122466596D01*
X213345691Y-122436656D01*
X213334533Y-122405471D01*
X213326485Y-122373343D01*
X213321625Y-122340581D01*
X213320000Y-122307500D01*
X213320000Y-121532500D01*
X213321625Y-121499419D01*
X213326485Y-121466657D01*
X213334533Y-121434529D01*
X213345691Y-121403344D01*
X213359852Y-121373404D01*
X213376879Y-121344995D01*
X213396609Y-121318392D01*
X213418851Y-121293851D01*
X213443392Y-121271609D01*
X213469995Y-121251879D01*
X213498404Y-121234852D01*
X213528344Y-121220691D01*
X213559529Y-121209533D01*
X213591657Y-121201485D01*
X213624419Y-121196625D01*
X213657500Y-121195000D01*
X214332500Y-121195000D01*
X214365581Y-121196625D01*
X214365581Y-121196625D01*
G37*
D11*
X213995000Y-121920000D03*
G04 #@! TD*
D10*
G04 #@! TO.C,D2*
G36*
X219445581Y-121196625D02*
X219478343Y-121201485D01*
X219510471Y-121209533D01*
X219541656Y-121220691D01*
X219571596Y-121234852D01*
X219600005Y-121251879D01*
X219626608Y-121271609D01*
X219651149Y-121293851D01*
X219673391Y-121318392D01*
X219693121Y-121344995D01*
X219710148Y-121373404D01*
X219724309Y-121403344D01*
X219735467Y-121434529D01*
X219743515Y-121466657D01*
X219748375Y-121499419D01*
X219750000Y-121532500D01*
X219750000Y-122307500D01*
X219748375Y-122340581D01*
X219743515Y-122373343D01*
X219735467Y-122405471D01*
X219724309Y-122436656D01*
X219710148Y-122466596D01*
X219693121Y-122495005D01*
X219673391Y-122521608D01*
X219651149Y-122546149D01*
X219626608Y-122568391D01*
X219600005Y-122588121D01*
X219571596Y-122605148D01*
X219541656Y-122619309D01*
X219510471Y-122630467D01*
X219478343Y-122638515D01*
X219445581Y-122643375D01*
X219412500Y-122645000D01*
X218737500Y-122645000D01*
X218704419Y-122643375D01*
X218671657Y-122638515D01*
X218639529Y-122630467D01*
X218608344Y-122619309D01*
X218578404Y-122605148D01*
X218549995Y-122588121D01*
X218523392Y-122568391D01*
X218498851Y-122546149D01*
X218476609Y-122521608D01*
X218456879Y-122495005D01*
X218439852Y-122466596D01*
X218425691Y-122436656D01*
X218414533Y-122405471D01*
X218406485Y-122373343D01*
X218401625Y-122340581D01*
X218400000Y-122307500D01*
X218400000Y-121532500D01*
X218401625Y-121499419D01*
X218406485Y-121466657D01*
X218414533Y-121434529D01*
X218425691Y-121403344D01*
X218439852Y-121373404D01*
X218456879Y-121344995D01*
X218476609Y-121318392D01*
X218498851Y-121293851D01*
X218523392Y-121271609D01*
X218549995Y-121251879D01*
X218578404Y-121234852D01*
X218608344Y-121220691D01*
X218639529Y-121209533D01*
X218671657Y-121201485D01*
X218704419Y-121196625D01*
X218737500Y-121195000D01*
X219412500Y-121195000D01*
X219445581Y-121196625D01*
X219445581Y-121196625D01*
G37*
D11*
X219075000Y-121920000D03*
D10*
G36*
X219445581Y-122946625D02*
X219478343Y-122951485D01*
X219510471Y-122959533D01*
X219541656Y-122970691D01*
X219571596Y-122984852D01*
X219600005Y-123001879D01*
X219626608Y-123021609D01*
X219651149Y-123043851D01*
X219673391Y-123068392D01*
X219693121Y-123094995D01*
X219710148Y-123123404D01*
X219724309Y-123153344D01*
X219735467Y-123184529D01*
X219743515Y-123216657D01*
X219748375Y-123249419D01*
X219750000Y-123282500D01*
X219750000Y-124057500D01*
X219748375Y-124090581D01*
X219743515Y-124123343D01*
X219735467Y-124155471D01*
X219724309Y-124186656D01*
X219710148Y-124216596D01*
X219693121Y-124245005D01*
X219673391Y-124271608D01*
X219651149Y-124296149D01*
X219626608Y-124318391D01*
X219600005Y-124338121D01*
X219571596Y-124355148D01*
X219541656Y-124369309D01*
X219510471Y-124380467D01*
X219478343Y-124388515D01*
X219445581Y-124393375D01*
X219412500Y-124395000D01*
X218737500Y-124395000D01*
X218704419Y-124393375D01*
X218671657Y-124388515D01*
X218639529Y-124380467D01*
X218608344Y-124369309D01*
X218578404Y-124355148D01*
X218549995Y-124338121D01*
X218523392Y-124318391D01*
X218498851Y-124296149D01*
X218476609Y-124271608D01*
X218456879Y-124245005D01*
X218439852Y-124216596D01*
X218425691Y-124186656D01*
X218414533Y-124155471D01*
X218406485Y-124123343D01*
X218401625Y-124090581D01*
X218400000Y-124057500D01*
X218400000Y-123282500D01*
X218401625Y-123249419D01*
X218406485Y-123216657D01*
X218414533Y-123184529D01*
X218425691Y-123153344D01*
X218439852Y-123123404D01*
X218456879Y-123094995D01*
X218476609Y-123068392D01*
X218498851Y-123043851D01*
X218523392Y-123021609D01*
X218549995Y-123001879D01*
X218578404Y-122984852D01*
X218608344Y-122970691D01*
X218639529Y-122959533D01*
X218671657Y-122951485D01*
X218704419Y-122946625D01*
X218737500Y-122945000D01*
X219412500Y-122945000D01*
X219445581Y-122946625D01*
X219445581Y-122946625D01*
G37*
D11*
X219075000Y-123670000D03*
G04 #@! TD*
D10*
G04 #@! TO.C,D3*
G36*
X194680581Y-121196625D02*
X194713343Y-121201485D01*
X194745471Y-121209533D01*
X194776656Y-121220691D01*
X194806596Y-121234852D01*
X194835005Y-121251879D01*
X194861608Y-121271609D01*
X194886149Y-121293851D01*
X194908391Y-121318392D01*
X194928121Y-121344995D01*
X194945148Y-121373404D01*
X194959309Y-121403344D01*
X194970467Y-121434529D01*
X194978515Y-121466657D01*
X194983375Y-121499419D01*
X194985000Y-121532500D01*
X194985000Y-122307500D01*
X194983375Y-122340581D01*
X194978515Y-122373343D01*
X194970467Y-122405471D01*
X194959309Y-122436656D01*
X194945148Y-122466596D01*
X194928121Y-122495005D01*
X194908391Y-122521608D01*
X194886149Y-122546149D01*
X194861608Y-122568391D01*
X194835005Y-122588121D01*
X194806596Y-122605148D01*
X194776656Y-122619309D01*
X194745471Y-122630467D01*
X194713343Y-122638515D01*
X194680581Y-122643375D01*
X194647500Y-122645000D01*
X193972500Y-122645000D01*
X193939419Y-122643375D01*
X193906657Y-122638515D01*
X193874529Y-122630467D01*
X193843344Y-122619309D01*
X193813404Y-122605148D01*
X193784995Y-122588121D01*
X193758392Y-122568391D01*
X193733851Y-122546149D01*
X193711609Y-122521608D01*
X193691879Y-122495005D01*
X193674852Y-122466596D01*
X193660691Y-122436656D01*
X193649533Y-122405471D01*
X193641485Y-122373343D01*
X193636625Y-122340581D01*
X193635000Y-122307500D01*
X193635000Y-121532500D01*
X193636625Y-121499419D01*
X193641485Y-121466657D01*
X193649533Y-121434529D01*
X193660691Y-121403344D01*
X193674852Y-121373404D01*
X193691879Y-121344995D01*
X193711609Y-121318392D01*
X193733851Y-121293851D01*
X193758392Y-121271609D01*
X193784995Y-121251879D01*
X193813404Y-121234852D01*
X193843344Y-121220691D01*
X193874529Y-121209533D01*
X193906657Y-121201485D01*
X193939419Y-121196625D01*
X193972500Y-121195000D01*
X194647500Y-121195000D01*
X194680581Y-121196625D01*
X194680581Y-121196625D01*
G37*
D11*
X194310000Y-121920000D03*
D10*
G36*
X194680581Y-122946625D02*
X194713343Y-122951485D01*
X194745471Y-122959533D01*
X194776656Y-122970691D01*
X194806596Y-122984852D01*
X194835005Y-123001879D01*
X194861608Y-123021609D01*
X194886149Y-123043851D01*
X194908391Y-123068392D01*
X194928121Y-123094995D01*
X194945148Y-123123404D01*
X194959309Y-123153344D01*
X194970467Y-123184529D01*
X194978515Y-123216657D01*
X194983375Y-123249419D01*
X194985000Y-123282500D01*
X194985000Y-124057500D01*
X194983375Y-124090581D01*
X194978515Y-124123343D01*
X194970467Y-124155471D01*
X194959309Y-124186656D01*
X194945148Y-124216596D01*
X194928121Y-124245005D01*
X194908391Y-124271608D01*
X194886149Y-124296149D01*
X194861608Y-124318391D01*
X194835005Y-124338121D01*
X194806596Y-124355148D01*
X194776656Y-124369309D01*
X194745471Y-124380467D01*
X194713343Y-124388515D01*
X194680581Y-124393375D01*
X194647500Y-124395000D01*
X193972500Y-124395000D01*
X193939419Y-124393375D01*
X193906657Y-124388515D01*
X193874529Y-124380467D01*
X193843344Y-124369309D01*
X193813404Y-124355148D01*
X193784995Y-124338121D01*
X193758392Y-124318391D01*
X193733851Y-124296149D01*
X193711609Y-124271608D01*
X193691879Y-124245005D01*
X193674852Y-124216596D01*
X193660691Y-124186656D01*
X193649533Y-124155471D01*
X193641485Y-124123343D01*
X193636625Y-124090581D01*
X193635000Y-124057500D01*
X193635000Y-123282500D01*
X193636625Y-123249419D01*
X193641485Y-123216657D01*
X193649533Y-123184529D01*
X193660691Y-123153344D01*
X193674852Y-123123404D01*
X193691879Y-123094995D01*
X193711609Y-123068392D01*
X193733851Y-123043851D01*
X193758392Y-123021609D01*
X193784995Y-123001879D01*
X193813404Y-122984852D01*
X193843344Y-122970691D01*
X193874529Y-122959533D01*
X193906657Y-122951485D01*
X193939419Y-122946625D01*
X193972500Y-122945000D01*
X194647500Y-122945000D01*
X194680581Y-122946625D01*
X194680581Y-122946625D01*
G37*
D11*
X194310000Y-123670000D03*
G04 #@! TD*
D10*
G04 #@! TO.C,D4*
G36*
X174995581Y-122946625D02*
X175028343Y-122951485D01*
X175060471Y-122959533D01*
X175091656Y-122970691D01*
X175121596Y-122984852D01*
X175150005Y-123001879D01*
X175176608Y-123021609D01*
X175201149Y-123043851D01*
X175223391Y-123068392D01*
X175243121Y-123094995D01*
X175260148Y-123123404D01*
X175274309Y-123153344D01*
X175285467Y-123184529D01*
X175293515Y-123216657D01*
X175298375Y-123249419D01*
X175300000Y-123282500D01*
X175300000Y-124057500D01*
X175298375Y-124090581D01*
X175293515Y-124123343D01*
X175285467Y-124155471D01*
X175274309Y-124186656D01*
X175260148Y-124216596D01*
X175243121Y-124245005D01*
X175223391Y-124271608D01*
X175201149Y-124296149D01*
X175176608Y-124318391D01*
X175150005Y-124338121D01*
X175121596Y-124355148D01*
X175091656Y-124369309D01*
X175060471Y-124380467D01*
X175028343Y-124388515D01*
X174995581Y-124393375D01*
X174962500Y-124395000D01*
X174287500Y-124395000D01*
X174254419Y-124393375D01*
X174221657Y-124388515D01*
X174189529Y-124380467D01*
X174158344Y-124369309D01*
X174128404Y-124355148D01*
X174099995Y-124338121D01*
X174073392Y-124318391D01*
X174048851Y-124296149D01*
X174026609Y-124271608D01*
X174006879Y-124245005D01*
X173989852Y-124216596D01*
X173975691Y-124186656D01*
X173964533Y-124155471D01*
X173956485Y-124123343D01*
X173951625Y-124090581D01*
X173950000Y-124057500D01*
X173950000Y-123282500D01*
X173951625Y-123249419D01*
X173956485Y-123216657D01*
X173964533Y-123184529D01*
X173975691Y-123153344D01*
X173989852Y-123123404D01*
X174006879Y-123094995D01*
X174026609Y-123068392D01*
X174048851Y-123043851D01*
X174073392Y-123021609D01*
X174099995Y-123001879D01*
X174128404Y-122984852D01*
X174158344Y-122970691D01*
X174189529Y-122959533D01*
X174221657Y-122951485D01*
X174254419Y-122946625D01*
X174287500Y-122945000D01*
X174962500Y-122945000D01*
X174995581Y-122946625D01*
X174995581Y-122946625D01*
G37*
D11*
X174625000Y-123670000D03*
D10*
G36*
X174995581Y-121196625D02*
X175028343Y-121201485D01*
X175060471Y-121209533D01*
X175091656Y-121220691D01*
X175121596Y-121234852D01*
X175150005Y-121251879D01*
X175176608Y-121271609D01*
X175201149Y-121293851D01*
X175223391Y-121318392D01*
X175243121Y-121344995D01*
X175260148Y-121373404D01*
X175274309Y-121403344D01*
X175285467Y-121434529D01*
X175293515Y-121466657D01*
X175298375Y-121499419D01*
X175300000Y-121532500D01*
X175300000Y-122307500D01*
X175298375Y-122340581D01*
X175293515Y-122373343D01*
X175285467Y-122405471D01*
X175274309Y-122436656D01*
X175260148Y-122466596D01*
X175243121Y-122495005D01*
X175223391Y-122521608D01*
X175201149Y-122546149D01*
X175176608Y-122568391D01*
X175150005Y-122588121D01*
X175121596Y-122605148D01*
X175091656Y-122619309D01*
X175060471Y-122630467D01*
X175028343Y-122638515D01*
X174995581Y-122643375D01*
X174962500Y-122645000D01*
X174287500Y-122645000D01*
X174254419Y-122643375D01*
X174221657Y-122638515D01*
X174189529Y-122630467D01*
X174158344Y-122619309D01*
X174128404Y-122605148D01*
X174099995Y-122588121D01*
X174073392Y-122568391D01*
X174048851Y-122546149D01*
X174026609Y-122521608D01*
X174006879Y-122495005D01*
X173989852Y-122466596D01*
X173975691Y-122436656D01*
X173964533Y-122405471D01*
X173956485Y-122373343D01*
X173951625Y-122340581D01*
X173950000Y-122307500D01*
X173950000Y-121532500D01*
X173951625Y-121499419D01*
X173956485Y-121466657D01*
X173964533Y-121434529D01*
X173975691Y-121403344D01*
X173989852Y-121373404D01*
X174006879Y-121344995D01*
X174026609Y-121318392D01*
X174048851Y-121293851D01*
X174073392Y-121271609D01*
X174099995Y-121251879D01*
X174128404Y-121234852D01*
X174158344Y-121220691D01*
X174189529Y-121209533D01*
X174221657Y-121201485D01*
X174254419Y-121196625D01*
X174287500Y-121195000D01*
X174962500Y-121195000D01*
X174995581Y-121196625D01*
X174995581Y-121196625D01*
G37*
D11*
X174625000Y-121920000D03*
G04 #@! TD*
D10*
G04 #@! TO.C,D5*
G36*
X199760581Y-121196625D02*
X199793343Y-121201485D01*
X199825471Y-121209533D01*
X199856656Y-121220691D01*
X199886596Y-121234852D01*
X199915005Y-121251879D01*
X199941608Y-121271609D01*
X199966149Y-121293851D01*
X199988391Y-121318392D01*
X200008121Y-121344995D01*
X200025148Y-121373404D01*
X200039309Y-121403344D01*
X200050467Y-121434529D01*
X200058515Y-121466657D01*
X200063375Y-121499419D01*
X200065000Y-121532500D01*
X200065000Y-122307500D01*
X200063375Y-122340581D01*
X200058515Y-122373343D01*
X200050467Y-122405471D01*
X200039309Y-122436656D01*
X200025148Y-122466596D01*
X200008121Y-122495005D01*
X199988391Y-122521608D01*
X199966149Y-122546149D01*
X199941608Y-122568391D01*
X199915005Y-122588121D01*
X199886596Y-122605148D01*
X199856656Y-122619309D01*
X199825471Y-122630467D01*
X199793343Y-122638515D01*
X199760581Y-122643375D01*
X199727500Y-122645000D01*
X199052500Y-122645000D01*
X199019419Y-122643375D01*
X198986657Y-122638515D01*
X198954529Y-122630467D01*
X198923344Y-122619309D01*
X198893404Y-122605148D01*
X198864995Y-122588121D01*
X198838392Y-122568391D01*
X198813851Y-122546149D01*
X198791609Y-122521608D01*
X198771879Y-122495005D01*
X198754852Y-122466596D01*
X198740691Y-122436656D01*
X198729533Y-122405471D01*
X198721485Y-122373343D01*
X198716625Y-122340581D01*
X198715000Y-122307500D01*
X198715000Y-121532500D01*
X198716625Y-121499419D01*
X198721485Y-121466657D01*
X198729533Y-121434529D01*
X198740691Y-121403344D01*
X198754852Y-121373404D01*
X198771879Y-121344995D01*
X198791609Y-121318392D01*
X198813851Y-121293851D01*
X198838392Y-121271609D01*
X198864995Y-121251879D01*
X198893404Y-121234852D01*
X198923344Y-121220691D01*
X198954529Y-121209533D01*
X198986657Y-121201485D01*
X199019419Y-121196625D01*
X199052500Y-121195000D01*
X199727500Y-121195000D01*
X199760581Y-121196625D01*
X199760581Y-121196625D01*
G37*
D11*
X199390000Y-121920000D03*
D10*
G36*
X199760581Y-122946625D02*
X199793343Y-122951485D01*
X199825471Y-122959533D01*
X199856656Y-122970691D01*
X199886596Y-122984852D01*
X199915005Y-123001879D01*
X199941608Y-123021609D01*
X199966149Y-123043851D01*
X199988391Y-123068392D01*
X200008121Y-123094995D01*
X200025148Y-123123404D01*
X200039309Y-123153344D01*
X200050467Y-123184529D01*
X200058515Y-123216657D01*
X200063375Y-123249419D01*
X200065000Y-123282500D01*
X200065000Y-124057500D01*
X200063375Y-124090581D01*
X200058515Y-124123343D01*
X200050467Y-124155471D01*
X200039309Y-124186656D01*
X200025148Y-124216596D01*
X200008121Y-124245005D01*
X199988391Y-124271608D01*
X199966149Y-124296149D01*
X199941608Y-124318391D01*
X199915005Y-124338121D01*
X199886596Y-124355148D01*
X199856656Y-124369309D01*
X199825471Y-124380467D01*
X199793343Y-124388515D01*
X199760581Y-124393375D01*
X199727500Y-124395000D01*
X199052500Y-124395000D01*
X199019419Y-124393375D01*
X198986657Y-124388515D01*
X198954529Y-124380467D01*
X198923344Y-124369309D01*
X198893404Y-124355148D01*
X198864995Y-124338121D01*
X198838392Y-124318391D01*
X198813851Y-124296149D01*
X198791609Y-124271608D01*
X198771879Y-124245005D01*
X198754852Y-124216596D01*
X198740691Y-124186656D01*
X198729533Y-124155471D01*
X198721485Y-124123343D01*
X198716625Y-124090581D01*
X198715000Y-124057500D01*
X198715000Y-123282500D01*
X198716625Y-123249419D01*
X198721485Y-123216657D01*
X198729533Y-123184529D01*
X198740691Y-123153344D01*
X198754852Y-123123404D01*
X198771879Y-123094995D01*
X198791609Y-123068392D01*
X198813851Y-123043851D01*
X198838392Y-123021609D01*
X198864995Y-123001879D01*
X198893404Y-122984852D01*
X198923344Y-122970691D01*
X198954529Y-122959533D01*
X198986657Y-122951485D01*
X199019419Y-122946625D01*
X199052500Y-122945000D01*
X199727500Y-122945000D01*
X199760581Y-122946625D01*
X199760581Y-122946625D01*
G37*
D11*
X199390000Y-123670000D03*
G04 #@! TD*
D10*
G04 #@! TO.C,D6*
G36*
X194680581Y-82461625D02*
X194713343Y-82466485D01*
X194745471Y-82474533D01*
X194776656Y-82485691D01*
X194806596Y-82499852D01*
X194835005Y-82516879D01*
X194861608Y-82536609D01*
X194886149Y-82558851D01*
X194908391Y-82583392D01*
X194928121Y-82609995D01*
X194945148Y-82638404D01*
X194959309Y-82668344D01*
X194970467Y-82699529D01*
X194978515Y-82731657D01*
X194983375Y-82764419D01*
X194985000Y-82797500D01*
X194985000Y-83572500D01*
X194983375Y-83605581D01*
X194978515Y-83638343D01*
X194970467Y-83670471D01*
X194959309Y-83701656D01*
X194945148Y-83731596D01*
X194928121Y-83760005D01*
X194908391Y-83786608D01*
X194886149Y-83811149D01*
X194861608Y-83833391D01*
X194835005Y-83853121D01*
X194806596Y-83870148D01*
X194776656Y-83884309D01*
X194745471Y-83895467D01*
X194713343Y-83903515D01*
X194680581Y-83908375D01*
X194647500Y-83910000D01*
X193972500Y-83910000D01*
X193939419Y-83908375D01*
X193906657Y-83903515D01*
X193874529Y-83895467D01*
X193843344Y-83884309D01*
X193813404Y-83870148D01*
X193784995Y-83853121D01*
X193758392Y-83833391D01*
X193733851Y-83811149D01*
X193711609Y-83786608D01*
X193691879Y-83760005D01*
X193674852Y-83731596D01*
X193660691Y-83701656D01*
X193649533Y-83670471D01*
X193641485Y-83638343D01*
X193636625Y-83605581D01*
X193635000Y-83572500D01*
X193635000Y-82797500D01*
X193636625Y-82764419D01*
X193641485Y-82731657D01*
X193649533Y-82699529D01*
X193660691Y-82668344D01*
X193674852Y-82638404D01*
X193691879Y-82609995D01*
X193711609Y-82583392D01*
X193733851Y-82558851D01*
X193758392Y-82536609D01*
X193784995Y-82516879D01*
X193813404Y-82499852D01*
X193843344Y-82485691D01*
X193874529Y-82474533D01*
X193906657Y-82466485D01*
X193939419Y-82461625D01*
X193972500Y-82460000D01*
X194647500Y-82460000D01*
X194680581Y-82461625D01*
X194680581Y-82461625D01*
G37*
D11*
X194310000Y-83185000D03*
D10*
G36*
X194680581Y-84211625D02*
X194713343Y-84216485D01*
X194745471Y-84224533D01*
X194776656Y-84235691D01*
X194806596Y-84249852D01*
X194835005Y-84266879D01*
X194861608Y-84286609D01*
X194886149Y-84308851D01*
X194908391Y-84333392D01*
X194928121Y-84359995D01*
X194945148Y-84388404D01*
X194959309Y-84418344D01*
X194970467Y-84449529D01*
X194978515Y-84481657D01*
X194983375Y-84514419D01*
X194985000Y-84547500D01*
X194985000Y-85322500D01*
X194983375Y-85355581D01*
X194978515Y-85388343D01*
X194970467Y-85420471D01*
X194959309Y-85451656D01*
X194945148Y-85481596D01*
X194928121Y-85510005D01*
X194908391Y-85536608D01*
X194886149Y-85561149D01*
X194861608Y-85583391D01*
X194835005Y-85603121D01*
X194806596Y-85620148D01*
X194776656Y-85634309D01*
X194745471Y-85645467D01*
X194713343Y-85653515D01*
X194680581Y-85658375D01*
X194647500Y-85660000D01*
X193972500Y-85660000D01*
X193939419Y-85658375D01*
X193906657Y-85653515D01*
X193874529Y-85645467D01*
X193843344Y-85634309D01*
X193813404Y-85620148D01*
X193784995Y-85603121D01*
X193758392Y-85583391D01*
X193733851Y-85561149D01*
X193711609Y-85536608D01*
X193691879Y-85510005D01*
X193674852Y-85481596D01*
X193660691Y-85451656D01*
X193649533Y-85420471D01*
X193641485Y-85388343D01*
X193636625Y-85355581D01*
X193635000Y-85322500D01*
X193635000Y-84547500D01*
X193636625Y-84514419D01*
X193641485Y-84481657D01*
X193649533Y-84449529D01*
X193660691Y-84418344D01*
X193674852Y-84388404D01*
X193691879Y-84359995D01*
X193711609Y-84333392D01*
X193733851Y-84308851D01*
X193758392Y-84286609D01*
X193784995Y-84266879D01*
X193813404Y-84249852D01*
X193843344Y-84235691D01*
X193874529Y-84224533D01*
X193906657Y-84216485D01*
X193939419Y-84211625D01*
X193972500Y-84210000D01*
X194647500Y-84210000D01*
X194680581Y-84211625D01*
X194680581Y-84211625D01*
G37*
D11*
X194310000Y-84935000D03*
G04 #@! TD*
D10*
G04 #@! TO.C,D7*
G36*
X180075581Y-121196625D02*
X180108343Y-121201485D01*
X180140471Y-121209533D01*
X180171656Y-121220691D01*
X180201596Y-121234852D01*
X180230005Y-121251879D01*
X180256608Y-121271609D01*
X180281149Y-121293851D01*
X180303391Y-121318392D01*
X180323121Y-121344995D01*
X180340148Y-121373404D01*
X180354309Y-121403344D01*
X180365467Y-121434529D01*
X180373515Y-121466657D01*
X180378375Y-121499419D01*
X180380000Y-121532500D01*
X180380000Y-122307500D01*
X180378375Y-122340581D01*
X180373515Y-122373343D01*
X180365467Y-122405471D01*
X180354309Y-122436656D01*
X180340148Y-122466596D01*
X180323121Y-122495005D01*
X180303391Y-122521608D01*
X180281149Y-122546149D01*
X180256608Y-122568391D01*
X180230005Y-122588121D01*
X180201596Y-122605148D01*
X180171656Y-122619309D01*
X180140471Y-122630467D01*
X180108343Y-122638515D01*
X180075581Y-122643375D01*
X180042500Y-122645000D01*
X179367500Y-122645000D01*
X179334419Y-122643375D01*
X179301657Y-122638515D01*
X179269529Y-122630467D01*
X179238344Y-122619309D01*
X179208404Y-122605148D01*
X179179995Y-122588121D01*
X179153392Y-122568391D01*
X179128851Y-122546149D01*
X179106609Y-122521608D01*
X179086879Y-122495005D01*
X179069852Y-122466596D01*
X179055691Y-122436656D01*
X179044533Y-122405471D01*
X179036485Y-122373343D01*
X179031625Y-122340581D01*
X179030000Y-122307500D01*
X179030000Y-121532500D01*
X179031625Y-121499419D01*
X179036485Y-121466657D01*
X179044533Y-121434529D01*
X179055691Y-121403344D01*
X179069852Y-121373404D01*
X179086879Y-121344995D01*
X179106609Y-121318392D01*
X179128851Y-121293851D01*
X179153392Y-121271609D01*
X179179995Y-121251879D01*
X179208404Y-121234852D01*
X179238344Y-121220691D01*
X179269529Y-121209533D01*
X179301657Y-121201485D01*
X179334419Y-121196625D01*
X179367500Y-121195000D01*
X180042500Y-121195000D01*
X180075581Y-121196625D01*
X180075581Y-121196625D01*
G37*
D11*
X179705000Y-121920000D03*
D10*
G36*
X180075581Y-122946625D02*
X180108343Y-122951485D01*
X180140471Y-122959533D01*
X180171656Y-122970691D01*
X180201596Y-122984852D01*
X180230005Y-123001879D01*
X180256608Y-123021609D01*
X180281149Y-123043851D01*
X180303391Y-123068392D01*
X180323121Y-123094995D01*
X180340148Y-123123404D01*
X180354309Y-123153344D01*
X180365467Y-123184529D01*
X180373515Y-123216657D01*
X180378375Y-123249419D01*
X180380000Y-123282500D01*
X180380000Y-124057500D01*
X180378375Y-124090581D01*
X180373515Y-124123343D01*
X180365467Y-124155471D01*
X180354309Y-124186656D01*
X180340148Y-124216596D01*
X180323121Y-124245005D01*
X180303391Y-124271608D01*
X180281149Y-124296149D01*
X180256608Y-124318391D01*
X180230005Y-124338121D01*
X180201596Y-124355148D01*
X180171656Y-124369309D01*
X180140471Y-124380467D01*
X180108343Y-124388515D01*
X180075581Y-124393375D01*
X180042500Y-124395000D01*
X179367500Y-124395000D01*
X179334419Y-124393375D01*
X179301657Y-124388515D01*
X179269529Y-124380467D01*
X179238344Y-124369309D01*
X179208404Y-124355148D01*
X179179995Y-124338121D01*
X179153392Y-124318391D01*
X179128851Y-124296149D01*
X179106609Y-124271608D01*
X179086879Y-124245005D01*
X179069852Y-124216596D01*
X179055691Y-124186656D01*
X179044533Y-124155471D01*
X179036485Y-124123343D01*
X179031625Y-124090581D01*
X179030000Y-124057500D01*
X179030000Y-123282500D01*
X179031625Y-123249419D01*
X179036485Y-123216657D01*
X179044533Y-123184529D01*
X179055691Y-123153344D01*
X179069852Y-123123404D01*
X179086879Y-123094995D01*
X179106609Y-123068392D01*
X179128851Y-123043851D01*
X179153392Y-123021609D01*
X179179995Y-123001879D01*
X179208404Y-122984852D01*
X179238344Y-122970691D01*
X179269529Y-122959533D01*
X179301657Y-122951485D01*
X179334419Y-122946625D01*
X179367500Y-122945000D01*
X180042500Y-122945000D01*
X180075581Y-122946625D01*
X180075581Y-122946625D01*
G37*
D11*
X179705000Y-123670000D03*
G04 #@! TD*
D10*
G04 #@! TO.C,D8*
G36*
X214365581Y-84211625D02*
X214398343Y-84216485D01*
X214430471Y-84224533D01*
X214461656Y-84235691D01*
X214491596Y-84249852D01*
X214520005Y-84266879D01*
X214546608Y-84286609D01*
X214571149Y-84308851D01*
X214593391Y-84333392D01*
X214613121Y-84359995D01*
X214630148Y-84388404D01*
X214644309Y-84418344D01*
X214655467Y-84449529D01*
X214663515Y-84481657D01*
X214668375Y-84514419D01*
X214670000Y-84547500D01*
X214670000Y-85322500D01*
X214668375Y-85355581D01*
X214663515Y-85388343D01*
X214655467Y-85420471D01*
X214644309Y-85451656D01*
X214630148Y-85481596D01*
X214613121Y-85510005D01*
X214593391Y-85536608D01*
X214571149Y-85561149D01*
X214546608Y-85583391D01*
X214520005Y-85603121D01*
X214491596Y-85620148D01*
X214461656Y-85634309D01*
X214430471Y-85645467D01*
X214398343Y-85653515D01*
X214365581Y-85658375D01*
X214332500Y-85660000D01*
X213657500Y-85660000D01*
X213624419Y-85658375D01*
X213591657Y-85653515D01*
X213559529Y-85645467D01*
X213528344Y-85634309D01*
X213498404Y-85620148D01*
X213469995Y-85603121D01*
X213443392Y-85583391D01*
X213418851Y-85561149D01*
X213396609Y-85536608D01*
X213376879Y-85510005D01*
X213359852Y-85481596D01*
X213345691Y-85451656D01*
X213334533Y-85420471D01*
X213326485Y-85388343D01*
X213321625Y-85355581D01*
X213320000Y-85322500D01*
X213320000Y-84547500D01*
X213321625Y-84514419D01*
X213326485Y-84481657D01*
X213334533Y-84449529D01*
X213345691Y-84418344D01*
X213359852Y-84388404D01*
X213376879Y-84359995D01*
X213396609Y-84333392D01*
X213418851Y-84308851D01*
X213443392Y-84286609D01*
X213469995Y-84266879D01*
X213498404Y-84249852D01*
X213528344Y-84235691D01*
X213559529Y-84224533D01*
X213591657Y-84216485D01*
X213624419Y-84211625D01*
X213657500Y-84210000D01*
X214332500Y-84210000D01*
X214365581Y-84211625D01*
X214365581Y-84211625D01*
G37*
D11*
X213995000Y-84935000D03*
D10*
G36*
X214365581Y-82461625D02*
X214398343Y-82466485D01*
X214430471Y-82474533D01*
X214461656Y-82485691D01*
X214491596Y-82499852D01*
X214520005Y-82516879D01*
X214546608Y-82536609D01*
X214571149Y-82558851D01*
X214593391Y-82583392D01*
X214613121Y-82609995D01*
X214630148Y-82638404D01*
X214644309Y-82668344D01*
X214655467Y-82699529D01*
X214663515Y-82731657D01*
X214668375Y-82764419D01*
X214670000Y-82797500D01*
X214670000Y-83572500D01*
X214668375Y-83605581D01*
X214663515Y-83638343D01*
X214655467Y-83670471D01*
X214644309Y-83701656D01*
X214630148Y-83731596D01*
X214613121Y-83760005D01*
X214593391Y-83786608D01*
X214571149Y-83811149D01*
X214546608Y-83833391D01*
X214520005Y-83853121D01*
X214491596Y-83870148D01*
X214461656Y-83884309D01*
X214430471Y-83895467D01*
X214398343Y-83903515D01*
X214365581Y-83908375D01*
X214332500Y-83910000D01*
X213657500Y-83910000D01*
X213624419Y-83908375D01*
X213591657Y-83903515D01*
X213559529Y-83895467D01*
X213528344Y-83884309D01*
X213498404Y-83870148D01*
X213469995Y-83853121D01*
X213443392Y-83833391D01*
X213418851Y-83811149D01*
X213396609Y-83786608D01*
X213376879Y-83760005D01*
X213359852Y-83731596D01*
X213345691Y-83701656D01*
X213334533Y-83670471D01*
X213326485Y-83638343D01*
X213321625Y-83605581D01*
X213320000Y-83572500D01*
X213320000Y-82797500D01*
X213321625Y-82764419D01*
X213326485Y-82731657D01*
X213334533Y-82699529D01*
X213345691Y-82668344D01*
X213359852Y-82638404D01*
X213376879Y-82609995D01*
X213396609Y-82583392D01*
X213418851Y-82558851D01*
X213443392Y-82536609D01*
X213469995Y-82516879D01*
X213498404Y-82499852D01*
X213528344Y-82485691D01*
X213559529Y-82474533D01*
X213591657Y-82466485D01*
X213624419Y-82461625D01*
X213657500Y-82460000D01*
X214332500Y-82460000D01*
X214365581Y-82461625D01*
X214365581Y-82461625D01*
G37*
D11*
X213995000Y-83185000D03*
G04 #@! TD*
D10*
G04 #@! TO.C,D9*
G36*
X155310581Y-121196625D02*
X155343343Y-121201485D01*
X155375471Y-121209533D01*
X155406656Y-121220691D01*
X155436596Y-121234852D01*
X155465005Y-121251879D01*
X155491608Y-121271609D01*
X155516149Y-121293851D01*
X155538391Y-121318392D01*
X155558121Y-121344995D01*
X155575148Y-121373404D01*
X155589309Y-121403344D01*
X155600467Y-121434529D01*
X155608515Y-121466657D01*
X155613375Y-121499419D01*
X155615000Y-121532500D01*
X155615000Y-122307500D01*
X155613375Y-122340581D01*
X155608515Y-122373343D01*
X155600467Y-122405471D01*
X155589309Y-122436656D01*
X155575148Y-122466596D01*
X155558121Y-122495005D01*
X155538391Y-122521608D01*
X155516149Y-122546149D01*
X155491608Y-122568391D01*
X155465005Y-122588121D01*
X155436596Y-122605148D01*
X155406656Y-122619309D01*
X155375471Y-122630467D01*
X155343343Y-122638515D01*
X155310581Y-122643375D01*
X155277500Y-122645000D01*
X154602500Y-122645000D01*
X154569419Y-122643375D01*
X154536657Y-122638515D01*
X154504529Y-122630467D01*
X154473344Y-122619309D01*
X154443404Y-122605148D01*
X154414995Y-122588121D01*
X154388392Y-122568391D01*
X154363851Y-122546149D01*
X154341609Y-122521608D01*
X154321879Y-122495005D01*
X154304852Y-122466596D01*
X154290691Y-122436656D01*
X154279533Y-122405471D01*
X154271485Y-122373343D01*
X154266625Y-122340581D01*
X154265000Y-122307500D01*
X154265000Y-121532500D01*
X154266625Y-121499419D01*
X154271485Y-121466657D01*
X154279533Y-121434529D01*
X154290691Y-121403344D01*
X154304852Y-121373404D01*
X154321879Y-121344995D01*
X154341609Y-121318392D01*
X154363851Y-121293851D01*
X154388392Y-121271609D01*
X154414995Y-121251879D01*
X154443404Y-121234852D01*
X154473344Y-121220691D01*
X154504529Y-121209533D01*
X154536657Y-121201485D01*
X154569419Y-121196625D01*
X154602500Y-121195000D01*
X155277500Y-121195000D01*
X155310581Y-121196625D01*
X155310581Y-121196625D01*
G37*
D11*
X154940000Y-121920000D03*
D10*
G36*
X155310581Y-122946625D02*
X155343343Y-122951485D01*
X155375471Y-122959533D01*
X155406656Y-122970691D01*
X155436596Y-122984852D01*
X155465005Y-123001879D01*
X155491608Y-123021609D01*
X155516149Y-123043851D01*
X155538391Y-123068392D01*
X155558121Y-123094995D01*
X155575148Y-123123404D01*
X155589309Y-123153344D01*
X155600467Y-123184529D01*
X155608515Y-123216657D01*
X155613375Y-123249419D01*
X155615000Y-123282500D01*
X155615000Y-124057500D01*
X155613375Y-124090581D01*
X155608515Y-124123343D01*
X155600467Y-124155471D01*
X155589309Y-124186656D01*
X155575148Y-124216596D01*
X155558121Y-124245005D01*
X155538391Y-124271608D01*
X155516149Y-124296149D01*
X155491608Y-124318391D01*
X155465005Y-124338121D01*
X155436596Y-124355148D01*
X155406656Y-124369309D01*
X155375471Y-124380467D01*
X155343343Y-124388515D01*
X155310581Y-124393375D01*
X155277500Y-124395000D01*
X154602500Y-124395000D01*
X154569419Y-124393375D01*
X154536657Y-124388515D01*
X154504529Y-124380467D01*
X154473344Y-124369309D01*
X154443404Y-124355148D01*
X154414995Y-124338121D01*
X154388392Y-124318391D01*
X154363851Y-124296149D01*
X154341609Y-124271608D01*
X154321879Y-124245005D01*
X154304852Y-124216596D01*
X154290691Y-124186656D01*
X154279533Y-124155471D01*
X154271485Y-124123343D01*
X154266625Y-124090581D01*
X154265000Y-124057500D01*
X154265000Y-123282500D01*
X154266625Y-123249419D01*
X154271485Y-123216657D01*
X154279533Y-123184529D01*
X154290691Y-123153344D01*
X154304852Y-123123404D01*
X154321879Y-123094995D01*
X154341609Y-123068392D01*
X154363851Y-123043851D01*
X154388392Y-123021609D01*
X154414995Y-123001879D01*
X154443404Y-122984852D01*
X154473344Y-122970691D01*
X154504529Y-122959533D01*
X154536657Y-122951485D01*
X154569419Y-122946625D01*
X154602500Y-122945000D01*
X155277500Y-122945000D01*
X155310581Y-122946625D01*
X155310581Y-122946625D01*
G37*
D11*
X154940000Y-123670000D03*
G04 #@! TD*
D10*
G04 #@! TO.C,D10*
G36*
X199760581Y-82461625D02*
X199793343Y-82466485D01*
X199825471Y-82474533D01*
X199856656Y-82485691D01*
X199886596Y-82499852D01*
X199915005Y-82516879D01*
X199941608Y-82536609D01*
X199966149Y-82558851D01*
X199988391Y-82583392D01*
X200008121Y-82609995D01*
X200025148Y-82638404D01*
X200039309Y-82668344D01*
X200050467Y-82699529D01*
X200058515Y-82731657D01*
X200063375Y-82764419D01*
X200065000Y-82797500D01*
X200065000Y-83572500D01*
X200063375Y-83605581D01*
X200058515Y-83638343D01*
X200050467Y-83670471D01*
X200039309Y-83701656D01*
X200025148Y-83731596D01*
X200008121Y-83760005D01*
X199988391Y-83786608D01*
X199966149Y-83811149D01*
X199941608Y-83833391D01*
X199915005Y-83853121D01*
X199886596Y-83870148D01*
X199856656Y-83884309D01*
X199825471Y-83895467D01*
X199793343Y-83903515D01*
X199760581Y-83908375D01*
X199727500Y-83910000D01*
X199052500Y-83910000D01*
X199019419Y-83908375D01*
X198986657Y-83903515D01*
X198954529Y-83895467D01*
X198923344Y-83884309D01*
X198893404Y-83870148D01*
X198864995Y-83853121D01*
X198838392Y-83833391D01*
X198813851Y-83811149D01*
X198791609Y-83786608D01*
X198771879Y-83760005D01*
X198754852Y-83731596D01*
X198740691Y-83701656D01*
X198729533Y-83670471D01*
X198721485Y-83638343D01*
X198716625Y-83605581D01*
X198715000Y-83572500D01*
X198715000Y-82797500D01*
X198716625Y-82764419D01*
X198721485Y-82731657D01*
X198729533Y-82699529D01*
X198740691Y-82668344D01*
X198754852Y-82638404D01*
X198771879Y-82609995D01*
X198791609Y-82583392D01*
X198813851Y-82558851D01*
X198838392Y-82536609D01*
X198864995Y-82516879D01*
X198893404Y-82499852D01*
X198923344Y-82485691D01*
X198954529Y-82474533D01*
X198986657Y-82466485D01*
X199019419Y-82461625D01*
X199052500Y-82460000D01*
X199727500Y-82460000D01*
X199760581Y-82461625D01*
X199760581Y-82461625D01*
G37*
D11*
X199390000Y-83185000D03*
D10*
G36*
X199760581Y-84211625D02*
X199793343Y-84216485D01*
X199825471Y-84224533D01*
X199856656Y-84235691D01*
X199886596Y-84249852D01*
X199915005Y-84266879D01*
X199941608Y-84286609D01*
X199966149Y-84308851D01*
X199988391Y-84333392D01*
X200008121Y-84359995D01*
X200025148Y-84388404D01*
X200039309Y-84418344D01*
X200050467Y-84449529D01*
X200058515Y-84481657D01*
X200063375Y-84514419D01*
X200065000Y-84547500D01*
X200065000Y-85322500D01*
X200063375Y-85355581D01*
X200058515Y-85388343D01*
X200050467Y-85420471D01*
X200039309Y-85451656D01*
X200025148Y-85481596D01*
X200008121Y-85510005D01*
X199988391Y-85536608D01*
X199966149Y-85561149D01*
X199941608Y-85583391D01*
X199915005Y-85603121D01*
X199886596Y-85620148D01*
X199856656Y-85634309D01*
X199825471Y-85645467D01*
X199793343Y-85653515D01*
X199760581Y-85658375D01*
X199727500Y-85660000D01*
X199052500Y-85660000D01*
X199019419Y-85658375D01*
X198986657Y-85653515D01*
X198954529Y-85645467D01*
X198923344Y-85634309D01*
X198893404Y-85620148D01*
X198864995Y-85603121D01*
X198838392Y-85583391D01*
X198813851Y-85561149D01*
X198791609Y-85536608D01*
X198771879Y-85510005D01*
X198754852Y-85481596D01*
X198740691Y-85451656D01*
X198729533Y-85420471D01*
X198721485Y-85388343D01*
X198716625Y-85355581D01*
X198715000Y-85322500D01*
X198715000Y-84547500D01*
X198716625Y-84514419D01*
X198721485Y-84481657D01*
X198729533Y-84449529D01*
X198740691Y-84418344D01*
X198754852Y-84388404D01*
X198771879Y-84359995D01*
X198791609Y-84333392D01*
X198813851Y-84308851D01*
X198838392Y-84286609D01*
X198864995Y-84266879D01*
X198893404Y-84249852D01*
X198923344Y-84235691D01*
X198954529Y-84224533D01*
X198986657Y-84216485D01*
X199019419Y-84211625D01*
X199052500Y-84210000D01*
X199727500Y-84210000D01*
X199760581Y-84211625D01*
X199760581Y-84211625D01*
G37*
D11*
X199390000Y-84935000D03*
G04 #@! TD*
D10*
G04 #@! TO.C,D11*
G36*
X137530581Y-121196625D02*
X137563343Y-121201485D01*
X137595471Y-121209533D01*
X137626656Y-121220691D01*
X137656596Y-121234852D01*
X137685005Y-121251879D01*
X137711608Y-121271609D01*
X137736149Y-121293851D01*
X137758391Y-121318392D01*
X137778121Y-121344995D01*
X137795148Y-121373404D01*
X137809309Y-121403344D01*
X137820467Y-121434529D01*
X137828515Y-121466657D01*
X137833375Y-121499419D01*
X137835000Y-121532500D01*
X137835000Y-122307500D01*
X137833375Y-122340581D01*
X137828515Y-122373343D01*
X137820467Y-122405471D01*
X137809309Y-122436656D01*
X137795148Y-122466596D01*
X137778121Y-122495005D01*
X137758391Y-122521608D01*
X137736149Y-122546149D01*
X137711608Y-122568391D01*
X137685005Y-122588121D01*
X137656596Y-122605148D01*
X137626656Y-122619309D01*
X137595471Y-122630467D01*
X137563343Y-122638515D01*
X137530581Y-122643375D01*
X137497500Y-122645000D01*
X136822500Y-122645000D01*
X136789419Y-122643375D01*
X136756657Y-122638515D01*
X136724529Y-122630467D01*
X136693344Y-122619309D01*
X136663404Y-122605148D01*
X136634995Y-122588121D01*
X136608392Y-122568391D01*
X136583851Y-122546149D01*
X136561609Y-122521608D01*
X136541879Y-122495005D01*
X136524852Y-122466596D01*
X136510691Y-122436656D01*
X136499533Y-122405471D01*
X136491485Y-122373343D01*
X136486625Y-122340581D01*
X136485000Y-122307500D01*
X136485000Y-121532500D01*
X136486625Y-121499419D01*
X136491485Y-121466657D01*
X136499533Y-121434529D01*
X136510691Y-121403344D01*
X136524852Y-121373404D01*
X136541879Y-121344995D01*
X136561609Y-121318392D01*
X136583851Y-121293851D01*
X136608392Y-121271609D01*
X136634995Y-121251879D01*
X136663404Y-121234852D01*
X136693344Y-121220691D01*
X136724529Y-121209533D01*
X136756657Y-121201485D01*
X136789419Y-121196625D01*
X136822500Y-121195000D01*
X137497500Y-121195000D01*
X137530581Y-121196625D01*
X137530581Y-121196625D01*
G37*
D11*
X137160000Y-121920000D03*
D10*
G36*
X137530581Y-122946625D02*
X137563343Y-122951485D01*
X137595471Y-122959533D01*
X137626656Y-122970691D01*
X137656596Y-122984852D01*
X137685005Y-123001879D01*
X137711608Y-123021609D01*
X137736149Y-123043851D01*
X137758391Y-123068392D01*
X137778121Y-123094995D01*
X137795148Y-123123404D01*
X137809309Y-123153344D01*
X137820467Y-123184529D01*
X137828515Y-123216657D01*
X137833375Y-123249419D01*
X137835000Y-123282500D01*
X137835000Y-124057500D01*
X137833375Y-124090581D01*
X137828515Y-124123343D01*
X137820467Y-124155471D01*
X137809309Y-124186656D01*
X137795148Y-124216596D01*
X137778121Y-124245005D01*
X137758391Y-124271608D01*
X137736149Y-124296149D01*
X137711608Y-124318391D01*
X137685005Y-124338121D01*
X137656596Y-124355148D01*
X137626656Y-124369309D01*
X137595471Y-124380467D01*
X137563343Y-124388515D01*
X137530581Y-124393375D01*
X137497500Y-124395000D01*
X136822500Y-124395000D01*
X136789419Y-124393375D01*
X136756657Y-124388515D01*
X136724529Y-124380467D01*
X136693344Y-124369309D01*
X136663404Y-124355148D01*
X136634995Y-124338121D01*
X136608392Y-124318391D01*
X136583851Y-124296149D01*
X136561609Y-124271608D01*
X136541879Y-124245005D01*
X136524852Y-124216596D01*
X136510691Y-124186656D01*
X136499533Y-124155471D01*
X136491485Y-124123343D01*
X136486625Y-124090581D01*
X136485000Y-124057500D01*
X136485000Y-123282500D01*
X136486625Y-123249419D01*
X136491485Y-123216657D01*
X136499533Y-123184529D01*
X136510691Y-123153344D01*
X136524852Y-123123404D01*
X136541879Y-123094995D01*
X136561609Y-123068392D01*
X136583851Y-123043851D01*
X136608392Y-123021609D01*
X136634995Y-123001879D01*
X136663404Y-122984852D01*
X136693344Y-122970691D01*
X136724529Y-122959533D01*
X136756657Y-122951485D01*
X136789419Y-122946625D01*
X136822500Y-122945000D01*
X137497500Y-122945000D01*
X137530581Y-122946625D01*
X137530581Y-122946625D01*
G37*
D11*
X137160000Y-123670000D03*
G04 #@! TD*
D10*
G04 #@! TO.C,D12*
G36*
X219445581Y-82461625D02*
X219478343Y-82466485D01*
X219510471Y-82474533D01*
X219541656Y-82485691D01*
X219571596Y-82499852D01*
X219600005Y-82516879D01*
X219626608Y-82536609D01*
X219651149Y-82558851D01*
X219673391Y-82583392D01*
X219693121Y-82609995D01*
X219710148Y-82638404D01*
X219724309Y-82668344D01*
X219735467Y-82699529D01*
X219743515Y-82731657D01*
X219748375Y-82764419D01*
X219750000Y-82797500D01*
X219750000Y-83572500D01*
X219748375Y-83605581D01*
X219743515Y-83638343D01*
X219735467Y-83670471D01*
X219724309Y-83701656D01*
X219710148Y-83731596D01*
X219693121Y-83760005D01*
X219673391Y-83786608D01*
X219651149Y-83811149D01*
X219626608Y-83833391D01*
X219600005Y-83853121D01*
X219571596Y-83870148D01*
X219541656Y-83884309D01*
X219510471Y-83895467D01*
X219478343Y-83903515D01*
X219445581Y-83908375D01*
X219412500Y-83910000D01*
X218737500Y-83910000D01*
X218704419Y-83908375D01*
X218671657Y-83903515D01*
X218639529Y-83895467D01*
X218608344Y-83884309D01*
X218578404Y-83870148D01*
X218549995Y-83853121D01*
X218523392Y-83833391D01*
X218498851Y-83811149D01*
X218476609Y-83786608D01*
X218456879Y-83760005D01*
X218439852Y-83731596D01*
X218425691Y-83701656D01*
X218414533Y-83670471D01*
X218406485Y-83638343D01*
X218401625Y-83605581D01*
X218400000Y-83572500D01*
X218400000Y-82797500D01*
X218401625Y-82764419D01*
X218406485Y-82731657D01*
X218414533Y-82699529D01*
X218425691Y-82668344D01*
X218439852Y-82638404D01*
X218456879Y-82609995D01*
X218476609Y-82583392D01*
X218498851Y-82558851D01*
X218523392Y-82536609D01*
X218549995Y-82516879D01*
X218578404Y-82499852D01*
X218608344Y-82485691D01*
X218639529Y-82474533D01*
X218671657Y-82466485D01*
X218704419Y-82461625D01*
X218737500Y-82460000D01*
X219412500Y-82460000D01*
X219445581Y-82461625D01*
X219445581Y-82461625D01*
G37*
D11*
X219075000Y-83185000D03*
D10*
G36*
X219445581Y-84211625D02*
X219478343Y-84216485D01*
X219510471Y-84224533D01*
X219541656Y-84235691D01*
X219571596Y-84249852D01*
X219600005Y-84266879D01*
X219626608Y-84286609D01*
X219651149Y-84308851D01*
X219673391Y-84333392D01*
X219693121Y-84359995D01*
X219710148Y-84388404D01*
X219724309Y-84418344D01*
X219735467Y-84449529D01*
X219743515Y-84481657D01*
X219748375Y-84514419D01*
X219750000Y-84547500D01*
X219750000Y-85322500D01*
X219748375Y-85355581D01*
X219743515Y-85388343D01*
X219735467Y-85420471D01*
X219724309Y-85451656D01*
X219710148Y-85481596D01*
X219693121Y-85510005D01*
X219673391Y-85536608D01*
X219651149Y-85561149D01*
X219626608Y-85583391D01*
X219600005Y-85603121D01*
X219571596Y-85620148D01*
X219541656Y-85634309D01*
X219510471Y-85645467D01*
X219478343Y-85653515D01*
X219445581Y-85658375D01*
X219412500Y-85660000D01*
X218737500Y-85660000D01*
X218704419Y-85658375D01*
X218671657Y-85653515D01*
X218639529Y-85645467D01*
X218608344Y-85634309D01*
X218578404Y-85620148D01*
X218549995Y-85603121D01*
X218523392Y-85583391D01*
X218498851Y-85561149D01*
X218476609Y-85536608D01*
X218456879Y-85510005D01*
X218439852Y-85481596D01*
X218425691Y-85451656D01*
X218414533Y-85420471D01*
X218406485Y-85388343D01*
X218401625Y-85355581D01*
X218400000Y-85322500D01*
X218400000Y-84547500D01*
X218401625Y-84514419D01*
X218406485Y-84481657D01*
X218414533Y-84449529D01*
X218425691Y-84418344D01*
X218439852Y-84388404D01*
X218456879Y-84359995D01*
X218476609Y-84333392D01*
X218498851Y-84308851D01*
X218523392Y-84286609D01*
X218549995Y-84266879D01*
X218578404Y-84249852D01*
X218608344Y-84235691D01*
X218639529Y-84224533D01*
X218671657Y-84216485D01*
X218704419Y-84211625D01*
X218737500Y-84210000D01*
X219412500Y-84210000D01*
X219445581Y-84211625D01*
X219445581Y-84211625D01*
G37*
D11*
X219075000Y-84935000D03*
G04 #@! TD*
D10*
G04 #@! TO.C,D13*
G36*
X137530581Y-84211625D02*
X137563343Y-84216485D01*
X137595471Y-84224533D01*
X137626656Y-84235691D01*
X137656596Y-84249852D01*
X137685005Y-84266879D01*
X137711608Y-84286609D01*
X137736149Y-84308851D01*
X137758391Y-84333392D01*
X137778121Y-84359995D01*
X137795148Y-84388404D01*
X137809309Y-84418344D01*
X137820467Y-84449529D01*
X137828515Y-84481657D01*
X137833375Y-84514419D01*
X137835000Y-84547500D01*
X137835000Y-85322500D01*
X137833375Y-85355581D01*
X137828515Y-85388343D01*
X137820467Y-85420471D01*
X137809309Y-85451656D01*
X137795148Y-85481596D01*
X137778121Y-85510005D01*
X137758391Y-85536608D01*
X137736149Y-85561149D01*
X137711608Y-85583391D01*
X137685005Y-85603121D01*
X137656596Y-85620148D01*
X137626656Y-85634309D01*
X137595471Y-85645467D01*
X137563343Y-85653515D01*
X137530581Y-85658375D01*
X137497500Y-85660000D01*
X136822500Y-85660000D01*
X136789419Y-85658375D01*
X136756657Y-85653515D01*
X136724529Y-85645467D01*
X136693344Y-85634309D01*
X136663404Y-85620148D01*
X136634995Y-85603121D01*
X136608392Y-85583391D01*
X136583851Y-85561149D01*
X136561609Y-85536608D01*
X136541879Y-85510005D01*
X136524852Y-85481596D01*
X136510691Y-85451656D01*
X136499533Y-85420471D01*
X136491485Y-85388343D01*
X136486625Y-85355581D01*
X136485000Y-85322500D01*
X136485000Y-84547500D01*
X136486625Y-84514419D01*
X136491485Y-84481657D01*
X136499533Y-84449529D01*
X136510691Y-84418344D01*
X136524852Y-84388404D01*
X136541879Y-84359995D01*
X136561609Y-84333392D01*
X136583851Y-84308851D01*
X136608392Y-84286609D01*
X136634995Y-84266879D01*
X136663404Y-84249852D01*
X136693344Y-84235691D01*
X136724529Y-84224533D01*
X136756657Y-84216485D01*
X136789419Y-84211625D01*
X136822500Y-84210000D01*
X137497500Y-84210000D01*
X137530581Y-84211625D01*
X137530581Y-84211625D01*
G37*
D11*
X137160000Y-84935000D03*
D10*
G36*
X137530581Y-82461625D02*
X137563343Y-82466485D01*
X137595471Y-82474533D01*
X137626656Y-82485691D01*
X137656596Y-82499852D01*
X137685005Y-82516879D01*
X137711608Y-82536609D01*
X137736149Y-82558851D01*
X137758391Y-82583392D01*
X137778121Y-82609995D01*
X137795148Y-82638404D01*
X137809309Y-82668344D01*
X137820467Y-82699529D01*
X137828515Y-82731657D01*
X137833375Y-82764419D01*
X137835000Y-82797500D01*
X137835000Y-83572500D01*
X137833375Y-83605581D01*
X137828515Y-83638343D01*
X137820467Y-83670471D01*
X137809309Y-83701656D01*
X137795148Y-83731596D01*
X137778121Y-83760005D01*
X137758391Y-83786608D01*
X137736149Y-83811149D01*
X137711608Y-83833391D01*
X137685005Y-83853121D01*
X137656596Y-83870148D01*
X137626656Y-83884309D01*
X137595471Y-83895467D01*
X137563343Y-83903515D01*
X137530581Y-83908375D01*
X137497500Y-83910000D01*
X136822500Y-83910000D01*
X136789419Y-83908375D01*
X136756657Y-83903515D01*
X136724529Y-83895467D01*
X136693344Y-83884309D01*
X136663404Y-83870148D01*
X136634995Y-83853121D01*
X136608392Y-83833391D01*
X136583851Y-83811149D01*
X136561609Y-83786608D01*
X136541879Y-83760005D01*
X136524852Y-83731596D01*
X136510691Y-83701656D01*
X136499533Y-83670471D01*
X136491485Y-83638343D01*
X136486625Y-83605581D01*
X136485000Y-83572500D01*
X136485000Y-82797500D01*
X136486625Y-82764419D01*
X136491485Y-82731657D01*
X136499533Y-82699529D01*
X136510691Y-82668344D01*
X136524852Y-82638404D01*
X136541879Y-82609995D01*
X136561609Y-82583392D01*
X136583851Y-82558851D01*
X136608392Y-82536609D01*
X136634995Y-82516879D01*
X136663404Y-82499852D01*
X136693344Y-82485691D01*
X136724529Y-82474533D01*
X136756657Y-82466485D01*
X136789419Y-82461625D01*
X136822500Y-82460000D01*
X137497500Y-82460000D01*
X137530581Y-82461625D01*
X137530581Y-82461625D01*
G37*
D11*
X137160000Y-83185000D03*
G04 #@! TD*
D10*
G04 #@! TO.C,D14*
G36*
X155310581Y-82461625D02*
X155343343Y-82466485D01*
X155375471Y-82474533D01*
X155406656Y-82485691D01*
X155436596Y-82499852D01*
X155465005Y-82516879D01*
X155491608Y-82536609D01*
X155516149Y-82558851D01*
X155538391Y-82583392D01*
X155558121Y-82609995D01*
X155575148Y-82638404D01*
X155589309Y-82668344D01*
X155600467Y-82699529D01*
X155608515Y-82731657D01*
X155613375Y-82764419D01*
X155615000Y-82797500D01*
X155615000Y-83572500D01*
X155613375Y-83605581D01*
X155608515Y-83638343D01*
X155600467Y-83670471D01*
X155589309Y-83701656D01*
X155575148Y-83731596D01*
X155558121Y-83760005D01*
X155538391Y-83786608D01*
X155516149Y-83811149D01*
X155491608Y-83833391D01*
X155465005Y-83853121D01*
X155436596Y-83870148D01*
X155406656Y-83884309D01*
X155375471Y-83895467D01*
X155343343Y-83903515D01*
X155310581Y-83908375D01*
X155277500Y-83910000D01*
X154602500Y-83910000D01*
X154569419Y-83908375D01*
X154536657Y-83903515D01*
X154504529Y-83895467D01*
X154473344Y-83884309D01*
X154443404Y-83870148D01*
X154414995Y-83853121D01*
X154388392Y-83833391D01*
X154363851Y-83811149D01*
X154341609Y-83786608D01*
X154321879Y-83760005D01*
X154304852Y-83731596D01*
X154290691Y-83701656D01*
X154279533Y-83670471D01*
X154271485Y-83638343D01*
X154266625Y-83605581D01*
X154265000Y-83572500D01*
X154265000Y-82797500D01*
X154266625Y-82764419D01*
X154271485Y-82731657D01*
X154279533Y-82699529D01*
X154290691Y-82668344D01*
X154304852Y-82638404D01*
X154321879Y-82609995D01*
X154341609Y-82583392D01*
X154363851Y-82558851D01*
X154388392Y-82536609D01*
X154414995Y-82516879D01*
X154443404Y-82499852D01*
X154473344Y-82485691D01*
X154504529Y-82474533D01*
X154536657Y-82466485D01*
X154569419Y-82461625D01*
X154602500Y-82460000D01*
X155277500Y-82460000D01*
X155310581Y-82461625D01*
X155310581Y-82461625D01*
G37*
D11*
X154940000Y-83185000D03*
D10*
G36*
X155310581Y-84211625D02*
X155343343Y-84216485D01*
X155375471Y-84224533D01*
X155406656Y-84235691D01*
X155436596Y-84249852D01*
X155465005Y-84266879D01*
X155491608Y-84286609D01*
X155516149Y-84308851D01*
X155538391Y-84333392D01*
X155558121Y-84359995D01*
X155575148Y-84388404D01*
X155589309Y-84418344D01*
X155600467Y-84449529D01*
X155608515Y-84481657D01*
X155613375Y-84514419D01*
X155615000Y-84547500D01*
X155615000Y-85322500D01*
X155613375Y-85355581D01*
X155608515Y-85388343D01*
X155600467Y-85420471D01*
X155589309Y-85451656D01*
X155575148Y-85481596D01*
X155558121Y-85510005D01*
X155538391Y-85536608D01*
X155516149Y-85561149D01*
X155491608Y-85583391D01*
X155465005Y-85603121D01*
X155436596Y-85620148D01*
X155406656Y-85634309D01*
X155375471Y-85645467D01*
X155343343Y-85653515D01*
X155310581Y-85658375D01*
X155277500Y-85660000D01*
X154602500Y-85660000D01*
X154569419Y-85658375D01*
X154536657Y-85653515D01*
X154504529Y-85645467D01*
X154473344Y-85634309D01*
X154443404Y-85620148D01*
X154414995Y-85603121D01*
X154388392Y-85583391D01*
X154363851Y-85561149D01*
X154341609Y-85536608D01*
X154321879Y-85510005D01*
X154304852Y-85481596D01*
X154290691Y-85451656D01*
X154279533Y-85420471D01*
X154271485Y-85388343D01*
X154266625Y-85355581D01*
X154265000Y-85322500D01*
X154265000Y-84547500D01*
X154266625Y-84514419D01*
X154271485Y-84481657D01*
X154279533Y-84449529D01*
X154290691Y-84418344D01*
X154304852Y-84388404D01*
X154321879Y-84359995D01*
X154341609Y-84333392D01*
X154363851Y-84308851D01*
X154388392Y-84286609D01*
X154414995Y-84266879D01*
X154443404Y-84249852D01*
X154473344Y-84235691D01*
X154504529Y-84224533D01*
X154536657Y-84216485D01*
X154569419Y-84211625D01*
X154602500Y-84210000D01*
X155277500Y-84210000D01*
X155310581Y-84211625D01*
X155310581Y-84211625D01*
G37*
D11*
X154940000Y-84935000D03*
G04 #@! TD*
D10*
G04 #@! TO.C,D15*
G36*
X160390581Y-122946625D02*
X160423343Y-122951485D01*
X160455471Y-122959533D01*
X160486656Y-122970691D01*
X160516596Y-122984852D01*
X160545005Y-123001879D01*
X160571608Y-123021609D01*
X160596149Y-123043851D01*
X160618391Y-123068392D01*
X160638121Y-123094995D01*
X160655148Y-123123404D01*
X160669309Y-123153344D01*
X160680467Y-123184529D01*
X160688515Y-123216657D01*
X160693375Y-123249419D01*
X160695000Y-123282500D01*
X160695000Y-124057500D01*
X160693375Y-124090581D01*
X160688515Y-124123343D01*
X160680467Y-124155471D01*
X160669309Y-124186656D01*
X160655148Y-124216596D01*
X160638121Y-124245005D01*
X160618391Y-124271608D01*
X160596149Y-124296149D01*
X160571608Y-124318391D01*
X160545005Y-124338121D01*
X160516596Y-124355148D01*
X160486656Y-124369309D01*
X160455471Y-124380467D01*
X160423343Y-124388515D01*
X160390581Y-124393375D01*
X160357500Y-124395000D01*
X159682500Y-124395000D01*
X159649419Y-124393375D01*
X159616657Y-124388515D01*
X159584529Y-124380467D01*
X159553344Y-124369309D01*
X159523404Y-124355148D01*
X159494995Y-124338121D01*
X159468392Y-124318391D01*
X159443851Y-124296149D01*
X159421609Y-124271608D01*
X159401879Y-124245005D01*
X159384852Y-124216596D01*
X159370691Y-124186656D01*
X159359533Y-124155471D01*
X159351485Y-124123343D01*
X159346625Y-124090581D01*
X159345000Y-124057500D01*
X159345000Y-123282500D01*
X159346625Y-123249419D01*
X159351485Y-123216657D01*
X159359533Y-123184529D01*
X159370691Y-123153344D01*
X159384852Y-123123404D01*
X159401879Y-123094995D01*
X159421609Y-123068392D01*
X159443851Y-123043851D01*
X159468392Y-123021609D01*
X159494995Y-123001879D01*
X159523404Y-122984852D01*
X159553344Y-122970691D01*
X159584529Y-122959533D01*
X159616657Y-122951485D01*
X159649419Y-122946625D01*
X159682500Y-122945000D01*
X160357500Y-122945000D01*
X160390581Y-122946625D01*
X160390581Y-122946625D01*
G37*
D11*
X160020000Y-123670000D03*
D10*
G36*
X160390581Y-121196625D02*
X160423343Y-121201485D01*
X160455471Y-121209533D01*
X160486656Y-121220691D01*
X160516596Y-121234852D01*
X160545005Y-121251879D01*
X160571608Y-121271609D01*
X160596149Y-121293851D01*
X160618391Y-121318392D01*
X160638121Y-121344995D01*
X160655148Y-121373404D01*
X160669309Y-121403344D01*
X160680467Y-121434529D01*
X160688515Y-121466657D01*
X160693375Y-121499419D01*
X160695000Y-121532500D01*
X160695000Y-122307500D01*
X160693375Y-122340581D01*
X160688515Y-122373343D01*
X160680467Y-122405471D01*
X160669309Y-122436656D01*
X160655148Y-122466596D01*
X160638121Y-122495005D01*
X160618391Y-122521608D01*
X160596149Y-122546149D01*
X160571608Y-122568391D01*
X160545005Y-122588121D01*
X160516596Y-122605148D01*
X160486656Y-122619309D01*
X160455471Y-122630467D01*
X160423343Y-122638515D01*
X160390581Y-122643375D01*
X160357500Y-122645000D01*
X159682500Y-122645000D01*
X159649419Y-122643375D01*
X159616657Y-122638515D01*
X159584529Y-122630467D01*
X159553344Y-122619309D01*
X159523404Y-122605148D01*
X159494995Y-122588121D01*
X159468392Y-122568391D01*
X159443851Y-122546149D01*
X159421609Y-122521608D01*
X159401879Y-122495005D01*
X159384852Y-122466596D01*
X159370691Y-122436656D01*
X159359533Y-122405471D01*
X159351485Y-122373343D01*
X159346625Y-122340581D01*
X159345000Y-122307500D01*
X159345000Y-121532500D01*
X159346625Y-121499419D01*
X159351485Y-121466657D01*
X159359533Y-121434529D01*
X159370691Y-121403344D01*
X159384852Y-121373404D01*
X159401879Y-121344995D01*
X159421609Y-121318392D01*
X159443851Y-121293851D01*
X159468392Y-121271609D01*
X159494995Y-121251879D01*
X159523404Y-121234852D01*
X159553344Y-121220691D01*
X159584529Y-121209533D01*
X159616657Y-121201485D01*
X159649419Y-121196625D01*
X159682500Y-121195000D01*
X160357500Y-121195000D01*
X160390581Y-121196625D01*
X160390581Y-121196625D01*
G37*
D11*
X160020000Y-121920000D03*
G04 #@! TD*
D10*
G04 #@! TO.C,D16*
G36*
X175630581Y-84211625D02*
X175663343Y-84216485D01*
X175695471Y-84224533D01*
X175726656Y-84235691D01*
X175756596Y-84249852D01*
X175785005Y-84266879D01*
X175811608Y-84286609D01*
X175836149Y-84308851D01*
X175858391Y-84333392D01*
X175878121Y-84359995D01*
X175895148Y-84388404D01*
X175909309Y-84418344D01*
X175920467Y-84449529D01*
X175928515Y-84481657D01*
X175933375Y-84514419D01*
X175935000Y-84547500D01*
X175935000Y-85322500D01*
X175933375Y-85355581D01*
X175928515Y-85388343D01*
X175920467Y-85420471D01*
X175909309Y-85451656D01*
X175895148Y-85481596D01*
X175878121Y-85510005D01*
X175858391Y-85536608D01*
X175836149Y-85561149D01*
X175811608Y-85583391D01*
X175785005Y-85603121D01*
X175756596Y-85620148D01*
X175726656Y-85634309D01*
X175695471Y-85645467D01*
X175663343Y-85653515D01*
X175630581Y-85658375D01*
X175597500Y-85660000D01*
X174922500Y-85660000D01*
X174889419Y-85658375D01*
X174856657Y-85653515D01*
X174824529Y-85645467D01*
X174793344Y-85634309D01*
X174763404Y-85620148D01*
X174734995Y-85603121D01*
X174708392Y-85583391D01*
X174683851Y-85561149D01*
X174661609Y-85536608D01*
X174641879Y-85510005D01*
X174624852Y-85481596D01*
X174610691Y-85451656D01*
X174599533Y-85420471D01*
X174591485Y-85388343D01*
X174586625Y-85355581D01*
X174585000Y-85322500D01*
X174585000Y-84547500D01*
X174586625Y-84514419D01*
X174591485Y-84481657D01*
X174599533Y-84449529D01*
X174610691Y-84418344D01*
X174624852Y-84388404D01*
X174641879Y-84359995D01*
X174661609Y-84333392D01*
X174683851Y-84308851D01*
X174708392Y-84286609D01*
X174734995Y-84266879D01*
X174763404Y-84249852D01*
X174793344Y-84235691D01*
X174824529Y-84224533D01*
X174856657Y-84216485D01*
X174889419Y-84211625D01*
X174922500Y-84210000D01*
X175597500Y-84210000D01*
X175630581Y-84211625D01*
X175630581Y-84211625D01*
G37*
D11*
X175260000Y-84935000D03*
D10*
G36*
X175630581Y-82461625D02*
X175663343Y-82466485D01*
X175695471Y-82474533D01*
X175726656Y-82485691D01*
X175756596Y-82499852D01*
X175785005Y-82516879D01*
X175811608Y-82536609D01*
X175836149Y-82558851D01*
X175858391Y-82583392D01*
X175878121Y-82609995D01*
X175895148Y-82638404D01*
X175909309Y-82668344D01*
X175920467Y-82699529D01*
X175928515Y-82731657D01*
X175933375Y-82764419D01*
X175935000Y-82797500D01*
X175935000Y-83572500D01*
X175933375Y-83605581D01*
X175928515Y-83638343D01*
X175920467Y-83670471D01*
X175909309Y-83701656D01*
X175895148Y-83731596D01*
X175878121Y-83760005D01*
X175858391Y-83786608D01*
X175836149Y-83811149D01*
X175811608Y-83833391D01*
X175785005Y-83853121D01*
X175756596Y-83870148D01*
X175726656Y-83884309D01*
X175695471Y-83895467D01*
X175663343Y-83903515D01*
X175630581Y-83908375D01*
X175597500Y-83910000D01*
X174922500Y-83910000D01*
X174889419Y-83908375D01*
X174856657Y-83903515D01*
X174824529Y-83895467D01*
X174793344Y-83884309D01*
X174763404Y-83870148D01*
X174734995Y-83853121D01*
X174708392Y-83833391D01*
X174683851Y-83811149D01*
X174661609Y-83786608D01*
X174641879Y-83760005D01*
X174624852Y-83731596D01*
X174610691Y-83701656D01*
X174599533Y-83670471D01*
X174591485Y-83638343D01*
X174586625Y-83605581D01*
X174585000Y-83572500D01*
X174585000Y-82797500D01*
X174586625Y-82764419D01*
X174591485Y-82731657D01*
X174599533Y-82699529D01*
X174610691Y-82668344D01*
X174624852Y-82638404D01*
X174641879Y-82609995D01*
X174661609Y-82583392D01*
X174683851Y-82558851D01*
X174708392Y-82536609D01*
X174734995Y-82516879D01*
X174763404Y-82499852D01*
X174793344Y-82485691D01*
X174824529Y-82474533D01*
X174856657Y-82466485D01*
X174889419Y-82461625D01*
X174922500Y-82460000D01*
X175597500Y-82460000D01*
X175630581Y-82461625D01*
X175630581Y-82461625D01*
G37*
D11*
X175260000Y-83185000D03*
G04 #@! TD*
D10*
G04 #@! TO.C,D17*
G36*
X142610581Y-122946625D02*
X142643343Y-122951485D01*
X142675471Y-122959533D01*
X142706656Y-122970691D01*
X142736596Y-122984852D01*
X142765005Y-123001879D01*
X142791608Y-123021609D01*
X142816149Y-123043851D01*
X142838391Y-123068392D01*
X142858121Y-123094995D01*
X142875148Y-123123404D01*
X142889309Y-123153344D01*
X142900467Y-123184529D01*
X142908515Y-123216657D01*
X142913375Y-123249419D01*
X142915000Y-123282500D01*
X142915000Y-124057500D01*
X142913375Y-124090581D01*
X142908515Y-124123343D01*
X142900467Y-124155471D01*
X142889309Y-124186656D01*
X142875148Y-124216596D01*
X142858121Y-124245005D01*
X142838391Y-124271608D01*
X142816149Y-124296149D01*
X142791608Y-124318391D01*
X142765005Y-124338121D01*
X142736596Y-124355148D01*
X142706656Y-124369309D01*
X142675471Y-124380467D01*
X142643343Y-124388515D01*
X142610581Y-124393375D01*
X142577500Y-124395000D01*
X141902500Y-124395000D01*
X141869419Y-124393375D01*
X141836657Y-124388515D01*
X141804529Y-124380467D01*
X141773344Y-124369309D01*
X141743404Y-124355148D01*
X141714995Y-124338121D01*
X141688392Y-124318391D01*
X141663851Y-124296149D01*
X141641609Y-124271608D01*
X141621879Y-124245005D01*
X141604852Y-124216596D01*
X141590691Y-124186656D01*
X141579533Y-124155471D01*
X141571485Y-124123343D01*
X141566625Y-124090581D01*
X141565000Y-124057500D01*
X141565000Y-123282500D01*
X141566625Y-123249419D01*
X141571485Y-123216657D01*
X141579533Y-123184529D01*
X141590691Y-123153344D01*
X141604852Y-123123404D01*
X141621879Y-123094995D01*
X141641609Y-123068392D01*
X141663851Y-123043851D01*
X141688392Y-123021609D01*
X141714995Y-123001879D01*
X141743404Y-122984852D01*
X141773344Y-122970691D01*
X141804529Y-122959533D01*
X141836657Y-122951485D01*
X141869419Y-122946625D01*
X141902500Y-122945000D01*
X142577500Y-122945000D01*
X142610581Y-122946625D01*
X142610581Y-122946625D01*
G37*
D11*
X142240000Y-123670000D03*
D10*
G36*
X142610581Y-121196625D02*
X142643343Y-121201485D01*
X142675471Y-121209533D01*
X142706656Y-121220691D01*
X142736596Y-121234852D01*
X142765005Y-121251879D01*
X142791608Y-121271609D01*
X142816149Y-121293851D01*
X142838391Y-121318392D01*
X142858121Y-121344995D01*
X142875148Y-121373404D01*
X142889309Y-121403344D01*
X142900467Y-121434529D01*
X142908515Y-121466657D01*
X142913375Y-121499419D01*
X142915000Y-121532500D01*
X142915000Y-122307500D01*
X142913375Y-122340581D01*
X142908515Y-122373343D01*
X142900467Y-122405471D01*
X142889309Y-122436656D01*
X142875148Y-122466596D01*
X142858121Y-122495005D01*
X142838391Y-122521608D01*
X142816149Y-122546149D01*
X142791608Y-122568391D01*
X142765005Y-122588121D01*
X142736596Y-122605148D01*
X142706656Y-122619309D01*
X142675471Y-122630467D01*
X142643343Y-122638515D01*
X142610581Y-122643375D01*
X142577500Y-122645000D01*
X141902500Y-122645000D01*
X141869419Y-122643375D01*
X141836657Y-122638515D01*
X141804529Y-122630467D01*
X141773344Y-122619309D01*
X141743404Y-122605148D01*
X141714995Y-122588121D01*
X141688392Y-122568391D01*
X141663851Y-122546149D01*
X141641609Y-122521608D01*
X141621879Y-122495005D01*
X141604852Y-122466596D01*
X141590691Y-122436656D01*
X141579533Y-122405471D01*
X141571485Y-122373343D01*
X141566625Y-122340581D01*
X141565000Y-122307500D01*
X141565000Y-121532500D01*
X141566625Y-121499419D01*
X141571485Y-121466657D01*
X141579533Y-121434529D01*
X141590691Y-121403344D01*
X141604852Y-121373404D01*
X141621879Y-121344995D01*
X141641609Y-121318392D01*
X141663851Y-121293851D01*
X141688392Y-121271609D01*
X141714995Y-121251879D01*
X141743404Y-121234852D01*
X141773344Y-121220691D01*
X141804529Y-121209533D01*
X141836657Y-121201485D01*
X141869419Y-121196625D01*
X141902500Y-121195000D01*
X142577500Y-121195000D01*
X142610581Y-121196625D01*
X142610581Y-121196625D01*
G37*
D11*
X142240000Y-121920000D03*
G04 #@! TD*
D10*
G04 #@! TO.C,D18*
G36*
X142610581Y-84211625D02*
X142643343Y-84216485D01*
X142675471Y-84224533D01*
X142706656Y-84235691D01*
X142736596Y-84249852D01*
X142765005Y-84266879D01*
X142791608Y-84286609D01*
X142816149Y-84308851D01*
X142838391Y-84333392D01*
X142858121Y-84359995D01*
X142875148Y-84388404D01*
X142889309Y-84418344D01*
X142900467Y-84449529D01*
X142908515Y-84481657D01*
X142913375Y-84514419D01*
X142915000Y-84547500D01*
X142915000Y-85322500D01*
X142913375Y-85355581D01*
X142908515Y-85388343D01*
X142900467Y-85420471D01*
X142889309Y-85451656D01*
X142875148Y-85481596D01*
X142858121Y-85510005D01*
X142838391Y-85536608D01*
X142816149Y-85561149D01*
X142791608Y-85583391D01*
X142765005Y-85603121D01*
X142736596Y-85620148D01*
X142706656Y-85634309D01*
X142675471Y-85645467D01*
X142643343Y-85653515D01*
X142610581Y-85658375D01*
X142577500Y-85660000D01*
X141902500Y-85660000D01*
X141869419Y-85658375D01*
X141836657Y-85653515D01*
X141804529Y-85645467D01*
X141773344Y-85634309D01*
X141743404Y-85620148D01*
X141714995Y-85603121D01*
X141688392Y-85583391D01*
X141663851Y-85561149D01*
X141641609Y-85536608D01*
X141621879Y-85510005D01*
X141604852Y-85481596D01*
X141590691Y-85451656D01*
X141579533Y-85420471D01*
X141571485Y-85388343D01*
X141566625Y-85355581D01*
X141565000Y-85322500D01*
X141565000Y-84547500D01*
X141566625Y-84514419D01*
X141571485Y-84481657D01*
X141579533Y-84449529D01*
X141590691Y-84418344D01*
X141604852Y-84388404D01*
X141621879Y-84359995D01*
X141641609Y-84333392D01*
X141663851Y-84308851D01*
X141688392Y-84286609D01*
X141714995Y-84266879D01*
X141743404Y-84249852D01*
X141773344Y-84235691D01*
X141804529Y-84224533D01*
X141836657Y-84216485D01*
X141869419Y-84211625D01*
X141902500Y-84210000D01*
X142577500Y-84210000D01*
X142610581Y-84211625D01*
X142610581Y-84211625D01*
G37*
D11*
X142240000Y-84935000D03*
D10*
G36*
X142610581Y-82461625D02*
X142643343Y-82466485D01*
X142675471Y-82474533D01*
X142706656Y-82485691D01*
X142736596Y-82499852D01*
X142765005Y-82516879D01*
X142791608Y-82536609D01*
X142816149Y-82558851D01*
X142838391Y-82583392D01*
X142858121Y-82609995D01*
X142875148Y-82638404D01*
X142889309Y-82668344D01*
X142900467Y-82699529D01*
X142908515Y-82731657D01*
X142913375Y-82764419D01*
X142915000Y-82797500D01*
X142915000Y-83572500D01*
X142913375Y-83605581D01*
X142908515Y-83638343D01*
X142900467Y-83670471D01*
X142889309Y-83701656D01*
X142875148Y-83731596D01*
X142858121Y-83760005D01*
X142838391Y-83786608D01*
X142816149Y-83811149D01*
X142791608Y-83833391D01*
X142765005Y-83853121D01*
X142736596Y-83870148D01*
X142706656Y-83884309D01*
X142675471Y-83895467D01*
X142643343Y-83903515D01*
X142610581Y-83908375D01*
X142577500Y-83910000D01*
X141902500Y-83910000D01*
X141869419Y-83908375D01*
X141836657Y-83903515D01*
X141804529Y-83895467D01*
X141773344Y-83884309D01*
X141743404Y-83870148D01*
X141714995Y-83853121D01*
X141688392Y-83833391D01*
X141663851Y-83811149D01*
X141641609Y-83786608D01*
X141621879Y-83760005D01*
X141604852Y-83731596D01*
X141590691Y-83701656D01*
X141579533Y-83670471D01*
X141571485Y-83638343D01*
X141566625Y-83605581D01*
X141565000Y-83572500D01*
X141565000Y-82797500D01*
X141566625Y-82764419D01*
X141571485Y-82731657D01*
X141579533Y-82699529D01*
X141590691Y-82668344D01*
X141604852Y-82638404D01*
X141621879Y-82609995D01*
X141641609Y-82583392D01*
X141663851Y-82558851D01*
X141688392Y-82536609D01*
X141714995Y-82516879D01*
X141743404Y-82499852D01*
X141773344Y-82485691D01*
X141804529Y-82474533D01*
X141836657Y-82466485D01*
X141869419Y-82461625D01*
X141902500Y-82460000D01*
X142577500Y-82460000D01*
X142610581Y-82461625D01*
X142610581Y-82461625D01*
G37*
D11*
X142240000Y-83185000D03*
G04 #@! TD*
D10*
G04 #@! TO.C,D19*
G36*
X160390581Y-84211625D02*
X160423343Y-84216485D01*
X160455471Y-84224533D01*
X160486656Y-84235691D01*
X160516596Y-84249852D01*
X160545005Y-84266879D01*
X160571608Y-84286609D01*
X160596149Y-84308851D01*
X160618391Y-84333392D01*
X160638121Y-84359995D01*
X160655148Y-84388404D01*
X160669309Y-84418344D01*
X160680467Y-84449529D01*
X160688515Y-84481657D01*
X160693375Y-84514419D01*
X160695000Y-84547500D01*
X160695000Y-85322500D01*
X160693375Y-85355581D01*
X160688515Y-85388343D01*
X160680467Y-85420471D01*
X160669309Y-85451656D01*
X160655148Y-85481596D01*
X160638121Y-85510005D01*
X160618391Y-85536608D01*
X160596149Y-85561149D01*
X160571608Y-85583391D01*
X160545005Y-85603121D01*
X160516596Y-85620148D01*
X160486656Y-85634309D01*
X160455471Y-85645467D01*
X160423343Y-85653515D01*
X160390581Y-85658375D01*
X160357500Y-85660000D01*
X159682500Y-85660000D01*
X159649419Y-85658375D01*
X159616657Y-85653515D01*
X159584529Y-85645467D01*
X159553344Y-85634309D01*
X159523404Y-85620148D01*
X159494995Y-85603121D01*
X159468392Y-85583391D01*
X159443851Y-85561149D01*
X159421609Y-85536608D01*
X159401879Y-85510005D01*
X159384852Y-85481596D01*
X159370691Y-85451656D01*
X159359533Y-85420471D01*
X159351485Y-85388343D01*
X159346625Y-85355581D01*
X159345000Y-85322500D01*
X159345000Y-84547500D01*
X159346625Y-84514419D01*
X159351485Y-84481657D01*
X159359533Y-84449529D01*
X159370691Y-84418344D01*
X159384852Y-84388404D01*
X159401879Y-84359995D01*
X159421609Y-84333392D01*
X159443851Y-84308851D01*
X159468392Y-84286609D01*
X159494995Y-84266879D01*
X159523404Y-84249852D01*
X159553344Y-84235691D01*
X159584529Y-84224533D01*
X159616657Y-84216485D01*
X159649419Y-84211625D01*
X159682500Y-84210000D01*
X160357500Y-84210000D01*
X160390581Y-84211625D01*
X160390581Y-84211625D01*
G37*
D11*
X160020000Y-84935000D03*
D10*
G36*
X160390581Y-82461625D02*
X160423343Y-82466485D01*
X160455471Y-82474533D01*
X160486656Y-82485691D01*
X160516596Y-82499852D01*
X160545005Y-82516879D01*
X160571608Y-82536609D01*
X160596149Y-82558851D01*
X160618391Y-82583392D01*
X160638121Y-82609995D01*
X160655148Y-82638404D01*
X160669309Y-82668344D01*
X160680467Y-82699529D01*
X160688515Y-82731657D01*
X160693375Y-82764419D01*
X160695000Y-82797500D01*
X160695000Y-83572500D01*
X160693375Y-83605581D01*
X160688515Y-83638343D01*
X160680467Y-83670471D01*
X160669309Y-83701656D01*
X160655148Y-83731596D01*
X160638121Y-83760005D01*
X160618391Y-83786608D01*
X160596149Y-83811149D01*
X160571608Y-83833391D01*
X160545005Y-83853121D01*
X160516596Y-83870148D01*
X160486656Y-83884309D01*
X160455471Y-83895467D01*
X160423343Y-83903515D01*
X160390581Y-83908375D01*
X160357500Y-83910000D01*
X159682500Y-83910000D01*
X159649419Y-83908375D01*
X159616657Y-83903515D01*
X159584529Y-83895467D01*
X159553344Y-83884309D01*
X159523404Y-83870148D01*
X159494995Y-83853121D01*
X159468392Y-83833391D01*
X159443851Y-83811149D01*
X159421609Y-83786608D01*
X159401879Y-83760005D01*
X159384852Y-83731596D01*
X159370691Y-83701656D01*
X159359533Y-83670471D01*
X159351485Y-83638343D01*
X159346625Y-83605581D01*
X159345000Y-83572500D01*
X159345000Y-82797500D01*
X159346625Y-82764419D01*
X159351485Y-82731657D01*
X159359533Y-82699529D01*
X159370691Y-82668344D01*
X159384852Y-82638404D01*
X159401879Y-82609995D01*
X159421609Y-82583392D01*
X159443851Y-82558851D01*
X159468392Y-82536609D01*
X159494995Y-82516879D01*
X159523404Y-82499852D01*
X159553344Y-82485691D01*
X159584529Y-82474533D01*
X159616657Y-82466485D01*
X159649419Y-82461625D01*
X159682500Y-82460000D01*
X160357500Y-82460000D01*
X160390581Y-82461625D01*
X160390581Y-82461625D01*
G37*
D11*
X160020000Y-83185000D03*
G04 #@! TD*
D10*
G04 #@! TO.C,D20*
G36*
X180075581Y-84211625D02*
X180108343Y-84216485D01*
X180140471Y-84224533D01*
X180171656Y-84235691D01*
X180201596Y-84249852D01*
X180230005Y-84266879D01*
X180256608Y-84286609D01*
X180281149Y-84308851D01*
X180303391Y-84333392D01*
X180323121Y-84359995D01*
X180340148Y-84388404D01*
X180354309Y-84418344D01*
X180365467Y-84449529D01*
X180373515Y-84481657D01*
X180378375Y-84514419D01*
X180380000Y-84547500D01*
X180380000Y-85322500D01*
X180378375Y-85355581D01*
X180373515Y-85388343D01*
X180365467Y-85420471D01*
X180354309Y-85451656D01*
X180340148Y-85481596D01*
X180323121Y-85510005D01*
X180303391Y-85536608D01*
X180281149Y-85561149D01*
X180256608Y-85583391D01*
X180230005Y-85603121D01*
X180201596Y-85620148D01*
X180171656Y-85634309D01*
X180140471Y-85645467D01*
X180108343Y-85653515D01*
X180075581Y-85658375D01*
X180042500Y-85660000D01*
X179367500Y-85660000D01*
X179334419Y-85658375D01*
X179301657Y-85653515D01*
X179269529Y-85645467D01*
X179238344Y-85634309D01*
X179208404Y-85620148D01*
X179179995Y-85603121D01*
X179153392Y-85583391D01*
X179128851Y-85561149D01*
X179106609Y-85536608D01*
X179086879Y-85510005D01*
X179069852Y-85481596D01*
X179055691Y-85451656D01*
X179044533Y-85420471D01*
X179036485Y-85388343D01*
X179031625Y-85355581D01*
X179030000Y-85322500D01*
X179030000Y-84547500D01*
X179031625Y-84514419D01*
X179036485Y-84481657D01*
X179044533Y-84449529D01*
X179055691Y-84418344D01*
X179069852Y-84388404D01*
X179086879Y-84359995D01*
X179106609Y-84333392D01*
X179128851Y-84308851D01*
X179153392Y-84286609D01*
X179179995Y-84266879D01*
X179208404Y-84249852D01*
X179238344Y-84235691D01*
X179269529Y-84224533D01*
X179301657Y-84216485D01*
X179334419Y-84211625D01*
X179367500Y-84210000D01*
X180042500Y-84210000D01*
X180075581Y-84211625D01*
X180075581Y-84211625D01*
G37*
D11*
X179705000Y-84935000D03*
D10*
G36*
X180075581Y-82461625D02*
X180108343Y-82466485D01*
X180140471Y-82474533D01*
X180171656Y-82485691D01*
X180201596Y-82499852D01*
X180230005Y-82516879D01*
X180256608Y-82536609D01*
X180281149Y-82558851D01*
X180303391Y-82583392D01*
X180323121Y-82609995D01*
X180340148Y-82638404D01*
X180354309Y-82668344D01*
X180365467Y-82699529D01*
X180373515Y-82731657D01*
X180378375Y-82764419D01*
X180380000Y-82797500D01*
X180380000Y-83572500D01*
X180378375Y-83605581D01*
X180373515Y-83638343D01*
X180365467Y-83670471D01*
X180354309Y-83701656D01*
X180340148Y-83731596D01*
X180323121Y-83760005D01*
X180303391Y-83786608D01*
X180281149Y-83811149D01*
X180256608Y-83833391D01*
X180230005Y-83853121D01*
X180201596Y-83870148D01*
X180171656Y-83884309D01*
X180140471Y-83895467D01*
X180108343Y-83903515D01*
X180075581Y-83908375D01*
X180042500Y-83910000D01*
X179367500Y-83910000D01*
X179334419Y-83908375D01*
X179301657Y-83903515D01*
X179269529Y-83895467D01*
X179238344Y-83884309D01*
X179208404Y-83870148D01*
X179179995Y-83853121D01*
X179153392Y-83833391D01*
X179128851Y-83811149D01*
X179106609Y-83786608D01*
X179086879Y-83760005D01*
X179069852Y-83731596D01*
X179055691Y-83701656D01*
X179044533Y-83670471D01*
X179036485Y-83638343D01*
X179031625Y-83605581D01*
X179030000Y-83572500D01*
X179030000Y-82797500D01*
X179031625Y-82764419D01*
X179036485Y-82731657D01*
X179044533Y-82699529D01*
X179055691Y-82668344D01*
X179069852Y-82638404D01*
X179086879Y-82609995D01*
X179106609Y-82583392D01*
X179128851Y-82558851D01*
X179153392Y-82536609D01*
X179179995Y-82516879D01*
X179208404Y-82499852D01*
X179238344Y-82485691D01*
X179269529Y-82474533D01*
X179301657Y-82466485D01*
X179334419Y-82461625D01*
X179367500Y-82460000D01*
X180042500Y-82460000D01*
X180075581Y-82461625D01*
X180075581Y-82461625D01*
G37*
D11*
X179705000Y-83185000D03*
G04 #@! TD*
D10*
G04 #@! TO.C,D21*
G36*
X117740581Y-99021625D02*
X117773343Y-99026485D01*
X117805471Y-99034533D01*
X117836656Y-99045691D01*
X117866596Y-99059852D01*
X117895005Y-99076879D01*
X117921608Y-99096609D01*
X117946149Y-99118851D01*
X117968391Y-99143392D01*
X117988121Y-99169995D01*
X118005148Y-99198404D01*
X118019309Y-99228344D01*
X118030467Y-99259529D01*
X118038515Y-99291657D01*
X118043375Y-99324419D01*
X118045000Y-99357500D01*
X118045000Y-100032500D01*
X118043375Y-100065581D01*
X118038515Y-100098343D01*
X118030467Y-100130471D01*
X118019309Y-100161656D01*
X118005148Y-100191596D01*
X117988121Y-100220005D01*
X117968391Y-100246608D01*
X117946149Y-100271149D01*
X117921608Y-100293391D01*
X117895005Y-100313121D01*
X117866596Y-100330148D01*
X117836656Y-100344309D01*
X117805471Y-100355467D01*
X117773343Y-100363515D01*
X117740581Y-100368375D01*
X117707500Y-100370000D01*
X116932500Y-100370000D01*
X116899419Y-100368375D01*
X116866657Y-100363515D01*
X116834529Y-100355467D01*
X116803344Y-100344309D01*
X116773404Y-100330148D01*
X116744995Y-100313121D01*
X116718392Y-100293391D01*
X116693851Y-100271149D01*
X116671609Y-100246608D01*
X116651879Y-100220005D01*
X116634852Y-100191596D01*
X116620691Y-100161656D01*
X116609533Y-100130471D01*
X116601485Y-100098343D01*
X116596625Y-100065581D01*
X116595000Y-100032500D01*
X116595000Y-99357500D01*
X116596625Y-99324419D01*
X116601485Y-99291657D01*
X116609533Y-99259529D01*
X116620691Y-99228344D01*
X116634852Y-99198404D01*
X116651879Y-99169995D01*
X116671609Y-99143392D01*
X116693851Y-99118851D01*
X116718392Y-99096609D01*
X116744995Y-99076879D01*
X116773404Y-99059852D01*
X116803344Y-99045691D01*
X116834529Y-99034533D01*
X116866657Y-99026485D01*
X116899419Y-99021625D01*
X116932500Y-99020000D01*
X117707500Y-99020000D01*
X117740581Y-99021625D01*
X117740581Y-99021625D01*
G37*
D11*
X117320000Y-99695000D03*
D10*
G36*
X115990581Y-99021625D02*
X116023343Y-99026485D01*
X116055471Y-99034533D01*
X116086656Y-99045691D01*
X116116596Y-99059852D01*
X116145005Y-99076879D01*
X116171608Y-99096609D01*
X116196149Y-99118851D01*
X116218391Y-99143392D01*
X116238121Y-99169995D01*
X116255148Y-99198404D01*
X116269309Y-99228344D01*
X116280467Y-99259529D01*
X116288515Y-99291657D01*
X116293375Y-99324419D01*
X116295000Y-99357500D01*
X116295000Y-100032500D01*
X116293375Y-100065581D01*
X116288515Y-100098343D01*
X116280467Y-100130471D01*
X116269309Y-100161656D01*
X116255148Y-100191596D01*
X116238121Y-100220005D01*
X116218391Y-100246608D01*
X116196149Y-100271149D01*
X116171608Y-100293391D01*
X116145005Y-100313121D01*
X116116596Y-100330148D01*
X116086656Y-100344309D01*
X116055471Y-100355467D01*
X116023343Y-100363515D01*
X115990581Y-100368375D01*
X115957500Y-100370000D01*
X115182500Y-100370000D01*
X115149419Y-100368375D01*
X115116657Y-100363515D01*
X115084529Y-100355467D01*
X115053344Y-100344309D01*
X115023404Y-100330148D01*
X114994995Y-100313121D01*
X114968392Y-100293391D01*
X114943851Y-100271149D01*
X114921609Y-100246608D01*
X114901879Y-100220005D01*
X114884852Y-100191596D01*
X114870691Y-100161656D01*
X114859533Y-100130471D01*
X114851485Y-100098343D01*
X114846625Y-100065581D01*
X114845000Y-100032500D01*
X114845000Y-99357500D01*
X114846625Y-99324419D01*
X114851485Y-99291657D01*
X114859533Y-99259529D01*
X114870691Y-99228344D01*
X114884852Y-99198404D01*
X114901879Y-99169995D01*
X114921609Y-99143392D01*
X114943851Y-99118851D01*
X114968392Y-99096609D01*
X114994995Y-99076879D01*
X115023404Y-99059852D01*
X115053344Y-99045691D01*
X115084529Y-99034533D01*
X115116657Y-99026485D01*
X115149419Y-99021625D01*
X115182500Y-99020000D01*
X115957500Y-99020000D01*
X115990581Y-99021625D01*
X115990581Y-99021625D01*
G37*
D11*
X115570000Y-99695000D03*
G04 #@! TD*
D10*
G04 #@! TO.C,R21*
G36*
X123455581Y-99021625D02*
X123488343Y-99026485D01*
X123520471Y-99034533D01*
X123551656Y-99045691D01*
X123581596Y-99059852D01*
X123610005Y-99076879D01*
X123636608Y-99096609D01*
X123661149Y-99118851D01*
X123683391Y-99143392D01*
X123703121Y-99169995D01*
X123720148Y-99198404D01*
X123734309Y-99228344D01*
X123745467Y-99259529D01*
X123753515Y-99291657D01*
X123758375Y-99324419D01*
X123760000Y-99357500D01*
X123760000Y-100032500D01*
X123758375Y-100065581D01*
X123753515Y-100098343D01*
X123745467Y-100130471D01*
X123734309Y-100161656D01*
X123720148Y-100191596D01*
X123703121Y-100220005D01*
X123683391Y-100246608D01*
X123661149Y-100271149D01*
X123636608Y-100293391D01*
X123610005Y-100313121D01*
X123581596Y-100330148D01*
X123551656Y-100344309D01*
X123520471Y-100355467D01*
X123488343Y-100363515D01*
X123455581Y-100368375D01*
X123422500Y-100370000D01*
X122647500Y-100370000D01*
X122614419Y-100368375D01*
X122581657Y-100363515D01*
X122549529Y-100355467D01*
X122518344Y-100344309D01*
X122488404Y-100330148D01*
X122459995Y-100313121D01*
X122433392Y-100293391D01*
X122408851Y-100271149D01*
X122386609Y-100246608D01*
X122366879Y-100220005D01*
X122349852Y-100191596D01*
X122335691Y-100161656D01*
X122324533Y-100130471D01*
X122316485Y-100098343D01*
X122311625Y-100065581D01*
X122310000Y-100032500D01*
X122310000Y-99357500D01*
X122311625Y-99324419D01*
X122316485Y-99291657D01*
X122324533Y-99259529D01*
X122335691Y-99228344D01*
X122349852Y-99198404D01*
X122366879Y-99169995D01*
X122386609Y-99143392D01*
X122408851Y-99118851D01*
X122433392Y-99096609D01*
X122459995Y-99076879D01*
X122488404Y-99059852D01*
X122518344Y-99045691D01*
X122549529Y-99034533D01*
X122581657Y-99026485D01*
X122614419Y-99021625D01*
X122647500Y-99020000D01*
X123422500Y-99020000D01*
X123455581Y-99021625D01*
X123455581Y-99021625D01*
G37*
D11*
X123035000Y-99695000D03*
D10*
G36*
X121705581Y-99021625D02*
X121738343Y-99026485D01*
X121770471Y-99034533D01*
X121801656Y-99045691D01*
X121831596Y-99059852D01*
X121860005Y-99076879D01*
X121886608Y-99096609D01*
X121911149Y-99118851D01*
X121933391Y-99143392D01*
X121953121Y-99169995D01*
X121970148Y-99198404D01*
X121984309Y-99228344D01*
X121995467Y-99259529D01*
X122003515Y-99291657D01*
X122008375Y-99324419D01*
X122010000Y-99357500D01*
X122010000Y-100032500D01*
X122008375Y-100065581D01*
X122003515Y-100098343D01*
X121995467Y-100130471D01*
X121984309Y-100161656D01*
X121970148Y-100191596D01*
X121953121Y-100220005D01*
X121933391Y-100246608D01*
X121911149Y-100271149D01*
X121886608Y-100293391D01*
X121860005Y-100313121D01*
X121831596Y-100330148D01*
X121801656Y-100344309D01*
X121770471Y-100355467D01*
X121738343Y-100363515D01*
X121705581Y-100368375D01*
X121672500Y-100370000D01*
X120897500Y-100370000D01*
X120864419Y-100368375D01*
X120831657Y-100363515D01*
X120799529Y-100355467D01*
X120768344Y-100344309D01*
X120738404Y-100330148D01*
X120709995Y-100313121D01*
X120683392Y-100293391D01*
X120658851Y-100271149D01*
X120636609Y-100246608D01*
X120616879Y-100220005D01*
X120599852Y-100191596D01*
X120585691Y-100161656D01*
X120574533Y-100130471D01*
X120566485Y-100098343D01*
X120561625Y-100065581D01*
X120560000Y-100032500D01*
X120560000Y-99357500D01*
X120561625Y-99324419D01*
X120566485Y-99291657D01*
X120574533Y-99259529D01*
X120585691Y-99228344D01*
X120599852Y-99198404D01*
X120616879Y-99169995D01*
X120636609Y-99143392D01*
X120658851Y-99118851D01*
X120683392Y-99096609D01*
X120709995Y-99076879D01*
X120738404Y-99059852D01*
X120768344Y-99045691D01*
X120799529Y-99034533D01*
X120831657Y-99026485D01*
X120864419Y-99021625D01*
X120897500Y-99020000D01*
X121672500Y-99020000D01*
X121705581Y-99021625D01*
X121705581Y-99021625D01*
G37*
D11*
X121285000Y-99695000D03*
G04 #@! TD*
M02*
