G04 #@! TF.GenerationSoftware,KiCad,Pcbnew,(5.0.0)*
G04 #@! TF.CreationDate,2020-11-30T16:59:43-06:00*
G04 #@! TF.ProjectId,GiecoBoard_2021_Rev1,476965636F426F6172645F323032315F,rev?*
G04 #@! TF.SameCoordinates,Original*
G04 #@! TF.FileFunction,Legend,Bot*
G04 #@! TF.FilePolarity,Positive*
%FSLAX46Y46*%
G04 Gerber Fmt 4.6, Leading zero omitted, Abs format (unit mm)*
G04 Created by KiCad (PCBNEW (5.0.0)) date 11/30/20 16:59:43*
%MOMM*%
%LPD*%
G01*
G04 APERTURE LIST*
%ADD10C,0.150000*%
G04 APERTURE END LIST*
D10*
G04 #@! TO.C,U2*
X111125000Y-97155000D02*
X113665000Y-94615000D01*
X113665000Y-94615000D02*
X113665000Y-89535000D01*
X113665000Y-89535000D02*
X111125000Y-86995000D01*
X111125000Y-86995000D02*
X106045000Y-86995000D01*
X106045000Y-86995000D02*
X103505000Y-89535000D01*
X103505000Y-89535000D02*
X103505000Y-94615000D01*
X103505000Y-94615000D02*
X106045000Y-97155000D01*
X106045000Y-97155000D02*
X111125000Y-97155000D01*
X103505000Y-84455000D02*
X113665000Y-84455000D01*
X103505000Y-100965000D02*
X113665000Y-100965000D01*
X113665000Y-100965000D02*
X113665000Y-84455000D01*
X103505000Y-84455000D02*
X103505000Y-100965000D01*
G04 #@! TO.C,U1*
X221964285Y-95194380D02*
X222535714Y-95194380D01*
X222250000Y-95194380D02*
X222250000Y-94194380D01*
X222345238Y-94337238D01*
X222440476Y-94432476D01*
X222535714Y-94480095D01*
G04 #@! TO.C,U2*
X110688333Y-101687380D02*
X110497857Y-101687380D01*
X110402619Y-101735000D01*
X110307380Y-101830238D01*
X110259761Y-102020714D01*
X110259761Y-102354047D01*
X110307380Y-102544523D01*
X110402619Y-102639761D01*
X110497857Y-102687380D01*
X110688333Y-102687380D01*
X110783571Y-102639761D01*
X110878809Y-102544523D01*
X110926428Y-102354047D01*
X110926428Y-102020714D01*
X110878809Y-101830238D01*
X110783571Y-101735000D01*
X110688333Y-101687380D01*
X109831190Y-102687380D02*
X109831190Y-101687380D01*
X109259761Y-102687380D02*
X109688333Y-102115952D01*
X109259761Y-101687380D02*
X109831190Y-102258809D01*
X108831190Y-102687380D02*
X108831190Y-101687380D01*
G04 #@! TD*
M02*
