G04 #@! TF.GenerationSoftware,KiCad,Pcbnew,(5.0.0)*
G04 #@! TF.CreationDate,2020-11-30T16:59:43-06:00*
G04 #@! TF.ProjectId,GiecoBoard_2021_Rev1,476965636F426F6172645F323032315F,rev?*
G04 #@! TF.SameCoordinates,Original*
G04 #@! TF.FileFunction,Paste,Bot*
G04 #@! TF.FilePolarity,Positive*
%FSLAX46Y46*%
G04 Gerber Fmt 4.6, Leading zero omitted, Abs format (unit mm)*
G04 Created by KiCad (PCBNEW (5.0.0)) date 11/30/20 16:59:43*
%MOMM*%
%LPD*%
G01*
G04 APERTURE LIST*
%ADD10C,0.200000*%
%ADD11C,1.520000*%
G04 APERTURE END LIST*
D10*
X130175000Y-93980000D02*
X130175000Y-88900000D01*
X187325000Y-93980000D02*
X187325000Y-88900000D01*
X167640000Y-93980000D02*
X167640000Y-88900000D01*
D11*
G04 #@! TO.C,U1*
X158750000Y-135890000D03*
X135890000Y-90170000D03*
X138430000Y-90170000D03*
X146050000Y-90170000D03*
X148590000Y-133350000D03*
X143510000Y-90170000D03*
X140970000Y-90170000D03*
X143510000Y-135890000D03*
X138430000Y-133350000D03*
X148590000Y-90170000D03*
X151130000Y-90170000D03*
X138430000Y-135890000D03*
X143510000Y-133350000D03*
X146050000Y-133350000D03*
X158750000Y-133350000D03*
X156210000Y-133350000D03*
X153670000Y-133350000D03*
X151130000Y-133350000D03*
X140970000Y-133350000D03*
X135890000Y-133350000D03*
X156210000Y-135890000D03*
X153670000Y-135890000D03*
X151130000Y-135890000D03*
X148590000Y-135890000D03*
X146050000Y-135890000D03*
X140970000Y-135890000D03*
X135890000Y-135890000D03*
X158750000Y-92710000D03*
X156210000Y-92710000D03*
X153670000Y-92710000D03*
X151130000Y-92710000D03*
X148590000Y-92710000D03*
X146050000Y-92710000D03*
X143510000Y-92710000D03*
X140970000Y-92710000D03*
X138430000Y-92710000D03*
X135890000Y-92710000D03*
X158750000Y-90170000D03*
X156210000Y-90170000D03*
X153670000Y-90170000D03*
X222250000Y-133350000D03*
X219710000Y-133350000D03*
X217170000Y-133350000D03*
X214630000Y-133350000D03*
X212090000Y-133350000D03*
X209550000Y-133350000D03*
X207010000Y-133350000D03*
X204470000Y-133350000D03*
X201930000Y-133350000D03*
X199390000Y-133350000D03*
X222250000Y-135890000D03*
X219710000Y-135890000D03*
X217170000Y-135890000D03*
X214630000Y-135890000D03*
X212090000Y-135890000D03*
X209550000Y-135890000D03*
X207010000Y-135890000D03*
X204470000Y-135890000D03*
X201930000Y-135890000D03*
X199390000Y-135890000D03*
X222250000Y-92710000D03*
X219710000Y-92710000D03*
X217170000Y-92710000D03*
X214630000Y-92710000D03*
X212090000Y-92710000D03*
X209550000Y-92710000D03*
X207010000Y-92710000D03*
X204470000Y-92710000D03*
X201930000Y-92710000D03*
X199390000Y-92710000D03*
X222250000Y-90170000D03*
X219710000Y-90170000D03*
X217170000Y-90170000D03*
X214630000Y-90170000D03*
X212090000Y-90170000D03*
X209550000Y-90170000D03*
X207010000Y-90170000D03*
X204470000Y-90170000D03*
X201930000Y-90170000D03*
X199390000Y-90170000D03*
G04 #@! TD*
M02*
