G04 #@! TF.GenerationSoftware,KiCad,Pcbnew,(5.0.0)*
G04 #@! TF.CreationDate,2020-11-30T16:59:43-06:00*
G04 #@! TF.ProjectId,GiecoBoard_2021_Rev1,476965636F426F6172645F323032315F,rev?*
G04 #@! TF.SameCoordinates,Original*
G04 #@! TF.FileFunction,Paste,Top*
G04 #@! TF.FilePolarity,Positive*
%FSLAX46Y46*%
G04 Gerber Fmt 4.6, Leading zero omitted, Abs format (unit mm)*
G04 Created by KiCad (PCBNEW (5.0.0)) date 11/30/20 16:59:43*
%MOMM*%
%LPD*%
G01*
G04 APERTURE LIST*
%ADD10C,0.100000*%
%ADD11C,0.950000*%
G04 APERTURE END LIST*
D10*
G04 #@! TO.C,C1*
G36*
X116035779Y-89061144D02*
X116058834Y-89064563D01*
X116081443Y-89070227D01*
X116103387Y-89078079D01*
X116124457Y-89088044D01*
X116144448Y-89100026D01*
X116163168Y-89113910D01*
X116180438Y-89129562D01*
X116196090Y-89146832D01*
X116209974Y-89165552D01*
X116221956Y-89185543D01*
X116231921Y-89206613D01*
X116239773Y-89228557D01*
X116245437Y-89251166D01*
X116248856Y-89274221D01*
X116250000Y-89297500D01*
X116250000Y-89772500D01*
X116248856Y-89795779D01*
X116245437Y-89818834D01*
X116239773Y-89841443D01*
X116231921Y-89863387D01*
X116221956Y-89884457D01*
X116209974Y-89904448D01*
X116196090Y-89923168D01*
X116180438Y-89940438D01*
X116163168Y-89956090D01*
X116144448Y-89969974D01*
X116124457Y-89981956D01*
X116103387Y-89991921D01*
X116081443Y-89999773D01*
X116058834Y-90005437D01*
X116035779Y-90008856D01*
X116012500Y-90010000D01*
X115437500Y-90010000D01*
X115414221Y-90008856D01*
X115391166Y-90005437D01*
X115368557Y-89999773D01*
X115346613Y-89991921D01*
X115325543Y-89981956D01*
X115305552Y-89969974D01*
X115286832Y-89956090D01*
X115269562Y-89940438D01*
X115253910Y-89923168D01*
X115240026Y-89904448D01*
X115228044Y-89884457D01*
X115218079Y-89863387D01*
X115210227Y-89841443D01*
X115204563Y-89818834D01*
X115201144Y-89795779D01*
X115200000Y-89772500D01*
X115200000Y-89297500D01*
X115201144Y-89274221D01*
X115204563Y-89251166D01*
X115210227Y-89228557D01*
X115218079Y-89206613D01*
X115228044Y-89185543D01*
X115240026Y-89165552D01*
X115253910Y-89146832D01*
X115269562Y-89129562D01*
X115286832Y-89113910D01*
X115305552Y-89100026D01*
X115325543Y-89088044D01*
X115346613Y-89078079D01*
X115368557Y-89070227D01*
X115391166Y-89064563D01*
X115414221Y-89061144D01*
X115437500Y-89060000D01*
X116012500Y-89060000D01*
X116035779Y-89061144D01*
X116035779Y-89061144D01*
G37*
D11*
X115725000Y-89535000D03*
D10*
G36*
X117785779Y-89061144D02*
X117808834Y-89064563D01*
X117831443Y-89070227D01*
X117853387Y-89078079D01*
X117874457Y-89088044D01*
X117894448Y-89100026D01*
X117913168Y-89113910D01*
X117930438Y-89129562D01*
X117946090Y-89146832D01*
X117959974Y-89165552D01*
X117971956Y-89185543D01*
X117981921Y-89206613D01*
X117989773Y-89228557D01*
X117995437Y-89251166D01*
X117998856Y-89274221D01*
X118000000Y-89297500D01*
X118000000Y-89772500D01*
X117998856Y-89795779D01*
X117995437Y-89818834D01*
X117989773Y-89841443D01*
X117981921Y-89863387D01*
X117971956Y-89884457D01*
X117959974Y-89904448D01*
X117946090Y-89923168D01*
X117930438Y-89940438D01*
X117913168Y-89956090D01*
X117894448Y-89969974D01*
X117874457Y-89981956D01*
X117853387Y-89991921D01*
X117831443Y-89999773D01*
X117808834Y-90005437D01*
X117785779Y-90008856D01*
X117762500Y-90010000D01*
X117187500Y-90010000D01*
X117164221Y-90008856D01*
X117141166Y-90005437D01*
X117118557Y-89999773D01*
X117096613Y-89991921D01*
X117075543Y-89981956D01*
X117055552Y-89969974D01*
X117036832Y-89956090D01*
X117019562Y-89940438D01*
X117003910Y-89923168D01*
X116990026Y-89904448D01*
X116978044Y-89884457D01*
X116968079Y-89863387D01*
X116960227Y-89841443D01*
X116954563Y-89818834D01*
X116951144Y-89795779D01*
X116950000Y-89772500D01*
X116950000Y-89297500D01*
X116951144Y-89274221D01*
X116954563Y-89251166D01*
X116960227Y-89228557D01*
X116968079Y-89206613D01*
X116978044Y-89185543D01*
X116990026Y-89165552D01*
X117003910Y-89146832D01*
X117019562Y-89129562D01*
X117036832Y-89113910D01*
X117055552Y-89100026D01*
X117075543Y-89088044D01*
X117096613Y-89078079D01*
X117118557Y-89070227D01*
X117141166Y-89064563D01*
X117164221Y-89061144D01*
X117187500Y-89060000D01*
X117762500Y-89060000D01*
X117785779Y-89061144D01*
X117785779Y-89061144D01*
G37*
D11*
X117475000Y-89535000D03*
G04 #@! TD*
D10*
G04 #@! TO.C,R2*
G36*
X219335779Y-118066144D02*
X219358834Y-118069563D01*
X219381443Y-118075227D01*
X219403387Y-118083079D01*
X219424457Y-118093044D01*
X219444448Y-118105026D01*
X219463168Y-118118910D01*
X219480438Y-118134562D01*
X219496090Y-118151832D01*
X219509974Y-118170552D01*
X219521956Y-118190543D01*
X219531921Y-118211613D01*
X219539773Y-118233557D01*
X219545437Y-118256166D01*
X219548856Y-118279221D01*
X219550000Y-118302500D01*
X219550000Y-118877500D01*
X219548856Y-118900779D01*
X219545437Y-118923834D01*
X219539773Y-118946443D01*
X219531921Y-118968387D01*
X219521956Y-118989457D01*
X219509974Y-119009448D01*
X219496090Y-119028168D01*
X219480438Y-119045438D01*
X219463168Y-119061090D01*
X219444448Y-119074974D01*
X219424457Y-119086956D01*
X219403387Y-119096921D01*
X219381443Y-119104773D01*
X219358834Y-119110437D01*
X219335779Y-119113856D01*
X219312500Y-119115000D01*
X218837500Y-119115000D01*
X218814221Y-119113856D01*
X218791166Y-119110437D01*
X218768557Y-119104773D01*
X218746613Y-119096921D01*
X218725543Y-119086956D01*
X218705552Y-119074974D01*
X218686832Y-119061090D01*
X218669562Y-119045438D01*
X218653910Y-119028168D01*
X218640026Y-119009448D01*
X218628044Y-118989457D01*
X218618079Y-118968387D01*
X218610227Y-118946443D01*
X218604563Y-118923834D01*
X218601144Y-118900779D01*
X218600000Y-118877500D01*
X218600000Y-118302500D01*
X218601144Y-118279221D01*
X218604563Y-118256166D01*
X218610227Y-118233557D01*
X218618079Y-118211613D01*
X218628044Y-118190543D01*
X218640026Y-118170552D01*
X218653910Y-118151832D01*
X218669562Y-118134562D01*
X218686832Y-118118910D01*
X218705552Y-118105026D01*
X218725543Y-118093044D01*
X218746613Y-118083079D01*
X218768557Y-118075227D01*
X218791166Y-118069563D01*
X218814221Y-118066144D01*
X218837500Y-118065000D01*
X219312500Y-118065000D01*
X219335779Y-118066144D01*
X219335779Y-118066144D01*
G37*
D11*
X219075000Y-118590000D03*
D10*
G36*
X219335779Y-116316144D02*
X219358834Y-116319563D01*
X219381443Y-116325227D01*
X219403387Y-116333079D01*
X219424457Y-116343044D01*
X219444448Y-116355026D01*
X219463168Y-116368910D01*
X219480438Y-116384562D01*
X219496090Y-116401832D01*
X219509974Y-116420552D01*
X219521956Y-116440543D01*
X219531921Y-116461613D01*
X219539773Y-116483557D01*
X219545437Y-116506166D01*
X219548856Y-116529221D01*
X219550000Y-116552500D01*
X219550000Y-117127500D01*
X219548856Y-117150779D01*
X219545437Y-117173834D01*
X219539773Y-117196443D01*
X219531921Y-117218387D01*
X219521956Y-117239457D01*
X219509974Y-117259448D01*
X219496090Y-117278168D01*
X219480438Y-117295438D01*
X219463168Y-117311090D01*
X219444448Y-117324974D01*
X219424457Y-117336956D01*
X219403387Y-117346921D01*
X219381443Y-117354773D01*
X219358834Y-117360437D01*
X219335779Y-117363856D01*
X219312500Y-117365000D01*
X218837500Y-117365000D01*
X218814221Y-117363856D01*
X218791166Y-117360437D01*
X218768557Y-117354773D01*
X218746613Y-117346921D01*
X218725543Y-117336956D01*
X218705552Y-117324974D01*
X218686832Y-117311090D01*
X218669562Y-117295438D01*
X218653910Y-117278168D01*
X218640026Y-117259448D01*
X218628044Y-117239457D01*
X218618079Y-117218387D01*
X218610227Y-117196443D01*
X218604563Y-117173834D01*
X218601144Y-117150779D01*
X218600000Y-117127500D01*
X218600000Y-116552500D01*
X218601144Y-116529221D01*
X218604563Y-116506166D01*
X218610227Y-116483557D01*
X218618079Y-116461613D01*
X218628044Y-116440543D01*
X218640026Y-116420552D01*
X218653910Y-116401832D01*
X218669562Y-116384562D01*
X218686832Y-116368910D01*
X218705552Y-116355026D01*
X218725543Y-116343044D01*
X218746613Y-116333079D01*
X218768557Y-116325227D01*
X218791166Y-116319563D01*
X218814221Y-116316144D01*
X218837500Y-116315000D01*
X219312500Y-116315000D01*
X219335779Y-116316144D01*
X219335779Y-116316144D01*
G37*
D11*
X219075000Y-116840000D03*
G04 #@! TD*
D10*
G04 #@! TO.C,R1*
G36*
X214255779Y-118066144D02*
X214278834Y-118069563D01*
X214301443Y-118075227D01*
X214323387Y-118083079D01*
X214344457Y-118093044D01*
X214364448Y-118105026D01*
X214383168Y-118118910D01*
X214400438Y-118134562D01*
X214416090Y-118151832D01*
X214429974Y-118170552D01*
X214441956Y-118190543D01*
X214451921Y-118211613D01*
X214459773Y-118233557D01*
X214465437Y-118256166D01*
X214468856Y-118279221D01*
X214470000Y-118302500D01*
X214470000Y-118877500D01*
X214468856Y-118900779D01*
X214465437Y-118923834D01*
X214459773Y-118946443D01*
X214451921Y-118968387D01*
X214441956Y-118989457D01*
X214429974Y-119009448D01*
X214416090Y-119028168D01*
X214400438Y-119045438D01*
X214383168Y-119061090D01*
X214364448Y-119074974D01*
X214344457Y-119086956D01*
X214323387Y-119096921D01*
X214301443Y-119104773D01*
X214278834Y-119110437D01*
X214255779Y-119113856D01*
X214232500Y-119115000D01*
X213757500Y-119115000D01*
X213734221Y-119113856D01*
X213711166Y-119110437D01*
X213688557Y-119104773D01*
X213666613Y-119096921D01*
X213645543Y-119086956D01*
X213625552Y-119074974D01*
X213606832Y-119061090D01*
X213589562Y-119045438D01*
X213573910Y-119028168D01*
X213560026Y-119009448D01*
X213548044Y-118989457D01*
X213538079Y-118968387D01*
X213530227Y-118946443D01*
X213524563Y-118923834D01*
X213521144Y-118900779D01*
X213520000Y-118877500D01*
X213520000Y-118302500D01*
X213521144Y-118279221D01*
X213524563Y-118256166D01*
X213530227Y-118233557D01*
X213538079Y-118211613D01*
X213548044Y-118190543D01*
X213560026Y-118170552D01*
X213573910Y-118151832D01*
X213589562Y-118134562D01*
X213606832Y-118118910D01*
X213625552Y-118105026D01*
X213645543Y-118093044D01*
X213666613Y-118083079D01*
X213688557Y-118075227D01*
X213711166Y-118069563D01*
X213734221Y-118066144D01*
X213757500Y-118065000D01*
X214232500Y-118065000D01*
X214255779Y-118066144D01*
X214255779Y-118066144D01*
G37*
D11*
X213995000Y-118590000D03*
D10*
G36*
X214255779Y-116316144D02*
X214278834Y-116319563D01*
X214301443Y-116325227D01*
X214323387Y-116333079D01*
X214344457Y-116343044D01*
X214364448Y-116355026D01*
X214383168Y-116368910D01*
X214400438Y-116384562D01*
X214416090Y-116401832D01*
X214429974Y-116420552D01*
X214441956Y-116440543D01*
X214451921Y-116461613D01*
X214459773Y-116483557D01*
X214465437Y-116506166D01*
X214468856Y-116529221D01*
X214470000Y-116552500D01*
X214470000Y-117127500D01*
X214468856Y-117150779D01*
X214465437Y-117173834D01*
X214459773Y-117196443D01*
X214451921Y-117218387D01*
X214441956Y-117239457D01*
X214429974Y-117259448D01*
X214416090Y-117278168D01*
X214400438Y-117295438D01*
X214383168Y-117311090D01*
X214364448Y-117324974D01*
X214344457Y-117336956D01*
X214323387Y-117346921D01*
X214301443Y-117354773D01*
X214278834Y-117360437D01*
X214255779Y-117363856D01*
X214232500Y-117365000D01*
X213757500Y-117365000D01*
X213734221Y-117363856D01*
X213711166Y-117360437D01*
X213688557Y-117354773D01*
X213666613Y-117346921D01*
X213645543Y-117336956D01*
X213625552Y-117324974D01*
X213606832Y-117311090D01*
X213589562Y-117295438D01*
X213573910Y-117278168D01*
X213560026Y-117259448D01*
X213548044Y-117239457D01*
X213538079Y-117218387D01*
X213530227Y-117196443D01*
X213524563Y-117173834D01*
X213521144Y-117150779D01*
X213520000Y-117127500D01*
X213520000Y-116552500D01*
X213521144Y-116529221D01*
X213524563Y-116506166D01*
X213530227Y-116483557D01*
X213538079Y-116461613D01*
X213548044Y-116440543D01*
X213560026Y-116420552D01*
X213573910Y-116401832D01*
X213589562Y-116384562D01*
X213606832Y-116368910D01*
X213625552Y-116355026D01*
X213645543Y-116343044D01*
X213666613Y-116333079D01*
X213688557Y-116325227D01*
X213711166Y-116319563D01*
X213734221Y-116316144D01*
X213757500Y-116315000D01*
X214232500Y-116315000D01*
X214255779Y-116316144D01*
X214255779Y-116316144D01*
G37*
D11*
X213995000Y-116840000D03*
G04 #@! TD*
D10*
G04 #@! TO.C,R5*
G36*
X199650779Y-118066144D02*
X199673834Y-118069563D01*
X199696443Y-118075227D01*
X199718387Y-118083079D01*
X199739457Y-118093044D01*
X199759448Y-118105026D01*
X199778168Y-118118910D01*
X199795438Y-118134562D01*
X199811090Y-118151832D01*
X199824974Y-118170552D01*
X199836956Y-118190543D01*
X199846921Y-118211613D01*
X199854773Y-118233557D01*
X199860437Y-118256166D01*
X199863856Y-118279221D01*
X199865000Y-118302500D01*
X199865000Y-118877500D01*
X199863856Y-118900779D01*
X199860437Y-118923834D01*
X199854773Y-118946443D01*
X199846921Y-118968387D01*
X199836956Y-118989457D01*
X199824974Y-119009448D01*
X199811090Y-119028168D01*
X199795438Y-119045438D01*
X199778168Y-119061090D01*
X199759448Y-119074974D01*
X199739457Y-119086956D01*
X199718387Y-119096921D01*
X199696443Y-119104773D01*
X199673834Y-119110437D01*
X199650779Y-119113856D01*
X199627500Y-119115000D01*
X199152500Y-119115000D01*
X199129221Y-119113856D01*
X199106166Y-119110437D01*
X199083557Y-119104773D01*
X199061613Y-119096921D01*
X199040543Y-119086956D01*
X199020552Y-119074974D01*
X199001832Y-119061090D01*
X198984562Y-119045438D01*
X198968910Y-119028168D01*
X198955026Y-119009448D01*
X198943044Y-118989457D01*
X198933079Y-118968387D01*
X198925227Y-118946443D01*
X198919563Y-118923834D01*
X198916144Y-118900779D01*
X198915000Y-118877500D01*
X198915000Y-118302500D01*
X198916144Y-118279221D01*
X198919563Y-118256166D01*
X198925227Y-118233557D01*
X198933079Y-118211613D01*
X198943044Y-118190543D01*
X198955026Y-118170552D01*
X198968910Y-118151832D01*
X198984562Y-118134562D01*
X199001832Y-118118910D01*
X199020552Y-118105026D01*
X199040543Y-118093044D01*
X199061613Y-118083079D01*
X199083557Y-118075227D01*
X199106166Y-118069563D01*
X199129221Y-118066144D01*
X199152500Y-118065000D01*
X199627500Y-118065000D01*
X199650779Y-118066144D01*
X199650779Y-118066144D01*
G37*
D11*
X199390000Y-118590000D03*
D10*
G36*
X199650779Y-116316144D02*
X199673834Y-116319563D01*
X199696443Y-116325227D01*
X199718387Y-116333079D01*
X199739457Y-116343044D01*
X199759448Y-116355026D01*
X199778168Y-116368910D01*
X199795438Y-116384562D01*
X199811090Y-116401832D01*
X199824974Y-116420552D01*
X199836956Y-116440543D01*
X199846921Y-116461613D01*
X199854773Y-116483557D01*
X199860437Y-116506166D01*
X199863856Y-116529221D01*
X199865000Y-116552500D01*
X199865000Y-117127500D01*
X199863856Y-117150779D01*
X199860437Y-117173834D01*
X199854773Y-117196443D01*
X199846921Y-117218387D01*
X199836956Y-117239457D01*
X199824974Y-117259448D01*
X199811090Y-117278168D01*
X199795438Y-117295438D01*
X199778168Y-117311090D01*
X199759448Y-117324974D01*
X199739457Y-117336956D01*
X199718387Y-117346921D01*
X199696443Y-117354773D01*
X199673834Y-117360437D01*
X199650779Y-117363856D01*
X199627500Y-117365000D01*
X199152500Y-117365000D01*
X199129221Y-117363856D01*
X199106166Y-117360437D01*
X199083557Y-117354773D01*
X199061613Y-117346921D01*
X199040543Y-117336956D01*
X199020552Y-117324974D01*
X199001832Y-117311090D01*
X198984562Y-117295438D01*
X198968910Y-117278168D01*
X198955026Y-117259448D01*
X198943044Y-117239457D01*
X198933079Y-117218387D01*
X198925227Y-117196443D01*
X198919563Y-117173834D01*
X198916144Y-117150779D01*
X198915000Y-117127500D01*
X198915000Y-116552500D01*
X198916144Y-116529221D01*
X198919563Y-116506166D01*
X198925227Y-116483557D01*
X198933079Y-116461613D01*
X198943044Y-116440543D01*
X198955026Y-116420552D01*
X198968910Y-116401832D01*
X198984562Y-116384562D01*
X199001832Y-116368910D01*
X199020552Y-116355026D01*
X199040543Y-116343044D01*
X199061613Y-116333079D01*
X199083557Y-116325227D01*
X199106166Y-116319563D01*
X199129221Y-116316144D01*
X199152500Y-116315000D01*
X199627500Y-116315000D01*
X199650779Y-116316144D01*
X199650779Y-116316144D01*
G37*
D11*
X199390000Y-116840000D03*
G04 #@! TD*
D10*
G04 #@! TO.C,R3*
G36*
X194570779Y-118066144D02*
X194593834Y-118069563D01*
X194616443Y-118075227D01*
X194638387Y-118083079D01*
X194659457Y-118093044D01*
X194679448Y-118105026D01*
X194698168Y-118118910D01*
X194715438Y-118134562D01*
X194731090Y-118151832D01*
X194744974Y-118170552D01*
X194756956Y-118190543D01*
X194766921Y-118211613D01*
X194774773Y-118233557D01*
X194780437Y-118256166D01*
X194783856Y-118279221D01*
X194785000Y-118302500D01*
X194785000Y-118877500D01*
X194783856Y-118900779D01*
X194780437Y-118923834D01*
X194774773Y-118946443D01*
X194766921Y-118968387D01*
X194756956Y-118989457D01*
X194744974Y-119009448D01*
X194731090Y-119028168D01*
X194715438Y-119045438D01*
X194698168Y-119061090D01*
X194679448Y-119074974D01*
X194659457Y-119086956D01*
X194638387Y-119096921D01*
X194616443Y-119104773D01*
X194593834Y-119110437D01*
X194570779Y-119113856D01*
X194547500Y-119115000D01*
X194072500Y-119115000D01*
X194049221Y-119113856D01*
X194026166Y-119110437D01*
X194003557Y-119104773D01*
X193981613Y-119096921D01*
X193960543Y-119086956D01*
X193940552Y-119074974D01*
X193921832Y-119061090D01*
X193904562Y-119045438D01*
X193888910Y-119028168D01*
X193875026Y-119009448D01*
X193863044Y-118989457D01*
X193853079Y-118968387D01*
X193845227Y-118946443D01*
X193839563Y-118923834D01*
X193836144Y-118900779D01*
X193835000Y-118877500D01*
X193835000Y-118302500D01*
X193836144Y-118279221D01*
X193839563Y-118256166D01*
X193845227Y-118233557D01*
X193853079Y-118211613D01*
X193863044Y-118190543D01*
X193875026Y-118170552D01*
X193888910Y-118151832D01*
X193904562Y-118134562D01*
X193921832Y-118118910D01*
X193940552Y-118105026D01*
X193960543Y-118093044D01*
X193981613Y-118083079D01*
X194003557Y-118075227D01*
X194026166Y-118069563D01*
X194049221Y-118066144D01*
X194072500Y-118065000D01*
X194547500Y-118065000D01*
X194570779Y-118066144D01*
X194570779Y-118066144D01*
G37*
D11*
X194310000Y-118590000D03*
D10*
G36*
X194570779Y-116316144D02*
X194593834Y-116319563D01*
X194616443Y-116325227D01*
X194638387Y-116333079D01*
X194659457Y-116343044D01*
X194679448Y-116355026D01*
X194698168Y-116368910D01*
X194715438Y-116384562D01*
X194731090Y-116401832D01*
X194744974Y-116420552D01*
X194756956Y-116440543D01*
X194766921Y-116461613D01*
X194774773Y-116483557D01*
X194780437Y-116506166D01*
X194783856Y-116529221D01*
X194785000Y-116552500D01*
X194785000Y-117127500D01*
X194783856Y-117150779D01*
X194780437Y-117173834D01*
X194774773Y-117196443D01*
X194766921Y-117218387D01*
X194756956Y-117239457D01*
X194744974Y-117259448D01*
X194731090Y-117278168D01*
X194715438Y-117295438D01*
X194698168Y-117311090D01*
X194679448Y-117324974D01*
X194659457Y-117336956D01*
X194638387Y-117346921D01*
X194616443Y-117354773D01*
X194593834Y-117360437D01*
X194570779Y-117363856D01*
X194547500Y-117365000D01*
X194072500Y-117365000D01*
X194049221Y-117363856D01*
X194026166Y-117360437D01*
X194003557Y-117354773D01*
X193981613Y-117346921D01*
X193960543Y-117336956D01*
X193940552Y-117324974D01*
X193921832Y-117311090D01*
X193904562Y-117295438D01*
X193888910Y-117278168D01*
X193875026Y-117259448D01*
X193863044Y-117239457D01*
X193853079Y-117218387D01*
X193845227Y-117196443D01*
X193839563Y-117173834D01*
X193836144Y-117150779D01*
X193835000Y-117127500D01*
X193835000Y-116552500D01*
X193836144Y-116529221D01*
X193839563Y-116506166D01*
X193845227Y-116483557D01*
X193853079Y-116461613D01*
X193863044Y-116440543D01*
X193875026Y-116420552D01*
X193888910Y-116401832D01*
X193904562Y-116384562D01*
X193921832Y-116368910D01*
X193940552Y-116355026D01*
X193960543Y-116343044D01*
X193981613Y-116333079D01*
X194003557Y-116325227D01*
X194026166Y-116319563D01*
X194049221Y-116316144D01*
X194072500Y-116315000D01*
X194547500Y-116315000D01*
X194570779Y-116316144D01*
X194570779Y-116316144D01*
G37*
D11*
X194310000Y-116840000D03*
G04 #@! TD*
D10*
G04 #@! TO.C,R7*
G36*
X179965779Y-118066144D02*
X179988834Y-118069563D01*
X180011443Y-118075227D01*
X180033387Y-118083079D01*
X180054457Y-118093044D01*
X180074448Y-118105026D01*
X180093168Y-118118910D01*
X180110438Y-118134562D01*
X180126090Y-118151832D01*
X180139974Y-118170552D01*
X180151956Y-118190543D01*
X180161921Y-118211613D01*
X180169773Y-118233557D01*
X180175437Y-118256166D01*
X180178856Y-118279221D01*
X180180000Y-118302500D01*
X180180000Y-118877500D01*
X180178856Y-118900779D01*
X180175437Y-118923834D01*
X180169773Y-118946443D01*
X180161921Y-118968387D01*
X180151956Y-118989457D01*
X180139974Y-119009448D01*
X180126090Y-119028168D01*
X180110438Y-119045438D01*
X180093168Y-119061090D01*
X180074448Y-119074974D01*
X180054457Y-119086956D01*
X180033387Y-119096921D01*
X180011443Y-119104773D01*
X179988834Y-119110437D01*
X179965779Y-119113856D01*
X179942500Y-119115000D01*
X179467500Y-119115000D01*
X179444221Y-119113856D01*
X179421166Y-119110437D01*
X179398557Y-119104773D01*
X179376613Y-119096921D01*
X179355543Y-119086956D01*
X179335552Y-119074974D01*
X179316832Y-119061090D01*
X179299562Y-119045438D01*
X179283910Y-119028168D01*
X179270026Y-119009448D01*
X179258044Y-118989457D01*
X179248079Y-118968387D01*
X179240227Y-118946443D01*
X179234563Y-118923834D01*
X179231144Y-118900779D01*
X179230000Y-118877500D01*
X179230000Y-118302500D01*
X179231144Y-118279221D01*
X179234563Y-118256166D01*
X179240227Y-118233557D01*
X179248079Y-118211613D01*
X179258044Y-118190543D01*
X179270026Y-118170552D01*
X179283910Y-118151832D01*
X179299562Y-118134562D01*
X179316832Y-118118910D01*
X179335552Y-118105026D01*
X179355543Y-118093044D01*
X179376613Y-118083079D01*
X179398557Y-118075227D01*
X179421166Y-118069563D01*
X179444221Y-118066144D01*
X179467500Y-118065000D01*
X179942500Y-118065000D01*
X179965779Y-118066144D01*
X179965779Y-118066144D01*
G37*
D11*
X179705000Y-118590000D03*
D10*
G36*
X179965779Y-116316144D02*
X179988834Y-116319563D01*
X180011443Y-116325227D01*
X180033387Y-116333079D01*
X180054457Y-116343044D01*
X180074448Y-116355026D01*
X180093168Y-116368910D01*
X180110438Y-116384562D01*
X180126090Y-116401832D01*
X180139974Y-116420552D01*
X180151956Y-116440543D01*
X180161921Y-116461613D01*
X180169773Y-116483557D01*
X180175437Y-116506166D01*
X180178856Y-116529221D01*
X180180000Y-116552500D01*
X180180000Y-117127500D01*
X180178856Y-117150779D01*
X180175437Y-117173834D01*
X180169773Y-117196443D01*
X180161921Y-117218387D01*
X180151956Y-117239457D01*
X180139974Y-117259448D01*
X180126090Y-117278168D01*
X180110438Y-117295438D01*
X180093168Y-117311090D01*
X180074448Y-117324974D01*
X180054457Y-117336956D01*
X180033387Y-117346921D01*
X180011443Y-117354773D01*
X179988834Y-117360437D01*
X179965779Y-117363856D01*
X179942500Y-117365000D01*
X179467500Y-117365000D01*
X179444221Y-117363856D01*
X179421166Y-117360437D01*
X179398557Y-117354773D01*
X179376613Y-117346921D01*
X179355543Y-117336956D01*
X179335552Y-117324974D01*
X179316832Y-117311090D01*
X179299562Y-117295438D01*
X179283910Y-117278168D01*
X179270026Y-117259448D01*
X179258044Y-117239457D01*
X179248079Y-117218387D01*
X179240227Y-117196443D01*
X179234563Y-117173834D01*
X179231144Y-117150779D01*
X179230000Y-117127500D01*
X179230000Y-116552500D01*
X179231144Y-116529221D01*
X179234563Y-116506166D01*
X179240227Y-116483557D01*
X179248079Y-116461613D01*
X179258044Y-116440543D01*
X179270026Y-116420552D01*
X179283910Y-116401832D01*
X179299562Y-116384562D01*
X179316832Y-116368910D01*
X179335552Y-116355026D01*
X179355543Y-116343044D01*
X179376613Y-116333079D01*
X179398557Y-116325227D01*
X179421166Y-116319563D01*
X179444221Y-116316144D01*
X179467500Y-116315000D01*
X179942500Y-116315000D01*
X179965779Y-116316144D01*
X179965779Y-116316144D01*
G37*
D11*
X179705000Y-116840000D03*
G04 #@! TD*
D10*
G04 #@! TO.C,R4*
G36*
X174885779Y-116316144D02*
X174908834Y-116319563D01*
X174931443Y-116325227D01*
X174953387Y-116333079D01*
X174974457Y-116343044D01*
X174994448Y-116355026D01*
X175013168Y-116368910D01*
X175030438Y-116384562D01*
X175046090Y-116401832D01*
X175059974Y-116420552D01*
X175071956Y-116440543D01*
X175081921Y-116461613D01*
X175089773Y-116483557D01*
X175095437Y-116506166D01*
X175098856Y-116529221D01*
X175100000Y-116552500D01*
X175100000Y-117127500D01*
X175098856Y-117150779D01*
X175095437Y-117173834D01*
X175089773Y-117196443D01*
X175081921Y-117218387D01*
X175071956Y-117239457D01*
X175059974Y-117259448D01*
X175046090Y-117278168D01*
X175030438Y-117295438D01*
X175013168Y-117311090D01*
X174994448Y-117324974D01*
X174974457Y-117336956D01*
X174953387Y-117346921D01*
X174931443Y-117354773D01*
X174908834Y-117360437D01*
X174885779Y-117363856D01*
X174862500Y-117365000D01*
X174387500Y-117365000D01*
X174364221Y-117363856D01*
X174341166Y-117360437D01*
X174318557Y-117354773D01*
X174296613Y-117346921D01*
X174275543Y-117336956D01*
X174255552Y-117324974D01*
X174236832Y-117311090D01*
X174219562Y-117295438D01*
X174203910Y-117278168D01*
X174190026Y-117259448D01*
X174178044Y-117239457D01*
X174168079Y-117218387D01*
X174160227Y-117196443D01*
X174154563Y-117173834D01*
X174151144Y-117150779D01*
X174150000Y-117127500D01*
X174150000Y-116552500D01*
X174151144Y-116529221D01*
X174154563Y-116506166D01*
X174160227Y-116483557D01*
X174168079Y-116461613D01*
X174178044Y-116440543D01*
X174190026Y-116420552D01*
X174203910Y-116401832D01*
X174219562Y-116384562D01*
X174236832Y-116368910D01*
X174255552Y-116355026D01*
X174275543Y-116343044D01*
X174296613Y-116333079D01*
X174318557Y-116325227D01*
X174341166Y-116319563D01*
X174364221Y-116316144D01*
X174387500Y-116315000D01*
X174862500Y-116315000D01*
X174885779Y-116316144D01*
X174885779Y-116316144D01*
G37*
D11*
X174625000Y-116840000D03*
D10*
G36*
X174885779Y-118066144D02*
X174908834Y-118069563D01*
X174931443Y-118075227D01*
X174953387Y-118083079D01*
X174974457Y-118093044D01*
X174994448Y-118105026D01*
X175013168Y-118118910D01*
X175030438Y-118134562D01*
X175046090Y-118151832D01*
X175059974Y-118170552D01*
X175071956Y-118190543D01*
X175081921Y-118211613D01*
X175089773Y-118233557D01*
X175095437Y-118256166D01*
X175098856Y-118279221D01*
X175100000Y-118302500D01*
X175100000Y-118877500D01*
X175098856Y-118900779D01*
X175095437Y-118923834D01*
X175089773Y-118946443D01*
X175081921Y-118968387D01*
X175071956Y-118989457D01*
X175059974Y-119009448D01*
X175046090Y-119028168D01*
X175030438Y-119045438D01*
X175013168Y-119061090D01*
X174994448Y-119074974D01*
X174974457Y-119086956D01*
X174953387Y-119096921D01*
X174931443Y-119104773D01*
X174908834Y-119110437D01*
X174885779Y-119113856D01*
X174862500Y-119115000D01*
X174387500Y-119115000D01*
X174364221Y-119113856D01*
X174341166Y-119110437D01*
X174318557Y-119104773D01*
X174296613Y-119096921D01*
X174275543Y-119086956D01*
X174255552Y-119074974D01*
X174236832Y-119061090D01*
X174219562Y-119045438D01*
X174203910Y-119028168D01*
X174190026Y-119009448D01*
X174178044Y-118989457D01*
X174168079Y-118968387D01*
X174160227Y-118946443D01*
X174154563Y-118923834D01*
X174151144Y-118900779D01*
X174150000Y-118877500D01*
X174150000Y-118302500D01*
X174151144Y-118279221D01*
X174154563Y-118256166D01*
X174160227Y-118233557D01*
X174168079Y-118211613D01*
X174178044Y-118190543D01*
X174190026Y-118170552D01*
X174203910Y-118151832D01*
X174219562Y-118134562D01*
X174236832Y-118118910D01*
X174255552Y-118105026D01*
X174275543Y-118093044D01*
X174296613Y-118083079D01*
X174318557Y-118075227D01*
X174341166Y-118069563D01*
X174364221Y-118066144D01*
X174387500Y-118065000D01*
X174862500Y-118065000D01*
X174885779Y-118066144D01*
X174885779Y-118066144D01*
G37*
D11*
X174625000Y-118590000D03*
G04 #@! TD*
D10*
G04 #@! TO.C,R10*
G36*
X199650779Y-79966144D02*
X199673834Y-79969563D01*
X199696443Y-79975227D01*
X199718387Y-79983079D01*
X199739457Y-79993044D01*
X199759448Y-80005026D01*
X199778168Y-80018910D01*
X199795438Y-80034562D01*
X199811090Y-80051832D01*
X199824974Y-80070552D01*
X199836956Y-80090543D01*
X199846921Y-80111613D01*
X199854773Y-80133557D01*
X199860437Y-80156166D01*
X199863856Y-80179221D01*
X199865000Y-80202500D01*
X199865000Y-80777500D01*
X199863856Y-80800779D01*
X199860437Y-80823834D01*
X199854773Y-80846443D01*
X199846921Y-80868387D01*
X199836956Y-80889457D01*
X199824974Y-80909448D01*
X199811090Y-80928168D01*
X199795438Y-80945438D01*
X199778168Y-80961090D01*
X199759448Y-80974974D01*
X199739457Y-80986956D01*
X199718387Y-80996921D01*
X199696443Y-81004773D01*
X199673834Y-81010437D01*
X199650779Y-81013856D01*
X199627500Y-81015000D01*
X199152500Y-81015000D01*
X199129221Y-81013856D01*
X199106166Y-81010437D01*
X199083557Y-81004773D01*
X199061613Y-80996921D01*
X199040543Y-80986956D01*
X199020552Y-80974974D01*
X199001832Y-80961090D01*
X198984562Y-80945438D01*
X198968910Y-80928168D01*
X198955026Y-80909448D01*
X198943044Y-80889457D01*
X198933079Y-80868387D01*
X198925227Y-80846443D01*
X198919563Y-80823834D01*
X198916144Y-80800779D01*
X198915000Y-80777500D01*
X198915000Y-80202500D01*
X198916144Y-80179221D01*
X198919563Y-80156166D01*
X198925227Y-80133557D01*
X198933079Y-80111613D01*
X198943044Y-80090543D01*
X198955026Y-80070552D01*
X198968910Y-80051832D01*
X198984562Y-80034562D01*
X199001832Y-80018910D01*
X199020552Y-80005026D01*
X199040543Y-79993044D01*
X199061613Y-79983079D01*
X199083557Y-79975227D01*
X199106166Y-79969563D01*
X199129221Y-79966144D01*
X199152500Y-79965000D01*
X199627500Y-79965000D01*
X199650779Y-79966144D01*
X199650779Y-79966144D01*
G37*
D11*
X199390000Y-80490000D03*
D10*
G36*
X199650779Y-78216144D02*
X199673834Y-78219563D01*
X199696443Y-78225227D01*
X199718387Y-78233079D01*
X199739457Y-78243044D01*
X199759448Y-78255026D01*
X199778168Y-78268910D01*
X199795438Y-78284562D01*
X199811090Y-78301832D01*
X199824974Y-78320552D01*
X199836956Y-78340543D01*
X199846921Y-78361613D01*
X199854773Y-78383557D01*
X199860437Y-78406166D01*
X199863856Y-78429221D01*
X199865000Y-78452500D01*
X199865000Y-79027500D01*
X199863856Y-79050779D01*
X199860437Y-79073834D01*
X199854773Y-79096443D01*
X199846921Y-79118387D01*
X199836956Y-79139457D01*
X199824974Y-79159448D01*
X199811090Y-79178168D01*
X199795438Y-79195438D01*
X199778168Y-79211090D01*
X199759448Y-79224974D01*
X199739457Y-79236956D01*
X199718387Y-79246921D01*
X199696443Y-79254773D01*
X199673834Y-79260437D01*
X199650779Y-79263856D01*
X199627500Y-79265000D01*
X199152500Y-79265000D01*
X199129221Y-79263856D01*
X199106166Y-79260437D01*
X199083557Y-79254773D01*
X199061613Y-79246921D01*
X199040543Y-79236956D01*
X199020552Y-79224974D01*
X199001832Y-79211090D01*
X198984562Y-79195438D01*
X198968910Y-79178168D01*
X198955026Y-79159448D01*
X198943044Y-79139457D01*
X198933079Y-79118387D01*
X198925227Y-79096443D01*
X198919563Y-79073834D01*
X198916144Y-79050779D01*
X198915000Y-79027500D01*
X198915000Y-78452500D01*
X198916144Y-78429221D01*
X198919563Y-78406166D01*
X198925227Y-78383557D01*
X198933079Y-78361613D01*
X198943044Y-78340543D01*
X198955026Y-78320552D01*
X198968910Y-78301832D01*
X198984562Y-78284562D01*
X199001832Y-78268910D01*
X199020552Y-78255026D01*
X199040543Y-78243044D01*
X199061613Y-78233079D01*
X199083557Y-78225227D01*
X199106166Y-78219563D01*
X199129221Y-78216144D01*
X199152500Y-78215000D01*
X199627500Y-78215000D01*
X199650779Y-78216144D01*
X199650779Y-78216144D01*
G37*
D11*
X199390000Y-78740000D03*
G04 #@! TD*
D10*
G04 #@! TO.C,R6*
G36*
X194570779Y-78216144D02*
X194593834Y-78219563D01*
X194616443Y-78225227D01*
X194638387Y-78233079D01*
X194659457Y-78243044D01*
X194679448Y-78255026D01*
X194698168Y-78268910D01*
X194715438Y-78284562D01*
X194731090Y-78301832D01*
X194744974Y-78320552D01*
X194756956Y-78340543D01*
X194766921Y-78361613D01*
X194774773Y-78383557D01*
X194780437Y-78406166D01*
X194783856Y-78429221D01*
X194785000Y-78452500D01*
X194785000Y-79027500D01*
X194783856Y-79050779D01*
X194780437Y-79073834D01*
X194774773Y-79096443D01*
X194766921Y-79118387D01*
X194756956Y-79139457D01*
X194744974Y-79159448D01*
X194731090Y-79178168D01*
X194715438Y-79195438D01*
X194698168Y-79211090D01*
X194679448Y-79224974D01*
X194659457Y-79236956D01*
X194638387Y-79246921D01*
X194616443Y-79254773D01*
X194593834Y-79260437D01*
X194570779Y-79263856D01*
X194547500Y-79265000D01*
X194072500Y-79265000D01*
X194049221Y-79263856D01*
X194026166Y-79260437D01*
X194003557Y-79254773D01*
X193981613Y-79246921D01*
X193960543Y-79236956D01*
X193940552Y-79224974D01*
X193921832Y-79211090D01*
X193904562Y-79195438D01*
X193888910Y-79178168D01*
X193875026Y-79159448D01*
X193863044Y-79139457D01*
X193853079Y-79118387D01*
X193845227Y-79096443D01*
X193839563Y-79073834D01*
X193836144Y-79050779D01*
X193835000Y-79027500D01*
X193835000Y-78452500D01*
X193836144Y-78429221D01*
X193839563Y-78406166D01*
X193845227Y-78383557D01*
X193853079Y-78361613D01*
X193863044Y-78340543D01*
X193875026Y-78320552D01*
X193888910Y-78301832D01*
X193904562Y-78284562D01*
X193921832Y-78268910D01*
X193940552Y-78255026D01*
X193960543Y-78243044D01*
X193981613Y-78233079D01*
X194003557Y-78225227D01*
X194026166Y-78219563D01*
X194049221Y-78216144D01*
X194072500Y-78215000D01*
X194547500Y-78215000D01*
X194570779Y-78216144D01*
X194570779Y-78216144D01*
G37*
D11*
X194310000Y-78740000D03*
D10*
G36*
X194570779Y-79966144D02*
X194593834Y-79969563D01*
X194616443Y-79975227D01*
X194638387Y-79983079D01*
X194659457Y-79993044D01*
X194679448Y-80005026D01*
X194698168Y-80018910D01*
X194715438Y-80034562D01*
X194731090Y-80051832D01*
X194744974Y-80070552D01*
X194756956Y-80090543D01*
X194766921Y-80111613D01*
X194774773Y-80133557D01*
X194780437Y-80156166D01*
X194783856Y-80179221D01*
X194785000Y-80202500D01*
X194785000Y-80777500D01*
X194783856Y-80800779D01*
X194780437Y-80823834D01*
X194774773Y-80846443D01*
X194766921Y-80868387D01*
X194756956Y-80889457D01*
X194744974Y-80909448D01*
X194731090Y-80928168D01*
X194715438Y-80945438D01*
X194698168Y-80961090D01*
X194679448Y-80974974D01*
X194659457Y-80986956D01*
X194638387Y-80996921D01*
X194616443Y-81004773D01*
X194593834Y-81010437D01*
X194570779Y-81013856D01*
X194547500Y-81015000D01*
X194072500Y-81015000D01*
X194049221Y-81013856D01*
X194026166Y-81010437D01*
X194003557Y-81004773D01*
X193981613Y-80996921D01*
X193960543Y-80986956D01*
X193940552Y-80974974D01*
X193921832Y-80961090D01*
X193904562Y-80945438D01*
X193888910Y-80928168D01*
X193875026Y-80909448D01*
X193863044Y-80889457D01*
X193853079Y-80868387D01*
X193845227Y-80846443D01*
X193839563Y-80823834D01*
X193836144Y-80800779D01*
X193835000Y-80777500D01*
X193835000Y-80202500D01*
X193836144Y-80179221D01*
X193839563Y-80156166D01*
X193845227Y-80133557D01*
X193853079Y-80111613D01*
X193863044Y-80090543D01*
X193875026Y-80070552D01*
X193888910Y-80051832D01*
X193904562Y-80034562D01*
X193921832Y-80018910D01*
X193940552Y-80005026D01*
X193960543Y-79993044D01*
X193981613Y-79983079D01*
X194003557Y-79975227D01*
X194026166Y-79969563D01*
X194049221Y-79966144D01*
X194072500Y-79965000D01*
X194547500Y-79965000D01*
X194570779Y-79966144D01*
X194570779Y-79966144D01*
G37*
D11*
X194310000Y-80490000D03*
G04 #@! TD*
D10*
G04 #@! TO.C,R12*
G36*
X219335779Y-78216144D02*
X219358834Y-78219563D01*
X219381443Y-78225227D01*
X219403387Y-78233079D01*
X219424457Y-78243044D01*
X219444448Y-78255026D01*
X219463168Y-78268910D01*
X219480438Y-78284562D01*
X219496090Y-78301832D01*
X219509974Y-78320552D01*
X219521956Y-78340543D01*
X219531921Y-78361613D01*
X219539773Y-78383557D01*
X219545437Y-78406166D01*
X219548856Y-78429221D01*
X219550000Y-78452500D01*
X219550000Y-79027500D01*
X219548856Y-79050779D01*
X219545437Y-79073834D01*
X219539773Y-79096443D01*
X219531921Y-79118387D01*
X219521956Y-79139457D01*
X219509974Y-79159448D01*
X219496090Y-79178168D01*
X219480438Y-79195438D01*
X219463168Y-79211090D01*
X219444448Y-79224974D01*
X219424457Y-79236956D01*
X219403387Y-79246921D01*
X219381443Y-79254773D01*
X219358834Y-79260437D01*
X219335779Y-79263856D01*
X219312500Y-79265000D01*
X218837500Y-79265000D01*
X218814221Y-79263856D01*
X218791166Y-79260437D01*
X218768557Y-79254773D01*
X218746613Y-79246921D01*
X218725543Y-79236956D01*
X218705552Y-79224974D01*
X218686832Y-79211090D01*
X218669562Y-79195438D01*
X218653910Y-79178168D01*
X218640026Y-79159448D01*
X218628044Y-79139457D01*
X218618079Y-79118387D01*
X218610227Y-79096443D01*
X218604563Y-79073834D01*
X218601144Y-79050779D01*
X218600000Y-79027500D01*
X218600000Y-78452500D01*
X218601144Y-78429221D01*
X218604563Y-78406166D01*
X218610227Y-78383557D01*
X218618079Y-78361613D01*
X218628044Y-78340543D01*
X218640026Y-78320552D01*
X218653910Y-78301832D01*
X218669562Y-78284562D01*
X218686832Y-78268910D01*
X218705552Y-78255026D01*
X218725543Y-78243044D01*
X218746613Y-78233079D01*
X218768557Y-78225227D01*
X218791166Y-78219563D01*
X218814221Y-78216144D01*
X218837500Y-78215000D01*
X219312500Y-78215000D01*
X219335779Y-78216144D01*
X219335779Y-78216144D01*
G37*
D11*
X219075000Y-78740000D03*
D10*
G36*
X219335779Y-79966144D02*
X219358834Y-79969563D01*
X219381443Y-79975227D01*
X219403387Y-79983079D01*
X219424457Y-79993044D01*
X219444448Y-80005026D01*
X219463168Y-80018910D01*
X219480438Y-80034562D01*
X219496090Y-80051832D01*
X219509974Y-80070552D01*
X219521956Y-80090543D01*
X219531921Y-80111613D01*
X219539773Y-80133557D01*
X219545437Y-80156166D01*
X219548856Y-80179221D01*
X219550000Y-80202500D01*
X219550000Y-80777500D01*
X219548856Y-80800779D01*
X219545437Y-80823834D01*
X219539773Y-80846443D01*
X219531921Y-80868387D01*
X219521956Y-80889457D01*
X219509974Y-80909448D01*
X219496090Y-80928168D01*
X219480438Y-80945438D01*
X219463168Y-80961090D01*
X219444448Y-80974974D01*
X219424457Y-80986956D01*
X219403387Y-80996921D01*
X219381443Y-81004773D01*
X219358834Y-81010437D01*
X219335779Y-81013856D01*
X219312500Y-81015000D01*
X218837500Y-81015000D01*
X218814221Y-81013856D01*
X218791166Y-81010437D01*
X218768557Y-81004773D01*
X218746613Y-80996921D01*
X218725543Y-80986956D01*
X218705552Y-80974974D01*
X218686832Y-80961090D01*
X218669562Y-80945438D01*
X218653910Y-80928168D01*
X218640026Y-80909448D01*
X218628044Y-80889457D01*
X218618079Y-80868387D01*
X218610227Y-80846443D01*
X218604563Y-80823834D01*
X218601144Y-80800779D01*
X218600000Y-80777500D01*
X218600000Y-80202500D01*
X218601144Y-80179221D01*
X218604563Y-80156166D01*
X218610227Y-80133557D01*
X218618079Y-80111613D01*
X218628044Y-80090543D01*
X218640026Y-80070552D01*
X218653910Y-80051832D01*
X218669562Y-80034562D01*
X218686832Y-80018910D01*
X218705552Y-80005026D01*
X218725543Y-79993044D01*
X218746613Y-79983079D01*
X218768557Y-79975227D01*
X218791166Y-79969563D01*
X218814221Y-79966144D01*
X218837500Y-79965000D01*
X219312500Y-79965000D01*
X219335779Y-79966144D01*
X219335779Y-79966144D01*
G37*
D11*
X219075000Y-80490000D03*
G04 #@! TD*
D10*
G04 #@! TO.C,R8*
G36*
X214255779Y-78216144D02*
X214278834Y-78219563D01*
X214301443Y-78225227D01*
X214323387Y-78233079D01*
X214344457Y-78243044D01*
X214364448Y-78255026D01*
X214383168Y-78268910D01*
X214400438Y-78284562D01*
X214416090Y-78301832D01*
X214429974Y-78320552D01*
X214441956Y-78340543D01*
X214451921Y-78361613D01*
X214459773Y-78383557D01*
X214465437Y-78406166D01*
X214468856Y-78429221D01*
X214470000Y-78452500D01*
X214470000Y-79027500D01*
X214468856Y-79050779D01*
X214465437Y-79073834D01*
X214459773Y-79096443D01*
X214451921Y-79118387D01*
X214441956Y-79139457D01*
X214429974Y-79159448D01*
X214416090Y-79178168D01*
X214400438Y-79195438D01*
X214383168Y-79211090D01*
X214364448Y-79224974D01*
X214344457Y-79236956D01*
X214323387Y-79246921D01*
X214301443Y-79254773D01*
X214278834Y-79260437D01*
X214255779Y-79263856D01*
X214232500Y-79265000D01*
X213757500Y-79265000D01*
X213734221Y-79263856D01*
X213711166Y-79260437D01*
X213688557Y-79254773D01*
X213666613Y-79246921D01*
X213645543Y-79236956D01*
X213625552Y-79224974D01*
X213606832Y-79211090D01*
X213589562Y-79195438D01*
X213573910Y-79178168D01*
X213560026Y-79159448D01*
X213548044Y-79139457D01*
X213538079Y-79118387D01*
X213530227Y-79096443D01*
X213524563Y-79073834D01*
X213521144Y-79050779D01*
X213520000Y-79027500D01*
X213520000Y-78452500D01*
X213521144Y-78429221D01*
X213524563Y-78406166D01*
X213530227Y-78383557D01*
X213538079Y-78361613D01*
X213548044Y-78340543D01*
X213560026Y-78320552D01*
X213573910Y-78301832D01*
X213589562Y-78284562D01*
X213606832Y-78268910D01*
X213625552Y-78255026D01*
X213645543Y-78243044D01*
X213666613Y-78233079D01*
X213688557Y-78225227D01*
X213711166Y-78219563D01*
X213734221Y-78216144D01*
X213757500Y-78215000D01*
X214232500Y-78215000D01*
X214255779Y-78216144D01*
X214255779Y-78216144D01*
G37*
D11*
X213995000Y-78740000D03*
D10*
G36*
X214255779Y-79966144D02*
X214278834Y-79969563D01*
X214301443Y-79975227D01*
X214323387Y-79983079D01*
X214344457Y-79993044D01*
X214364448Y-80005026D01*
X214383168Y-80018910D01*
X214400438Y-80034562D01*
X214416090Y-80051832D01*
X214429974Y-80070552D01*
X214441956Y-80090543D01*
X214451921Y-80111613D01*
X214459773Y-80133557D01*
X214465437Y-80156166D01*
X214468856Y-80179221D01*
X214470000Y-80202500D01*
X214470000Y-80777500D01*
X214468856Y-80800779D01*
X214465437Y-80823834D01*
X214459773Y-80846443D01*
X214451921Y-80868387D01*
X214441956Y-80889457D01*
X214429974Y-80909448D01*
X214416090Y-80928168D01*
X214400438Y-80945438D01*
X214383168Y-80961090D01*
X214364448Y-80974974D01*
X214344457Y-80986956D01*
X214323387Y-80996921D01*
X214301443Y-81004773D01*
X214278834Y-81010437D01*
X214255779Y-81013856D01*
X214232500Y-81015000D01*
X213757500Y-81015000D01*
X213734221Y-81013856D01*
X213711166Y-81010437D01*
X213688557Y-81004773D01*
X213666613Y-80996921D01*
X213645543Y-80986956D01*
X213625552Y-80974974D01*
X213606832Y-80961090D01*
X213589562Y-80945438D01*
X213573910Y-80928168D01*
X213560026Y-80909448D01*
X213548044Y-80889457D01*
X213538079Y-80868387D01*
X213530227Y-80846443D01*
X213524563Y-80823834D01*
X213521144Y-80800779D01*
X213520000Y-80777500D01*
X213520000Y-80202500D01*
X213521144Y-80179221D01*
X213524563Y-80156166D01*
X213530227Y-80133557D01*
X213538079Y-80111613D01*
X213548044Y-80090543D01*
X213560026Y-80070552D01*
X213573910Y-80051832D01*
X213589562Y-80034562D01*
X213606832Y-80018910D01*
X213625552Y-80005026D01*
X213645543Y-79993044D01*
X213666613Y-79983079D01*
X213688557Y-79975227D01*
X213711166Y-79969563D01*
X213734221Y-79966144D01*
X213757500Y-79965000D01*
X214232500Y-79965000D01*
X214255779Y-79966144D01*
X214255779Y-79966144D01*
G37*
D11*
X213995000Y-80490000D03*
G04 #@! TD*
D10*
G04 #@! TO.C,R15*
G36*
X160280779Y-118066144D02*
X160303834Y-118069563D01*
X160326443Y-118075227D01*
X160348387Y-118083079D01*
X160369457Y-118093044D01*
X160389448Y-118105026D01*
X160408168Y-118118910D01*
X160425438Y-118134562D01*
X160441090Y-118151832D01*
X160454974Y-118170552D01*
X160466956Y-118190543D01*
X160476921Y-118211613D01*
X160484773Y-118233557D01*
X160490437Y-118256166D01*
X160493856Y-118279221D01*
X160495000Y-118302500D01*
X160495000Y-118877500D01*
X160493856Y-118900779D01*
X160490437Y-118923834D01*
X160484773Y-118946443D01*
X160476921Y-118968387D01*
X160466956Y-118989457D01*
X160454974Y-119009448D01*
X160441090Y-119028168D01*
X160425438Y-119045438D01*
X160408168Y-119061090D01*
X160389448Y-119074974D01*
X160369457Y-119086956D01*
X160348387Y-119096921D01*
X160326443Y-119104773D01*
X160303834Y-119110437D01*
X160280779Y-119113856D01*
X160257500Y-119115000D01*
X159782500Y-119115000D01*
X159759221Y-119113856D01*
X159736166Y-119110437D01*
X159713557Y-119104773D01*
X159691613Y-119096921D01*
X159670543Y-119086956D01*
X159650552Y-119074974D01*
X159631832Y-119061090D01*
X159614562Y-119045438D01*
X159598910Y-119028168D01*
X159585026Y-119009448D01*
X159573044Y-118989457D01*
X159563079Y-118968387D01*
X159555227Y-118946443D01*
X159549563Y-118923834D01*
X159546144Y-118900779D01*
X159545000Y-118877500D01*
X159545000Y-118302500D01*
X159546144Y-118279221D01*
X159549563Y-118256166D01*
X159555227Y-118233557D01*
X159563079Y-118211613D01*
X159573044Y-118190543D01*
X159585026Y-118170552D01*
X159598910Y-118151832D01*
X159614562Y-118134562D01*
X159631832Y-118118910D01*
X159650552Y-118105026D01*
X159670543Y-118093044D01*
X159691613Y-118083079D01*
X159713557Y-118075227D01*
X159736166Y-118069563D01*
X159759221Y-118066144D01*
X159782500Y-118065000D01*
X160257500Y-118065000D01*
X160280779Y-118066144D01*
X160280779Y-118066144D01*
G37*
D11*
X160020000Y-118590000D03*
D10*
G36*
X160280779Y-116316144D02*
X160303834Y-116319563D01*
X160326443Y-116325227D01*
X160348387Y-116333079D01*
X160369457Y-116343044D01*
X160389448Y-116355026D01*
X160408168Y-116368910D01*
X160425438Y-116384562D01*
X160441090Y-116401832D01*
X160454974Y-116420552D01*
X160466956Y-116440543D01*
X160476921Y-116461613D01*
X160484773Y-116483557D01*
X160490437Y-116506166D01*
X160493856Y-116529221D01*
X160495000Y-116552500D01*
X160495000Y-117127500D01*
X160493856Y-117150779D01*
X160490437Y-117173834D01*
X160484773Y-117196443D01*
X160476921Y-117218387D01*
X160466956Y-117239457D01*
X160454974Y-117259448D01*
X160441090Y-117278168D01*
X160425438Y-117295438D01*
X160408168Y-117311090D01*
X160389448Y-117324974D01*
X160369457Y-117336956D01*
X160348387Y-117346921D01*
X160326443Y-117354773D01*
X160303834Y-117360437D01*
X160280779Y-117363856D01*
X160257500Y-117365000D01*
X159782500Y-117365000D01*
X159759221Y-117363856D01*
X159736166Y-117360437D01*
X159713557Y-117354773D01*
X159691613Y-117346921D01*
X159670543Y-117336956D01*
X159650552Y-117324974D01*
X159631832Y-117311090D01*
X159614562Y-117295438D01*
X159598910Y-117278168D01*
X159585026Y-117259448D01*
X159573044Y-117239457D01*
X159563079Y-117218387D01*
X159555227Y-117196443D01*
X159549563Y-117173834D01*
X159546144Y-117150779D01*
X159545000Y-117127500D01*
X159545000Y-116552500D01*
X159546144Y-116529221D01*
X159549563Y-116506166D01*
X159555227Y-116483557D01*
X159563079Y-116461613D01*
X159573044Y-116440543D01*
X159585026Y-116420552D01*
X159598910Y-116401832D01*
X159614562Y-116384562D01*
X159631832Y-116368910D01*
X159650552Y-116355026D01*
X159670543Y-116343044D01*
X159691613Y-116333079D01*
X159713557Y-116325227D01*
X159736166Y-116319563D01*
X159759221Y-116316144D01*
X159782500Y-116315000D01*
X160257500Y-116315000D01*
X160280779Y-116316144D01*
X160280779Y-116316144D01*
G37*
D11*
X160020000Y-116840000D03*
G04 #@! TD*
D10*
G04 #@! TO.C,R9*
G36*
X155200779Y-116316144D02*
X155223834Y-116319563D01*
X155246443Y-116325227D01*
X155268387Y-116333079D01*
X155289457Y-116343044D01*
X155309448Y-116355026D01*
X155328168Y-116368910D01*
X155345438Y-116384562D01*
X155361090Y-116401832D01*
X155374974Y-116420552D01*
X155386956Y-116440543D01*
X155396921Y-116461613D01*
X155404773Y-116483557D01*
X155410437Y-116506166D01*
X155413856Y-116529221D01*
X155415000Y-116552500D01*
X155415000Y-117127500D01*
X155413856Y-117150779D01*
X155410437Y-117173834D01*
X155404773Y-117196443D01*
X155396921Y-117218387D01*
X155386956Y-117239457D01*
X155374974Y-117259448D01*
X155361090Y-117278168D01*
X155345438Y-117295438D01*
X155328168Y-117311090D01*
X155309448Y-117324974D01*
X155289457Y-117336956D01*
X155268387Y-117346921D01*
X155246443Y-117354773D01*
X155223834Y-117360437D01*
X155200779Y-117363856D01*
X155177500Y-117365000D01*
X154702500Y-117365000D01*
X154679221Y-117363856D01*
X154656166Y-117360437D01*
X154633557Y-117354773D01*
X154611613Y-117346921D01*
X154590543Y-117336956D01*
X154570552Y-117324974D01*
X154551832Y-117311090D01*
X154534562Y-117295438D01*
X154518910Y-117278168D01*
X154505026Y-117259448D01*
X154493044Y-117239457D01*
X154483079Y-117218387D01*
X154475227Y-117196443D01*
X154469563Y-117173834D01*
X154466144Y-117150779D01*
X154465000Y-117127500D01*
X154465000Y-116552500D01*
X154466144Y-116529221D01*
X154469563Y-116506166D01*
X154475227Y-116483557D01*
X154483079Y-116461613D01*
X154493044Y-116440543D01*
X154505026Y-116420552D01*
X154518910Y-116401832D01*
X154534562Y-116384562D01*
X154551832Y-116368910D01*
X154570552Y-116355026D01*
X154590543Y-116343044D01*
X154611613Y-116333079D01*
X154633557Y-116325227D01*
X154656166Y-116319563D01*
X154679221Y-116316144D01*
X154702500Y-116315000D01*
X155177500Y-116315000D01*
X155200779Y-116316144D01*
X155200779Y-116316144D01*
G37*
D11*
X154940000Y-116840000D03*
D10*
G36*
X155200779Y-118066144D02*
X155223834Y-118069563D01*
X155246443Y-118075227D01*
X155268387Y-118083079D01*
X155289457Y-118093044D01*
X155309448Y-118105026D01*
X155328168Y-118118910D01*
X155345438Y-118134562D01*
X155361090Y-118151832D01*
X155374974Y-118170552D01*
X155386956Y-118190543D01*
X155396921Y-118211613D01*
X155404773Y-118233557D01*
X155410437Y-118256166D01*
X155413856Y-118279221D01*
X155415000Y-118302500D01*
X155415000Y-118877500D01*
X155413856Y-118900779D01*
X155410437Y-118923834D01*
X155404773Y-118946443D01*
X155396921Y-118968387D01*
X155386956Y-118989457D01*
X155374974Y-119009448D01*
X155361090Y-119028168D01*
X155345438Y-119045438D01*
X155328168Y-119061090D01*
X155309448Y-119074974D01*
X155289457Y-119086956D01*
X155268387Y-119096921D01*
X155246443Y-119104773D01*
X155223834Y-119110437D01*
X155200779Y-119113856D01*
X155177500Y-119115000D01*
X154702500Y-119115000D01*
X154679221Y-119113856D01*
X154656166Y-119110437D01*
X154633557Y-119104773D01*
X154611613Y-119096921D01*
X154590543Y-119086956D01*
X154570552Y-119074974D01*
X154551832Y-119061090D01*
X154534562Y-119045438D01*
X154518910Y-119028168D01*
X154505026Y-119009448D01*
X154493044Y-118989457D01*
X154483079Y-118968387D01*
X154475227Y-118946443D01*
X154469563Y-118923834D01*
X154466144Y-118900779D01*
X154465000Y-118877500D01*
X154465000Y-118302500D01*
X154466144Y-118279221D01*
X154469563Y-118256166D01*
X154475227Y-118233557D01*
X154483079Y-118211613D01*
X154493044Y-118190543D01*
X154505026Y-118170552D01*
X154518910Y-118151832D01*
X154534562Y-118134562D01*
X154551832Y-118118910D01*
X154570552Y-118105026D01*
X154590543Y-118093044D01*
X154611613Y-118083079D01*
X154633557Y-118075227D01*
X154656166Y-118069563D01*
X154679221Y-118066144D01*
X154702500Y-118065000D01*
X155177500Y-118065000D01*
X155200779Y-118066144D01*
X155200779Y-118066144D01*
G37*
D11*
X154940000Y-118590000D03*
G04 #@! TD*
D10*
G04 #@! TO.C,R17*
G36*
X142500779Y-116316144D02*
X142523834Y-116319563D01*
X142546443Y-116325227D01*
X142568387Y-116333079D01*
X142589457Y-116343044D01*
X142609448Y-116355026D01*
X142628168Y-116368910D01*
X142645438Y-116384562D01*
X142661090Y-116401832D01*
X142674974Y-116420552D01*
X142686956Y-116440543D01*
X142696921Y-116461613D01*
X142704773Y-116483557D01*
X142710437Y-116506166D01*
X142713856Y-116529221D01*
X142715000Y-116552500D01*
X142715000Y-117127500D01*
X142713856Y-117150779D01*
X142710437Y-117173834D01*
X142704773Y-117196443D01*
X142696921Y-117218387D01*
X142686956Y-117239457D01*
X142674974Y-117259448D01*
X142661090Y-117278168D01*
X142645438Y-117295438D01*
X142628168Y-117311090D01*
X142609448Y-117324974D01*
X142589457Y-117336956D01*
X142568387Y-117346921D01*
X142546443Y-117354773D01*
X142523834Y-117360437D01*
X142500779Y-117363856D01*
X142477500Y-117365000D01*
X142002500Y-117365000D01*
X141979221Y-117363856D01*
X141956166Y-117360437D01*
X141933557Y-117354773D01*
X141911613Y-117346921D01*
X141890543Y-117336956D01*
X141870552Y-117324974D01*
X141851832Y-117311090D01*
X141834562Y-117295438D01*
X141818910Y-117278168D01*
X141805026Y-117259448D01*
X141793044Y-117239457D01*
X141783079Y-117218387D01*
X141775227Y-117196443D01*
X141769563Y-117173834D01*
X141766144Y-117150779D01*
X141765000Y-117127500D01*
X141765000Y-116552500D01*
X141766144Y-116529221D01*
X141769563Y-116506166D01*
X141775227Y-116483557D01*
X141783079Y-116461613D01*
X141793044Y-116440543D01*
X141805026Y-116420552D01*
X141818910Y-116401832D01*
X141834562Y-116384562D01*
X141851832Y-116368910D01*
X141870552Y-116355026D01*
X141890543Y-116343044D01*
X141911613Y-116333079D01*
X141933557Y-116325227D01*
X141956166Y-116319563D01*
X141979221Y-116316144D01*
X142002500Y-116315000D01*
X142477500Y-116315000D01*
X142500779Y-116316144D01*
X142500779Y-116316144D01*
G37*
D11*
X142240000Y-116840000D03*
D10*
G36*
X142500779Y-118066144D02*
X142523834Y-118069563D01*
X142546443Y-118075227D01*
X142568387Y-118083079D01*
X142589457Y-118093044D01*
X142609448Y-118105026D01*
X142628168Y-118118910D01*
X142645438Y-118134562D01*
X142661090Y-118151832D01*
X142674974Y-118170552D01*
X142686956Y-118190543D01*
X142696921Y-118211613D01*
X142704773Y-118233557D01*
X142710437Y-118256166D01*
X142713856Y-118279221D01*
X142715000Y-118302500D01*
X142715000Y-118877500D01*
X142713856Y-118900779D01*
X142710437Y-118923834D01*
X142704773Y-118946443D01*
X142696921Y-118968387D01*
X142686956Y-118989457D01*
X142674974Y-119009448D01*
X142661090Y-119028168D01*
X142645438Y-119045438D01*
X142628168Y-119061090D01*
X142609448Y-119074974D01*
X142589457Y-119086956D01*
X142568387Y-119096921D01*
X142546443Y-119104773D01*
X142523834Y-119110437D01*
X142500779Y-119113856D01*
X142477500Y-119115000D01*
X142002500Y-119115000D01*
X141979221Y-119113856D01*
X141956166Y-119110437D01*
X141933557Y-119104773D01*
X141911613Y-119096921D01*
X141890543Y-119086956D01*
X141870552Y-119074974D01*
X141851832Y-119061090D01*
X141834562Y-119045438D01*
X141818910Y-119028168D01*
X141805026Y-119009448D01*
X141793044Y-118989457D01*
X141783079Y-118968387D01*
X141775227Y-118946443D01*
X141769563Y-118923834D01*
X141766144Y-118900779D01*
X141765000Y-118877500D01*
X141765000Y-118302500D01*
X141766144Y-118279221D01*
X141769563Y-118256166D01*
X141775227Y-118233557D01*
X141783079Y-118211613D01*
X141793044Y-118190543D01*
X141805026Y-118170552D01*
X141818910Y-118151832D01*
X141834562Y-118134562D01*
X141851832Y-118118910D01*
X141870552Y-118105026D01*
X141890543Y-118093044D01*
X141911613Y-118083079D01*
X141933557Y-118075227D01*
X141956166Y-118069563D01*
X141979221Y-118066144D01*
X142002500Y-118065000D01*
X142477500Y-118065000D01*
X142500779Y-118066144D01*
X142500779Y-118066144D01*
G37*
D11*
X142240000Y-118590000D03*
G04 #@! TD*
D10*
G04 #@! TO.C,R11*
G36*
X137420779Y-116316144D02*
X137443834Y-116319563D01*
X137466443Y-116325227D01*
X137488387Y-116333079D01*
X137509457Y-116343044D01*
X137529448Y-116355026D01*
X137548168Y-116368910D01*
X137565438Y-116384562D01*
X137581090Y-116401832D01*
X137594974Y-116420552D01*
X137606956Y-116440543D01*
X137616921Y-116461613D01*
X137624773Y-116483557D01*
X137630437Y-116506166D01*
X137633856Y-116529221D01*
X137635000Y-116552500D01*
X137635000Y-117127500D01*
X137633856Y-117150779D01*
X137630437Y-117173834D01*
X137624773Y-117196443D01*
X137616921Y-117218387D01*
X137606956Y-117239457D01*
X137594974Y-117259448D01*
X137581090Y-117278168D01*
X137565438Y-117295438D01*
X137548168Y-117311090D01*
X137529448Y-117324974D01*
X137509457Y-117336956D01*
X137488387Y-117346921D01*
X137466443Y-117354773D01*
X137443834Y-117360437D01*
X137420779Y-117363856D01*
X137397500Y-117365000D01*
X136922500Y-117365000D01*
X136899221Y-117363856D01*
X136876166Y-117360437D01*
X136853557Y-117354773D01*
X136831613Y-117346921D01*
X136810543Y-117336956D01*
X136790552Y-117324974D01*
X136771832Y-117311090D01*
X136754562Y-117295438D01*
X136738910Y-117278168D01*
X136725026Y-117259448D01*
X136713044Y-117239457D01*
X136703079Y-117218387D01*
X136695227Y-117196443D01*
X136689563Y-117173834D01*
X136686144Y-117150779D01*
X136685000Y-117127500D01*
X136685000Y-116552500D01*
X136686144Y-116529221D01*
X136689563Y-116506166D01*
X136695227Y-116483557D01*
X136703079Y-116461613D01*
X136713044Y-116440543D01*
X136725026Y-116420552D01*
X136738910Y-116401832D01*
X136754562Y-116384562D01*
X136771832Y-116368910D01*
X136790552Y-116355026D01*
X136810543Y-116343044D01*
X136831613Y-116333079D01*
X136853557Y-116325227D01*
X136876166Y-116319563D01*
X136899221Y-116316144D01*
X136922500Y-116315000D01*
X137397500Y-116315000D01*
X137420779Y-116316144D01*
X137420779Y-116316144D01*
G37*
D11*
X137160000Y-116840000D03*
D10*
G36*
X137420779Y-118066144D02*
X137443834Y-118069563D01*
X137466443Y-118075227D01*
X137488387Y-118083079D01*
X137509457Y-118093044D01*
X137529448Y-118105026D01*
X137548168Y-118118910D01*
X137565438Y-118134562D01*
X137581090Y-118151832D01*
X137594974Y-118170552D01*
X137606956Y-118190543D01*
X137616921Y-118211613D01*
X137624773Y-118233557D01*
X137630437Y-118256166D01*
X137633856Y-118279221D01*
X137635000Y-118302500D01*
X137635000Y-118877500D01*
X137633856Y-118900779D01*
X137630437Y-118923834D01*
X137624773Y-118946443D01*
X137616921Y-118968387D01*
X137606956Y-118989457D01*
X137594974Y-119009448D01*
X137581090Y-119028168D01*
X137565438Y-119045438D01*
X137548168Y-119061090D01*
X137529448Y-119074974D01*
X137509457Y-119086956D01*
X137488387Y-119096921D01*
X137466443Y-119104773D01*
X137443834Y-119110437D01*
X137420779Y-119113856D01*
X137397500Y-119115000D01*
X136922500Y-119115000D01*
X136899221Y-119113856D01*
X136876166Y-119110437D01*
X136853557Y-119104773D01*
X136831613Y-119096921D01*
X136810543Y-119086956D01*
X136790552Y-119074974D01*
X136771832Y-119061090D01*
X136754562Y-119045438D01*
X136738910Y-119028168D01*
X136725026Y-119009448D01*
X136713044Y-118989457D01*
X136703079Y-118968387D01*
X136695227Y-118946443D01*
X136689563Y-118923834D01*
X136686144Y-118900779D01*
X136685000Y-118877500D01*
X136685000Y-118302500D01*
X136686144Y-118279221D01*
X136689563Y-118256166D01*
X136695227Y-118233557D01*
X136703079Y-118211613D01*
X136713044Y-118190543D01*
X136725026Y-118170552D01*
X136738910Y-118151832D01*
X136754562Y-118134562D01*
X136771832Y-118118910D01*
X136790552Y-118105026D01*
X136810543Y-118093044D01*
X136831613Y-118083079D01*
X136853557Y-118075227D01*
X136876166Y-118069563D01*
X136899221Y-118066144D01*
X136922500Y-118065000D01*
X137397500Y-118065000D01*
X137420779Y-118066144D01*
X137420779Y-118066144D01*
G37*
D11*
X137160000Y-118590000D03*
G04 #@! TD*
D10*
G04 #@! TO.C,R18*
G36*
X142500779Y-79966144D02*
X142523834Y-79969563D01*
X142546443Y-79975227D01*
X142568387Y-79983079D01*
X142589457Y-79993044D01*
X142609448Y-80005026D01*
X142628168Y-80018910D01*
X142645438Y-80034562D01*
X142661090Y-80051832D01*
X142674974Y-80070552D01*
X142686956Y-80090543D01*
X142696921Y-80111613D01*
X142704773Y-80133557D01*
X142710437Y-80156166D01*
X142713856Y-80179221D01*
X142715000Y-80202500D01*
X142715000Y-80777500D01*
X142713856Y-80800779D01*
X142710437Y-80823834D01*
X142704773Y-80846443D01*
X142696921Y-80868387D01*
X142686956Y-80889457D01*
X142674974Y-80909448D01*
X142661090Y-80928168D01*
X142645438Y-80945438D01*
X142628168Y-80961090D01*
X142609448Y-80974974D01*
X142589457Y-80986956D01*
X142568387Y-80996921D01*
X142546443Y-81004773D01*
X142523834Y-81010437D01*
X142500779Y-81013856D01*
X142477500Y-81015000D01*
X142002500Y-81015000D01*
X141979221Y-81013856D01*
X141956166Y-81010437D01*
X141933557Y-81004773D01*
X141911613Y-80996921D01*
X141890543Y-80986956D01*
X141870552Y-80974974D01*
X141851832Y-80961090D01*
X141834562Y-80945438D01*
X141818910Y-80928168D01*
X141805026Y-80909448D01*
X141793044Y-80889457D01*
X141783079Y-80868387D01*
X141775227Y-80846443D01*
X141769563Y-80823834D01*
X141766144Y-80800779D01*
X141765000Y-80777500D01*
X141765000Y-80202500D01*
X141766144Y-80179221D01*
X141769563Y-80156166D01*
X141775227Y-80133557D01*
X141783079Y-80111613D01*
X141793044Y-80090543D01*
X141805026Y-80070552D01*
X141818910Y-80051832D01*
X141834562Y-80034562D01*
X141851832Y-80018910D01*
X141870552Y-80005026D01*
X141890543Y-79993044D01*
X141911613Y-79983079D01*
X141933557Y-79975227D01*
X141956166Y-79969563D01*
X141979221Y-79966144D01*
X142002500Y-79965000D01*
X142477500Y-79965000D01*
X142500779Y-79966144D01*
X142500779Y-79966144D01*
G37*
D11*
X142240000Y-80490000D03*
D10*
G36*
X142500779Y-78216144D02*
X142523834Y-78219563D01*
X142546443Y-78225227D01*
X142568387Y-78233079D01*
X142589457Y-78243044D01*
X142609448Y-78255026D01*
X142628168Y-78268910D01*
X142645438Y-78284562D01*
X142661090Y-78301832D01*
X142674974Y-78320552D01*
X142686956Y-78340543D01*
X142696921Y-78361613D01*
X142704773Y-78383557D01*
X142710437Y-78406166D01*
X142713856Y-78429221D01*
X142715000Y-78452500D01*
X142715000Y-79027500D01*
X142713856Y-79050779D01*
X142710437Y-79073834D01*
X142704773Y-79096443D01*
X142696921Y-79118387D01*
X142686956Y-79139457D01*
X142674974Y-79159448D01*
X142661090Y-79178168D01*
X142645438Y-79195438D01*
X142628168Y-79211090D01*
X142609448Y-79224974D01*
X142589457Y-79236956D01*
X142568387Y-79246921D01*
X142546443Y-79254773D01*
X142523834Y-79260437D01*
X142500779Y-79263856D01*
X142477500Y-79265000D01*
X142002500Y-79265000D01*
X141979221Y-79263856D01*
X141956166Y-79260437D01*
X141933557Y-79254773D01*
X141911613Y-79246921D01*
X141890543Y-79236956D01*
X141870552Y-79224974D01*
X141851832Y-79211090D01*
X141834562Y-79195438D01*
X141818910Y-79178168D01*
X141805026Y-79159448D01*
X141793044Y-79139457D01*
X141783079Y-79118387D01*
X141775227Y-79096443D01*
X141769563Y-79073834D01*
X141766144Y-79050779D01*
X141765000Y-79027500D01*
X141765000Y-78452500D01*
X141766144Y-78429221D01*
X141769563Y-78406166D01*
X141775227Y-78383557D01*
X141783079Y-78361613D01*
X141793044Y-78340543D01*
X141805026Y-78320552D01*
X141818910Y-78301832D01*
X141834562Y-78284562D01*
X141851832Y-78268910D01*
X141870552Y-78255026D01*
X141890543Y-78243044D01*
X141911613Y-78233079D01*
X141933557Y-78225227D01*
X141956166Y-78219563D01*
X141979221Y-78216144D01*
X142002500Y-78215000D01*
X142477500Y-78215000D01*
X142500779Y-78216144D01*
X142500779Y-78216144D01*
G37*
D11*
X142240000Y-78740000D03*
G04 #@! TD*
D10*
G04 #@! TO.C,R13*
G36*
X137420779Y-78216144D02*
X137443834Y-78219563D01*
X137466443Y-78225227D01*
X137488387Y-78233079D01*
X137509457Y-78243044D01*
X137529448Y-78255026D01*
X137548168Y-78268910D01*
X137565438Y-78284562D01*
X137581090Y-78301832D01*
X137594974Y-78320552D01*
X137606956Y-78340543D01*
X137616921Y-78361613D01*
X137624773Y-78383557D01*
X137630437Y-78406166D01*
X137633856Y-78429221D01*
X137635000Y-78452500D01*
X137635000Y-79027500D01*
X137633856Y-79050779D01*
X137630437Y-79073834D01*
X137624773Y-79096443D01*
X137616921Y-79118387D01*
X137606956Y-79139457D01*
X137594974Y-79159448D01*
X137581090Y-79178168D01*
X137565438Y-79195438D01*
X137548168Y-79211090D01*
X137529448Y-79224974D01*
X137509457Y-79236956D01*
X137488387Y-79246921D01*
X137466443Y-79254773D01*
X137443834Y-79260437D01*
X137420779Y-79263856D01*
X137397500Y-79265000D01*
X136922500Y-79265000D01*
X136899221Y-79263856D01*
X136876166Y-79260437D01*
X136853557Y-79254773D01*
X136831613Y-79246921D01*
X136810543Y-79236956D01*
X136790552Y-79224974D01*
X136771832Y-79211090D01*
X136754562Y-79195438D01*
X136738910Y-79178168D01*
X136725026Y-79159448D01*
X136713044Y-79139457D01*
X136703079Y-79118387D01*
X136695227Y-79096443D01*
X136689563Y-79073834D01*
X136686144Y-79050779D01*
X136685000Y-79027500D01*
X136685000Y-78452500D01*
X136686144Y-78429221D01*
X136689563Y-78406166D01*
X136695227Y-78383557D01*
X136703079Y-78361613D01*
X136713044Y-78340543D01*
X136725026Y-78320552D01*
X136738910Y-78301832D01*
X136754562Y-78284562D01*
X136771832Y-78268910D01*
X136790552Y-78255026D01*
X136810543Y-78243044D01*
X136831613Y-78233079D01*
X136853557Y-78225227D01*
X136876166Y-78219563D01*
X136899221Y-78216144D01*
X136922500Y-78215000D01*
X137397500Y-78215000D01*
X137420779Y-78216144D01*
X137420779Y-78216144D01*
G37*
D11*
X137160000Y-78740000D03*
D10*
G36*
X137420779Y-79966144D02*
X137443834Y-79969563D01*
X137466443Y-79975227D01*
X137488387Y-79983079D01*
X137509457Y-79993044D01*
X137529448Y-80005026D01*
X137548168Y-80018910D01*
X137565438Y-80034562D01*
X137581090Y-80051832D01*
X137594974Y-80070552D01*
X137606956Y-80090543D01*
X137616921Y-80111613D01*
X137624773Y-80133557D01*
X137630437Y-80156166D01*
X137633856Y-80179221D01*
X137635000Y-80202500D01*
X137635000Y-80777500D01*
X137633856Y-80800779D01*
X137630437Y-80823834D01*
X137624773Y-80846443D01*
X137616921Y-80868387D01*
X137606956Y-80889457D01*
X137594974Y-80909448D01*
X137581090Y-80928168D01*
X137565438Y-80945438D01*
X137548168Y-80961090D01*
X137529448Y-80974974D01*
X137509457Y-80986956D01*
X137488387Y-80996921D01*
X137466443Y-81004773D01*
X137443834Y-81010437D01*
X137420779Y-81013856D01*
X137397500Y-81015000D01*
X136922500Y-81015000D01*
X136899221Y-81013856D01*
X136876166Y-81010437D01*
X136853557Y-81004773D01*
X136831613Y-80996921D01*
X136810543Y-80986956D01*
X136790552Y-80974974D01*
X136771832Y-80961090D01*
X136754562Y-80945438D01*
X136738910Y-80928168D01*
X136725026Y-80909448D01*
X136713044Y-80889457D01*
X136703079Y-80868387D01*
X136695227Y-80846443D01*
X136689563Y-80823834D01*
X136686144Y-80800779D01*
X136685000Y-80777500D01*
X136685000Y-80202500D01*
X136686144Y-80179221D01*
X136689563Y-80156166D01*
X136695227Y-80133557D01*
X136703079Y-80111613D01*
X136713044Y-80090543D01*
X136725026Y-80070552D01*
X136738910Y-80051832D01*
X136754562Y-80034562D01*
X136771832Y-80018910D01*
X136790552Y-80005026D01*
X136810543Y-79993044D01*
X136831613Y-79983079D01*
X136853557Y-79975227D01*
X136876166Y-79969563D01*
X136899221Y-79966144D01*
X136922500Y-79965000D01*
X137397500Y-79965000D01*
X137420779Y-79966144D01*
X137420779Y-79966144D01*
G37*
D11*
X137160000Y-80490000D03*
G04 #@! TD*
D10*
G04 #@! TO.C,R19*
G36*
X160280779Y-78216144D02*
X160303834Y-78219563D01*
X160326443Y-78225227D01*
X160348387Y-78233079D01*
X160369457Y-78243044D01*
X160389448Y-78255026D01*
X160408168Y-78268910D01*
X160425438Y-78284562D01*
X160441090Y-78301832D01*
X160454974Y-78320552D01*
X160466956Y-78340543D01*
X160476921Y-78361613D01*
X160484773Y-78383557D01*
X160490437Y-78406166D01*
X160493856Y-78429221D01*
X160495000Y-78452500D01*
X160495000Y-79027500D01*
X160493856Y-79050779D01*
X160490437Y-79073834D01*
X160484773Y-79096443D01*
X160476921Y-79118387D01*
X160466956Y-79139457D01*
X160454974Y-79159448D01*
X160441090Y-79178168D01*
X160425438Y-79195438D01*
X160408168Y-79211090D01*
X160389448Y-79224974D01*
X160369457Y-79236956D01*
X160348387Y-79246921D01*
X160326443Y-79254773D01*
X160303834Y-79260437D01*
X160280779Y-79263856D01*
X160257500Y-79265000D01*
X159782500Y-79265000D01*
X159759221Y-79263856D01*
X159736166Y-79260437D01*
X159713557Y-79254773D01*
X159691613Y-79246921D01*
X159670543Y-79236956D01*
X159650552Y-79224974D01*
X159631832Y-79211090D01*
X159614562Y-79195438D01*
X159598910Y-79178168D01*
X159585026Y-79159448D01*
X159573044Y-79139457D01*
X159563079Y-79118387D01*
X159555227Y-79096443D01*
X159549563Y-79073834D01*
X159546144Y-79050779D01*
X159545000Y-79027500D01*
X159545000Y-78452500D01*
X159546144Y-78429221D01*
X159549563Y-78406166D01*
X159555227Y-78383557D01*
X159563079Y-78361613D01*
X159573044Y-78340543D01*
X159585026Y-78320552D01*
X159598910Y-78301832D01*
X159614562Y-78284562D01*
X159631832Y-78268910D01*
X159650552Y-78255026D01*
X159670543Y-78243044D01*
X159691613Y-78233079D01*
X159713557Y-78225227D01*
X159736166Y-78219563D01*
X159759221Y-78216144D01*
X159782500Y-78215000D01*
X160257500Y-78215000D01*
X160280779Y-78216144D01*
X160280779Y-78216144D01*
G37*
D11*
X160020000Y-78740000D03*
D10*
G36*
X160280779Y-79966144D02*
X160303834Y-79969563D01*
X160326443Y-79975227D01*
X160348387Y-79983079D01*
X160369457Y-79993044D01*
X160389448Y-80005026D01*
X160408168Y-80018910D01*
X160425438Y-80034562D01*
X160441090Y-80051832D01*
X160454974Y-80070552D01*
X160466956Y-80090543D01*
X160476921Y-80111613D01*
X160484773Y-80133557D01*
X160490437Y-80156166D01*
X160493856Y-80179221D01*
X160495000Y-80202500D01*
X160495000Y-80777500D01*
X160493856Y-80800779D01*
X160490437Y-80823834D01*
X160484773Y-80846443D01*
X160476921Y-80868387D01*
X160466956Y-80889457D01*
X160454974Y-80909448D01*
X160441090Y-80928168D01*
X160425438Y-80945438D01*
X160408168Y-80961090D01*
X160389448Y-80974974D01*
X160369457Y-80986956D01*
X160348387Y-80996921D01*
X160326443Y-81004773D01*
X160303834Y-81010437D01*
X160280779Y-81013856D01*
X160257500Y-81015000D01*
X159782500Y-81015000D01*
X159759221Y-81013856D01*
X159736166Y-81010437D01*
X159713557Y-81004773D01*
X159691613Y-80996921D01*
X159670543Y-80986956D01*
X159650552Y-80974974D01*
X159631832Y-80961090D01*
X159614562Y-80945438D01*
X159598910Y-80928168D01*
X159585026Y-80909448D01*
X159573044Y-80889457D01*
X159563079Y-80868387D01*
X159555227Y-80846443D01*
X159549563Y-80823834D01*
X159546144Y-80800779D01*
X159545000Y-80777500D01*
X159545000Y-80202500D01*
X159546144Y-80179221D01*
X159549563Y-80156166D01*
X159555227Y-80133557D01*
X159563079Y-80111613D01*
X159573044Y-80090543D01*
X159585026Y-80070552D01*
X159598910Y-80051832D01*
X159614562Y-80034562D01*
X159631832Y-80018910D01*
X159650552Y-80005026D01*
X159670543Y-79993044D01*
X159691613Y-79983079D01*
X159713557Y-79975227D01*
X159736166Y-79969563D01*
X159759221Y-79966144D01*
X159782500Y-79965000D01*
X160257500Y-79965000D01*
X160280779Y-79966144D01*
X160280779Y-79966144D01*
G37*
D11*
X160020000Y-80490000D03*
G04 #@! TD*
D10*
G04 #@! TO.C,R14*
G36*
X155200779Y-79966144D02*
X155223834Y-79969563D01*
X155246443Y-79975227D01*
X155268387Y-79983079D01*
X155289457Y-79993044D01*
X155309448Y-80005026D01*
X155328168Y-80018910D01*
X155345438Y-80034562D01*
X155361090Y-80051832D01*
X155374974Y-80070552D01*
X155386956Y-80090543D01*
X155396921Y-80111613D01*
X155404773Y-80133557D01*
X155410437Y-80156166D01*
X155413856Y-80179221D01*
X155415000Y-80202500D01*
X155415000Y-80777500D01*
X155413856Y-80800779D01*
X155410437Y-80823834D01*
X155404773Y-80846443D01*
X155396921Y-80868387D01*
X155386956Y-80889457D01*
X155374974Y-80909448D01*
X155361090Y-80928168D01*
X155345438Y-80945438D01*
X155328168Y-80961090D01*
X155309448Y-80974974D01*
X155289457Y-80986956D01*
X155268387Y-80996921D01*
X155246443Y-81004773D01*
X155223834Y-81010437D01*
X155200779Y-81013856D01*
X155177500Y-81015000D01*
X154702500Y-81015000D01*
X154679221Y-81013856D01*
X154656166Y-81010437D01*
X154633557Y-81004773D01*
X154611613Y-80996921D01*
X154590543Y-80986956D01*
X154570552Y-80974974D01*
X154551832Y-80961090D01*
X154534562Y-80945438D01*
X154518910Y-80928168D01*
X154505026Y-80909448D01*
X154493044Y-80889457D01*
X154483079Y-80868387D01*
X154475227Y-80846443D01*
X154469563Y-80823834D01*
X154466144Y-80800779D01*
X154465000Y-80777500D01*
X154465000Y-80202500D01*
X154466144Y-80179221D01*
X154469563Y-80156166D01*
X154475227Y-80133557D01*
X154483079Y-80111613D01*
X154493044Y-80090543D01*
X154505026Y-80070552D01*
X154518910Y-80051832D01*
X154534562Y-80034562D01*
X154551832Y-80018910D01*
X154570552Y-80005026D01*
X154590543Y-79993044D01*
X154611613Y-79983079D01*
X154633557Y-79975227D01*
X154656166Y-79969563D01*
X154679221Y-79966144D01*
X154702500Y-79965000D01*
X155177500Y-79965000D01*
X155200779Y-79966144D01*
X155200779Y-79966144D01*
G37*
D11*
X154940000Y-80490000D03*
D10*
G36*
X155200779Y-78216144D02*
X155223834Y-78219563D01*
X155246443Y-78225227D01*
X155268387Y-78233079D01*
X155289457Y-78243044D01*
X155309448Y-78255026D01*
X155328168Y-78268910D01*
X155345438Y-78284562D01*
X155361090Y-78301832D01*
X155374974Y-78320552D01*
X155386956Y-78340543D01*
X155396921Y-78361613D01*
X155404773Y-78383557D01*
X155410437Y-78406166D01*
X155413856Y-78429221D01*
X155415000Y-78452500D01*
X155415000Y-79027500D01*
X155413856Y-79050779D01*
X155410437Y-79073834D01*
X155404773Y-79096443D01*
X155396921Y-79118387D01*
X155386956Y-79139457D01*
X155374974Y-79159448D01*
X155361090Y-79178168D01*
X155345438Y-79195438D01*
X155328168Y-79211090D01*
X155309448Y-79224974D01*
X155289457Y-79236956D01*
X155268387Y-79246921D01*
X155246443Y-79254773D01*
X155223834Y-79260437D01*
X155200779Y-79263856D01*
X155177500Y-79265000D01*
X154702500Y-79265000D01*
X154679221Y-79263856D01*
X154656166Y-79260437D01*
X154633557Y-79254773D01*
X154611613Y-79246921D01*
X154590543Y-79236956D01*
X154570552Y-79224974D01*
X154551832Y-79211090D01*
X154534562Y-79195438D01*
X154518910Y-79178168D01*
X154505026Y-79159448D01*
X154493044Y-79139457D01*
X154483079Y-79118387D01*
X154475227Y-79096443D01*
X154469563Y-79073834D01*
X154466144Y-79050779D01*
X154465000Y-79027500D01*
X154465000Y-78452500D01*
X154466144Y-78429221D01*
X154469563Y-78406166D01*
X154475227Y-78383557D01*
X154483079Y-78361613D01*
X154493044Y-78340543D01*
X154505026Y-78320552D01*
X154518910Y-78301832D01*
X154534562Y-78284562D01*
X154551832Y-78268910D01*
X154570552Y-78255026D01*
X154590543Y-78243044D01*
X154611613Y-78233079D01*
X154633557Y-78225227D01*
X154656166Y-78219563D01*
X154679221Y-78216144D01*
X154702500Y-78215000D01*
X155177500Y-78215000D01*
X155200779Y-78216144D01*
X155200779Y-78216144D01*
G37*
D11*
X154940000Y-78740000D03*
G04 #@! TD*
D10*
G04 #@! TO.C,R20*
G36*
X179965779Y-79966144D02*
X179988834Y-79969563D01*
X180011443Y-79975227D01*
X180033387Y-79983079D01*
X180054457Y-79993044D01*
X180074448Y-80005026D01*
X180093168Y-80018910D01*
X180110438Y-80034562D01*
X180126090Y-80051832D01*
X180139974Y-80070552D01*
X180151956Y-80090543D01*
X180161921Y-80111613D01*
X180169773Y-80133557D01*
X180175437Y-80156166D01*
X180178856Y-80179221D01*
X180180000Y-80202500D01*
X180180000Y-80777500D01*
X180178856Y-80800779D01*
X180175437Y-80823834D01*
X180169773Y-80846443D01*
X180161921Y-80868387D01*
X180151956Y-80889457D01*
X180139974Y-80909448D01*
X180126090Y-80928168D01*
X180110438Y-80945438D01*
X180093168Y-80961090D01*
X180074448Y-80974974D01*
X180054457Y-80986956D01*
X180033387Y-80996921D01*
X180011443Y-81004773D01*
X179988834Y-81010437D01*
X179965779Y-81013856D01*
X179942500Y-81015000D01*
X179467500Y-81015000D01*
X179444221Y-81013856D01*
X179421166Y-81010437D01*
X179398557Y-81004773D01*
X179376613Y-80996921D01*
X179355543Y-80986956D01*
X179335552Y-80974974D01*
X179316832Y-80961090D01*
X179299562Y-80945438D01*
X179283910Y-80928168D01*
X179270026Y-80909448D01*
X179258044Y-80889457D01*
X179248079Y-80868387D01*
X179240227Y-80846443D01*
X179234563Y-80823834D01*
X179231144Y-80800779D01*
X179230000Y-80777500D01*
X179230000Y-80202500D01*
X179231144Y-80179221D01*
X179234563Y-80156166D01*
X179240227Y-80133557D01*
X179248079Y-80111613D01*
X179258044Y-80090543D01*
X179270026Y-80070552D01*
X179283910Y-80051832D01*
X179299562Y-80034562D01*
X179316832Y-80018910D01*
X179335552Y-80005026D01*
X179355543Y-79993044D01*
X179376613Y-79983079D01*
X179398557Y-79975227D01*
X179421166Y-79969563D01*
X179444221Y-79966144D01*
X179467500Y-79965000D01*
X179942500Y-79965000D01*
X179965779Y-79966144D01*
X179965779Y-79966144D01*
G37*
D11*
X179705000Y-80490000D03*
D10*
G36*
X179965779Y-78216144D02*
X179988834Y-78219563D01*
X180011443Y-78225227D01*
X180033387Y-78233079D01*
X180054457Y-78243044D01*
X180074448Y-78255026D01*
X180093168Y-78268910D01*
X180110438Y-78284562D01*
X180126090Y-78301832D01*
X180139974Y-78320552D01*
X180151956Y-78340543D01*
X180161921Y-78361613D01*
X180169773Y-78383557D01*
X180175437Y-78406166D01*
X180178856Y-78429221D01*
X180180000Y-78452500D01*
X180180000Y-79027500D01*
X180178856Y-79050779D01*
X180175437Y-79073834D01*
X180169773Y-79096443D01*
X180161921Y-79118387D01*
X180151956Y-79139457D01*
X180139974Y-79159448D01*
X180126090Y-79178168D01*
X180110438Y-79195438D01*
X180093168Y-79211090D01*
X180074448Y-79224974D01*
X180054457Y-79236956D01*
X180033387Y-79246921D01*
X180011443Y-79254773D01*
X179988834Y-79260437D01*
X179965779Y-79263856D01*
X179942500Y-79265000D01*
X179467500Y-79265000D01*
X179444221Y-79263856D01*
X179421166Y-79260437D01*
X179398557Y-79254773D01*
X179376613Y-79246921D01*
X179355543Y-79236956D01*
X179335552Y-79224974D01*
X179316832Y-79211090D01*
X179299562Y-79195438D01*
X179283910Y-79178168D01*
X179270026Y-79159448D01*
X179258044Y-79139457D01*
X179248079Y-79118387D01*
X179240227Y-79096443D01*
X179234563Y-79073834D01*
X179231144Y-79050779D01*
X179230000Y-79027500D01*
X179230000Y-78452500D01*
X179231144Y-78429221D01*
X179234563Y-78406166D01*
X179240227Y-78383557D01*
X179248079Y-78361613D01*
X179258044Y-78340543D01*
X179270026Y-78320552D01*
X179283910Y-78301832D01*
X179299562Y-78284562D01*
X179316832Y-78268910D01*
X179335552Y-78255026D01*
X179355543Y-78243044D01*
X179376613Y-78233079D01*
X179398557Y-78225227D01*
X179421166Y-78219563D01*
X179444221Y-78216144D01*
X179467500Y-78215000D01*
X179942500Y-78215000D01*
X179965779Y-78216144D01*
X179965779Y-78216144D01*
G37*
D11*
X179705000Y-78740000D03*
G04 #@! TD*
D10*
G04 #@! TO.C,R16*
G36*
X175520779Y-79966144D02*
X175543834Y-79969563D01*
X175566443Y-79975227D01*
X175588387Y-79983079D01*
X175609457Y-79993044D01*
X175629448Y-80005026D01*
X175648168Y-80018910D01*
X175665438Y-80034562D01*
X175681090Y-80051832D01*
X175694974Y-80070552D01*
X175706956Y-80090543D01*
X175716921Y-80111613D01*
X175724773Y-80133557D01*
X175730437Y-80156166D01*
X175733856Y-80179221D01*
X175735000Y-80202500D01*
X175735000Y-80777500D01*
X175733856Y-80800779D01*
X175730437Y-80823834D01*
X175724773Y-80846443D01*
X175716921Y-80868387D01*
X175706956Y-80889457D01*
X175694974Y-80909448D01*
X175681090Y-80928168D01*
X175665438Y-80945438D01*
X175648168Y-80961090D01*
X175629448Y-80974974D01*
X175609457Y-80986956D01*
X175588387Y-80996921D01*
X175566443Y-81004773D01*
X175543834Y-81010437D01*
X175520779Y-81013856D01*
X175497500Y-81015000D01*
X175022500Y-81015000D01*
X174999221Y-81013856D01*
X174976166Y-81010437D01*
X174953557Y-81004773D01*
X174931613Y-80996921D01*
X174910543Y-80986956D01*
X174890552Y-80974974D01*
X174871832Y-80961090D01*
X174854562Y-80945438D01*
X174838910Y-80928168D01*
X174825026Y-80909448D01*
X174813044Y-80889457D01*
X174803079Y-80868387D01*
X174795227Y-80846443D01*
X174789563Y-80823834D01*
X174786144Y-80800779D01*
X174785000Y-80777500D01*
X174785000Y-80202500D01*
X174786144Y-80179221D01*
X174789563Y-80156166D01*
X174795227Y-80133557D01*
X174803079Y-80111613D01*
X174813044Y-80090543D01*
X174825026Y-80070552D01*
X174838910Y-80051832D01*
X174854562Y-80034562D01*
X174871832Y-80018910D01*
X174890552Y-80005026D01*
X174910543Y-79993044D01*
X174931613Y-79983079D01*
X174953557Y-79975227D01*
X174976166Y-79969563D01*
X174999221Y-79966144D01*
X175022500Y-79965000D01*
X175497500Y-79965000D01*
X175520779Y-79966144D01*
X175520779Y-79966144D01*
G37*
D11*
X175260000Y-80490000D03*
D10*
G36*
X175520779Y-78216144D02*
X175543834Y-78219563D01*
X175566443Y-78225227D01*
X175588387Y-78233079D01*
X175609457Y-78243044D01*
X175629448Y-78255026D01*
X175648168Y-78268910D01*
X175665438Y-78284562D01*
X175681090Y-78301832D01*
X175694974Y-78320552D01*
X175706956Y-78340543D01*
X175716921Y-78361613D01*
X175724773Y-78383557D01*
X175730437Y-78406166D01*
X175733856Y-78429221D01*
X175735000Y-78452500D01*
X175735000Y-79027500D01*
X175733856Y-79050779D01*
X175730437Y-79073834D01*
X175724773Y-79096443D01*
X175716921Y-79118387D01*
X175706956Y-79139457D01*
X175694974Y-79159448D01*
X175681090Y-79178168D01*
X175665438Y-79195438D01*
X175648168Y-79211090D01*
X175629448Y-79224974D01*
X175609457Y-79236956D01*
X175588387Y-79246921D01*
X175566443Y-79254773D01*
X175543834Y-79260437D01*
X175520779Y-79263856D01*
X175497500Y-79265000D01*
X175022500Y-79265000D01*
X174999221Y-79263856D01*
X174976166Y-79260437D01*
X174953557Y-79254773D01*
X174931613Y-79246921D01*
X174910543Y-79236956D01*
X174890552Y-79224974D01*
X174871832Y-79211090D01*
X174854562Y-79195438D01*
X174838910Y-79178168D01*
X174825026Y-79159448D01*
X174813044Y-79139457D01*
X174803079Y-79118387D01*
X174795227Y-79096443D01*
X174789563Y-79073834D01*
X174786144Y-79050779D01*
X174785000Y-79027500D01*
X174785000Y-78452500D01*
X174786144Y-78429221D01*
X174789563Y-78406166D01*
X174795227Y-78383557D01*
X174803079Y-78361613D01*
X174813044Y-78340543D01*
X174825026Y-78320552D01*
X174838910Y-78301832D01*
X174854562Y-78284562D01*
X174871832Y-78268910D01*
X174890552Y-78255026D01*
X174910543Y-78243044D01*
X174931613Y-78233079D01*
X174953557Y-78225227D01*
X174976166Y-78219563D01*
X174999221Y-78216144D01*
X175022500Y-78215000D01*
X175497500Y-78215000D01*
X175520779Y-78216144D01*
X175520779Y-78216144D01*
G37*
D11*
X175260000Y-78740000D03*
G04 #@! TD*
D10*
G04 #@! TO.C,C2*
G36*
X115880779Y-95411144D02*
X115903834Y-95414563D01*
X115926443Y-95420227D01*
X115948387Y-95428079D01*
X115969457Y-95438044D01*
X115989448Y-95450026D01*
X116008168Y-95463910D01*
X116025438Y-95479562D01*
X116041090Y-95496832D01*
X116054974Y-95515552D01*
X116066956Y-95535543D01*
X116076921Y-95556613D01*
X116084773Y-95578557D01*
X116090437Y-95601166D01*
X116093856Y-95624221D01*
X116095000Y-95647500D01*
X116095000Y-96122500D01*
X116093856Y-96145779D01*
X116090437Y-96168834D01*
X116084773Y-96191443D01*
X116076921Y-96213387D01*
X116066956Y-96234457D01*
X116054974Y-96254448D01*
X116041090Y-96273168D01*
X116025438Y-96290438D01*
X116008168Y-96306090D01*
X115989448Y-96319974D01*
X115969457Y-96331956D01*
X115948387Y-96341921D01*
X115926443Y-96349773D01*
X115903834Y-96355437D01*
X115880779Y-96358856D01*
X115857500Y-96360000D01*
X115282500Y-96360000D01*
X115259221Y-96358856D01*
X115236166Y-96355437D01*
X115213557Y-96349773D01*
X115191613Y-96341921D01*
X115170543Y-96331956D01*
X115150552Y-96319974D01*
X115131832Y-96306090D01*
X115114562Y-96290438D01*
X115098910Y-96273168D01*
X115085026Y-96254448D01*
X115073044Y-96234457D01*
X115063079Y-96213387D01*
X115055227Y-96191443D01*
X115049563Y-96168834D01*
X115046144Y-96145779D01*
X115045000Y-96122500D01*
X115045000Y-95647500D01*
X115046144Y-95624221D01*
X115049563Y-95601166D01*
X115055227Y-95578557D01*
X115063079Y-95556613D01*
X115073044Y-95535543D01*
X115085026Y-95515552D01*
X115098910Y-95496832D01*
X115114562Y-95479562D01*
X115131832Y-95463910D01*
X115150552Y-95450026D01*
X115170543Y-95438044D01*
X115191613Y-95428079D01*
X115213557Y-95420227D01*
X115236166Y-95414563D01*
X115259221Y-95411144D01*
X115282500Y-95410000D01*
X115857500Y-95410000D01*
X115880779Y-95411144D01*
X115880779Y-95411144D01*
G37*
D11*
X115570000Y-95885000D03*
D10*
G36*
X117630779Y-95411144D02*
X117653834Y-95414563D01*
X117676443Y-95420227D01*
X117698387Y-95428079D01*
X117719457Y-95438044D01*
X117739448Y-95450026D01*
X117758168Y-95463910D01*
X117775438Y-95479562D01*
X117791090Y-95496832D01*
X117804974Y-95515552D01*
X117816956Y-95535543D01*
X117826921Y-95556613D01*
X117834773Y-95578557D01*
X117840437Y-95601166D01*
X117843856Y-95624221D01*
X117845000Y-95647500D01*
X117845000Y-96122500D01*
X117843856Y-96145779D01*
X117840437Y-96168834D01*
X117834773Y-96191443D01*
X117826921Y-96213387D01*
X117816956Y-96234457D01*
X117804974Y-96254448D01*
X117791090Y-96273168D01*
X117775438Y-96290438D01*
X117758168Y-96306090D01*
X117739448Y-96319974D01*
X117719457Y-96331956D01*
X117698387Y-96341921D01*
X117676443Y-96349773D01*
X117653834Y-96355437D01*
X117630779Y-96358856D01*
X117607500Y-96360000D01*
X117032500Y-96360000D01*
X117009221Y-96358856D01*
X116986166Y-96355437D01*
X116963557Y-96349773D01*
X116941613Y-96341921D01*
X116920543Y-96331956D01*
X116900552Y-96319974D01*
X116881832Y-96306090D01*
X116864562Y-96290438D01*
X116848910Y-96273168D01*
X116835026Y-96254448D01*
X116823044Y-96234457D01*
X116813079Y-96213387D01*
X116805227Y-96191443D01*
X116799563Y-96168834D01*
X116796144Y-96145779D01*
X116795000Y-96122500D01*
X116795000Y-95647500D01*
X116796144Y-95624221D01*
X116799563Y-95601166D01*
X116805227Y-95578557D01*
X116813079Y-95556613D01*
X116823044Y-95535543D01*
X116835026Y-95515552D01*
X116848910Y-95496832D01*
X116864562Y-95479562D01*
X116881832Y-95463910D01*
X116900552Y-95450026D01*
X116920543Y-95438044D01*
X116941613Y-95428079D01*
X116963557Y-95420227D01*
X116986166Y-95414563D01*
X117009221Y-95411144D01*
X117032500Y-95410000D01*
X117607500Y-95410000D01*
X117630779Y-95411144D01*
X117630779Y-95411144D01*
G37*
D11*
X117320000Y-95885000D03*
G04 #@! TD*
D10*
G04 #@! TO.C,D1*
G36*
X214255779Y-123146144D02*
X214278834Y-123149563D01*
X214301443Y-123155227D01*
X214323387Y-123163079D01*
X214344457Y-123173044D01*
X214364448Y-123185026D01*
X214383168Y-123198910D01*
X214400438Y-123214562D01*
X214416090Y-123231832D01*
X214429974Y-123250552D01*
X214441956Y-123270543D01*
X214451921Y-123291613D01*
X214459773Y-123313557D01*
X214465437Y-123336166D01*
X214468856Y-123359221D01*
X214470000Y-123382500D01*
X214470000Y-123957500D01*
X214468856Y-123980779D01*
X214465437Y-124003834D01*
X214459773Y-124026443D01*
X214451921Y-124048387D01*
X214441956Y-124069457D01*
X214429974Y-124089448D01*
X214416090Y-124108168D01*
X214400438Y-124125438D01*
X214383168Y-124141090D01*
X214364448Y-124154974D01*
X214344457Y-124166956D01*
X214323387Y-124176921D01*
X214301443Y-124184773D01*
X214278834Y-124190437D01*
X214255779Y-124193856D01*
X214232500Y-124195000D01*
X213757500Y-124195000D01*
X213734221Y-124193856D01*
X213711166Y-124190437D01*
X213688557Y-124184773D01*
X213666613Y-124176921D01*
X213645543Y-124166956D01*
X213625552Y-124154974D01*
X213606832Y-124141090D01*
X213589562Y-124125438D01*
X213573910Y-124108168D01*
X213560026Y-124089448D01*
X213548044Y-124069457D01*
X213538079Y-124048387D01*
X213530227Y-124026443D01*
X213524563Y-124003834D01*
X213521144Y-123980779D01*
X213520000Y-123957500D01*
X213520000Y-123382500D01*
X213521144Y-123359221D01*
X213524563Y-123336166D01*
X213530227Y-123313557D01*
X213538079Y-123291613D01*
X213548044Y-123270543D01*
X213560026Y-123250552D01*
X213573910Y-123231832D01*
X213589562Y-123214562D01*
X213606832Y-123198910D01*
X213625552Y-123185026D01*
X213645543Y-123173044D01*
X213666613Y-123163079D01*
X213688557Y-123155227D01*
X213711166Y-123149563D01*
X213734221Y-123146144D01*
X213757500Y-123145000D01*
X214232500Y-123145000D01*
X214255779Y-123146144D01*
X214255779Y-123146144D01*
G37*
D11*
X213995000Y-123670000D03*
D10*
G36*
X214255779Y-121396144D02*
X214278834Y-121399563D01*
X214301443Y-121405227D01*
X214323387Y-121413079D01*
X214344457Y-121423044D01*
X214364448Y-121435026D01*
X214383168Y-121448910D01*
X214400438Y-121464562D01*
X214416090Y-121481832D01*
X214429974Y-121500552D01*
X214441956Y-121520543D01*
X214451921Y-121541613D01*
X214459773Y-121563557D01*
X214465437Y-121586166D01*
X214468856Y-121609221D01*
X214470000Y-121632500D01*
X214470000Y-122207500D01*
X214468856Y-122230779D01*
X214465437Y-122253834D01*
X214459773Y-122276443D01*
X214451921Y-122298387D01*
X214441956Y-122319457D01*
X214429974Y-122339448D01*
X214416090Y-122358168D01*
X214400438Y-122375438D01*
X214383168Y-122391090D01*
X214364448Y-122404974D01*
X214344457Y-122416956D01*
X214323387Y-122426921D01*
X214301443Y-122434773D01*
X214278834Y-122440437D01*
X214255779Y-122443856D01*
X214232500Y-122445000D01*
X213757500Y-122445000D01*
X213734221Y-122443856D01*
X213711166Y-122440437D01*
X213688557Y-122434773D01*
X213666613Y-122426921D01*
X213645543Y-122416956D01*
X213625552Y-122404974D01*
X213606832Y-122391090D01*
X213589562Y-122375438D01*
X213573910Y-122358168D01*
X213560026Y-122339448D01*
X213548044Y-122319457D01*
X213538079Y-122298387D01*
X213530227Y-122276443D01*
X213524563Y-122253834D01*
X213521144Y-122230779D01*
X213520000Y-122207500D01*
X213520000Y-121632500D01*
X213521144Y-121609221D01*
X213524563Y-121586166D01*
X213530227Y-121563557D01*
X213538079Y-121541613D01*
X213548044Y-121520543D01*
X213560026Y-121500552D01*
X213573910Y-121481832D01*
X213589562Y-121464562D01*
X213606832Y-121448910D01*
X213625552Y-121435026D01*
X213645543Y-121423044D01*
X213666613Y-121413079D01*
X213688557Y-121405227D01*
X213711166Y-121399563D01*
X213734221Y-121396144D01*
X213757500Y-121395000D01*
X214232500Y-121395000D01*
X214255779Y-121396144D01*
X214255779Y-121396144D01*
G37*
D11*
X213995000Y-121920000D03*
G04 #@! TD*
D10*
G04 #@! TO.C,D2*
G36*
X219335779Y-121396144D02*
X219358834Y-121399563D01*
X219381443Y-121405227D01*
X219403387Y-121413079D01*
X219424457Y-121423044D01*
X219444448Y-121435026D01*
X219463168Y-121448910D01*
X219480438Y-121464562D01*
X219496090Y-121481832D01*
X219509974Y-121500552D01*
X219521956Y-121520543D01*
X219531921Y-121541613D01*
X219539773Y-121563557D01*
X219545437Y-121586166D01*
X219548856Y-121609221D01*
X219550000Y-121632500D01*
X219550000Y-122207500D01*
X219548856Y-122230779D01*
X219545437Y-122253834D01*
X219539773Y-122276443D01*
X219531921Y-122298387D01*
X219521956Y-122319457D01*
X219509974Y-122339448D01*
X219496090Y-122358168D01*
X219480438Y-122375438D01*
X219463168Y-122391090D01*
X219444448Y-122404974D01*
X219424457Y-122416956D01*
X219403387Y-122426921D01*
X219381443Y-122434773D01*
X219358834Y-122440437D01*
X219335779Y-122443856D01*
X219312500Y-122445000D01*
X218837500Y-122445000D01*
X218814221Y-122443856D01*
X218791166Y-122440437D01*
X218768557Y-122434773D01*
X218746613Y-122426921D01*
X218725543Y-122416956D01*
X218705552Y-122404974D01*
X218686832Y-122391090D01*
X218669562Y-122375438D01*
X218653910Y-122358168D01*
X218640026Y-122339448D01*
X218628044Y-122319457D01*
X218618079Y-122298387D01*
X218610227Y-122276443D01*
X218604563Y-122253834D01*
X218601144Y-122230779D01*
X218600000Y-122207500D01*
X218600000Y-121632500D01*
X218601144Y-121609221D01*
X218604563Y-121586166D01*
X218610227Y-121563557D01*
X218618079Y-121541613D01*
X218628044Y-121520543D01*
X218640026Y-121500552D01*
X218653910Y-121481832D01*
X218669562Y-121464562D01*
X218686832Y-121448910D01*
X218705552Y-121435026D01*
X218725543Y-121423044D01*
X218746613Y-121413079D01*
X218768557Y-121405227D01*
X218791166Y-121399563D01*
X218814221Y-121396144D01*
X218837500Y-121395000D01*
X219312500Y-121395000D01*
X219335779Y-121396144D01*
X219335779Y-121396144D01*
G37*
D11*
X219075000Y-121920000D03*
D10*
G36*
X219335779Y-123146144D02*
X219358834Y-123149563D01*
X219381443Y-123155227D01*
X219403387Y-123163079D01*
X219424457Y-123173044D01*
X219444448Y-123185026D01*
X219463168Y-123198910D01*
X219480438Y-123214562D01*
X219496090Y-123231832D01*
X219509974Y-123250552D01*
X219521956Y-123270543D01*
X219531921Y-123291613D01*
X219539773Y-123313557D01*
X219545437Y-123336166D01*
X219548856Y-123359221D01*
X219550000Y-123382500D01*
X219550000Y-123957500D01*
X219548856Y-123980779D01*
X219545437Y-124003834D01*
X219539773Y-124026443D01*
X219531921Y-124048387D01*
X219521956Y-124069457D01*
X219509974Y-124089448D01*
X219496090Y-124108168D01*
X219480438Y-124125438D01*
X219463168Y-124141090D01*
X219444448Y-124154974D01*
X219424457Y-124166956D01*
X219403387Y-124176921D01*
X219381443Y-124184773D01*
X219358834Y-124190437D01*
X219335779Y-124193856D01*
X219312500Y-124195000D01*
X218837500Y-124195000D01*
X218814221Y-124193856D01*
X218791166Y-124190437D01*
X218768557Y-124184773D01*
X218746613Y-124176921D01*
X218725543Y-124166956D01*
X218705552Y-124154974D01*
X218686832Y-124141090D01*
X218669562Y-124125438D01*
X218653910Y-124108168D01*
X218640026Y-124089448D01*
X218628044Y-124069457D01*
X218618079Y-124048387D01*
X218610227Y-124026443D01*
X218604563Y-124003834D01*
X218601144Y-123980779D01*
X218600000Y-123957500D01*
X218600000Y-123382500D01*
X218601144Y-123359221D01*
X218604563Y-123336166D01*
X218610227Y-123313557D01*
X218618079Y-123291613D01*
X218628044Y-123270543D01*
X218640026Y-123250552D01*
X218653910Y-123231832D01*
X218669562Y-123214562D01*
X218686832Y-123198910D01*
X218705552Y-123185026D01*
X218725543Y-123173044D01*
X218746613Y-123163079D01*
X218768557Y-123155227D01*
X218791166Y-123149563D01*
X218814221Y-123146144D01*
X218837500Y-123145000D01*
X219312500Y-123145000D01*
X219335779Y-123146144D01*
X219335779Y-123146144D01*
G37*
D11*
X219075000Y-123670000D03*
G04 #@! TD*
D10*
G04 #@! TO.C,D3*
G36*
X194570779Y-121396144D02*
X194593834Y-121399563D01*
X194616443Y-121405227D01*
X194638387Y-121413079D01*
X194659457Y-121423044D01*
X194679448Y-121435026D01*
X194698168Y-121448910D01*
X194715438Y-121464562D01*
X194731090Y-121481832D01*
X194744974Y-121500552D01*
X194756956Y-121520543D01*
X194766921Y-121541613D01*
X194774773Y-121563557D01*
X194780437Y-121586166D01*
X194783856Y-121609221D01*
X194785000Y-121632500D01*
X194785000Y-122207500D01*
X194783856Y-122230779D01*
X194780437Y-122253834D01*
X194774773Y-122276443D01*
X194766921Y-122298387D01*
X194756956Y-122319457D01*
X194744974Y-122339448D01*
X194731090Y-122358168D01*
X194715438Y-122375438D01*
X194698168Y-122391090D01*
X194679448Y-122404974D01*
X194659457Y-122416956D01*
X194638387Y-122426921D01*
X194616443Y-122434773D01*
X194593834Y-122440437D01*
X194570779Y-122443856D01*
X194547500Y-122445000D01*
X194072500Y-122445000D01*
X194049221Y-122443856D01*
X194026166Y-122440437D01*
X194003557Y-122434773D01*
X193981613Y-122426921D01*
X193960543Y-122416956D01*
X193940552Y-122404974D01*
X193921832Y-122391090D01*
X193904562Y-122375438D01*
X193888910Y-122358168D01*
X193875026Y-122339448D01*
X193863044Y-122319457D01*
X193853079Y-122298387D01*
X193845227Y-122276443D01*
X193839563Y-122253834D01*
X193836144Y-122230779D01*
X193835000Y-122207500D01*
X193835000Y-121632500D01*
X193836144Y-121609221D01*
X193839563Y-121586166D01*
X193845227Y-121563557D01*
X193853079Y-121541613D01*
X193863044Y-121520543D01*
X193875026Y-121500552D01*
X193888910Y-121481832D01*
X193904562Y-121464562D01*
X193921832Y-121448910D01*
X193940552Y-121435026D01*
X193960543Y-121423044D01*
X193981613Y-121413079D01*
X194003557Y-121405227D01*
X194026166Y-121399563D01*
X194049221Y-121396144D01*
X194072500Y-121395000D01*
X194547500Y-121395000D01*
X194570779Y-121396144D01*
X194570779Y-121396144D01*
G37*
D11*
X194310000Y-121920000D03*
D10*
G36*
X194570779Y-123146144D02*
X194593834Y-123149563D01*
X194616443Y-123155227D01*
X194638387Y-123163079D01*
X194659457Y-123173044D01*
X194679448Y-123185026D01*
X194698168Y-123198910D01*
X194715438Y-123214562D01*
X194731090Y-123231832D01*
X194744974Y-123250552D01*
X194756956Y-123270543D01*
X194766921Y-123291613D01*
X194774773Y-123313557D01*
X194780437Y-123336166D01*
X194783856Y-123359221D01*
X194785000Y-123382500D01*
X194785000Y-123957500D01*
X194783856Y-123980779D01*
X194780437Y-124003834D01*
X194774773Y-124026443D01*
X194766921Y-124048387D01*
X194756956Y-124069457D01*
X194744974Y-124089448D01*
X194731090Y-124108168D01*
X194715438Y-124125438D01*
X194698168Y-124141090D01*
X194679448Y-124154974D01*
X194659457Y-124166956D01*
X194638387Y-124176921D01*
X194616443Y-124184773D01*
X194593834Y-124190437D01*
X194570779Y-124193856D01*
X194547500Y-124195000D01*
X194072500Y-124195000D01*
X194049221Y-124193856D01*
X194026166Y-124190437D01*
X194003557Y-124184773D01*
X193981613Y-124176921D01*
X193960543Y-124166956D01*
X193940552Y-124154974D01*
X193921832Y-124141090D01*
X193904562Y-124125438D01*
X193888910Y-124108168D01*
X193875026Y-124089448D01*
X193863044Y-124069457D01*
X193853079Y-124048387D01*
X193845227Y-124026443D01*
X193839563Y-124003834D01*
X193836144Y-123980779D01*
X193835000Y-123957500D01*
X193835000Y-123382500D01*
X193836144Y-123359221D01*
X193839563Y-123336166D01*
X193845227Y-123313557D01*
X193853079Y-123291613D01*
X193863044Y-123270543D01*
X193875026Y-123250552D01*
X193888910Y-123231832D01*
X193904562Y-123214562D01*
X193921832Y-123198910D01*
X193940552Y-123185026D01*
X193960543Y-123173044D01*
X193981613Y-123163079D01*
X194003557Y-123155227D01*
X194026166Y-123149563D01*
X194049221Y-123146144D01*
X194072500Y-123145000D01*
X194547500Y-123145000D01*
X194570779Y-123146144D01*
X194570779Y-123146144D01*
G37*
D11*
X194310000Y-123670000D03*
G04 #@! TD*
D10*
G04 #@! TO.C,D4*
G36*
X174885779Y-123146144D02*
X174908834Y-123149563D01*
X174931443Y-123155227D01*
X174953387Y-123163079D01*
X174974457Y-123173044D01*
X174994448Y-123185026D01*
X175013168Y-123198910D01*
X175030438Y-123214562D01*
X175046090Y-123231832D01*
X175059974Y-123250552D01*
X175071956Y-123270543D01*
X175081921Y-123291613D01*
X175089773Y-123313557D01*
X175095437Y-123336166D01*
X175098856Y-123359221D01*
X175100000Y-123382500D01*
X175100000Y-123957500D01*
X175098856Y-123980779D01*
X175095437Y-124003834D01*
X175089773Y-124026443D01*
X175081921Y-124048387D01*
X175071956Y-124069457D01*
X175059974Y-124089448D01*
X175046090Y-124108168D01*
X175030438Y-124125438D01*
X175013168Y-124141090D01*
X174994448Y-124154974D01*
X174974457Y-124166956D01*
X174953387Y-124176921D01*
X174931443Y-124184773D01*
X174908834Y-124190437D01*
X174885779Y-124193856D01*
X174862500Y-124195000D01*
X174387500Y-124195000D01*
X174364221Y-124193856D01*
X174341166Y-124190437D01*
X174318557Y-124184773D01*
X174296613Y-124176921D01*
X174275543Y-124166956D01*
X174255552Y-124154974D01*
X174236832Y-124141090D01*
X174219562Y-124125438D01*
X174203910Y-124108168D01*
X174190026Y-124089448D01*
X174178044Y-124069457D01*
X174168079Y-124048387D01*
X174160227Y-124026443D01*
X174154563Y-124003834D01*
X174151144Y-123980779D01*
X174150000Y-123957500D01*
X174150000Y-123382500D01*
X174151144Y-123359221D01*
X174154563Y-123336166D01*
X174160227Y-123313557D01*
X174168079Y-123291613D01*
X174178044Y-123270543D01*
X174190026Y-123250552D01*
X174203910Y-123231832D01*
X174219562Y-123214562D01*
X174236832Y-123198910D01*
X174255552Y-123185026D01*
X174275543Y-123173044D01*
X174296613Y-123163079D01*
X174318557Y-123155227D01*
X174341166Y-123149563D01*
X174364221Y-123146144D01*
X174387500Y-123145000D01*
X174862500Y-123145000D01*
X174885779Y-123146144D01*
X174885779Y-123146144D01*
G37*
D11*
X174625000Y-123670000D03*
D10*
G36*
X174885779Y-121396144D02*
X174908834Y-121399563D01*
X174931443Y-121405227D01*
X174953387Y-121413079D01*
X174974457Y-121423044D01*
X174994448Y-121435026D01*
X175013168Y-121448910D01*
X175030438Y-121464562D01*
X175046090Y-121481832D01*
X175059974Y-121500552D01*
X175071956Y-121520543D01*
X175081921Y-121541613D01*
X175089773Y-121563557D01*
X175095437Y-121586166D01*
X175098856Y-121609221D01*
X175100000Y-121632500D01*
X175100000Y-122207500D01*
X175098856Y-122230779D01*
X175095437Y-122253834D01*
X175089773Y-122276443D01*
X175081921Y-122298387D01*
X175071956Y-122319457D01*
X175059974Y-122339448D01*
X175046090Y-122358168D01*
X175030438Y-122375438D01*
X175013168Y-122391090D01*
X174994448Y-122404974D01*
X174974457Y-122416956D01*
X174953387Y-122426921D01*
X174931443Y-122434773D01*
X174908834Y-122440437D01*
X174885779Y-122443856D01*
X174862500Y-122445000D01*
X174387500Y-122445000D01*
X174364221Y-122443856D01*
X174341166Y-122440437D01*
X174318557Y-122434773D01*
X174296613Y-122426921D01*
X174275543Y-122416956D01*
X174255552Y-122404974D01*
X174236832Y-122391090D01*
X174219562Y-122375438D01*
X174203910Y-122358168D01*
X174190026Y-122339448D01*
X174178044Y-122319457D01*
X174168079Y-122298387D01*
X174160227Y-122276443D01*
X174154563Y-122253834D01*
X174151144Y-122230779D01*
X174150000Y-122207500D01*
X174150000Y-121632500D01*
X174151144Y-121609221D01*
X174154563Y-121586166D01*
X174160227Y-121563557D01*
X174168079Y-121541613D01*
X174178044Y-121520543D01*
X174190026Y-121500552D01*
X174203910Y-121481832D01*
X174219562Y-121464562D01*
X174236832Y-121448910D01*
X174255552Y-121435026D01*
X174275543Y-121423044D01*
X174296613Y-121413079D01*
X174318557Y-121405227D01*
X174341166Y-121399563D01*
X174364221Y-121396144D01*
X174387500Y-121395000D01*
X174862500Y-121395000D01*
X174885779Y-121396144D01*
X174885779Y-121396144D01*
G37*
D11*
X174625000Y-121920000D03*
G04 #@! TD*
D10*
G04 #@! TO.C,D5*
G36*
X199650779Y-121396144D02*
X199673834Y-121399563D01*
X199696443Y-121405227D01*
X199718387Y-121413079D01*
X199739457Y-121423044D01*
X199759448Y-121435026D01*
X199778168Y-121448910D01*
X199795438Y-121464562D01*
X199811090Y-121481832D01*
X199824974Y-121500552D01*
X199836956Y-121520543D01*
X199846921Y-121541613D01*
X199854773Y-121563557D01*
X199860437Y-121586166D01*
X199863856Y-121609221D01*
X199865000Y-121632500D01*
X199865000Y-122207500D01*
X199863856Y-122230779D01*
X199860437Y-122253834D01*
X199854773Y-122276443D01*
X199846921Y-122298387D01*
X199836956Y-122319457D01*
X199824974Y-122339448D01*
X199811090Y-122358168D01*
X199795438Y-122375438D01*
X199778168Y-122391090D01*
X199759448Y-122404974D01*
X199739457Y-122416956D01*
X199718387Y-122426921D01*
X199696443Y-122434773D01*
X199673834Y-122440437D01*
X199650779Y-122443856D01*
X199627500Y-122445000D01*
X199152500Y-122445000D01*
X199129221Y-122443856D01*
X199106166Y-122440437D01*
X199083557Y-122434773D01*
X199061613Y-122426921D01*
X199040543Y-122416956D01*
X199020552Y-122404974D01*
X199001832Y-122391090D01*
X198984562Y-122375438D01*
X198968910Y-122358168D01*
X198955026Y-122339448D01*
X198943044Y-122319457D01*
X198933079Y-122298387D01*
X198925227Y-122276443D01*
X198919563Y-122253834D01*
X198916144Y-122230779D01*
X198915000Y-122207500D01*
X198915000Y-121632500D01*
X198916144Y-121609221D01*
X198919563Y-121586166D01*
X198925227Y-121563557D01*
X198933079Y-121541613D01*
X198943044Y-121520543D01*
X198955026Y-121500552D01*
X198968910Y-121481832D01*
X198984562Y-121464562D01*
X199001832Y-121448910D01*
X199020552Y-121435026D01*
X199040543Y-121423044D01*
X199061613Y-121413079D01*
X199083557Y-121405227D01*
X199106166Y-121399563D01*
X199129221Y-121396144D01*
X199152500Y-121395000D01*
X199627500Y-121395000D01*
X199650779Y-121396144D01*
X199650779Y-121396144D01*
G37*
D11*
X199390000Y-121920000D03*
D10*
G36*
X199650779Y-123146144D02*
X199673834Y-123149563D01*
X199696443Y-123155227D01*
X199718387Y-123163079D01*
X199739457Y-123173044D01*
X199759448Y-123185026D01*
X199778168Y-123198910D01*
X199795438Y-123214562D01*
X199811090Y-123231832D01*
X199824974Y-123250552D01*
X199836956Y-123270543D01*
X199846921Y-123291613D01*
X199854773Y-123313557D01*
X199860437Y-123336166D01*
X199863856Y-123359221D01*
X199865000Y-123382500D01*
X199865000Y-123957500D01*
X199863856Y-123980779D01*
X199860437Y-124003834D01*
X199854773Y-124026443D01*
X199846921Y-124048387D01*
X199836956Y-124069457D01*
X199824974Y-124089448D01*
X199811090Y-124108168D01*
X199795438Y-124125438D01*
X199778168Y-124141090D01*
X199759448Y-124154974D01*
X199739457Y-124166956D01*
X199718387Y-124176921D01*
X199696443Y-124184773D01*
X199673834Y-124190437D01*
X199650779Y-124193856D01*
X199627500Y-124195000D01*
X199152500Y-124195000D01*
X199129221Y-124193856D01*
X199106166Y-124190437D01*
X199083557Y-124184773D01*
X199061613Y-124176921D01*
X199040543Y-124166956D01*
X199020552Y-124154974D01*
X199001832Y-124141090D01*
X198984562Y-124125438D01*
X198968910Y-124108168D01*
X198955026Y-124089448D01*
X198943044Y-124069457D01*
X198933079Y-124048387D01*
X198925227Y-124026443D01*
X198919563Y-124003834D01*
X198916144Y-123980779D01*
X198915000Y-123957500D01*
X198915000Y-123382500D01*
X198916144Y-123359221D01*
X198919563Y-123336166D01*
X198925227Y-123313557D01*
X198933079Y-123291613D01*
X198943044Y-123270543D01*
X198955026Y-123250552D01*
X198968910Y-123231832D01*
X198984562Y-123214562D01*
X199001832Y-123198910D01*
X199020552Y-123185026D01*
X199040543Y-123173044D01*
X199061613Y-123163079D01*
X199083557Y-123155227D01*
X199106166Y-123149563D01*
X199129221Y-123146144D01*
X199152500Y-123145000D01*
X199627500Y-123145000D01*
X199650779Y-123146144D01*
X199650779Y-123146144D01*
G37*
D11*
X199390000Y-123670000D03*
G04 #@! TD*
D10*
G04 #@! TO.C,D6*
G36*
X194570779Y-82661144D02*
X194593834Y-82664563D01*
X194616443Y-82670227D01*
X194638387Y-82678079D01*
X194659457Y-82688044D01*
X194679448Y-82700026D01*
X194698168Y-82713910D01*
X194715438Y-82729562D01*
X194731090Y-82746832D01*
X194744974Y-82765552D01*
X194756956Y-82785543D01*
X194766921Y-82806613D01*
X194774773Y-82828557D01*
X194780437Y-82851166D01*
X194783856Y-82874221D01*
X194785000Y-82897500D01*
X194785000Y-83472500D01*
X194783856Y-83495779D01*
X194780437Y-83518834D01*
X194774773Y-83541443D01*
X194766921Y-83563387D01*
X194756956Y-83584457D01*
X194744974Y-83604448D01*
X194731090Y-83623168D01*
X194715438Y-83640438D01*
X194698168Y-83656090D01*
X194679448Y-83669974D01*
X194659457Y-83681956D01*
X194638387Y-83691921D01*
X194616443Y-83699773D01*
X194593834Y-83705437D01*
X194570779Y-83708856D01*
X194547500Y-83710000D01*
X194072500Y-83710000D01*
X194049221Y-83708856D01*
X194026166Y-83705437D01*
X194003557Y-83699773D01*
X193981613Y-83691921D01*
X193960543Y-83681956D01*
X193940552Y-83669974D01*
X193921832Y-83656090D01*
X193904562Y-83640438D01*
X193888910Y-83623168D01*
X193875026Y-83604448D01*
X193863044Y-83584457D01*
X193853079Y-83563387D01*
X193845227Y-83541443D01*
X193839563Y-83518834D01*
X193836144Y-83495779D01*
X193835000Y-83472500D01*
X193835000Y-82897500D01*
X193836144Y-82874221D01*
X193839563Y-82851166D01*
X193845227Y-82828557D01*
X193853079Y-82806613D01*
X193863044Y-82785543D01*
X193875026Y-82765552D01*
X193888910Y-82746832D01*
X193904562Y-82729562D01*
X193921832Y-82713910D01*
X193940552Y-82700026D01*
X193960543Y-82688044D01*
X193981613Y-82678079D01*
X194003557Y-82670227D01*
X194026166Y-82664563D01*
X194049221Y-82661144D01*
X194072500Y-82660000D01*
X194547500Y-82660000D01*
X194570779Y-82661144D01*
X194570779Y-82661144D01*
G37*
D11*
X194310000Y-83185000D03*
D10*
G36*
X194570779Y-84411144D02*
X194593834Y-84414563D01*
X194616443Y-84420227D01*
X194638387Y-84428079D01*
X194659457Y-84438044D01*
X194679448Y-84450026D01*
X194698168Y-84463910D01*
X194715438Y-84479562D01*
X194731090Y-84496832D01*
X194744974Y-84515552D01*
X194756956Y-84535543D01*
X194766921Y-84556613D01*
X194774773Y-84578557D01*
X194780437Y-84601166D01*
X194783856Y-84624221D01*
X194785000Y-84647500D01*
X194785000Y-85222500D01*
X194783856Y-85245779D01*
X194780437Y-85268834D01*
X194774773Y-85291443D01*
X194766921Y-85313387D01*
X194756956Y-85334457D01*
X194744974Y-85354448D01*
X194731090Y-85373168D01*
X194715438Y-85390438D01*
X194698168Y-85406090D01*
X194679448Y-85419974D01*
X194659457Y-85431956D01*
X194638387Y-85441921D01*
X194616443Y-85449773D01*
X194593834Y-85455437D01*
X194570779Y-85458856D01*
X194547500Y-85460000D01*
X194072500Y-85460000D01*
X194049221Y-85458856D01*
X194026166Y-85455437D01*
X194003557Y-85449773D01*
X193981613Y-85441921D01*
X193960543Y-85431956D01*
X193940552Y-85419974D01*
X193921832Y-85406090D01*
X193904562Y-85390438D01*
X193888910Y-85373168D01*
X193875026Y-85354448D01*
X193863044Y-85334457D01*
X193853079Y-85313387D01*
X193845227Y-85291443D01*
X193839563Y-85268834D01*
X193836144Y-85245779D01*
X193835000Y-85222500D01*
X193835000Y-84647500D01*
X193836144Y-84624221D01*
X193839563Y-84601166D01*
X193845227Y-84578557D01*
X193853079Y-84556613D01*
X193863044Y-84535543D01*
X193875026Y-84515552D01*
X193888910Y-84496832D01*
X193904562Y-84479562D01*
X193921832Y-84463910D01*
X193940552Y-84450026D01*
X193960543Y-84438044D01*
X193981613Y-84428079D01*
X194003557Y-84420227D01*
X194026166Y-84414563D01*
X194049221Y-84411144D01*
X194072500Y-84410000D01*
X194547500Y-84410000D01*
X194570779Y-84411144D01*
X194570779Y-84411144D01*
G37*
D11*
X194310000Y-84935000D03*
G04 #@! TD*
D10*
G04 #@! TO.C,D7*
G36*
X179965779Y-121396144D02*
X179988834Y-121399563D01*
X180011443Y-121405227D01*
X180033387Y-121413079D01*
X180054457Y-121423044D01*
X180074448Y-121435026D01*
X180093168Y-121448910D01*
X180110438Y-121464562D01*
X180126090Y-121481832D01*
X180139974Y-121500552D01*
X180151956Y-121520543D01*
X180161921Y-121541613D01*
X180169773Y-121563557D01*
X180175437Y-121586166D01*
X180178856Y-121609221D01*
X180180000Y-121632500D01*
X180180000Y-122207500D01*
X180178856Y-122230779D01*
X180175437Y-122253834D01*
X180169773Y-122276443D01*
X180161921Y-122298387D01*
X180151956Y-122319457D01*
X180139974Y-122339448D01*
X180126090Y-122358168D01*
X180110438Y-122375438D01*
X180093168Y-122391090D01*
X180074448Y-122404974D01*
X180054457Y-122416956D01*
X180033387Y-122426921D01*
X180011443Y-122434773D01*
X179988834Y-122440437D01*
X179965779Y-122443856D01*
X179942500Y-122445000D01*
X179467500Y-122445000D01*
X179444221Y-122443856D01*
X179421166Y-122440437D01*
X179398557Y-122434773D01*
X179376613Y-122426921D01*
X179355543Y-122416956D01*
X179335552Y-122404974D01*
X179316832Y-122391090D01*
X179299562Y-122375438D01*
X179283910Y-122358168D01*
X179270026Y-122339448D01*
X179258044Y-122319457D01*
X179248079Y-122298387D01*
X179240227Y-122276443D01*
X179234563Y-122253834D01*
X179231144Y-122230779D01*
X179230000Y-122207500D01*
X179230000Y-121632500D01*
X179231144Y-121609221D01*
X179234563Y-121586166D01*
X179240227Y-121563557D01*
X179248079Y-121541613D01*
X179258044Y-121520543D01*
X179270026Y-121500552D01*
X179283910Y-121481832D01*
X179299562Y-121464562D01*
X179316832Y-121448910D01*
X179335552Y-121435026D01*
X179355543Y-121423044D01*
X179376613Y-121413079D01*
X179398557Y-121405227D01*
X179421166Y-121399563D01*
X179444221Y-121396144D01*
X179467500Y-121395000D01*
X179942500Y-121395000D01*
X179965779Y-121396144D01*
X179965779Y-121396144D01*
G37*
D11*
X179705000Y-121920000D03*
D10*
G36*
X179965779Y-123146144D02*
X179988834Y-123149563D01*
X180011443Y-123155227D01*
X180033387Y-123163079D01*
X180054457Y-123173044D01*
X180074448Y-123185026D01*
X180093168Y-123198910D01*
X180110438Y-123214562D01*
X180126090Y-123231832D01*
X180139974Y-123250552D01*
X180151956Y-123270543D01*
X180161921Y-123291613D01*
X180169773Y-123313557D01*
X180175437Y-123336166D01*
X180178856Y-123359221D01*
X180180000Y-123382500D01*
X180180000Y-123957500D01*
X180178856Y-123980779D01*
X180175437Y-124003834D01*
X180169773Y-124026443D01*
X180161921Y-124048387D01*
X180151956Y-124069457D01*
X180139974Y-124089448D01*
X180126090Y-124108168D01*
X180110438Y-124125438D01*
X180093168Y-124141090D01*
X180074448Y-124154974D01*
X180054457Y-124166956D01*
X180033387Y-124176921D01*
X180011443Y-124184773D01*
X179988834Y-124190437D01*
X179965779Y-124193856D01*
X179942500Y-124195000D01*
X179467500Y-124195000D01*
X179444221Y-124193856D01*
X179421166Y-124190437D01*
X179398557Y-124184773D01*
X179376613Y-124176921D01*
X179355543Y-124166956D01*
X179335552Y-124154974D01*
X179316832Y-124141090D01*
X179299562Y-124125438D01*
X179283910Y-124108168D01*
X179270026Y-124089448D01*
X179258044Y-124069457D01*
X179248079Y-124048387D01*
X179240227Y-124026443D01*
X179234563Y-124003834D01*
X179231144Y-123980779D01*
X179230000Y-123957500D01*
X179230000Y-123382500D01*
X179231144Y-123359221D01*
X179234563Y-123336166D01*
X179240227Y-123313557D01*
X179248079Y-123291613D01*
X179258044Y-123270543D01*
X179270026Y-123250552D01*
X179283910Y-123231832D01*
X179299562Y-123214562D01*
X179316832Y-123198910D01*
X179335552Y-123185026D01*
X179355543Y-123173044D01*
X179376613Y-123163079D01*
X179398557Y-123155227D01*
X179421166Y-123149563D01*
X179444221Y-123146144D01*
X179467500Y-123145000D01*
X179942500Y-123145000D01*
X179965779Y-123146144D01*
X179965779Y-123146144D01*
G37*
D11*
X179705000Y-123670000D03*
G04 #@! TD*
D10*
G04 #@! TO.C,D8*
G36*
X214255779Y-84411144D02*
X214278834Y-84414563D01*
X214301443Y-84420227D01*
X214323387Y-84428079D01*
X214344457Y-84438044D01*
X214364448Y-84450026D01*
X214383168Y-84463910D01*
X214400438Y-84479562D01*
X214416090Y-84496832D01*
X214429974Y-84515552D01*
X214441956Y-84535543D01*
X214451921Y-84556613D01*
X214459773Y-84578557D01*
X214465437Y-84601166D01*
X214468856Y-84624221D01*
X214470000Y-84647500D01*
X214470000Y-85222500D01*
X214468856Y-85245779D01*
X214465437Y-85268834D01*
X214459773Y-85291443D01*
X214451921Y-85313387D01*
X214441956Y-85334457D01*
X214429974Y-85354448D01*
X214416090Y-85373168D01*
X214400438Y-85390438D01*
X214383168Y-85406090D01*
X214364448Y-85419974D01*
X214344457Y-85431956D01*
X214323387Y-85441921D01*
X214301443Y-85449773D01*
X214278834Y-85455437D01*
X214255779Y-85458856D01*
X214232500Y-85460000D01*
X213757500Y-85460000D01*
X213734221Y-85458856D01*
X213711166Y-85455437D01*
X213688557Y-85449773D01*
X213666613Y-85441921D01*
X213645543Y-85431956D01*
X213625552Y-85419974D01*
X213606832Y-85406090D01*
X213589562Y-85390438D01*
X213573910Y-85373168D01*
X213560026Y-85354448D01*
X213548044Y-85334457D01*
X213538079Y-85313387D01*
X213530227Y-85291443D01*
X213524563Y-85268834D01*
X213521144Y-85245779D01*
X213520000Y-85222500D01*
X213520000Y-84647500D01*
X213521144Y-84624221D01*
X213524563Y-84601166D01*
X213530227Y-84578557D01*
X213538079Y-84556613D01*
X213548044Y-84535543D01*
X213560026Y-84515552D01*
X213573910Y-84496832D01*
X213589562Y-84479562D01*
X213606832Y-84463910D01*
X213625552Y-84450026D01*
X213645543Y-84438044D01*
X213666613Y-84428079D01*
X213688557Y-84420227D01*
X213711166Y-84414563D01*
X213734221Y-84411144D01*
X213757500Y-84410000D01*
X214232500Y-84410000D01*
X214255779Y-84411144D01*
X214255779Y-84411144D01*
G37*
D11*
X213995000Y-84935000D03*
D10*
G36*
X214255779Y-82661144D02*
X214278834Y-82664563D01*
X214301443Y-82670227D01*
X214323387Y-82678079D01*
X214344457Y-82688044D01*
X214364448Y-82700026D01*
X214383168Y-82713910D01*
X214400438Y-82729562D01*
X214416090Y-82746832D01*
X214429974Y-82765552D01*
X214441956Y-82785543D01*
X214451921Y-82806613D01*
X214459773Y-82828557D01*
X214465437Y-82851166D01*
X214468856Y-82874221D01*
X214470000Y-82897500D01*
X214470000Y-83472500D01*
X214468856Y-83495779D01*
X214465437Y-83518834D01*
X214459773Y-83541443D01*
X214451921Y-83563387D01*
X214441956Y-83584457D01*
X214429974Y-83604448D01*
X214416090Y-83623168D01*
X214400438Y-83640438D01*
X214383168Y-83656090D01*
X214364448Y-83669974D01*
X214344457Y-83681956D01*
X214323387Y-83691921D01*
X214301443Y-83699773D01*
X214278834Y-83705437D01*
X214255779Y-83708856D01*
X214232500Y-83710000D01*
X213757500Y-83710000D01*
X213734221Y-83708856D01*
X213711166Y-83705437D01*
X213688557Y-83699773D01*
X213666613Y-83691921D01*
X213645543Y-83681956D01*
X213625552Y-83669974D01*
X213606832Y-83656090D01*
X213589562Y-83640438D01*
X213573910Y-83623168D01*
X213560026Y-83604448D01*
X213548044Y-83584457D01*
X213538079Y-83563387D01*
X213530227Y-83541443D01*
X213524563Y-83518834D01*
X213521144Y-83495779D01*
X213520000Y-83472500D01*
X213520000Y-82897500D01*
X213521144Y-82874221D01*
X213524563Y-82851166D01*
X213530227Y-82828557D01*
X213538079Y-82806613D01*
X213548044Y-82785543D01*
X213560026Y-82765552D01*
X213573910Y-82746832D01*
X213589562Y-82729562D01*
X213606832Y-82713910D01*
X213625552Y-82700026D01*
X213645543Y-82688044D01*
X213666613Y-82678079D01*
X213688557Y-82670227D01*
X213711166Y-82664563D01*
X213734221Y-82661144D01*
X213757500Y-82660000D01*
X214232500Y-82660000D01*
X214255779Y-82661144D01*
X214255779Y-82661144D01*
G37*
D11*
X213995000Y-83185000D03*
G04 #@! TD*
D10*
G04 #@! TO.C,D9*
G36*
X155200779Y-121396144D02*
X155223834Y-121399563D01*
X155246443Y-121405227D01*
X155268387Y-121413079D01*
X155289457Y-121423044D01*
X155309448Y-121435026D01*
X155328168Y-121448910D01*
X155345438Y-121464562D01*
X155361090Y-121481832D01*
X155374974Y-121500552D01*
X155386956Y-121520543D01*
X155396921Y-121541613D01*
X155404773Y-121563557D01*
X155410437Y-121586166D01*
X155413856Y-121609221D01*
X155415000Y-121632500D01*
X155415000Y-122207500D01*
X155413856Y-122230779D01*
X155410437Y-122253834D01*
X155404773Y-122276443D01*
X155396921Y-122298387D01*
X155386956Y-122319457D01*
X155374974Y-122339448D01*
X155361090Y-122358168D01*
X155345438Y-122375438D01*
X155328168Y-122391090D01*
X155309448Y-122404974D01*
X155289457Y-122416956D01*
X155268387Y-122426921D01*
X155246443Y-122434773D01*
X155223834Y-122440437D01*
X155200779Y-122443856D01*
X155177500Y-122445000D01*
X154702500Y-122445000D01*
X154679221Y-122443856D01*
X154656166Y-122440437D01*
X154633557Y-122434773D01*
X154611613Y-122426921D01*
X154590543Y-122416956D01*
X154570552Y-122404974D01*
X154551832Y-122391090D01*
X154534562Y-122375438D01*
X154518910Y-122358168D01*
X154505026Y-122339448D01*
X154493044Y-122319457D01*
X154483079Y-122298387D01*
X154475227Y-122276443D01*
X154469563Y-122253834D01*
X154466144Y-122230779D01*
X154465000Y-122207500D01*
X154465000Y-121632500D01*
X154466144Y-121609221D01*
X154469563Y-121586166D01*
X154475227Y-121563557D01*
X154483079Y-121541613D01*
X154493044Y-121520543D01*
X154505026Y-121500552D01*
X154518910Y-121481832D01*
X154534562Y-121464562D01*
X154551832Y-121448910D01*
X154570552Y-121435026D01*
X154590543Y-121423044D01*
X154611613Y-121413079D01*
X154633557Y-121405227D01*
X154656166Y-121399563D01*
X154679221Y-121396144D01*
X154702500Y-121395000D01*
X155177500Y-121395000D01*
X155200779Y-121396144D01*
X155200779Y-121396144D01*
G37*
D11*
X154940000Y-121920000D03*
D10*
G36*
X155200779Y-123146144D02*
X155223834Y-123149563D01*
X155246443Y-123155227D01*
X155268387Y-123163079D01*
X155289457Y-123173044D01*
X155309448Y-123185026D01*
X155328168Y-123198910D01*
X155345438Y-123214562D01*
X155361090Y-123231832D01*
X155374974Y-123250552D01*
X155386956Y-123270543D01*
X155396921Y-123291613D01*
X155404773Y-123313557D01*
X155410437Y-123336166D01*
X155413856Y-123359221D01*
X155415000Y-123382500D01*
X155415000Y-123957500D01*
X155413856Y-123980779D01*
X155410437Y-124003834D01*
X155404773Y-124026443D01*
X155396921Y-124048387D01*
X155386956Y-124069457D01*
X155374974Y-124089448D01*
X155361090Y-124108168D01*
X155345438Y-124125438D01*
X155328168Y-124141090D01*
X155309448Y-124154974D01*
X155289457Y-124166956D01*
X155268387Y-124176921D01*
X155246443Y-124184773D01*
X155223834Y-124190437D01*
X155200779Y-124193856D01*
X155177500Y-124195000D01*
X154702500Y-124195000D01*
X154679221Y-124193856D01*
X154656166Y-124190437D01*
X154633557Y-124184773D01*
X154611613Y-124176921D01*
X154590543Y-124166956D01*
X154570552Y-124154974D01*
X154551832Y-124141090D01*
X154534562Y-124125438D01*
X154518910Y-124108168D01*
X154505026Y-124089448D01*
X154493044Y-124069457D01*
X154483079Y-124048387D01*
X154475227Y-124026443D01*
X154469563Y-124003834D01*
X154466144Y-123980779D01*
X154465000Y-123957500D01*
X154465000Y-123382500D01*
X154466144Y-123359221D01*
X154469563Y-123336166D01*
X154475227Y-123313557D01*
X154483079Y-123291613D01*
X154493044Y-123270543D01*
X154505026Y-123250552D01*
X154518910Y-123231832D01*
X154534562Y-123214562D01*
X154551832Y-123198910D01*
X154570552Y-123185026D01*
X154590543Y-123173044D01*
X154611613Y-123163079D01*
X154633557Y-123155227D01*
X154656166Y-123149563D01*
X154679221Y-123146144D01*
X154702500Y-123145000D01*
X155177500Y-123145000D01*
X155200779Y-123146144D01*
X155200779Y-123146144D01*
G37*
D11*
X154940000Y-123670000D03*
G04 #@! TD*
D10*
G04 #@! TO.C,D10*
G36*
X199650779Y-82661144D02*
X199673834Y-82664563D01*
X199696443Y-82670227D01*
X199718387Y-82678079D01*
X199739457Y-82688044D01*
X199759448Y-82700026D01*
X199778168Y-82713910D01*
X199795438Y-82729562D01*
X199811090Y-82746832D01*
X199824974Y-82765552D01*
X199836956Y-82785543D01*
X199846921Y-82806613D01*
X199854773Y-82828557D01*
X199860437Y-82851166D01*
X199863856Y-82874221D01*
X199865000Y-82897500D01*
X199865000Y-83472500D01*
X199863856Y-83495779D01*
X199860437Y-83518834D01*
X199854773Y-83541443D01*
X199846921Y-83563387D01*
X199836956Y-83584457D01*
X199824974Y-83604448D01*
X199811090Y-83623168D01*
X199795438Y-83640438D01*
X199778168Y-83656090D01*
X199759448Y-83669974D01*
X199739457Y-83681956D01*
X199718387Y-83691921D01*
X199696443Y-83699773D01*
X199673834Y-83705437D01*
X199650779Y-83708856D01*
X199627500Y-83710000D01*
X199152500Y-83710000D01*
X199129221Y-83708856D01*
X199106166Y-83705437D01*
X199083557Y-83699773D01*
X199061613Y-83691921D01*
X199040543Y-83681956D01*
X199020552Y-83669974D01*
X199001832Y-83656090D01*
X198984562Y-83640438D01*
X198968910Y-83623168D01*
X198955026Y-83604448D01*
X198943044Y-83584457D01*
X198933079Y-83563387D01*
X198925227Y-83541443D01*
X198919563Y-83518834D01*
X198916144Y-83495779D01*
X198915000Y-83472500D01*
X198915000Y-82897500D01*
X198916144Y-82874221D01*
X198919563Y-82851166D01*
X198925227Y-82828557D01*
X198933079Y-82806613D01*
X198943044Y-82785543D01*
X198955026Y-82765552D01*
X198968910Y-82746832D01*
X198984562Y-82729562D01*
X199001832Y-82713910D01*
X199020552Y-82700026D01*
X199040543Y-82688044D01*
X199061613Y-82678079D01*
X199083557Y-82670227D01*
X199106166Y-82664563D01*
X199129221Y-82661144D01*
X199152500Y-82660000D01*
X199627500Y-82660000D01*
X199650779Y-82661144D01*
X199650779Y-82661144D01*
G37*
D11*
X199390000Y-83185000D03*
D10*
G36*
X199650779Y-84411144D02*
X199673834Y-84414563D01*
X199696443Y-84420227D01*
X199718387Y-84428079D01*
X199739457Y-84438044D01*
X199759448Y-84450026D01*
X199778168Y-84463910D01*
X199795438Y-84479562D01*
X199811090Y-84496832D01*
X199824974Y-84515552D01*
X199836956Y-84535543D01*
X199846921Y-84556613D01*
X199854773Y-84578557D01*
X199860437Y-84601166D01*
X199863856Y-84624221D01*
X199865000Y-84647500D01*
X199865000Y-85222500D01*
X199863856Y-85245779D01*
X199860437Y-85268834D01*
X199854773Y-85291443D01*
X199846921Y-85313387D01*
X199836956Y-85334457D01*
X199824974Y-85354448D01*
X199811090Y-85373168D01*
X199795438Y-85390438D01*
X199778168Y-85406090D01*
X199759448Y-85419974D01*
X199739457Y-85431956D01*
X199718387Y-85441921D01*
X199696443Y-85449773D01*
X199673834Y-85455437D01*
X199650779Y-85458856D01*
X199627500Y-85460000D01*
X199152500Y-85460000D01*
X199129221Y-85458856D01*
X199106166Y-85455437D01*
X199083557Y-85449773D01*
X199061613Y-85441921D01*
X199040543Y-85431956D01*
X199020552Y-85419974D01*
X199001832Y-85406090D01*
X198984562Y-85390438D01*
X198968910Y-85373168D01*
X198955026Y-85354448D01*
X198943044Y-85334457D01*
X198933079Y-85313387D01*
X198925227Y-85291443D01*
X198919563Y-85268834D01*
X198916144Y-85245779D01*
X198915000Y-85222500D01*
X198915000Y-84647500D01*
X198916144Y-84624221D01*
X198919563Y-84601166D01*
X198925227Y-84578557D01*
X198933079Y-84556613D01*
X198943044Y-84535543D01*
X198955026Y-84515552D01*
X198968910Y-84496832D01*
X198984562Y-84479562D01*
X199001832Y-84463910D01*
X199020552Y-84450026D01*
X199040543Y-84438044D01*
X199061613Y-84428079D01*
X199083557Y-84420227D01*
X199106166Y-84414563D01*
X199129221Y-84411144D01*
X199152500Y-84410000D01*
X199627500Y-84410000D01*
X199650779Y-84411144D01*
X199650779Y-84411144D01*
G37*
D11*
X199390000Y-84935000D03*
G04 #@! TD*
D10*
G04 #@! TO.C,D11*
G36*
X137420779Y-121396144D02*
X137443834Y-121399563D01*
X137466443Y-121405227D01*
X137488387Y-121413079D01*
X137509457Y-121423044D01*
X137529448Y-121435026D01*
X137548168Y-121448910D01*
X137565438Y-121464562D01*
X137581090Y-121481832D01*
X137594974Y-121500552D01*
X137606956Y-121520543D01*
X137616921Y-121541613D01*
X137624773Y-121563557D01*
X137630437Y-121586166D01*
X137633856Y-121609221D01*
X137635000Y-121632500D01*
X137635000Y-122207500D01*
X137633856Y-122230779D01*
X137630437Y-122253834D01*
X137624773Y-122276443D01*
X137616921Y-122298387D01*
X137606956Y-122319457D01*
X137594974Y-122339448D01*
X137581090Y-122358168D01*
X137565438Y-122375438D01*
X137548168Y-122391090D01*
X137529448Y-122404974D01*
X137509457Y-122416956D01*
X137488387Y-122426921D01*
X137466443Y-122434773D01*
X137443834Y-122440437D01*
X137420779Y-122443856D01*
X137397500Y-122445000D01*
X136922500Y-122445000D01*
X136899221Y-122443856D01*
X136876166Y-122440437D01*
X136853557Y-122434773D01*
X136831613Y-122426921D01*
X136810543Y-122416956D01*
X136790552Y-122404974D01*
X136771832Y-122391090D01*
X136754562Y-122375438D01*
X136738910Y-122358168D01*
X136725026Y-122339448D01*
X136713044Y-122319457D01*
X136703079Y-122298387D01*
X136695227Y-122276443D01*
X136689563Y-122253834D01*
X136686144Y-122230779D01*
X136685000Y-122207500D01*
X136685000Y-121632500D01*
X136686144Y-121609221D01*
X136689563Y-121586166D01*
X136695227Y-121563557D01*
X136703079Y-121541613D01*
X136713044Y-121520543D01*
X136725026Y-121500552D01*
X136738910Y-121481832D01*
X136754562Y-121464562D01*
X136771832Y-121448910D01*
X136790552Y-121435026D01*
X136810543Y-121423044D01*
X136831613Y-121413079D01*
X136853557Y-121405227D01*
X136876166Y-121399563D01*
X136899221Y-121396144D01*
X136922500Y-121395000D01*
X137397500Y-121395000D01*
X137420779Y-121396144D01*
X137420779Y-121396144D01*
G37*
D11*
X137160000Y-121920000D03*
D10*
G36*
X137420779Y-123146144D02*
X137443834Y-123149563D01*
X137466443Y-123155227D01*
X137488387Y-123163079D01*
X137509457Y-123173044D01*
X137529448Y-123185026D01*
X137548168Y-123198910D01*
X137565438Y-123214562D01*
X137581090Y-123231832D01*
X137594974Y-123250552D01*
X137606956Y-123270543D01*
X137616921Y-123291613D01*
X137624773Y-123313557D01*
X137630437Y-123336166D01*
X137633856Y-123359221D01*
X137635000Y-123382500D01*
X137635000Y-123957500D01*
X137633856Y-123980779D01*
X137630437Y-124003834D01*
X137624773Y-124026443D01*
X137616921Y-124048387D01*
X137606956Y-124069457D01*
X137594974Y-124089448D01*
X137581090Y-124108168D01*
X137565438Y-124125438D01*
X137548168Y-124141090D01*
X137529448Y-124154974D01*
X137509457Y-124166956D01*
X137488387Y-124176921D01*
X137466443Y-124184773D01*
X137443834Y-124190437D01*
X137420779Y-124193856D01*
X137397500Y-124195000D01*
X136922500Y-124195000D01*
X136899221Y-124193856D01*
X136876166Y-124190437D01*
X136853557Y-124184773D01*
X136831613Y-124176921D01*
X136810543Y-124166956D01*
X136790552Y-124154974D01*
X136771832Y-124141090D01*
X136754562Y-124125438D01*
X136738910Y-124108168D01*
X136725026Y-124089448D01*
X136713044Y-124069457D01*
X136703079Y-124048387D01*
X136695227Y-124026443D01*
X136689563Y-124003834D01*
X136686144Y-123980779D01*
X136685000Y-123957500D01*
X136685000Y-123382500D01*
X136686144Y-123359221D01*
X136689563Y-123336166D01*
X136695227Y-123313557D01*
X136703079Y-123291613D01*
X136713044Y-123270543D01*
X136725026Y-123250552D01*
X136738910Y-123231832D01*
X136754562Y-123214562D01*
X136771832Y-123198910D01*
X136790552Y-123185026D01*
X136810543Y-123173044D01*
X136831613Y-123163079D01*
X136853557Y-123155227D01*
X136876166Y-123149563D01*
X136899221Y-123146144D01*
X136922500Y-123145000D01*
X137397500Y-123145000D01*
X137420779Y-123146144D01*
X137420779Y-123146144D01*
G37*
D11*
X137160000Y-123670000D03*
G04 #@! TD*
D10*
G04 #@! TO.C,D12*
G36*
X219335779Y-82661144D02*
X219358834Y-82664563D01*
X219381443Y-82670227D01*
X219403387Y-82678079D01*
X219424457Y-82688044D01*
X219444448Y-82700026D01*
X219463168Y-82713910D01*
X219480438Y-82729562D01*
X219496090Y-82746832D01*
X219509974Y-82765552D01*
X219521956Y-82785543D01*
X219531921Y-82806613D01*
X219539773Y-82828557D01*
X219545437Y-82851166D01*
X219548856Y-82874221D01*
X219550000Y-82897500D01*
X219550000Y-83472500D01*
X219548856Y-83495779D01*
X219545437Y-83518834D01*
X219539773Y-83541443D01*
X219531921Y-83563387D01*
X219521956Y-83584457D01*
X219509974Y-83604448D01*
X219496090Y-83623168D01*
X219480438Y-83640438D01*
X219463168Y-83656090D01*
X219444448Y-83669974D01*
X219424457Y-83681956D01*
X219403387Y-83691921D01*
X219381443Y-83699773D01*
X219358834Y-83705437D01*
X219335779Y-83708856D01*
X219312500Y-83710000D01*
X218837500Y-83710000D01*
X218814221Y-83708856D01*
X218791166Y-83705437D01*
X218768557Y-83699773D01*
X218746613Y-83691921D01*
X218725543Y-83681956D01*
X218705552Y-83669974D01*
X218686832Y-83656090D01*
X218669562Y-83640438D01*
X218653910Y-83623168D01*
X218640026Y-83604448D01*
X218628044Y-83584457D01*
X218618079Y-83563387D01*
X218610227Y-83541443D01*
X218604563Y-83518834D01*
X218601144Y-83495779D01*
X218600000Y-83472500D01*
X218600000Y-82897500D01*
X218601144Y-82874221D01*
X218604563Y-82851166D01*
X218610227Y-82828557D01*
X218618079Y-82806613D01*
X218628044Y-82785543D01*
X218640026Y-82765552D01*
X218653910Y-82746832D01*
X218669562Y-82729562D01*
X218686832Y-82713910D01*
X218705552Y-82700026D01*
X218725543Y-82688044D01*
X218746613Y-82678079D01*
X218768557Y-82670227D01*
X218791166Y-82664563D01*
X218814221Y-82661144D01*
X218837500Y-82660000D01*
X219312500Y-82660000D01*
X219335779Y-82661144D01*
X219335779Y-82661144D01*
G37*
D11*
X219075000Y-83185000D03*
D10*
G36*
X219335779Y-84411144D02*
X219358834Y-84414563D01*
X219381443Y-84420227D01*
X219403387Y-84428079D01*
X219424457Y-84438044D01*
X219444448Y-84450026D01*
X219463168Y-84463910D01*
X219480438Y-84479562D01*
X219496090Y-84496832D01*
X219509974Y-84515552D01*
X219521956Y-84535543D01*
X219531921Y-84556613D01*
X219539773Y-84578557D01*
X219545437Y-84601166D01*
X219548856Y-84624221D01*
X219550000Y-84647500D01*
X219550000Y-85222500D01*
X219548856Y-85245779D01*
X219545437Y-85268834D01*
X219539773Y-85291443D01*
X219531921Y-85313387D01*
X219521956Y-85334457D01*
X219509974Y-85354448D01*
X219496090Y-85373168D01*
X219480438Y-85390438D01*
X219463168Y-85406090D01*
X219444448Y-85419974D01*
X219424457Y-85431956D01*
X219403387Y-85441921D01*
X219381443Y-85449773D01*
X219358834Y-85455437D01*
X219335779Y-85458856D01*
X219312500Y-85460000D01*
X218837500Y-85460000D01*
X218814221Y-85458856D01*
X218791166Y-85455437D01*
X218768557Y-85449773D01*
X218746613Y-85441921D01*
X218725543Y-85431956D01*
X218705552Y-85419974D01*
X218686832Y-85406090D01*
X218669562Y-85390438D01*
X218653910Y-85373168D01*
X218640026Y-85354448D01*
X218628044Y-85334457D01*
X218618079Y-85313387D01*
X218610227Y-85291443D01*
X218604563Y-85268834D01*
X218601144Y-85245779D01*
X218600000Y-85222500D01*
X218600000Y-84647500D01*
X218601144Y-84624221D01*
X218604563Y-84601166D01*
X218610227Y-84578557D01*
X218618079Y-84556613D01*
X218628044Y-84535543D01*
X218640026Y-84515552D01*
X218653910Y-84496832D01*
X218669562Y-84479562D01*
X218686832Y-84463910D01*
X218705552Y-84450026D01*
X218725543Y-84438044D01*
X218746613Y-84428079D01*
X218768557Y-84420227D01*
X218791166Y-84414563D01*
X218814221Y-84411144D01*
X218837500Y-84410000D01*
X219312500Y-84410000D01*
X219335779Y-84411144D01*
X219335779Y-84411144D01*
G37*
D11*
X219075000Y-84935000D03*
G04 #@! TD*
D10*
G04 #@! TO.C,D13*
G36*
X137420779Y-84411144D02*
X137443834Y-84414563D01*
X137466443Y-84420227D01*
X137488387Y-84428079D01*
X137509457Y-84438044D01*
X137529448Y-84450026D01*
X137548168Y-84463910D01*
X137565438Y-84479562D01*
X137581090Y-84496832D01*
X137594974Y-84515552D01*
X137606956Y-84535543D01*
X137616921Y-84556613D01*
X137624773Y-84578557D01*
X137630437Y-84601166D01*
X137633856Y-84624221D01*
X137635000Y-84647500D01*
X137635000Y-85222500D01*
X137633856Y-85245779D01*
X137630437Y-85268834D01*
X137624773Y-85291443D01*
X137616921Y-85313387D01*
X137606956Y-85334457D01*
X137594974Y-85354448D01*
X137581090Y-85373168D01*
X137565438Y-85390438D01*
X137548168Y-85406090D01*
X137529448Y-85419974D01*
X137509457Y-85431956D01*
X137488387Y-85441921D01*
X137466443Y-85449773D01*
X137443834Y-85455437D01*
X137420779Y-85458856D01*
X137397500Y-85460000D01*
X136922500Y-85460000D01*
X136899221Y-85458856D01*
X136876166Y-85455437D01*
X136853557Y-85449773D01*
X136831613Y-85441921D01*
X136810543Y-85431956D01*
X136790552Y-85419974D01*
X136771832Y-85406090D01*
X136754562Y-85390438D01*
X136738910Y-85373168D01*
X136725026Y-85354448D01*
X136713044Y-85334457D01*
X136703079Y-85313387D01*
X136695227Y-85291443D01*
X136689563Y-85268834D01*
X136686144Y-85245779D01*
X136685000Y-85222500D01*
X136685000Y-84647500D01*
X136686144Y-84624221D01*
X136689563Y-84601166D01*
X136695227Y-84578557D01*
X136703079Y-84556613D01*
X136713044Y-84535543D01*
X136725026Y-84515552D01*
X136738910Y-84496832D01*
X136754562Y-84479562D01*
X136771832Y-84463910D01*
X136790552Y-84450026D01*
X136810543Y-84438044D01*
X136831613Y-84428079D01*
X136853557Y-84420227D01*
X136876166Y-84414563D01*
X136899221Y-84411144D01*
X136922500Y-84410000D01*
X137397500Y-84410000D01*
X137420779Y-84411144D01*
X137420779Y-84411144D01*
G37*
D11*
X137160000Y-84935000D03*
D10*
G36*
X137420779Y-82661144D02*
X137443834Y-82664563D01*
X137466443Y-82670227D01*
X137488387Y-82678079D01*
X137509457Y-82688044D01*
X137529448Y-82700026D01*
X137548168Y-82713910D01*
X137565438Y-82729562D01*
X137581090Y-82746832D01*
X137594974Y-82765552D01*
X137606956Y-82785543D01*
X137616921Y-82806613D01*
X137624773Y-82828557D01*
X137630437Y-82851166D01*
X137633856Y-82874221D01*
X137635000Y-82897500D01*
X137635000Y-83472500D01*
X137633856Y-83495779D01*
X137630437Y-83518834D01*
X137624773Y-83541443D01*
X137616921Y-83563387D01*
X137606956Y-83584457D01*
X137594974Y-83604448D01*
X137581090Y-83623168D01*
X137565438Y-83640438D01*
X137548168Y-83656090D01*
X137529448Y-83669974D01*
X137509457Y-83681956D01*
X137488387Y-83691921D01*
X137466443Y-83699773D01*
X137443834Y-83705437D01*
X137420779Y-83708856D01*
X137397500Y-83710000D01*
X136922500Y-83710000D01*
X136899221Y-83708856D01*
X136876166Y-83705437D01*
X136853557Y-83699773D01*
X136831613Y-83691921D01*
X136810543Y-83681956D01*
X136790552Y-83669974D01*
X136771832Y-83656090D01*
X136754562Y-83640438D01*
X136738910Y-83623168D01*
X136725026Y-83604448D01*
X136713044Y-83584457D01*
X136703079Y-83563387D01*
X136695227Y-83541443D01*
X136689563Y-83518834D01*
X136686144Y-83495779D01*
X136685000Y-83472500D01*
X136685000Y-82897500D01*
X136686144Y-82874221D01*
X136689563Y-82851166D01*
X136695227Y-82828557D01*
X136703079Y-82806613D01*
X136713044Y-82785543D01*
X136725026Y-82765552D01*
X136738910Y-82746832D01*
X136754562Y-82729562D01*
X136771832Y-82713910D01*
X136790552Y-82700026D01*
X136810543Y-82688044D01*
X136831613Y-82678079D01*
X136853557Y-82670227D01*
X136876166Y-82664563D01*
X136899221Y-82661144D01*
X136922500Y-82660000D01*
X137397500Y-82660000D01*
X137420779Y-82661144D01*
X137420779Y-82661144D01*
G37*
D11*
X137160000Y-83185000D03*
G04 #@! TD*
D10*
G04 #@! TO.C,D14*
G36*
X155200779Y-82661144D02*
X155223834Y-82664563D01*
X155246443Y-82670227D01*
X155268387Y-82678079D01*
X155289457Y-82688044D01*
X155309448Y-82700026D01*
X155328168Y-82713910D01*
X155345438Y-82729562D01*
X155361090Y-82746832D01*
X155374974Y-82765552D01*
X155386956Y-82785543D01*
X155396921Y-82806613D01*
X155404773Y-82828557D01*
X155410437Y-82851166D01*
X155413856Y-82874221D01*
X155415000Y-82897500D01*
X155415000Y-83472500D01*
X155413856Y-83495779D01*
X155410437Y-83518834D01*
X155404773Y-83541443D01*
X155396921Y-83563387D01*
X155386956Y-83584457D01*
X155374974Y-83604448D01*
X155361090Y-83623168D01*
X155345438Y-83640438D01*
X155328168Y-83656090D01*
X155309448Y-83669974D01*
X155289457Y-83681956D01*
X155268387Y-83691921D01*
X155246443Y-83699773D01*
X155223834Y-83705437D01*
X155200779Y-83708856D01*
X155177500Y-83710000D01*
X154702500Y-83710000D01*
X154679221Y-83708856D01*
X154656166Y-83705437D01*
X154633557Y-83699773D01*
X154611613Y-83691921D01*
X154590543Y-83681956D01*
X154570552Y-83669974D01*
X154551832Y-83656090D01*
X154534562Y-83640438D01*
X154518910Y-83623168D01*
X154505026Y-83604448D01*
X154493044Y-83584457D01*
X154483079Y-83563387D01*
X154475227Y-83541443D01*
X154469563Y-83518834D01*
X154466144Y-83495779D01*
X154465000Y-83472500D01*
X154465000Y-82897500D01*
X154466144Y-82874221D01*
X154469563Y-82851166D01*
X154475227Y-82828557D01*
X154483079Y-82806613D01*
X154493044Y-82785543D01*
X154505026Y-82765552D01*
X154518910Y-82746832D01*
X154534562Y-82729562D01*
X154551832Y-82713910D01*
X154570552Y-82700026D01*
X154590543Y-82688044D01*
X154611613Y-82678079D01*
X154633557Y-82670227D01*
X154656166Y-82664563D01*
X154679221Y-82661144D01*
X154702500Y-82660000D01*
X155177500Y-82660000D01*
X155200779Y-82661144D01*
X155200779Y-82661144D01*
G37*
D11*
X154940000Y-83185000D03*
D10*
G36*
X155200779Y-84411144D02*
X155223834Y-84414563D01*
X155246443Y-84420227D01*
X155268387Y-84428079D01*
X155289457Y-84438044D01*
X155309448Y-84450026D01*
X155328168Y-84463910D01*
X155345438Y-84479562D01*
X155361090Y-84496832D01*
X155374974Y-84515552D01*
X155386956Y-84535543D01*
X155396921Y-84556613D01*
X155404773Y-84578557D01*
X155410437Y-84601166D01*
X155413856Y-84624221D01*
X155415000Y-84647500D01*
X155415000Y-85222500D01*
X155413856Y-85245779D01*
X155410437Y-85268834D01*
X155404773Y-85291443D01*
X155396921Y-85313387D01*
X155386956Y-85334457D01*
X155374974Y-85354448D01*
X155361090Y-85373168D01*
X155345438Y-85390438D01*
X155328168Y-85406090D01*
X155309448Y-85419974D01*
X155289457Y-85431956D01*
X155268387Y-85441921D01*
X155246443Y-85449773D01*
X155223834Y-85455437D01*
X155200779Y-85458856D01*
X155177500Y-85460000D01*
X154702500Y-85460000D01*
X154679221Y-85458856D01*
X154656166Y-85455437D01*
X154633557Y-85449773D01*
X154611613Y-85441921D01*
X154590543Y-85431956D01*
X154570552Y-85419974D01*
X154551832Y-85406090D01*
X154534562Y-85390438D01*
X154518910Y-85373168D01*
X154505026Y-85354448D01*
X154493044Y-85334457D01*
X154483079Y-85313387D01*
X154475227Y-85291443D01*
X154469563Y-85268834D01*
X154466144Y-85245779D01*
X154465000Y-85222500D01*
X154465000Y-84647500D01*
X154466144Y-84624221D01*
X154469563Y-84601166D01*
X154475227Y-84578557D01*
X154483079Y-84556613D01*
X154493044Y-84535543D01*
X154505026Y-84515552D01*
X154518910Y-84496832D01*
X154534562Y-84479562D01*
X154551832Y-84463910D01*
X154570552Y-84450026D01*
X154590543Y-84438044D01*
X154611613Y-84428079D01*
X154633557Y-84420227D01*
X154656166Y-84414563D01*
X154679221Y-84411144D01*
X154702500Y-84410000D01*
X155177500Y-84410000D01*
X155200779Y-84411144D01*
X155200779Y-84411144D01*
G37*
D11*
X154940000Y-84935000D03*
G04 #@! TD*
D10*
G04 #@! TO.C,D15*
G36*
X160280779Y-123146144D02*
X160303834Y-123149563D01*
X160326443Y-123155227D01*
X160348387Y-123163079D01*
X160369457Y-123173044D01*
X160389448Y-123185026D01*
X160408168Y-123198910D01*
X160425438Y-123214562D01*
X160441090Y-123231832D01*
X160454974Y-123250552D01*
X160466956Y-123270543D01*
X160476921Y-123291613D01*
X160484773Y-123313557D01*
X160490437Y-123336166D01*
X160493856Y-123359221D01*
X160495000Y-123382500D01*
X160495000Y-123957500D01*
X160493856Y-123980779D01*
X160490437Y-124003834D01*
X160484773Y-124026443D01*
X160476921Y-124048387D01*
X160466956Y-124069457D01*
X160454974Y-124089448D01*
X160441090Y-124108168D01*
X160425438Y-124125438D01*
X160408168Y-124141090D01*
X160389448Y-124154974D01*
X160369457Y-124166956D01*
X160348387Y-124176921D01*
X160326443Y-124184773D01*
X160303834Y-124190437D01*
X160280779Y-124193856D01*
X160257500Y-124195000D01*
X159782500Y-124195000D01*
X159759221Y-124193856D01*
X159736166Y-124190437D01*
X159713557Y-124184773D01*
X159691613Y-124176921D01*
X159670543Y-124166956D01*
X159650552Y-124154974D01*
X159631832Y-124141090D01*
X159614562Y-124125438D01*
X159598910Y-124108168D01*
X159585026Y-124089448D01*
X159573044Y-124069457D01*
X159563079Y-124048387D01*
X159555227Y-124026443D01*
X159549563Y-124003834D01*
X159546144Y-123980779D01*
X159545000Y-123957500D01*
X159545000Y-123382500D01*
X159546144Y-123359221D01*
X159549563Y-123336166D01*
X159555227Y-123313557D01*
X159563079Y-123291613D01*
X159573044Y-123270543D01*
X159585026Y-123250552D01*
X159598910Y-123231832D01*
X159614562Y-123214562D01*
X159631832Y-123198910D01*
X159650552Y-123185026D01*
X159670543Y-123173044D01*
X159691613Y-123163079D01*
X159713557Y-123155227D01*
X159736166Y-123149563D01*
X159759221Y-123146144D01*
X159782500Y-123145000D01*
X160257500Y-123145000D01*
X160280779Y-123146144D01*
X160280779Y-123146144D01*
G37*
D11*
X160020000Y-123670000D03*
D10*
G36*
X160280779Y-121396144D02*
X160303834Y-121399563D01*
X160326443Y-121405227D01*
X160348387Y-121413079D01*
X160369457Y-121423044D01*
X160389448Y-121435026D01*
X160408168Y-121448910D01*
X160425438Y-121464562D01*
X160441090Y-121481832D01*
X160454974Y-121500552D01*
X160466956Y-121520543D01*
X160476921Y-121541613D01*
X160484773Y-121563557D01*
X160490437Y-121586166D01*
X160493856Y-121609221D01*
X160495000Y-121632500D01*
X160495000Y-122207500D01*
X160493856Y-122230779D01*
X160490437Y-122253834D01*
X160484773Y-122276443D01*
X160476921Y-122298387D01*
X160466956Y-122319457D01*
X160454974Y-122339448D01*
X160441090Y-122358168D01*
X160425438Y-122375438D01*
X160408168Y-122391090D01*
X160389448Y-122404974D01*
X160369457Y-122416956D01*
X160348387Y-122426921D01*
X160326443Y-122434773D01*
X160303834Y-122440437D01*
X160280779Y-122443856D01*
X160257500Y-122445000D01*
X159782500Y-122445000D01*
X159759221Y-122443856D01*
X159736166Y-122440437D01*
X159713557Y-122434773D01*
X159691613Y-122426921D01*
X159670543Y-122416956D01*
X159650552Y-122404974D01*
X159631832Y-122391090D01*
X159614562Y-122375438D01*
X159598910Y-122358168D01*
X159585026Y-122339448D01*
X159573044Y-122319457D01*
X159563079Y-122298387D01*
X159555227Y-122276443D01*
X159549563Y-122253834D01*
X159546144Y-122230779D01*
X159545000Y-122207500D01*
X159545000Y-121632500D01*
X159546144Y-121609221D01*
X159549563Y-121586166D01*
X159555227Y-121563557D01*
X159563079Y-121541613D01*
X159573044Y-121520543D01*
X159585026Y-121500552D01*
X159598910Y-121481832D01*
X159614562Y-121464562D01*
X159631832Y-121448910D01*
X159650552Y-121435026D01*
X159670543Y-121423044D01*
X159691613Y-121413079D01*
X159713557Y-121405227D01*
X159736166Y-121399563D01*
X159759221Y-121396144D01*
X159782500Y-121395000D01*
X160257500Y-121395000D01*
X160280779Y-121396144D01*
X160280779Y-121396144D01*
G37*
D11*
X160020000Y-121920000D03*
G04 #@! TD*
D10*
G04 #@! TO.C,D16*
G36*
X175520779Y-84411144D02*
X175543834Y-84414563D01*
X175566443Y-84420227D01*
X175588387Y-84428079D01*
X175609457Y-84438044D01*
X175629448Y-84450026D01*
X175648168Y-84463910D01*
X175665438Y-84479562D01*
X175681090Y-84496832D01*
X175694974Y-84515552D01*
X175706956Y-84535543D01*
X175716921Y-84556613D01*
X175724773Y-84578557D01*
X175730437Y-84601166D01*
X175733856Y-84624221D01*
X175735000Y-84647500D01*
X175735000Y-85222500D01*
X175733856Y-85245779D01*
X175730437Y-85268834D01*
X175724773Y-85291443D01*
X175716921Y-85313387D01*
X175706956Y-85334457D01*
X175694974Y-85354448D01*
X175681090Y-85373168D01*
X175665438Y-85390438D01*
X175648168Y-85406090D01*
X175629448Y-85419974D01*
X175609457Y-85431956D01*
X175588387Y-85441921D01*
X175566443Y-85449773D01*
X175543834Y-85455437D01*
X175520779Y-85458856D01*
X175497500Y-85460000D01*
X175022500Y-85460000D01*
X174999221Y-85458856D01*
X174976166Y-85455437D01*
X174953557Y-85449773D01*
X174931613Y-85441921D01*
X174910543Y-85431956D01*
X174890552Y-85419974D01*
X174871832Y-85406090D01*
X174854562Y-85390438D01*
X174838910Y-85373168D01*
X174825026Y-85354448D01*
X174813044Y-85334457D01*
X174803079Y-85313387D01*
X174795227Y-85291443D01*
X174789563Y-85268834D01*
X174786144Y-85245779D01*
X174785000Y-85222500D01*
X174785000Y-84647500D01*
X174786144Y-84624221D01*
X174789563Y-84601166D01*
X174795227Y-84578557D01*
X174803079Y-84556613D01*
X174813044Y-84535543D01*
X174825026Y-84515552D01*
X174838910Y-84496832D01*
X174854562Y-84479562D01*
X174871832Y-84463910D01*
X174890552Y-84450026D01*
X174910543Y-84438044D01*
X174931613Y-84428079D01*
X174953557Y-84420227D01*
X174976166Y-84414563D01*
X174999221Y-84411144D01*
X175022500Y-84410000D01*
X175497500Y-84410000D01*
X175520779Y-84411144D01*
X175520779Y-84411144D01*
G37*
D11*
X175260000Y-84935000D03*
D10*
G36*
X175520779Y-82661144D02*
X175543834Y-82664563D01*
X175566443Y-82670227D01*
X175588387Y-82678079D01*
X175609457Y-82688044D01*
X175629448Y-82700026D01*
X175648168Y-82713910D01*
X175665438Y-82729562D01*
X175681090Y-82746832D01*
X175694974Y-82765552D01*
X175706956Y-82785543D01*
X175716921Y-82806613D01*
X175724773Y-82828557D01*
X175730437Y-82851166D01*
X175733856Y-82874221D01*
X175735000Y-82897500D01*
X175735000Y-83472500D01*
X175733856Y-83495779D01*
X175730437Y-83518834D01*
X175724773Y-83541443D01*
X175716921Y-83563387D01*
X175706956Y-83584457D01*
X175694974Y-83604448D01*
X175681090Y-83623168D01*
X175665438Y-83640438D01*
X175648168Y-83656090D01*
X175629448Y-83669974D01*
X175609457Y-83681956D01*
X175588387Y-83691921D01*
X175566443Y-83699773D01*
X175543834Y-83705437D01*
X175520779Y-83708856D01*
X175497500Y-83710000D01*
X175022500Y-83710000D01*
X174999221Y-83708856D01*
X174976166Y-83705437D01*
X174953557Y-83699773D01*
X174931613Y-83691921D01*
X174910543Y-83681956D01*
X174890552Y-83669974D01*
X174871832Y-83656090D01*
X174854562Y-83640438D01*
X174838910Y-83623168D01*
X174825026Y-83604448D01*
X174813044Y-83584457D01*
X174803079Y-83563387D01*
X174795227Y-83541443D01*
X174789563Y-83518834D01*
X174786144Y-83495779D01*
X174785000Y-83472500D01*
X174785000Y-82897500D01*
X174786144Y-82874221D01*
X174789563Y-82851166D01*
X174795227Y-82828557D01*
X174803079Y-82806613D01*
X174813044Y-82785543D01*
X174825026Y-82765552D01*
X174838910Y-82746832D01*
X174854562Y-82729562D01*
X174871832Y-82713910D01*
X174890552Y-82700026D01*
X174910543Y-82688044D01*
X174931613Y-82678079D01*
X174953557Y-82670227D01*
X174976166Y-82664563D01*
X174999221Y-82661144D01*
X175022500Y-82660000D01*
X175497500Y-82660000D01*
X175520779Y-82661144D01*
X175520779Y-82661144D01*
G37*
D11*
X175260000Y-83185000D03*
G04 #@! TD*
D10*
G04 #@! TO.C,D17*
G36*
X142500779Y-123146144D02*
X142523834Y-123149563D01*
X142546443Y-123155227D01*
X142568387Y-123163079D01*
X142589457Y-123173044D01*
X142609448Y-123185026D01*
X142628168Y-123198910D01*
X142645438Y-123214562D01*
X142661090Y-123231832D01*
X142674974Y-123250552D01*
X142686956Y-123270543D01*
X142696921Y-123291613D01*
X142704773Y-123313557D01*
X142710437Y-123336166D01*
X142713856Y-123359221D01*
X142715000Y-123382500D01*
X142715000Y-123957500D01*
X142713856Y-123980779D01*
X142710437Y-124003834D01*
X142704773Y-124026443D01*
X142696921Y-124048387D01*
X142686956Y-124069457D01*
X142674974Y-124089448D01*
X142661090Y-124108168D01*
X142645438Y-124125438D01*
X142628168Y-124141090D01*
X142609448Y-124154974D01*
X142589457Y-124166956D01*
X142568387Y-124176921D01*
X142546443Y-124184773D01*
X142523834Y-124190437D01*
X142500779Y-124193856D01*
X142477500Y-124195000D01*
X142002500Y-124195000D01*
X141979221Y-124193856D01*
X141956166Y-124190437D01*
X141933557Y-124184773D01*
X141911613Y-124176921D01*
X141890543Y-124166956D01*
X141870552Y-124154974D01*
X141851832Y-124141090D01*
X141834562Y-124125438D01*
X141818910Y-124108168D01*
X141805026Y-124089448D01*
X141793044Y-124069457D01*
X141783079Y-124048387D01*
X141775227Y-124026443D01*
X141769563Y-124003834D01*
X141766144Y-123980779D01*
X141765000Y-123957500D01*
X141765000Y-123382500D01*
X141766144Y-123359221D01*
X141769563Y-123336166D01*
X141775227Y-123313557D01*
X141783079Y-123291613D01*
X141793044Y-123270543D01*
X141805026Y-123250552D01*
X141818910Y-123231832D01*
X141834562Y-123214562D01*
X141851832Y-123198910D01*
X141870552Y-123185026D01*
X141890543Y-123173044D01*
X141911613Y-123163079D01*
X141933557Y-123155227D01*
X141956166Y-123149563D01*
X141979221Y-123146144D01*
X142002500Y-123145000D01*
X142477500Y-123145000D01*
X142500779Y-123146144D01*
X142500779Y-123146144D01*
G37*
D11*
X142240000Y-123670000D03*
D10*
G36*
X142500779Y-121396144D02*
X142523834Y-121399563D01*
X142546443Y-121405227D01*
X142568387Y-121413079D01*
X142589457Y-121423044D01*
X142609448Y-121435026D01*
X142628168Y-121448910D01*
X142645438Y-121464562D01*
X142661090Y-121481832D01*
X142674974Y-121500552D01*
X142686956Y-121520543D01*
X142696921Y-121541613D01*
X142704773Y-121563557D01*
X142710437Y-121586166D01*
X142713856Y-121609221D01*
X142715000Y-121632500D01*
X142715000Y-122207500D01*
X142713856Y-122230779D01*
X142710437Y-122253834D01*
X142704773Y-122276443D01*
X142696921Y-122298387D01*
X142686956Y-122319457D01*
X142674974Y-122339448D01*
X142661090Y-122358168D01*
X142645438Y-122375438D01*
X142628168Y-122391090D01*
X142609448Y-122404974D01*
X142589457Y-122416956D01*
X142568387Y-122426921D01*
X142546443Y-122434773D01*
X142523834Y-122440437D01*
X142500779Y-122443856D01*
X142477500Y-122445000D01*
X142002500Y-122445000D01*
X141979221Y-122443856D01*
X141956166Y-122440437D01*
X141933557Y-122434773D01*
X141911613Y-122426921D01*
X141890543Y-122416956D01*
X141870552Y-122404974D01*
X141851832Y-122391090D01*
X141834562Y-122375438D01*
X141818910Y-122358168D01*
X141805026Y-122339448D01*
X141793044Y-122319457D01*
X141783079Y-122298387D01*
X141775227Y-122276443D01*
X141769563Y-122253834D01*
X141766144Y-122230779D01*
X141765000Y-122207500D01*
X141765000Y-121632500D01*
X141766144Y-121609221D01*
X141769563Y-121586166D01*
X141775227Y-121563557D01*
X141783079Y-121541613D01*
X141793044Y-121520543D01*
X141805026Y-121500552D01*
X141818910Y-121481832D01*
X141834562Y-121464562D01*
X141851832Y-121448910D01*
X141870552Y-121435026D01*
X141890543Y-121423044D01*
X141911613Y-121413079D01*
X141933557Y-121405227D01*
X141956166Y-121399563D01*
X141979221Y-121396144D01*
X142002500Y-121395000D01*
X142477500Y-121395000D01*
X142500779Y-121396144D01*
X142500779Y-121396144D01*
G37*
D11*
X142240000Y-121920000D03*
G04 #@! TD*
D10*
G04 #@! TO.C,D18*
G36*
X142500779Y-84411144D02*
X142523834Y-84414563D01*
X142546443Y-84420227D01*
X142568387Y-84428079D01*
X142589457Y-84438044D01*
X142609448Y-84450026D01*
X142628168Y-84463910D01*
X142645438Y-84479562D01*
X142661090Y-84496832D01*
X142674974Y-84515552D01*
X142686956Y-84535543D01*
X142696921Y-84556613D01*
X142704773Y-84578557D01*
X142710437Y-84601166D01*
X142713856Y-84624221D01*
X142715000Y-84647500D01*
X142715000Y-85222500D01*
X142713856Y-85245779D01*
X142710437Y-85268834D01*
X142704773Y-85291443D01*
X142696921Y-85313387D01*
X142686956Y-85334457D01*
X142674974Y-85354448D01*
X142661090Y-85373168D01*
X142645438Y-85390438D01*
X142628168Y-85406090D01*
X142609448Y-85419974D01*
X142589457Y-85431956D01*
X142568387Y-85441921D01*
X142546443Y-85449773D01*
X142523834Y-85455437D01*
X142500779Y-85458856D01*
X142477500Y-85460000D01*
X142002500Y-85460000D01*
X141979221Y-85458856D01*
X141956166Y-85455437D01*
X141933557Y-85449773D01*
X141911613Y-85441921D01*
X141890543Y-85431956D01*
X141870552Y-85419974D01*
X141851832Y-85406090D01*
X141834562Y-85390438D01*
X141818910Y-85373168D01*
X141805026Y-85354448D01*
X141793044Y-85334457D01*
X141783079Y-85313387D01*
X141775227Y-85291443D01*
X141769563Y-85268834D01*
X141766144Y-85245779D01*
X141765000Y-85222500D01*
X141765000Y-84647500D01*
X141766144Y-84624221D01*
X141769563Y-84601166D01*
X141775227Y-84578557D01*
X141783079Y-84556613D01*
X141793044Y-84535543D01*
X141805026Y-84515552D01*
X141818910Y-84496832D01*
X141834562Y-84479562D01*
X141851832Y-84463910D01*
X141870552Y-84450026D01*
X141890543Y-84438044D01*
X141911613Y-84428079D01*
X141933557Y-84420227D01*
X141956166Y-84414563D01*
X141979221Y-84411144D01*
X142002500Y-84410000D01*
X142477500Y-84410000D01*
X142500779Y-84411144D01*
X142500779Y-84411144D01*
G37*
D11*
X142240000Y-84935000D03*
D10*
G36*
X142500779Y-82661144D02*
X142523834Y-82664563D01*
X142546443Y-82670227D01*
X142568387Y-82678079D01*
X142589457Y-82688044D01*
X142609448Y-82700026D01*
X142628168Y-82713910D01*
X142645438Y-82729562D01*
X142661090Y-82746832D01*
X142674974Y-82765552D01*
X142686956Y-82785543D01*
X142696921Y-82806613D01*
X142704773Y-82828557D01*
X142710437Y-82851166D01*
X142713856Y-82874221D01*
X142715000Y-82897500D01*
X142715000Y-83472500D01*
X142713856Y-83495779D01*
X142710437Y-83518834D01*
X142704773Y-83541443D01*
X142696921Y-83563387D01*
X142686956Y-83584457D01*
X142674974Y-83604448D01*
X142661090Y-83623168D01*
X142645438Y-83640438D01*
X142628168Y-83656090D01*
X142609448Y-83669974D01*
X142589457Y-83681956D01*
X142568387Y-83691921D01*
X142546443Y-83699773D01*
X142523834Y-83705437D01*
X142500779Y-83708856D01*
X142477500Y-83710000D01*
X142002500Y-83710000D01*
X141979221Y-83708856D01*
X141956166Y-83705437D01*
X141933557Y-83699773D01*
X141911613Y-83691921D01*
X141890543Y-83681956D01*
X141870552Y-83669974D01*
X141851832Y-83656090D01*
X141834562Y-83640438D01*
X141818910Y-83623168D01*
X141805026Y-83604448D01*
X141793044Y-83584457D01*
X141783079Y-83563387D01*
X141775227Y-83541443D01*
X141769563Y-83518834D01*
X141766144Y-83495779D01*
X141765000Y-83472500D01*
X141765000Y-82897500D01*
X141766144Y-82874221D01*
X141769563Y-82851166D01*
X141775227Y-82828557D01*
X141783079Y-82806613D01*
X141793044Y-82785543D01*
X141805026Y-82765552D01*
X141818910Y-82746832D01*
X141834562Y-82729562D01*
X141851832Y-82713910D01*
X141870552Y-82700026D01*
X141890543Y-82688044D01*
X141911613Y-82678079D01*
X141933557Y-82670227D01*
X141956166Y-82664563D01*
X141979221Y-82661144D01*
X142002500Y-82660000D01*
X142477500Y-82660000D01*
X142500779Y-82661144D01*
X142500779Y-82661144D01*
G37*
D11*
X142240000Y-83185000D03*
G04 #@! TD*
D10*
G04 #@! TO.C,D19*
G36*
X160280779Y-84411144D02*
X160303834Y-84414563D01*
X160326443Y-84420227D01*
X160348387Y-84428079D01*
X160369457Y-84438044D01*
X160389448Y-84450026D01*
X160408168Y-84463910D01*
X160425438Y-84479562D01*
X160441090Y-84496832D01*
X160454974Y-84515552D01*
X160466956Y-84535543D01*
X160476921Y-84556613D01*
X160484773Y-84578557D01*
X160490437Y-84601166D01*
X160493856Y-84624221D01*
X160495000Y-84647500D01*
X160495000Y-85222500D01*
X160493856Y-85245779D01*
X160490437Y-85268834D01*
X160484773Y-85291443D01*
X160476921Y-85313387D01*
X160466956Y-85334457D01*
X160454974Y-85354448D01*
X160441090Y-85373168D01*
X160425438Y-85390438D01*
X160408168Y-85406090D01*
X160389448Y-85419974D01*
X160369457Y-85431956D01*
X160348387Y-85441921D01*
X160326443Y-85449773D01*
X160303834Y-85455437D01*
X160280779Y-85458856D01*
X160257500Y-85460000D01*
X159782500Y-85460000D01*
X159759221Y-85458856D01*
X159736166Y-85455437D01*
X159713557Y-85449773D01*
X159691613Y-85441921D01*
X159670543Y-85431956D01*
X159650552Y-85419974D01*
X159631832Y-85406090D01*
X159614562Y-85390438D01*
X159598910Y-85373168D01*
X159585026Y-85354448D01*
X159573044Y-85334457D01*
X159563079Y-85313387D01*
X159555227Y-85291443D01*
X159549563Y-85268834D01*
X159546144Y-85245779D01*
X159545000Y-85222500D01*
X159545000Y-84647500D01*
X159546144Y-84624221D01*
X159549563Y-84601166D01*
X159555227Y-84578557D01*
X159563079Y-84556613D01*
X159573044Y-84535543D01*
X159585026Y-84515552D01*
X159598910Y-84496832D01*
X159614562Y-84479562D01*
X159631832Y-84463910D01*
X159650552Y-84450026D01*
X159670543Y-84438044D01*
X159691613Y-84428079D01*
X159713557Y-84420227D01*
X159736166Y-84414563D01*
X159759221Y-84411144D01*
X159782500Y-84410000D01*
X160257500Y-84410000D01*
X160280779Y-84411144D01*
X160280779Y-84411144D01*
G37*
D11*
X160020000Y-84935000D03*
D10*
G36*
X160280779Y-82661144D02*
X160303834Y-82664563D01*
X160326443Y-82670227D01*
X160348387Y-82678079D01*
X160369457Y-82688044D01*
X160389448Y-82700026D01*
X160408168Y-82713910D01*
X160425438Y-82729562D01*
X160441090Y-82746832D01*
X160454974Y-82765552D01*
X160466956Y-82785543D01*
X160476921Y-82806613D01*
X160484773Y-82828557D01*
X160490437Y-82851166D01*
X160493856Y-82874221D01*
X160495000Y-82897500D01*
X160495000Y-83472500D01*
X160493856Y-83495779D01*
X160490437Y-83518834D01*
X160484773Y-83541443D01*
X160476921Y-83563387D01*
X160466956Y-83584457D01*
X160454974Y-83604448D01*
X160441090Y-83623168D01*
X160425438Y-83640438D01*
X160408168Y-83656090D01*
X160389448Y-83669974D01*
X160369457Y-83681956D01*
X160348387Y-83691921D01*
X160326443Y-83699773D01*
X160303834Y-83705437D01*
X160280779Y-83708856D01*
X160257500Y-83710000D01*
X159782500Y-83710000D01*
X159759221Y-83708856D01*
X159736166Y-83705437D01*
X159713557Y-83699773D01*
X159691613Y-83691921D01*
X159670543Y-83681956D01*
X159650552Y-83669974D01*
X159631832Y-83656090D01*
X159614562Y-83640438D01*
X159598910Y-83623168D01*
X159585026Y-83604448D01*
X159573044Y-83584457D01*
X159563079Y-83563387D01*
X159555227Y-83541443D01*
X159549563Y-83518834D01*
X159546144Y-83495779D01*
X159545000Y-83472500D01*
X159545000Y-82897500D01*
X159546144Y-82874221D01*
X159549563Y-82851166D01*
X159555227Y-82828557D01*
X159563079Y-82806613D01*
X159573044Y-82785543D01*
X159585026Y-82765552D01*
X159598910Y-82746832D01*
X159614562Y-82729562D01*
X159631832Y-82713910D01*
X159650552Y-82700026D01*
X159670543Y-82688044D01*
X159691613Y-82678079D01*
X159713557Y-82670227D01*
X159736166Y-82664563D01*
X159759221Y-82661144D01*
X159782500Y-82660000D01*
X160257500Y-82660000D01*
X160280779Y-82661144D01*
X160280779Y-82661144D01*
G37*
D11*
X160020000Y-83185000D03*
G04 #@! TD*
D10*
G04 #@! TO.C,D20*
G36*
X179965779Y-84411144D02*
X179988834Y-84414563D01*
X180011443Y-84420227D01*
X180033387Y-84428079D01*
X180054457Y-84438044D01*
X180074448Y-84450026D01*
X180093168Y-84463910D01*
X180110438Y-84479562D01*
X180126090Y-84496832D01*
X180139974Y-84515552D01*
X180151956Y-84535543D01*
X180161921Y-84556613D01*
X180169773Y-84578557D01*
X180175437Y-84601166D01*
X180178856Y-84624221D01*
X180180000Y-84647500D01*
X180180000Y-85222500D01*
X180178856Y-85245779D01*
X180175437Y-85268834D01*
X180169773Y-85291443D01*
X180161921Y-85313387D01*
X180151956Y-85334457D01*
X180139974Y-85354448D01*
X180126090Y-85373168D01*
X180110438Y-85390438D01*
X180093168Y-85406090D01*
X180074448Y-85419974D01*
X180054457Y-85431956D01*
X180033387Y-85441921D01*
X180011443Y-85449773D01*
X179988834Y-85455437D01*
X179965779Y-85458856D01*
X179942500Y-85460000D01*
X179467500Y-85460000D01*
X179444221Y-85458856D01*
X179421166Y-85455437D01*
X179398557Y-85449773D01*
X179376613Y-85441921D01*
X179355543Y-85431956D01*
X179335552Y-85419974D01*
X179316832Y-85406090D01*
X179299562Y-85390438D01*
X179283910Y-85373168D01*
X179270026Y-85354448D01*
X179258044Y-85334457D01*
X179248079Y-85313387D01*
X179240227Y-85291443D01*
X179234563Y-85268834D01*
X179231144Y-85245779D01*
X179230000Y-85222500D01*
X179230000Y-84647500D01*
X179231144Y-84624221D01*
X179234563Y-84601166D01*
X179240227Y-84578557D01*
X179248079Y-84556613D01*
X179258044Y-84535543D01*
X179270026Y-84515552D01*
X179283910Y-84496832D01*
X179299562Y-84479562D01*
X179316832Y-84463910D01*
X179335552Y-84450026D01*
X179355543Y-84438044D01*
X179376613Y-84428079D01*
X179398557Y-84420227D01*
X179421166Y-84414563D01*
X179444221Y-84411144D01*
X179467500Y-84410000D01*
X179942500Y-84410000D01*
X179965779Y-84411144D01*
X179965779Y-84411144D01*
G37*
D11*
X179705000Y-84935000D03*
D10*
G36*
X179965779Y-82661144D02*
X179988834Y-82664563D01*
X180011443Y-82670227D01*
X180033387Y-82678079D01*
X180054457Y-82688044D01*
X180074448Y-82700026D01*
X180093168Y-82713910D01*
X180110438Y-82729562D01*
X180126090Y-82746832D01*
X180139974Y-82765552D01*
X180151956Y-82785543D01*
X180161921Y-82806613D01*
X180169773Y-82828557D01*
X180175437Y-82851166D01*
X180178856Y-82874221D01*
X180180000Y-82897500D01*
X180180000Y-83472500D01*
X180178856Y-83495779D01*
X180175437Y-83518834D01*
X180169773Y-83541443D01*
X180161921Y-83563387D01*
X180151956Y-83584457D01*
X180139974Y-83604448D01*
X180126090Y-83623168D01*
X180110438Y-83640438D01*
X180093168Y-83656090D01*
X180074448Y-83669974D01*
X180054457Y-83681956D01*
X180033387Y-83691921D01*
X180011443Y-83699773D01*
X179988834Y-83705437D01*
X179965779Y-83708856D01*
X179942500Y-83710000D01*
X179467500Y-83710000D01*
X179444221Y-83708856D01*
X179421166Y-83705437D01*
X179398557Y-83699773D01*
X179376613Y-83691921D01*
X179355543Y-83681956D01*
X179335552Y-83669974D01*
X179316832Y-83656090D01*
X179299562Y-83640438D01*
X179283910Y-83623168D01*
X179270026Y-83604448D01*
X179258044Y-83584457D01*
X179248079Y-83563387D01*
X179240227Y-83541443D01*
X179234563Y-83518834D01*
X179231144Y-83495779D01*
X179230000Y-83472500D01*
X179230000Y-82897500D01*
X179231144Y-82874221D01*
X179234563Y-82851166D01*
X179240227Y-82828557D01*
X179248079Y-82806613D01*
X179258044Y-82785543D01*
X179270026Y-82765552D01*
X179283910Y-82746832D01*
X179299562Y-82729562D01*
X179316832Y-82713910D01*
X179335552Y-82700026D01*
X179355543Y-82688044D01*
X179376613Y-82678079D01*
X179398557Y-82670227D01*
X179421166Y-82664563D01*
X179444221Y-82661144D01*
X179467500Y-82660000D01*
X179942500Y-82660000D01*
X179965779Y-82661144D01*
X179965779Y-82661144D01*
G37*
D11*
X179705000Y-83185000D03*
G04 #@! TD*
D10*
G04 #@! TO.C,D21*
G36*
X117630779Y-99221144D02*
X117653834Y-99224563D01*
X117676443Y-99230227D01*
X117698387Y-99238079D01*
X117719457Y-99248044D01*
X117739448Y-99260026D01*
X117758168Y-99273910D01*
X117775438Y-99289562D01*
X117791090Y-99306832D01*
X117804974Y-99325552D01*
X117816956Y-99345543D01*
X117826921Y-99366613D01*
X117834773Y-99388557D01*
X117840437Y-99411166D01*
X117843856Y-99434221D01*
X117845000Y-99457500D01*
X117845000Y-99932500D01*
X117843856Y-99955779D01*
X117840437Y-99978834D01*
X117834773Y-100001443D01*
X117826921Y-100023387D01*
X117816956Y-100044457D01*
X117804974Y-100064448D01*
X117791090Y-100083168D01*
X117775438Y-100100438D01*
X117758168Y-100116090D01*
X117739448Y-100129974D01*
X117719457Y-100141956D01*
X117698387Y-100151921D01*
X117676443Y-100159773D01*
X117653834Y-100165437D01*
X117630779Y-100168856D01*
X117607500Y-100170000D01*
X117032500Y-100170000D01*
X117009221Y-100168856D01*
X116986166Y-100165437D01*
X116963557Y-100159773D01*
X116941613Y-100151921D01*
X116920543Y-100141956D01*
X116900552Y-100129974D01*
X116881832Y-100116090D01*
X116864562Y-100100438D01*
X116848910Y-100083168D01*
X116835026Y-100064448D01*
X116823044Y-100044457D01*
X116813079Y-100023387D01*
X116805227Y-100001443D01*
X116799563Y-99978834D01*
X116796144Y-99955779D01*
X116795000Y-99932500D01*
X116795000Y-99457500D01*
X116796144Y-99434221D01*
X116799563Y-99411166D01*
X116805227Y-99388557D01*
X116813079Y-99366613D01*
X116823044Y-99345543D01*
X116835026Y-99325552D01*
X116848910Y-99306832D01*
X116864562Y-99289562D01*
X116881832Y-99273910D01*
X116900552Y-99260026D01*
X116920543Y-99248044D01*
X116941613Y-99238079D01*
X116963557Y-99230227D01*
X116986166Y-99224563D01*
X117009221Y-99221144D01*
X117032500Y-99220000D01*
X117607500Y-99220000D01*
X117630779Y-99221144D01*
X117630779Y-99221144D01*
G37*
D11*
X117320000Y-99695000D03*
D10*
G36*
X115880779Y-99221144D02*
X115903834Y-99224563D01*
X115926443Y-99230227D01*
X115948387Y-99238079D01*
X115969457Y-99248044D01*
X115989448Y-99260026D01*
X116008168Y-99273910D01*
X116025438Y-99289562D01*
X116041090Y-99306832D01*
X116054974Y-99325552D01*
X116066956Y-99345543D01*
X116076921Y-99366613D01*
X116084773Y-99388557D01*
X116090437Y-99411166D01*
X116093856Y-99434221D01*
X116095000Y-99457500D01*
X116095000Y-99932500D01*
X116093856Y-99955779D01*
X116090437Y-99978834D01*
X116084773Y-100001443D01*
X116076921Y-100023387D01*
X116066956Y-100044457D01*
X116054974Y-100064448D01*
X116041090Y-100083168D01*
X116025438Y-100100438D01*
X116008168Y-100116090D01*
X115989448Y-100129974D01*
X115969457Y-100141956D01*
X115948387Y-100151921D01*
X115926443Y-100159773D01*
X115903834Y-100165437D01*
X115880779Y-100168856D01*
X115857500Y-100170000D01*
X115282500Y-100170000D01*
X115259221Y-100168856D01*
X115236166Y-100165437D01*
X115213557Y-100159773D01*
X115191613Y-100151921D01*
X115170543Y-100141956D01*
X115150552Y-100129974D01*
X115131832Y-100116090D01*
X115114562Y-100100438D01*
X115098910Y-100083168D01*
X115085026Y-100064448D01*
X115073044Y-100044457D01*
X115063079Y-100023387D01*
X115055227Y-100001443D01*
X115049563Y-99978834D01*
X115046144Y-99955779D01*
X115045000Y-99932500D01*
X115045000Y-99457500D01*
X115046144Y-99434221D01*
X115049563Y-99411166D01*
X115055227Y-99388557D01*
X115063079Y-99366613D01*
X115073044Y-99345543D01*
X115085026Y-99325552D01*
X115098910Y-99306832D01*
X115114562Y-99289562D01*
X115131832Y-99273910D01*
X115150552Y-99260026D01*
X115170543Y-99248044D01*
X115191613Y-99238079D01*
X115213557Y-99230227D01*
X115236166Y-99224563D01*
X115259221Y-99221144D01*
X115282500Y-99220000D01*
X115857500Y-99220000D01*
X115880779Y-99221144D01*
X115880779Y-99221144D01*
G37*
D11*
X115570000Y-99695000D03*
G04 #@! TD*
D10*
G04 #@! TO.C,R21*
G36*
X123345779Y-99221144D02*
X123368834Y-99224563D01*
X123391443Y-99230227D01*
X123413387Y-99238079D01*
X123434457Y-99248044D01*
X123454448Y-99260026D01*
X123473168Y-99273910D01*
X123490438Y-99289562D01*
X123506090Y-99306832D01*
X123519974Y-99325552D01*
X123531956Y-99345543D01*
X123541921Y-99366613D01*
X123549773Y-99388557D01*
X123555437Y-99411166D01*
X123558856Y-99434221D01*
X123560000Y-99457500D01*
X123560000Y-99932500D01*
X123558856Y-99955779D01*
X123555437Y-99978834D01*
X123549773Y-100001443D01*
X123541921Y-100023387D01*
X123531956Y-100044457D01*
X123519974Y-100064448D01*
X123506090Y-100083168D01*
X123490438Y-100100438D01*
X123473168Y-100116090D01*
X123454448Y-100129974D01*
X123434457Y-100141956D01*
X123413387Y-100151921D01*
X123391443Y-100159773D01*
X123368834Y-100165437D01*
X123345779Y-100168856D01*
X123322500Y-100170000D01*
X122747500Y-100170000D01*
X122724221Y-100168856D01*
X122701166Y-100165437D01*
X122678557Y-100159773D01*
X122656613Y-100151921D01*
X122635543Y-100141956D01*
X122615552Y-100129974D01*
X122596832Y-100116090D01*
X122579562Y-100100438D01*
X122563910Y-100083168D01*
X122550026Y-100064448D01*
X122538044Y-100044457D01*
X122528079Y-100023387D01*
X122520227Y-100001443D01*
X122514563Y-99978834D01*
X122511144Y-99955779D01*
X122510000Y-99932500D01*
X122510000Y-99457500D01*
X122511144Y-99434221D01*
X122514563Y-99411166D01*
X122520227Y-99388557D01*
X122528079Y-99366613D01*
X122538044Y-99345543D01*
X122550026Y-99325552D01*
X122563910Y-99306832D01*
X122579562Y-99289562D01*
X122596832Y-99273910D01*
X122615552Y-99260026D01*
X122635543Y-99248044D01*
X122656613Y-99238079D01*
X122678557Y-99230227D01*
X122701166Y-99224563D01*
X122724221Y-99221144D01*
X122747500Y-99220000D01*
X123322500Y-99220000D01*
X123345779Y-99221144D01*
X123345779Y-99221144D01*
G37*
D11*
X123035000Y-99695000D03*
D10*
G36*
X121595779Y-99221144D02*
X121618834Y-99224563D01*
X121641443Y-99230227D01*
X121663387Y-99238079D01*
X121684457Y-99248044D01*
X121704448Y-99260026D01*
X121723168Y-99273910D01*
X121740438Y-99289562D01*
X121756090Y-99306832D01*
X121769974Y-99325552D01*
X121781956Y-99345543D01*
X121791921Y-99366613D01*
X121799773Y-99388557D01*
X121805437Y-99411166D01*
X121808856Y-99434221D01*
X121810000Y-99457500D01*
X121810000Y-99932500D01*
X121808856Y-99955779D01*
X121805437Y-99978834D01*
X121799773Y-100001443D01*
X121791921Y-100023387D01*
X121781956Y-100044457D01*
X121769974Y-100064448D01*
X121756090Y-100083168D01*
X121740438Y-100100438D01*
X121723168Y-100116090D01*
X121704448Y-100129974D01*
X121684457Y-100141956D01*
X121663387Y-100151921D01*
X121641443Y-100159773D01*
X121618834Y-100165437D01*
X121595779Y-100168856D01*
X121572500Y-100170000D01*
X120997500Y-100170000D01*
X120974221Y-100168856D01*
X120951166Y-100165437D01*
X120928557Y-100159773D01*
X120906613Y-100151921D01*
X120885543Y-100141956D01*
X120865552Y-100129974D01*
X120846832Y-100116090D01*
X120829562Y-100100438D01*
X120813910Y-100083168D01*
X120800026Y-100064448D01*
X120788044Y-100044457D01*
X120778079Y-100023387D01*
X120770227Y-100001443D01*
X120764563Y-99978834D01*
X120761144Y-99955779D01*
X120760000Y-99932500D01*
X120760000Y-99457500D01*
X120761144Y-99434221D01*
X120764563Y-99411166D01*
X120770227Y-99388557D01*
X120778079Y-99366613D01*
X120788044Y-99345543D01*
X120800026Y-99325552D01*
X120813910Y-99306832D01*
X120829562Y-99289562D01*
X120846832Y-99273910D01*
X120865552Y-99260026D01*
X120885543Y-99248044D01*
X120906613Y-99238079D01*
X120928557Y-99230227D01*
X120951166Y-99224563D01*
X120974221Y-99221144D01*
X120997500Y-99220000D01*
X121572500Y-99220000D01*
X121595779Y-99221144D01*
X121595779Y-99221144D01*
G37*
D11*
X121285000Y-99695000D03*
G04 #@! TD*
M02*
