G04 #@! TF.GenerationSoftware,KiCad,Pcbnew,(5.0.0)*
G04 #@! TF.CreationDate,2020-11-30T16:59:43-06:00*
G04 #@! TF.ProjectId,GiecoBoard_2021_Rev1,476965636F426F6172645F323032315F,rev?*
G04 #@! TF.SameCoordinates,Original*
G04 #@! TF.FileFunction,Legend,Top*
G04 #@! TF.FilePolarity,Positive*
%FSLAX46Y46*%
G04 Gerber Fmt 4.6, Leading zero omitted, Abs format (unit mm)*
G04 Created by KiCad (PCBNEW (5.0.0)) date 11/30/20 16:59:43*
%MOMM*%
%LPD*%
G01*
G04 APERTURE LIST*
%ADD10C,0.300000*%
%ADD11C,0.200000*%
%ADD12C,0.250000*%
%ADD13C,0.120000*%
%ADD14C,0.150000*%
G04 APERTURE END LIST*
D10*
X199057857Y-142745000D02*
X198915000Y-142673571D01*
X198700714Y-142673571D01*
X198486428Y-142745000D01*
X198343571Y-142887857D01*
X198272142Y-143030714D01*
X198200714Y-143316428D01*
X198200714Y-143530714D01*
X198272142Y-143816428D01*
X198343571Y-143959285D01*
X198486428Y-144102142D01*
X198700714Y-144173571D01*
X198843571Y-144173571D01*
X199057857Y-144102142D01*
X199129285Y-144030714D01*
X199129285Y-143530714D01*
X198843571Y-143530714D01*
X200343571Y-144102142D02*
X200200714Y-144173571D01*
X199915000Y-144173571D01*
X199772142Y-144102142D01*
X199700714Y-143959285D01*
X199700714Y-143387857D01*
X199772142Y-143245000D01*
X199915000Y-143173571D01*
X200200714Y-143173571D01*
X200343571Y-143245000D01*
X200415000Y-143387857D01*
X200415000Y-143530714D01*
X199700714Y-143673571D01*
X201057857Y-144173571D02*
X201057857Y-143173571D01*
X201057857Y-142673571D02*
X200986428Y-142745000D01*
X201057857Y-142816428D01*
X201129285Y-142745000D01*
X201057857Y-142673571D01*
X201057857Y-142816428D01*
X202415000Y-144102142D02*
X202272142Y-144173571D01*
X201986428Y-144173571D01*
X201843571Y-144102142D01*
X201772142Y-144030714D01*
X201700714Y-143887857D01*
X201700714Y-143459285D01*
X201772142Y-143316428D01*
X201843571Y-143245000D01*
X201986428Y-143173571D01*
X202272142Y-143173571D01*
X202415000Y-143245000D01*
X203272142Y-144173571D02*
X203129285Y-144102142D01*
X203057857Y-144030714D01*
X202986428Y-143887857D01*
X202986428Y-143459285D01*
X203057857Y-143316428D01*
X203129285Y-143245000D01*
X203272142Y-143173571D01*
X203486428Y-143173571D01*
X203629285Y-143245000D01*
X203700714Y-143316428D01*
X203772142Y-143459285D01*
X203772142Y-143887857D01*
X203700714Y-144030714D01*
X203629285Y-144102142D01*
X203486428Y-144173571D01*
X203272142Y-144173571D01*
X205557857Y-144173571D02*
X205557857Y-142673571D01*
X205557857Y-143245000D02*
X205700714Y-143173571D01*
X205986428Y-143173571D01*
X206129285Y-143245000D01*
X206200714Y-143316428D01*
X206272142Y-143459285D01*
X206272142Y-143887857D01*
X206200714Y-144030714D01*
X206129285Y-144102142D01*
X205986428Y-144173571D01*
X205700714Y-144173571D01*
X205557857Y-144102142D01*
X207129285Y-144173571D02*
X206986428Y-144102142D01*
X206915000Y-144030714D01*
X206843571Y-143887857D01*
X206843571Y-143459285D01*
X206915000Y-143316428D01*
X206986428Y-143245000D01*
X207129285Y-143173571D01*
X207343571Y-143173571D01*
X207486428Y-143245000D01*
X207557857Y-143316428D01*
X207629285Y-143459285D01*
X207629285Y-143887857D01*
X207557857Y-144030714D01*
X207486428Y-144102142D01*
X207343571Y-144173571D01*
X207129285Y-144173571D01*
X208915000Y-144173571D02*
X208915000Y-143387857D01*
X208843571Y-143245000D01*
X208700714Y-143173571D01*
X208415000Y-143173571D01*
X208272142Y-143245000D01*
X208915000Y-144102142D02*
X208772142Y-144173571D01*
X208415000Y-144173571D01*
X208272142Y-144102142D01*
X208200714Y-143959285D01*
X208200714Y-143816428D01*
X208272142Y-143673571D01*
X208415000Y-143602142D01*
X208772142Y-143602142D01*
X208915000Y-143530714D01*
X209629285Y-144173571D02*
X209629285Y-143173571D01*
X209629285Y-143459285D02*
X209700714Y-143316428D01*
X209772142Y-143245000D01*
X209915000Y-143173571D01*
X210057857Y-143173571D01*
X211200714Y-144173571D02*
X211200714Y-142673571D01*
X211200714Y-144102142D02*
X211057857Y-144173571D01*
X210772142Y-144173571D01*
X210629285Y-144102142D01*
X210557857Y-144030714D01*
X210486428Y-143887857D01*
X210486428Y-143459285D01*
X210557857Y-143316428D01*
X210629285Y-143245000D01*
X210772142Y-143173571D01*
X211057857Y-143173571D01*
X211200714Y-143245000D01*
X213915000Y-144173571D02*
X213415000Y-143459285D01*
X213057857Y-144173571D02*
X213057857Y-142673571D01*
X213629285Y-142673571D01*
X213772142Y-142745000D01*
X213843571Y-142816428D01*
X213915000Y-142959285D01*
X213915000Y-143173571D01*
X213843571Y-143316428D01*
X213772142Y-143387857D01*
X213629285Y-143459285D01*
X213057857Y-143459285D01*
X215129285Y-144102142D02*
X214986428Y-144173571D01*
X214700714Y-144173571D01*
X214557857Y-144102142D01*
X214486428Y-143959285D01*
X214486428Y-143387857D01*
X214557857Y-143245000D01*
X214700714Y-143173571D01*
X214986428Y-143173571D01*
X215129285Y-143245000D01*
X215200714Y-143387857D01*
X215200714Y-143530714D01*
X214486428Y-143673571D01*
X215700714Y-143173571D02*
X216057857Y-144173571D01*
X216415000Y-143173571D01*
X216986428Y-144030714D02*
X217057857Y-144102142D01*
X216986428Y-144173571D01*
X216915000Y-144102142D01*
X216986428Y-144030714D01*
X216986428Y-144173571D01*
X219629285Y-144173571D02*
X218772142Y-144173571D01*
X219200714Y-144173571D02*
X219200714Y-142673571D01*
X219057857Y-142887857D01*
X218915000Y-143030714D01*
X218772142Y-143102142D01*
X195236428Y-146723571D02*
X195236428Y-145223571D01*
X195736428Y-146295000D01*
X196236428Y-145223571D01*
X196236428Y-146723571D01*
X197593571Y-146723571D02*
X197593571Y-145937857D01*
X197522142Y-145795000D01*
X197379285Y-145723571D01*
X197093571Y-145723571D01*
X196950714Y-145795000D01*
X197593571Y-146652142D02*
X197450714Y-146723571D01*
X197093571Y-146723571D01*
X196950714Y-146652142D01*
X196879285Y-146509285D01*
X196879285Y-146366428D01*
X196950714Y-146223571D01*
X197093571Y-146152142D01*
X197450714Y-146152142D01*
X197593571Y-146080714D01*
X198307857Y-146723571D02*
X198307857Y-145723571D01*
X198307857Y-146009285D02*
X198379285Y-145866428D01*
X198450714Y-145795000D01*
X198593571Y-145723571D01*
X198736428Y-145723571D01*
X199165000Y-146652142D02*
X199307857Y-146723571D01*
X199593571Y-146723571D01*
X199736428Y-146652142D01*
X199807857Y-146509285D01*
X199807857Y-146437857D01*
X199736428Y-146295000D01*
X199593571Y-146223571D01*
X199379285Y-146223571D01*
X199236428Y-146152142D01*
X199165000Y-146009285D01*
X199165000Y-145937857D01*
X199236428Y-145795000D01*
X199379285Y-145723571D01*
X199593571Y-145723571D01*
X199736428Y-145795000D01*
X202450714Y-146723571D02*
X201950714Y-146009285D01*
X201593571Y-146723571D02*
X201593571Y-145223571D01*
X202165000Y-145223571D01*
X202307857Y-145295000D01*
X202379285Y-145366428D01*
X202450714Y-145509285D01*
X202450714Y-145723571D01*
X202379285Y-145866428D01*
X202307857Y-145937857D01*
X202165000Y-146009285D01*
X201593571Y-146009285D01*
X203307857Y-146723571D02*
X203165000Y-146652142D01*
X203093571Y-146580714D01*
X203022142Y-146437857D01*
X203022142Y-146009285D01*
X203093571Y-145866428D01*
X203165000Y-145795000D01*
X203307857Y-145723571D01*
X203522142Y-145723571D01*
X203665000Y-145795000D01*
X203736428Y-145866428D01*
X203807857Y-146009285D01*
X203807857Y-146437857D01*
X203736428Y-146580714D01*
X203665000Y-146652142D01*
X203522142Y-146723571D01*
X203307857Y-146723571D01*
X204307857Y-145723571D02*
X204665000Y-146723571D01*
X205022142Y-145723571D01*
X206165000Y-146652142D02*
X206022142Y-146723571D01*
X205736428Y-146723571D01*
X205593571Y-146652142D01*
X205522142Y-146509285D01*
X205522142Y-145937857D01*
X205593571Y-145795000D01*
X205736428Y-145723571D01*
X206022142Y-145723571D01*
X206165000Y-145795000D01*
X206236428Y-145937857D01*
X206236428Y-146080714D01*
X205522142Y-146223571D01*
X206879285Y-146723571D02*
X206879285Y-145723571D01*
X206879285Y-146009285D02*
X206950714Y-145866428D01*
X207022142Y-145795000D01*
X207165000Y-145723571D01*
X207307857Y-145723571D01*
X208950714Y-146723571D02*
X208950714Y-145223571D01*
X209307857Y-145223571D01*
X209522142Y-145295000D01*
X209665000Y-145437857D01*
X209736428Y-145580714D01*
X209807857Y-145866428D01*
X209807857Y-146080714D01*
X209736428Y-146366428D01*
X209665000Y-146509285D01*
X209522142Y-146652142D01*
X209307857Y-146723571D01*
X208950714Y-146723571D01*
X211022142Y-146652142D02*
X210879285Y-146723571D01*
X210593571Y-146723571D01*
X210450714Y-146652142D01*
X210379285Y-146509285D01*
X210379285Y-145937857D01*
X210450714Y-145795000D01*
X210593571Y-145723571D01*
X210879285Y-145723571D01*
X211022142Y-145795000D01*
X211093571Y-145937857D01*
X211093571Y-146080714D01*
X210379285Y-146223571D01*
X211665000Y-146652142D02*
X211807857Y-146723571D01*
X212093571Y-146723571D01*
X212236428Y-146652142D01*
X212307857Y-146509285D01*
X212307857Y-146437857D01*
X212236428Y-146295000D01*
X212093571Y-146223571D01*
X211879285Y-146223571D01*
X211736428Y-146152142D01*
X211665000Y-146009285D01*
X211665000Y-145937857D01*
X211736428Y-145795000D01*
X211879285Y-145723571D01*
X212093571Y-145723571D01*
X212236428Y-145795000D01*
X212950714Y-146723571D02*
X212950714Y-145723571D01*
X212950714Y-145223571D02*
X212879285Y-145295000D01*
X212950714Y-145366428D01*
X213022142Y-145295000D01*
X212950714Y-145223571D01*
X212950714Y-145366428D01*
X214307857Y-145723571D02*
X214307857Y-146937857D01*
X214236428Y-147080714D01*
X214165000Y-147152142D01*
X214022142Y-147223571D01*
X213807857Y-147223571D01*
X213665000Y-147152142D01*
X214307857Y-146652142D02*
X214165000Y-146723571D01*
X213879285Y-146723571D01*
X213736428Y-146652142D01*
X213665000Y-146580714D01*
X213593571Y-146437857D01*
X213593571Y-146009285D01*
X213665000Y-145866428D01*
X213736428Y-145795000D01*
X213879285Y-145723571D01*
X214165000Y-145723571D01*
X214307857Y-145795000D01*
X215022142Y-145723571D02*
X215022142Y-146723571D01*
X215022142Y-145866428D02*
X215093571Y-145795000D01*
X215236428Y-145723571D01*
X215450714Y-145723571D01*
X215593571Y-145795000D01*
X215665000Y-145937857D01*
X215665000Y-146723571D01*
X217307857Y-145223571D02*
X218165000Y-145223571D01*
X217736428Y-146723571D02*
X217736428Y-145223571D01*
X219236428Y-146652142D02*
X219093571Y-146723571D01*
X218807857Y-146723571D01*
X218665000Y-146652142D01*
X218593571Y-146509285D01*
X218593571Y-145937857D01*
X218665000Y-145795000D01*
X218807857Y-145723571D01*
X219093571Y-145723571D01*
X219236428Y-145795000D01*
X219307857Y-145937857D01*
X219307857Y-146080714D01*
X218593571Y-146223571D01*
X220593571Y-146723571D02*
X220593571Y-145937857D01*
X220522142Y-145795000D01*
X220379285Y-145723571D01*
X220093571Y-145723571D01*
X219950714Y-145795000D01*
X220593571Y-146652142D02*
X220450714Y-146723571D01*
X220093571Y-146723571D01*
X219950714Y-146652142D01*
X219879285Y-146509285D01*
X219879285Y-146366428D01*
X219950714Y-146223571D01*
X220093571Y-146152142D01*
X220450714Y-146152142D01*
X220593571Y-146080714D01*
X221307857Y-146723571D02*
X221307857Y-145723571D01*
X221307857Y-145866428D02*
X221379285Y-145795000D01*
X221522142Y-145723571D01*
X221736428Y-145723571D01*
X221879285Y-145795000D01*
X221950714Y-145937857D01*
X221950714Y-146723571D01*
X221950714Y-145937857D02*
X222022142Y-145795000D01*
X222165000Y-145723571D01*
X222379285Y-145723571D01*
X222522142Y-145795000D01*
X222593571Y-145937857D01*
X222593571Y-146723571D01*
X198093571Y-149273571D02*
X198093571Y-147773571D01*
X198593571Y-148845000D01*
X199093571Y-147773571D01*
X199093571Y-149273571D01*
X199807857Y-149273571D02*
X199807857Y-148273571D01*
X199807857Y-147773571D02*
X199736428Y-147845000D01*
X199807857Y-147916428D01*
X199879285Y-147845000D01*
X199807857Y-147773571D01*
X199807857Y-147916428D01*
X200450714Y-149202142D02*
X200593571Y-149273571D01*
X200879285Y-149273571D01*
X201022142Y-149202142D01*
X201093571Y-149059285D01*
X201093571Y-148987857D01*
X201022142Y-148845000D01*
X200879285Y-148773571D01*
X200665000Y-148773571D01*
X200522142Y-148702142D01*
X200450714Y-148559285D01*
X200450714Y-148487857D01*
X200522142Y-148345000D01*
X200665000Y-148273571D01*
X200879285Y-148273571D01*
X201022142Y-148345000D01*
X201665000Y-149202142D02*
X201807857Y-149273571D01*
X202093571Y-149273571D01*
X202236428Y-149202142D01*
X202307857Y-149059285D01*
X202307857Y-148987857D01*
X202236428Y-148845000D01*
X202093571Y-148773571D01*
X201879285Y-148773571D01*
X201736428Y-148702142D01*
X201665000Y-148559285D01*
X201665000Y-148487857D01*
X201736428Y-148345000D01*
X201879285Y-148273571D01*
X202093571Y-148273571D01*
X202236428Y-148345000D01*
X203165000Y-149273571D02*
X203022142Y-149202142D01*
X202950714Y-149130714D01*
X202879285Y-148987857D01*
X202879285Y-148559285D01*
X202950714Y-148416428D01*
X203022142Y-148345000D01*
X203165000Y-148273571D01*
X203379285Y-148273571D01*
X203522142Y-148345000D01*
X203593571Y-148416428D01*
X203665000Y-148559285D01*
X203665000Y-148987857D01*
X203593571Y-149130714D01*
X203522142Y-149202142D01*
X203379285Y-149273571D01*
X203165000Y-149273571D01*
X204950714Y-148273571D02*
X204950714Y-149273571D01*
X204307857Y-148273571D02*
X204307857Y-149059285D01*
X204379285Y-149202142D01*
X204522142Y-149273571D01*
X204736428Y-149273571D01*
X204879285Y-149202142D01*
X204950714Y-149130714D01*
X205665000Y-149273571D02*
X205665000Y-148273571D01*
X205665000Y-148559285D02*
X205736428Y-148416428D01*
X205807857Y-148345000D01*
X205950714Y-148273571D01*
X206093571Y-148273571D01*
X206593571Y-149273571D02*
X206593571Y-148273571D01*
X206593571Y-147773571D02*
X206522142Y-147845000D01*
X206593571Y-147916428D01*
X206665000Y-147845000D01*
X206593571Y-147773571D01*
X206593571Y-147916428D01*
X208379285Y-149202142D02*
X208593571Y-149273571D01*
X208950714Y-149273571D01*
X209093571Y-149202142D01*
X209165000Y-149130714D01*
X209236428Y-148987857D01*
X209236428Y-148845000D01*
X209165000Y-148702142D01*
X209093571Y-148630714D01*
X208950714Y-148559285D01*
X208665000Y-148487857D01*
X208522142Y-148416428D01*
X208450714Y-148345000D01*
X208379285Y-148202142D01*
X208379285Y-148059285D01*
X208450714Y-147916428D01*
X208522142Y-147845000D01*
X208665000Y-147773571D01*
X209022142Y-147773571D01*
X209236428Y-147845000D01*
X211093571Y-149273571D02*
X211022142Y-149273571D01*
X210879285Y-149202142D01*
X210665000Y-148987857D01*
X210307857Y-148559285D01*
X210165000Y-148345000D01*
X210093571Y-148130714D01*
X210093571Y-147987857D01*
X210165000Y-147845000D01*
X210307857Y-147773571D01*
X210379285Y-147773571D01*
X210522142Y-147845000D01*
X210593571Y-147987857D01*
X210593571Y-148059285D01*
X210522142Y-148202142D01*
X210450714Y-148273571D01*
X210022142Y-148559285D01*
X209950714Y-148630714D01*
X209879285Y-148773571D01*
X209879285Y-148987857D01*
X209950714Y-149130714D01*
X210022142Y-149202142D01*
X210165000Y-149273571D01*
X210379285Y-149273571D01*
X210522142Y-149202142D01*
X210593571Y-149130714D01*
X210807857Y-148845000D01*
X210879285Y-148630714D01*
X210879285Y-148487857D01*
X211522142Y-147773571D02*
X212379285Y-147773571D01*
X211950714Y-149273571D02*
X211950714Y-147773571D01*
X212950714Y-149202142D02*
X212950714Y-149273571D01*
X212879285Y-149416428D01*
X212807857Y-149487857D01*
X214665000Y-147916428D02*
X214736428Y-147845000D01*
X214879285Y-147773571D01*
X215236428Y-147773571D01*
X215379285Y-147845000D01*
X215450714Y-147916428D01*
X215522142Y-148059285D01*
X215522142Y-148202142D01*
X215450714Y-148416428D01*
X214593571Y-149273571D01*
X215522142Y-149273571D01*
X216450714Y-147773571D02*
X216593571Y-147773571D01*
X216736428Y-147845000D01*
X216807857Y-147916428D01*
X216879285Y-148059285D01*
X216950714Y-148345000D01*
X216950714Y-148702142D01*
X216879285Y-148987857D01*
X216807857Y-149130714D01*
X216736428Y-149202142D01*
X216593571Y-149273571D01*
X216450714Y-149273571D01*
X216307857Y-149202142D01*
X216236428Y-149130714D01*
X216165000Y-148987857D01*
X216093571Y-148702142D01*
X216093571Y-148345000D01*
X216165000Y-148059285D01*
X216236428Y-147916428D01*
X216307857Y-147845000D01*
X216450714Y-147773571D01*
X217522142Y-147916428D02*
X217593571Y-147845000D01*
X217736428Y-147773571D01*
X218093571Y-147773571D01*
X218236428Y-147845000D01*
X218307857Y-147916428D01*
X218379285Y-148059285D01*
X218379285Y-148202142D01*
X218307857Y-148416428D01*
X217450714Y-149273571D01*
X218379285Y-149273571D01*
X219807857Y-149273571D02*
X218950714Y-149273571D01*
X219379285Y-149273571D02*
X219379285Y-147773571D01*
X219236428Y-147987857D01*
X219093571Y-148130714D01*
X218950714Y-148202142D01*
X203129285Y-151752142D02*
X203343571Y-151823571D01*
X203700714Y-151823571D01*
X203843571Y-151752142D01*
X203915000Y-151680714D01*
X203986428Y-151537857D01*
X203986428Y-151395000D01*
X203915000Y-151252142D01*
X203843571Y-151180714D01*
X203700714Y-151109285D01*
X203415000Y-151037857D01*
X203272142Y-150966428D01*
X203200714Y-150895000D01*
X203129285Y-150752142D01*
X203129285Y-150609285D01*
X203200714Y-150466428D01*
X203272142Y-150395000D01*
X203415000Y-150323571D01*
X203772142Y-150323571D01*
X203986428Y-150395000D01*
X205272142Y-151823571D02*
X205272142Y-151037857D01*
X205200714Y-150895000D01*
X205057857Y-150823571D01*
X204772142Y-150823571D01*
X204629285Y-150895000D01*
X205272142Y-151752142D02*
X205129285Y-151823571D01*
X204772142Y-151823571D01*
X204629285Y-151752142D01*
X204557857Y-151609285D01*
X204557857Y-151466428D01*
X204629285Y-151323571D01*
X204772142Y-151252142D01*
X205129285Y-151252142D01*
X205272142Y-151180714D01*
X205986428Y-150823571D02*
X205986428Y-151823571D01*
X205986428Y-150966428D02*
X206057857Y-150895000D01*
X206200714Y-150823571D01*
X206415000Y-150823571D01*
X206557857Y-150895000D01*
X206629285Y-151037857D01*
X206629285Y-151823571D01*
X207129285Y-150823571D02*
X207700714Y-150823571D01*
X207343571Y-151823571D02*
X207343571Y-150537857D01*
X207415000Y-150395000D01*
X207557857Y-150323571D01*
X207700714Y-150323571D01*
X208843571Y-151823571D02*
X208843571Y-151037857D01*
X208772142Y-150895000D01*
X208629285Y-150823571D01*
X208343571Y-150823571D01*
X208200714Y-150895000D01*
X208843571Y-151752142D02*
X208700714Y-151823571D01*
X208343571Y-151823571D01*
X208200714Y-151752142D01*
X208129285Y-151609285D01*
X208129285Y-151466428D01*
X208200714Y-151323571D01*
X208343571Y-151252142D01*
X208700714Y-151252142D01*
X208843571Y-151180714D01*
X209557857Y-150823571D02*
X209557857Y-151823571D01*
X209557857Y-150966428D02*
X209629285Y-150895000D01*
X209772142Y-150823571D01*
X209986428Y-150823571D01*
X210129285Y-150895000D01*
X210200714Y-151037857D01*
X210200714Y-151823571D01*
X212772142Y-151823571D02*
X212057857Y-151823571D01*
X212057857Y-150323571D01*
X213272142Y-151823571D02*
X213272142Y-150823571D01*
X213272142Y-150323571D02*
X213200714Y-150395000D01*
X213272142Y-150466428D01*
X213343571Y-150395000D01*
X213272142Y-150323571D01*
X213272142Y-150466428D01*
X214629285Y-150823571D02*
X214629285Y-151823571D01*
X213986428Y-150823571D02*
X213986428Y-151609285D01*
X214057857Y-151752142D01*
X214200714Y-151823571D01*
X214415000Y-151823571D01*
X214557857Y-151752142D01*
X214629285Y-151680714D01*
D11*
X207010000Y-88900000D02*
X207010000Y-58420000D01*
X187325000Y-88900000D02*
X187325000Y-58420000D01*
X167640000Y-88900000D02*
X167640000Y-58420000D01*
X147955000Y-88900000D02*
X147955000Y-58420000D01*
X130175000Y-88900000D02*
X224155000Y-88900000D01*
X130175000Y-80645000D02*
X130175000Y-88900000D01*
X207010000Y-132080000D02*
X207010000Y-93980000D01*
X187325000Y-132080000D02*
X187325000Y-93980000D01*
X167640000Y-132080000D02*
X167640000Y-93980000D01*
X130175000Y-132080000D02*
X223520000Y-132080000D01*
X130175000Y-93980000D02*
X130175000Y-132080000D01*
X224155000Y-93980000D02*
X130175000Y-93980000D01*
X146685000Y-93980000D02*
X223520000Y-93980000D01*
X147955000Y-132080000D02*
X147955000Y-93980000D01*
D10*
X209593571Y-87839285D02*
X208093571Y-87839285D01*
X208093571Y-87482142D01*
X208165000Y-87267857D01*
X208307857Y-87125000D01*
X208450714Y-87053571D01*
X208736428Y-86982142D01*
X208950714Y-86982142D01*
X209236428Y-87053571D01*
X209379285Y-87125000D01*
X209522142Y-87267857D01*
X209593571Y-87482142D01*
X209593571Y-87839285D01*
X209593571Y-86339285D02*
X208593571Y-86339285D01*
X208879285Y-86339285D02*
X208736428Y-86267857D01*
X208665000Y-86196428D01*
X208593571Y-86053571D01*
X208593571Y-85910714D01*
X209593571Y-85410714D02*
X208593571Y-85410714D01*
X208093571Y-85410714D02*
X208165000Y-85482142D01*
X208236428Y-85410714D01*
X208165000Y-85339285D01*
X208093571Y-85410714D01*
X208236428Y-85410714D01*
X208593571Y-84839285D02*
X209593571Y-84482142D01*
X208593571Y-84125000D01*
X209522142Y-82982142D02*
X209593571Y-83125000D01*
X209593571Y-83410714D01*
X209522142Y-83553571D01*
X209379285Y-83625000D01*
X208807857Y-83625000D01*
X208665000Y-83553571D01*
X208593571Y-83410714D01*
X208593571Y-83125000D01*
X208665000Y-82982142D01*
X208807857Y-82910714D01*
X208950714Y-82910714D01*
X209093571Y-83625000D01*
X209450714Y-80267857D02*
X209522142Y-80339285D01*
X209593571Y-80553571D01*
X209593571Y-80696428D01*
X209522142Y-80910714D01*
X209379285Y-81053571D01*
X209236428Y-81125000D01*
X208950714Y-81196428D01*
X208736428Y-81196428D01*
X208450714Y-81125000D01*
X208307857Y-81053571D01*
X208165000Y-80910714D01*
X208093571Y-80696428D01*
X208093571Y-80553571D01*
X208165000Y-80339285D01*
X208236428Y-80267857D01*
X209593571Y-79410714D02*
X209522142Y-79553571D01*
X209450714Y-79625000D01*
X209307857Y-79696428D01*
X208879285Y-79696428D01*
X208736428Y-79625000D01*
X208665000Y-79553571D01*
X208593571Y-79410714D01*
X208593571Y-79196428D01*
X208665000Y-79053571D01*
X208736428Y-78982142D01*
X208879285Y-78910714D01*
X209307857Y-78910714D01*
X209450714Y-78982142D01*
X209522142Y-79053571D01*
X209593571Y-79196428D01*
X209593571Y-79410714D01*
X209593571Y-78267857D02*
X208593571Y-78267857D01*
X208736428Y-78267857D02*
X208665000Y-78196428D01*
X208593571Y-78053571D01*
X208593571Y-77839285D01*
X208665000Y-77696428D01*
X208807857Y-77625000D01*
X209593571Y-77625000D01*
X208807857Y-77625000D02*
X208665000Y-77553571D01*
X208593571Y-77410714D01*
X208593571Y-77196428D01*
X208665000Y-77053571D01*
X208807857Y-76982142D01*
X209593571Y-76982142D01*
X209593571Y-76267857D02*
X208593571Y-76267857D01*
X208736428Y-76267857D02*
X208665000Y-76196428D01*
X208593571Y-76053571D01*
X208593571Y-75839285D01*
X208665000Y-75696428D01*
X208807857Y-75625000D01*
X209593571Y-75625000D01*
X208807857Y-75625000D02*
X208665000Y-75553571D01*
X208593571Y-75410714D01*
X208593571Y-75196428D01*
X208665000Y-75053571D01*
X208807857Y-74982142D01*
X209593571Y-74982142D01*
X209593571Y-73625000D02*
X208807857Y-73625000D01*
X208665000Y-73696428D01*
X208593571Y-73839285D01*
X208593571Y-74125000D01*
X208665000Y-74267857D01*
X209522142Y-73625000D02*
X209593571Y-73767857D01*
X209593571Y-74125000D01*
X209522142Y-74267857D01*
X209379285Y-74339285D01*
X209236428Y-74339285D01*
X209093571Y-74267857D01*
X209022142Y-74125000D01*
X209022142Y-73767857D01*
X208950714Y-73625000D01*
X208593571Y-72910714D02*
X209593571Y-72910714D01*
X208736428Y-72910714D02*
X208665000Y-72839285D01*
X208593571Y-72696428D01*
X208593571Y-72482142D01*
X208665000Y-72339285D01*
X208807857Y-72267857D01*
X209593571Y-72267857D01*
X209593571Y-70910714D02*
X208093571Y-70910714D01*
X209522142Y-70910714D02*
X209593571Y-71053571D01*
X209593571Y-71339285D01*
X209522142Y-71482142D01*
X209450714Y-71553571D01*
X209307857Y-71625000D01*
X208879285Y-71625000D01*
X208736428Y-71553571D01*
X208665000Y-71482142D01*
X208593571Y-71339285D01*
X208593571Y-71053571D01*
X208665000Y-70910714D01*
X188480000Y-83359285D02*
X188408571Y-83502142D01*
X188408571Y-83716428D01*
X188480000Y-83930714D01*
X188622857Y-84073571D01*
X188765714Y-84145000D01*
X189051428Y-84216428D01*
X189265714Y-84216428D01*
X189551428Y-84145000D01*
X189694285Y-84073571D01*
X189837142Y-83930714D01*
X189908571Y-83716428D01*
X189908571Y-83573571D01*
X189837142Y-83359285D01*
X189765714Y-83287857D01*
X189265714Y-83287857D01*
X189265714Y-83573571D01*
X189908571Y-82645000D02*
X188908571Y-82645000D01*
X188408571Y-82645000D02*
X188480000Y-82716428D01*
X188551428Y-82645000D01*
X188480000Y-82573571D01*
X188408571Y-82645000D01*
X188551428Y-82645000D01*
X189908571Y-81930714D02*
X188908571Y-81930714D01*
X189051428Y-81930714D02*
X188980000Y-81859285D01*
X188908571Y-81716428D01*
X188908571Y-81502142D01*
X188980000Y-81359285D01*
X189122857Y-81287857D01*
X189908571Y-81287857D01*
X189122857Y-81287857D02*
X188980000Y-81216428D01*
X188908571Y-81073571D01*
X188908571Y-80859285D01*
X188980000Y-80716428D01*
X189122857Y-80645000D01*
X189908571Y-80645000D01*
X189908571Y-79930714D02*
X188408571Y-79930714D01*
X188980000Y-79930714D02*
X188908571Y-79787857D01*
X188908571Y-79502142D01*
X188980000Y-79359285D01*
X189051428Y-79287857D01*
X189194285Y-79216428D01*
X189622857Y-79216428D01*
X189765714Y-79287857D01*
X189837142Y-79359285D01*
X189908571Y-79502142D01*
X189908571Y-79787857D01*
X189837142Y-79930714D01*
X189908571Y-77930714D02*
X189122857Y-77930714D01*
X188980000Y-78002142D01*
X188908571Y-78145000D01*
X188908571Y-78430714D01*
X188980000Y-78573571D01*
X189837142Y-77930714D02*
X189908571Y-78073571D01*
X189908571Y-78430714D01*
X189837142Y-78573571D01*
X189694285Y-78645000D01*
X189551428Y-78645000D01*
X189408571Y-78573571D01*
X189337142Y-78430714D01*
X189337142Y-78073571D01*
X189265714Y-77930714D01*
X189908571Y-77002142D02*
X189837142Y-77145000D01*
X189694285Y-77216428D01*
X188408571Y-77216428D01*
X170223571Y-86994285D02*
X168723571Y-86994285D01*
X169795000Y-86494285D01*
X168723571Y-85994285D01*
X170223571Y-85994285D01*
X169223571Y-84637142D02*
X170223571Y-84637142D01*
X169223571Y-85280000D02*
X170009285Y-85280000D01*
X170152142Y-85208571D01*
X170223571Y-85065714D01*
X170223571Y-84851428D01*
X170152142Y-84708571D01*
X170080714Y-84637142D01*
X170223571Y-83708571D02*
X170152142Y-83851428D01*
X170009285Y-83922857D01*
X168723571Y-83922857D01*
X169223571Y-83351428D02*
X169223571Y-82780000D01*
X168723571Y-83137142D02*
X170009285Y-83137142D01*
X170152142Y-83065714D01*
X170223571Y-82922857D01*
X170223571Y-82780000D01*
X170223571Y-82280000D02*
X169223571Y-82280000D01*
X168723571Y-82280000D02*
X168795000Y-82351428D01*
X168866428Y-82280000D01*
X168795000Y-82208571D01*
X168723571Y-82280000D01*
X168866428Y-82280000D01*
X170223571Y-81565714D02*
X169223571Y-81565714D01*
X169366428Y-81565714D02*
X169295000Y-81494285D01*
X169223571Y-81351428D01*
X169223571Y-81137142D01*
X169295000Y-80994285D01*
X169437857Y-80922857D01*
X170223571Y-80922857D01*
X169437857Y-80922857D02*
X169295000Y-80851428D01*
X169223571Y-80708571D01*
X169223571Y-80494285D01*
X169295000Y-80351428D01*
X169437857Y-80280000D01*
X170223571Y-80280000D01*
X170152142Y-78994285D02*
X170223571Y-79137142D01*
X170223571Y-79422857D01*
X170152142Y-79565714D01*
X170009285Y-79637142D01*
X169437857Y-79637142D01*
X169295000Y-79565714D01*
X169223571Y-79422857D01*
X169223571Y-79137142D01*
X169295000Y-78994285D01*
X169437857Y-78922857D01*
X169580714Y-78922857D01*
X169723571Y-79637142D01*
X170223571Y-77637142D02*
X168723571Y-77637142D01*
X170152142Y-77637142D02*
X170223571Y-77780000D01*
X170223571Y-78065714D01*
X170152142Y-78208571D01*
X170080714Y-78280000D01*
X169937857Y-78351428D01*
X169509285Y-78351428D01*
X169366428Y-78280000D01*
X169295000Y-78208571D01*
X169223571Y-78065714D01*
X169223571Y-77780000D01*
X169295000Y-77637142D01*
X170223571Y-76922857D02*
X169223571Y-76922857D01*
X168723571Y-76922857D02*
X168795000Y-76994285D01*
X168866428Y-76922857D01*
X168795000Y-76851428D01*
X168723571Y-76922857D01*
X168866428Y-76922857D01*
X170223571Y-75565714D02*
X169437857Y-75565714D01*
X169295000Y-75637142D01*
X169223571Y-75780000D01*
X169223571Y-76065714D01*
X169295000Y-76208571D01*
X170152142Y-75565714D02*
X170223571Y-75708571D01*
X170223571Y-76065714D01*
X170152142Y-76208571D01*
X170009285Y-76280000D01*
X169866428Y-76280000D01*
X169723571Y-76208571D01*
X169652142Y-76065714D01*
X169652142Y-75708571D01*
X169580714Y-75565714D01*
X150538571Y-88366428D02*
X149038571Y-88366428D01*
X149038571Y-87795000D01*
X149110000Y-87652142D01*
X149181428Y-87580714D01*
X149324285Y-87509285D01*
X149538571Y-87509285D01*
X149681428Y-87580714D01*
X149752857Y-87652142D01*
X149824285Y-87795000D01*
X149824285Y-88366428D01*
X150538571Y-86223571D02*
X149752857Y-86223571D01*
X149610000Y-86295000D01*
X149538571Y-86437857D01*
X149538571Y-86723571D01*
X149610000Y-86866428D01*
X150467142Y-86223571D02*
X150538571Y-86366428D01*
X150538571Y-86723571D01*
X150467142Y-86866428D01*
X150324285Y-86937857D01*
X150181428Y-86937857D01*
X150038571Y-86866428D01*
X149967142Y-86723571D01*
X149967142Y-86366428D01*
X149895714Y-86223571D01*
X150467142Y-84866428D02*
X150538571Y-85009285D01*
X150538571Y-85295000D01*
X150467142Y-85437857D01*
X150395714Y-85509285D01*
X150252857Y-85580714D01*
X149824285Y-85580714D01*
X149681428Y-85509285D01*
X149610000Y-85437857D01*
X149538571Y-85295000D01*
X149538571Y-85009285D01*
X149610000Y-84866428D01*
X150538571Y-84223571D02*
X149038571Y-84223571D01*
X149967142Y-84080714D02*
X150538571Y-83652142D01*
X149538571Y-83652142D02*
X150110000Y-84223571D01*
X149038571Y-82080714D02*
X150538571Y-81580714D01*
X149038571Y-81080714D01*
X150538571Y-80366428D02*
X150467142Y-80509285D01*
X150395714Y-80580714D01*
X150252857Y-80652142D01*
X149824285Y-80652142D01*
X149681428Y-80580714D01*
X149610000Y-80509285D01*
X149538571Y-80366428D01*
X149538571Y-80152142D01*
X149610000Y-80009285D01*
X149681428Y-79937857D01*
X149824285Y-79866428D01*
X150252857Y-79866428D01*
X150395714Y-79937857D01*
X150467142Y-80009285D01*
X150538571Y-80152142D01*
X150538571Y-80366428D01*
X150538571Y-79009285D02*
X150467142Y-79152142D01*
X150324285Y-79223571D01*
X149038571Y-79223571D01*
X149538571Y-78652142D02*
X149538571Y-78080714D01*
X149038571Y-78437857D02*
X150324285Y-78437857D01*
X150467142Y-78366428D01*
X150538571Y-78223571D01*
X150538571Y-78080714D01*
X150538571Y-76937857D02*
X149752857Y-76937857D01*
X149610000Y-77009285D01*
X149538571Y-77152142D01*
X149538571Y-77437857D01*
X149610000Y-77580714D01*
X150467142Y-76937857D02*
X150538571Y-77080714D01*
X150538571Y-77437857D01*
X150467142Y-77580714D01*
X150324285Y-77652142D01*
X150181428Y-77652142D01*
X150038571Y-77580714D01*
X149967142Y-77437857D01*
X149967142Y-77080714D01*
X149895714Y-76937857D01*
X149538571Y-75580714D02*
X150752857Y-75580714D01*
X150895714Y-75652142D01*
X150967142Y-75723571D01*
X151038571Y-75866428D01*
X151038571Y-76080714D01*
X150967142Y-76223571D01*
X150467142Y-75580714D02*
X150538571Y-75723571D01*
X150538571Y-76009285D01*
X150467142Y-76152142D01*
X150395714Y-76223571D01*
X150252857Y-76295000D01*
X149824285Y-76295000D01*
X149681428Y-76223571D01*
X149610000Y-76152142D01*
X149538571Y-76009285D01*
X149538571Y-75723571D01*
X149610000Y-75580714D01*
X150467142Y-74295000D02*
X150538571Y-74437857D01*
X150538571Y-74723571D01*
X150467142Y-74866428D01*
X150324285Y-74937857D01*
X149752857Y-74937857D01*
X149610000Y-74866428D01*
X149538571Y-74723571D01*
X149538571Y-74437857D01*
X149610000Y-74295000D01*
X149752857Y-74223571D01*
X149895714Y-74223571D01*
X150038571Y-74937857D01*
X150538571Y-72437857D02*
X149038571Y-72437857D01*
X149038571Y-72080714D01*
X149110000Y-71866428D01*
X149252857Y-71723571D01*
X149395714Y-71652142D01*
X149681428Y-71580714D01*
X149895714Y-71580714D01*
X150181428Y-71652142D01*
X150324285Y-71723571D01*
X150467142Y-71866428D01*
X150538571Y-72080714D01*
X150538571Y-72437857D01*
X150538571Y-70937857D02*
X149538571Y-70937857D01*
X149038571Y-70937857D02*
X149110000Y-71009285D01*
X149181428Y-70937857D01*
X149110000Y-70866428D01*
X149038571Y-70937857D01*
X149181428Y-70937857D01*
X150467142Y-70295000D02*
X150538571Y-70152142D01*
X150538571Y-69866428D01*
X150467142Y-69723571D01*
X150324285Y-69652142D01*
X150252857Y-69652142D01*
X150110000Y-69723571D01*
X150038571Y-69866428D01*
X150038571Y-70080714D01*
X149967142Y-70223571D01*
X149824285Y-70295000D01*
X149752857Y-70295000D01*
X149610000Y-70223571D01*
X149538571Y-70080714D01*
X149538571Y-69866428D01*
X149610000Y-69723571D01*
X149538571Y-69223571D02*
X149538571Y-68652142D01*
X149038571Y-69009285D02*
X150324285Y-69009285D01*
X150467142Y-68937857D01*
X150538571Y-68795000D01*
X150538571Y-68652142D01*
X150538571Y-68152142D02*
X149538571Y-68152142D01*
X149824285Y-68152142D02*
X149681428Y-68080714D01*
X149610000Y-68009285D01*
X149538571Y-67866428D01*
X149538571Y-67723571D01*
X150538571Y-67223571D02*
X149538571Y-67223571D01*
X149038571Y-67223571D02*
X149110000Y-67295000D01*
X149181428Y-67223571D01*
X149110000Y-67152142D01*
X149038571Y-67223571D01*
X149181428Y-67223571D01*
X150538571Y-66509285D02*
X149038571Y-66509285D01*
X149610000Y-66509285D02*
X149538571Y-66366428D01*
X149538571Y-66080714D01*
X149610000Y-65937857D01*
X149681428Y-65866428D01*
X149824285Y-65795000D01*
X150252857Y-65795000D01*
X150395714Y-65866428D01*
X150467142Y-65937857D01*
X150538571Y-66080714D01*
X150538571Y-66366428D01*
X150467142Y-66509285D01*
X149538571Y-64509285D02*
X150538571Y-64509285D01*
X149538571Y-65152142D02*
X150324285Y-65152142D01*
X150467142Y-65080714D01*
X150538571Y-64937857D01*
X150538571Y-64723571D01*
X150467142Y-64580714D01*
X150395714Y-64509285D01*
X149538571Y-64009285D02*
X149538571Y-63437857D01*
X149038571Y-63795000D02*
X150324285Y-63795000D01*
X150467142Y-63723571D01*
X150538571Y-63580714D01*
X150538571Y-63437857D01*
X150538571Y-62937857D02*
X149538571Y-62937857D01*
X149038571Y-62937857D02*
X149110000Y-63009285D01*
X149181428Y-62937857D01*
X149110000Y-62866428D01*
X149038571Y-62937857D01*
X149181428Y-62937857D01*
X150538571Y-62009285D02*
X150467142Y-62152142D01*
X150395714Y-62223571D01*
X150252857Y-62295000D01*
X149824285Y-62295000D01*
X149681428Y-62223571D01*
X149610000Y-62152142D01*
X149538571Y-62009285D01*
X149538571Y-61795000D01*
X149610000Y-61652142D01*
X149681428Y-61580714D01*
X149824285Y-61509285D01*
X150252857Y-61509285D01*
X150395714Y-61580714D01*
X150467142Y-61652142D01*
X150538571Y-61795000D01*
X150538571Y-62009285D01*
X149538571Y-60866428D02*
X150538571Y-60866428D01*
X149681428Y-60866428D02*
X149610000Y-60795000D01*
X149538571Y-60652142D01*
X149538571Y-60437857D01*
X149610000Y-60295000D01*
X149752857Y-60223571D01*
X150538571Y-60223571D01*
X131972857Y-86842857D02*
X132044285Y-86628571D01*
X132115714Y-86557142D01*
X132258571Y-86485714D01*
X132472857Y-86485714D01*
X132615714Y-86557142D01*
X132687142Y-86628571D01*
X132758571Y-86771428D01*
X132758571Y-87342857D01*
X131258571Y-87342857D01*
X131258571Y-86842857D01*
X131330000Y-86700000D01*
X131401428Y-86628571D01*
X131544285Y-86557142D01*
X131687142Y-86557142D01*
X131830000Y-86628571D01*
X131901428Y-86700000D01*
X131972857Y-86842857D01*
X131972857Y-87342857D01*
X132758571Y-85200000D02*
X131972857Y-85200000D01*
X131830000Y-85271428D01*
X131758571Y-85414285D01*
X131758571Y-85700000D01*
X131830000Y-85842857D01*
X132687142Y-85200000D02*
X132758571Y-85342857D01*
X132758571Y-85700000D01*
X132687142Y-85842857D01*
X132544285Y-85914285D01*
X132401428Y-85914285D01*
X132258571Y-85842857D01*
X132187142Y-85700000D01*
X132187142Y-85342857D01*
X132115714Y-85200000D01*
X131758571Y-84700000D02*
X131758571Y-84128571D01*
X131258571Y-84485714D02*
X132544285Y-84485714D01*
X132687142Y-84414285D01*
X132758571Y-84271428D01*
X132758571Y-84128571D01*
X131758571Y-83842857D02*
X131758571Y-83271428D01*
X131258571Y-83628571D02*
X132544285Y-83628571D01*
X132687142Y-83557142D01*
X132758571Y-83414285D01*
X132758571Y-83271428D01*
X132687142Y-82200000D02*
X132758571Y-82342857D01*
X132758571Y-82628571D01*
X132687142Y-82771428D01*
X132544285Y-82842857D01*
X131972857Y-82842857D01*
X131830000Y-82771428D01*
X131758571Y-82628571D01*
X131758571Y-82342857D01*
X131830000Y-82200000D01*
X131972857Y-82128571D01*
X132115714Y-82128571D01*
X132258571Y-82842857D01*
X132758571Y-81485714D02*
X131758571Y-81485714D01*
X132044285Y-81485714D02*
X131901428Y-81414285D01*
X131830000Y-81342857D01*
X131758571Y-81200000D01*
X131758571Y-81057142D01*
X131758571Y-80700000D02*
X132758571Y-80342857D01*
X131758571Y-79985714D02*
X132758571Y-80342857D01*
X133115714Y-80485714D01*
X133187142Y-80557142D01*
X133258571Y-80700000D01*
X132758571Y-78271428D02*
X131258571Y-78271428D01*
X132330000Y-77771428D01*
X131258571Y-77271428D01*
X132758571Y-77271428D01*
X132758571Y-75914285D02*
X131972857Y-75914285D01*
X131830000Y-75985714D01*
X131758571Y-76128571D01*
X131758571Y-76414285D01*
X131830000Y-76557142D01*
X132687142Y-75914285D02*
X132758571Y-76057142D01*
X132758571Y-76414285D01*
X132687142Y-76557142D01*
X132544285Y-76628571D01*
X132401428Y-76628571D01*
X132258571Y-76557142D01*
X132187142Y-76414285D01*
X132187142Y-76057142D01*
X132115714Y-75914285D01*
X131758571Y-75200000D02*
X132758571Y-75200000D01*
X131901428Y-75200000D02*
X131830000Y-75128571D01*
X131758571Y-74985714D01*
X131758571Y-74771428D01*
X131830000Y-74628571D01*
X131972857Y-74557142D01*
X132758571Y-74557142D01*
X132758571Y-73200000D02*
X131972857Y-73200000D01*
X131830000Y-73271428D01*
X131758571Y-73414285D01*
X131758571Y-73700000D01*
X131830000Y-73842857D01*
X132687142Y-73200000D02*
X132758571Y-73342857D01*
X132758571Y-73700000D01*
X132687142Y-73842857D01*
X132544285Y-73914285D01*
X132401428Y-73914285D01*
X132258571Y-73842857D01*
X132187142Y-73700000D01*
X132187142Y-73342857D01*
X132115714Y-73200000D01*
X131758571Y-71842857D02*
X132972857Y-71842857D01*
X133115714Y-71914285D01*
X133187142Y-71985714D01*
X133258571Y-72128571D01*
X133258571Y-72342857D01*
X133187142Y-72485714D01*
X132687142Y-71842857D02*
X132758571Y-71985714D01*
X132758571Y-72271428D01*
X132687142Y-72414285D01*
X132615714Y-72485714D01*
X132472857Y-72557142D01*
X132044285Y-72557142D01*
X131901428Y-72485714D01*
X131830000Y-72414285D01*
X131758571Y-72271428D01*
X131758571Y-71985714D01*
X131830000Y-71842857D01*
X132687142Y-70557142D02*
X132758571Y-70700000D01*
X132758571Y-70985714D01*
X132687142Y-71128571D01*
X132544285Y-71200000D01*
X131972857Y-71200000D01*
X131830000Y-71128571D01*
X131758571Y-70985714D01*
X131758571Y-70700000D01*
X131830000Y-70557142D01*
X131972857Y-70485714D01*
X132115714Y-70485714D01*
X132258571Y-71200000D01*
X132758571Y-69842857D02*
X131758571Y-69842857D01*
X131901428Y-69842857D02*
X131830000Y-69771428D01*
X131758571Y-69628571D01*
X131758571Y-69414285D01*
X131830000Y-69271428D01*
X131972857Y-69200000D01*
X132758571Y-69200000D01*
X131972857Y-69200000D02*
X131830000Y-69128571D01*
X131758571Y-68985714D01*
X131758571Y-68771428D01*
X131830000Y-68628571D01*
X131972857Y-68557142D01*
X132758571Y-68557142D01*
X132687142Y-67271428D02*
X132758571Y-67414285D01*
X132758571Y-67700000D01*
X132687142Y-67842857D01*
X132544285Y-67914285D01*
X131972857Y-67914285D01*
X131830000Y-67842857D01*
X131758571Y-67700000D01*
X131758571Y-67414285D01*
X131830000Y-67271428D01*
X131972857Y-67200000D01*
X132115714Y-67200000D01*
X132258571Y-67914285D01*
X131758571Y-66557142D02*
X132758571Y-66557142D01*
X131901428Y-66557142D02*
X131830000Y-66485714D01*
X131758571Y-66342857D01*
X131758571Y-66128571D01*
X131830000Y-65985714D01*
X131972857Y-65914285D01*
X132758571Y-65914285D01*
X131758571Y-65414285D02*
X131758571Y-64842857D01*
X131258571Y-65200000D02*
X132544285Y-65200000D01*
X132687142Y-65128571D01*
X132758571Y-64985714D01*
X132758571Y-64842857D01*
X209165000Y-130106428D02*
X209165000Y-129392142D01*
X209593571Y-130249285D02*
X208093571Y-129749285D01*
X209593571Y-129249285D01*
X209593571Y-128749285D02*
X208593571Y-128749285D01*
X208879285Y-128749285D02*
X208736428Y-128677857D01*
X208665000Y-128606428D01*
X208593571Y-128463571D01*
X208593571Y-128320714D01*
X209593571Y-127820714D02*
X208593571Y-127820714D01*
X208736428Y-127820714D02*
X208665000Y-127749285D01*
X208593571Y-127606428D01*
X208593571Y-127392142D01*
X208665000Y-127249285D01*
X208807857Y-127177857D01*
X209593571Y-127177857D01*
X208807857Y-127177857D02*
X208665000Y-127106428D01*
X208593571Y-126963571D01*
X208593571Y-126749285D01*
X208665000Y-126606428D01*
X208807857Y-126535000D01*
X209593571Y-126535000D01*
X209165000Y-124749285D02*
X209165000Y-124035000D01*
X209593571Y-124892142D02*
X208093571Y-124392142D01*
X209593571Y-123892142D01*
X209593571Y-123392142D02*
X208593571Y-123392142D01*
X208879285Y-123392142D02*
X208736428Y-123320714D01*
X208665000Y-123249285D01*
X208593571Y-123106428D01*
X208593571Y-122963571D01*
X208593571Y-122677857D02*
X208593571Y-122106428D01*
X208093571Y-122463571D02*
X209379285Y-122463571D01*
X209522142Y-122392142D01*
X209593571Y-122249285D01*
X209593571Y-122106428D01*
X209593571Y-121606428D02*
X208593571Y-121606428D01*
X208093571Y-121606428D02*
X208165000Y-121677857D01*
X208236428Y-121606428D01*
X208165000Y-121535000D01*
X208093571Y-121606428D01*
X208236428Y-121606428D01*
X209522142Y-120249285D02*
X209593571Y-120392142D01*
X209593571Y-120677857D01*
X209522142Y-120820714D01*
X209450714Y-120892142D01*
X209307857Y-120963571D01*
X208879285Y-120963571D01*
X208736428Y-120892142D01*
X208665000Y-120820714D01*
X208593571Y-120677857D01*
X208593571Y-120392142D01*
X208665000Y-120249285D01*
X208593571Y-118963571D02*
X209593571Y-118963571D01*
X208593571Y-119606428D02*
X209379285Y-119606428D01*
X209522142Y-119535000D01*
X209593571Y-119392142D01*
X209593571Y-119177857D01*
X209522142Y-119035000D01*
X209450714Y-118963571D01*
X209593571Y-118035000D02*
X209522142Y-118177857D01*
X209379285Y-118249285D01*
X208093571Y-118249285D01*
X209593571Y-116820714D02*
X208807857Y-116820714D01*
X208665000Y-116892142D01*
X208593571Y-117035000D01*
X208593571Y-117320714D01*
X208665000Y-117463571D01*
X209522142Y-116820714D02*
X209593571Y-116963571D01*
X209593571Y-117320714D01*
X209522142Y-117463571D01*
X209379285Y-117535000D01*
X209236428Y-117535000D01*
X209093571Y-117463571D01*
X209022142Y-117320714D01*
X209022142Y-116963571D01*
X208950714Y-116820714D01*
X208593571Y-116320714D02*
X208593571Y-115749285D01*
X208093571Y-116106428D02*
X209379285Y-116106428D01*
X209522142Y-116035000D01*
X209593571Y-115892142D01*
X209593571Y-115749285D01*
X209593571Y-115249285D02*
X208593571Y-115249285D01*
X208093571Y-115249285D02*
X208165000Y-115320714D01*
X208236428Y-115249285D01*
X208165000Y-115177857D01*
X208093571Y-115249285D01*
X208236428Y-115249285D01*
X209593571Y-114320714D02*
X209522142Y-114463571D01*
X209450714Y-114535000D01*
X209307857Y-114606428D01*
X208879285Y-114606428D01*
X208736428Y-114535000D01*
X208665000Y-114463571D01*
X208593571Y-114320714D01*
X208593571Y-114106428D01*
X208665000Y-113963571D01*
X208736428Y-113892142D01*
X208879285Y-113820714D01*
X209307857Y-113820714D01*
X209450714Y-113892142D01*
X209522142Y-113963571D01*
X209593571Y-114106428D01*
X209593571Y-114320714D01*
X208593571Y-113177857D02*
X209593571Y-113177857D01*
X208736428Y-113177857D02*
X208665000Y-113106428D01*
X208593571Y-112963571D01*
X208593571Y-112749285D01*
X208665000Y-112606428D01*
X208807857Y-112535000D01*
X209593571Y-112535000D01*
X189837142Y-129677857D02*
X189908571Y-129463571D01*
X189908571Y-129106428D01*
X189837142Y-128963571D01*
X189765714Y-128892142D01*
X189622857Y-128820714D01*
X189480000Y-128820714D01*
X189337142Y-128892142D01*
X189265714Y-128963571D01*
X189194285Y-129106428D01*
X189122857Y-129392142D01*
X189051428Y-129535000D01*
X188980000Y-129606428D01*
X188837142Y-129677857D01*
X188694285Y-129677857D01*
X188551428Y-129606428D01*
X188480000Y-129535000D01*
X188408571Y-129392142D01*
X188408571Y-129035000D01*
X188480000Y-128820714D01*
X189837142Y-127535000D02*
X189908571Y-127677857D01*
X189908571Y-127963571D01*
X189837142Y-128106428D01*
X189765714Y-128177857D01*
X189622857Y-128249285D01*
X189194285Y-128249285D01*
X189051428Y-128177857D01*
X188980000Y-128106428D01*
X188908571Y-127963571D01*
X188908571Y-127677857D01*
X188980000Y-127535000D01*
X189908571Y-126892142D02*
X188908571Y-126892142D01*
X188408571Y-126892142D02*
X188480000Y-126963571D01*
X188551428Y-126892142D01*
X188480000Y-126820714D01*
X188408571Y-126892142D01*
X188551428Y-126892142D01*
X189837142Y-125606428D02*
X189908571Y-125749285D01*
X189908571Y-126035000D01*
X189837142Y-126177857D01*
X189694285Y-126249285D01*
X189122857Y-126249285D01*
X188980000Y-126177857D01*
X188908571Y-126035000D01*
X188908571Y-125749285D01*
X188980000Y-125606428D01*
X189122857Y-125535000D01*
X189265714Y-125535000D01*
X189408571Y-126249285D01*
X188908571Y-124892142D02*
X189908571Y-124892142D01*
X189051428Y-124892142D02*
X188980000Y-124820714D01*
X188908571Y-124677857D01*
X188908571Y-124463571D01*
X188980000Y-124320714D01*
X189122857Y-124249285D01*
X189908571Y-124249285D01*
X189837142Y-122892142D02*
X189908571Y-123035000D01*
X189908571Y-123320714D01*
X189837142Y-123463571D01*
X189765714Y-123535000D01*
X189622857Y-123606428D01*
X189194285Y-123606428D01*
X189051428Y-123535000D01*
X188980000Y-123463571D01*
X188908571Y-123320714D01*
X188908571Y-123035000D01*
X188980000Y-122892142D01*
X189837142Y-121677857D02*
X189908571Y-121820714D01*
X189908571Y-122106428D01*
X189837142Y-122249285D01*
X189694285Y-122320714D01*
X189122857Y-122320714D01*
X188980000Y-122249285D01*
X188908571Y-122106428D01*
X188908571Y-121820714D01*
X188980000Y-121677857D01*
X189122857Y-121606428D01*
X189265714Y-121606428D01*
X189408571Y-122320714D01*
X189837142Y-119892142D02*
X189908571Y-119677857D01*
X189908571Y-119320714D01*
X189837142Y-119177857D01*
X189765714Y-119106428D01*
X189622857Y-119035000D01*
X189480000Y-119035000D01*
X189337142Y-119106428D01*
X189265714Y-119177857D01*
X189194285Y-119320714D01*
X189122857Y-119606428D01*
X189051428Y-119749285D01*
X188980000Y-119820714D01*
X188837142Y-119892142D01*
X188694285Y-119892142D01*
X188551428Y-119820714D01*
X188480000Y-119749285D01*
X188408571Y-119606428D01*
X188408571Y-119249285D01*
X188480000Y-119035000D01*
X189837142Y-117820714D02*
X189908571Y-117963571D01*
X189908571Y-118249285D01*
X189837142Y-118392142D01*
X189694285Y-118463571D01*
X189122857Y-118463571D01*
X188980000Y-118392142D01*
X188908571Y-118249285D01*
X188908571Y-117963571D01*
X188980000Y-117820714D01*
X189122857Y-117749285D01*
X189265714Y-117749285D01*
X189408571Y-118463571D01*
X188908571Y-117106428D02*
X189908571Y-117106428D01*
X189051428Y-117106428D02*
X188980000Y-117035000D01*
X188908571Y-116892142D01*
X188908571Y-116677857D01*
X188980000Y-116535000D01*
X189122857Y-116463571D01*
X189908571Y-116463571D01*
X189837142Y-115820714D02*
X189908571Y-115677857D01*
X189908571Y-115392142D01*
X189837142Y-115249285D01*
X189694285Y-115177857D01*
X189622857Y-115177857D01*
X189480000Y-115249285D01*
X189408571Y-115392142D01*
X189408571Y-115606428D01*
X189337142Y-115749285D01*
X189194285Y-115820714D01*
X189122857Y-115820714D01*
X188980000Y-115749285D01*
X188908571Y-115606428D01*
X188908571Y-115392142D01*
X188980000Y-115249285D01*
X189908571Y-114320714D02*
X189837142Y-114463571D01*
X189765714Y-114535000D01*
X189622857Y-114606428D01*
X189194285Y-114606428D01*
X189051428Y-114535000D01*
X188980000Y-114463571D01*
X188908571Y-114320714D01*
X188908571Y-114106428D01*
X188980000Y-113963571D01*
X189051428Y-113892142D01*
X189194285Y-113820714D01*
X189622857Y-113820714D01*
X189765714Y-113892142D01*
X189837142Y-113963571D01*
X189908571Y-114106428D01*
X189908571Y-114320714D01*
X189908571Y-113177857D02*
X188908571Y-113177857D01*
X189194285Y-113177857D02*
X189051428Y-113106428D01*
X188980000Y-113035000D01*
X188908571Y-112892142D01*
X188908571Y-112749285D01*
X170152142Y-131741428D02*
X170223571Y-131527142D01*
X170223571Y-131170000D01*
X170152142Y-131027142D01*
X170080714Y-130955714D01*
X169937857Y-130884285D01*
X169795000Y-130884285D01*
X169652142Y-130955714D01*
X169580714Y-131027142D01*
X169509285Y-131170000D01*
X169437857Y-131455714D01*
X169366428Y-131598571D01*
X169295000Y-131670000D01*
X169152142Y-131741428D01*
X169009285Y-131741428D01*
X168866428Y-131670000D01*
X168795000Y-131598571D01*
X168723571Y-131455714D01*
X168723571Y-131098571D01*
X168795000Y-130884285D01*
X170152142Y-129598571D02*
X170223571Y-129741428D01*
X170223571Y-130027142D01*
X170152142Y-130170000D01*
X170080714Y-130241428D01*
X169937857Y-130312857D01*
X169509285Y-130312857D01*
X169366428Y-130241428D01*
X169295000Y-130170000D01*
X169223571Y-130027142D01*
X169223571Y-129741428D01*
X169295000Y-129598571D01*
X170223571Y-128955714D02*
X169223571Y-128955714D01*
X168723571Y-128955714D02*
X168795000Y-129027142D01*
X168866428Y-128955714D01*
X168795000Y-128884285D01*
X168723571Y-128955714D01*
X168866428Y-128955714D01*
X170152142Y-127670000D02*
X170223571Y-127812857D01*
X170223571Y-128098571D01*
X170152142Y-128241428D01*
X170009285Y-128312857D01*
X169437857Y-128312857D01*
X169295000Y-128241428D01*
X169223571Y-128098571D01*
X169223571Y-127812857D01*
X169295000Y-127670000D01*
X169437857Y-127598571D01*
X169580714Y-127598571D01*
X169723571Y-128312857D01*
X169223571Y-126955714D02*
X170223571Y-126955714D01*
X169366428Y-126955714D02*
X169295000Y-126884285D01*
X169223571Y-126741428D01*
X169223571Y-126527142D01*
X169295000Y-126384285D01*
X169437857Y-126312857D01*
X170223571Y-126312857D01*
X170152142Y-124955714D02*
X170223571Y-125098571D01*
X170223571Y-125384285D01*
X170152142Y-125527142D01*
X170080714Y-125598571D01*
X169937857Y-125670000D01*
X169509285Y-125670000D01*
X169366428Y-125598571D01*
X169295000Y-125527142D01*
X169223571Y-125384285D01*
X169223571Y-125098571D01*
X169295000Y-124955714D01*
X170152142Y-123741428D02*
X170223571Y-123884285D01*
X170223571Y-124170000D01*
X170152142Y-124312857D01*
X170009285Y-124384285D01*
X169437857Y-124384285D01*
X169295000Y-124312857D01*
X169223571Y-124170000D01*
X169223571Y-123884285D01*
X169295000Y-123741428D01*
X169437857Y-123670000D01*
X169580714Y-123670000D01*
X169723571Y-124384285D01*
X169795000Y-121955714D02*
X169795000Y-121241428D01*
X170223571Y-122098571D02*
X168723571Y-121598571D01*
X170223571Y-121098571D01*
X170152142Y-119955714D02*
X170223571Y-120098571D01*
X170223571Y-120384285D01*
X170152142Y-120527142D01*
X170080714Y-120598571D01*
X169937857Y-120670000D01*
X169509285Y-120670000D01*
X169366428Y-120598571D01*
X169295000Y-120527142D01*
X169223571Y-120384285D01*
X169223571Y-120098571D01*
X169295000Y-119955714D01*
X169223571Y-119527142D02*
X169223571Y-118955714D01*
X168723571Y-119312857D02*
X170009285Y-119312857D01*
X170152142Y-119241428D01*
X170223571Y-119098571D01*
X170223571Y-118955714D01*
X169223571Y-117812857D02*
X170223571Y-117812857D01*
X169223571Y-118455714D02*
X170009285Y-118455714D01*
X170152142Y-118384285D01*
X170223571Y-118241428D01*
X170223571Y-118027142D01*
X170152142Y-117884285D01*
X170080714Y-117812857D01*
X170223571Y-116455714D02*
X169437857Y-116455714D01*
X169295000Y-116527142D01*
X169223571Y-116670000D01*
X169223571Y-116955714D01*
X169295000Y-117098571D01*
X170152142Y-116455714D02*
X170223571Y-116598571D01*
X170223571Y-116955714D01*
X170152142Y-117098571D01*
X170009285Y-117170000D01*
X169866428Y-117170000D01*
X169723571Y-117098571D01*
X169652142Y-116955714D01*
X169652142Y-116598571D01*
X169580714Y-116455714D01*
X169223571Y-115955714D02*
X169223571Y-115384285D01*
X168723571Y-115741428D02*
X170009285Y-115741428D01*
X170152142Y-115670000D01*
X170223571Y-115527142D01*
X170223571Y-115384285D01*
X170223571Y-114884285D02*
X169223571Y-114884285D01*
X168723571Y-114884285D02*
X168795000Y-114955714D01*
X168866428Y-114884285D01*
X168795000Y-114812857D01*
X168723571Y-114884285D01*
X168866428Y-114884285D01*
X170223571Y-113955714D02*
X170152142Y-114098571D01*
X170080714Y-114170000D01*
X169937857Y-114241428D01*
X169509285Y-114241428D01*
X169366428Y-114170000D01*
X169295000Y-114098571D01*
X169223571Y-113955714D01*
X169223571Y-113741428D01*
X169295000Y-113598571D01*
X169366428Y-113527142D01*
X169509285Y-113455714D01*
X169937857Y-113455714D01*
X170080714Y-113527142D01*
X170152142Y-113598571D01*
X170223571Y-113741428D01*
X170223571Y-113955714D01*
X169223571Y-112812857D02*
X170223571Y-112812857D01*
X169366428Y-112812857D02*
X169295000Y-112741428D01*
X169223571Y-112598571D01*
X169223571Y-112384285D01*
X169295000Y-112241428D01*
X169437857Y-112170000D01*
X170223571Y-112170000D01*
X150538571Y-131265000D02*
X149038571Y-131265000D01*
X150538571Y-130407857D01*
X149038571Y-130407857D01*
X150538571Y-129050714D02*
X149752857Y-129050714D01*
X149610000Y-129122142D01*
X149538571Y-129265000D01*
X149538571Y-129550714D01*
X149610000Y-129693571D01*
X150467142Y-129050714D02*
X150538571Y-129193571D01*
X150538571Y-129550714D01*
X150467142Y-129693571D01*
X150324285Y-129765000D01*
X150181428Y-129765000D01*
X150038571Y-129693571D01*
X149967142Y-129550714D01*
X149967142Y-129193571D01*
X149895714Y-129050714D01*
X149538571Y-128479285D02*
X150538571Y-128122142D01*
X149538571Y-127765000D01*
X150538571Y-127193571D02*
X149538571Y-127193571D01*
X149038571Y-127193571D02*
X149110000Y-127265000D01*
X149181428Y-127193571D01*
X149110000Y-127122142D01*
X149038571Y-127193571D01*
X149181428Y-127193571D01*
X149538571Y-125836428D02*
X150752857Y-125836428D01*
X150895714Y-125907857D01*
X150967142Y-125979285D01*
X151038571Y-126122142D01*
X151038571Y-126336428D01*
X150967142Y-126479285D01*
X150467142Y-125836428D02*
X150538571Y-125979285D01*
X150538571Y-126265000D01*
X150467142Y-126407857D01*
X150395714Y-126479285D01*
X150252857Y-126550714D01*
X149824285Y-126550714D01*
X149681428Y-126479285D01*
X149610000Y-126407857D01*
X149538571Y-126265000D01*
X149538571Y-125979285D01*
X149610000Y-125836428D01*
X150538571Y-124479285D02*
X149752857Y-124479285D01*
X149610000Y-124550714D01*
X149538571Y-124693571D01*
X149538571Y-124979285D01*
X149610000Y-125122142D01*
X150467142Y-124479285D02*
X150538571Y-124622142D01*
X150538571Y-124979285D01*
X150467142Y-125122142D01*
X150324285Y-125193571D01*
X150181428Y-125193571D01*
X150038571Y-125122142D01*
X149967142Y-124979285D01*
X149967142Y-124622142D01*
X149895714Y-124479285D01*
X149538571Y-123979285D02*
X149538571Y-123407857D01*
X149038571Y-123765000D02*
X150324285Y-123765000D01*
X150467142Y-123693571D01*
X150538571Y-123550714D01*
X150538571Y-123407857D01*
X150538571Y-122907857D02*
X149538571Y-122907857D01*
X149038571Y-122907857D02*
X149110000Y-122979285D01*
X149181428Y-122907857D01*
X149110000Y-122836428D01*
X149038571Y-122907857D01*
X149181428Y-122907857D01*
X150538571Y-121979285D02*
X150467142Y-122122142D01*
X150395714Y-122193571D01*
X150252857Y-122265000D01*
X149824285Y-122265000D01*
X149681428Y-122193571D01*
X149610000Y-122122142D01*
X149538571Y-121979285D01*
X149538571Y-121765000D01*
X149610000Y-121622142D01*
X149681428Y-121550714D01*
X149824285Y-121479285D01*
X150252857Y-121479285D01*
X150395714Y-121550714D01*
X150467142Y-121622142D01*
X150538571Y-121765000D01*
X150538571Y-121979285D01*
X149538571Y-120836428D02*
X150538571Y-120836428D01*
X149681428Y-120836428D02*
X149610000Y-120765000D01*
X149538571Y-120622142D01*
X149538571Y-120407857D01*
X149610000Y-120265000D01*
X149752857Y-120193571D01*
X150538571Y-120193571D01*
X150538571Y-118836428D02*
X149752857Y-118836428D01*
X149610000Y-118907857D01*
X149538571Y-119050714D01*
X149538571Y-119336428D01*
X149610000Y-119479285D01*
X150467142Y-118836428D02*
X150538571Y-118979285D01*
X150538571Y-119336428D01*
X150467142Y-119479285D01*
X150324285Y-119550714D01*
X150181428Y-119550714D01*
X150038571Y-119479285D01*
X149967142Y-119336428D01*
X149967142Y-118979285D01*
X149895714Y-118836428D01*
X150538571Y-117907857D02*
X150467142Y-118050714D01*
X150324285Y-118122142D01*
X149038571Y-118122142D01*
X150395714Y-115336428D02*
X150467142Y-115407857D01*
X150538571Y-115622142D01*
X150538571Y-115765000D01*
X150467142Y-115979285D01*
X150324285Y-116122142D01*
X150181428Y-116193571D01*
X149895714Y-116265000D01*
X149681428Y-116265000D01*
X149395714Y-116193571D01*
X149252857Y-116122142D01*
X149110000Y-115979285D01*
X149038571Y-115765000D01*
X149038571Y-115622142D01*
X149110000Y-115407857D01*
X149181428Y-115336428D01*
X150538571Y-114479285D02*
X150467142Y-114622142D01*
X150395714Y-114693571D01*
X150252857Y-114765000D01*
X149824285Y-114765000D01*
X149681428Y-114693571D01*
X149610000Y-114622142D01*
X149538571Y-114479285D01*
X149538571Y-114265000D01*
X149610000Y-114122142D01*
X149681428Y-114050714D01*
X149824285Y-113979285D01*
X150252857Y-113979285D01*
X150395714Y-114050714D01*
X150467142Y-114122142D01*
X150538571Y-114265000D01*
X150538571Y-114479285D01*
X149538571Y-113336428D02*
X150538571Y-113336428D01*
X149681428Y-113336428D02*
X149610000Y-113265000D01*
X149538571Y-113122142D01*
X149538571Y-112907857D01*
X149610000Y-112765000D01*
X149752857Y-112693571D01*
X150538571Y-112693571D01*
X149538571Y-112193571D02*
X149538571Y-111622142D01*
X149038571Y-111979285D02*
X150324285Y-111979285D01*
X150467142Y-111907857D01*
X150538571Y-111765000D01*
X150538571Y-111622142D01*
X150538571Y-111122142D02*
X149538571Y-111122142D01*
X149824285Y-111122142D02*
X149681428Y-111050714D01*
X149610000Y-110979285D01*
X149538571Y-110836428D01*
X149538571Y-110693571D01*
X150538571Y-109979285D02*
X150467142Y-110122142D01*
X150395714Y-110193571D01*
X150252857Y-110265000D01*
X149824285Y-110265000D01*
X149681428Y-110193571D01*
X149610000Y-110122142D01*
X149538571Y-109979285D01*
X149538571Y-109765000D01*
X149610000Y-109622142D01*
X149681428Y-109550714D01*
X149824285Y-109479285D01*
X150252857Y-109479285D01*
X150395714Y-109550714D01*
X150467142Y-109622142D01*
X150538571Y-109765000D01*
X150538571Y-109979285D01*
X150538571Y-108622142D02*
X150467142Y-108765000D01*
X150324285Y-108836428D01*
X149038571Y-108836428D01*
X132758571Y-128614285D02*
X132758571Y-129471428D01*
X132758571Y-129042857D02*
X131258571Y-129042857D01*
X131472857Y-129185714D01*
X131615714Y-129328571D01*
X131687142Y-129471428D01*
X131401428Y-128042857D02*
X131330000Y-127971428D01*
X131258571Y-127828571D01*
X131258571Y-127471428D01*
X131330000Y-127328571D01*
X131401428Y-127257142D01*
X131544285Y-127185714D01*
X131687142Y-127185714D01*
X131901428Y-127257142D01*
X132758571Y-128114285D01*
X132758571Y-127185714D01*
X131258571Y-126757142D02*
X132758571Y-126257142D01*
X131258571Y-125757142D01*
X132758571Y-124114285D02*
X131258571Y-124114285D01*
X131258571Y-123757142D01*
X131330000Y-123542857D01*
X131472857Y-123400000D01*
X131615714Y-123328571D01*
X131901428Y-123257142D01*
X132115714Y-123257142D01*
X132401428Y-123328571D01*
X132544285Y-123400000D01*
X132687142Y-123542857D01*
X132758571Y-123757142D01*
X132758571Y-124114285D01*
X132758571Y-122614285D02*
X131758571Y-122614285D01*
X131258571Y-122614285D02*
X131330000Y-122685714D01*
X131401428Y-122614285D01*
X131330000Y-122542857D01*
X131258571Y-122614285D01*
X131401428Y-122614285D01*
X132687142Y-121971428D02*
X132758571Y-121828571D01*
X132758571Y-121542857D01*
X132687142Y-121400000D01*
X132544285Y-121328571D01*
X132472857Y-121328571D01*
X132330000Y-121400000D01*
X132258571Y-121542857D01*
X132258571Y-121757142D01*
X132187142Y-121900000D01*
X132044285Y-121971428D01*
X131972857Y-121971428D01*
X131830000Y-121900000D01*
X131758571Y-121757142D01*
X131758571Y-121542857D01*
X131830000Y-121400000D01*
X131758571Y-120900000D02*
X131758571Y-120328571D01*
X131258571Y-120685714D02*
X132544285Y-120685714D01*
X132687142Y-120614285D01*
X132758571Y-120471428D01*
X132758571Y-120328571D01*
X132758571Y-119828571D02*
X131758571Y-119828571D01*
X132044285Y-119828571D02*
X131901428Y-119757142D01*
X131830000Y-119685714D01*
X131758571Y-119542857D01*
X131758571Y-119400000D01*
X132758571Y-118900000D02*
X131758571Y-118900000D01*
X131258571Y-118900000D02*
X131330000Y-118971428D01*
X131401428Y-118900000D01*
X131330000Y-118828571D01*
X131258571Y-118900000D01*
X131401428Y-118900000D01*
X132758571Y-118185714D02*
X131258571Y-118185714D01*
X131830000Y-118185714D02*
X131758571Y-118042857D01*
X131758571Y-117757142D01*
X131830000Y-117614285D01*
X131901428Y-117542857D01*
X132044285Y-117471428D01*
X132472857Y-117471428D01*
X132615714Y-117542857D01*
X132687142Y-117614285D01*
X132758571Y-117757142D01*
X132758571Y-118042857D01*
X132687142Y-118185714D01*
X131758571Y-116185714D02*
X132758571Y-116185714D01*
X131758571Y-116828571D02*
X132544285Y-116828571D01*
X132687142Y-116757142D01*
X132758571Y-116614285D01*
X132758571Y-116400000D01*
X132687142Y-116257142D01*
X132615714Y-116185714D01*
X131758571Y-115685714D02*
X131758571Y-115114285D01*
X131258571Y-115471428D02*
X132544285Y-115471428D01*
X132687142Y-115400000D01*
X132758571Y-115257142D01*
X132758571Y-115114285D01*
X132758571Y-114614285D02*
X131758571Y-114614285D01*
X131258571Y-114614285D02*
X131330000Y-114685714D01*
X131401428Y-114614285D01*
X131330000Y-114542857D01*
X131258571Y-114614285D01*
X131401428Y-114614285D01*
X132758571Y-113685714D02*
X132687142Y-113828571D01*
X132615714Y-113900000D01*
X132472857Y-113971428D01*
X132044285Y-113971428D01*
X131901428Y-113900000D01*
X131830000Y-113828571D01*
X131758571Y-113685714D01*
X131758571Y-113471428D01*
X131830000Y-113328571D01*
X131901428Y-113257142D01*
X132044285Y-113185714D01*
X132472857Y-113185714D01*
X132615714Y-113257142D01*
X132687142Y-113328571D01*
X132758571Y-113471428D01*
X132758571Y-113685714D01*
X131758571Y-112542857D02*
X132758571Y-112542857D01*
X131901428Y-112542857D02*
X131830000Y-112471428D01*
X131758571Y-112328571D01*
X131758571Y-112114285D01*
X131830000Y-111971428D01*
X131972857Y-111900000D01*
X132758571Y-111900000D01*
D12*
X219527380Y-88177619D02*
X219051190Y-88510952D01*
X219527380Y-88749047D02*
X218527380Y-88749047D01*
X218527380Y-88368095D01*
X218575000Y-88272857D01*
X218622619Y-88225238D01*
X218717857Y-88177619D01*
X218860714Y-88177619D01*
X218955952Y-88225238D01*
X219003571Y-88272857D01*
X219051190Y-88368095D01*
X219051190Y-88749047D01*
X219479761Y-87368095D02*
X219527380Y-87463333D01*
X219527380Y-87653809D01*
X219479761Y-87749047D01*
X219384523Y-87796666D01*
X219003571Y-87796666D01*
X218908333Y-87749047D01*
X218860714Y-87653809D01*
X218860714Y-87463333D01*
X218908333Y-87368095D01*
X219003571Y-87320476D01*
X219098809Y-87320476D01*
X219194047Y-87796666D01*
X219479761Y-86463333D02*
X219527380Y-86558571D01*
X219527380Y-86749047D01*
X219479761Y-86844285D01*
X219432142Y-86891904D01*
X219336904Y-86939523D01*
X219051190Y-86939523D01*
X218955952Y-86891904D01*
X218908333Y-86844285D01*
X218860714Y-86749047D01*
X218860714Y-86558571D01*
X218908333Y-86463333D01*
X199842380Y-88177619D02*
X199366190Y-88510952D01*
X199842380Y-88749047D02*
X198842380Y-88749047D01*
X198842380Y-88368095D01*
X198890000Y-88272857D01*
X198937619Y-88225238D01*
X199032857Y-88177619D01*
X199175714Y-88177619D01*
X199270952Y-88225238D01*
X199318571Y-88272857D01*
X199366190Y-88368095D01*
X199366190Y-88749047D01*
X199794761Y-87368095D02*
X199842380Y-87463333D01*
X199842380Y-87653809D01*
X199794761Y-87749047D01*
X199699523Y-87796666D01*
X199318571Y-87796666D01*
X199223333Y-87749047D01*
X199175714Y-87653809D01*
X199175714Y-87463333D01*
X199223333Y-87368095D01*
X199318571Y-87320476D01*
X199413809Y-87320476D01*
X199509047Y-87796666D01*
X199794761Y-86463333D02*
X199842380Y-86558571D01*
X199842380Y-86749047D01*
X199794761Y-86844285D01*
X199747142Y-86891904D01*
X199651904Y-86939523D01*
X199366190Y-86939523D01*
X199270952Y-86891904D01*
X199223333Y-86844285D01*
X199175714Y-86749047D01*
X199175714Y-86558571D01*
X199223333Y-86463333D01*
X180157380Y-88177619D02*
X179681190Y-88510952D01*
X180157380Y-88749047D02*
X179157380Y-88749047D01*
X179157380Y-88368095D01*
X179205000Y-88272857D01*
X179252619Y-88225238D01*
X179347857Y-88177619D01*
X179490714Y-88177619D01*
X179585952Y-88225238D01*
X179633571Y-88272857D01*
X179681190Y-88368095D01*
X179681190Y-88749047D01*
X180109761Y-87368095D02*
X180157380Y-87463333D01*
X180157380Y-87653809D01*
X180109761Y-87749047D01*
X180014523Y-87796666D01*
X179633571Y-87796666D01*
X179538333Y-87749047D01*
X179490714Y-87653809D01*
X179490714Y-87463333D01*
X179538333Y-87368095D01*
X179633571Y-87320476D01*
X179728809Y-87320476D01*
X179824047Y-87796666D01*
X180109761Y-86463333D02*
X180157380Y-86558571D01*
X180157380Y-86749047D01*
X180109761Y-86844285D01*
X180062142Y-86891904D01*
X179966904Y-86939523D01*
X179681190Y-86939523D01*
X179585952Y-86891904D01*
X179538333Y-86844285D01*
X179490714Y-86749047D01*
X179490714Y-86558571D01*
X179538333Y-86463333D01*
X160472380Y-88177619D02*
X159996190Y-88510952D01*
X160472380Y-88749047D02*
X159472380Y-88749047D01*
X159472380Y-88368095D01*
X159520000Y-88272857D01*
X159567619Y-88225238D01*
X159662857Y-88177619D01*
X159805714Y-88177619D01*
X159900952Y-88225238D01*
X159948571Y-88272857D01*
X159996190Y-88368095D01*
X159996190Y-88749047D01*
X160424761Y-87368095D02*
X160472380Y-87463333D01*
X160472380Y-87653809D01*
X160424761Y-87749047D01*
X160329523Y-87796666D01*
X159948571Y-87796666D01*
X159853333Y-87749047D01*
X159805714Y-87653809D01*
X159805714Y-87463333D01*
X159853333Y-87368095D01*
X159948571Y-87320476D01*
X160043809Y-87320476D01*
X160139047Y-87796666D01*
X160424761Y-86463333D02*
X160472380Y-86558571D01*
X160472380Y-86749047D01*
X160424761Y-86844285D01*
X160377142Y-86891904D01*
X160281904Y-86939523D01*
X159996190Y-86939523D01*
X159900952Y-86891904D01*
X159853333Y-86844285D01*
X159805714Y-86749047D01*
X159805714Y-86558571D01*
X159853333Y-86463333D01*
X142692380Y-88177619D02*
X142216190Y-88510952D01*
X142692380Y-88749047D02*
X141692380Y-88749047D01*
X141692380Y-88368095D01*
X141740000Y-88272857D01*
X141787619Y-88225238D01*
X141882857Y-88177619D01*
X142025714Y-88177619D01*
X142120952Y-88225238D01*
X142168571Y-88272857D01*
X142216190Y-88368095D01*
X142216190Y-88749047D01*
X142644761Y-87368095D02*
X142692380Y-87463333D01*
X142692380Y-87653809D01*
X142644761Y-87749047D01*
X142549523Y-87796666D01*
X142168571Y-87796666D01*
X142073333Y-87749047D01*
X142025714Y-87653809D01*
X142025714Y-87463333D01*
X142073333Y-87368095D01*
X142168571Y-87320476D01*
X142263809Y-87320476D01*
X142359047Y-87796666D01*
X142644761Y-86463333D02*
X142692380Y-86558571D01*
X142692380Y-86749047D01*
X142644761Y-86844285D01*
X142597142Y-86891904D01*
X142501904Y-86939523D01*
X142216190Y-86939523D01*
X142120952Y-86891904D01*
X142073333Y-86844285D01*
X142025714Y-86749047D01*
X142025714Y-86558571D01*
X142073333Y-86463333D01*
X219527380Y-126912619D02*
X219051190Y-127245952D01*
X219527380Y-127484047D02*
X218527380Y-127484047D01*
X218527380Y-127103095D01*
X218575000Y-127007857D01*
X218622619Y-126960238D01*
X218717857Y-126912619D01*
X218860714Y-126912619D01*
X218955952Y-126960238D01*
X219003571Y-127007857D01*
X219051190Y-127103095D01*
X219051190Y-127484047D01*
X219479761Y-126103095D02*
X219527380Y-126198333D01*
X219527380Y-126388809D01*
X219479761Y-126484047D01*
X219384523Y-126531666D01*
X219003571Y-126531666D01*
X218908333Y-126484047D01*
X218860714Y-126388809D01*
X218860714Y-126198333D01*
X218908333Y-126103095D01*
X219003571Y-126055476D01*
X219098809Y-126055476D01*
X219194047Y-126531666D01*
X219479761Y-125198333D02*
X219527380Y-125293571D01*
X219527380Y-125484047D01*
X219479761Y-125579285D01*
X219432142Y-125626904D01*
X219336904Y-125674523D01*
X219051190Y-125674523D01*
X218955952Y-125626904D01*
X218908333Y-125579285D01*
X218860714Y-125484047D01*
X218860714Y-125293571D01*
X218908333Y-125198333D01*
X199842380Y-126912619D02*
X199366190Y-127245952D01*
X199842380Y-127484047D02*
X198842380Y-127484047D01*
X198842380Y-127103095D01*
X198890000Y-127007857D01*
X198937619Y-126960238D01*
X199032857Y-126912619D01*
X199175714Y-126912619D01*
X199270952Y-126960238D01*
X199318571Y-127007857D01*
X199366190Y-127103095D01*
X199366190Y-127484047D01*
X199794761Y-126103095D02*
X199842380Y-126198333D01*
X199842380Y-126388809D01*
X199794761Y-126484047D01*
X199699523Y-126531666D01*
X199318571Y-126531666D01*
X199223333Y-126484047D01*
X199175714Y-126388809D01*
X199175714Y-126198333D01*
X199223333Y-126103095D01*
X199318571Y-126055476D01*
X199413809Y-126055476D01*
X199509047Y-126531666D01*
X199794761Y-125198333D02*
X199842380Y-125293571D01*
X199842380Y-125484047D01*
X199794761Y-125579285D01*
X199747142Y-125626904D01*
X199651904Y-125674523D01*
X199366190Y-125674523D01*
X199270952Y-125626904D01*
X199223333Y-125579285D01*
X199175714Y-125484047D01*
X199175714Y-125293571D01*
X199223333Y-125198333D01*
X180157380Y-126912619D02*
X179681190Y-127245952D01*
X180157380Y-127484047D02*
X179157380Y-127484047D01*
X179157380Y-127103095D01*
X179205000Y-127007857D01*
X179252619Y-126960238D01*
X179347857Y-126912619D01*
X179490714Y-126912619D01*
X179585952Y-126960238D01*
X179633571Y-127007857D01*
X179681190Y-127103095D01*
X179681190Y-127484047D01*
X180109761Y-126103095D02*
X180157380Y-126198333D01*
X180157380Y-126388809D01*
X180109761Y-126484047D01*
X180014523Y-126531666D01*
X179633571Y-126531666D01*
X179538333Y-126484047D01*
X179490714Y-126388809D01*
X179490714Y-126198333D01*
X179538333Y-126103095D01*
X179633571Y-126055476D01*
X179728809Y-126055476D01*
X179824047Y-126531666D01*
X180109761Y-125198333D02*
X180157380Y-125293571D01*
X180157380Y-125484047D01*
X180109761Y-125579285D01*
X180062142Y-125626904D01*
X179966904Y-125674523D01*
X179681190Y-125674523D01*
X179585952Y-125626904D01*
X179538333Y-125579285D01*
X179490714Y-125484047D01*
X179490714Y-125293571D01*
X179538333Y-125198333D01*
X160472380Y-126912619D02*
X159996190Y-127245952D01*
X160472380Y-127484047D02*
X159472380Y-127484047D01*
X159472380Y-127103095D01*
X159520000Y-127007857D01*
X159567619Y-126960238D01*
X159662857Y-126912619D01*
X159805714Y-126912619D01*
X159900952Y-126960238D01*
X159948571Y-127007857D01*
X159996190Y-127103095D01*
X159996190Y-127484047D01*
X160424761Y-126103095D02*
X160472380Y-126198333D01*
X160472380Y-126388809D01*
X160424761Y-126484047D01*
X160329523Y-126531666D01*
X159948571Y-126531666D01*
X159853333Y-126484047D01*
X159805714Y-126388809D01*
X159805714Y-126198333D01*
X159853333Y-126103095D01*
X159948571Y-126055476D01*
X160043809Y-126055476D01*
X160139047Y-126531666D01*
X160424761Y-125198333D02*
X160472380Y-125293571D01*
X160472380Y-125484047D01*
X160424761Y-125579285D01*
X160377142Y-125626904D01*
X160281904Y-125674523D01*
X159996190Y-125674523D01*
X159900952Y-125626904D01*
X159853333Y-125579285D01*
X159805714Y-125484047D01*
X159805714Y-125293571D01*
X159853333Y-125198333D01*
X142692380Y-126912619D02*
X142216190Y-127245952D01*
X142692380Y-127484047D02*
X141692380Y-127484047D01*
X141692380Y-127103095D01*
X141740000Y-127007857D01*
X141787619Y-126960238D01*
X141882857Y-126912619D01*
X142025714Y-126912619D01*
X142120952Y-126960238D01*
X142168571Y-127007857D01*
X142216190Y-127103095D01*
X142216190Y-127484047D01*
X142644761Y-126103095D02*
X142692380Y-126198333D01*
X142692380Y-126388809D01*
X142644761Y-126484047D01*
X142549523Y-126531666D01*
X142168571Y-126531666D01*
X142073333Y-126484047D01*
X142025714Y-126388809D01*
X142025714Y-126198333D01*
X142073333Y-126103095D01*
X142168571Y-126055476D01*
X142263809Y-126055476D01*
X142359047Y-126531666D01*
X142644761Y-125198333D02*
X142692380Y-125293571D01*
X142692380Y-125484047D01*
X142644761Y-125579285D01*
X142597142Y-125626904D01*
X142501904Y-125674523D01*
X142216190Y-125674523D01*
X142120952Y-125626904D01*
X142073333Y-125579285D01*
X142025714Y-125484047D01*
X142025714Y-125293571D01*
X142073333Y-125198333D01*
X136612380Y-88249047D02*
X136612380Y-88058571D01*
X136660000Y-87963333D01*
X136755238Y-87868095D01*
X136945714Y-87820476D01*
X137279047Y-87820476D01*
X137469523Y-87868095D01*
X137564761Y-87963333D01*
X137612380Y-88058571D01*
X137612380Y-88249047D01*
X137564761Y-88344285D01*
X137469523Y-88439523D01*
X137279047Y-88487142D01*
X136945714Y-88487142D01*
X136755238Y-88439523D01*
X136660000Y-88344285D01*
X136612380Y-88249047D01*
X137612380Y-87391904D02*
X136612380Y-87391904D01*
X137612380Y-86820476D01*
X136612380Y-86820476D01*
X154392380Y-88249047D02*
X154392380Y-88058571D01*
X154440000Y-87963333D01*
X154535238Y-87868095D01*
X154725714Y-87820476D01*
X155059047Y-87820476D01*
X155249523Y-87868095D01*
X155344761Y-87963333D01*
X155392380Y-88058571D01*
X155392380Y-88249047D01*
X155344761Y-88344285D01*
X155249523Y-88439523D01*
X155059047Y-88487142D01*
X154725714Y-88487142D01*
X154535238Y-88439523D01*
X154440000Y-88344285D01*
X154392380Y-88249047D01*
X155392380Y-87391904D02*
X154392380Y-87391904D01*
X155392380Y-86820476D01*
X154392380Y-86820476D01*
X174712380Y-88249047D02*
X174712380Y-88058571D01*
X174760000Y-87963333D01*
X174855238Y-87868095D01*
X175045714Y-87820476D01*
X175379047Y-87820476D01*
X175569523Y-87868095D01*
X175664761Y-87963333D01*
X175712380Y-88058571D01*
X175712380Y-88249047D01*
X175664761Y-88344285D01*
X175569523Y-88439523D01*
X175379047Y-88487142D01*
X175045714Y-88487142D01*
X174855238Y-88439523D01*
X174760000Y-88344285D01*
X174712380Y-88249047D01*
X175712380Y-87391904D02*
X174712380Y-87391904D01*
X175712380Y-86820476D01*
X174712380Y-86820476D01*
X193762380Y-88249047D02*
X193762380Y-88058571D01*
X193810000Y-87963333D01*
X193905238Y-87868095D01*
X194095714Y-87820476D01*
X194429047Y-87820476D01*
X194619523Y-87868095D01*
X194714761Y-87963333D01*
X194762380Y-88058571D01*
X194762380Y-88249047D01*
X194714761Y-88344285D01*
X194619523Y-88439523D01*
X194429047Y-88487142D01*
X194095714Y-88487142D01*
X193905238Y-88439523D01*
X193810000Y-88344285D01*
X193762380Y-88249047D01*
X194762380Y-87391904D02*
X193762380Y-87391904D01*
X194762380Y-86820476D01*
X193762380Y-86820476D01*
X213447380Y-88249047D02*
X213447380Y-88058571D01*
X213495000Y-87963333D01*
X213590238Y-87868095D01*
X213780714Y-87820476D01*
X214114047Y-87820476D01*
X214304523Y-87868095D01*
X214399761Y-87963333D01*
X214447380Y-88058571D01*
X214447380Y-88249047D01*
X214399761Y-88344285D01*
X214304523Y-88439523D01*
X214114047Y-88487142D01*
X213780714Y-88487142D01*
X213590238Y-88439523D01*
X213495000Y-88344285D01*
X213447380Y-88249047D01*
X214447380Y-87391904D02*
X213447380Y-87391904D01*
X214447380Y-86820476D01*
X213447380Y-86820476D01*
X213447380Y-126984047D02*
X213447380Y-126793571D01*
X213495000Y-126698333D01*
X213590238Y-126603095D01*
X213780714Y-126555476D01*
X214114047Y-126555476D01*
X214304523Y-126603095D01*
X214399761Y-126698333D01*
X214447380Y-126793571D01*
X214447380Y-126984047D01*
X214399761Y-127079285D01*
X214304523Y-127174523D01*
X214114047Y-127222142D01*
X213780714Y-127222142D01*
X213590238Y-127174523D01*
X213495000Y-127079285D01*
X213447380Y-126984047D01*
X214447380Y-126126904D02*
X213447380Y-126126904D01*
X214447380Y-125555476D01*
X213447380Y-125555476D01*
X193762380Y-126984047D02*
X193762380Y-126793571D01*
X193810000Y-126698333D01*
X193905238Y-126603095D01*
X194095714Y-126555476D01*
X194429047Y-126555476D01*
X194619523Y-126603095D01*
X194714761Y-126698333D01*
X194762380Y-126793571D01*
X194762380Y-126984047D01*
X194714761Y-127079285D01*
X194619523Y-127174523D01*
X194429047Y-127222142D01*
X194095714Y-127222142D01*
X193905238Y-127174523D01*
X193810000Y-127079285D01*
X193762380Y-126984047D01*
X194762380Y-126126904D02*
X193762380Y-126126904D01*
X194762380Y-125555476D01*
X193762380Y-125555476D01*
X174077380Y-126984047D02*
X174077380Y-126793571D01*
X174125000Y-126698333D01*
X174220238Y-126603095D01*
X174410714Y-126555476D01*
X174744047Y-126555476D01*
X174934523Y-126603095D01*
X175029761Y-126698333D01*
X175077380Y-126793571D01*
X175077380Y-126984047D01*
X175029761Y-127079285D01*
X174934523Y-127174523D01*
X174744047Y-127222142D01*
X174410714Y-127222142D01*
X174220238Y-127174523D01*
X174125000Y-127079285D01*
X174077380Y-126984047D01*
X175077380Y-126126904D02*
X174077380Y-126126904D01*
X175077380Y-125555476D01*
X174077380Y-125555476D01*
X154392380Y-126984047D02*
X154392380Y-126793571D01*
X154440000Y-126698333D01*
X154535238Y-126603095D01*
X154725714Y-126555476D01*
X155059047Y-126555476D01*
X155249523Y-126603095D01*
X155344761Y-126698333D01*
X155392380Y-126793571D01*
X155392380Y-126984047D01*
X155344761Y-127079285D01*
X155249523Y-127174523D01*
X155059047Y-127222142D01*
X154725714Y-127222142D01*
X154535238Y-127174523D01*
X154440000Y-127079285D01*
X154392380Y-126984047D01*
X155392380Y-126126904D02*
X154392380Y-126126904D01*
X155392380Y-125555476D01*
X154392380Y-125555476D01*
X136612380Y-126984047D02*
X136612380Y-126793571D01*
X136660000Y-126698333D01*
X136755238Y-126603095D01*
X136945714Y-126555476D01*
X137279047Y-126555476D01*
X137469523Y-126603095D01*
X137564761Y-126698333D01*
X137612380Y-126793571D01*
X137612380Y-126984047D01*
X137564761Y-127079285D01*
X137469523Y-127174523D01*
X137279047Y-127222142D01*
X136945714Y-127222142D01*
X136755238Y-127174523D01*
X136660000Y-127079285D01*
X136612380Y-126984047D01*
X137612380Y-126126904D02*
X136612380Y-126126904D01*
X137612380Y-125555476D01*
X136612380Y-125555476D01*
D13*
G04 #@! TO.C,C1*
X116428733Y-89025000D02*
X116771267Y-89025000D01*
X116428733Y-90045000D02*
X116771267Y-90045000D01*
G04 #@! TO.C,J2*
X190740000Y-111460000D02*
X190740000Y-99160000D01*
X195320000Y-99160000D02*
X198460000Y-99160000D01*
X203040000Y-99160000D02*
X203040000Y-111460000D01*
X193460000Y-111460000D02*
X190740000Y-111460000D01*
X201509050Y-105210000D02*
G75*
G03X201509050Y-105210000I-4579050J0D01*
G01*
X203040000Y-111460000D02*
X200320000Y-111460000D01*
X198460000Y-111460000D02*
X195320000Y-111460000D01*
X200320000Y-99160000D02*
X203040000Y-99160000D01*
X190740000Y-99160000D02*
X193460000Y-99160000D01*
G04 #@! TO.C,J3*
X171055000Y-111460000D02*
X171055000Y-99160000D01*
X175635000Y-99160000D02*
X178775000Y-99160000D01*
X183355000Y-99160000D02*
X183355000Y-111460000D01*
X173775000Y-111460000D02*
X171055000Y-111460000D01*
X181824050Y-105210000D02*
G75*
G03X181824050Y-105210000I-4579050J0D01*
G01*
X183355000Y-111460000D02*
X180635000Y-111460000D01*
X178775000Y-111460000D02*
X175635000Y-111460000D01*
X180635000Y-99160000D02*
X183355000Y-99160000D01*
X171055000Y-99160000D02*
X173775000Y-99160000D01*
G04 #@! TO.C,J4*
X190740000Y-62330000D02*
X193460000Y-62330000D01*
X200320000Y-62330000D02*
X203040000Y-62330000D01*
X198460000Y-74630000D02*
X195320000Y-74630000D01*
X203040000Y-74630000D02*
X200320000Y-74630000D01*
X201509050Y-68380000D02*
G75*
G03X201509050Y-68380000I-4579050J0D01*
G01*
X193460000Y-74630000D02*
X190740000Y-74630000D01*
X203040000Y-62330000D02*
X203040000Y-74630000D01*
X195320000Y-62330000D02*
X198460000Y-62330000D01*
X190740000Y-74630000D02*
X190740000Y-62330000D01*
G04 #@! TO.C,J5*
X210425000Y-62330000D02*
X213145000Y-62330000D01*
X220005000Y-62330000D02*
X222725000Y-62330000D01*
X218145000Y-74630000D02*
X215005000Y-74630000D01*
X222725000Y-74630000D02*
X220005000Y-74630000D01*
X221194050Y-68380000D02*
G75*
G03X221194050Y-68380000I-4579050J0D01*
G01*
X213145000Y-74630000D02*
X210425000Y-74630000D01*
X222725000Y-62330000D02*
X222725000Y-74630000D01*
X215005000Y-62330000D02*
X218145000Y-62330000D01*
X210425000Y-74630000D02*
X210425000Y-62330000D01*
G04 #@! TO.C,J6*
X151290000Y-99160000D02*
X154010000Y-99160000D01*
X160870000Y-99160000D02*
X163590000Y-99160000D01*
X159010000Y-111460000D02*
X155870000Y-111460000D01*
X163590000Y-111460000D02*
X160870000Y-111460000D01*
X162059050Y-105210000D02*
G75*
G03X162059050Y-105210000I-4579050J0D01*
G01*
X154010000Y-111460000D02*
X151290000Y-111460000D01*
X163590000Y-99160000D02*
X163590000Y-111460000D01*
X155870000Y-99160000D02*
X159010000Y-99160000D01*
X151290000Y-111460000D02*
X151290000Y-99160000D01*
G04 #@! TO.C,J7*
X133510000Y-111460000D02*
X133510000Y-99160000D01*
X138090000Y-99160000D02*
X141230000Y-99160000D01*
X145810000Y-99160000D02*
X145810000Y-111460000D01*
X136230000Y-111460000D02*
X133510000Y-111460000D01*
X144279050Y-105210000D02*
G75*
G03X144279050Y-105210000I-4579050J0D01*
G01*
X145810000Y-111460000D02*
X143090000Y-111460000D01*
X141230000Y-111460000D02*
X138090000Y-111460000D01*
X143090000Y-99160000D02*
X145810000Y-99160000D01*
X133510000Y-99160000D02*
X136230000Y-99160000D01*
G04 #@! TO.C,J8*
X133590000Y-62130000D02*
X136310000Y-62130000D01*
X143170000Y-62130000D02*
X145890000Y-62130000D01*
X141310000Y-74430000D02*
X138170000Y-74430000D01*
X145890000Y-74430000D02*
X143170000Y-74430000D01*
X144359050Y-68180000D02*
G75*
G03X144359050Y-68180000I-4579050J0D01*
G01*
X136310000Y-74430000D02*
X133590000Y-74430000D01*
X145890000Y-62130000D02*
X145890000Y-74430000D01*
X138170000Y-62130000D02*
X141310000Y-62130000D01*
X133590000Y-74430000D02*
X133590000Y-62130000D01*
G04 #@! TO.C,J9*
X151370000Y-74430000D02*
X151370000Y-62130000D01*
X155950000Y-62130000D02*
X159090000Y-62130000D01*
X163670000Y-62130000D02*
X163670000Y-74430000D01*
X154090000Y-74430000D02*
X151370000Y-74430000D01*
X162139050Y-68180000D02*
G75*
G03X162139050Y-68180000I-4579050J0D01*
G01*
X163670000Y-74430000D02*
X160950000Y-74430000D01*
X159090000Y-74430000D02*
X155950000Y-74430000D01*
X160950000Y-62130000D02*
X163670000Y-62130000D01*
X151370000Y-62130000D02*
X154090000Y-62130000D01*
G04 #@! TO.C,J10*
X171055000Y-62330000D02*
X173775000Y-62330000D01*
X180635000Y-62330000D02*
X183355000Y-62330000D01*
X178775000Y-74630000D02*
X175635000Y-74630000D01*
X183355000Y-74630000D02*
X180635000Y-74630000D01*
X181824050Y-68380000D02*
G75*
G03X181824050Y-68380000I-4579050J0D01*
G01*
X173775000Y-74630000D02*
X171055000Y-74630000D01*
X183355000Y-62330000D02*
X183355000Y-74630000D01*
X175635000Y-62330000D02*
X178775000Y-62330000D01*
X171055000Y-74630000D02*
X171055000Y-62330000D01*
G04 #@! TO.C,R2*
X218565000Y-117886267D02*
X218565000Y-117543733D01*
X219585000Y-117886267D02*
X219585000Y-117543733D01*
G04 #@! TO.C,R1*
X213485000Y-117886267D02*
X213485000Y-117543733D01*
X214505000Y-117886267D02*
X214505000Y-117543733D01*
G04 #@! TO.C,R5*
X198880000Y-117886267D02*
X198880000Y-117543733D01*
X199900000Y-117886267D02*
X199900000Y-117543733D01*
G04 #@! TO.C,R3*
X193800000Y-117886267D02*
X193800000Y-117543733D01*
X194820000Y-117886267D02*
X194820000Y-117543733D01*
G04 #@! TO.C,R7*
X179195000Y-117886267D02*
X179195000Y-117543733D01*
X180215000Y-117886267D02*
X180215000Y-117543733D01*
G04 #@! TO.C,R4*
X175135000Y-117886267D02*
X175135000Y-117543733D01*
X174115000Y-117886267D02*
X174115000Y-117543733D01*
G04 #@! TO.C,R10*
X198880000Y-79786267D02*
X198880000Y-79443733D01*
X199900000Y-79786267D02*
X199900000Y-79443733D01*
G04 #@! TO.C,R6*
X194820000Y-79786267D02*
X194820000Y-79443733D01*
X193800000Y-79786267D02*
X193800000Y-79443733D01*
G04 #@! TO.C,R12*
X219585000Y-79786267D02*
X219585000Y-79443733D01*
X218565000Y-79786267D02*
X218565000Y-79443733D01*
G04 #@! TO.C,R8*
X214505000Y-79786267D02*
X214505000Y-79443733D01*
X213485000Y-79786267D02*
X213485000Y-79443733D01*
G04 #@! TO.C,R15*
X159510000Y-117886267D02*
X159510000Y-117543733D01*
X160530000Y-117886267D02*
X160530000Y-117543733D01*
G04 #@! TO.C,R9*
X155450000Y-117886267D02*
X155450000Y-117543733D01*
X154430000Y-117886267D02*
X154430000Y-117543733D01*
G04 #@! TO.C,R17*
X142750000Y-117886267D02*
X142750000Y-117543733D01*
X141730000Y-117886267D02*
X141730000Y-117543733D01*
G04 #@! TO.C,R11*
X137670000Y-117886267D02*
X137670000Y-117543733D01*
X136650000Y-117886267D02*
X136650000Y-117543733D01*
G04 #@! TO.C,R18*
X141730000Y-79786267D02*
X141730000Y-79443733D01*
X142750000Y-79786267D02*
X142750000Y-79443733D01*
G04 #@! TO.C,R13*
X137670000Y-79786267D02*
X137670000Y-79443733D01*
X136650000Y-79786267D02*
X136650000Y-79443733D01*
G04 #@! TO.C,R19*
X160530000Y-79786267D02*
X160530000Y-79443733D01*
X159510000Y-79786267D02*
X159510000Y-79443733D01*
G04 #@! TO.C,R14*
X154430000Y-79786267D02*
X154430000Y-79443733D01*
X155450000Y-79786267D02*
X155450000Y-79443733D01*
G04 #@! TO.C,R20*
X179195000Y-79786267D02*
X179195000Y-79443733D01*
X180215000Y-79786267D02*
X180215000Y-79443733D01*
G04 #@! TO.C,R16*
X174750000Y-79786267D02*
X174750000Y-79443733D01*
X175770000Y-79786267D02*
X175770000Y-79443733D01*
G04 #@! TO.C,J1*
X210345000Y-111660000D02*
X210345000Y-99360000D01*
X214925000Y-99360000D02*
X218065000Y-99360000D01*
X222645000Y-99360000D02*
X222645000Y-111660000D01*
X213065000Y-111660000D02*
X210345000Y-111660000D01*
X221114050Y-105410000D02*
G75*
G03X221114050Y-105410000I-4579050J0D01*
G01*
X222645000Y-111660000D02*
X219925000Y-111660000D01*
X218065000Y-111660000D02*
X214925000Y-111660000D01*
X219925000Y-99360000D02*
X222645000Y-99360000D01*
X210345000Y-99360000D02*
X213065000Y-99360000D01*
D14*
G04 #@! TO.C,Conn1*
X109067000Y-106934000D02*
X116967000Y-106934000D01*
X109067000Y-114834000D02*
X116967000Y-114834000D01*
X116967000Y-113284000D02*
X117475000Y-113284000D01*
X117475000Y-108712000D02*
X116967000Y-108712000D01*
X117475000Y-113284000D02*
X117475000Y-108712000D01*
X115316000Y-106934000D02*
X115316000Y-106426000D01*
X115316000Y-106426000D02*
X110744000Y-106426000D01*
X110744000Y-106426000D02*
X110744000Y-106934000D01*
X116967000Y-106934000D02*
X116967000Y-114834000D01*
X109575600Y-113284000D02*
X109575600Y-108712000D01*
X109067000Y-106934000D02*
X109067000Y-114834000D01*
X109575600Y-108712000D02*
X109067600Y-108712000D01*
X109067600Y-113284000D02*
X109575600Y-113284000D01*
X107439000Y-106934000D02*
X107439000Y-106426000D01*
X101167000Y-114834000D02*
X109067000Y-114834000D01*
X107439000Y-106426000D02*
X102867000Y-106426000D01*
X102867000Y-106426000D02*
X102867000Y-106934000D01*
X101675000Y-108712000D02*
X101167000Y-108712000D01*
X101167000Y-113284000D02*
X101675000Y-113284000D01*
X101167000Y-106934000D02*
X109067000Y-106934000D01*
X101167000Y-106934000D02*
X101167000Y-114834000D01*
X101675000Y-113284000D02*
X101675000Y-108712000D01*
G04 #@! TO.C,U1*
X198120000Y-137160000D02*
X198120000Y-132080000D01*
X198120000Y-132080000D02*
X223520000Y-132080000D01*
X223520000Y-132080000D02*
X223520000Y-137160000D01*
X223520000Y-137160000D02*
X198120000Y-137160000D01*
X198120000Y-93980000D02*
X198120000Y-88900000D01*
X198120000Y-88900000D02*
X223520000Y-88900000D01*
X223520000Y-88900000D02*
X223520000Y-93980000D01*
X223520000Y-93980000D02*
X198120000Y-93980000D01*
X134620000Y-132080000D02*
X160020000Y-132080000D01*
X160020000Y-93980000D02*
X134620000Y-93980000D01*
X134620000Y-137160000D02*
X134620000Y-132080000D01*
X160020000Y-132080000D02*
X160020000Y-137160000D01*
X160020000Y-137160000D02*
X134620000Y-137160000D01*
X134620000Y-93980000D02*
X134620000Y-88900000D01*
X134620000Y-88900000D02*
X160020000Y-88900000D01*
X160020000Y-88900000D02*
X160020000Y-93980000D01*
D13*
G04 #@! TO.C,C2*
X116273733Y-95375000D02*
X116616267Y-95375000D01*
X116273733Y-96395000D02*
X116616267Y-96395000D01*
G04 #@! TO.C,D1*
X213260000Y-121995000D02*
X213260000Y-124455000D01*
X213260000Y-124455000D02*
X214730000Y-124455000D01*
X214730000Y-124455000D02*
X214730000Y-121995000D01*
G04 #@! TO.C,D2*
X219810000Y-124455000D02*
X219810000Y-121995000D01*
X218340000Y-124455000D02*
X219810000Y-124455000D01*
X218340000Y-121995000D02*
X218340000Y-124455000D01*
G04 #@! TO.C,D3*
X195045000Y-124455000D02*
X195045000Y-121995000D01*
X193575000Y-124455000D02*
X195045000Y-124455000D01*
X193575000Y-121995000D02*
X193575000Y-124455000D01*
G04 #@! TO.C,D4*
X173890000Y-121995000D02*
X173890000Y-124455000D01*
X173890000Y-124455000D02*
X175360000Y-124455000D01*
X175360000Y-124455000D02*
X175360000Y-121995000D01*
G04 #@! TO.C,D5*
X200125000Y-124455000D02*
X200125000Y-121995000D01*
X198655000Y-124455000D02*
X200125000Y-124455000D01*
X198655000Y-121995000D02*
X198655000Y-124455000D01*
G04 #@! TO.C,D6*
X195045000Y-85720000D02*
X195045000Y-83260000D01*
X193575000Y-85720000D02*
X195045000Y-85720000D01*
X193575000Y-83260000D02*
X193575000Y-85720000D01*
G04 #@! TO.C,D7*
X180440000Y-124455000D02*
X180440000Y-121995000D01*
X178970000Y-124455000D02*
X180440000Y-124455000D01*
X178970000Y-121995000D02*
X178970000Y-124455000D01*
G04 #@! TO.C,D8*
X213260000Y-83260000D02*
X213260000Y-85720000D01*
X213260000Y-85720000D02*
X214730000Y-85720000D01*
X214730000Y-85720000D02*
X214730000Y-83260000D01*
G04 #@! TO.C,D9*
X155675000Y-124455000D02*
X155675000Y-121995000D01*
X154205000Y-124455000D02*
X155675000Y-124455000D01*
X154205000Y-121995000D02*
X154205000Y-124455000D01*
G04 #@! TO.C,D10*
X200125000Y-85720000D02*
X200125000Y-83260000D01*
X198655000Y-85720000D02*
X200125000Y-85720000D01*
X198655000Y-83260000D02*
X198655000Y-85720000D01*
G04 #@! TO.C,D11*
X137895000Y-124455000D02*
X137895000Y-121995000D01*
X136425000Y-124455000D02*
X137895000Y-124455000D01*
X136425000Y-121995000D02*
X136425000Y-124455000D01*
G04 #@! TO.C,D12*
X219810000Y-85720000D02*
X219810000Y-83260000D01*
X218340000Y-85720000D02*
X219810000Y-85720000D01*
X218340000Y-83260000D02*
X218340000Y-85720000D01*
G04 #@! TO.C,D13*
X136425000Y-83260000D02*
X136425000Y-85720000D01*
X136425000Y-85720000D02*
X137895000Y-85720000D01*
X137895000Y-85720000D02*
X137895000Y-83260000D01*
G04 #@! TO.C,D14*
X155675000Y-85720000D02*
X155675000Y-83260000D01*
X154205000Y-85720000D02*
X155675000Y-85720000D01*
X154205000Y-83260000D02*
X154205000Y-85720000D01*
G04 #@! TO.C,D15*
X159285000Y-121995000D02*
X159285000Y-124455000D01*
X159285000Y-124455000D02*
X160755000Y-124455000D01*
X160755000Y-124455000D02*
X160755000Y-121995000D01*
G04 #@! TO.C,D16*
X174525000Y-83260000D02*
X174525000Y-85720000D01*
X174525000Y-85720000D02*
X175995000Y-85720000D01*
X175995000Y-85720000D02*
X175995000Y-83260000D01*
G04 #@! TO.C,D17*
X141505000Y-121995000D02*
X141505000Y-124455000D01*
X141505000Y-124455000D02*
X142975000Y-124455000D01*
X142975000Y-124455000D02*
X142975000Y-121995000D01*
G04 #@! TO.C,D18*
X141505000Y-83260000D02*
X141505000Y-85720000D01*
X141505000Y-85720000D02*
X142975000Y-85720000D01*
X142975000Y-85720000D02*
X142975000Y-83260000D01*
G04 #@! TO.C,D19*
X159285000Y-83260000D02*
X159285000Y-85720000D01*
X159285000Y-85720000D02*
X160755000Y-85720000D01*
X160755000Y-85720000D02*
X160755000Y-83260000D01*
G04 #@! TO.C,D20*
X178970000Y-83260000D02*
X178970000Y-85720000D01*
X178970000Y-85720000D02*
X180440000Y-85720000D01*
X180440000Y-85720000D02*
X180440000Y-83260000D01*
G04 #@! TO.C,D21*
X115645000Y-100430000D02*
X118105000Y-100430000D01*
X118105000Y-100430000D02*
X118105000Y-98960000D01*
X118105000Y-98960000D02*
X115645000Y-98960000D01*
G04 #@! TO.C,R21*
X122331267Y-100205000D02*
X121988733Y-100205000D01*
X122331267Y-99185000D02*
X121988733Y-99185000D01*
G04 #@! TO.C,C1*
D14*
X116433333Y-91797142D02*
X116385714Y-91844761D01*
X116242857Y-91892380D01*
X116147619Y-91892380D01*
X116004761Y-91844761D01*
X115909523Y-91749523D01*
X115861904Y-91654285D01*
X115814285Y-91463809D01*
X115814285Y-91320952D01*
X115861904Y-91130476D01*
X115909523Y-91035238D01*
X116004761Y-90940000D01*
X116147619Y-90892380D01*
X116242857Y-90892380D01*
X116385714Y-90940000D01*
X116433333Y-90987619D01*
X117385714Y-91892380D02*
X116814285Y-91892380D01*
X117100000Y-91892380D02*
X117100000Y-90892380D01*
X117004761Y-91035238D01*
X116909523Y-91130476D01*
X116814285Y-91178095D01*
G04 #@! TO.C,J2*
X189182380Y-105813333D02*
X189896666Y-105813333D01*
X190039523Y-105860952D01*
X190134761Y-105956190D01*
X190182380Y-106099047D01*
X190182380Y-106194285D01*
X189277619Y-105384761D02*
X189230000Y-105337142D01*
X189182380Y-105241904D01*
X189182380Y-105003809D01*
X189230000Y-104908571D01*
X189277619Y-104860952D01*
X189372857Y-104813333D01*
X189468095Y-104813333D01*
X189610952Y-104860952D01*
X190182380Y-105432380D01*
X190182380Y-104813333D01*
G04 #@! TO.C,J3*
X169497380Y-105813333D02*
X170211666Y-105813333D01*
X170354523Y-105860952D01*
X170449761Y-105956190D01*
X170497380Y-106099047D01*
X170497380Y-106194285D01*
X169497380Y-105432380D02*
X169497380Y-104813333D01*
X169878333Y-105146666D01*
X169878333Y-105003809D01*
X169925952Y-104908571D01*
X169973571Y-104860952D01*
X170068809Y-104813333D01*
X170306904Y-104813333D01*
X170402142Y-104860952D01*
X170449761Y-104908571D01*
X170497380Y-105003809D01*
X170497380Y-105289523D01*
X170449761Y-105384761D01*
X170402142Y-105432380D01*
G04 #@! TO.C,J4*
X190801666Y-59142380D02*
X190801666Y-59856666D01*
X190754047Y-59999523D01*
X190658809Y-60094761D01*
X190515952Y-60142380D01*
X190420714Y-60142380D01*
X191706428Y-59475714D02*
X191706428Y-60142380D01*
X191468333Y-59094761D02*
X191230238Y-59809047D01*
X191849285Y-59809047D01*
G04 #@! TO.C,J5*
X211121666Y-59142380D02*
X211121666Y-59856666D01*
X211074047Y-59999523D01*
X210978809Y-60094761D01*
X210835952Y-60142380D01*
X210740714Y-60142380D01*
X212074047Y-59142380D02*
X211597857Y-59142380D01*
X211550238Y-59618571D01*
X211597857Y-59570952D01*
X211693095Y-59523333D01*
X211931190Y-59523333D01*
X212026428Y-59570952D01*
X212074047Y-59618571D01*
X212121666Y-59713809D01*
X212121666Y-59951904D01*
X212074047Y-60047142D01*
X212026428Y-60094761D01*
X211931190Y-60142380D01*
X211693095Y-60142380D01*
X211597857Y-60094761D01*
X211550238Y-60047142D01*
G04 #@! TO.C,J6*
X149732380Y-105813333D02*
X150446666Y-105813333D01*
X150589523Y-105860952D01*
X150684761Y-105956190D01*
X150732380Y-106099047D01*
X150732380Y-106194285D01*
X149732380Y-104908571D02*
X149732380Y-105099047D01*
X149780000Y-105194285D01*
X149827619Y-105241904D01*
X149970476Y-105337142D01*
X150160952Y-105384761D01*
X150541904Y-105384761D01*
X150637142Y-105337142D01*
X150684761Y-105289523D01*
X150732380Y-105194285D01*
X150732380Y-105003809D01*
X150684761Y-104908571D01*
X150637142Y-104860952D01*
X150541904Y-104813333D01*
X150303809Y-104813333D01*
X150208571Y-104860952D01*
X150160952Y-104908571D01*
X150113333Y-105003809D01*
X150113333Y-105194285D01*
X150160952Y-105289523D01*
X150208571Y-105337142D01*
X150303809Y-105384761D01*
G04 #@! TO.C,J7*
X131952380Y-105813333D02*
X132666666Y-105813333D01*
X132809523Y-105860952D01*
X132904761Y-105956190D01*
X132952380Y-106099047D01*
X132952380Y-106194285D01*
X131952380Y-105432380D02*
X131952380Y-104765714D01*
X132952380Y-105194285D01*
G04 #@! TO.C,J8*
X133651666Y-59142380D02*
X133651666Y-59856666D01*
X133604047Y-59999523D01*
X133508809Y-60094761D01*
X133365952Y-60142380D01*
X133270714Y-60142380D01*
X134270714Y-59570952D02*
X134175476Y-59523333D01*
X134127857Y-59475714D01*
X134080238Y-59380476D01*
X134080238Y-59332857D01*
X134127857Y-59237619D01*
X134175476Y-59190000D01*
X134270714Y-59142380D01*
X134461190Y-59142380D01*
X134556428Y-59190000D01*
X134604047Y-59237619D01*
X134651666Y-59332857D01*
X134651666Y-59380476D01*
X134604047Y-59475714D01*
X134556428Y-59523333D01*
X134461190Y-59570952D01*
X134270714Y-59570952D01*
X134175476Y-59618571D01*
X134127857Y-59666190D01*
X134080238Y-59761428D01*
X134080238Y-59951904D01*
X134127857Y-60047142D01*
X134175476Y-60094761D01*
X134270714Y-60142380D01*
X134461190Y-60142380D01*
X134556428Y-60094761D01*
X134604047Y-60047142D01*
X134651666Y-59951904D01*
X134651666Y-59761428D01*
X134604047Y-59666190D01*
X134556428Y-59618571D01*
X134461190Y-59570952D01*
G04 #@! TO.C,J9*
X152066666Y-59142380D02*
X152066666Y-59856666D01*
X152019047Y-59999523D01*
X151923809Y-60094761D01*
X151780952Y-60142380D01*
X151685714Y-60142380D01*
X152590476Y-60142380D02*
X152780952Y-60142380D01*
X152876190Y-60094761D01*
X152923809Y-60047142D01*
X153019047Y-59904285D01*
X153066666Y-59713809D01*
X153066666Y-59332857D01*
X153019047Y-59237619D01*
X152971428Y-59190000D01*
X152876190Y-59142380D01*
X152685714Y-59142380D01*
X152590476Y-59190000D01*
X152542857Y-59237619D01*
X152495238Y-59332857D01*
X152495238Y-59570952D01*
X152542857Y-59666190D01*
X152590476Y-59713809D01*
X152685714Y-59761428D01*
X152876190Y-59761428D01*
X152971428Y-59713809D01*
X153019047Y-59666190D01*
X153066666Y-59570952D01*
G04 #@! TO.C,J10*
X171275476Y-59142380D02*
X171275476Y-59856666D01*
X171227857Y-59999523D01*
X171132619Y-60094761D01*
X170989761Y-60142380D01*
X170894523Y-60142380D01*
X172275476Y-60142380D02*
X171704047Y-60142380D01*
X171989761Y-60142380D02*
X171989761Y-59142380D01*
X171894523Y-59285238D01*
X171799285Y-59380476D01*
X171704047Y-59428095D01*
X172894523Y-59142380D02*
X172989761Y-59142380D01*
X173085000Y-59190000D01*
X173132619Y-59237619D01*
X173180238Y-59332857D01*
X173227857Y-59523333D01*
X173227857Y-59761428D01*
X173180238Y-59951904D01*
X173132619Y-60047142D01*
X173085000Y-60094761D01*
X172989761Y-60142380D01*
X172894523Y-60142380D01*
X172799285Y-60094761D01*
X172751666Y-60047142D01*
X172704047Y-59951904D01*
X172656428Y-59761428D01*
X172656428Y-59523333D01*
X172704047Y-59332857D01*
X172751666Y-59237619D01*
X172799285Y-59190000D01*
X172894523Y-59142380D01*
G04 #@! TO.C,R2*
X218097380Y-117881666D02*
X217621190Y-118215000D01*
X218097380Y-118453095D02*
X217097380Y-118453095D01*
X217097380Y-118072142D01*
X217145000Y-117976904D01*
X217192619Y-117929285D01*
X217287857Y-117881666D01*
X217430714Y-117881666D01*
X217525952Y-117929285D01*
X217573571Y-117976904D01*
X217621190Y-118072142D01*
X217621190Y-118453095D01*
X217192619Y-117500714D02*
X217145000Y-117453095D01*
X217097380Y-117357857D01*
X217097380Y-117119761D01*
X217145000Y-117024523D01*
X217192619Y-116976904D01*
X217287857Y-116929285D01*
X217383095Y-116929285D01*
X217525952Y-116976904D01*
X218097380Y-117548333D01*
X218097380Y-116929285D01*
G04 #@! TO.C,R1*
X213017380Y-117881666D02*
X212541190Y-118215000D01*
X213017380Y-118453095D02*
X212017380Y-118453095D01*
X212017380Y-118072142D01*
X212065000Y-117976904D01*
X212112619Y-117929285D01*
X212207857Y-117881666D01*
X212350714Y-117881666D01*
X212445952Y-117929285D01*
X212493571Y-117976904D01*
X212541190Y-118072142D01*
X212541190Y-118453095D01*
X213017380Y-116929285D02*
X213017380Y-117500714D01*
X213017380Y-117215000D02*
X212017380Y-117215000D01*
X212160238Y-117310238D01*
X212255476Y-117405476D01*
X212303095Y-117500714D01*
G04 #@! TO.C,R5*
X198412380Y-117881666D02*
X197936190Y-118215000D01*
X198412380Y-118453095D02*
X197412380Y-118453095D01*
X197412380Y-118072142D01*
X197460000Y-117976904D01*
X197507619Y-117929285D01*
X197602857Y-117881666D01*
X197745714Y-117881666D01*
X197840952Y-117929285D01*
X197888571Y-117976904D01*
X197936190Y-118072142D01*
X197936190Y-118453095D01*
X197412380Y-116976904D02*
X197412380Y-117453095D01*
X197888571Y-117500714D01*
X197840952Y-117453095D01*
X197793333Y-117357857D01*
X197793333Y-117119761D01*
X197840952Y-117024523D01*
X197888571Y-116976904D01*
X197983809Y-116929285D01*
X198221904Y-116929285D01*
X198317142Y-116976904D01*
X198364761Y-117024523D01*
X198412380Y-117119761D01*
X198412380Y-117357857D01*
X198364761Y-117453095D01*
X198317142Y-117500714D01*
G04 #@! TO.C,R3*
X193332380Y-117881666D02*
X192856190Y-118215000D01*
X193332380Y-118453095D02*
X192332380Y-118453095D01*
X192332380Y-118072142D01*
X192380000Y-117976904D01*
X192427619Y-117929285D01*
X192522857Y-117881666D01*
X192665714Y-117881666D01*
X192760952Y-117929285D01*
X192808571Y-117976904D01*
X192856190Y-118072142D01*
X192856190Y-118453095D01*
X192332380Y-117548333D02*
X192332380Y-116929285D01*
X192713333Y-117262619D01*
X192713333Y-117119761D01*
X192760952Y-117024523D01*
X192808571Y-116976904D01*
X192903809Y-116929285D01*
X193141904Y-116929285D01*
X193237142Y-116976904D01*
X193284761Y-117024523D01*
X193332380Y-117119761D01*
X193332380Y-117405476D01*
X193284761Y-117500714D01*
X193237142Y-117548333D01*
G04 #@! TO.C,R7*
X178727380Y-117881666D02*
X178251190Y-118215000D01*
X178727380Y-118453095D02*
X177727380Y-118453095D01*
X177727380Y-118072142D01*
X177775000Y-117976904D01*
X177822619Y-117929285D01*
X177917857Y-117881666D01*
X178060714Y-117881666D01*
X178155952Y-117929285D01*
X178203571Y-117976904D01*
X178251190Y-118072142D01*
X178251190Y-118453095D01*
X177727380Y-117548333D02*
X177727380Y-116881666D01*
X178727380Y-117310238D01*
G04 #@! TO.C,R4*
X173647380Y-117881666D02*
X173171190Y-118215000D01*
X173647380Y-118453095D02*
X172647380Y-118453095D01*
X172647380Y-118072142D01*
X172695000Y-117976904D01*
X172742619Y-117929285D01*
X172837857Y-117881666D01*
X172980714Y-117881666D01*
X173075952Y-117929285D01*
X173123571Y-117976904D01*
X173171190Y-118072142D01*
X173171190Y-118453095D01*
X172980714Y-117024523D02*
X173647380Y-117024523D01*
X172599761Y-117262619D02*
X173314047Y-117500714D01*
X173314047Y-116881666D01*
G04 #@! TO.C,R10*
X198412380Y-80257857D02*
X197936190Y-80591190D01*
X198412380Y-80829285D02*
X197412380Y-80829285D01*
X197412380Y-80448333D01*
X197460000Y-80353095D01*
X197507619Y-80305476D01*
X197602857Y-80257857D01*
X197745714Y-80257857D01*
X197840952Y-80305476D01*
X197888571Y-80353095D01*
X197936190Y-80448333D01*
X197936190Y-80829285D01*
X198412380Y-79305476D02*
X198412380Y-79876904D01*
X198412380Y-79591190D02*
X197412380Y-79591190D01*
X197555238Y-79686428D01*
X197650476Y-79781666D01*
X197698095Y-79876904D01*
X197412380Y-78686428D02*
X197412380Y-78591190D01*
X197460000Y-78495952D01*
X197507619Y-78448333D01*
X197602857Y-78400714D01*
X197793333Y-78353095D01*
X198031428Y-78353095D01*
X198221904Y-78400714D01*
X198317142Y-78448333D01*
X198364761Y-78495952D01*
X198412380Y-78591190D01*
X198412380Y-78686428D01*
X198364761Y-78781666D01*
X198317142Y-78829285D01*
X198221904Y-78876904D01*
X198031428Y-78924523D01*
X197793333Y-78924523D01*
X197602857Y-78876904D01*
X197507619Y-78829285D01*
X197460000Y-78781666D01*
X197412380Y-78686428D01*
G04 #@! TO.C,R6*
X193332380Y-79781666D02*
X192856190Y-80115000D01*
X193332380Y-80353095D02*
X192332380Y-80353095D01*
X192332380Y-79972142D01*
X192380000Y-79876904D01*
X192427619Y-79829285D01*
X192522857Y-79781666D01*
X192665714Y-79781666D01*
X192760952Y-79829285D01*
X192808571Y-79876904D01*
X192856190Y-79972142D01*
X192856190Y-80353095D01*
X192332380Y-78924523D02*
X192332380Y-79115000D01*
X192380000Y-79210238D01*
X192427619Y-79257857D01*
X192570476Y-79353095D01*
X192760952Y-79400714D01*
X193141904Y-79400714D01*
X193237142Y-79353095D01*
X193284761Y-79305476D01*
X193332380Y-79210238D01*
X193332380Y-79019761D01*
X193284761Y-78924523D01*
X193237142Y-78876904D01*
X193141904Y-78829285D01*
X192903809Y-78829285D01*
X192808571Y-78876904D01*
X192760952Y-78924523D01*
X192713333Y-79019761D01*
X192713333Y-79210238D01*
X192760952Y-79305476D01*
X192808571Y-79353095D01*
X192903809Y-79400714D01*
G04 #@! TO.C,R12*
X218097380Y-80257857D02*
X217621190Y-80591190D01*
X218097380Y-80829285D02*
X217097380Y-80829285D01*
X217097380Y-80448333D01*
X217145000Y-80353095D01*
X217192619Y-80305476D01*
X217287857Y-80257857D01*
X217430714Y-80257857D01*
X217525952Y-80305476D01*
X217573571Y-80353095D01*
X217621190Y-80448333D01*
X217621190Y-80829285D01*
X218097380Y-79305476D02*
X218097380Y-79876904D01*
X218097380Y-79591190D02*
X217097380Y-79591190D01*
X217240238Y-79686428D01*
X217335476Y-79781666D01*
X217383095Y-79876904D01*
X217192619Y-78924523D02*
X217145000Y-78876904D01*
X217097380Y-78781666D01*
X217097380Y-78543571D01*
X217145000Y-78448333D01*
X217192619Y-78400714D01*
X217287857Y-78353095D01*
X217383095Y-78353095D01*
X217525952Y-78400714D01*
X218097380Y-78972142D01*
X218097380Y-78353095D01*
G04 #@! TO.C,R8*
X213017380Y-79781666D02*
X212541190Y-80115000D01*
X213017380Y-80353095D02*
X212017380Y-80353095D01*
X212017380Y-79972142D01*
X212065000Y-79876904D01*
X212112619Y-79829285D01*
X212207857Y-79781666D01*
X212350714Y-79781666D01*
X212445952Y-79829285D01*
X212493571Y-79876904D01*
X212541190Y-79972142D01*
X212541190Y-80353095D01*
X212445952Y-79210238D02*
X212398333Y-79305476D01*
X212350714Y-79353095D01*
X212255476Y-79400714D01*
X212207857Y-79400714D01*
X212112619Y-79353095D01*
X212065000Y-79305476D01*
X212017380Y-79210238D01*
X212017380Y-79019761D01*
X212065000Y-78924523D01*
X212112619Y-78876904D01*
X212207857Y-78829285D01*
X212255476Y-78829285D01*
X212350714Y-78876904D01*
X212398333Y-78924523D01*
X212445952Y-79019761D01*
X212445952Y-79210238D01*
X212493571Y-79305476D01*
X212541190Y-79353095D01*
X212636428Y-79400714D01*
X212826904Y-79400714D01*
X212922142Y-79353095D01*
X212969761Y-79305476D01*
X213017380Y-79210238D01*
X213017380Y-79019761D01*
X212969761Y-78924523D01*
X212922142Y-78876904D01*
X212826904Y-78829285D01*
X212636428Y-78829285D01*
X212541190Y-78876904D01*
X212493571Y-78924523D01*
X212445952Y-79019761D01*
G04 #@! TO.C,R15*
X159042380Y-118357857D02*
X158566190Y-118691190D01*
X159042380Y-118929285D02*
X158042380Y-118929285D01*
X158042380Y-118548333D01*
X158090000Y-118453095D01*
X158137619Y-118405476D01*
X158232857Y-118357857D01*
X158375714Y-118357857D01*
X158470952Y-118405476D01*
X158518571Y-118453095D01*
X158566190Y-118548333D01*
X158566190Y-118929285D01*
X159042380Y-117405476D02*
X159042380Y-117976904D01*
X159042380Y-117691190D02*
X158042380Y-117691190D01*
X158185238Y-117786428D01*
X158280476Y-117881666D01*
X158328095Y-117976904D01*
X158042380Y-116500714D02*
X158042380Y-116976904D01*
X158518571Y-117024523D01*
X158470952Y-116976904D01*
X158423333Y-116881666D01*
X158423333Y-116643571D01*
X158470952Y-116548333D01*
X158518571Y-116500714D01*
X158613809Y-116453095D01*
X158851904Y-116453095D01*
X158947142Y-116500714D01*
X158994761Y-116548333D01*
X159042380Y-116643571D01*
X159042380Y-116881666D01*
X158994761Y-116976904D01*
X158947142Y-117024523D01*
G04 #@! TO.C,R9*
X153962380Y-117881666D02*
X153486190Y-118215000D01*
X153962380Y-118453095D02*
X152962380Y-118453095D01*
X152962380Y-118072142D01*
X153010000Y-117976904D01*
X153057619Y-117929285D01*
X153152857Y-117881666D01*
X153295714Y-117881666D01*
X153390952Y-117929285D01*
X153438571Y-117976904D01*
X153486190Y-118072142D01*
X153486190Y-118453095D01*
X153962380Y-117405476D02*
X153962380Y-117215000D01*
X153914761Y-117119761D01*
X153867142Y-117072142D01*
X153724285Y-116976904D01*
X153533809Y-116929285D01*
X153152857Y-116929285D01*
X153057619Y-116976904D01*
X153010000Y-117024523D01*
X152962380Y-117119761D01*
X152962380Y-117310238D01*
X153010000Y-117405476D01*
X153057619Y-117453095D01*
X153152857Y-117500714D01*
X153390952Y-117500714D01*
X153486190Y-117453095D01*
X153533809Y-117405476D01*
X153581428Y-117310238D01*
X153581428Y-117119761D01*
X153533809Y-117024523D01*
X153486190Y-116976904D01*
X153390952Y-116929285D01*
G04 #@! TO.C,R17*
X141262380Y-118357857D02*
X140786190Y-118691190D01*
X141262380Y-118929285D02*
X140262380Y-118929285D01*
X140262380Y-118548333D01*
X140310000Y-118453095D01*
X140357619Y-118405476D01*
X140452857Y-118357857D01*
X140595714Y-118357857D01*
X140690952Y-118405476D01*
X140738571Y-118453095D01*
X140786190Y-118548333D01*
X140786190Y-118929285D01*
X141262380Y-117405476D02*
X141262380Y-117976904D01*
X141262380Y-117691190D02*
X140262380Y-117691190D01*
X140405238Y-117786428D01*
X140500476Y-117881666D01*
X140548095Y-117976904D01*
X140262380Y-117072142D02*
X140262380Y-116405476D01*
X141262380Y-116834047D01*
G04 #@! TO.C,R11*
X136182380Y-118357857D02*
X135706190Y-118691190D01*
X136182380Y-118929285D02*
X135182380Y-118929285D01*
X135182380Y-118548333D01*
X135230000Y-118453095D01*
X135277619Y-118405476D01*
X135372857Y-118357857D01*
X135515714Y-118357857D01*
X135610952Y-118405476D01*
X135658571Y-118453095D01*
X135706190Y-118548333D01*
X135706190Y-118929285D01*
X136182380Y-117405476D02*
X136182380Y-117976904D01*
X136182380Y-117691190D02*
X135182380Y-117691190D01*
X135325238Y-117786428D01*
X135420476Y-117881666D01*
X135468095Y-117976904D01*
X136182380Y-116453095D02*
X136182380Y-117024523D01*
X136182380Y-116738809D02*
X135182380Y-116738809D01*
X135325238Y-116834047D01*
X135420476Y-116929285D01*
X135468095Y-117024523D01*
G04 #@! TO.C,R18*
X141262380Y-80257857D02*
X140786190Y-80591190D01*
X141262380Y-80829285D02*
X140262380Y-80829285D01*
X140262380Y-80448333D01*
X140310000Y-80353095D01*
X140357619Y-80305476D01*
X140452857Y-80257857D01*
X140595714Y-80257857D01*
X140690952Y-80305476D01*
X140738571Y-80353095D01*
X140786190Y-80448333D01*
X140786190Y-80829285D01*
X141262380Y-79305476D02*
X141262380Y-79876904D01*
X141262380Y-79591190D02*
X140262380Y-79591190D01*
X140405238Y-79686428D01*
X140500476Y-79781666D01*
X140548095Y-79876904D01*
X140690952Y-78734047D02*
X140643333Y-78829285D01*
X140595714Y-78876904D01*
X140500476Y-78924523D01*
X140452857Y-78924523D01*
X140357619Y-78876904D01*
X140310000Y-78829285D01*
X140262380Y-78734047D01*
X140262380Y-78543571D01*
X140310000Y-78448333D01*
X140357619Y-78400714D01*
X140452857Y-78353095D01*
X140500476Y-78353095D01*
X140595714Y-78400714D01*
X140643333Y-78448333D01*
X140690952Y-78543571D01*
X140690952Y-78734047D01*
X140738571Y-78829285D01*
X140786190Y-78876904D01*
X140881428Y-78924523D01*
X141071904Y-78924523D01*
X141167142Y-78876904D01*
X141214761Y-78829285D01*
X141262380Y-78734047D01*
X141262380Y-78543571D01*
X141214761Y-78448333D01*
X141167142Y-78400714D01*
X141071904Y-78353095D01*
X140881428Y-78353095D01*
X140786190Y-78400714D01*
X140738571Y-78448333D01*
X140690952Y-78543571D01*
G04 #@! TO.C,R13*
X136182380Y-80257857D02*
X135706190Y-80591190D01*
X136182380Y-80829285D02*
X135182380Y-80829285D01*
X135182380Y-80448333D01*
X135230000Y-80353095D01*
X135277619Y-80305476D01*
X135372857Y-80257857D01*
X135515714Y-80257857D01*
X135610952Y-80305476D01*
X135658571Y-80353095D01*
X135706190Y-80448333D01*
X135706190Y-80829285D01*
X136182380Y-79305476D02*
X136182380Y-79876904D01*
X136182380Y-79591190D02*
X135182380Y-79591190D01*
X135325238Y-79686428D01*
X135420476Y-79781666D01*
X135468095Y-79876904D01*
X135182380Y-78972142D02*
X135182380Y-78353095D01*
X135563333Y-78686428D01*
X135563333Y-78543571D01*
X135610952Y-78448333D01*
X135658571Y-78400714D01*
X135753809Y-78353095D01*
X135991904Y-78353095D01*
X136087142Y-78400714D01*
X136134761Y-78448333D01*
X136182380Y-78543571D01*
X136182380Y-78829285D01*
X136134761Y-78924523D01*
X136087142Y-78972142D01*
G04 #@! TO.C,R19*
X159042380Y-80257857D02*
X158566190Y-80591190D01*
X159042380Y-80829285D02*
X158042380Y-80829285D01*
X158042380Y-80448333D01*
X158090000Y-80353095D01*
X158137619Y-80305476D01*
X158232857Y-80257857D01*
X158375714Y-80257857D01*
X158470952Y-80305476D01*
X158518571Y-80353095D01*
X158566190Y-80448333D01*
X158566190Y-80829285D01*
X159042380Y-79305476D02*
X159042380Y-79876904D01*
X159042380Y-79591190D02*
X158042380Y-79591190D01*
X158185238Y-79686428D01*
X158280476Y-79781666D01*
X158328095Y-79876904D01*
X159042380Y-78829285D02*
X159042380Y-78638809D01*
X158994761Y-78543571D01*
X158947142Y-78495952D01*
X158804285Y-78400714D01*
X158613809Y-78353095D01*
X158232857Y-78353095D01*
X158137619Y-78400714D01*
X158090000Y-78448333D01*
X158042380Y-78543571D01*
X158042380Y-78734047D01*
X158090000Y-78829285D01*
X158137619Y-78876904D01*
X158232857Y-78924523D01*
X158470952Y-78924523D01*
X158566190Y-78876904D01*
X158613809Y-78829285D01*
X158661428Y-78734047D01*
X158661428Y-78543571D01*
X158613809Y-78448333D01*
X158566190Y-78400714D01*
X158470952Y-78353095D01*
G04 #@! TO.C,R14*
X153962380Y-80257857D02*
X153486190Y-80591190D01*
X153962380Y-80829285D02*
X152962380Y-80829285D01*
X152962380Y-80448333D01*
X153010000Y-80353095D01*
X153057619Y-80305476D01*
X153152857Y-80257857D01*
X153295714Y-80257857D01*
X153390952Y-80305476D01*
X153438571Y-80353095D01*
X153486190Y-80448333D01*
X153486190Y-80829285D01*
X153962380Y-79305476D02*
X153962380Y-79876904D01*
X153962380Y-79591190D02*
X152962380Y-79591190D01*
X153105238Y-79686428D01*
X153200476Y-79781666D01*
X153248095Y-79876904D01*
X153295714Y-78448333D02*
X153962380Y-78448333D01*
X152914761Y-78686428D02*
X153629047Y-78924523D01*
X153629047Y-78305476D01*
G04 #@! TO.C,R20*
X178727380Y-80257857D02*
X178251190Y-80591190D01*
X178727380Y-80829285D02*
X177727380Y-80829285D01*
X177727380Y-80448333D01*
X177775000Y-80353095D01*
X177822619Y-80305476D01*
X177917857Y-80257857D01*
X178060714Y-80257857D01*
X178155952Y-80305476D01*
X178203571Y-80353095D01*
X178251190Y-80448333D01*
X178251190Y-80829285D01*
X177822619Y-79876904D02*
X177775000Y-79829285D01*
X177727380Y-79734047D01*
X177727380Y-79495952D01*
X177775000Y-79400714D01*
X177822619Y-79353095D01*
X177917857Y-79305476D01*
X178013095Y-79305476D01*
X178155952Y-79353095D01*
X178727380Y-79924523D01*
X178727380Y-79305476D01*
X177727380Y-78686428D02*
X177727380Y-78591190D01*
X177775000Y-78495952D01*
X177822619Y-78448333D01*
X177917857Y-78400714D01*
X178108333Y-78353095D01*
X178346428Y-78353095D01*
X178536904Y-78400714D01*
X178632142Y-78448333D01*
X178679761Y-78495952D01*
X178727380Y-78591190D01*
X178727380Y-78686428D01*
X178679761Y-78781666D01*
X178632142Y-78829285D01*
X178536904Y-78876904D01*
X178346428Y-78924523D01*
X178108333Y-78924523D01*
X177917857Y-78876904D01*
X177822619Y-78829285D01*
X177775000Y-78781666D01*
X177727380Y-78686428D01*
G04 #@! TO.C,R16*
X174282380Y-80257857D02*
X173806190Y-80591190D01*
X174282380Y-80829285D02*
X173282380Y-80829285D01*
X173282380Y-80448333D01*
X173330000Y-80353095D01*
X173377619Y-80305476D01*
X173472857Y-80257857D01*
X173615714Y-80257857D01*
X173710952Y-80305476D01*
X173758571Y-80353095D01*
X173806190Y-80448333D01*
X173806190Y-80829285D01*
X174282380Y-79305476D02*
X174282380Y-79876904D01*
X174282380Y-79591190D02*
X173282380Y-79591190D01*
X173425238Y-79686428D01*
X173520476Y-79781666D01*
X173568095Y-79876904D01*
X173282380Y-78448333D02*
X173282380Y-78638809D01*
X173330000Y-78734047D01*
X173377619Y-78781666D01*
X173520476Y-78876904D01*
X173710952Y-78924523D01*
X174091904Y-78924523D01*
X174187142Y-78876904D01*
X174234761Y-78829285D01*
X174282380Y-78734047D01*
X174282380Y-78543571D01*
X174234761Y-78448333D01*
X174187142Y-78400714D01*
X174091904Y-78353095D01*
X173853809Y-78353095D01*
X173758571Y-78400714D01*
X173710952Y-78448333D01*
X173663333Y-78543571D01*
X173663333Y-78734047D01*
X173710952Y-78829285D01*
X173758571Y-78876904D01*
X173853809Y-78924523D01*
G04 #@! TO.C,J1*
X208787380Y-106013333D02*
X209501666Y-106013333D01*
X209644523Y-106060952D01*
X209739761Y-106156190D01*
X209787380Y-106299047D01*
X209787380Y-106394285D01*
X209787380Y-105013333D02*
X209787380Y-105584761D01*
X209787380Y-105299047D02*
X208787380Y-105299047D01*
X208930238Y-105394285D01*
X209025476Y-105489523D01*
X209073095Y-105584761D01*
G04 #@! TO.C,Conn1*
X101743190Y-105691142D02*
X101695571Y-105738761D01*
X101552714Y-105786380D01*
X101457476Y-105786380D01*
X101314619Y-105738761D01*
X101219380Y-105643523D01*
X101171761Y-105548285D01*
X101124142Y-105357809D01*
X101124142Y-105214952D01*
X101171761Y-105024476D01*
X101219380Y-104929238D01*
X101314619Y-104834000D01*
X101457476Y-104786380D01*
X101552714Y-104786380D01*
X101695571Y-104834000D01*
X101743190Y-104881619D01*
X102314619Y-105786380D02*
X102219380Y-105738761D01*
X102171761Y-105691142D01*
X102124142Y-105595904D01*
X102124142Y-105310190D01*
X102171761Y-105214952D01*
X102219380Y-105167333D01*
X102314619Y-105119714D01*
X102457476Y-105119714D01*
X102552714Y-105167333D01*
X102600333Y-105214952D01*
X102647952Y-105310190D01*
X102647952Y-105595904D01*
X102600333Y-105691142D01*
X102552714Y-105738761D01*
X102457476Y-105786380D01*
X102314619Y-105786380D01*
X103076523Y-105119714D02*
X103076523Y-105786380D01*
X103076523Y-105214952D02*
X103124142Y-105167333D01*
X103219380Y-105119714D01*
X103362238Y-105119714D01*
X103457476Y-105167333D01*
X103505095Y-105262571D01*
X103505095Y-105786380D01*
X103981285Y-105119714D02*
X103981285Y-105786380D01*
X103981285Y-105214952D02*
X104028904Y-105167333D01*
X104124142Y-105119714D01*
X104267000Y-105119714D01*
X104362238Y-105167333D01*
X104409857Y-105262571D01*
X104409857Y-105786380D01*
X105409857Y-105786380D02*
X104838428Y-105786380D01*
X105124142Y-105786380D02*
X105124142Y-104786380D01*
X105028904Y-104929238D01*
X104933666Y-105024476D01*
X104838428Y-105072095D01*
G04 #@! TO.C,U1*
X198945523Y-95194380D02*
X198374095Y-95194380D01*
X198659809Y-95194380D02*
X198659809Y-94194380D01*
X198564571Y-94337238D01*
X198469333Y-94432476D01*
X198374095Y-94480095D01*
X199564571Y-94194380D02*
X199659809Y-94194380D01*
X199755047Y-94242000D01*
X199802666Y-94289619D01*
X199850285Y-94384857D01*
X199897904Y-94575333D01*
X199897904Y-94813428D01*
X199850285Y-95003904D01*
X199802666Y-95099142D01*
X199755047Y-95146761D01*
X199659809Y-95194380D01*
X199564571Y-95194380D01*
X199469333Y-95146761D01*
X199421714Y-95099142D01*
X199374095Y-95003904D01*
X199326476Y-94813428D01*
X199326476Y-94575333D01*
X199374095Y-94384857D01*
X199421714Y-94289619D01*
X199469333Y-94242000D01*
X199564571Y-94194380D01*
X222535714Y-131770380D02*
X221964285Y-131770380D01*
X222250000Y-131770380D02*
X222250000Y-130770380D01*
X222154761Y-130913238D01*
X222059523Y-131008476D01*
X221964285Y-131056095D01*
X198945523Y-131770380D02*
X198374095Y-131770380D01*
X198659809Y-131770380D02*
X198659809Y-130770380D01*
X198564571Y-130913238D01*
X198469333Y-131008476D01*
X198374095Y-131056095D01*
X199564571Y-130770380D02*
X199659809Y-130770380D01*
X199755047Y-130818000D01*
X199802666Y-130865619D01*
X199850285Y-130960857D01*
X199897904Y-131151333D01*
X199897904Y-131389428D01*
X199850285Y-131579904D01*
X199802666Y-131675142D01*
X199755047Y-131722761D01*
X199659809Y-131770380D01*
X199564571Y-131770380D01*
X199469333Y-131722761D01*
X199421714Y-131675142D01*
X199374095Y-131579904D01*
X199326476Y-131389428D01*
X199326476Y-131151333D01*
X199374095Y-130960857D01*
X199421714Y-130865619D01*
X199469333Y-130818000D01*
X199564571Y-130770380D01*
X159035714Y-95194380D02*
X158464285Y-95194380D01*
X158750000Y-95194380D02*
X158750000Y-94194380D01*
X158654761Y-94337238D01*
X158559523Y-94432476D01*
X158464285Y-94480095D01*
X135699523Y-95194380D02*
X135128095Y-95194380D01*
X135413809Y-95194380D02*
X135413809Y-94194380D01*
X135318571Y-94337238D01*
X135223333Y-94432476D01*
X135128095Y-94480095D01*
X136318571Y-94194380D02*
X136413809Y-94194380D01*
X136509047Y-94242000D01*
X136556666Y-94289619D01*
X136604285Y-94384857D01*
X136651904Y-94575333D01*
X136651904Y-94813428D01*
X136604285Y-95003904D01*
X136556666Y-95099142D01*
X136509047Y-95146761D01*
X136413809Y-95194380D01*
X136318571Y-95194380D01*
X136223333Y-95146761D01*
X136175714Y-95099142D01*
X136128095Y-95003904D01*
X136080476Y-94813428D01*
X136080476Y-94575333D01*
X136128095Y-94384857D01*
X136175714Y-94289619D01*
X136223333Y-94242000D01*
X136318571Y-94194380D01*
X135699523Y-131770380D02*
X135128095Y-131770380D01*
X135413809Y-131770380D02*
X135413809Y-130770380D01*
X135318571Y-130913238D01*
X135223333Y-131008476D01*
X135128095Y-131056095D01*
X136318571Y-130770380D02*
X136413809Y-130770380D01*
X136509047Y-130818000D01*
X136556666Y-130865619D01*
X136604285Y-130960857D01*
X136651904Y-131151333D01*
X136651904Y-131389428D01*
X136604285Y-131579904D01*
X136556666Y-131675142D01*
X136509047Y-131722761D01*
X136413809Y-131770380D01*
X136318571Y-131770380D01*
X136223333Y-131722761D01*
X136175714Y-131675142D01*
X136128095Y-131579904D01*
X136080476Y-131389428D01*
X136080476Y-131151333D01*
X136128095Y-130960857D01*
X136175714Y-130865619D01*
X136223333Y-130818000D01*
X136318571Y-130770380D01*
X159035714Y-131770380D02*
X158464285Y-131770380D01*
X158750000Y-131770380D02*
X158750000Y-130770380D01*
X158654761Y-130913238D01*
X158559523Y-131008476D01*
X158464285Y-131056095D01*
X198326476Y-95464380D02*
X198993142Y-96464380D01*
X198993142Y-95464380D02*
X198326476Y-96464380D01*
X199421714Y-96464380D02*
X199612190Y-96464380D01*
X199707428Y-96416761D01*
X199755047Y-96369142D01*
X199850285Y-96226285D01*
X199897904Y-96035809D01*
X199897904Y-95654857D01*
X199850285Y-95559619D01*
X199802666Y-95512000D01*
X199707428Y-95464380D01*
X199516952Y-95464380D01*
X199421714Y-95512000D01*
X199374095Y-95559619D01*
X199326476Y-95654857D01*
X199326476Y-95892952D01*
X199374095Y-95988190D01*
X199421714Y-96035809D01*
X199516952Y-96083428D01*
X199707428Y-96083428D01*
X199802666Y-96035809D01*
X199850285Y-95988190D01*
X199897904Y-95892952D01*
X198326476Y-129500380D02*
X198993142Y-130500380D01*
X198993142Y-129500380D02*
X198326476Y-130500380D01*
X199516952Y-129928952D02*
X199421714Y-129881333D01*
X199374095Y-129833714D01*
X199326476Y-129738476D01*
X199326476Y-129690857D01*
X199374095Y-129595619D01*
X199421714Y-129548000D01*
X199516952Y-129500380D01*
X199707428Y-129500380D01*
X199802666Y-129548000D01*
X199850285Y-129595619D01*
X199897904Y-129690857D01*
X199897904Y-129738476D01*
X199850285Y-129833714D01*
X199802666Y-129881333D01*
X199707428Y-129928952D01*
X199516952Y-129928952D01*
X199421714Y-129976571D01*
X199374095Y-130024190D01*
X199326476Y-130119428D01*
X199326476Y-130309904D01*
X199374095Y-130405142D01*
X199421714Y-130452761D01*
X199516952Y-130500380D01*
X199707428Y-130500380D01*
X199802666Y-130452761D01*
X199850285Y-130405142D01*
X199897904Y-130309904D01*
X199897904Y-130119428D01*
X199850285Y-130024190D01*
X199802666Y-129976571D01*
X199707428Y-129928952D01*
X135080476Y-95464380D02*
X135747142Y-96464380D01*
X135747142Y-95464380D02*
X135080476Y-96464380D01*
X136032857Y-95464380D02*
X136699523Y-95464380D01*
X136270952Y-96464380D01*
X196937333Y-93067142D02*
X196889714Y-93114761D01*
X196746857Y-93162380D01*
X196651619Y-93162380D01*
X196508761Y-93114761D01*
X196413523Y-93019523D01*
X196365904Y-92924285D01*
X196318285Y-92733809D01*
X196318285Y-92590952D01*
X196365904Y-92400476D01*
X196413523Y-92305238D01*
X196508761Y-92210000D01*
X196651619Y-92162380D01*
X196746857Y-92162380D01*
X196889714Y-92210000D01*
X196937333Y-92257619D01*
X197889714Y-93162380D02*
X197318285Y-93162380D01*
X197604000Y-93162380D02*
X197604000Y-92162380D01*
X197508761Y-92305238D01*
X197413523Y-92400476D01*
X197318285Y-92448095D01*
X196365904Y-90876380D02*
X196365904Y-89876380D01*
X196604000Y-89876380D01*
X196746857Y-89924000D01*
X196842095Y-90019238D01*
X196889714Y-90114476D01*
X196937333Y-90304952D01*
X196937333Y-90447809D01*
X196889714Y-90638285D01*
X196842095Y-90733523D01*
X196746857Y-90828761D01*
X196604000Y-90876380D01*
X196365904Y-90876380D01*
X197889714Y-90876380D02*
X197318285Y-90876380D01*
X197604000Y-90876380D02*
X197604000Y-89876380D01*
X197508761Y-90019238D01*
X197413523Y-90114476D01*
X197318285Y-90162095D01*
X133437333Y-93067142D02*
X133389714Y-93114761D01*
X133246857Y-93162380D01*
X133151619Y-93162380D01*
X133008761Y-93114761D01*
X132913523Y-93019523D01*
X132865904Y-92924285D01*
X132818285Y-92733809D01*
X132818285Y-92590952D01*
X132865904Y-92400476D01*
X132913523Y-92305238D01*
X133008761Y-92210000D01*
X133151619Y-92162380D01*
X133246857Y-92162380D01*
X133389714Y-92210000D01*
X133437333Y-92257619D01*
X133818285Y-92257619D02*
X133865904Y-92210000D01*
X133961142Y-92162380D01*
X134199238Y-92162380D01*
X134294476Y-92210000D01*
X134342095Y-92257619D01*
X134389714Y-92352857D01*
X134389714Y-92448095D01*
X134342095Y-92590952D01*
X133770666Y-93162380D01*
X134389714Y-93162380D01*
X132865904Y-90368380D02*
X132865904Y-89368380D01*
X133104000Y-89368380D01*
X133246857Y-89416000D01*
X133342095Y-89511238D01*
X133389714Y-89606476D01*
X133437333Y-89796952D01*
X133437333Y-89939809D01*
X133389714Y-90130285D01*
X133342095Y-90225523D01*
X133246857Y-90320761D01*
X133104000Y-90368380D01*
X132865904Y-90368380D01*
X133818285Y-89463619D02*
X133865904Y-89416000D01*
X133961142Y-89368380D01*
X134199238Y-89368380D01*
X134294476Y-89416000D01*
X134342095Y-89463619D01*
X134389714Y-89558857D01*
X134389714Y-89654095D01*
X134342095Y-89796952D01*
X133770666Y-90368380D01*
X134389714Y-90368380D01*
X196699238Y-133278571D02*
X196842095Y-133326190D01*
X196889714Y-133373809D01*
X196937333Y-133469047D01*
X196937333Y-133611904D01*
X196889714Y-133707142D01*
X196842095Y-133754761D01*
X196746857Y-133802380D01*
X196365904Y-133802380D01*
X196365904Y-132802380D01*
X196699238Y-132802380D01*
X196794476Y-132850000D01*
X196842095Y-132897619D01*
X196889714Y-132992857D01*
X196889714Y-133088095D01*
X196842095Y-133183333D01*
X196794476Y-133230952D01*
X196699238Y-133278571D01*
X196365904Y-133278571D01*
X197889714Y-133802380D02*
X197318285Y-133802380D01*
X197604000Y-133802380D02*
X197604000Y-132802380D01*
X197508761Y-132945238D01*
X197413523Y-133040476D01*
X197318285Y-133088095D01*
X196389714Y-136056666D02*
X196865904Y-136056666D01*
X196294476Y-136342380D02*
X196627809Y-135342380D01*
X196961142Y-136342380D01*
X197818285Y-136342380D02*
X197246857Y-136342380D01*
X197532571Y-136342380D02*
X197532571Y-135342380D01*
X197437333Y-135485238D01*
X197342095Y-135580476D01*
X197246857Y-135628095D01*
X133199238Y-133278571D02*
X133342095Y-133326190D01*
X133389714Y-133373809D01*
X133437333Y-133469047D01*
X133437333Y-133611904D01*
X133389714Y-133707142D01*
X133342095Y-133754761D01*
X133246857Y-133802380D01*
X132865904Y-133802380D01*
X132865904Y-132802380D01*
X133199238Y-132802380D01*
X133294476Y-132850000D01*
X133342095Y-132897619D01*
X133389714Y-132992857D01*
X133389714Y-133088095D01*
X133342095Y-133183333D01*
X133294476Y-133230952D01*
X133199238Y-133278571D01*
X132865904Y-133278571D01*
X133818285Y-132897619D02*
X133865904Y-132850000D01*
X133961142Y-132802380D01*
X134199238Y-132802380D01*
X134294476Y-132850000D01*
X134342095Y-132897619D01*
X134389714Y-132992857D01*
X134389714Y-133088095D01*
X134342095Y-133230952D01*
X133770666Y-133802380D01*
X134389714Y-133802380D01*
X132889714Y-136056666D02*
X133365904Y-136056666D01*
X132794476Y-136342380D02*
X133127809Y-135342380D01*
X133461142Y-136342380D01*
X133746857Y-135437619D02*
X133794476Y-135390000D01*
X133889714Y-135342380D01*
X134127809Y-135342380D01*
X134223047Y-135390000D01*
X134270666Y-135437619D01*
X134318285Y-135532857D01*
X134318285Y-135628095D01*
X134270666Y-135770952D01*
X133699238Y-136342380D01*
X134318285Y-136342380D01*
G04 #@! TO.C,C2*
X116278333Y-94812142D02*
X116230714Y-94859761D01*
X116087857Y-94907380D01*
X115992619Y-94907380D01*
X115849761Y-94859761D01*
X115754523Y-94764523D01*
X115706904Y-94669285D01*
X115659285Y-94478809D01*
X115659285Y-94335952D01*
X115706904Y-94145476D01*
X115754523Y-94050238D01*
X115849761Y-93955000D01*
X115992619Y-93907380D01*
X116087857Y-93907380D01*
X116230714Y-93955000D01*
X116278333Y-94002619D01*
X116659285Y-94002619D02*
X116706904Y-93955000D01*
X116802142Y-93907380D01*
X117040238Y-93907380D01*
X117135476Y-93955000D01*
X117183095Y-94002619D01*
X117230714Y-94097857D01*
X117230714Y-94193095D01*
X117183095Y-94335952D01*
X116611666Y-94907380D01*
X117230714Y-94907380D01*
G04 #@! TO.C,D1*
X213017380Y-123533095D02*
X212017380Y-123533095D01*
X212017380Y-123295000D01*
X212065000Y-123152142D01*
X212160238Y-123056904D01*
X212255476Y-123009285D01*
X212445952Y-122961666D01*
X212588809Y-122961666D01*
X212779285Y-123009285D01*
X212874523Y-123056904D01*
X212969761Y-123152142D01*
X213017380Y-123295000D01*
X213017380Y-123533095D01*
X213017380Y-122009285D02*
X213017380Y-122580714D01*
X213017380Y-122295000D02*
X212017380Y-122295000D01*
X212160238Y-122390238D01*
X212255476Y-122485476D01*
X212303095Y-122580714D01*
G04 #@! TO.C,D2*
X218097380Y-123533095D02*
X217097380Y-123533095D01*
X217097380Y-123295000D01*
X217145000Y-123152142D01*
X217240238Y-123056904D01*
X217335476Y-123009285D01*
X217525952Y-122961666D01*
X217668809Y-122961666D01*
X217859285Y-123009285D01*
X217954523Y-123056904D01*
X218049761Y-123152142D01*
X218097380Y-123295000D01*
X218097380Y-123533095D01*
X217192619Y-122580714D02*
X217145000Y-122533095D01*
X217097380Y-122437857D01*
X217097380Y-122199761D01*
X217145000Y-122104523D01*
X217192619Y-122056904D01*
X217287857Y-122009285D01*
X217383095Y-122009285D01*
X217525952Y-122056904D01*
X218097380Y-122628333D01*
X218097380Y-122009285D01*
G04 #@! TO.C,D3*
X193332380Y-123533095D02*
X192332380Y-123533095D01*
X192332380Y-123295000D01*
X192380000Y-123152142D01*
X192475238Y-123056904D01*
X192570476Y-123009285D01*
X192760952Y-122961666D01*
X192903809Y-122961666D01*
X193094285Y-123009285D01*
X193189523Y-123056904D01*
X193284761Y-123152142D01*
X193332380Y-123295000D01*
X193332380Y-123533095D01*
X192332380Y-122628333D02*
X192332380Y-122009285D01*
X192713333Y-122342619D01*
X192713333Y-122199761D01*
X192760952Y-122104523D01*
X192808571Y-122056904D01*
X192903809Y-122009285D01*
X193141904Y-122009285D01*
X193237142Y-122056904D01*
X193284761Y-122104523D01*
X193332380Y-122199761D01*
X193332380Y-122485476D01*
X193284761Y-122580714D01*
X193237142Y-122628333D01*
G04 #@! TO.C,D4*
X173647380Y-123533095D02*
X172647380Y-123533095D01*
X172647380Y-123295000D01*
X172695000Y-123152142D01*
X172790238Y-123056904D01*
X172885476Y-123009285D01*
X173075952Y-122961666D01*
X173218809Y-122961666D01*
X173409285Y-123009285D01*
X173504523Y-123056904D01*
X173599761Y-123152142D01*
X173647380Y-123295000D01*
X173647380Y-123533095D01*
X172980714Y-122104523D02*
X173647380Y-122104523D01*
X172599761Y-122342619D02*
X173314047Y-122580714D01*
X173314047Y-121961666D01*
G04 #@! TO.C,D5*
X198412380Y-123533095D02*
X197412380Y-123533095D01*
X197412380Y-123295000D01*
X197460000Y-123152142D01*
X197555238Y-123056904D01*
X197650476Y-123009285D01*
X197840952Y-122961666D01*
X197983809Y-122961666D01*
X198174285Y-123009285D01*
X198269523Y-123056904D01*
X198364761Y-123152142D01*
X198412380Y-123295000D01*
X198412380Y-123533095D01*
X197412380Y-122056904D02*
X197412380Y-122533095D01*
X197888571Y-122580714D01*
X197840952Y-122533095D01*
X197793333Y-122437857D01*
X197793333Y-122199761D01*
X197840952Y-122104523D01*
X197888571Y-122056904D01*
X197983809Y-122009285D01*
X198221904Y-122009285D01*
X198317142Y-122056904D01*
X198364761Y-122104523D01*
X198412380Y-122199761D01*
X198412380Y-122437857D01*
X198364761Y-122533095D01*
X198317142Y-122580714D01*
G04 #@! TO.C,D6*
X193332380Y-84798095D02*
X192332380Y-84798095D01*
X192332380Y-84560000D01*
X192380000Y-84417142D01*
X192475238Y-84321904D01*
X192570476Y-84274285D01*
X192760952Y-84226666D01*
X192903809Y-84226666D01*
X193094285Y-84274285D01*
X193189523Y-84321904D01*
X193284761Y-84417142D01*
X193332380Y-84560000D01*
X193332380Y-84798095D01*
X192332380Y-83369523D02*
X192332380Y-83560000D01*
X192380000Y-83655238D01*
X192427619Y-83702857D01*
X192570476Y-83798095D01*
X192760952Y-83845714D01*
X193141904Y-83845714D01*
X193237142Y-83798095D01*
X193284761Y-83750476D01*
X193332380Y-83655238D01*
X193332380Y-83464761D01*
X193284761Y-83369523D01*
X193237142Y-83321904D01*
X193141904Y-83274285D01*
X192903809Y-83274285D01*
X192808571Y-83321904D01*
X192760952Y-83369523D01*
X192713333Y-83464761D01*
X192713333Y-83655238D01*
X192760952Y-83750476D01*
X192808571Y-83798095D01*
X192903809Y-83845714D01*
G04 #@! TO.C,D7*
X178727380Y-123533095D02*
X177727380Y-123533095D01*
X177727380Y-123295000D01*
X177775000Y-123152142D01*
X177870238Y-123056904D01*
X177965476Y-123009285D01*
X178155952Y-122961666D01*
X178298809Y-122961666D01*
X178489285Y-123009285D01*
X178584523Y-123056904D01*
X178679761Y-123152142D01*
X178727380Y-123295000D01*
X178727380Y-123533095D01*
X177727380Y-122628333D02*
X177727380Y-121961666D01*
X178727380Y-122390238D01*
G04 #@! TO.C,D8*
X213017380Y-84798095D02*
X212017380Y-84798095D01*
X212017380Y-84560000D01*
X212065000Y-84417142D01*
X212160238Y-84321904D01*
X212255476Y-84274285D01*
X212445952Y-84226666D01*
X212588809Y-84226666D01*
X212779285Y-84274285D01*
X212874523Y-84321904D01*
X212969761Y-84417142D01*
X213017380Y-84560000D01*
X213017380Y-84798095D01*
X212445952Y-83655238D02*
X212398333Y-83750476D01*
X212350714Y-83798095D01*
X212255476Y-83845714D01*
X212207857Y-83845714D01*
X212112619Y-83798095D01*
X212065000Y-83750476D01*
X212017380Y-83655238D01*
X212017380Y-83464761D01*
X212065000Y-83369523D01*
X212112619Y-83321904D01*
X212207857Y-83274285D01*
X212255476Y-83274285D01*
X212350714Y-83321904D01*
X212398333Y-83369523D01*
X212445952Y-83464761D01*
X212445952Y-83655238D01*
X212493571Y-83750476D01*
X212541190Y-83798095D01*
X212636428Y-83845714D01*
X212826904Y-83845714D01*
X212922142Y-83798095D01*
X212969761Y-83750476D01*
X213017380Y-83655238D01*
X213017380Y-83464761D01*
X212969761Y-83369523D01*
X212922142Y-83321904D01*
X212826904Y-83274285D01*
X212636428Y-83274285D01*
X212541190Y-83321904D01*
X212493571Y-83369523D01*
X212445952Y-83464761D01*
G04 #@! TO.C,D9*
X153962380Y-123533095D02*
X152962380Y-123533095D01*
X152962380Y-123295000D01*
X153010000Y-123152142D01*
X153105238Y-123056904D01*
X153200476Y-123009285D01*
X153390952Y-122961666D01*
X153533809Y-122961666D01*
X153724285Y-123009285D01*
X153819523Y-123056904D01*
X153914761Y-123152142D01*
X153962380Y-123295000D01*
X153962380Y-123533095D01*
X153962380Y-122485476D02*
X153962380Y-122295000D01*
X153914761Y-122199761D01*
X153867142Y-122152142D01*
X153724285Y-122056904D01*
X153533809Y-122009285D01*
X153152857Y-122009285D01*
X153057619Y-122056904D01*
X153010000Y-122104523D01*
X152962380Y-122199761D01*
X152962380Y-122390238D01*
X153010000Y-122485476D01*
X153057619Y-122533095D01*
X153152857Y-122580714D01*
X153390952Y-122580714D01*
X153486190Y-122533095D01*
X153533809Y-122485476D01*
X153581428Y-122390238D01*
X153581428Y-122199761D01*
X153533809Y-122104523D01*
X153486190Y-122056904D01*
X153390952Y-122009285D01*
G04 #@! TO.C,D10*
X198412380Y-85274285D02*
X197412380Y-85274285D01*
X197412380Y-85036190D01*
X197460000Y-84893333D01*
X197555238Y-84798095D01*
X197650476Y-84750476D01*
X197840952Y-84702857D01*
X197983809Y-84702857D01*
X198174285Y-84750476D01*
X198269523Y-84798095D01*
X198364761Y-84893333D01*
X198412380Y-85036190D01*
X198412380Y-85274285D01*
X198412380Y-83750476D02*
X198412380Y-84321904D01*
X198412380Y-84036190D02*
X197412380Y-84036190D01*
X197555238Y-84131428D01*
X197650476Y-84226666D01*
X197698095Y-84321904D01*
X197412380Y-83131428D02*
X197412380Y-83036190D01*
X197460000Y-82940952D01*
X197507619Y-82893333D01*
X197602857Y-82845714D01*
X197793333Y-82798095D01*
X198031428Y-82798095D01*
X198221904Y-82845714D01*
X198317142Y-82893333D01*
X198364761Y-82940952D01*
X198412380Y-83036190D01*
X198412380Y-83131428D01*
X198364761Y-83226666D01*
X198317142Y-83274285D01*
X198221904Y-83321904D01*
X198031428Y-83369523D01*
X197793333Y-83369523D01*
X197602857Y-83321904D01*
X197507619Y-83274285D01*
X197460000Y-83226666D01*
X197412380Y-83131428D01*
G04 #@! TO.C,D11*
X136182380Y-124009285D02*
X135182380Y-124009285D01*
X135182380Y-123771190D01*
X135230000Y-123628333D01*
X135325238Y-123533095D01*
X135420476Y-123485476D01*
X135610952Y-123437857D01*
X135753809Y-123437857D01*
X135944285Y-123485476D01*
X136039523Y-123533095D01*
X136134761Y-123628333D01*
X136182380Y-123771190D01*
X136182380Y-124009285D01*
X136182380Y-122485476D02*
X136182380Y-123056904D01*
X136182380Y-122771190D02*
X135182380Y-122771190D01*
X135325238Y-122866428D01*
X135420476Y-122961666D01*
X135468095Y-123056904D01*
X136182380Y-121533095D02*
X136182380Y-122104523D01*
X136182380Y-121818809D02*
X135182380Y-121818809D01*
X135325238Y-121914047D01*
X135420476Y-122009285D01*
X135468095Y-122104523D01*
G04 #@! TO.C,D12*
X218097380Y-85274285D02*
X217097380Y-85274285D01*
X217097380Y-85036190D01*
X217145000Y-84893333D01*
X217240238Y-84798095D01*
X217335476Y-84750476D01*
X217525952Y-84702857D01*
X217668809Y-84702857D01*
X217859285Y-84750476D01*
X217954523Y-84798095D01*
X218049761Y-84893333D01*
X218097380Y-85036190D01*
X218097380Y-85274285D01*
X218097380Y-83750476D02*
X218097380Y-84321904D01*
X218097380Y-84036190D02*
X217097380Y-84036190D01*
X217240238Y-84131428D01*
X217335476Y-84226666D01*
X217383095Y-84321904D01*
X217192619Y-83369523D02*
X217145000Y-83321904D01*
X217097380Y-83226666D01*
X217097380Y-82988571D01*
X217145000Y-82893333D01*
X217192619Y-82845714D01*
X217287857Y-82798095D01*
X217383095Y-82798095D01*
X217525952Y-82845714D01*
X218097380Y-83417142D01*
X218097380Y-82798095D01*
G04 #@! TO.C,D13*
X136182380Y-85274285D02*
X135182380Y-85274285D01*
X135182380Y-85036190D01*
X135230000Y-84893333D01*
X135325238Y-84798095D01*
X135420476Y-84750476D01*
X135610952Y-84702857D01*
X135753809Y-84702857D01*
X135944285Y-84750476D01*
X136039523Y-84798095D01*
X136134761Y-84893333D01*
X136182380Y-85036190D01*
X136182380Y-85274285D01*
X136182380Y-83750476D02*
X136182380Y-84321904D01*
X136182380Y-84036190D02*
X135182380Y-84036190D01*
X135325238Y-84131428D01*
X135420476Y-84226666D01*
X135468095Y-84321904D01*
X135182380Y-83417142D02*
X135182380Y-82798095D01*
X135563333Y-83131428D01*
X135563333Y-82988571D01*
X135610952Y-82893333D01*
X135658571Y-82845714D01*
X135753809Y-82798095D01*
X135991904Y-82798095D01*
X136087142Y-82845714D01*
X136134761Y-82893333D01*
X136182380Y-82988571D01*
X136182380Y-83274285D01*
X136134761Y-83369523D01*
X136087142Y-83417142D01*
G04 #@! TO.C,D14*
X153962380Y-85274285D02*
X152962380Y-85274285D01*
X152962380Y-85036190D01*
X153010000Y-84893333D01*
X153105238Y-84798095D01*
X153200476Y-84750476D01*
X153390952Y-84702857D01*
X153533809Y-84702857D01*
X153724285Y-84750476D01*
X153819523Y-84798095D01*
X153914761Y-84893333D01*
X153962380Y-85036190D01*
X153962380Y-85274285D01*
X153962380Y-83750476D02*
X153962380Y-84321904D01*
X153962380Y-84036190D02*
X152962380Y-84036190D01*
X153105238Y-84131428D01*
X153200476Y-84226666D01*
X153248095Y-84321904D01*
X153295714Y-82893333D02*
X153962380Y-82893333D01*
X152914761Y-83131428D02*
X153629047Y-83369523D01*
X153629047Y-82750476D01*
G04 #@! TO.C,D15*
X159042380Y-124009285D02*
X158042380Y-124009285D01*
X158042380Y-123771190D01*
X158090000Y-123628333D01*
X158185238Y-123533095D01*
X158280476Y-123485476D01*
X158470952Y-123437857D01*
X158613809Y-123437857D01*
X158804285Y-123485476D01*
X158899523Y-123533095D01*
X158994761Y-123628333D01*
X159042380Y-123771190D01*
X159042380Y-124009285D01*
X159042380Y-122485476D02*
X159042380Y-123056904D01*
X159042380Y-122771190D02*
X158042380Y-122771190D01*
X158185238Y-122866428D01*
X158280476Y-122961666D01*
X158328095Y-123056904D01*
X158042380Y-121580714D02*
X158042380Y-122056904D01*
X158518571Y-122104523D01*
X158470952Y-122056904D01*
X158423333Y-121961666D01*
X158423333Y-121723571D01*
X158470952Y-121628333D01*
X158518571Y-121580714D01*
X158613809Y-121533095D01*
X158851904Y-121533095D01*
X158947142Y-121580714D01*
X158994761Y-121628333D01*
X159042380Y-121723571D01*
X159042380Y-121961666D01*
X158994761Y-122056904D01*
X158947142Y-122104523D01*
G04 #@! TO.C,D16*
X174282380Y-85274285D02*
X173282380Y-85274285D01*
X173282380Y-85036190D01*
X173330000Y-84893333D01*
X173425238Y-84798095D01*
X173520476Y-84750476D01*
X173710952Y-84702857D01*
X173853809Y-84702857D01*
X174044285Y-84750476D01*
X174139523Y-84798095D01*
X174234761Y-84893333D01*
X174282380Y-85036190D01*
X174282380Y-85274285D01*
X174282380Y-83750476D02*
X174282380Y-84321904D01*
X174282380Y-84036190D02*
X173282380Y-84036190D01*
X173425238Y-84131428D01*
X173520476Y-84226666D01*
X173568095Y-84321904D01*
X173282380Y-82893333D02*
X173282380Y-83083809D01*
X173330000Y-83179047D01*
X173377619Y-83226666D01*
X173520476Y-83321904D01*
X173710952Y-83369523D01*
X174091904Y-83369523D01*
X174187142Y-83321904D01*
X174234761Y-83274285D01*
X174282380Y-83179047D01*
X174282380Y-82988571D01*
X174234761Y-82893333D01*
X174187142Y-82845714D01*
X174091904Y-82798095D01*
X173853809Y-82798095D01*
X173758571Y-82845714D01*
X173710952Y-82893333D01*
X173663333Y-82988571D01*
X173663333Y-83179047D01*
X173710952Y-83274285D01*
X173758571Y-83321904D01*
X173853809Y-83369523D01*
G04 #@! TO.C,D17*
X141262380Y-124009285D02*
X140262380Y-124009285D01*
X140262380Y-123771190D01*
X140310000Y-123628333D01*
X140405238Y-123533095D01*
X140500476Y-123485476D01*
X140690952Y-123437857D01*
X140833809Y-123437857D01*
X141024285Y-123485476D01*
X141119523Y-123533095D01*
X141214761Y-123628333D01*
X141262380Y-123771190D01*
X141262380Y-124009285D01*
X141262380Y-122485476D02*
X141262380Y-123056904D01*
X141262380Y-122771190D02*
X140262380Y-122771190D01*
X140405238Y-122866428D01*
X140500476Y-122961666D01*
X140548095Y-123056904D01*
X140262380Y-122152142D02*
X140262380Y-121485476D01*
X141262380Y-121914047D01*
G04 #@! TO.C,D18*
X141262380Y-85274285D02*
X140262380Y-85274285D01*
X140262380Y-85036190D01*
X140310000Y-84893333D01*
X140405238Y-84798095D01*
X140500476Y-84750476D01*
X140690952Y-84702857D01*
X140833809Y-84702857D01*
X141024285Y-84750476D01*
X141119523Y-84798095D01*
X141214761Y-84893333D01*
X141262380Y-85036190D01*
X141262380Y-85274285D01*
X141262380Y-83750476D02*
X141262380Y-84321904D01*
X141262380Y-84036190D02*
X140262380Y-84036190D01*
X140405238Y-84131428D01*
X140500476Y-84226666D01*
X140548095Y-84321904D01*
X140690952Y-83179047D02*
X140643333Y-83274285D01*
X140595714Y-83321904D01*
X140500476Y-83369523D01*
X140452857Y-83369523D01*
X140357619Y-83321904D01*
X140310000Y-83274285D01*
X140262380Y-83179047D01*
X140262380Y-82988571D01*
X140310000Y-82893333D01*
X140357619Y-82845714D01*
X140452857Y-82798095D01*
X140500476Y-82798095D01*
X140595714Y-82845714D01*
X140643333Y-82893333D01*
X140690952Y-82988571D01*
X140690952Y-83179047D01*
X140738571Y-83274285D01*
X140786190Y-83321904D01*
X140881428Y-83369523D01*
X141071904Y-83369523D01*
X141167142Y-83321904D01*
X141214761Y-83274285D01*
X141262380Y-83179047D01*
X141262380Y-82988571D01*
X141214761Y-82893333D01*
X141167142Y-82845714D01*
X141071904Y-82798095D01*
X140881428Y-82798095D01*
X140786190Y-82845714D01*
X140738571Y-82893333D01*
X140690952Y-82988571D01*
G04 #@! TO.C,D19*
X159042380Y-85274285D02*
X158042380Y-85274285D01*
X158042380Y-85036190D01*
X158090000Y-84893333D01*
X158185238Y-84798095D01*
X158280476Y-84750476D01*
X158470952Y-84702857D01*
X158613809Y-84702857D01*
X158804285Y-84750476D01*
X158899523Y-84798095D01*
X158994761Y-84893333D01*
X159042380Y-85036190D01*
X159042380Y-85274285D01*
X159042380Y-83750476D02*
X159042380Y-84321904D01*
X159042380Y-84036190D02*
X158042380Y-84036190D01*
X158185238Y-84131428D01*
X158280476Y-84226666D01*
X158328095Y-84321904D01*
X159042380Y-83274285D02*
X159042380Y-83083809D01*
X158994761Y-82988571D01*
X158947142Y-82940952D01*
X158804285Y-82845714D01*
X158613809Y-82798095D01*
X158232857Y-82798095D01*
X158137619Y-82845714D01*
X158090000Y-82893333D01*
X158042380Y-82988571D01*
X158042380Y-83179047D01*
X158090000Y-83274285D01*
X158137619Y-83321904D01*
X158232857Y-83369523D01*
X158470952Y-83369523D01*
X158566190Y-83321904D01*
X158613809Y-83274285D01*
X158661428Y-83179047D01*
X158661428Y-82988571D01*
X158613809Y-82893333D01*
X158566190Y-82845714D01*
X158470952Y-82798095D01*
G04 #@! TO.C,D20*
X178727380Y-85274285D02*
X177727380Y-85274285D01*
X177727380Y-85036190D01*
X177775000Y-84893333D01*
X177870238Y-84798095D01*
X177965476Y-84750476D01*
X178155952Y-84702857D01*
X178298809Y-84702857D01*
X178489285Y-84750476D01*
X178584523Y-84798095D01*
X178679761Y-84893333D01*
X178727380Y-85036190D01*
X178727380Y-85274285D01*
X177822619Y-84321904D02*
X177775000Y-84274285D01*
X177727380Y-84179047D01*
X177727380Y-83940952D01*
X177775000Y-83845714D01*
X177822619Y-83798095D01*
X177917857Y-83750476D01*
X178013095Y-83750476D01*
X178155952Y-83798095D01*
X178727380Y-84369523D01*
X178727380Y-83750476D01*
X177727380Y-83131428D02*
X177727380Y-83036190D01*
X177775000Y-82940952D01*
X177822619Y-82893333D01*
X177917857Y-82845714D01*
X178108333Y-82798095D01*
X178346428Y-82798095D01*
X178536904Y-82845714D01*
X178632142Y-82893333D01*
X178679761Y-82940952D01*
X178727380Y-83036190D01*
X178727380Y-83131428D01*
X178679761Y-83226666D01*
X178632142Y-83274285D01*
X178536904Y-83321904D01*
X178346428Y-83369523D01*
X178108333Y-83369523D01*
X177917857Y-83321904D01*
X177822619Y-83274285D01*
X177775000Y-83226666D01*
X177727380Y-83131428D01*
G04 #@! TO.C,D21*
X115230714Y-101577380D02*
X115230714Y-100577380D01*
X115468809Y-100577380D01*
X115611666Y-100625000D01*
X115706904Y-100720238D01*
X115754523Y-100815476D01*
X115802142Y-101005952D01*
X115802142Y-101148809D01*
X115754523Y-101339285D01*
X115706904Y-101434523D01*
X115611666Y-101529761D01*
X115468809Y-101577380D01*
X115230714Y-101577380D01*
X116183095Y-100672619D02*
X116230714Y-100625000D01*
X116325952Y-100577380D01*
X116564047Y-100577380D01*
X116659285Y-100625000D01*
X116706904Y-100672619D01*
X116754523Y-100767857D01*
X116754523Y-100863095D01*
X116706904Y-101005952D01*
X116135476Y-101577380D01*
X116754523Y-101577380D01*
X117706904Y-101577380D02*
X117135476Y-101577380D01*
X117421190Y-101577380D02*
X117421190Y-100577380D01*
X117325952Y-100720238D01*
X117230714Y-100815476D01*
X117135476Y-100863095D01*
G04 #@! TO.C,R21*
X121517142Y-101577380D02*
X121183809Y-101101190D01*
X120945714Y-101577380D02*
X120945714Y-100577380D01*
X121326666Y-100577380D01*
X121421904Y-100625000D01*
X121469523Y-100672619D01*
X121517142Y-100767857D01*
X121517142Y-100910714D01*
X121469523Y-101005952D01*
X121421904Y-101053571D01*
X121326666Y-101101190D01*
X120945714Y-101101190D01*
X121898095Y-100672619D02*
X121945714Y-100625000D01*
X122040952Y-100577380D01*
X122279047Y-100577380D01*
X122374285Y-100625000D01*
X122421904Y-100672619D01*
X122469523Y-100767857D01*
X122469523Y-100863095D01*
X122421904Y-101005952D01*
X121850476Y-101577380D01*
X122469523Y-101577380D01*
X123421904Y-101577380D02*
X122850476Y-101577380D01*
X123136190Y-101577380D02*
X123136190Y-100577380D01*
X123040952Y-100720238D01*
X122945714Y-100815476D01*
X122850476Y-100863095D01*
G04 #@! TD*
M02*
